<?xml version="1.0" encoding="UTF-8" standalone="no"?>
<svg
   width="45.999886"
   height="45.999989"
   version="1.1"
   viewBox="0 0 12.170564 12.170591"
   id="svg12"
   sodipodi:docname="com.usebottles.bottles-program.svg"
   inkscape:version="1.3.2 (091e20ef0f, 2023-11-25)"
   xmlns:inkscape="http://www.inkscape.org/namespaces/inkscape"
   xmlns:sodipodi="http://sodipodi.sourceforge.net/DTD/sodipodi-0.dtd"
   xmlns:xlink="http://www.w3.org/1999/xlink"
   xmlns="http://www.w3.org/2000/svg"
   xmlns:svg="http://www.w3.org/2000/svg">
  <defs
     id="defs16">
    <linearGradient
       id="c"
       y1="523.79999"
       x1="403.57001"
       y2="536.79999"
       x2="416.57001"
       gradientUnits="userSpaceOnUse"
       gradientTransform="matrix(0.34526714,0,0,0.34526706,-134.80427,-174.63325)">
      <stop
         stop-color="#292c2f"
         id="stop1568" />
      <stop
         offset="1"
         stop-opacity="0"
         id="stop1570" />
    </linearGradient>
    <linearGradient
       xlink:href="#b-2"
       id="linearGradient4189"
       x1="14.369"
       y1="22.521999"
       x2="26.521999"
       y2="22.521999"
       gradientUnits="userSpaceOnUse" />
    <linearGradient
       x1="36"
       gradientUnits="userSpaceOnUse"
       x2="14"
       y2="12"
       y1="44"
       id="b-2">
      <stop
         style="stop-color:#bfc9c9;stop-opacity:1"
         stop-color="#536161"
         id="stop1579" />
      <stop
         style="stop-color:#fbfbfb;stop-opacity:1"
         stop-color="#f4f5f5"
         offset="1"
         id="stop1581" />
    </linearGradient>
    <linearGradient
       xlink:href="#b-2"
       id="linearGradient4428"
       gradientUnits="userSpaceOnUse"
       x1="31.586"
       y1="36.345001"
       x2="1.2029999"
       y2="6.723" />
    <linearGradient
       xlink:href="#b-2"
       id="linearGradient4189-3"
       x1="14.369"
       y1="22.521999"
       x2="26.521999"
       y2="22.521999"
       gradientUnits="userSpaceOnUse"
       gradientTransform="translate(20.841982,61.553822)" />
    <linearGradient
       xlink:href="#b-2"
       id="linearGradient4428-5"
       gradientUnits="userSpaceOnUse"
       x1="31.586"
       y1="36.345001"
       x2="1.2029999"
       y2="6.723"
       gradientTransform="translate(20.841982,61.553822)" />
    <linearGradient
       xlink:href="#b-2"
       id="linearGradient4189-3-3"
       x1="14.369"
       y1="22.521999"
       x2="26.521999"
       y2="22.521999"
       gradientUnits="userSpaceOnUse"
       gradientTransform="translate(4.376802,4.4211693)" />
    <linearGradient
       xlink:href="#b-2"
       id="linearGradient4428-5-5"
       gradientUnits="userSpaceOnUse"
       x1="31.586"
       y1="36.345001"
       x2="1.2029999"
       y2="6.723"
       gradientTransform="translate(4.376802,4.4211693)" />
    <linearGradient
       inkscape:collect="always"
       xlink:href="#linearGradient11"
       id="linearGradient13"
       x1="-43.819283"
       y1="23.120178"
       x2="-1.9547797"
       y2="23.120178"
       gradientUnits="userSpaceOnUse"
       gradientTransform="scale(0.26457813)" />
    <linearGradient
       id="linearGradient11"
       inkscape:collect="always">
      <stop
         style="stop-color:#9955ff;stop-opacity:0.65640396;"
         offset="0"
         id="stop4-3" />
      <stop
         style="stop-color:#00ccff;stop-opacity:1"
         offset="1"
         id="stop11" />
    </linearGradient>
    <linearGradient
       inkscape:collect="always"
       xlink:href="#linearGradient14"
       id="linearGradient15"
       x1="-9.6850061"
       y1="45.161198"
       x2="11.98815"
       y2="21.735205"
       gradientUnits="userSpaceOnUse"
       gradientTransform="scale(0.26457813)" />
    <linearGradient
       id="linearGradient14"
       inkscape:collect="always">
      <stop
         style="stop-color:#9955ff;stop-opacity:0.45197046;"
         offset="0"
         id="stop12" />
      <stop
         style="stop-color:#00ccff;stop-opacity:1"
         offset="1"
         id="stop13" />
    </linearGradient>
    <filter
       id="filter2917-3"
       x="-0.96181147"
       y="-0.66745996"
       width="2.9236229"
       height="2.3349199"
       color-interpolation-filters="sRGB">
      <feGaussianBlur
         stdDeviation="0.2871969"
         id="feGaussianBlur732-5" />
    </filter>
    <filter
       id="filter1"
       x="-0.96181148"
       y="-0.66745996"
       width="2.9236228"
       height="2.3349199"
       color-interpolation-filters="sRGB">
      <feGaussianBlur
         stdDeviation="0.2871969"
         id="feGaussianBlur1" />
    </filter>
    <filter
       id="filter2"
       x="-0.96181148"
       y="-0.66745996"
       width="2.9236228"
       height="2.3349199"
       color-interpolation-filters="sRGB">
      <feGaussianBlur
         stdDeviation="0.2871969"
         id="feGaussianBlur2" />
    </filter>
  </defs>
  <sodipodi:namedview
     id="namedview14"
     pagecolor="#000000"
     bordercolor="#666666"
     borderopacity="1.0"
     inkscape:showpageshadow="2"
     inkscape:pageopacity="0.0"
     inkscape:pagecheckerboard="0"
     inkscape:deskcolor="#d1d1d1"
     showgrid="false"
     inkscape:zoom="5.2149125"
     inkscape:cx="23.20269"
     inkscape:cy="53.692176"
     inkscape:window-width="1920"
     inkscape:window-height="996"
     inkscape:window-x="0"
     inkscape:window-y="0"
     inkscape:window-maximized="1"
     inkscape:current-layer="svg12">
    <inkscape:grid
       type="xygrid"
       id="grid244"
       originx="9.7893915"
       originy="-31.749373"
       spacingy="1"
       spacingx="1"
       units="px"
       visible="false" />
  </sodipodi:namedview>
  <rect
     x="-12.025727"
     y="0.1490714"
     width="11.940627"
     height="11.936014"
     rx="1.6121091"
     stroke="url(#paint4_linear_77:23)"
     shape-rendering="crispEdges"
     id="rect5-6-7-3"
     ry="1.7735944"
     transform="matrix(0.00523883,-0.99998628,0.999988,0.00489859,0,0)"
     style="fill:#80b3ff;fill-opacity:0.15;stroke:url(#linearGradient13);stroke-width:0.188987;stroke-opacity:1" />
  <rect
     x="-3.7266586"
     y="4.6446943"
     width="7.912631"
     height="7.912384"
     rx="1.612043"
     shape-rendering="crispEdges"
     id="rect5-6-6-6-6"
     style="fill:#80b3ff;fill-opacity:0.122146;stroke:url(#linearGradient15);stroke-width:0.188987;stroke-opacity:1"
     ry="1.7735215"
     transform="matrix(0.72612649,-0.68756114,0.6879775,0.72573202,0,0)" />
  <path
     id="path1"
     d="M 6.4667367,4.5558986 V 4.1624624 c 0.1039445,-0.02949 0.2009587,-0.0728 0.2910468,-0.126524 l 0.2806499,0.2807822 c 0.053704,0.05372 0.1403248,0.05372 0.1922954,0 L 7.4663383,4.0810084 c 0.055434,-0.052 0.055434,-0.138675 0.00172,-0.190679 L 7.1839551,3.6060814 c 0.05197,-0.09014 0.093551,-0.18546 0.1212678,-0.287751 H 7.705409 c 0.074494,0 0.1368601,-0.06065 0.1368601,-0.136924 v -0.3345 c 0,-0.07456 -0.060634,-0.136942 -0.1368601,-0.136942 H 7.312153 C 7.286166,2.6042354 7.246323,2.5019694 7.1960818,2.4101084 l 0.2719863,-0.273859 c 0.053704,-0.05373 0.053704,-0.140398 0,-0.192394 L 7.232462,1.7081294 c -0.053704,-0.05373 -0.1403248,-0.05373 -0.1922988,0 L 6.7803036,1.9681204 C 6.6850226,1.9074534 6.5793446,1.8606574 6.4684699,1.8294564 v -0.358787 c 0,-0.07453 -0.060634,-0.136931 -0.1368615,-0.136931 h -0.334354 c -0.074494,0 -0.1368578,0.06066 -0.1368578,0.136931 v 0.344923 c -0.1195382,0.02773 -0.2304128,0.0728 -0.3326241,0.13346 L 5.2869698,1.7081294 c -0.053707,-0.05373 -0.1403248,-0.05373 -0.1922988,0 l -0.235606,0.235726 c -0.053704,0.05373 -0.053704,0.140395 0,0.192394 l 0.2373393,0.23746 C 5.0357703,2.4759714 4.988993,2.5903674 4.9595428,2.7099644 H 4.6217257 c -0.074494,0 -0.1368618,0.06067 -0.1368618,0.136942 v 0.332785 c 0,0.07452 0.060634,0.136923 0.1368618,0.136923 h 0.3464804 c 0.031184,0.116123 0.079691,0.223596 0.1420586,0.322384 L 4.859065,3.8903294 c -0.053704,0.05372 -0.053704,0.140391 0,0.192394 l 0.235606,0.2357122 c 0.053704,0.05376 0.1403249,0.05376 0.1922988,0 L 5.548563,4.0567404 c 0.097015,0.05372 0.2009587,0.09532 0.3118336,0.119589 v 0.3778542 c 0,0.07452 0.060634,0.136924 0.1368578,0.136924 h 0.3326242 c 0.076224,0.0017 0.1368581,-0.05894 0.1368581,-0.135209 z M 5.6715315,2.9959464 c 0,-0.334515 0.3039037,-0.461067 0.4630919,-0.461067 0.1591885,0 0.4486187,0.126552 0.4486187,0.461067 0,0.334536 -0.3183732,0.46511 -0.4486187,0.46511 -0.173658,0 -0.4630919,-0.130574 -0.4630919,-0.46511 z"
     style="fill:#ffe680;fill-opacity:1;stroke-width:0.107382" />
  <path
     id="path1-9"
     d="m 6.3516453,10.687237 v -0.393439 c 0.1039445,-0.02949 0.2009587,-0.0728 0.2910468,-0.126525 l 0.2806499,0.280784 c 0.053704,0.05372 0.1403248,0.05372 0.1922954,0 l 0.2356095,-0.235713 c 0.055434,-0.052 0.055434,-0.138677 0.00172,-0.190681 L 7.0688637,9.737415 c 0.05197,-0.09014 0.093551,-0.18546 0.1212678,-0.287751 h 0.4001861 c 0.074494,0 0.1368601,-0.06065 0.1368601,-0.136924 v -0.3345 c 0,-0.07456 -0.060634,-0.136942 -0.1368601,-0.136942 H 7.1970616 C 7.1710746,8.735569 7.1312316,8.633303 7.0809904,8.541442 L 7.3529767,8.267583 c 0.053704,-0.05373 0.053704,-0.140398 0,-0.192394 L 7.1173706,7.839463 c -0.053704,-0.05373 -0.1403248,-0.05373 -0.1922988,0 L 6.6652122,8.099454 C 6.5699312,8.038787 6.4642532,7.991991 6.3533785,7.96079 V 7.602003 c 0,-0.07453 -0.060634,-0.136931 -0.1368615,-0.136931 H 5.882163 c -0.074494,0 -0.1368578,0.06066 -0.1368578,0.136931 V 7.946926 C 5.625767,7.974656 5.5148924,8.019726 5.4126811,8.080386 L 5.1718784,7.839463 c -0.053707,-0.05373 -0.1403248,-0.05373 -0.1922988,0 l -0.235606,0.235726 c -0.053704,0.05373 -0.053704,0.140395 0,0.192394 l 0.2373393,0.23746 C 4.9206789,8.607305 4.8739016,8.721701 4.8444514,8.841298 H 4.5066343 c -0.074494,0 -0.1368618,0.06067 -0.1368618,0.136942 v 0.332785 c 0,0.07452 0.060634,0.136923 0.1368618,0.136923 h 0.3464804 c 0.031184,0.116123 0.079691,0.223596 0.1420586,0.322384 l -0.2511997,0.251331 c -0.053704,0.05372 -0.053704,0.140392 0,0.192396 l 0.235606,0.235713 c 0.053704,0.05376 0.1403249,0.05376 0.1922988,0 l 0.2615932,-0.261697 c 0.097015,0.05372 0.2009587,0.09532 0.3118336,0.11959 v 0.377857 c 0,0.07452 0.060634,0.136924 0.1368578,0.136924 h 0.3326242 c 0.076224,0.0017 0.1368581,-0.05894 0.1368581,-0.135209 z M 5.5564401,9.12728 c 0,-0.334515 0.3039037,-0.461067 0.4630919,-0.461067 0.1591885,0 0.4486187,0.126552 0.4486187,0.461067 0,0.334536 -0.3183732,0.46511 -0.4486187,0.46511 -0.173658,0 -0.4630919,-0.130574 -0.4630919,-0.46511 z"
     style="fill:#55ddff;fill-opacity:1;stroke-width:0.107382" />
  <path
     id="path1-9-0"
     d="m 3.3055572,7.5154704 v -0.393437 c 0.1039445,-0.02949 0.2009587,-0.0728 0.2910468,-0.126524 l 0.2806499,0.280782 c 0.053704,0.05372 0.1403248,0.05372 0.1922954,0 l 0.2356095,-0.235712 c 0.055434,-0.052 0.055434,-0.138675 0.00172,-0.190679 L 4.0227756,6.5656524 c 0.05197,-0.09014 0.093551,-0.18546 0.1212678,-0.287751 h 0.4001861 c 0.074494,0 0.1368601,-0.06065 0.1368601,-0.136924 v -0.3345 c 0,-0.07456 -0.060634,-0.136942 -0.1368601,-0.136942 h -0.393256 c -0.025987,-0.105729 -0.06583,-0.207995 -0.1160712,-0.299856 l 0.2719863,-0.273859 c 0.053704,-0.05373 0.053704,-0.140398 0,-0.192394 L 4.0712825,4.6677004 c -0.053704,-0.05373 -0.1403248,-0.05373 -0.1922988,0 L 3.6191241,4.9276914 C 3.5238431,4.8670244 3.4181651,4.8202284 3.3072904,4.7890274 v -0.358787 c 0,-0.07453 -0.060634,-0.136931 -0.1368615,-0.136931 h -0.334354 c -0.074494,0 -0.1368578,0.06066 -0.1368578,0.136931 v 0.344923 c -0.1195382,0.02773 -0.2304128,0.0728 -0.3326241,0.13346 L 2.1257903,4.6677004 c -0.053707,-0.05373 -0.1403248,-0.05373 -0.1922988,0 l -0.235606,0.235726 c -0.053704,0.05373 -0.053704,0.140395 0,0.192394 l 0.2373393,0.23746 c -0.060634,0.102262 -0.1074113,0.216658 -0.1368615,0.336255 H 1.4605462 c -0.074494,0 -0.1368618,0.06067 -0.1368618,0.136942 v 0.332785 c 0,0.07452 0.060634,0.136923 0.1368618,0.136923 h 0.3464804 c 0.031184,0.116123 0.079691,0.223596 0.1420586,0.322384 l -0.2511997,0.251331 c -0.053704,0.05372 -0.053704,0.140391 0,0.192394 l 0.235606,0.235712 c 0.053704,0.05376 0.1403249,0.05376 0.1922988,0 l 0.2615932,-0.261695 c 0.097015,0.05372 0.2009587,0.09532 0.3118336,0.119589 v 0.377855 c 0,0.07452 0.060634,0.136924 0.1368578,0.136924 h 0.3326242 c 0.076224,0.0017 0.1368581,-0.05894 0.1368581,-0.135209 z M 2.510352,5.9555174 c 0,-0.334515 0.3039037,-0.461067 0.4630919,-0.461067 0.1591885,0 0.4486187,0.126552 0.4486187,0.461067 0,0.334536 -0.3183732,0.46511 -0.4486187,0.46511 -0.173658,0 -0.4630919,-0.130574 -0.4630919,-0.46511 z"
     style="fill:#b380ff;fill-opacity:1;stroke-width:0.107382" />
  <path
     id="path1-9-0-0"
     d="m 9.5237959,7.6919516 v -0.393437 c 0.1039445,-0.02949 0.2009587,-0.0728 0.2910468,-0.126524 l 0.2806503,0.280782 c 0.0537,0.05372 0.140324,0.05372 0.192295,0 l 0.23561,-0.235712 c 0.05543,-0.052 0.05543,-0.138675 0.0017,-0.190679 l -0.284104,-0.284248 c 0.05197,-0.09014 0.09355,-0.18546 0.121268,-0.287751 h 0.400186 c 0.07449,0 0.13686,-0.06065 0.13686,-0.136924 v -0.3345 c 0,-0.07456 -0.06063,-0.136942 -0.13686,-0.136942 h -0.393256 c -0.02599,-0.105729 -0.06583,-0.207995 -0.116071,-0.299856 l 0.271986,-0.273859 c 0.0537,-0.05373 0.0537,-0.140398 0,-0.192394 l -0.235606,-0.235726 c -0.0537,-0.05373 -0.140325,-0.05373 -0.192299,0 L 9.8373628,5.1041726 C 9.7420818,5.0435056 9.6364038,4.9967096 9.5255291,4.9655086 v -0.358787 c 0,-0.07453 -0.060634,-0.136931 -0.1368615,-0.136931 h -0.334354 c -0.074494,0 -0.1368578,0.06066 -0.1368578,0.136931 v 0.344923 c -0.1195382,0.02773 -0.2304128,0.0728 -0.3326241,0.13346 L 8.344029,4.8441816 c -0.053707,-0.05373 -0.1403248,-0.05373 -0.1922988,0 l -0.235606,0.235726 c -0.053704,0.05373 -0.053704,0.140395 0,0.192394 l 0.2373393,0.23746 C 8.0928295,5.6120236 8.0460522,5.7264196 8.016602,5.8460166 H 7.6787849 c -0.074494,0 -0.1368618,0.06067 -0.1368618,0.136942 v 0.332785 c 0,0.07452 0.060634,0.136923 0.1368618,0.136923 h 0.3464804 c 0.031184,0.116123 0.079691,0.223596 0.1420586,0.322384 l -0.2511997,0.251331 c -0.053704,0.05372 -0.053704,0.140391 0,0.192394 l 0.235606,0.235712 c 0.053704,0.05376 0.1403249,0.05376 0.1922988,0 l 0.2615932,-0.261695 c 0.097015,0.05372 0.2009587,0.09532 0.3118336,0.119589 v 0.377855 c 0,0.07452 0.060634,0.136924 0.1368578,0.136924 h 0.3326242 c 0.076224,0.0017 0.1368581,-0.05894 0.1368581,-0.135209 z M 8.7285907,6.1319986 c 0,-0.334515 0.3039037,-0.461067 0.4630919,-0.461067 0.1591885,0 0.4486187,0.126552 0.4486187,0.461067 0,0.334536 -0.3183732,0.46511 -0.4486187,0.46511 -0.173658,0 -0.4630919,-0.130574 -0.4630919,-0.46511 z"
     style="fill:#e580ff;fill-opacity:1;stroke-width:0.107382" />
</svg>
