<?xml version="1.0" encoding="UTF-8" standalone="no"?>
<svg
   width="45.999886"
   height="45.999989"
   version="1.1"
   viewBox="0 0 12.170564 12.170591"
   id="svg12"
   sodipodi:docname="com.raggesilver.Proton.svg"
   inkscape:version="1.3.2 (091e20ef0f, 2023-11-25)"
   xmlns:inkscape="http://www.inkscape.org/namespaces/inkscape"
   xmlns:sodipodi="http://sodipodi.sourceforge.net/DTD/sodipodi-0.dtd"
   xmlns:xlink="http://www.w3.org/1999/xlink"
   xmlns="http://www.w3.org/2000/svg"
   xmlns:svg="http://www.w3.org/2000/svg">
  <defs
     id="defs16">
    <linearGradient
       id="c"
       y1="523.79999"
       x1="403.57001"
       y2="536.79999"
       x2="416.57001"
       gradientUnits="userSpaceOnUse"
       gradientTransform="matrix(0.34526714,0,0,0.34526706,-134.80427,-174.63325)">
      <stop
         stop-color="#292c2f"
         id="stop1568" />
      <stop
         offset="1"
         stop-opacity="0"
         id="stop1570" />
    </linearGradient>
    <linearGradient
       xlink:href="#b-2"
       id="linearGradient4189"
       x1="14.369"
       y1="22.521999"
       x2="26.521999"
       y2="22.521999"
       gradientUnits="userSpaceOnUse" />
    <linearGradient
       x1="36"
       gradientUnits="userSpaceOnUse"
       x2="14"
       y2="12"
       y1="44"
       id="b-2">
      <stop
         style="stop-color:#bfc9c9;stop-opacity:1"
         stop-color="#536161"
         id="stop1579" />
      <stop
         style="stop-color:#fbfbfb;stop-opacity:1"
         stop-color="#f4f5f5"
         offset="1"
         id="stop1581" />
    </linearGradient>
    <linearGradient
       xlink:href="#b-2"
       id="linearGradient4428"
       gradientUnits="userSpaceOnUse"
       x1="31.586"
       y1="36.345001"
       x2="1.2029999"
       y2="6.723" />
    <linearGradient
       xlink:href="#b-2"
       id="linearGradient4189-3"
       x1="14.369"
       y1="22.521999"
       x2="26.521999"
       y2="22.521999"
       gradientUnits="userSpaceOnUse"
       gradientTransform="translate(20.841982,61.553822)" />
    <linearGradient
       xlink:href="#b-2"
       id="linearGradient4428-5"
       gradientUnits="userSpaceOnUse"
       x1="31.586"
       y1="36.345001"
       x2="1.2029999"
       y2="6.723"
       gradientTransform="translate(20.841982,61.553822)" />
    <linearGradient
       xlink:href="#b-2"
       id="linearGradient4189-3-3"
       x1="14.369"
       y1="22.521999"
       x2="26.521999"
       y2="22.521999"
       gradientUnits="userSpaceOnUse"
       gradientTransform="translate(4.376802,4.4211693)" />
    <linearGradient
       xlink:href="#b-2"
       id="linearGradient4428-5-5"
       gradientUnits="userSpaceOnUse"
       x1="31.586"
       y1="36.345001"
       x2="1.2029999"
       y2="6.723"
       gradientTransform="translate(4.376802,4.4211693)" />
    <linearGradient
       inkscape:collect="always"
       xlink:href="#linearGradient11"
       id="linearGradient13"
       x1="-43.819283"
       y1="23.120178"
       x2="-1.9547797"
       y2="23.120178"
       gradientUnits="userSpaceOnUse"
       gradientTransform="scale(0.26457813)" />
    <linearGradient
       id="linearGradient11"
       inkscape:collect="always">
      <stop
         style="stop-color:#9955ff;stop-opacity:0.65640396;"
         offset="0"
         id="stop4-3" />
      <stop
         style="stop-color:#00ccff;stop-opacity:1"
         offset="1"
         id="stop11" />
    </linearGradient>
    <linearGradient
       inkscape:collect="always"
       xlink:href="#linearGradient14"
       id="linearGradient15"
       x1="-9.6850061"
       y1="45.161198"
       x2="11.98815"
       y2="21.735205"
       gradientUnits="userSpaceOnUse"
       gradientTransform="scale(0.26457813)" />
    <linearGradient
       id="linearGradient14"
       inkscape:collect="always">
      <stop
         style="stop-color:#9955ff;stop-opacity:0.45197046;"
         offset="0"
         id="stop12" />
      <stop
         style="stop-color:#00ccff;stop-opacity:1"
         offset="1"
         id="stop13" />
    </linearGradient>
    <filter
       id="filter2917-3"
       x="-0.96181147"
       y="-0.66745996"
       width="2.9236229"
       height="2.3349199"
       color-interpolation-filters="sRGB">
      <feGaussianBlur
         stdDeviation="0.2871969"
         id="feGaussianBlur732-5" />
    </filter>
    <filter
       id="filter1"
       x="-0.96181148"
       y="-0.66745996"
       width="2.9236228"
       height="2.3349199"
       color-interpolation-filters="sRGB">
      <feGaussianBlur
         stdDeviation="0.2871969"
         id="feGaussianBlur1" />
    </filter>
    <filter
       id="filter2"
       x="-0.96181148"
       y="-0.66745996"
       width="2.9236228"
       height="2.3349199"
       color-interpolation-filters="sRGB">
      <feGaussianBlur
         stdDeviation="0.2871969"
         id="feGaussianBlur2" />
    </filter>
  </defs>
  <sodipodi:namedview
     id="namedview14"
     pagecolor="#000000"
     bordercolor="#666666"
     borderopacity="1.0"
     inkscape:showpageshadow="2"
     inkscape:pageopacity="0.0"
     inkscape:pagecheckerboard="0"
     inkscape:deskcolor="#d1d1d1"
     showgrid="false"
     inkscape:zoom="5.2149125"
     inkscape:cx="23.20269"
     inkscape:cy="53.692176"
     inkscape:window-width="1920"
     inkscape:window-height="996"
     inkscape:window-x="0"
     inkscape:window-y="0"
     inkscape:window-maximized="1"
     inkscape:current-layer="svg12">
    <inkscape:grid
       type="xygrid"
       id="grid244"
       originx="9.7893915"
       originy="-31.749373"
       spacingy="1"
       spacingx="1"
       units="px"
       visible="false" />
  </sodipodi:namedview>
  <rect
     x="-12.025727"
     y="0.1490714"
     width="11.940627"
     height="11.936014"
     rx="1.6121091"
     stroke="url(#paint4_linear_77:23)"
     shape-rendering="crispEdges"
     id="rect5-6-7-3"
     ry="1.7735944"
     transform="matrix(0.00523883,-0.99998628,0.999988,0.00489859,0,0)"
     style="fill:#80b3ff;fill-opacity:0.15;stroke:url(#linearGradient13);stroke-width:0.188987;stroke-opacity:1" />
  <rect
     x="-3.7266586"
     y="4.6446943"
     width="7.912631"
     height="7.912384"
     rx="1.612043"
     shape-rendering="crispEdges"
     id="rect5-6-6-6-6"
     style="fill:#80b3ff;fill-opacity:0.122146;stroke:url(#linearGradient15);stroke-width:0.188987;stroke-opacity:1"
     ry="1.7735215"
     transform="matrix(0.72612649,-0.68756114,0.6879775,0.72573202,0,0)" />
  <path
     d="M 6.2083032,2.5134923 C 6.1192007,2.5147123 6.0336474,2.5358093 5.9529278,2.5752753 5.8578187,2.6243913 5.7713445,2.6888607 5.6974404,2.7658029 5.6031606,2.8632119 5.5207936,2.970849 5.4512454,3.0850931 5.3885014,3.1884143 5.3324657,3.2942162 5.2816101,3.4034599 5.4257612,3.4635349 5.5667125,3.5338135 5.7024483,3.6109762 5.8755923,3.7082552 6.0453232,3.8131879 6.2083032,3.927564 6.371224,3.8131876 6.541239,3.7082544 6.7149756,3.6109759 6.8508364,3.5338103 6.9910227,3.4635373 7.1351804,3.4034596 7.0851601,3.2942174 7.0283953,3.188416 6.9654377,3.0850947 6.8958482,2.9708506 6.8135757,2.8632135 6.7193497,2.7658045 6.6454575,2.6888623 6.5590068,2.6245638 6.4638618,2.5752795 6.3840608,2.5353942 6.2976045,2.5144152 6.2083032,2.5134923 Z M 4.2069249,3.3782034 c -0.1044495,-0.00359 -0.2095865,0.013095 -0.3097278,0.046496 -0.082373,0.028939 -0.1579132,0.074431 -0.2207756,0.1347935 -0.060194,0.062523 -0.1060436,0.1378781 -0.1348529,0.2199457 -0.032538,0.099975 -0.04919,0.2048562 -0.046525,0.3091052 0,0.09913 0.010551,0.1963242 0.026733,0.2936618 0.021281,0.1119288 0.04919,0.2228575 0.084939,0.3304699 0.014397,0.042027 0.029873,0.084427 0.046168,0.1269717 C 3.8012404,4.7827922 3.9524864,4.7329375 4.105249,4.6896711 4.293666,4.6368051 4.4846609,4.5931661 4.678074,4.5584493 4.712804,4.3662622 4.757134,4.1748183 4.8097324,3.9869416 4.8519294,3.8345206 4.9031584,3.6839155 4.9598102,3.5355715 4.9175542,3.5189045 4.8751432,3.5046215 4.8316069,3.4896175 4.7248167,3.4540775 4.6137592,3.4260515 4.5007159,3.4051075 4.4040479,3.3874225 4.3062656,3.3784955 4.2070256,3.3784955 Z m 4.0028218,0 c -0.098488,0 -0.1959731,0.01024 -0.2935891,0.026608 -0.1121425,0.020903 -0.2232947,0.04875 -0.3311757,0.084577 -0.042135,0.015719 -0.085554,0.03001 -0.1281915,0.0459 0.057906,0.1483239 0.1079935,0.2989179 0.1503327,0.4514281 0.053693,0.1878655 0.097611,0.3792726 0.1323935,0.5715201 0.1927078,0.03429 0.3845503,0.07861 0.5729194,0.1311444 C 8.4652297,4.732832 8.6156382,4.782547 8.764959,4.839344 8.780435,4.797019 8.796255,4.754638 8.810532,4.7123724 8.846208,4.6047463 8.875061,4.493872 8.895519,4.38189 8.913373,4.284633 8.92225,4.1873984 8.92225,4.0882273 8.9252146,3.9839796 8.9088074,3.8791051 8.8758443,3.7791304 8.8479894,3.6970588 8.802047,3.621727 8.7418143,3.5591793 8.678116,3.4988524 8.603413,3.4531337 8.5201568,3.4244049 8.4200148,3.391842 8.3157072,3.3755897 8.2103392,3.3780901 Z M 5.1872891,3.6312243 c -0.052925,0.1378782 -0.099359,0.2793926 -0.1391083,0.4216401 -0.04356,0.1533018 -0.079967,0.306473 -0.1121363,0.4614359 0.1977156,-0.02881 0.3964212,-0.05203 0.5949902,-0.06525 0.1112059,-0.09716 0.2257306,-0.1905082 0.3429046,-0.2801249 0.038879,-0.031257 0.078141,-0.060066 0.1179911,-0.089901 C 5.8596263,3.9875896 5.7211347,3.903819 5.5811259,3.8251025 5.4538233,3.7523025 5.3230778,3.6869385 5.1872891,3.6312243 Z m 2.0422832,0 C 7.0946305,3.6868253 6.9629607,3.7523025 6.8355932,3.8251025 6.6956612,3.9038165 6.5580822,3.9875896 6.425529,4.0790222 c 0.03983,0.030063 0.080083,0.059289 0.1188868,0.0899 0.1162492,0.08961 0.2310583,0.1820611 0.3414638,0.2793926 0.1993692,0.01429 0.3970851,0.037866 0.5948956,0.065993 C 7.4487715,4.3593407 7.4118726,4.2061696 7.3694449,4.0528679 7.3300927,3.9106204 7.2829647,3.7691061 7.2295723,3.6312277 Z M 6.2083032,4.224008 c -0.061942,0.046499 -0.1229996,0.092171 -0.184049,0.1394071 -0.025544,0.02 -0.053689,0.041251 -0.079798,0.0629 0.08739,-0.00363 0.1756514,-0.00599 0.2638502,-0.00471 0.088368,-0.00123 0.1766822,0.00123 0.2648518,0.0054 -0.025486,-0.022065 -0.0534,-0.043325 -0.080651,-0.063603 -0.060944,-0.046956 -0.1220581,-0.093007 -0.1842039,-0.139625 z m 0,0.4453506 C 6.0166086,4.6681817 5.824731,4.6752928 5.6328587,4.6869185 5.4843396,4.8131573 5.3417643,4.9460347 5.2051571,5.0840859 5.0667011,5.2204265 4.9334724,5.3626328 4.8070414,5.5105591 4.7949514,5.7020085 4.7887894,5.893451 4.7887894,6.084882 c 0,0.1921869 0.00597,0.3834335 0.019021,0.5748416 0.1256311,0.1481462 0.2588423,0.2895598 0.3972987,0.4267173 0.1366242,0.1371574 0.2782806,0.2700342 0.4277304,0.3953578 0.1910129,0.01351 0.3829267,0.02 0.5754328,0.018807 0.1927554,0.00123 0.3846628,-0.00599 0.5755513,-0.0178 C 6.932326,7.357448 7.0749248,7.2245713 7.2123798,7.0864253 7.3498755,6.9492744 7.4832704,6.8070924 7.609826,6.6588856 7.6218563,6.4684014 7.62962,6.2770655 7.6277838,6.0848719 7.6282103,5.8934358 7.621861,5.7012421 7.6088185,5.510615 7.4831754,5.3626522 7.3498811,5.2204646 7.2123026,5.0840746 7.074919,4.9461199 6.9331024,4.8140222 6.7846245,4.6879145 6.5928417,4.6744008 6.4009633,4.6691024 6.2081784,4.6696982 Z M 5.2161211,4.7268056 C 5.1074936,4.7381736 4.9996721,4.7534186 4.891957,4.7724096 4.87406,4.8790282 4.85954,4.9873732 4.846382,5.095753 4.906637,5.033167 4.9676866,4.9713528 5.0288722,4.9095609 5.0900282,4.8486919 5.1527432,4.7877562 5.2155648,4.7274815 Z m 1.9854722,0 c 0.062677,0.060868 0.1247064,0.1211615 0.1856078,0.1820661 0.062034,0.061687 0.1224303,0.1235909 0.1826027,0.1861158 C 7.5586026,4.9866669 7.5431935,4.878393 7.525355,4.7717147 7.4176578,4.7537961 7.3098004,4.7390901 7.2012736,4.7261117 Z M 4.6337191,4.8165191 C 4.4783904,4.8483061 4.3242112,4.8852411 4.171176,4.9275776 4.0286182,4.9669246 3.8869915,5.0137446 3.7486189,5.0663606 3.8045661,5.2019763 3.8700476,5.3321147 3.9431278,5.4591698 4.0220236,5.5990657 4.1059481,5.7360203 4.1975965,5.8682665 4.2277648,5.8286235 4.257048,5.7895705 4.2877052,5.7505762 4.3776117,5.6336883 4.4708415,5.519176 4.5685942,5.4092778 4.5829371,5.2112867 4.6050414,5.0131164 4.6337191,4.8165191 Z m 3.1489783,0 c 0.030171,0.1965981 0.052329,0.3947683 0.066376,0.5936822 0.097455,0.1098744 0.1910248,0.2243924 0.2808711,0.3411434 0.030169,0.039233 0.060194,0.077873 0.08919,0.1178396 C 8.3107722,5.7369427 8.3947797,5.5998985 8.4736978,5.4591693 8.5466608,5.3321142 8.6130619,5.2019758 8.669044,5.0663602 8.5297983,5.0133769 8.389014,4.9674024 8.2453662,4.9275764 8.0925729,4.8854294 7.9380675,4.8479668 7.7826974,4.8165191 Z M 3.520168,5.16034 C 3.4106743,5.2114784 3.3046368,5.2670062 3.2012775,5.3304888 3.0864744,5.3991591 2.9787777,5.4821724 2.8812088,5.5751576 c -0.078001,0.07372 -0.1416565,0.1602317 -0.191878,0.254837 -0.039298,0.080543 -0.059272,0.1670771 -0.061006,0.2549612 0.00125,0.088879 0.022047,0.1751204 0.061006,0.2550216 0.050256,0.094612 0.1138782,0.1811262 0.191878,0.2554793 0.097568,0.093128 0.2052656,0.1761377 0.3200687,0.2446691 C 3.3046368,6.9028558 3.4106743,6.959555 3.520168,7.0093585 3.5806012,6.8655798 3.6511091,6.7258807 3.72819,6.5904557 3.8259714,6.4168603 3.9311625,6.2484544 4.0457161,6.0849549 3.9311625,5.9224499 3.8259714,5.7540272 3.72819,5.5804255 3.6511091,5.4448815 3.5806012,5.3050331 3.520168,5.16034 Z m 5.3761588,0 C 8.8370018,5.305034 8.7665996,5.4448824 8.688369,5.5804265 8.590937,5.7540281 8.4856998,5.9224505 8.3711323,6.0857542 8.4856998,6.2475327 8.5909364,6.4168609 8.688369,6.5904566 8.7665992,6.7258816 8.8370307,6.8655807 8.8963268,7.0093585 9.0058852,6.9595884 9.1130299,6.9028521 9.2164365,6.8401258 9.33085,6.7715908 9.4380893,6.6885857 9.535576,6.5954567 9.6135906,6.5210988 9.6780556,6.4345879 9.7274241,6.3399774 9.7668392,6.2600752 9.7875993,6.1738347 9.789391,6.0849558 9.7870617,5.9970708 9.7659253,5.9105394 9.7274241,5.8299946 9.6781736,5.7353883 9.6135863,5.648873 9.535576,5.5751566 9.4380893,5.4821714 9.33085,5.3991625 9.2164365,5.3304881 9.1130299,5.2670053 9.0058852,5.2112855 8.8963268,5.16034 Z M 6.2083032,5.4693606 c 0.1647169,0 0.3209701,0.06535 0.4371543,0.1795134 0.1144356,0.1160426 0.1799416,0.2726544 0.1799416,0.4360818 0,0.1642979 -0.065505,0.3207429 -0.1799416,0.4361478 -0.1161842,0.115072 -0.2724374,0.1803411 -0.4371543,0.1803411 -0.1638277,0 -0.3206502,-0.065266 -0.4369587,-0.1803411 -0.1147852,-0.1154049 -0.179936,-0.2718499 -0.179936,-0.4361478 0,-0.1634274 0.065154,-0.3200392 0.179936,-0.4360818 C 5.887653,5.5347134 6.0444755,5.4693606 6.2083032,5.4693606 Z m 0,0.2464902 c -0.098493,0 -0.1924708,0.039641 -0.2613845,0.1083579 -0.069521,0.06858 -0.1086812,0.162576 -0.1086812,0.2607471 0,0.099148 0.039233,0.1922054 0.1086812,0.2616528 0.068919,0.068435 0.1628914,0.1083808 0.2613845,0.1083808 0.099317,0 0.1927792,-0.03947 0.2622677,-0.1083808 0.068845,-0.069448 0.1086394,-0.1625049 0.1086394,-0.2616528 0,-0.098169 -0.039355,-0.1921689 -0.1086394,-0.2607471 C 6.4010832,5.7555741 6.3076205,5.7158508 6.2083032,5.7158508 Z m -1.6626403,0.105797 c -0.02134,0.02542 -0.042261,0.053394 -0.062892,0.080421 -0.046883,0.060008 -0.093298,0.1220781 -0.1401212,0.1828821 0.046585,0.061781 0.092642,0.1235793 0.1401212,0.1837581 0.020088,0.026609 0.041005,0.053933 0.062892,0.080543 -0.00359,-0.08826 -0.00533,-0.1763467 -0.00533,-0.2643025 0,-0.087886 0.00174,-0.17534 0.00533,-0.2633069 z m 3.3255713,0 c 0.00409,0.087068 0.00533,0.175423 0.00533,0.2633071 0,0.087952 0,0.1760429 -0.00533,0.2643025 0.020981,-0.025591 0.042196,-0.053581 0.06371,-0.080543 C 7.9815262,6.2085424 8.0280972,6.146738 8.0739338,6.0849575 8.0277648,6.0241545 7.9815808,5.9620822 7.9349443,5.9020766 7.9136073,5.8755786 7.8923323,5.8479056 7.8712343,5.8216526 Z m -5.490031,0.2625808 v 0.00363 z M 4.1975965,6.3017165 C 4.1059486,6.4336708 4.0220223,6.5709176 3.9431278,6.7107299 3.8700475,6.8384995 3.8046366,6.9689061 3.7486189,7.1036225 3.8869915,7.1567845 4.0286182,7.2035032 4.171176,7.2432983 4.3248456,7.2854464 4.4783904,7.3229391 4.6337191,7.3540965 4.6039083,7.1568665 4.5818024,6.959554 4.5678578,6.7607055 4.4699217,6.6505386 4.3776099,6.5362947 4.2877042,6.4203057 4.2565303,6.3810207 4.2272882,6.3414029 4.1975965,6.3017165 Z m 4.0215441,0 c -0.02904,0.039293 -0.059331,0.079613 -0.089195,0.1185892 C 8.0391804,6.5371406 7.9465306,6.6505386 7.8490743,6.7614494 7.834673,6.959554 7.8111446,7.1568665 7.7836151,7.3540965 7.938956,7.3223086 8.0925723,7.2856696 8.2453656,7.2432983 8.3890133,7.2038334 8.5297976,7.1568712 8.6690428,7.1036225 8.6132153,6.9689061 8.5466603,6.8384995 8.4736976,6.7107299 8.3947795,6.5709176 8.3107716,6.4336708 8.2191406,6.3017165 Z M 4.8470098,7.0756263 c 0.011198,0.1083204 0.026735,0.2158615 0.044452,0.3232721 0.1077566,0.017737 0.2164793,0.032324 0.3241822,0.044467 C 5.1537681,7.3832924 5.0909467,7.3232416 5.0299094,7.2624315 4.9686464,7.2003672 4.9075737,7.1386389 4.8473715,7.0760135 Z m 2.722794,0 C 7.509631,7.1381499 7.4492401,7.2000561 7.3872011,7.2620326 7.3262992,7.3229362 7.2633716,7.3829444 7.2015933,7.4438077 7.3091834,7.4317848 7.4180011,7.4171958 7.5256925,7.3982043 7.543294,7.2906928 7.5576973,7.1832408 7.5701407,7.0748601 Z M 3.6527563,7.3313851 c -0.017011,0.042027 -0.031647,0.084417 -0.045993,0.1269602 -0.035561,0.1074756 -0.063697,0.2184933 -0.084906,0.3302017 -0.017484,0.09731 -0.026735,0.1947642 -0.026735,0.2930312 -0.00359,0.1048803 0.013455,0.2100342 0.046401,0.3090981 0.029041,0.082703 0.074695,0.1581066 0.1348826,0.2208691 0.062779,0.060073 0.1384087,0.1057968 0.2207877,0.1336869 0.1001174,0.033519 0.2052663,0.050009 0.3096685,0.04697 0.099316,0 0.1969982,-0.01054 0.2936665,-0.026609 0.1130615,-0.021197 0.2240777,-0.049773 0.3309924,-0.085387 0.043561,-0.01458 0.085765,-0.03001 0.1281914,-0.04577 C 4.9030041,8.4855435 4.8520059,8.3357714 4.8096725,8.1831189 4.7567486,7.9952537 4.712898,7.8038344 4.6779847,7.6117604 4.4845777,7.5774712 4.2934997,7.5328654 4.1051182,7.4795379 3.9524031,7.4375094 3.8011574,7.3874504 3.6527449,7.3306415 Z m 5.1122027,0 c -0.1493208,0.056673 -0.2997293,0.1065656 -0.452523,0.148772 -0.1883691,0.05346 -0.3802116,0.097718 -0.5729194,0.1322462 -0.034493,0.1920448 -0.078819,0.3834629 -0.1323935,0.5713402 -0.042136,0.1527726 -0.092478,0.302449 -0.1503327,0.4514351 0.042429,0.015837 0.085843,0.031253 0.1281915,0.045775 0.107881,0.035537 0.2190332,0.064185 0.3311757,0.085423 0.097617,0.01756 0.1951016,0.02661 0.2935891,0.02661 0.1054036,0.00363 0.2096519,-0.013096 0.3097701,-0.046906 0.083276,-0.027737 0.1580729,-0.073636 0.2217716,-0.1337104 0.060187,-0.062712 0.1060427,-0.1381159 0.1339922,-0.220845 0.032473,-0.099094 0.049014,-0.2042361 0.046583,-0.309134 0,-0.0982 -0.010007,-0.1957051 -0.026732,-0.293007 C 8.8750554,7.677707 8.8459444,7.5667076 8.8102146,7.459196 8.7958726,7.4168691 8.7801082,7.3744606 8.7646397,7.3322124 Z M 4.9360445,7.6556696 c 0.032005,0.1558804 0.068623,0.309009 0.1121363,0.4614359 0.03941,0.1430751 0.086475,0.2843942 0.1391083,0.4223903 C 5.3230778,8.4837138 5.4538233,8.4176674 5.5811259,8.3457848 5.7211347,8.2667828 5.8587078,8.1830827 5.9910122,8.0916509 5.9514824,8.0615911 5.9121003,8.0322961 5.8723743,8.0019481 5.7558583,7.9122861 5.6413396,7.8189846 5.5310347,7.7216472 5.3324657,7.7071219 5.1337601,7.6849765 4.9360445,7.6556696 Z m 2.5447307,0 c -0.1978105,0.030006 -0.3955264,0.051849 -0.594226,0.06598 -0.1110751,0.097336 -0.2258842,0.1906389 -0.3421334,0.280298 -0.039233,0.030951 -0.07886,0.060077 -0.1188868,0.089703 0.1325532,0.091431 0.2701322,0.1751305 0.4100642,0.2541333 0.1273675,0.071883 0.2590373,0.1378773 0.3939791,0.1937105 C 7.2830286,8.4014975 7.3297847,8.2601785 7.3694449,8.1171035 7.4117013,7.9646766 7.4492387,7.8115479 7.4807752,7.6556696 Z m -1.5372408,0.087982 c 0.026731,0.022317 0.054112,0.042447 0.080722,0.063533 0.061053,0.046793 0.122111,0.093057 0.1840491,0.1387768 0.062151,-0.045959 0.1232603,-0.09143 0.1842032,-0.1387768 0.026732,-0.020902 0.054112,-0.040957 0.080649,-0.063533 -0.088169,0.00471 -0.1764812,0.00599 -0.2648517,0.00599 -0.088202,0 -0.1764632,-0.00123 -0.2647716,-0.00599 z M 6.2083032,8.2431641 C 6.0453232,8.3574091 5.8755923,8.4625571 5.7024483,8.559913 5.5667125,8.636782 5.4257612,8.7073393 5.2816101,8.7664998 c 0.051024,0.1092503 0.1068907,0.2158979 0.1696353,0.3192962 0.069547,0.1142441 0.1519154,0.2216602 0.246195,0.3189982 0.073902,0.077162 0.1603784,0.1415151 0.2554874,0.1905265 0.080722,0.03929 0.1662755,0.06024 0.2553754,0.061781 0.089305,-0.00176 0.1757576,-0.02322 0.2555586,-0.061781 C 6.5590068,9.5465047 6.6454575,9.4819578 6.7193497,9.4047946 6.8135758,9.3074566 6.8958482,9.2000405 6.9654377,9.0857963 7.0283949,8.9823981 7.0852488,8.8757503 7.1351804,8.7665002 6.9910227,8.7073252 6.8508364,8.636786 6.7149756,8.5599152 6.541239,8.4625591 6.371224,8.3574114 6.2083032,8.243167 Z"
     fill-rule="evenodd"
     id="path1-3"
     style="isolation:isolate;fill:#d1b3ff;fill-opacity:1;stroke-width:0.0807849" />
</svg>
