<?xml version="1.0" encoding="UTF-8" standalone="no"?>
<svg
   width="45.999886"
   height="45.999989"
   version="1.1"
   viewBox="0 0 12.170564 12.170591"
   id="svg12"
   sodipodi:docname="distributor-logo-debian.svg"
   inkscape:version="1.3.2 (091e20ef0f, 2023-11-25)"
   xmlns:inkscape="http://www.inkscape.org/namespaces/inkscape"
   xmlns:sodipodi="http://sodipodi.sourceforge.net/DTD/sodipodi-0.dtd"
   xmlns:xlink="http://www.w3.org/1999/xlink"
   xmlns="http://www.w3.org/2000/svg"
   xmlns:svg="http://www.w3.org/2000/svg">
  <defs
     id="defs16">
    <linearGradient
       id="c"
       y1="523.79999"
       x1="403.57001"
       y2="536.79999"
       x2="416.57001"
       gradientUnits="userSpaceOnUse"
       gradientTransform="matrix(0.34526714,0,0,0.34526706,-134.80427,-174.63325)">
      <stop
         stop-color="#292c2f"
         id="stop1568" />
      <stop
         offset="1"
         stop-opacity="0"
         id="stop1570" />
    </linearGradient>
    <linearGradient
       xlink:href="#b-2"
       id="linearGradient4189"
       x1="14.369"
       y1="22.521999"
       x2="26.521999"
       y2="22.521999"
       gradientUnits="userSpaceOnUse" />
    <linearGradient
       x1="36"
       gradientUnits="userSpaceOnUse"
       x2="14"
       y2="12"
       y1="44"
       id="b-2">
      <stop
         style="stop-color:#bfc9c9;stop-opacity:1"
         stop-color="#536161"
         id="stop1579" />
      <stop
         style="stop-color:#fbfbfb;stop-opacity:1"
         stop-color="#f4f5f5"
         offset="1"
         id="stop1581" />
    </linearGradient>
    <linearGradient
       xlink:href="#b-2"
       id="linearGradient4428"
       gradientUnits="userSpaceOnUse"
       x1="31.586"
       y1="36.345001"
       x2="1.2029999"
       y2="6.723" />
    <linearGradient
       xlink:href="#b-2"
       id="linearGradient4189-3"
       x1="14.369"
       y1="22.521999"
       x2="26.521999"
       y2="22.521999"
       gradientUnits="userSpaceOnUse"
       gradientTransform="translate(20.841982,61.553822)" />
    <linearGradient
       xlink:href="#b-2"
       id="linearGradient4428-5"
       gradientUnits="userSpaceOnUse"
       x1="31.586"
       y1="36.345001"
       x2="1.2029999"
       y2="6.723"
       gradientTransform="translate(20.841982,61.553822)" />
    <linearGradient
       xlink:href="#b-2"
       id="linearGradient4189-3-3"
       x1="14.369"
       y1="22.521999"
       x2="26.521999"
       y2="22.521999"
       gradientUnits="userSpaceOnUse"
       gradientTransform="translate(4.376802,4.4211693)" />
    <linearGradient
       xlink:href="#b-2"
       id="linearGradient4428-5-5"
       gradientUnits="userSpaceOnUse"
       x1="31.586"
       y1="36.345001"
       x2="1.2029999"
       y2="6.723"
       gradientTransform="translate(4.376802,4.4211693)" />
    <linearGradient
       inkscape:collect="always"
       xlink:href="#linearGradient11"
       id="linearGradient13"
       x1="-43.819283"
       y1="23.120178"
       x2="-1.9547797"
       y2="23.120178"
       gradientUnits="userSpaceOnUse"
       gradientTransform="scale(0.26457813)" />
    <linearGradient
       id="linearGradient11"
       inkscape:collect="always">
      <stop
         style="stop-color:#d15a89;stop-opacity:0.88546801;"
         offset="0"
         id="stop4-3" />
      <stop
         style="stop-color:#c83771;stop-opacity:1"
         offset="1"
         id="stop11" />
    </linearGradient>
    <linearGradient
       inkscape:collect="always"
       xlink:href="#linearGradient14"
       id="linearGradient15"
       x1="-9.6850061"
       y1="45.161198"
       x2="11.98815"
       y2="21.735205"
       gradientUnits="userSpaceOnUse"
       gradientTransform="scale(0.26457813)" />
    <linearGradient
       id="linearGradient14"
       inkscape:collect="always">
      <stop
         style="stop-color:#a02c5a;stop-opacity:1"
         offset="0"
         id="stop12" />
      <stop
         style="stop-color:#c83771;stop-opacity:1"
         offset="1"
         id="stop13" />
    </linearGradient>
  </defs>
  <sodipodi:namedview
     id="namedview14"
     pagecolor="#000000"
     bordercolor="#666666"
     borderopacity="1.0"
     inkscape:showpageshadow="2"
     inkscape:pageopacity="0.0"
     inkscape:pagecheckerboard="0"
     inkscape:deskcolor="#d1d1d1"
     showgrid="false"
     inkscape:zoom="5.2149125"
     inkscape:cx="23.20269"
     inkscape:cy="69.032798"
     inkscape:window-width="1920"
     inkscape:window-height="996"
     inkscape:window-x="0"
     inkscape:window-y="0"
     inkscape:window-maximized="1"
     inkscape:current-layer="svg12">
    <inkscape:grid
       type="xygrid"
       id="grid244"
       originx="9.7893915"
       originy="-31.749373"
       spacingy="1"
       spacingx="1"
       units="px"
       visible="false" />
  </sodipodi:namedview>
  <rect
     x="-12.025727"
     y="0.1490714"
     width="11.940627"
     height="11.936014"
     rx="1.6121091"
     stroke="url(#paint4_linear_77:23)"
     shape-rendering="crispEdges"
     id="rect5-6-7-3"
     ry="1.7735944"
     transform="matrix(0.00523883,-0.99998628,0.999988,0.00489859,0,0)"
     style="fill:#de87aa;fill-opacity:0.15;stroke:url(#linearGradient13);stroke-width:0.188987;stroke-opacity:1" />
  <rect
     x="-3.7266586"
     y="4.6446943"
     width="7.912631"
     height="7.912384"
     rx="1.612043"
     shape-rendering="crispEdges"
     id="rect5-6-6-6-6"
     style="fill:#de87aa;fill-opacity:0.122146;stroke:url(#linearGradient15);stroke-width:0.188987;stroke-opacity:1"
     ry="1.7735215"
     transform="matrix(0.72612649,-0.68756114,0.6879775,0.72573202,0,0)" />
  <path
     style="fill:#e9afc6;fill-opacity:1;fill-rule:nonzero;stroke:none;stroke-width:0.254541"
     d="M 3.0221513,4.8324814 C 3.0629653,4.7058367 3.0697673,4.6288748 3.0853153,4.5558103 2.9735633,4.7019399 3.0338113,4.7331137 3.0221513,4.8324814 M 3.2281643,3.951809 C 3.2485713,4.1417772 3.0882309,4.2158154 3.2641203,4.0901446 3.3583813,3.8738734 3.2271943,4.0307216 3.2281643,3.951809 m 3.066877,-1.6639269 c 0.086488,-0.032145 0.2137876,-0.017537 0.3070766,-0.038967 -0.1204983,0.00972 -0.2409965,0.016559 -0.3595515,0.031175 l 0.052477,0.00782 m 2.8054737,3.5499788 -0.018462,0.048714 C 9.0470681,6.1389325 8.9722429,6.3883273 8.8566034,6.619211 8.9839038,6.3756616 9.0665036,6.1087326 9.1005151,5.8379062 M 5.5497004,6.6259773 C 5.504999,6.5753225 5.4787619,6.5139442 5.4486373,6.4525697 5.4768192,6.5597312 5.5351236,6.6513054 5.5895427,6.7448286 L 5.5497004,6.6259773 m -0.2001826,0.00781 -0.018462,0.092551 C 5.415599,6.8442405 5.4836219,6.9718611 5.5914869,7.0634344 5.5137464,6.9084925 5.4554408,6.8441953 5.3495189,6.6337696 m 1.0572757,-4.2435981 -0.048588,0.010719 0.045672,-0.00488 0.00291,-0.00588 M 6.2697733,2.3511544 c 0.068995,0.012657 0.1486792,0.022409 0.1370182,0.038968 0.075797,-0.016559 0.093291,-0.032145 -0.1370182,-0.038968 m 1.438206,3.2460186 c 0.015547,-0.237704 -0.045672,-0.1626906 -0.06608,-0.072089 0.024297,0.012656 0.042756,0.1675615 0.06608,0.072091 M 7.4524059,6.2761827 C 7.5301459,6.1680472 7.5855371,6.0491957 7.605944,5.9264466 7.58845,6.0141306 7.54181,6.0901111 7.4980783,6.169021 c -0.2419682,0.1558714 -0.023319,-0.09157 0,-0.1860713 -0.2594595,0.3341493 -0.035955,0.2006842 -0.04567,0.2932326 M 6.7595406,6.4525118 c -0.1292441,0.00194 0.024294,0.068193 0.1924086,0.0945 0.047613,-0.037014 0.089402,-0.075011 0.1273007,-0.1110587 C 6.9743,6.4622581 6.8674062,6.4632311 6.7595406,6.4525121 M 3.0231229,4.8324814 C 3.0639363,4.7058367 3.0707382,4.6298485 3.0862866,4.5558103 2.9745338,4.7019399 3.0347831,4.7331137 3.0231229,4.8324814 M 3.2291365,3.9527831 c 0.020406,0.1899678 -0.1399338,0.2630323 0.035955,0.1383353 0.09426,-0.217245 -0.036926,-0.060402 -0.035955,-0.1383353 m 3.065905,-1.664901 c 0.08746,-0.032145 0.2147594,-0.017537 0.3080485,-0.038968 -0.1214702,0.00972 -0.2409967,0.016559 -0.3605234,0.031173 l 0.052477,0.00782 M 9.101488,5.8378898 9.083028,5.8866038 C 9.0480412,6.1389289 8.9722443,6.3883236 8.8575762,6.6201819 8.984877,6.375658 9.066505,6.1087289 9.101488,5.8379026 M 5.5506722,6.6260321 C 5.5049991,6.5753773 5.4787619,6.513999 5.4486376,6.4535992 5.4777915,6.559786 5.536097,6.6523344 5.5905151,6.7458575 L 5.550672,6.6260321 m -0.2011542,0.00783 -0.018462,0.092551 C 5.4165696,6.8443025 5.4836215,6.9719232 5.5924586,7.0634962 5.5137463,6.9085952 5.456412,6.8442981 5.3495183,6.6338723 m 1.0572758,-4.2435976 -0.047614,0.010719 0.044704,-0.00488 0.0039,-0.00588 m 1.9260241,3.3054412 c 0.00683,0.1997098 -0.056361,0.2961558 -0.1127241,0.4676135 L 8.119048,6.2158914 C 8.0354725,6.3853933 8.1268253,6.3240199 8.0665687,6.4584587 7.9363469,6.5792553 7.6710566,6.8374172 7.5855417,6.8607976 7.5233494,6.8598243 7.6282989,6.7848054 7.6419027,6.7555847 7.4669863,6.8802816 7.500998,6.9426302 7.2337637,7.0195921 l -0.00777,-0.018508 C 6.567131,7.3245166 5.6507603,6.6834963 5.6633933,5.8086687 5.655639,5.8641911 5.6429865,5.8505532 5.6284104,5.8729604 5.5943971,5.422883 5.8276205,4.9708568 6.2211836,4.7867332 6.6060055,4.5879582 7.0569026,4.6697906 7.3328827,4.9376952 7.1812877,4.730191 6.880042,4.5109972 6.5224338,4.5314548 6.1726001,4.5373338 5.8451166,4.7691589 5.7362793,5.0214754 5.5574757,5.13838 5.5360968,5.4744766 5.4583561,5.5358512 c -0.1049505,0.80566 0.1972672,1.1534484 0.7093852,1.5635841 0.080657,0.056504 0.02332,0.065273 0.03401,0.1081366 C 6.0316955,7.1247607 5.8752416,6.9990941 5.7469694,6.8451701 5.8159643,6.9494103 5.8888465,7.0497518 5.9840791,7.1296361 5.8227667,7.0731321 5.6089794,6.7233958 5.5467867,6.7097574 5.8227667,7.2260812 6.6681987,7.614785 7.111322,7.4218945 6.9062799,7.4297328 6.6458482,7.4267936 6.4155411,7.3381132 6.3193364,7.2855087 6.1881487,7.1783451 6.2114709,7.1578862 6.8159066,7.3936423 7.4397767,7.3361645 7.9625839,6.8997242 8.0957151,6.7915888 8.2405076,6.6074663 8.2832651,6.6055176 c -0.063164,0.098393 0.01069,0.047734 -0.0379,0.1344386 0.1321594,-0.2221165 -0.058305,-0.090601 0.1370185,-0.3848073 l 0.071909,0.103265 C 8.4270841,6.2733166 8.6739114,6.049252 8.6496173,5.7560188 c 0.056361,-0.089631 0.063166,0.096447 0.00292,0.3020004 0.082597,-0.2279622 0.02138,-0.264981 0.042756,-0.4530013 0.023319,0.063325 0.054419,0.1305423 0.069966,0.1977622 -0.055388,-0.221143 0.055392,-0.3721429 0.082604,-0.5007373 -0.02721,-0.01169 -0.083571,0.09742 -0.097176,-0.16269 0.00193,-0.1130068 0.030126,-0.059423 0.040814,-0.087682 -0.020406,-0.012658 -0.07677,-0.099367 -0.1107807,-0.2659546 0.024297,-0.038966 0.06608,0.1013164 0.09912,0.1071618 C 8.7584542,4.760388 8.7215273,4.6600456 8.7195835,4.5587292 8.6214352,4.3444058 8.6855723,4.5869763 8.6058877,4.4661789 8.5009374,4.1271598 8.6923746,4.3872673 8.7050072,4.2333464 8.8634042,4.4720244 8.9537781,4.8431933 8.9945919,4.9961421 8.963495,4.8090958 8.9119925,4.627896 8.8497996,4.4525404 8.8983877,4.4739781 8.7720584,4.0677329 8.9129634,4.3366118 8.7623409,3.763784 8.2725733,3.2279764 7.8216764,2.9766341 7.8770664,3.0292391 7.9470334,3.0954857 7.9217672,3.1062022 7.6972911,2.9668922 7.7371334,2.956175 7.7050649,2.8967496 c -0.1826912,-0.076964 -0.1943518,0.00688 -0.3158222,0 C 7.0452394,2.7067814 6.9791596,2.7272393 6.6623658,2.6074137 l 0.014578,0.071114 c -0.2283639,-0.07988 -0.2662625,0.029225 -0.5121179,0 -0.015546,-0.012655 0.078714,-0.044816 0.1564538,-0.056502 -0.2205897,0.031176 -0.2108722,-0.044815 -0.4266033,0.00872 0.053447,-0.038967 0.109809,-0.064292 0.166171,-0.09742 C 5.8810703,2.5440419 5.6313278,2.6424324 5.7090686,2.5528102 5.4155965,2.6891973 4.8947325,2.8811143 4.6022328,3.1665531 l -0.00875,-0.063324 C 4.4593822,3.270792 4.0094568,3.6039669 3.973502,3.821213 L 3.937546,3.830033 C 3.8675805,3.9527814 3.8228796,4.0920916 3.767489,4.2187363 3.6761431,4.3804532 3.6343577,4.2810896 3.6469908,4.3064177 3.4672149,4.6853796 3.3787848,5.0039412 3.3020156,5.2650256 c 0.054419,0.085729 0.00101,0.5143756 0.02138,0.8572928 C 3.2339926,7.8174197 4.4642429,9.46381 5.8101314,9.843746 6.0073992,9.917781 6.3008708,9.914862 6.5506134,9.92168 6.2561699,9.8340056 6.2182712,9.8758983 5.93063,9.7716595 5.7246164,9.6693662 5.6789437,9.5534378 5.5322079,9.4209465 l 0.058307,0.1071618 C 5.3028728,9.4219194 5.4233705,9.3965911 5.1891763,9.3196293 l 0.062193,-0.083781 C 5.1590523,9.2280097 5.0055137,9.0721834 4.9627562,8.9854804 l -0.1010631,0.00395 C 4.7392512,8.8325336 4.6731712,8.7185525 4.6780299,8.6308747 l -0.032067,0.060404 C 4.6080636,8.6250295 4.1950647,8.1009117 4.4098244,8.2226856 4.3699824,8.1856667 4.3165351,8.1613114 4.2592011,8.0522019 l 0.043731,-0.051634 C 4.1999237,7.8622337 4.1134376,7.6849296 4.1202395,7.6255038 c 0.054419,0.077932 0.092319,0.092551 0.130216,0.1052129 C 3.9900238,7.0575477 3.9754476,7.6937007 3.7781796,7.0448831 l 0.041787,-0.00294 C 3.7878986,6.9912788 3.7684635,6.9367295 3.7431986,6.8831485 L 3.7616613,6.6941544 C 3.574111,6.4681414 3.7091858,5.7335974 3.7363948,5.33028 3.7548577,5.1666155 3.8928485,4.9912599 3.9968273,4.7184847 L 3.9336623,4.7067967 C 4.0551323,4.48468 4.6294435,3.8154075 4.895706,3.849504 5.0249504,3.6809677 4.870438,3.849504 4.845175,3.80664 5.1289281,3.5007404 5.2173585,3.5903659 5.4087954,3.5358116 5.6148083,3.4081911 5.2319345,3.5854967 5.329111,3.4871072 5.6857476,3.3926066 5.5817686,3.2718098 6.0472422,3.2230999 6.0958298,3.2523249 5.9325747,3.2679139 5.8917604,3.3059089 6.1891196,3.1539347 6.8314532,3.1890064 7.2493105,3.3896899 7.7332473,3.6264192 8.2774333,4.3239435 8.298812,4.9795773 l 0.024297,0.00688 C 8.311448,5.2475421 8.361982,5.5495434 8.273548,5.8262153 L 8.332825,5.6946716 m -2.06305,-3.343474 c 0.068994,0.012667 0.1496513,0.022409 0.1379902,0.038968 0.075797,-0.016559 0.092319,-0.032145 -0.1379902,-0.038968 m 1.4391783,3.2460282 c 0.015548,-0.2377041 -0.045671,-0.162691 -0.066081,-0.07209 0.023319,0.013639 0.042756,0.1675611 0.066081,0.072089 m -0.2565448,0.679989 c 0.077742,-0.1081354 0.1331314,-0.2269869 0.1535384,-0.349736 -0.017495,0.087682 -0.064136,0.1626907 -0.1078657,0.2425757 -0.2409967,0.1548963 -0.022351,-0.092551 0,-0.1860724 -0.2594599,0.3331757 -0.035955,0.1997107 -0.045672,0.2932327 m -0.692866,0.1763306 c -0.1292441,9.602e-4 0.024297,0.067222 0.1933808,0.0945 0.046646,-0.037015 0.088429,-0.075012 0.1263285,-0.1110583 -0.1049499,0.026306 -0.2118436,0.026306 -0.3197093,0.016559"
     id="path2664-7" />
</svg>
