<?xml version="1.0" encoding="UTF-8" standalone="no"?>
<svg
   width="45.999886"
   height="45.999989"
   version="1.1"
   viewBox="0 0 12.170564 12.170591"
   id="svg12"
   sodipodi:docname="distributor-logo-kali-linux.svg"
   inkscape:version="1.3.2 (091e20ef0f, 2023-11-25)"
   xmlns:inkscape="http://www.inkscape.org/namespaces/inkscape"
   xmlns:sodipodi="http://sodipodi.sourceforge.net/DTD/sodipodi-0.dtd"
   xmlns:xlink="http://www.w3.org/1999/xlink"
   xmlns="http://www.w3.org/2000/svg"
   xmlns:svg="http://www.w3.org/2000/svg">
  <defs
     id="defs16">
    <linearGradient
       id="c"
       y1="523.79999"
       x1="403.57001"
       y2="536.79999"
       x2="416.57001"
       gradientUnits="userSpaceOnUse"
       gradientTransform="matrix(0.34526714,0,0,0.34526706,-134.80427,-174.63325)">
      <stop
         stop-color="#292c2f"
         id="stop1568" />
      <stop
         offset="1"
         stop-opacity="0"
         id="stop1570" />
    </linearGradient>
    <linearGradient
       xlink:href="#b-2"
       id="linearGradient4189"
       x1="14.369"
       y1="22.521999"
       x2="26.521999"
       y2="22.521999"
       gradientUnits="userSpaceOnUse" />
    <linearGradient
       x1="36"
       gradientUnits="userSpaceOnUse"
       x2="14"
       y2="12"
       y1="44"
       id="b-2">
      <stop
         style="stop-color:#bfc9c9;stop-opacity:1"
         stop-color="#536161"
         id="stop1579" />
      <stop
         style="stop-color:#fbfbfb;stop-opacity:1"
         stop-color="#f4f5f5"
         offset="1"
         id="stop1581" />
    </linearGradient>
    <linearGradient
       xlink:href="#b-2"
       id="linearGradient4428"
       gradientUnits="userSpaceOnUse"
       x1="31.586"
       y1="36.345001"
       x2="1.2029999"
       y2="6.723" />
    <linearGradient
       xlink:href="#b-2"
       id="linearGradient4189-3"
       x1="14.369"
       y1="22.521999"
       x2="26.521999"
       y2="22.521999"
       gradientUnits="userSpaceOnUse"
       gradientTransform="translate(20.841982,61.553822)" />
    <linearGradient
       xlink:href="#b-2"
       id="linearGradient4428-5"
       gradientUnits="userSpaceOnUse"
       x1="31.586"
       y1="36.345001"
       x2="1.2029999"
       y2="6.723"
       gradientTransform="translate(20.841982,61.553822)" />
    <linearGradient
       xlink:href="#b-2"
       id="linearGradient4189-3-3"
       x1="14.369"
       y1="22.521999"
       x2="26.521999"
       y2="22.521999"
       gradientUnits="userSpaceOnUse"
       gradientTransform="translate(4.376802,4.4211693)" />
    <linearGradient
       xlink:href="#b-2"
       id="linearGradient4428-5-5"
       gradientUnits="userSpaceOnUse"
       x1="31.586"
       y1="36.345001"
       x2="1.2029999"
       y2="6.723"
       gradientTransform="translate(4.376802,4.4211693)" />
    <linearGradient
       inkscape:collect="always"
       xlink:href="#linearGradient11"
       id="linearGradient13"
       x1="-43.819283"
       y1="23.120178"
       x2="-1.9547797"
       y2="23.120178"
       gradientUnits="userSpaceOnUse"
       gradientTransform="scale(0.26457813)" />
    <linearGradient
       id="linearGradient11"
       inkscape:collect="always">
      <stop
         style="stop-color:#225a84;stop-opacity:1;"
         offset="0"
         id="stop4-3" />
      <stop
         style="stop-color:#2c73a9;stop-opacity:1;"
         offset="1"
         id="stop11" />
    </linearGradient>
    <linearGradient
       inkscape:collect="always"
       xlink:href="#linearGradient14"
       id="linearGradient15"
       x1="-9.6850061"
       y1="45.161198"
       x2="11.98815"
       y2="21.735205"
       gradientUnits="userSpaceOnUse"
       gradientTransform="scale(0.26457813)" />
    <linearGradient
       id="linearGradient14"
       inkscape:collect="always">
      <stop
         style="stop-color:#2c73a9;stop-opacity:1;"
         offset="0"
         id="stop12" />
      <stop
         style="stop-color:#225a84;stop-opacity:1;"
         offset="1"
         id="stop13" />
    </linearGradient>
    <filter
       id="filter2917-3"
       x="-0.96181147"
       y="-0.66745996"
       width="2.9236229"
       height="2.3349199"
       color-interpolation-filters="sRGB">
      <feGaussianBlur
         stdDeviation="0.2871969"
         id="feGaussianBlur732-5" />
    </filter>
    <filter
       id="filter1"
       x="-0.96181148"
       y="-0.66745996"
       width="2.9236228"
       height="2.3349199"
       color-interpolation-filters="sRGB">
      <feGaussianBlur
         stdDeviation="0.2871969"
         id="feGaussianBlur1" />
    </filter>
    <filter
       id="filter2"
       x="-0.96181148"
       y="-0.66745996"
       width="2.9236228"
       height="2.3349199"
       color-interpolation-filters="sRGB">
      <feGaussianBlur
         stdDeviation="0.2871969"
         id="feGaussianBlur2" />
    </filter>
  </defs>
  <sodipodi:namedview
     id="namedview14"
     pagecolor="#000000"
     bordercolor="#666666"
     borderopacity="1.0"
     inkscape:showpageshadow="2"
     inkscape:pageopacity="0.0"
     inkscape:pagecheckerboard="0"
     inkscape:deskcolor="#d1d1d1"
     showgrid="false"
     inkscape:zoom="5.2149125"
     inkscape:cx="23.20269"
     inkscape:cy="53.692176"
     inkscape:window-width="1920"
     inkscape:window-height="996"
     inkscape:window-x="0"
     inkscape:window-y="0"
     inkscape:window-maximized="1"
     inkscape:current-layer="svg12">
    <inkscape:grid
       type="xygrid"
       id="grid244"
       originx="9.7893915"
       originy="-31.749373"
       spacingy="1"
       spacingx="1"
       units="px"
       visible="false" />
  </sodipodi:namedview>
  <rect
     x="-12.025727"
     y="0.1490714"
     width="11.940627"
     height="11.936014"
     rx="1.6121091"
     stroke="url(#paint4_linear_77:23)"
     shape-rendering="crispEdges"
     id="rect5-6-7-3"
     ry="1.7735944"
     transform="matrix(0.00523883,-0.99998628,0.999988,0.00489859,0,0)"
     style="fill:#2c73a9;fill-opacity:0.14999999;stroke:url(#linearGradient13);stroke-width:0.188987;stroke-opacity:1" />
  <rect
     x="-3.7266586"
     y="4.6446943"
     width="7.912631"
     height="7.912384"
     rx="1.612043"
     shape-rendering="crispEdges"
     id="rect5-6-6-6-6"
     style="fill:#2c73a9;fill-opacity:0.12442923;stroke:url(#linearGradient15);stroke-width:0.188987;stroke-opacity:1"
     ry="1.7735215"
     transform="matrix(0.72612649,-0.68756114,0.6879775,0.72573202,0,0)" />
  <path
     style="fill:#cfd7dc;fill-opacity:1;fill-rule:nonzero;stroke:none;stroke-width:0.254497"
     d="m 0.84429445,2.2523768 c -0.10537734,10e-4 -0.21075495,0.005 -0.31513822,0.01789 1.15815807,0.02087 2.31830437,0.115319 3.45160917,0.358879 0.2197019,0.02883 0.4314512,0.09544 0.6441943,0.14912 0.1033892,0.02485 0.1998194,0.07058 0.3032086,0.09643 0.17099,0.04374 0.3389974,0.101401 0.507999,0.151107 0.1043835,0.04573 0.2167199,0.06561 0.3191149,0.113331 0.1540897,0.06462 0.3051969,0.138183 0.4543163,0.213737 0.01988,0.01292 0.049706,0.01889 0.055671,0.04573 0.038771,0.163037 0.059648,0.33005 0.1063715,0.491099 0.089472,0.300226 0.2018077,0.596476 0.3628565,0.867873 -0.17099,0.08152 -0.3181206,0.203796 -0.4463632,0.340985 -0.1839135,0.201808 -0.3270678,0.445369 -0.3887036,0.712789 -0.07456,0.273385 -0.058654,0.647177 0.00597,0.920562 0.069589,0.245549 0.1948488,0.423498 0.3648448,0.61437 0.3409854,0.38771 0.8718492,0.613377 1.3887955,0.553729 0.6233177,-0.0507 1.2724827,0.04971 1.8202467,0.362857 0.2873025,0.166019 0.5586993,0.369815 0.7634893,0.633259 0.27935,0.317126 0.489111,0.715771 0.649165,1.1044752 0.02286,0.05865 0.04474,0.119295 0.07655,0.173972 0,-0.07257 -0.02684,-0.141166 -0.0517,-0.2087672 -0.07456,-0.198825 -0.158065,-0.419521 -0.263443,-0.604429 -0.124267,-0.22169 -0.260462,-0.439404 -0.432446,-0.627294 -0.2515146,-0.302214 -0.5577058,-0.560687 -0.9076384,-0.740624 0.2664259,0.03479 0.5268872,0.112336 0.7803894,0.200813 0.271397,0.09643 0.531858,0.225667 0.766472,0.394669 0.230638,0.186896 0.434434,0.411568 0.584547,0.670042 0.07754,0.124265 0.127248,0.28929 0.194849,0.419521 -0.05965,-0.301221 -0.210755,-0.603435 -0.399639,-0.84302 C 11.12854,8.6903438 10.98638,8.5740308 10.847202,8.4577178 10.525105,8.2042158 10.151313,8.0242788 9.7645975,7.8950418 9.0537968,7.6614218 8.3022366,7.5719508 7.5566412,7.5719508 c -0.180931,0.002 -0.3618622,-0.02286 -0.5318581,-0.08549 -0.3906917,-0.141166 -0.6998653,-0.435428 -0.7962956,-0.840038 -0.1232719,-0.439404 0.01392,-1.021962 0.3370091,-1.342071 0.2624496,-0.268414 0.6451883,-0.42151 1.0219626,-0.384727 0.3877097,0.02783 0.7575248,0.164031 1.1193873,0.29625 0.2972437,0.116312 0.5954817,0.230637 0.8817904,0.370809 0.00795,0.08251 0.014912,0.168007 0.044736,0.245549 0.040759,0.08052 0.1282426,0.119296 0.2057844,0.155084 0.1481251,0.06661 0.2882967,0.12526 0.4145507,0.22865 0.09345,0.07456 0.17099,0.167013 0.259467,0.247537 0.02982,-0.04772 0.03479,-0.05965 0.04374,-0.07655 0.005,-0.004 10e-4,0.001 0.007,-0.006 0.0676,-0.07058 0.168008,-0.0845 0.253502,-0.127248 -0.222684,-0.05567 -0.441392,-0.136196 -0.587529,-0.319115 -0.02286,-0.02784 0.07357,-0.002 0.05368,-0.04672 -0.01392,-0.03778 -0.02684,-0.05965 -0.04573,-0.09245 -0.08152,-0.119295 -0.164031,-0.237596 -0.236602,-0.361862 -0.083507,-0.002 -0.1680069,-0.003 -0.2515136,-0.005 -0.1063718,-0.124266 -0.2226845,-0.237596 -0.3310444,-0.359874 0.00895,0.06661 0.021873,0.134207 0.021873,0.201808 -0.072571,-0.04076 -0.1441485,-0.0845 -0.2087667,-0.137189 -0.069589,-0.06363 -0.1352013,-0.133214 -0.2037961,-0.197832 0.00895,0.04871 0.017893,0.09842 0.025847,0.148125 -0.1411662,-0.05766 -0.2753732,-0.143154 -0.3747863,-0.260461 -0.00198,0.02883 -0.00298,0.05766 -0.00397,0.08748 C 8.5855654,4.8758788 8.4990762,4.8381018 8.4105991,4.8033068 8.1869205,4.7197998 7.9662243,4.6233698 7.7296221,4.5806228 7.4701546,4.5676978 7.1947816,4.6024928 6.9492322,4.4961218 6.7792366,4.4305088 6.6400587,4.2963018 6.5595346,4.1342598 6.4104154,3.8578918 6.431292,3.5288358 6.4740396,3.2286098 6.2851552,3.1033498 6.0813594,3.0039368 5.8706044,2.9194358 5.7731801,2.8846418 5.6807259,2.8339418 5.578331,2.8110768 5.2085158,2.6887988 4.8297532,2.5953508 4.4470142,2.5237738 4.2800011,2.4869908 4.1100054,2.4700908 3.9439861,2.4333078 3.784926,2.4024898 3.622883,2.3865838 3.4628285,2.3667018 2.6983449,2.2792188 1.9278965,2.2464118 1.1594363,2.2523768 c -0.1053776,10e-4 -0.21075517,-10e-4 -0.31613251,0 z M 6.20761,3.4572588 c -1.4027134,-0.01193 -2.8094031,0.0517 -4.1952162,0.276368 -0.3628562,0.06064 -0.727701,0.116312 -1.08260429,0.214731 1.18698749,-0.167013 2.38292239,-0.280344 3.58183969,-0.306191 0.5845468,-0.004 1.1690932,0.01392 1.7506579,0.07257 -0.018888,-0.08549 -0.038771,-0.17099 -0.054677,-0.257479 z m 0.09146,0.379757 c -0.7893368,0.07357 -1.5627677,0.261455 -2.3143278,0.509987 -0.5189343,0.177949 -1.0279273,0.385721 -1.5190261,0.63127 -0.1739723,0.08748 -0.350927,0.172978 -0.5159523,0.277362 0.1868959,-0.08052 0.3678274,-0.17099 0.5567113,-0.245549 1.227747,-0.505017 2.5290592,-0.858926 3.8592014,-0.926527 -0.024854,-0.08152 -0.049706,-0.164031 -0.066606,-0.246543 z m 1.5637618,0.258473 c 0.1391777,0.06263 0.2863085,0.107366 0.4244924,0.172978 0.4225037,0.183914 0.8281075,0.414551 1.1849994,0.707818 0.1292363,0.107366 0.249526,0.224673 0.3539092,0.355898 0.027835,0.03082 0.072571,0.007 0.1083598,0.01292 C 9.8948271,5.2715418 9.822256,5.2248178 9.7655908,5.1661648 9.4812703,4.8858208 9.1532085,4.6502118 8.7992993,4.4653048 8.5010613,4.3102208 8.1898994,4.1750198 7.8628316,4.0954898 Z m 0,0"
     id="path3658-7" />
</svg>
