<?xml version="1.0" encoding="UTF-8" standalone="no"?>
<svg
   width="45.999886"
   height="45.999989"
   version="1.1"
   viewBox="0 0 12.170564 12.170591"
   id="svg12"
   sodipodi:docname="distributor-logo-ubuntu.svg"
   inkscape:version="1.3.2 (091e20ef0f, 2023-11-25)"
   xmlns:inkscape="http://www.inkscape.org/namespaces/inkscape"
   xmlns:sodipodi="http://sodipodi.sourceforge.net/DTD/sodipodi-0.dtd"
   xmlns:xlink="http://www.w3.org/1999/xlink"
   xmlns="http://www.w3.org/2000/svg"
   xmlns:svg="http://www.w3.org/2000/svg">
  <defs
     id="defs16">
    <linearGradient
       id="linearGradient3"
       inkscape:collect="always">
      <stop
         style="stop-color:#ca3ebd;stop-opacity:0.5455665;"
         offset="0"
         id="stop1" />
      <stop
         style="stop-color:#cb41be;stop-opacity:1;"
         offset="1"
         id="stop2" />
    </linearGradient>
    <linearGradient
       id="c"
       y1="523.79999"
       x1="403.57001"
       y2="536.79999"
       x2="416.57001"
       gradientUnits="userSpaceOnUse"
       gradientTransform="matrix(0.34526714,0,0,0.34526706,-134.80427,-174.63325)">
      <stop
         stop-color="#292c2f"
         id="stop1568" />
      <stop
         offset="1"
         stop-opacity="0"
         id="stop1570" />
    </linearGradient>
    <linearGradient
       xlink:href="#b-2"
       id="linearGradient4189"
       x1="14.369"
       y1="22.521999"
       x2="26.521999"
       y2="22.521999"
       gradientUnits="userSpaceOnUse" />
    <linearGradient
       x1="36"
       gradientUnits="userSpaceOnUse"
       x2="14"
       y2="12"
       y1="44"
       id="b-2">
      <stop
         style="stop-color:#bfc9c9;stop-opacity:1"
         stop-color="#536161"
         id="stop1579" />
      <stop
         style="stop-color:#fbfbfb;stop-opacity:1"
         stop-color="#f4f5f5"
         offset="1"
         id="stop1581" />
    </linearGradient>
    <linearGradient
       xlink:href="#b-2"
       id="linearGradient4428"
       gradientUnits="userSpaceOnUse"
       x1="31.586"
       y1="36.345001"
       x2="1.2029999"
       y2="6.723" />
    <linearGradient
       xlink:href="#b-2"
       id="linearGradient4189-3"
       x1="14.369"
       y1="22.521999"
       x2="26.521999"
       y2="22.521999"
       gradientUnits="userSpaceOnUse"
       gradientTransform="translate(20.841982,61.553822)" />
    <linearGradient
       xlink:href="#b-2"
       id="linearGradient4428-5"
       gradientUnits="userSpaceOnUse"
       x1="31.586"
       y1="36.345001"
       x2="1.2029999"
       y2="6.723"
       gradientTransform="translate(20.841982,61.553822)" />
    <linearGradient
       xlink:href="#b-2"
       id="linearGradient4189-3-3"
       x1="14.369"
       y1="22.521999"
       x2="26.521999"
       y2="22.521999"
       gradientUnits="userSpaceOnUse"
       gradientTransform="translate(4.376802,4.4211693)" />
    <linearGradient
       xlink:href="#b-2"
       id="linearGradient4428-5-5"
       gradientUnits="userSpaceOnUse"
       x1="31.586"
       y1="36.345001"
       x2="1.2029999"
       y2="6.723"
       gradientTransform="translate(4.376802,4.4211693)" />
    <linearGradient
       inkscape:collect="always"
       xlink:href="#linearGradient14"
       id="linearGradient15"
       x1="-9.6850061"
       y1="45.161198"
       x2="11.98815"
       y2="21.735205"
       gradientUnits="userSpaceOnUse"
       gradientTransform="scale(0.26457813)" />
    <linearGradient
       id="linearGradient14"
       inkscape:collect="always">
      <stop
         style="stop-color:#d462c9;stop-opacity:1;"
         offset="0"
         id="stop12" />
      <stop
         style="stop-color:#cb41be;stop-opacity:1;"
         offset="1"
         id="stop13" />
    </linearGradient>
    <filter
       id="filter2917-3"
       x="-0.96181147"
       y="-0.66745996"
       width="2.9236229"
       height="2.3349199"
       color-interpolation-filters="sRGB">
      <feGaussianBlur
         stdDeviation="0.2871969"
         id="feGaussianBlur732-5" />
    </filter>
    <filter
       id="filter1"
       x="-0.96181148"
       y="-0.66745996"
       width="2.9236228"
       height="2.3349199"
       color-interpolation-filters="sRGB">
      <feGaussianBlur
         stdDeviation="0.2871969"
         id="feGaussianBlur1" />
    </filter>
    <filter
       id="filter2"
       x="-0.96181148"
       y="-0.66745996"
       width="2.9236228"
       height="2.3349199"
       color-interpolation-filters="sRGB">
      <feGaussianBlur
         stdDeviation="0.2871969"
         id="feGaussianBlur2" />
    </filter>
    <linearGradient
       inkscape:collect="always"
       xlink:href="#linearGradient3"
       id="linearGradient2"
       x1="-12.120221"
       y1="6.1170783"
       x2="0.0093933269"
       y2="6.1170783"
       gradientUnits="userSpaceOnUse" />
  </defs>
  <sodipodi:namedview
     id="namedview14"
     pagecolor="#000000"
     bordercolor="#666666"
     borderopacity="1.0"
     inkscape:showpageshadow="2"
     inkscape:pageopacity="0.0"
     inkscape:pagecheckerboard="0"
     inkscape:deskcolor="#d1d1d1"
     showgrid="false"
     inkscape:zoom="5.2149125"
     inkscape:cx="23.20269"
     inkscape:cy="53.692176"
     inkscape:window-width="1920"
     inkscape:window-height="996"
     inkscape:window-x="0"
     inkscape:window-y="0"
     inkscape:window-maximized="1"
     inkscape:current-layer="svg12">
    <inkscape:grid
       type="xygrid"
       id="grid244"
       originx="9.7893915"
       originy="-31.749373"
       spacingy="1"
       spacingx="1"
       units="px"
       visible="false" />
  </sodipodi:namedview>
  <rect
     x="-12.025727"
     y="0.1490714"
     width="11.940627"
     height="11.936014"
     rx="1.6121091"
     stroke="url(#paint4_linear_77:23)"
     shape-rendering="crispEdges"
     id="rect5-6-7-3"
     ry="1.7735944"
     transform="matrix(0.00523883,-0.99998628,0.999988,0.00489859,0,0)"
     style="fill:#ca3ebd;fill-opacity:0.12;stroke:url(#linearGradient2);stroke-width:0.188987;stroke-opacity:1" />
  <rect
     x="-3.7266586"
     y="4.6446943"
     width="7.912631"
     height="7.912384"
     rx="1.612043"
     shape-rendering="crispEdges"
     id="rect5-6-6-6-6"
     style="fill:#d66acc;fill-opacity:0.1;stroke:url(#linearGradient15);stroke-width:0.188987;stroke-opacity:1"
     ry="1.7735215"
     transform="matrix(0.72612649,-0.68756114,0.6879775,0.72573202,0,0)" />
  <path
     style="fill:#f3d3f0;fill-opacity:1;fill-rule:nonzero;stroke:none;stroke-width:0.254509"
     d="M 6.7492593,3.076625 C 6.0816614,2.9155429 5.3872181,2.9951885 4.7822645,3.2842419 L 5.2395597,4.0762296 C 5.8140864,3.8247628 6.496001,3.8408703 7.0830583,4.1800382 7.6701129,4.5192061 8.025389,5.1017871 8.0951907,5.7246391 H 9.0088854 C 8.9578765,5.0570425 8.6795616,4.4153973 8.2052633,3.9178327 7.9224756,4.135293 7.5260337,4.1737742 7.19671,3.9831602 6.8673863,3.7934412 6.7018298,3.4310061 6.7492593,3.076625 Z M 4.3894024,3.5124417 C 4.0359163,3.7540661 3.72986,4.0780193 3.5007648,4.4744617 3.3826386,4.6802893 3.2913582,4.8941697 3.2260299,5.1116311 c 0.036693,0.014325 0.071594,0.032215 0.1047043,0.051009 0.272945,0.1566085 0.4563999,0.4510312 0.4563999,0.7893043 0,0.380333 -0.2317795,0.7051824 -0.5619981,0.8412068 0.1870342,0.6309058 0.5852653,1.2009582 1.1651618,1.5965049 L 4.8466976,7.5994584 C 4.0144387,6.9891359 3.7602869,5.8436614 4.2882788,4.9290715 4.4341482,4.6758141 4.625657,4.4664073 4.8458031,4.3035358 Z M 9.0088854,6.179249 H 8.0951907 C 8.0638702,6.4512995 7.9779595,6.7215589 7.8320893,6.9748169 7.3032028,7.8894068 6.1845751,8.2419976 5.2404542,7.8267627 L 4.7840549,8.6169612 c 0.6318,0.304267 1.3253501,0.3642253 1.9652044,0.211197 -0.047429,-0.354381 0.118127,-0.7177107 0.4474507,-0.9074298 0.2935286,-0.1691367 0.6389591,-0.1583981 0.9110102,0 0.034004,0.019688 0.066225,0.041162 0.097541,0.065322 C 8.3609761,7.8204953 8.5005829,7.6352507 8.6196026,7.429423 8.8486972,7.0329818 8.9757741,6.6061135 9.0088854,6.1792456 Z m 0,0"
     id="path4-6" />
  <path
     style="fill:#f3d3f0;fill-opacity:1;fill-rule:nonzero;stroke:none;stroke-width:0.254509"
     d="M 7.9922775,2.6059063 C 8.3198106,2.7947308 8.4307782,3.2099653 8.241954,3.5366039 8.0531296,3.8641386 7.637897,3.9751067 7.3103619,3.7862818 6.9828288,3.5974573 6.871861,3.1822231 7.0606854,2.8546896 7.2495097,2.528051 7.6647427,2.4161881 7.9922775,2.6059063 Z m 0,0"
     id="path6-7" />
  <path
     style="fill:#f3d3f0;fill-opacity:1;fill-rule:nonzero;stroke:none;stroke-width:0.254509"
     d="m 3.5598291,5.9519446 c 0,0.3776475 -0.3042667,0.6819143 -0.6819155,0.6819143 -0.3776481,0 -0.6819151,-0.3042668 -0.6819151,-0.6819143 0,-0.3776492 0.304267,-0.6819157 0.6819151,-0.6819157 0.3776488,0 0.6819155,0.3042665 0.6819155,0.6819157 z m 0,0"
     id="path8-5" />
  <path
     style="fill:#f3d3f0;fill-opacity:1;fill-rule:nonzero;stroke:none;stroke-width:0.254509"
     d="M 7.8276146,9.366891 C 7.4624954,9.464432 7.0902173,9.2496577 6.992672,8.8845372 6.8951269,8.5194171 7.1099032,8.1471384 7.475025,8.049594 7.8401442,7.9511551 8.212422,8.1668261 8.3099673,8.5310506 8.4075126,8.8961705 8.192736,9.2684501 7.8276146,9.366891 Z m 0,0"
     id="path10-3" />
</svg>
