<?xml version="1.0" encoding="UTF-8" standalone="no"?>
<svg
   width="45.999886"
   height="45.999989"
   version="1.1"
   viewBox="0 0 12.170564 12.170591"
   id="svg12"
   sodipodi:docname="distributor-logo-rhel.svg"
   inkscape:version="1.3.2 (091e20ef0f, 2023-11-25)"
   xmlns:inkscape="http://www.inkscape.org/namespaces/inkscape"
   xmlns:sodipodi="http://sodipodi.sourceforge.net/DTD/sodipodi-0.dtd"
   xmlns:xlink="http://www.w3.org/1999/xlink"
   xmlns="http://www.w3.org/2000/svg"
   xmlns:svg="http://www.w3.org/2000/svg">
  <defs
     id="defs16">
    <linearGradient
       id="c"
       y1="523.79999"
       x1="403.57001"
       y2="536.79999"
       x2="416.57001"
       gradientUnits="userSpaceOnUse"
       gradientTransform="matrix(0.34526714,0,0,0.34526706,-134.80427,-174.63325)">
      <stop
         stop-color="#292c2f"
         id="stop1568" />
      <stop
         offset="1"
         stop-opacity="0"
         id="stop1570" />
    </linearGradient>
    <linearGradient
       xlink:href="#b-2"
       id="linearGradient4189"
       x1="14.369"
       y1="22.521999"
       x2="26.521999"
       y2="22.521999"
       gradientUnits="userSpaceOnUse" />
    <linearGradient
       x1="36"
       gradientUnits="userSpaceOnUse"
       x2="14"
       y2="12"
       y1="44"
       id="b-2">
      <stop
         style="stop-color:#bfc9c9;stop-opacity:1"
         stop-color="#536161"
         id="stop1579" />
      <stop
         style="stop-color:#fbfbfb;stop-opacity:1"
         stop-color="#f4f5f5"
         offset="1"
         id="stop1581" />
    </linearGradient>
    <linearGradient
       xlink:href="#b-2"
       id="linearGradient4428"
       gradientUnits="userSpaceOnUse"
       x1="31.586"
       y1="36.345001"
       x2="1.2029999"
       y2="6.723" />
    <linearGradient
       xlink:href="#b-2"
       id="linearGradient4189-3"
       x1="14.369"
       y1="22.521999"
       x2="26.521999"
       y2="22.521999"
       gradientUnits="userSpaceOnUse"
       gradientTransform="translate(20.841982,61.553822)" />
    <linearGradient
       xlink:href="#b-2"
       id="linearGradient4428-5"
       gradientUnits="userSpaceOnUse"
       x1="31.586"
       y1="36.345001"
       x2="1.2029999"
       y2="6.723"
       gradientTransform="translate(20.841982,61.553822)" />
    <linearGradient
       xlink:href="#b-2"
       id="linearGradient4189-3-3"
       x1="14.369"
       y1="22.521999"
       x2="26.521999"
       y2="22.521999"
       gradientUnits="userSpaceOnUse"
       gradientTransform="translate(4.376802,4.4211693)" />
    <linearGradient
       xlink:href="#b-2"
       id="linearGradient4428-5-5"
       gradientUnits="userSpaceOnUse"
       x1="31.586"
       y1="36.345001"
       x2="1.2029999"
       y2="6.723"
       gradientTransform="translate(4.376802,4.4211693)" />
    <linearGradient
       inkscape:collect="always"
       xlink:href="#linearGradient11"
       id="linearGradient13"
       x1="-43.819283"
       y1="23.120178"
       x2="-1.9547797"
       y2="23.120178"
       gradientUnits="userSpaceOnUse"
       gradientTransform="scale(0.26457813)" />
    <linearGradient
       id="linearGradient11"
       inkscape:collect="always">
      <stop
         style="stop-color:#d15a89;stop-opacity:0.88546801;"
         offset="0"
         id="stop4-3" />
      <stop
         style="stop-color:#c83771;stop-opacity:1"
         offset="1"
         id="stop11" />
    </linearGradient>
    <linearGradient
       inkscape:collect="always"
       xlink:href="#linearGradient14"
       id="linearGradient15"
       x1="-9.6850061"
       y1="45.161198"
       x2="11.98815"
       y2="21.735205"
       gradientUnits="userSpaceOnUse"
       gradientTransform="scale(0.26457813)" />
    <linearGradient
       id="linearGradient14"
       inkscape:collect="always">
      <stop
         style="stop-color:#a02c5a;stop-opacity:1"
         offset="0"
         id="stop12" />
      <stop
         style="stop-color:#c83771;stop-opacity:1"
         offset="1"
         id="stop13" />
    </linearGradient>
  </defs>
  <sodipodi:namedview
     id="namedview14"
     pagecolor="#000000"
     bordercolor="#666666"
     borderopacity="1.0"
     inkscape:showpageshadow="2"
     inkscape:pageopacity="0.0"
     inkscape:pagecheckerboard="0"
     inkscape:deskcolor="#d1d1d1"
     showgrid="false"
     inkscape:zoom="5.2149125"
     inkscape:cx="23.20269"
     inkscape:cy="69.032798"
     inkscape:window-width="1920"
     inkscape:window-height="996"
     inkscape:window-x="0"
     inkscape:window-y="0"
     inkscape:window-maximized="1"
     inkscape:current-layer="svg12">
    <inkscape:grid
       type="xygrid"
       id="grid244"
       originx="9.7893915"
       originy="-31.749373"
       spacingy="1"
       spacingx="1"
       units="px"
       visible="false" />
  </sodipodi:namedview>
  <rect
     x="-12.025727"
     y="0.1490714"
     width="11.940627"
     height="11.936014"
     rx="1.6121091"
     stroke="url(#paint4_linear_77:23)"
     shape-rendering="crispEdges"
     id="rect5-6-7-3"
     ry="1.7735944"
     transform="matrix(0.00523883,-0.99998628,0.999988,0.00489859,0,0)"
     style="fill:#de87aa;fill-opacity:0.15;stroke:url(#linearGradient13);stroke-width:0.188987;stroke-opacity:1" />
  <rect
     x="-3.7266586"
     y="4.6446943"
     width="7.912631"
     height="7.912384"
     rx="1.612043"
     shape-rendering="crispEdges"
     id="rect5-6-6-6-6"
     style="fill:#de87aa;fill-opacity:0.122146;stroke:url(#linearGradient15);stroke-width:0.188987;stroke-opacity:1"
     ry="1.7735215"
     transform="matrix(0.72612649,-0.68756114,0.6879775,0.72573202,0,0)" />
  <path
     style="opacity:0.2;stroke-width:0.167953"
     d="m 6.0156806,3.0048885 c -0.2296896,0 -0.2979527,0.295427 -0.5773035,0.295427 -0.2669381,0 -0.4658182,-0.221574 -0.714134,-0.221574 -0.242105,0 -0.3970081,0.159851 -0.5149571,0.492278 0,0 -0.3353471,0.935696 -0.378805,1.071131 -0.00619,0.02465 -0.1551669,0.338656 -0.1489586,0.36328 -0.6642455,0.03078 -1.5334125,0.153835 -1.5334125,0.911043 0,1.243548 2.9735723,2.78259 5.3325638,2.78259 1.8064971,0 2.2596854,-0.812352 2.2596854,-1.446435 0,-0.510959 -0.440887,-1.0773 -1.2354944,-1.422039 L 8.4179133,5.4609575 8.119995,4.1806175 C 8.051709,3.8974375 7.9959824,3.7681435 7.493151,3.5218985 7.1082584,3.3248995 6.2639987,3.0048885 6.0156806,3.0048885 Z"
     id="path1-3" />
  <path
     style="fill:#e73232;stroke-width:0.167953"
     d="m 6.0156806,2.8783455 c -0.2296896,0 -0.2979527,0.295437 -0.5773035,0.295437 -0.2669381,0 -0.4658182,-0.221576 -0.714134,-0.221576 -0.242105,0 -0.3970081,0.159848 -0.5149571,0.492283 0,0 -0.3353471,0.935684 -0.378805,1.071127 -0.00619,0.02465 -0.1551669,0.338654 -0.1489586,0.363286 -0.6642455,0.03078 -1.5334125,0.153827 -1.5334125,0.911033 0,1.243543 2.9735723,2.782591 5.3325638,2.782591 1.8064971,0 2.2596854,-0.812346 2.2596854,-1.446441 0,-0.510953 -0.440887,-1.077292 -1.2354944,-1.422032 L 8.4179134,5.3344145 8.1199951,4.0540775 C 8.051709,3.7708975 7.9959824,3.6416095 7.493151,3.3953605 7.1082584,3.1983645 6.2639987,2.8783455 6.0156806,2.8783455 Z"
     id="path2-5" />
  <path
     style="opacity:0.2;fill:#ffffff;stroke-width:0.167953"
     d="m 6.0156555,2.8783455 c -0.2296914,0 -0.2979718,0.29534 -0.5773254,0.29534 -0.2669393,0 -0.4656794,-0.221454 -0.7139937,-0.221454 -0.2421142,0 -0.3971014,0.159883 -0.5150504,0.492316 0,0 -0.3354134,0.935685 -0.3788707,1.071122 -0.00619,0.02465 -0.1549884,0.338675 -0.14878,0.363304 -0.6642466,0.03078 -1.5335254,0.15376 -1.5335254,0.910964 0,0.02088 0.00315,0.04202 0.0047,0.06302 0.048818,-0.699065 0.8841625,-0.81758 1.5288338,-0.847457 -0.00619,-0.02464 0.1425688,-0.338674 0.148781,-0.363299 0.043452,-0.135441 0.3788711,-1.071122 0.3788711,-1.071122 0.1179459,-0.332432 0.2729392,-0.49231 0.5150439,-0.49231 0.248314,0 0.447061,0.22144 0.7140006,0.22144 0.2793521,0 0.347631,-0.295328 0.5773235,-0.295328 0.2483162,0 1.092538,0.320023 1.477422,0.51702 0.5028403,0.246245 0.5587175,0.375452 0.6270047,0.658639 l 0.2978066,1.280454 0.086994,0.369475 c 0.7649406,0.331868 1.2006793,0.868991 1.232257,1.364471 0.00109,-0.02301 0.00326,-0.04636 0.00326,-0.06894 0,-0.510968 -0.4408606,-1.077326 -1.2354683,-1.422067 L 8.4179136,5.3344585 8.1201079,4.0540035 C 8.0518216,3.7708235 7.9959453,3.6416165 7.4931052,3.3953775 7.108216,3.1983705 6.2639977,2.8783455 6.0156822,2.8783455 Z"
     id="path3-6" />
  <path
     style="opacity:0.1;stroke-width:0.167953"
     d="m 8.512511,5.9080095 c 0.068638,0.32901 0.068638,0.360046 0.068638,0.403506 0,0.558712 -0.6380594,0.8691 -1.4679036,0.8691 -1.8718259,0 -3.5364007,-1.092587 -3.5364007,-1.812697 0,-0.09932 0.018703,-0.198654 0.062394,-0.291778 l 0.1497426,-0.360055 c -0.00622,0.02483 -0.012452,0.04965 -0.00622,0.07446 0,0.36627 1.4711566,1.570597 3.4240947,1.570597 0.4991502,0 1.2370388,-0.105531 1.2370388,-0.695286 0,-0.04344 0,-0.0931 -0.012452,-0.136569 z"
     id="path4-2" />
  <path
     style="fill:#ffd5d5;stroke-width:0.167953"
     d="m 8.512511,5.7814665 c 0.068638,0.329011 0.068638,0.360051 0.068638,0.403516 0,0.558705 -0.6380594,0.869094 -1.4679036,0.869094 -1.8718259,0 -3.5364007,-1.092578 -3.5364007,-1.812695 0,-0.09933 0.018703,-0.198655 0.062394,-0.291779 l 0.1497427,-0.360046 c -0.00622,0.02484 -0.012452,0.04964 -0.00622,0.07445 0,0.36627 1.4711566,1.570596 3.4240948,1.570596 0.4991502,0 1.2370388,-0.105531 1.2370388,-0.695282 0,-0.04343 0,-0.0931 -0.012452,-0.136573 z"
     id="path5-9" />
</svg>
