<?xml version="1.0" encoding="UTF-8" standalone="no"?>
<svg
   width="45.999886"
   height="45.999989"
   version="1.1"
   viewBox="0 0 12.170564 12.170591"
   id="svg12"
   sodipodi:docname="dragonplayer.svg"
   inkscape:version="1.3.2 (091e20ef0f, 2023-11-25)"
   xmlns:inkscape="http://www.inkscape.org/namespaces/inkscape"
   xmlns:sodipodi="http://sodipodi.sourceforge.net/DTD/sodipodi-0.dtd"
   xmlns:xlink="http://www.w3.org/1999/xlink"
   xmlns="http://www.w3.org/2000/svg"
   xmlns:svg="http://www.w3.org/2000/svg">
  <defs
     id="defs16">
    <linearGradient
       id="c"
       y1="523.79999"
       x1="403.57001"
       y2="536.79999"
       x2="416.57001"
       gradientUnits="userSpaceOnUse"
       gradientTransform="matrix(0.34526714,0,0,0.34526706,-134.80427,-174.63325)">
      <stop
         stop-color="#292c2f"
         id="stop1568" />
      <stop
         offset="1"
         stop-opacity="0"
         id="stop1570" />
    </linearGradient>
    <linearGradient
       xlink:href="#b-2"
       id="linearGradient4189"
       x1="14.369"
       y1="22.521999"
       x2="26.521999"
       y2="22.521999"
       gradientUnits="userSpaceOnUse" />
    <linearGradient
       x1="36"
       gradientUnits="userSpaceOnUse"
       x2="14"
       y2="12"
       y1="44"
       id="b-2">
      <stop
         style="stop-color:#bfc9c9;stop-opacity:1"
         stop-color="#536161"
         id="stop1579" />
      <stop
         style="stop-color:#fbfbfb;stop-opacity:1"
         stop-color="#f4f5f5"
         offset="1"
         id="stop1581" />
    </linearGradient>
    <linearGradient
       xlink:href="#b-2"
       id="linearGradient4428"
       gradientUnits="userSpaceOnUse"
       x1="31.586"
       y1="36.345001"
       x2="1.2029999"
       y2="6.723" />
    <linearGradient
       xlink:href="#b-2"
       id="linearGradient4189-3"
       x1="14.369"
       y1="22.521999"
       x2="26.521999"
       y2="22.521999"
       gradientUnits="userSpaceOnUse"
       gradientTransform="translate(20.841982,61.553822)" />
    <linearGradient
       xlink:href="#b-2"
       id="linearGradient4428-5"
       gradientUnits="userSpaceOnUse"
       x1="31.586"
       y1="36.345001"
       x2="1.2029999"
       y2="6.723"
       gradientTransform="translate(20.841982,61.553822)" />
    <linearGradient
       xlink:href="#b-2"
       id="linearGradient4189-3-3"
       x1="14.369"
       y1="22.521999"
       x2="26.521999"
       y2="22.521999"
       gradientUnits="userSpaceOnUse"
       gradientTransform="translate(4.376802,4.4211693)" />
    <linearGradient
       xlink:href="#b-2"
       id="linearGradient4428-5-5"
       gradientUnits="userSpaceOnUse"
       x1="31.586"
       y1="36.345001"
       x2="1.2029999"
       y2="6.723"
       gradientTransform="translate(4.376802,4.4211693)" />
    <linearGradient
       inkscape:collect="always"
       xlink:href="#linearGradient14"
       id="linearGradient15"
       x1="-9.6850061"
       y1="45.161198"
       x2="11.98815"
       y2="21.735205"
       gradientUnits="userSpaceOnUse"
       gradientTransform="scale(0.26457813)" />
    <linearGradient
       id="linearGradient14"
       inkscape:collect="always">
      <stop
         style="stop-color:#9955ff;stop-opacity:0.45197046;"
         offset="0"
         id="stop12" />
      <stop
         style="stop-color:#c83771;stop-opacity:1"
         offset="1"
         id="stop13" />
    </linearGradient>
    <filter
       id="filter2917-3"
       x="-0.96181147"
       y="-0.66745996"
       width="2.9236229"
       height="2.3349199"
       color-interpolation-filters="sRGB">
      <feGaussianBlur
         stdDeviation="0.2871969"
         id="feGaussianBlur732-5" />
    </filter>
    <filter
       id="filter1"
       x="-0.96181148"
       y="-0.66745996"
       width="2.9236228"
       height="2.3349199"
       color-interpolation-filters="sRGB">
      <feGaussianBlur
         stdDeviation="0.2871969"
         id="feGaussianBlur1" />
    </filter>
    <filter
       id="filter2"
       x="-0.96181148"
       y="-0.66745996"
       width="2.9236228"
       height="2.3349199"
       color-interpolation-filters="sRGB">
      <feGaussianBlur
         stdDeviation="0.2871969"
         id="feGaussianBlur2" />
    </filter>
    <linearGradient
       id="paint0_linear"
       x1="169.86"
       y1="7.7666602"
       x2="-5.1536398"
       y2="162.661"
       gradientUnits="userSpaceOnUse"
       gradientTransform="translate(11.720002,6.64)">
      <stop
         stop-color="#FE7970"
         id="stop8" />
      <stop
         offset="1"
         stop-color="#DC3282"
         id="stop9" />
    </linearGradient>
    <linearGradient
       inkscape:collect="always"
       xlink:href="#paint0_linear"
       id="linearGradient1"
       gradientUnits="userSpaceOnUse"
       gradientTransform="scale(0.26457814)"
       x1="41.765812"
       y1="3.1644738"
       x2="2.1331553"
       y2="41.470085" />
    <linearGradient
       inkscape:collect="always"
       xlink:href="#paint0_linear"
       id="linearGradient2"
       gradientUnits="userSpaceOnUse"
       gradientTransform="scale(0.26457814)"
       x1="44.833935"
       y1="6.999629"
       x2="5.584795"
       y2="43.00415" />
    <linearGradient
       inkscape:collect="always"
       xlink:href="#paint0_linear"
       id="linearGradient3"
       gradientUnits="userSpaceOnUse"
       gradientTransform="scale(0.26457814)"
       x1="49.819637"
       y1="5.4655671"
       x2="19.795513"
       y2="46.050827" />
    <linearGradient
       inkscape:collect="always"
       xlink:href="#paint0_linear"
       id="linearGradient4"
       gradientUnits="userSpaceOnUse"
       gradientTransform="scale(0.26457814)"
       x1="44.45042"
       y1="5.0820513"
       x2="4.0507331"
       y2="37.251415" />
    <linearGradient
       inkscape:collect="always"
       xlink:href="#linearGradient14"
       id="linearGradient6"
       x1="-12.120221"
       y1="6.1170783"
       x2="0.0093933269"
       y2="6.1170783"
       gradientUnits="userSpaceOnUse" />
  </defs>
  <sodipodi:namedview
     id="namedview14"
     pagecolor="#000000"
     bordercolor="#666666"
     borderopacity="1.0"
     inkscape:showpageshadow="2"
     inkscape:pageopacity="0.0"
     inkscape:pagecheckerboard="0"
     inkscape:deskcolor="#d1d1d1"
     showgrid="false"
     inkscape:zoom="10.429825"
     inkscape:cx="23.490327"
     inkscape:cy="33.509671"
     inkscape:window-width="1920"
     inkscape:window-height="996"
     inkscape:window-x="0"
     inkscape:window-y="0"
     inkscape:window-maximized="1"
     inkscape:current-layer="svg12">
    <inkscape:grid
       type="xygrid"
       id="grid244"
       originx="9.7893915"
       originy="-31.749373"
       spacingy="1"
       spacingx="1"
       units="px"
       visible="false" />
  </sodipodi:namedview>
  <rect
     x="-12.025727"
     y="0.1490714"
     width="11.940627"
     height="11.936014"
     rx="1.6121091"
     stroke="url(#paint4_linear_77:23)"
     shape-rendering="crispEdges"
     id="rect5-6-7-3"
     ry="1.7735944"
     transform="matrix(0.00523883,-0.99998628,0.999988,0.00489859,0,0)"
     style="fill:#80b3ff;fill-opacity:0.15;stroke:url(#linearGradient6);stroke-width:0.188987;stroke-opacity:1" />
  <rect
     x="-3.7266586"
     y="4.6446943"
     width="7.912631"
     height="7.912384"
     rx="1.612043"
     shape-rendering="crispEdges"
     id="rect5-6-6-6-6"
     style="fill:#80b3ff;fill-opacity:0.122146;stroke:url(#linearGradient15);stroke-width:0.188987;stroke-opacity:1"
     ry="1.7735215"
     transform="matrix(0.72612649,-0.68756114,0.6879775,0.72573202,0,0)" />
  <path
     d="m 5.3078695,2.4257072 c 0.147277,0.01652 0.2423086,0.1402395 0.3742723,0.191154 0.1216051,0.037967 0.1711479,-0.097363 0.2251942,-0.175075 0.1008863,0.06566 0.1945677,0.1451513 0.3089663,0.1866876 0.125208,-0.00131 0.2751871,-0.093789 0.379677,0.015189 0.1801557,0.1978532 0.2567214,0.4801174 0.4828166,0.6391138 0.1634902,0.1246075 0.3922877,0.087979 0.5602825,0.2027664 0.066655,0.043322 0.099089,0.1201411 0.1031412,0.1969589 -0.00771,0.122374 -0.029279,0.2434083 -0.051346,0.363995 C 7.3756017,4.0388769 7.0567267,3.9920089 6.7662265,3.8656127 6.6297592,3.8030857 6.4770773,3.8401587 6.3541219,3.9147447 c 0.067112,0.031253 0.1346655,0.062524 0.2035753,0.090665 0.2436597,0.087979 0.514343,0.1817745 0.6625208,0.4064245 0.00861,0.149171 -0.1531321,0.2483198 -0.1661935,0.3912384 0.058551,0.065658 0.1630402,0.1098663 0.1486275,0.213931 C 6.923862,5.0344301 6.8175702,4.7101785 6.5662534,4.6543505 6.4153735,4.6177279 6.2532338,4.6226427 6.1109112,4.5543127 5.986154,4.4935739 5.9046333,4.3770042 5.8118536,4.2783008 5.6758366,4.3493208 5.6096289,4.5194767 5.6983559,4.6539091 5.8753584,4.9437662 6.1816225,5.1255413 6.4811307,5.2715858 6.1991875,5.3434948 6.0964989,5.6387084 5.9100386,5.8280749 c 0.022972,0.035289 0.045944,0.070565 0.068456,0.1058564 C 5.9303061,6.0375448 5.8875183,6.1433938 5.8361737,6.2456695 5.5708965,5.7691099 5.1894174,5.3725101 4.883154,4.9241025 4.6863336,4.6342462 4.51924,4.2800768 4.6052639,3.9227805 4.6489516,3.7021487 4.7957781,3.5261805 4.9277419,3.3511054 5.0115132,3.2635634 4.8795514,3.193002 4.830009,3.1327077 4.932247,3.0786618 5.0479966,3.0795618 5.1601433,3.0719683 5.1605931,2.8928736 4.9547661,2.901359 4.8291076,2.8660768 4.7885729,2.7919428 4.8763973,2.7611239 4.9286434,2.7329842 5.0831272,2.6731342 5.2515721,2.7097571 5.4123605,2.7012762 5.3799322,2.6088302 5.3466031,2.5163759 5.3078713,2.4257115 Z M 6.1870271,2.9518276 C 6.0532616,3.0768799 6.2266608,3.3024234 6.3820451,3.1997012 6.5680555,3.0880434 6.3473647,2.8035489 6.1870271,2.9518276 Z"
     fill="url(#paint0_linear)"
     id="path1"
     style="fill:url(#linearGradient1);stroke-width:0.264578" />
  <path
     d="m 7.18824,4.2179965 c 0.2175371,-0.00665 0.4310212,0.05002 0.6476583,0.067446 0.1373682,0.00981 0.2459117,0.097367 0.3485997,0.1786488 0.1324144,0.1156755 0.3490511,0.065201 0.4616482,0.2116987 0.1112485,0.1116562 0.077922,0.2889631 0.1652927,0.4113368 0.1161992,0.0987 0.312569,0.066547 0.3909365,0.2139321 -0.11395,0.043324 -0.2337515,0.09736 -0.3589591,0.077261 C 8.6731694,5.3515122 8.5479617,5.2224459 8.4367157,5.1027513 8.3727607,5.0353093 8.318714,4.9473275 8.2245828,4.9182963 8.1282002,4.8883775 8.0295647,4.9249885 7.9336322,4.9388462 7.862021,4.8191489 7.7994164,4.6882889 7.6868194,4.5998584 7.5296341,4.4600653 7.3134476,4.3926253 7.18824,4.2179965 Z"
     fill="url(#paint1_linear)"
     id="path2"
     style="fill:url(#linearGradient2);stroke-width:0.264578" />
  <path
     d="M 5.9100386,5.8280632 C 6.0964989,5.638697 6.1991875,5.3434795 6.4811307,5.2715738 6.6162469,5.3408078 6.7594703,5.3952884 6.8878311,5.47702 c 0.059,0.1549761 0.1779033,0.2702049 0.3040118,0.3733737 -0.036487,0.2608269 0.2071785,0.4327753 0.2905003,0.6578722 -0.00442,0.017866 -0.013956,0.054041 -0.018463,0.071909 -0.045485,0.118801 -0.0067,0.2429616 0.022972,0.3599758 0.099982,0.3751595 0.1427719,0.7677395 0.1058441,1.1554062 C 7.5417957,7.9258416 7.5521549,7.7467464 7.5174747,7.5743516 7.4900007,7.5051206 7.4863972,7.3957025 7.3891134,7.3939163 7.3075932,7.4993202 7.2967835,7.6364316 7.2607529,7.7605913 7.1332932,8.2590201 6.8626098,8.7427099 6.4311378,9.0419459 6.2662961,9.1571804 6.0919959,9.2799945 6.005071,9.467575 5.942466,9.590396 5.946971,9.733315 5.975797,9.865069 6.026242,10.037909 6.1379368,10.186635 6.177571,10.363051 5.8307716,10.150456 5.6235926,9.679274 5.7803278,9.2902662 5.9023831,8.963339 6.1775701,8.7333301 6.3951075,8.4711638 6.7675784,7.9638029 6.8851298,7.2867263 6.7121808,6.6837877 6.6824536,6.5654343 6.642821,6.4461856 6.554545,6.3577547 6.5829205,6.7405083 6.626157,7.1335346 6.5063525,7.5064634 6.4018639,7.8601862 6.182074,8.2058718 5.8343743,8.363975 5.647463,8.4532941 5.4317272,8.4524055 5.2331061,8.4055132 5.0232254,8.3077022 4.7912758,8.1665718 4.725068,7.9312034 4.9885452,7.9709534 5.2164417,8.1674645 5.4952318,8.1268229 5.7028613,8.1120882 5.834825,7.9061927 5.8321222,7.7128055 5.8357293,7.3019143 5.6208903,6.9088881 5.3182292,6.6364499 5.1948234,6.5216656 5.0484468,6.4327905 4.8903604,6.3733905 4.8435212,6.1116706 5.0966381,5.9361489 5.2583275,5.7704531 5.4236199,5.9459748 5.5781032,6.1317684 5.7141204,6.3300682 5.7807769,6.4180488 5.8330229,6.5297077 5.94562,6.5672238 5.9226514,6.4560155 5.8821152,6.3492727 5.8361752,6.2456564 5.8875197,6.1433796 5.9303067,6.0375311 5.978498,5.9339161 5.9559793,5.8986307 5.9330092,5.8633477 5.9100392,5.8280621 Z"
     fill="url(#paint2_linear)"
     id="path3"
     style="fill:url(#linearGradient3);stroke-width:0.264578" />
  <path
     d="M 2.4190801,5.2452236 C 2.8780256,5.0013687 3.4166897,4.8687226 3.9346362,4.9750185 4.453483,5.0772952 4.8993678,5.3966281 5.2583267,5.7704497 5.0966371,5.9361457 4.8435195,6.1116672 4.8903594,6.3733871 4.567882,6.2608409 4.2062199,6.2965641 3.899956,6.4412793 3.7333124,6.5140756 3.59099,6.634666 3.4157889,6.6895996 l -0.038288,0.01473 c -0.010343,-0.1844507 0.08873,-0.3452346 0.1477314,-0.5131642 0.015314,-0.04868 0.030177,-0.097362 0.04414,-0.1460448 -0.3193261,0.00981 -0.6291926,0.0996 -0.9386096,0.1715023 C 2.4289879,6.2603899 2.2573899,6.3765137 2.0961507,6.498442 L 2.0587662,6.523901 C 2.0830891,6.4426088 2.1294799,6.3698124 2.1934348,6.3135382 2.4555611,6.0683435 2.7951537,5.9321257 3.0879062,5.7302518 3.1288908,5.6529904 3.0298063,5.6333404 2.9793626,5.6047514 2.6920153,5.4658526 2.3672855,5.571706 2.0655255,5.5172094 2.1326329,5.3742905 2.2907197,5.3193572 2.4190801,5.2452183 Z"
     fill="url(#paint3_linear)"
     id="path4"
     style="fill:url(#linearGradient4);stroke-width:0.264578" />
</svg>
