<?xml version="1.0" encoding="UTF-8" standalone="no"?>
<svg
   width="45.999886"
   height="45.999989"
   version="1.1"
   viewBox="0 0 12.170564 12.170591"
   id="svg12"
   sodipodi:docname="falkon.svg"
   inkscape:version="1.3.2 (091e20ef0f, 2023-11-25)"
   xmlns:inkscape="http://www.inkscape.org/namespaces/inkscape"
   xmlns:sodipodi="http://sodipodi.sourceforge.net/DTD/sodipodi-0.dtd"
   xmlns:xlink="http://www.w3.org/1999/xlink"
   xmlns="http://www.w3.org/2000/svg"
   xmlns:svg="http://www.w3.org/2000/svg">
  <defs
     id="defs16">
    <linearGradient
       id="c"
       y1="523.79999"
       x1="403.57001"
       y2="536.79999"
       x2="416.57001"
       gradientUnits="userSpaceOnUse"
       gradientTransform="matrix(0.34526714,0,0,0.34526706,-134.80427,-174.63325)">
      <stop
         stop-color="#292c2f"
         id="stop1568" />
      <stop
         offset="1"
         stop-opacity="0"
         id="stop1570" />
    </linearGradient>
    <linearGradient
       xlink:href="#b-2"
       id="linearGradient4189"
       x1="14.369"
       y1="22.521999"
       x2="26.521999"
       y2="22.521999"
       gradientUnits="userSpaceOnUse" />
    <linearGradient
       x1="36"
       gradientUnits="userSpaceOnUse"
       x2="14"
       y2="12"
       y1="44"
       id="b-2">
      <stop
         style="stop-color:#bfc9c9;stop-opacity:1"
         stop-color="#536161"
         id="stop1579" />
      <stop
         style="stop-color:#fbfbfb;stop-opacity:1"
         stop-color="#f4f5f5"
         offset="1"
         id="stop1581" />
    </linearGradient>
    <linearGradient
       xlink:href="#b-2"
       id="linearGradient4428"
       gradientUnits="userSpaceOnUse"
       x1="31.586"
       y1="36.345001"
       x2="1.2029999"
       y2="6.723" />
    <linearGradient
       xlink:href="#b-2"
       id="linearGradient4189-3"
       x1="14.369"
       y1="22.521999"
       x2="26.521999"
       y2="22.521999"
       gradientUnits="userSpaceOnUse"
       gradientTransform="translate(20.841982,61.553822)" />
    <linearGradient
       xlink:href="#b-2"
       id="linearGradient4428-5"
       gradientUnits="userSpaceOnUse"
       x1="31.586"
       y1="36.345001"
       x2="1.2029999"
       y2="6.723"
       gradientTransform="translate(20.841982,61.553822)" />
    <linearGradient
       xlink:href="#b-2"
       id="linearGradient4189-3-3"
       x1="14.369"
       y1="22.521999"
       x2="26.521999"
       y2="22.521999"
       gradientUnits="userSpaceOnUse"
       gradientTransform="translate(4.376802,4.4211693)" />
    <linearGradient
       xlink:href="#b-2"
       id="linearGradient4428-5-5"
       gradientUnits="userSpaceOnUse"
       x1="31.586"
       y1="36.345001"
       x2="1.2029999"
       y2="6.723"
       gradientTransform="translate(4.376802,4.4211693)" />
    <linearGradient
       inkscape:collect="always"
       xlink:href="#linearGradient11"
       id="linearGradient13"
       x1="-43.819283"
       y1="23.120178"
       x2="-1.9547797"
       y2="23.120178"
       gradientUnits="userSpaceOnUse"
       gradientTransform="scale(0.26457813)" />
    <linearGradient
       id="linearGradient11"
       inkscape:collect="always">
      <stop
         style="stop-color:#9955ff;stop-opacity:0.65640396;"
         offset="0"
         id="stop4-3" />
      <stop
         style="stop-color:#cd87de;stop-opacity:1"
         offset="1"
         id="stop11" />
    </linearGradient>
    <linearGradient
       inkscape:collect="always"
       xlink:href="#linearGradient14"
       id="linearGradient15"
       x1="-9.6850061"
       y1="45.161198"
       x2="11.98815"
       y2="21.735205"
       gradientUnits="userSpaceOnUse"
       gradientTransform="scale(0.26457813)" />
    <linearGradient
       id="linearGradient14"
       inkscape:collect="always">
      <stop
         style="stop-color:#9955ff;stop-opacity:0.45197046;"
         offset="0"
         id="stop12" />
      <stop
         style="stop-color:#cd87de;stop-opacity:1"
         offset="1"
         id="stop13" />
    </linearGradient>
    <filter
       id="filter2917-3"
       x="-0.96181147"
       y="-0.19406835"
       width="2.9236229"
       height="1.3881367"
       color-interpolation-filters="sRGB">
      <feGaussianBlur
         stdDeviation="0.2871969"
         id="feGaussianBlur732-5" />
    </filter>
    <filter
       id="filter1"
       x="-0.96181148"
       y="-0.66745996"
       width="2.9236228"
       height="2.3349199"
       color-interpolation-filters="sRGB">
      <feGaussianBlur
         stdDeviation="0.2871969"
         id="feGaussianBlur1" />
    </filter>
    <filter
       id="filter2"
       x="-0.96181148"
       y="-0.66745996"
       width="2.9236228"
       height="2.3349199"
       color-interpolation-filters="sRGB">
      <feGaussianBlur
         stdDeviation="0.2871969"
         id="feGaussianBlur2" />
    </filter>
    <linearGradient
       id="_lgradient_80"
       x1="0.22078557"
       y1="0.047239967"
       x2="0.58897626"
       y2="0.49430263"
       gradientTransform="matrix(15.547316,0,0,15.521916,0.70554167,0.70554123)"
       gradientUnits="userSpaceOnUse">
      <stop
         offset="2.608695652173913%"
         stop-opacity="1"
         style="stop-color:rgb(237,184,212)"
         id="stop1" />
      <stop
         offset="98.69565217391305%"
         stop-opacity="1"
         style="stop-color:rgb(162,110,245)"
         id="stop2" />
    </linearGradient>
    <linearGradient
       id="_lgradient_81"
       x1="0.22078557"
       y1="0.047239967"
       x2="0.9022491"
       y2="0.90614605"
       gradientTransform="matrix(1.7532711,0,0,1.314777,9.2186077,3.712207)"
       gradientUnits="userSpaceOnUse">
      <stop
         offset="2.608695652173913%"
         stop-opacity="1"
         style="stop-color:rgb(237,184,212)"
         id="stop3" />
      <stop
         offset="98.69565217391305%"
         stop-opacity="1"
         style="stop-color:rgb(162,110,245)"
         id="stop4" />
    </linearGradient>
    <linearGradient
       id="_lgradient_82"
       x1="0.17374484"
       y1="0.010219852"
       x2="0.3311637"
       y2="0.17655618"
       gradientTransform="matrix(11.972335,0,0,8.5977307,1.3528762,6.8991393)"
       gradientUnits="userSpaceOnUse">
      <stop
         offset="0%"
         stop-opacity="1"
         style="stop-color:rgb(247,241,7)"
         id="stop5" />
      <stop
         offset="83.88839793817618%"
         stop-opacity="1"
         style="stop-color:rgb(255,187,36)"
         id="stop6" />
    </linearGradient>
    <linearGradient
       id="_lgradient_83"
       x1="0.38015819"
       y1="1.9877502"
       x2="0.99081039"
       y2="2.527808"
       gradientTransform="matrix(3.4444545,0,0,0.74752138,2.9731526,1.9102543)"
       gradientUnits="userSpaceOnUse">
      <stop
         offset="0%"
         stop-opacity="1"
         style="stop-color:rgb(247,241,7)"
         id="stop7" />
      <stop
         offset="83.88839793817618%"
         stop-opacity="1"
         style="stop-color:rgb(255,187,36)"
         id="stop8" />
    </linearGradient>
    <linearGradient
       id="_lgradient_84"
       x1="0.38195378"
       y1="-0.021028476"
       x2="0.46187532"
       y2="0.39904937"
       gradientTransform="matrix(7.9697989,0,0,3.5054838,1.2488088,5.4757093)"
       gradientUnits="userSpaceOnUse">
      <stop
         offset="0%"
         stop-opacity="1"
         style="stop-color:rgb(247,241,7)"
         id="stop9" />
      <stop
         offset="83.88839793817618%"
         stop-opacity="1"
         style="stop-color:rgb(255,187,36)"
         id="stop10" />
    </linearGradient>
  </defs>
  <sodipodi:namedview
     id="namedview14"
     pagecolor="#000000"
     bordercolor="#666666"
     borderopacity="1.0"
     inkscape:showpageshadow="2"
     inkscape:pageopacity="0.0"
     inkscape:pagecheckerboard="0"
     inkscape:deskcolor="#d1d1d1"
     showgrid="false"
     inkscape:zoom="7.375"
     inkscape:cx="17.898305"
     inkscape:cy="42.101695"
     inkscape:window-width="1920"
     inkscape:window-height="996"
     inkscape:window-x="0"
     inkscape:window-y="0"
     inkscape:window-maximized="1"
     inkscape:current-layer="svg12">
    <inkscape:grid
       type="xygrid"
       id="grid244"
       originx="9.7893915"
       originy="-31.749373"
       spacingy="1"
       spacingx="1"
       units="px"
       visible="false" />
  </sodipodi:namedview>
  <rect
     x="-12.025727"
     y="0.1490714"
     width="11.940627"
     height="11.936014"
     rx="1.6121091"
     stroke="url(#paint4_linear_77:23)"
     shape-rendering="crispEdges"
     id="rect5-6-7-3"
     ry="1.7735944"
     transform="matrix(0.00523883,-0.99998628,0.999988,0.00489859,0,0)"
     style="fill:#ffd42a;fill-opacity:0.1130137;stroke:url(#linearGradient13);stroke-width:0.188987;stroke-opacity:1" />
  <rect
     x="-3.7266586"
     y="4.6446943"
     width="7.912631"
     height="7.912384"
     rx="1.612043"
     shape-rendering="crispEdges"
     id="rect5-6-6-6-6"
     style="fill:#b380ff;fill-opacity:0.122146;stroke:url(#linearGradient15);stroke-width:0.188987;stroke-opacity:1"
     ry="1.7735215"
     transform="matrix(0.72612649,-0.68756114,0.6879775,0.72573202,0,0)" />
  <path
     d="m 3.3845527,7.6271423 v -0.00562 c 0,-0.00138 0,-0.00138 0,-0.00278 0.00135,-0.2461758 0.03181,-0.490971 0.08851,-0.7316161 0.034577,-0.147967 0.07745,-0.2959498 0.1258553,-0.4411676 -0.052555,-0.00413 -0.1009607,-0.027656 -0.1355361,-0.066376 -0.035958,-0.038728 -0.055319,-0.089895 -0.055319,-0.1410688 -0.00692,-0.026282 -0.00969,-0.052556 -0.00969,-0.080214 -0.00134,-0.00412 0,-0.00828 0,-0.01245 v -0.019368 c 0.00134,-0.00412 0.00134,-0.0069 0.00134,-0.00968 0.023555,-0.2530335 0.067811,-0.501978 0.1300475,-0.748155 C 3.5975344,5.0892841 3.6971121,4.818212 3.8243499,4.5609694 3.8893513,4.4323651 3.9654175,4.3092762 4.0511649,4.1931024 4.1355289,4.0783118 4.2337235,3.9745853 4.3443654,3.8846884 4.3830899,3.8528772 4.4245803,3.8224555 4.4674542,3.7947918 4.1369164,3.7615924 3.8063745,3.7491456 3.4744489,3.7588324 3.9405269,3.4531847 4.4591607,3.2388157 5.0040705,3.125408 c 0.2378804,-0.048406 0.478526,-0.0733 0.7205548,-0.0733 0.00134,0 0.00134,0 0.00134,0 h 0.011067 c 0.2959667,0 0.5905502,0.044261 0.875453,0.130004 0.2378796,0.073298 0.4646951,0.1770266 0.6776805,0.305648 0.1728773,0.1064921 0.3346911,0.2268148 0.4854404,0.3609685 0.1051096,0.09266 0.2046872,0.1908563 0.3014991,0.2932003 0.020747,0.022128 0.040111,0.042879 0.06085,0.063618 0.1673496,0.038731 0.330546,0.098194 0.4826783,0.1756441 0.1535247,0.078836 0.2945929,0.178411 0.4190647,0.2959681 0.1147926,0.1078755 0.2116039,0.232348 0.2890533,0.3706496 0.1120226,0.2033049 0.1645774,0.4342688 0.1479816,0.6666167 -0.1659625,-0.013836 -0.3319255,-0.019365 -0.4978878,-0.019365 -0.230965,0 -0.4605463,0.01245 -0.6901279,0.038732 C 8.1656368,5.7669865 8.0453141,5.8153865 7.931906,5.8748616 7.851693,5.9177406 7.7797739,5.9716726 7.718921,6.0380575 7.673278,6.0864665 7.638707,6.1431665 7.6151939,6.205403 7.5930699,6.267633 7.5806219,6.3326415 7.5792389,6.3990272 v 0.022128 c 0.00134,0.070528 0.011067,0.1410677 0.029045,0.208836 0.020748,0.080214 0.047026,0.157665 0.081597,0.2323479 C 7.7659464,7.0282998 7.8599916,7.1859636 7.967867,7.3325648 8.1780955,7.6216143 8.4187416,7.8871536 8.6884305,8.1208846 8.0107613,8.7722869 7.1076484,9.1360212 6.1699597,9.1374048 5.3996164,9.1359894 4.6486361,8.8912271 4.0262763,8.4362129 c -0.00411,-0.00278 -0.00826,-0.00562 -0.012451,-0.00968 -0.00134,-0.00138 -0.00411,-0.00278 -0.00557,-0.00412 -0.022094,-0.016625 -0.045604,-0.029074 -0.071881,-0.038757 -0.026273,-0.00969 -0.053935,-0.016596 -0.082978,-0.023515 C 3.795315,8.3490696 3.7372273,8.3310942 3.6819067,8.307581 3.5823289,8.2619437 3.4965811,8.1886411 3.4357287,8.0959786 3.4329595,8.0295969 3.4246637,7.9632085 3.4149837,7.8982058 c -0.00692,-0.049786 -0.01383,-0.098194 -0.019363,-0.1479829 -0.00555,-0.037341 -0.00969,-0.076068 -0.011066,-0.114791 0,-0.00278 0,-0.00562 0,-0.00828 z m 1.0386491,0.5781029 c 0.017982,-0.044261 0.019366,-0.094045 0.00281,-0.1410685 -0.015223,-0.04564 -0.045649,-0.084364 -0.087134,-0.1106415 -0.041495,-0.024894 -0.091278,-0.034573 -0.1383024,-0.027665 -0.048407,0.0069 -0.09266,0.030432 -0.1244716,0.066378 -0.00134,0 -0.00281,0 -0.00411,-0.00138 0.080214,-0.1272378 0.1659624,-0.2489441 0.2586247,-0.367884 0.073299,0.076068 0.1217061,0.1728786 0.1396855,0.2766047 0.016599,0.1051093 0,0.2116029 -0.045644,0.3070307 0,0 -0.00134,0 -0.00134,-0.00138 z M 4.0719145,7.9908765 c -0.04426,-0.015219 -0.091277,-0.027665 -0.136919,-0.037343 -0.029045,-0.00562 -0.056707,-0.01383 -0.082977,-0.023514 -0.00557,-0.00278 -0.00969,-0.00562 -0.015217,-0.00968 -0.00281,-0.027662 -0.00692,-0.055321 -0.011067,-0.082973 -0.00692,-0.048411 -0.013833,-0.095429 -0.019365,-0.1438346 -0.00411,-0.023517 -0.00557,-0.04703 -0.00692,-0.070538 v -0.00138 c 0.00137,-0.214375 0.027664,-0.4287439 0.07745,-0.6389628 0.063617,-0.2683063 0.1507494,-0.5310803 0.2613916,-0.784174 0.023515,-0.04288 0.044256,-0.087122 0.064999,-0.1327693 0.00411,-0.00968 0.00826,-0.020748 0.013834,-0.030423 C 4.2558521,6.0020928 4.2918071,5.9675168 4.3277664,5.932941 4.3830844,5.87761 4.4370248,5.8222874 4.4909626,5.7655835 l 0.047026,-0.048406 c 0.065,-0.066401 0.076066,-0.168747 0.029044,-0.2489631 -0.04564,-0.080217 -0.1410687,-0.1203225 -0.2309645,-0.095428 -0.059472,0.015209 -0.1189402,0.033192 -0.177027,0.053933 -0.047026,0.017978 -0.089893,0.042882 -0.1286209,0.073298 -0.035961,0.027662 -0.070532,0.058082 -0.1037266,0.089895 -0.00969,0.00968 -0.019366,0.017978 -0.029044,0.027664 0.00969,-0.049789 0.022131,-0.099577 0.034577,-0.1493666 C 3.9930766,5.2192637 4.0815936,4.975852 4.195001,4.7462704 4.248937,4.6383962 4.3125583,4.5360525 4.384475,4.4406236 4.448091,4.3534996 4.5241606,4.2746613 4.6071418,4.2055104 c 0.077448,-0.063619 0.1631964,-0.113408 0.2558591,-0.1479837 0.095428,-0.035961 0.1963889,-0.053937 0.2987325,-0.053937 0.1051096,0 0.2102193,0.0166 0.3111799,0.048409 C 5.5420643,4.0036397 5.5835567,3.9248039 5.58494,3.8404389 5.5877,3.7560699 5.550365,3.6758578 5.4839792,3.6233028 5.4549362,3.5984108 5.4231272,3.5790458 5.3885512,3.5624508 5.3387622,3.5403268 5.2889732,3.5209618 5.2378019,3.5057478 c 0.1604304,-0.024892 0.3236266,-0.03873 0.4882066,-0.03873 h 0.011068 c 0,0 0,0 0,0 0.254476,0 0.5089517,0.038732 0.7537468,0.1120242 0.2046872,0.063618 0.3996932,0.1521322 0.5836353,0.2627748 0.150749,0.092659 0.2932004,0.1977711 0.4245872,0.315329 0.095428,0.085742 0.1880908,0.1756427 0.2766047,0.2696888 0.023514,0.026275 0.049791,0.051175 0.074683,0.077446 0.035961,0.038732 0.080213,0.069148 0.1286206,0.091276 0.1576644,0.030424 0.3097968,0.082982 0.4536314,0.154899 0.1175566,0.060848 0.2268154,0.1383025 0.3222441,0.2281986 0.08436,0.078827 0.1548979,0.1701119 0.2102193,0.2696891 0.00557,0.01107 0.011067,0.020748 0.016599,0.031812 -0.00133,0 -0.00133,0 -0.00283,0 -0.255859,0 -0.5117181,0.01521 -0.7661941,0.04564 C 8.0466782,5.3672819 7.887631,5.4281361 7.7368816,5.5083523 7.6165588,5.5719739 7.5072999,5.656335 7.4146374,5.7559125 c -0.082981,0.088512 -0.1466002,0.193623 -0.1894739,0.3070303 -0.037343,0.10511 -0.058085,0.2157524 -0.060849,0.3277776 0,0 0,0.00138 0,0.00138 v 0.024898 c 0,0.00138 0,0.00278 0,0.00562 0.00134,0.1051092 0.015218,0.2102192 0.041494,0.3125627 0.027666,0.102342 0.062235,0.2033025 0.1064967,0.3001134 0.088511,0.1908524 0.1963872,0.3734118 0.320859,0.5435231 C 7.7659417,7.7613718 7.9125419,7.9370155 8.0688235,8.1015944 7.517003,8.5040515 6.8517697,8.7211855 6.1699397,8.7225681 5.5503464,8.7211529 4.9445832,8.5427756 4.424567,8.2067013"
     fill-rule="evenodd"
     fill="url(#_lgradient_80)"
     id="path2"
     style="isolation:isolate;fill:url(#_lgradient_80);stroke-width:0.352771" />
  <path
     d="m 6.7220606,4.2694418 c 0,0 0.6081142,-0.2389862 0.6873616,0.4718875 -0.5996783,0.0621 -0.6873616,-0.4718875 -0.6873616,-0.4718875 z"
     fill-rule="evenodd"
     fill="url(#_lgradient_81)"
     id="path4"
     style="isolation:isolate;fill:url(#_lgradient_81);stroke-width:0.352771" />
  <path
     d="m 3.9183989,8.8509778 c 0,0 1.1405782,-3.2220259 4.4136368,-3.3455299 0,0 -2.8174914,-0.4561206 -4.6934218,2.5153019 -0.010376,0.420439 0.279785,0.830228 0.279785,0.830228 z"
     fill-rule="evenodd"
     fill="url(#_lgradient_82)"
     id="path6"
     style="isolation:isolate;fill:url(#_lgradient_82);stroke-width:0.352771" />
  <path
     d="m 4.2735592,3.5694948 c 0,0 0.8163974,0.047443 1.1079384,0.2479751 C 5.5030651,3.7924354 5.6065154,3.7090418 5.6240795,3.5956332 5.5196611,3.5523488 4.563717,3.4744808 4.2735592,3.5694928 Z"
     fill-rule="evenodd"
     fill="url(#_lgradient_83)"
     id="path8"
     style="isolation:isolate;fill:url(#_lgradient_83);stroke-width:0.352771" />
  <path
     d="m 3.6021019,6.2965372 c 0,0 1.0566287,-1.2275706 3.1199587,-1.3743098 0,0 -2.8433544,0.1269619 -3.0791595,0.9201243 -0.065556,0.1907198 -0.040802,0.4541855 -0.040799,0.4541855 z"
     fill-rule="evenodd"
     fill="url(#_lgradient_84)"
     id="path10"
     style="isolation:isolate;fill:url(#_lgradient_84);stroke-width:0.352771" />
</svg>
