<?xml version="1.0" encoding="UTF-8" standalone="no"?>
<svg
   width="45.999886"
   height="45.999989"
   version="1.1"
   viewBox="0 0 12.170564 12.170591"
   id="svg12"
   sodipodi:docname="freemind.svg"
   inkscape:version="1.3.2 (091e20ef0f, 2023-11-25)"
   xmlns:inkscape="http://www.inkscape.org/namespaces/inkscape"
   xmlns:sodipodi="http://sodipodi.sourceforge.net/DTD/sodipodi-0.dtd"
   xmlns:xlink="http://www.w3.org/1999/xlink"
   xmlns="http://www.w3.org/2000/svg"
   xmlns:svg="http://www.w3.org/2000/svg">
  <defs
     id="defs16">
    <linearGradient
       id="linearGradient7"
       inkscape:collect="always">
      <stop
         style="stop-color:#ff9955;stop-opacity:0.46059114;"
         offset="0"
         id="stop6" />
      <stop
         style="stop-color:#ffb583;stop-opacity:0.83137256;"
         offset="1"
         id="stop7" />
    </linearGradient>
    <linearGradient
       id="c"
       y1="523.79999"
       x1="403.57001"
       y2="536.79999"
       x2="416.57001"
       gradientUnits="userSpaceOnUse"
       gradientTransform="matrix(0.34526714,0,0,0.34526706,-134.80427,-174.63325)">
      <stop
         stop-color="#292c2f"
         id="stop1568" />
      <stop
         offset="1"
         stop-opacity="0"
         id="stop1570" />
    </linearGradient>
    <linearGradient
       xlink:href="#b-2"
       id="linearGradient4189"
       x1="14.369"
       y1="22.521999"
       x2="26.521999"
       y2="22.521999"
       gradientUnits="userSpaceOnUse" />
    <linearGradient
       x1="36"
       gradientUnits="userSpaceOnUse"
       x2="14"
       y2="12"
       y1="44"
       id="b-2">
      <stop
         style="stop-color:#bfc9c9;stop-opacity:1"
         stop-color="#536161"
         id="stop1579" />
      <stop
         style="stop-color:#fbfbfb;stop-opacity:1"
         stop-color="#f4f5f5"
         offset="1"
         id="stop1581" />
    </linearGradient>
    <linearGradient
       xlink:href="#b-2"
       id="linearGradient4428"
       gradientUnits="userSpaceOnUse"
       x1="31.586"
       y1="36.345001"
       x2="1.2029999"
       y2="6.723" />
    <linearGradient
       xlink:href="#b-2"
       id="linearGradient4189-3"
       x1="14.369"
       y1="22.521999"
       x2="26.521999"
       y2="22.521999"
       gradientUnits="userSpaceOnUse"
       gradientTransform="translate(20.841982,61.553822)" />
    <linearGradient
       xlink:href="#b-2"
       id="linearGradient4428-5"
       gradientUnits="userSpaceOnUse"
       x1="31.586"
       y1="36.345001"
       x2="1.2029999"
       y2="6.723"
       gradientTransform="translate(20.841982,61.553822)" />
    <linearGradient
       xlink:href="#b-2"
       id="linearGradient4189-3-3"
       x1="14.369"
       y1="22.521999"
       x2="26.521999"
       y2="22.521999"
       gradientUnits="userSpaceOnUse"
       gradientTransform="translate(4.376802,4.4211693)" />
    <linearGradient
       xlink:href="#b-2"
       id="linearGradient4428-5-5"
       gradientUnits="userSpaceOnUse"
       x1="31.586"
       y1="36.345001"
       x2="1.2029999"
       y2="6.723"
       gradientTransform="translate(4.376802,4.4211693)" />
    <linearGradient
       inkscape:collect="always"
       xlink:href="#linearGradient14"
       id="linearGradient15"
       x1="-9.6850061"
       y1="45.161198"
       x2="11.98815"
       y2="21.735205"
       gradientUnits="userSpaceOnUse"
       gradientTransform="scale(0.26457813)" />
    <linearGradient
       id="linearGradient14"
       inkscape:collect="always">
      <stop
         style="stop-color:#ff9900;stop-opacity:0.34509805;"
         offset="0"
         id="stop12" />
      <stop
         style="stop-color:#ffb685;stop-opacity:0.81568629;"
         offset="1"
         id="stop13" />
    </linearGradient>
    <filter
       id="filter2917-3"
       x="-0.96181147"
       y="-0.66745996"
       width="2.9236229"
       height="2.3349199"
       color-interpolation-filters="sRGB">
      <feGaussianBlur
         stdDeviation="0.2871969"
         id="feGaussianBlur732-5" />
    </filter>
    <filter
       id="filter1"
       x="-0.96181148"
       y="-0.66745996"
       width="2.9236228"
       height="2.3349199"
       color-interpolation-filters="sRGB">
      <feGaussianBlur
         stdDeviation="0.2871969"
         id="feGaussianBlur1" />
    </filter>
    <filter
       id="filter2"
       x="-0.96181148"
       y="-0.66745996"
       width="2.9236228"
       height="2.3349199"
       color-interpolation-filters="sRGB">
      <feGaussianBlur
         stdDeviation="0.2871969"
         id="feGaussianBlur2" />
    </filter>
    <linearGradient
       id="_lgradient_20"
       x1="-0.29991642"
       y1="-0.26140401"
       x2="0.96725708"
       y2="0.86616999"
       gradientTransform="matrix(15.137397,0,0,16.82717,0.89780187,0.05291536)"
       gradientUnits="userSpaceOnUse">
      <stop
         offset="34.94098066785295%"
         stop-opacity="1"
         style="stop-color:rgb(178,229,107)"
         id="stop1" />
      <stop
         offset="53.84922244785295%"
         stop-opacity="1"
         style="stop-color:rgb(194,233,100)"
         id="stop2" />
      <stop
         offset="90.40515655585295%"
         stop-opacity="1"
         style="stop-color:rgb(236,244,81)"
         id="stop3" />
      <stop
         offset="100%"
         stop-opacity="1"
         style="stop-color:rgb(250,247,75)"
         id="stop4" />
    </linearGradient>
    <linearGradient
       inkscape:collect="always"
       xlink:href="#linearGradient7"
       id="linearGradient6"
       x1="-12.120221"
       y1="6.1170783"
       x2="0.0093933269"
       y2="6.1170783"
       gradientUnits="userSpaceOnUse" />
    <linearGradient
       id="b-2-5"
       y1="35.825909"
       y2="-4.1468086"
       gradientUnits="userSpaceOnUse"
       x2="1.525889"
       gradientTransform="matrix(0.18808708,0,0,0.18779368,2.9505234,2.8105876)"
       x1="0.19073613">
      <stop
         stop-color="#d35400"
         id="stop7-9-6"
         offset="0"
         style="stop-color:#ff9e5e;stop-opacity:1;" />
      <stop
         offset="1"
         stop-color="#f67400"
         stop-opacity=".941"
         id="stop9-1-2" />
    </linearGradient>
    <linearGradient
       inkscape:collect="always"
       xlink:href="#linearGradient4308"
       id="linearGradient1157"
       gradientUnits="userSpaceOnUse"
       gradientTransform="matrix(0.20431211,0,0,0.20431211,2.572385,2.6031451)"
       x1="24.065001"
       y1="41.806"
       x2="24.065001"
       y2="5.4660001" />
    <linearGradient
       id="linearGradient4308">
   <stop
   style="stop-color:#884d2c;stop-opacity:1"
   offset="0"
   id="stop363" />

   <stop
   style="stop-color:#ffc169;stop-opacity:1"
   offset="1"
   id="stop365" />

  </linearGradient>
    <linearGradient
       inkscape:collect="always"
       xlink:href="#linearGradient4513"
       id="linearGradient1159"
       gradientUnits="userSpaceOnUse"
       gradientTransform="matrix(0.20431211,0,0,0.20431211,2.572385,2.6031451)"
       x1="32.742001"
       y1="36.405998"
       x2="37.389"
       y2="41.053001" />
    <linearGradient
       id="linearGradient4513">
   <stop
   style="stop-color:#000000;stop-opacity:1;"
   offset="0"
   id="stop353" />

   <stop
   style="stop-color:#000000;stop-opacity:0;"
   offset="1"
   id="stop355" />

  </linearGradient>
    <linearGradient
       inkscape:collect="always"
       xlink:href="#linearGradient4513"
       id="linearGradient1161"
       gradientUnits="userSpaceOnUse"
       gradientTransform="matrix(0.20431211,0,0,0.20431211,2.572385,2.6031451)"
       x1="36.580002"
       y1="19.541"
       x2="41.485001"
       y2="24.445999" />
    <linearGradient
       inkscape:collect="always"
       xlink:href="#linearGradient4513"
       id="linearGradient1163"
       gradientUnits="userSpaceOnUse"
       gradientTransform="matrix(0.20431211,0,0,0.20431211,2.572385,2.6031451)"
       x1="8.3710003"
       y1="9.3699999"
       x2="21.722"
       y2="22.721001" />
    <linearGradient
       inkscape:collect="always"
       xlink:href="#linearGradient4513"
       id="linearGradient1165"
       gradientUnits="userSpaceOnUse"
       gradientTransform="matrix(0.20431211,0,0,0.20431211,2.572385,2.6031451)"
       x1="12.658"
       y1="36.549"
       x2="17.235001"
       y2="41.125999" />
    <linearGradient
       inkscape:collect="always"
       xlink:href="#linearGradient4513"
       id="linearGradient1167"
       gradientUnits="userSpaceOnUse"
       gradientTransform="matrix(0.20431211,0,0,0.20431211,2.572385,2.6031451)"
       x1="8.6639996"
       y1="19.421"
       x2="21.622999"
       y2="32.380001" />
    <linearGradient
       inkscape:collect="always"
       xlink:href="#linearGradient4513"
       id="linearGradient1169"
       gradientUnits="userSpaceOnUse"
       gradientTransform="matrix(0.20431211,0,0,0.20431211,2.572385,2.6031451)"
       x1="10.576"
       y1="30.594999"
       x2="19.143999"
       y2="39.162998" />
    <linearGradient
       inkscape:collect="always"
       xlink:href="#linearGradient4513"
       id="linearGradient1171"
       gradientUnits="userSpaceOnUse"
       gradientTransform="matrix(0.20431211,0,0,0.20431211,2.572385,2.6031451)"
       x1="11.377"
       y1="13.89"
       x2="21.886"
       y2="24.399" />
    <linearGradient
       inkscape:collect="always"
       xlink:href="#linearGradient4513"
       id="linearGradient1173"
       gradientUnits="userSpaceOnUse"
       gradientTransform="matrix(0.20431211,0,0,0.20431211,2.572385,2.6031451)"
       x1="34.643002"
       y1="14.02"
       x2="42.643002"
       y2="22.021" />
    <linearGradient
       inkscape:collect="always"
       xlink:href="#linearGradient4513"
       id="linearGradient1175"
       gradientUnits="userSpaceOnUse"
       gradientTransform="matrix(0.20431211,0,0,0.20431211,2.572385,2.6031451)"
       x1="38.245998"
       y1="9.4200001"
       x2="41.224998"
       y2="12.399" />
    <linearGradient
       inkscape:collect="always"
       xlink:href="#linearGradient4513"
       id="linearGradient1177"
       gradientUnits="userSpaceOnUse"
       gradientTransform="matrix(0.20431211,0,0,0.20431211,2.572385,2.6031451)"
       x1="35.751999"
       y1="30.354"
       x2="40.571999"
       y2="35.174" />
    <linearGradient
       id="linearGradient4325">
   <stop
   offset="0"
   style="stop-color:#2a2c2f;stop-opacity:1"
   id="stop358" />

   <stop
   offset="1"
   style="stop-color:#424649;stop-opacity:1"
   id="stop360" />

  </linearGradient>
  </defs>
  <sodipodi:namedview
     id="namedview14"
     pagecolor="#000000"
     bordercolor="#666666"
     borderopacity="1.0"
     inkscape:showpageshadow="2"
     inkscape:pageopacity="0.0"
     inkscape:pagecheckerboard="0"
     inkscape:deskcolor="#d1d1d1"
     showgrid="false"
     inkscape:zoom="7.375"
     inkscape:cx="13.288136"
     inkscape:cy="48.271186"
     inkscape:window-width="1920"
     inkscape:window-height="996"
     inkscape:window-x="0"
     inkscape:window-y="0"
     inkscape:window-maximized="1"
     inkscape:current-layer="svg12">
    <inkscape:grid
       type="xygrid"
       id="grid244"
       originx="9.7893915"
       originy="-31.749373"
       spacingy="1"
       spacingx="1"
       units="px"
       visible="false" />
  </sodipodi:namedview>
  <rect
     x="-12.025727"
     y="0.1490714"
     width="11.940627"
     height="11.936014"
     rx="1.6121091"
     stroke="url(#paint4_linear_77:23)"
     shape-rendering="crispEdges"
     id="rect5-6-7-3"
     ry="1.7735944"
     transform="matrix(0.00523883,-0.99998628,0.999988,0.00489859,0,0)"
     style="fill:#ffe0cc;fill-opacity:0.09803922;stroke:url(#linearGradient6);stroke-width:0.188987;stroke-opacity:1" />
  <rect
     x="-3.7266586"
     y="4.6446943"
     width="7.912631"
     height="7.912384"
     rx="1.612043"
     shape-rendering="crispEdges"
     id="rect5-6-6-6-6"
     style="fill:#ffc299;fill-opacity:0.10196079;stroke:url(#linearGradient15);stroke-width:0.188987;stroke-opacity:1"
     ry="1.7735215"
     transform="matrix(0.72612649,-0.68756114,0.6879775,0.72573202,0,0)" />
  <path
     style="fill:url(#linearGradient1157);fill-opacity:1;stroke-width:0.204312"
     d="M 2.807223,3.3498982 C 2.860218,3.9333471 3.2852747,4.0683914 3.3083871,4.6916938 3.3206961,4.9549321 2.9742119,5.5599615 2.9777463,5.9100159 2.9798163,6.0759085 3.0603453,6.2316631 3.1969079,6.3278073 3.4556832,6.5098847 3.99866,6.583598 4.722812,6.583598 h 0.043257 c -0.6115766,0 -1.070211,0.1623395 -1.2887445,0.3078971 C 3.3619889,6.9683527 3.2937599,7.0929833 3.29227,7.2256015 3.3190324,8.113411 3.4423982,9.1429622 4.4597609,9.1705587 5.630576,9.1574032 5.8701493,7.336507 5.8792427,6.583598 5.8646909,6.0765289 4.5857575,3.3498982 2.807223,3.3498982 Z m 6.4673987,0 c -1.7785319,0 -3.0574187,2.7266307 -3.0720166,3.2336998 0.0091,0.752909 0.2486669,2.5737974 1.4194797,2.5869607 C 8.6394618,9.1429615 8.7628061,8.113411 8.7895602,7.2256015 8.7876761,7.0929833 8.7198587,6.9683545 8.6045169,6.8914951 8.3859793,6.7459375 7.9273591,6.583598 7.3157706,6.583598 h 0.043246 c 0.724161,0 1.2671411,-0.07372 1.5259084,-0.2557907 C 9.021511,6.2316631 9.1023476,6.0759085 9.1040955,5.9100159 9.1076171,5.5599615 8.7611967,4.9549321 8.7734663,4.6916938 8.7965709,4.0683914 9.2216421,3.9333471 9.2746217,3.3498982 Z"
     id="path382-6-1" />
  <path
     style="fill:none;stroke:#808b91;stroke-width:0.204312px;stroke-linecap:butt;stroke-linejoin:miter;stroke-opacity:1"
     d="m 6.2834414,5.4518033 c 0,-0.4850555 0.103152,-1.5448583 0.7275866,-1.5360093"
     id="path384-2-2" />
  <path
     d="m 5.7995329,5.4518033 c 0,-0.4850555 -0.1031333,-1.5448583 -0.7275741,-1.5360093"
     style="fill:none;stroke:#7c878d;stroke-width:0.204312px;stroke-linecap:butt;stroke-linejoin:miter;stroke-opacity:1"
     id="path386-9-7" />
  <path
     style="opacity:0.2;fill:url(#linearGradient1159);fill-opacity:1;stroke:none;stroke-width:0.408627;stroke-linecap:round;stroke-linejoin:round;stroke-miterlimit:4;stroke-dasharray:none;stroke-opacity:1"
     d="M 7.8870352,8.295817 7.4297762,8.7530848 7.8251453,9.1484521 C 8.0791159,9.1016256 8.2653131,8.9803607 8.4024069,8.8111895 Z"
     id="path390-1-0" />
  <path
     style="opacity:0.2;fill:url(#linearGradient1161);fill-opacity:1;stroke:none;stroke-width:0.408627;stroke-linecap:round;stroke-linejoin:round;stroke-miterlimit:4;stroke-dasharray:none;stroke-opacity:1"
     d="M 8.532204,5.5443294 8.0749304,6.0012798 8.5445049,6.4708605 C 8.6845875,6.433437 8.8010635,6.3868206 8.8849381,6.3278073 8.9724053,6.2662395 9.0337471,6.1789574 9.0693574,6.0814899 Z"
     id="path392-2-9" />
  <path
     style="opacity:0.2;fill:url(#linearGradient1163);fill-opacity:1;stroke:none;stroke-width:0.408627;stroke-linecap:round;stroke-linejoin:round;stroke-miterlimit:4;stroke-dasharray:none;stroke-opacity:1"
     d="M 3.7293292,3.8807431 3.500706,4.1090586 5.8631292,6.4714928 C 5.8272352,6.3029819 5.7275717,6.0359741 5.5770216,5.7284352 Z"
     id="path394-7-3" />
  <path
     style="opacity:0.2;fill:url(#linearGradient1165);fill-opacity:1;stroke:none;stroke-width:0.408627;stroke-linecap:round;stroke-linejoin:round;stroke-miterlimit:4;stroke-dasharray:none;stroke-opacity:1"
     d="M 4.6511253,8.2920281 4.1938516,8.749293 4.602809,9.1582426 C 4.8424042,9.1229475 5.0380376,9.0062554 5.1983854,8.8392942 Z"
     id="path396-0-6" />
  <path
     style="opacity:0.2;fill:url(#linearGradient1167);fill-opacity:1;stroke:none;stroke-width:0.408627;stroke-linecap:round;stroke-linejoin:round;stroke-miterlimit:4;stroke-dasharray:none;stroke-opacity:1"
     d="M 4.0053364,5.5452774 3.5480689,6.0025422 4.1057582,6.56023 c 0.186951,0.015283 0.3920277,0.02338 0.6170538,0.02338 h 0.043257 c -0.21515,0 -0.4100906,0.021 -0.5835828,0.05336 l 1.446642,1.4466379 C 5.7131818,7.843409 5.7714699,7.5902148 5.8100878,7.3500245 Z"
     id="path398-9-0" />
  <path
     style="opacity:0.2;fill:url(#linearGradient1169);fill-opacity:1;stroke:none;stroke-width:0.408627;stroke-linecap:round;stroke-linejoin:round;stroke-miterlimit:4;stroke-dasharray:none;stroke-opacity:1"
     d="M 4.1865927,7.2963383 3.8439629,7.6389717 5.1203816,8.9153999 C 5.23899,8.811788 5.3400543,8.6820016 5.4257603,8.5355034 Z"
     id="path400-3-6" />
  <path
     style="opacity:0.2;fill:url(#linearGradient1171);fill-opacity:1;stroke:none;stroke-width:0.408627;stroke-linecap:round;stroke-linejoin:round;stroke-miterlimit:4;stroke-dasharray:none;stroke-opacity:1"
     d="M 4.3425968,4.6436927 3.9999656,4.9863268 5.8666132,6.8529676 C 5.8732331,6.7558809 5.878317,6.6611603 5.879197,6.583598 5.876111,6.4758604 5.8128983,6.2648157 5.7029887,6.0041217 Z"
     id="path402-6-2" />
  <path
     style="opacity:0.2;fill:url(#linearGradient1173);fill-opacity:1;stroke:none;stroke-width:0.408627;stroke-linecap:round;stroke-linejoin:round;stroke-miterlimit:4;stroke-dasharray:none;stroke-opacity:1"
     d="M 8.0673487,4.6503244 7.7247325,4.9929585 8.9768273,6.2450695 C 9.0570905,6.1529761 9.1027972,6.0342862 9.1040951,5.9100159 9.1051703,5.8319806 9.0866534,5.7402542 9.0605142,5.6434881 Z"
     id="path404-0-6" />
  <path
     style="opacity:0.2;fill:url(#linearGradient1175);fill-opacity:1;stroke:none;stroke-width:0.408627;stroke-linecap:round;stroke-linejoin:round;stroke-miterlimit:4;stroke-dasharray:none;stroke-opacity:1"
     d="M 8.572939,3.874742 8.3442986,4.1033746 8.7879864,4.5470609 C 8.8088208,4.411886 8.8508085,4.3025167 8.901048,4.2031647 Z"
     id="path406-6-1" />
  <circle
     r="0.16168496"
     style="fill:#ffffff;fill-opacity:1;stroke:none;stroke-width:0.408627;stroke-linecap:round;stroke-linejoin:round;stroke-miterlimit:4;stroke-dasharray:none;stroke-opacity:1"
     cx="3.6156428"
     cy="3.9966366"
     id="circle408-2-8" />
  <circle
     cy="4.8252745"
     cx="4.1815414"
     style="fill:#ffffff;fill-opacity:1;stroke:none;stroke-width:0.408627;stroke-linecap:round;stroke-linejoin:round;stroke-miterlimit:4;stroke-dasharray:none;stroke-opacity:1"
     r="0.24252757"
     id="circle410-6-7" />
  <circle
     style="fill:#ffffff;fill-opacity:1;stroke:none;stroke-width:0.408627;stroke-linecap:round;stroke-linejoin:round;stroke-miterlimit:4;stroke-dasharray:none;stroke-opacity:1"
     cx="3.7773321"
     cy="5.7751737"
     r="0.32336992"
     id="circle412-1-9" />
  <circle
     r="0.24252757"
     style="fill:#ffffff;fill-opacity:1;stroke:none;stroke-width:0.408627;stroke-linecap:round;stroke-linejoin:round;stroke-miterlimit:4;stroke-dasharray:none;stroke-opacity:1"
     cx="4.0198593"
     cy="7.4728646"
     id="circle414-8-2" />
  <circle
     r="0.32336992"
     cy="8.5238218"
     cx="4.4240713"
     style="fill:#ffffff;fill-opacity:1;stroke:none;stroke-width:0.408627;stroke-linecap:round;stroke-linejoin:round;stroke-miterlimit:4;stroke-dasharray:none;stroke-opacity:1"
     id="circle416-7-0" />
  <circle
     r="0.32336992"
     cy="5.7751737"
     cx="-8.3045177"
     style="fill:#ffffff;fill-opacity:1;stroke:none;stroke-width:0.408627;stroke-linecap:round;stroke-linejoin:round;stroke-miterlimit:4;stroke-dasharray:none;stroke-opacity:1"
     transform="scale(-1,1)"
     id="circle418-9-2" />
  <circle
     r="0.24252757"
     style="fill:#ffffff;fill-opacity:1;stroke:none;stroke-width:0.408627;stroke-linecap:round;stroke-linejoin:round;stroke-miterlimit:4;stroke-dasharray:none;stroke-opacity:1"
     cx="-7.9003029"
     cy="4.8252745"
     transform="scale(-1,1)"
     id="circle420-2-3" />
  <circle
     cy="3.9966366"
     cx="-8.4662161"
     style="fill:#ffffff;fill-opacity:1;stroke:none;stroke-width:0.408627;stroke-linecap:round;stroke-linejoin:round;stroke-miterlimit:4;stroke-dasharray:none;stroke-opacity:1"
     r="0.16168496"
     transform="scale(-1,1)"
     id="circle422-0-7" />
  <path
     style="opacity:0.2;fill:url(#linearGradient1177);fill-opacity:1;stroke:none;stroke-width:0.408627;stroke-linecap:round;stroke-linejoin:round;stroke-miterlimit:4;stroke-dasharray:none;stroke-opacity:1"
     d="M 8.2344027,7.3017069 7.8917815,7.6443405 8.6300881,8.3826599 c 0.059054,-0.175357 0.094061,-0.3690245 0.1178,-0.5674764 z"
     id="path424-2-5" />
  <circle
     cy="7.4728646"
     cx="-8.0619955"
     style="fill:#ffffff;fill-opacity:1;stroke:none;stroke-width:0.408627;stroke-linecap:round;stroke-linejoin:round;stroke-miterlimit:4;stroke-dasharray:none;stroke-opacity:1"
     r="0.24252757"
     transform="scale(-1,1)"
     id="circle426-3-9" />
  <circle
     style="fill:#ffffff;fill-opacity:1;stroke:none;stroke-width:0.408627;stroke-linecap:round;stroke-linejoin:round;stroke-miterlimit:4;stroke-dasharray:none;stroke-opacity:1"
     cx="-7.6577673"
     cy="8.5238218"
     r="0.32336992"
     transform="scale(-1,1)"
     id="circle428-7-2" />
  <path
     style="opacity:0.15;fill:#000000;fill-opacity:1;stroke-width:0.204312"
     d="m 2.807223,3.3498982 c 0.050376,0.5547315 0.4363927,0.7049235 0.4942163,1.254005 0.0033,-0.025588 0.00775,-0.052495 0.00702,-0.073892 C 3.2876221,3.9696106 2.9427879,3.8029288 2.8347056,3.3511589 c -0.0092,-1.468e-4 -0.018164,-0.00114 -0.027457,-0.00114 z m 6.4673987,0 c -0.00924,0 -0.018186,0.0011 -0.027465,0.0011 -0.1080795,0.4518042 -0.4529152,0.6184847 -0.4736849,1.1788824 -0.0011,0.0214 0.00341,0.048297 0.00704,0.073893 0.057758,-0.549005 0.4437776,-0.6991969 0.4941588,-1.2539291 z M 2.9865985,5.8168571 c -0.00392,0.031786 -0.00914,0.064476 -0.00884,0.093159 0.00207,0.1658926 0.082605,0.3216471 0.2191615,0.4177913 0.1493579,0.10509 0.3957324,0.1732897 0.7146377,0.2128428 C 4.1410629,6.4720662 4.4291635,6.4219141 4.7660914,6.4219141 H 4.722832 c -0.7241505,0 -1.267131,-0.07372 -1.525905,-0.2557909 C 3.0795492,6.0834905 3.0068239,5.9561475 2.9866159,5.8168576 Z m 6.1086614,0 C 9.0750344,5.956147 9.0023192,6.0834899 8.8849381,6.1661225 8.6261705,6.3481991 8.0831903,6.4219133 7.3590294,6.4219133 h -0.043253 c 0.3369194,0 0.6250205,0.050146 0.8545381,0.1187368 0.3188831,-0.03955 0.5652705,-0.1077528 0.7146254,-0.2128428 0.1365724,-0.096144 0.2174091,-0.2518988 0.219157,-0.4177914 4.189e-4,-0.028694 -0.00483,-0.061378 -0.00879,-0.093158 z M 5.8735646,6.5438082 C 5.8429473,7.3505908 5.5759932,8.9963229 4.4597627,9.0088729 3.4875152,8.9824984 3.3332143,8.0418961 3.2979636,7.1836011 c -0.00207,0.014078 -0.0055,0.027672 -0.0055,0.041992 0.026747,0.8878093 0.1501215,1.9173631 1.1674899,1.9449604 1.1708066,-0.01315 1.4103805,-1.8340552 1.4194633,-2.5869642 -4.188e-4,-0.010506 -0.00424,-0.027405 -0.00551,-0.039782 z m 0.3347294,0 c -0.0018,0.012381 -0.00543,0.029296 -0.00551,0.039782 0.00904,0.7529096 0.2486434,2.5738014 1.4194602,2.5869645 C 8.6395753,9.1429974 8.7629255,8.1134069 8.7896777,7.2255978 8.789525,7.2112782 8.785749,7.1976834 8.7840893,7.1836054 8.748707,8.0418988 8.5944149,8.9825037 7.6221773,9.0088759 6.5059223,8.9963246 6.2389766,7.3505933 6.2083762,6.5438108 Z"
     id="path430-5-2" />
  <path
     style="fill:#919191;fill-opacity:1;stroke-width:0.204312"
     d="m 6.0409237,4.9667478 c -0.2678853,0 -0.4850519,0.2171664 -0.4850519,0.4850555 0,0.3233698 0.3233709,0.3233698 0.1616873,0.6467391 V 6.583598 7.3920232 c 0,0.1791471 0.1442194,0.3233703 0.3233646,0.3233703 0.1791436,0 0.3233712,-0.1442232 0.3233712,-0.3233703 V 6.583598 6.0985424 C 6.2026051,5.7751731 6.5259778,5.7751731 6.5259778,5.4518033 c 0,-0.2678891 -0.2171577,-0.4850555 -0.4850541,-0.4850555 z"
     id="path432-9-8" />
</svg>
