<?xml version="1.0" encoding="UTF-8" standalone="no"?>
<svg
   width="45.999886"
   height="45.999989"
   version="1.1"
   viewBox="0 0 12.170564 12.170591"
   id="svg12"
   sodipodi:docname="homebank.svg"
   inkscape:version="1.3.2 (091e20ef0f, 2023-11-25)"
   xmlns:inkscape="http://www.inkscape.org/namespaces/inkscape"
   xmlns:sodipodi="http://sodipodi.sourceforge.net/DTD/sodipodi-0.dtd"
   xmlns:xlink="http://www.w3.org/1999/xlink"
   xmlns="http://www.w3.org/2000/svg"
   xmlns:svg="http://www.w3.org/2000/svg">
  <defs
     id="defs16">
    <linearGradient
       id="c"
       y1="523.79999"
       x1="403.57001"
       y2="536.79999"
       x2="416.57001"
       gradientUnits="userSpaceOnUse"
       gradientTransform="matrix(0.34526714,0,0,0.34526706,-134.80427,-174.63325)">
      <stop
         stop-color="#292c2f"
         id="stop1568" />
      <stop
         offset="1"
         stop-opacity="0"
         id="stop1570" />
    </linearGradient>
    <linearGradient
       xlink:href="#b-2"
       id="linearGradient4189"
       x1="14.369"
       y1="22.521999"
       x2="26.521999"
       y2="22.521999"
       gradientUnits="userSpaceOnUse" />
    <linearGradient
       x1="36"
       gradientUnits="userSpaceOnUse"
       x2="14"
       y2="12"
       y1="44"
       id="b-2">
      <stop
         style="stop-color:#bfc9c9;stop-opacity:1"
         stop-color="#536161"
         id="stop1579" />
      <stop
         style="stop-color:#fbfbfb;stop-opacity:1"
         stop-color="#f4f5f5"
         offset="1"
         id="stop1581" />
    </linearGradient>
    <linearGradient
       xlink:href="#b-2"
       id="linearGradient4428"
       gradientUnits="userSpaceOnUse"
       x1="31.586"
       y1="36.345001"
       x2="1.2029999"
       y2="6.723" />
    <linearGradient
       xlink:href="#b-2"
       id="linearGradient4189-3"
       x1="14.369"
       y1="22.521999"
       x2="26.521999"
       y2="22.521999"
       gradientUnits="userSpaceOnUse"
       gradientTransform="translate(20.841982,61.553822)" />
    <linearGradient
       xlink:href="#b-2"
       id="linearGradient4428-5"
       gradientUnits="userSpaceOnUse"
       x1="31.586"
       y1="36.345001"
       x2="1.2029999"
       y2="6.723"
       gradientTransform="translate(20.841982,61.553822)" />
    <linearGradient
       xlink:href="#b-2"
       id="linearGradient4189-3-3"
       x1="14.369"
       y1="22.521999"
       x2="26.521999"
       y2="22.521999"
       gradientUnits="userSpaceOnUse"
       gradientTransform="translate(4.376802,4.4211693)" />
    <linearGradient
       xlink:href="#b-2"
       id="linearGradient4428-5-5"
       gradientUnits="userSpaceOnUse"
       x1="31.586"
       y1="36.345001"
       x2="1.2029999"
       y2="6.723"
       gradientTransform="translate(4.376802,4.4211693)" />
    <linearGradient
       inkscape:collect="always"
       xlink:href="#linearGradient11"
       id="linearGradient13"
       x1="-43.819283"
       y1="23.120178"
       x2="-1.9547797"
       y2="23.120178"
       gradientUnits="userSpaceOnUse"
       gradientTransform="scale(0.26457813)" />
    <linearGradient
       id="linearGradient11"
       inkscape:collect="always">
      <stop
         style="stop-color:#37c871;stop-opacity:1"
         offset="0"
         id="stop4-3" />
      <stop
         style="stop-color:#00ccff;stop-opacity:1"
         offset="1"
         id="stop11" />
    </linearGradient>
    <linearGradient
       inkscape:collect="always"
       xlink:href="#linearGradient14"
       id="linearGradient15"
       x1="-9.6850061"
       y1="45.161198"
       x2="11.98815"
       y2="21.735205"
       gradientUnits="userSpaceOnUse"
       gradientTransform="scale(0.26457813)" />
    <linearGradient
       id="linearGradient14"
       inkscape:collect="always">
      <stop
         style="stop-color:#37c871;stop-opacity:1"
         offset="0"
         id="stop12" />
      <stop
         style="stop-color:#00ccff;stop-opacity:1"
         offset="1"
         id="stop13" />
    </linearGradient>
    <filter
       id="filter2917-3"
       x="-0.96181147"
       y="-0.66745996"
       width="2.9236229"
       height="2.3349199"
       color-interpolation-filters="sRGB">
      <feGaussianBlur
         stdDeviation="0.2871969"
         id="feGaussianBlur732-5" />
    </filter>
    <filter
       id="filter1"
       x="-0.96181148"
       y="-0.66745996"
       width="2.9236228"
       height="2.3349199"
       color-interpolation-filters="sRGB">
      <feGaussianBlur
         stdDeviation="0.2871969"
         id="feGaussianBlur1" />
    </filter>
    <filter
       id="filter2"
       x="-0.96181148"
       y="-0.66745996"
       width="2.9236228"
       height="2.3349199"
       color-interpolation-filters="sRGB">
      <feGaussianBlur
         stdDeviation="0.2871969"
         id="feGaussianBlur2" />
    </filter>
  </defs>
  <sodipodi:namedview
     id="namedview14"
     pagecolor="#000000"
     bordercolor="#666666"
     borderopacity="1.0"
     inkscape:showpageshadow="2"
     inkscape:pageopacity="0.0"
     inkscape:pagecheckerboard="0"
     inkscape:deskcolor="#d1d1d1"
     showgrid="false"
     inkscape:zoom="5.2149125"
     inkscape:cx="23.20269"
     inkscape:cy="53.692176"
     inkscape:window-width="1920"
     inkscape:window-height="996"
     inkscape:window-x="0"
     inkscape:window-y="0"
     inkscape:window-maximized="1"
     inkscape:current-layer="svg12">
    <inkscape:grid
       type="xygrid"
       id="grid244"
       originx="9.7893915"
       originy="-31.749373"
       spacingy="1"
       spacingx="1"
       units="px"
       visible="false" />
  </sodipodi:namedview>
  <rect
     x="-12.025727"
     y="0.1490714"
     width="11.940627"
     height="11.936014"
     rx="1.6121091"
     stroke="url(#paint4_linear_77:23)"
     shape-rendering="crispEdges"
     id="rect5-6-7-3"
     ry="1.7735944"
     transform="matrix(0.00523883,-0.99998628,0.999988,0.00489859,0,0)"
     style="fill:#80b3ff;fill-opacity:0.15;stroke:url(#linearGradient13);stroke-width:0.188987;stroke-opacity:1" />
  <rect
     x="-3.7266586"
     y="4.6446943"
     width="7.912631"
     height="7.912384"
     rx="1.612043"
     shape-rendering="crispEdges"
     id="rect5-6-6-6-6"
     style="fill:#80b3ff;fill-opacity:0.122146;stroke:url(#linearGradient15);stroke-width:0.188987;stroke-opacity:1"
     ry="1.7735215"
     transform="matrix(0.72612649,-0.68756114,0.6879775,0.72573202,0,0)" />
  <path
     d="M 8.5066068,6.7895481 C 8.4587095,6.6424971 8.3854328,6.5045461 8.2870128,6.3757021 8.1884022,6.2469991 8.0659632,6.1326961 7.9195737,6.0328091 7.7730999,5.9330371 7.6013994,5.8542291 7.4043651,5.7963421 7.3253971,5.7754021 7.1864947,5.7425021 7.0035393,5.6977921 6.8727727,5.6659521 6.7501808,5.6332921 6.611985,5.6000321 v -1.623379 c 0.1381882,0.0368 0.2341965,0.09522 0.3366711,0.160152 0.2192574,0.138807 0.3567311,0.376274 0.3970039,0.698729 H 8.4078277 C 8.397777,4.5591511 8.3364271,4.3325101 8.2236303,4.1289041 8.0997161,3.9055961 7.9322384,3.7139501 7.7210601,3.5614441 7.5099272,3.4090921 7.256955,3.2928851 6.9782321,3.2166471 6.8571689,3.1835821 6.7501923,3.1557821 6.6120003,3.1370621 V 2.6244191 H 5.6292815 v 0.509279 c -0.1074962,0.01603 -0.232599,0.03754 -0.3443526,0.06525 -0.2647508,0.06576 -0.4973155,0.166879 -0.7055742,0.303476 -0.2083887,0.136735 -0.3739363,0.30882 -0.5006403,0.516343 -0.1267346,0.207646 -0.1890433,0.453281 -0.1890433,0.737041 0,0.147176 0.021554,0.291637 0.063772,0.433548 0.042222,0.141904 0.1142568,0.275884 0.2156231,0.402011 0.1013854,0.126119 0.2379226,0.240426 0.409776,0.342909 0.171712,0.102451 0.379344,0.18524 0.6383967,0.248306 0.1425946,0.036 0.2891332,0.06961 0.4119735,0.100965 v 1.836241 C 5.4603326,8.0749711 5.2931379,8.0061881 5.158179,7.9128211 5.0173729,7.8156701 4.9114856,7.6985731 4.8326825,7.5460801 4.7593483,7.4043691 4.7240321,7.2309061 4.7189493,7.0466441 H 3.6638135 c 0.010548,0.322458 0.080615,0.606432 0.2099326,0.850225 0.1351003,0.254952 0.3152888,0.460035 0.5405501,0.622827 0.2251468,0.162964 0.4820517,0.281856 0.7861583,0.360705 0.1363843,0.03539 0.2906044,0.0608 0.4288003,0.08031 v 0.54274 h 0.9827226 v -0.530354 c 0.1535513,-0.0164 0.291086,-0.04131 0.4380335,-0.07492 0.2871535,-0.06561 0.5473297,-0.169457 0.7726029,-0.311337 0.2251351,-0.141887 0.4087632,-0.324422 0.5468021,-0.547884 0.1378865,-0.223278 0.2079877,-0.492664 0.2079877,-0.807964 1.15e-5,-0.147074 -0.023045,-0.294262 -0.070823,-0.441439 z M 5.6292815,5.3529821 C 5.4450191,5.2955031 5.2621135,5.2134331 5.1371444,5.1065661 5.0047767,4.9936401 4.9425368,4.8373311 4.9425368,4.6375471 c 0,-0.1419 0.037109,-0.260114 0.1075536,-0.354731 0.070346,-0.0946 0.1522023,-0.169488 0.2591903,-0.224659 0.0949,-0.04897 0.212516,-0.08546 0.319997,-0.109604 z m 1.82574,2.29975 c -0.045126,0.102467 -0.1182162,0.193102 -0.2196244,0.271951 -0.1013742,0.07882 -0.2417484,0.143233 -0.4050182,0.193117 -0.069104,0.02117 -0.1262722,0.03753 -0.2183939,0.04969 v -1.644672 c 0.1535475,0.04029 0.2791548,0.08187 0.4042346,0.124842 0.1237883,0.04213 0.241813,0.114284 0.3460573,0.216751 0.1041865,0.102497 0.1582938,0.261495 0.1582938,0.476927 1.52e-5,0.105169 -0.020524,0.208901 -0.065549,0.311383 z"
     id="path25907-1"
     style="mix-blend-mode:normal;fill:#74d99c;fill-opacity:0.99657536;stroke-width:0.0374607" />
</svg>
