<?xml version="1.0" encoding="UTF-8" standalone="no"?>
<svg
   width="45.999886"
   height="45.999989"
   version="1.1"
   viewBox="0 0 12.170564 12.170591"
   id="svg12"
   sodipodi:docname="im.vector.svg"
   inkscape:version="1.3.2 (091e20ef0f, 2023-11-25)"
   xmlns:inkscape="http://www.inkscape.org/namespaces/inkscape"
   xmlns:sodipodi="http://sodipodi.sourceforge.net/DTD/sodipodi-0.dtd"
   xmlns:xlink="http://www.w3.org/1999/xlink"
   xmlns="http://www.w3.org/2000/svg"
   xmlns:svg="http://www.w3.org/2000/svg">
  <defs
     id="defs16">
    <linearGradient
       id="c"
       y1="523.79999"
       x1="403.57001"
       y2="536.79999"
       x2="416.57001"
       gradientUnits="userSpaceOnUse"
       gradientTransform="matrix(0.34526714,0,0,0.34526706,-134.80427,-174.63325)">
      <stop
         stop-color="#292c2f"
         id="stop1568" />
      <stop
         offset="1"
         stop-opacity="0"
         id="stop1570" />
    </linearGradient>
    <linearGradient
       xlink:href="#b-2"
       id="linearGradient4189"
       x1="14.369"
       y1="22.521999"
       x2="26.521999"
       y2="22.521999"
       gradientUnits="userSpaceOnUse" />
    <linearGradient
       x1="36"
       gradientUnits="userSpaceOnUse"
       x2="14"
       y2="12"
       y1="44"
       id="b-2">
      <stop
         style="stop-color:#bfc9c9;stop-opacity:1"
         stop-color="#536161"
         id="stop1579" />
      <stop
         style="stop-color:#fbfbfb;stop-opacity:1"
         stop-color="#f4f5f5"
         offset="1"
         id="stop1581" />
    </linearGradient>
    <linearGradient
       xlink:href="#b-2"
       id="linearGradient4428"
       gradientUnits="userSpaceOnUse"
       x1="31.586"
       y1="36.345001"
       x2="1.2029999"
       y2="6.723" />
    <linearGradient
       xlink:href="#b-2"
       id="linearGradient4189-3"
       x1="14.369"
       y1="22.521999"
       x2="26.521999"
       y2="22.521999"
       gradientUnits="userSpaceOnUse"
       gradientTransform="translate(20.841982,61.553822)" />
    <linearGradient
       xlink:href="#b-2"
       id="linearGradient4428-5"
       gradientUnits="userSpaceOnUse"
       x1="31.586"
       y1="36.345001"
       x2="1.2029999"
       y2="6.723"
       gradientTransform="translate(20.841982,61.553822)" />
    <linearGradient
       xlink:href="#b-2"
       id="linearGradient4189-3-3"
       x1="14.369"
       y1="22.521999"
       x2="26.521999"
       y2="22.521999"
       gradientUnits="userSpaceOnUse"
       gradientTransform="translate(4.376802,4.4211693)" />
    <linearGradient
       xlink:href="#b-2"
       id="linearGradient4428-5-5"
       gradientUnits="userSpaceOnUse"
       x1="31.586"
       y1="36.345001"
       x2="1.2029999"
       y2="6.723"
       gradientTransform="translate(4.376802,4.4211693)" />
    <linearGradient
       inkscape:collect="always"
       xlink:href="#linearGradient11"
       id="linearGradient13"
       x1="-43.819283"
       y1="23.120178"
       x2="-1.9547797"
       y2="23.120178"
       gradientUnits="userSpaceOnUse"
       gradientTransform="scale(0.26457813)" />
    <linearGradient
       id="linearGradient11"
       inkscape:collect="always">
      <stop
         style="stop-color:#37c871;stop-opacity:1"
         offset="0"
         id="stop4-3" />
      <stop
         style="stop-color:#00ccff;stop-opacity:1"
         offset="1"
         id="stop11" />
    </linearGradient>
    <linearGradient
       inkscape:collect="always"
       xlink:href="#linearGradient14"
       id="linearGradient15"
       x1="-9.6850061"
       y1="45.161198"
       x2="11.98815"
       y2="21.735205"
       gradientUnits="userSpaceOnUse"
       gradientTransform="scale(0.26457813)" />
    <linearGradient
       id="linearGradient14"
       inkscape:collect="always">
      <stop
         style="stop-color:#37c871;stop-opacity:1"
         offset="0"
         id="stop12" />
      <stop
         style="stop-color:#00ccff;stop-opacity:1"
         offset="1"
         id="stop13" />
    </linearGradient>
    <filter
       id="filter2917-3"
       x="-0.96181147"
       y="-0.66745996"
       width="2.9236229"
       height="2.3349199"
       color-interpolation-filters="sRGB">
      <feGaussianBlur
         stdDeviation="0.2871969"
         id="feGaussianBlur732-5" />
    </filter>
    <filter
       id="filter1"
       x="-0.96181148"
       y="-0.66745996"
       width="2.9236228"
       height="2.3349199"
       color-interpolation-filters="sRGB">
      <feGaussianBlur
         stdDeviation="0.2871969"
         id="feGaussianBlur1" />
    </filter>
    <filter
       id="filter2"
       x="-0.96181148"
       y="-0.66745996"
       width="2.9236228"
       height="2.3349199"
       color-interpolation-filters="sRGB">
      <feGaussianBlur
         stdDeviation="0.2871969"
         id="feGaussianBlur2" />
    </filter>
  </defs>
  <sodipodi:namedview
     id="namedview14"
     pagecolor="#000000"
     bordercolor="#666666"
     borderopacity="1.0"
     inkscape:showpageshadow="2"
     inkscape:pageopacity="0.0"
     inkscape:pagecheckerboard="0"
     inkscape:deskcolor="#d1d1d1"
     showgrid="false"
     inkscape:zoom="5.2149125"
     inkscape:cx="23.20269"
     inkscape:cy="53.692176"
     inkscape:window-width="1920"
     inkscape:window-height="996"
     inkscape:window-x="0"
     inkscape:window-y="0"
     inkscape:window-maximized="1"
     inkscape:current-layer="svg12">
    <inkscape:grid
       type="xygrid"
       id="grid244"
       originx="9.7893915"
       originy="-31.749373"
       spacingy="1"
       spacingx="1"
       units="px"
       visible="false" />
  </sodipodi:namedview>
  <rect
     x="-12.025727"
     y="0.1490714"
     width="11.940627"
     height="11.936014"
     rx="1.6121091"
     stroke="url(#paint4_linear_77:23)"
     shape-rendering="crispEdges"
     id="rect5-6-7-3"
     ry="1.7735944"
     transform="matrix(0.00523883,-0.99998628,0.999988,0.00489859,0,0)"
     style="fill:#80b3ff;fill-opacity:0.15;stroke:url(#linearGradient13);stroke-width:0.188987;stroke-opacity:1" />
  <rect
     x="-3.7266586"
     y="4.6446943"
     width="7.912631"
     height="7.912384"
     rx="1.612043"
     shape-rendering="crispEdges"
     id="rect5-6-6-6-6"
     style="fill:#80b3ff;fill-opacity:0.122146;stroke:url(#linearGradient15);stroke-width:0.188987;stroke-opacity:1"
     ry="1.7735215"
     transform="matrix(0.72612649,-0.68756114,0.6879775,0.72573202,0,0)" />
  <path
     d="m 6.887232,3.2662316 a 0.79550397,0.80830681 0 0 1 -0.1189139,0.411404 l 1.1701742,0.6871636 a 0.79243973,0.80519334 0 0 1 0.22032,-0.3521007 z M 5.2975744,3.2788227 4.0194294,4.0289972 A 0.79243973,0.80519334 0 0 1 4.2236982,4.3714668 L 5.4128411,3.6731872 A 0.79550397,0.80830681 0 0 1 5.2975744,3.2788283 Z m -1.6020599,2.09559 A 0.79243973,0.80519334 0 0 1 3.4657105,5.4092907 0.79243973,0.80519334 0 0 1 3.325641,5.3967187 v 1.4558642 a 0.79243973,0.80519334 0 0 1 0.1400695,-0.013375 0.79243973,0.80519334 0 0 1 0.229804,0.03487 V 5.3744717 Z m 4.7821045,0.00392 v 1.4922122 a 0.79243973,0.80519334 0 0 1 0.2174016,-0.031127 0.79243973,0.80519334 0 0 1 0.185302,0.023747 V 5.3865324 A 0.79243973,0.80519334 0 0 1 8.6950206,5.4094867 0.79243973,0.80519334 0 0 1 8.477619,5.378352 Z M 4.2419367,7.8074239 A 0.79243973,0.80519334 0 0 1 4.0880046,8.1417122 L 5.301951,8.854079 A 0.79243973,0.80519334 0 0 1 5.4237842,8.5012061 Z m 3.6790471,0.00675 -1.1643387,0.6834572 a 0.79243973,0.80519334 0 0 1 0.124021,0.3706688 L 8.0873175,8.1601287 A 0.79243973,0.80519334 0 0 1 7.9209838,7.8139591 Z"
     style="color:#000000;clip-rule:nonzero;display:inline;overflow:visible;visibility:visible;opacity:0.5;isolation:auto;mix-blend-mode:normal;color-interpolation:sRGB;color-interpolation-filters:linearRGB;solid-color:#000000;solid-opacity:1;fill:#ffffff;fill-opacity:1;fill-rule:nonzero;stroke:none;stroke-width:0.175894;stroke-linecap:butt;stroke-linejoin:miter;stroke-miterlimit:4;stroke-dasharray:none;stroke-dashoffset:0;stroke-opacity:1;marker:none;color-rendering:auto;image-rendering:auto;shape-rendering:auto;text-rendering:auto;enable-background:accumulate"
     id="path23-9-5" />
  <path
     d="M 6.075259,2.6457813 A 0.56028311,0.56930036 0 0 0 5.5149764,3.2150793 0.56028311,0.56930036 0 0 0 6.075259,3.7843847 0.56028311,0.56930036 0 0 0 6.6355423,3.2150793 0.56028311,0.56930036 0 0 0 6.075259,2.6457813 Z M 6.062121,3.0253121 a 0.18676106,0.1897668 0 0 1 0.013139,0 A 0.18676106,0.1897668 0 0 1 6.2620196,3.2150793 0.18676106,0.1897668 0 0 1 6.0752587,3.4048483 0.18676106,0.1897668 0 0 1 5.8884978,3.2150793 0.18676106,0.1897668 0 0 1 6.062121,3.0253121 Z"
     style="color:#000000;clip-rule:nonzero;display:inline;overflow:visible;visibility:visible;opacity:0.5;isolation:auto;mix-blend-mode:normal;color-interpolation:sRGB;color-interpolation-filters:linearRGB;solid-color:#000000;solid-opacity:1;fill:#ffffff;fill-opacity:1;fill-rule:nonzero;stroke:none;stroke-width:0.175894;stroke-linecap:butt;stroke-linejoin:miter;stroke-miterlimit:4;stroke-dasharray:none;stroke-dashoffset:0;stroke-opacity:1;marker:none;color-rendering:auto;image-rendering:auto;shape-rendering:auto;text-rendering:auto;enable-background:accumulate"
     id="path25-3-3" />
  <path
     style="color:#000000;clip-rule:nonzero;display:inline;overflow:visible;visibility:visible;opacity:0.5;isolation:auto;mix-blend-mode:normal;color-interpolation:sRGB;color-interpolation-filters:linearRGB;solid-color:#000000;solid-opacity:1;fill:#ffffff;fill-opacity:1;fill-rule:nonzero;stroke:none;stroke-width:0.175894;stroke-linecap:butt;stroke-linejoin:miter;stroke-miterlimit:4;stroke-dasharray:none;stroke-dashoffset:0;stroke-opacity:1;marker:none;color-rendering:auto;image-rendering:auto;shape-rendering:auto;text-rendering:auto;enable-background:accumulate"
     d="M 8.699952,7.0571223 A 0.56028311,0.56930036 0 0 0 8.1396684,7.6264257 0.56028311,0.56930036 0 0 0 8.699952,8.1957235 0.56028311,0.56930036 0 0 0 9.2602348,7.6264257 0.56028311,0.56930036 0 0 0 8.699952,7.0571223 Z m -0.013137,0.379535 a 0.18676106,0.1897668 0 0 1 0.013138,0 A 0.18676106,0.1897668 0 0 1 8.8867137,7.6264257 0.18676106,0.1897668 0 0 1 8.699952,7.8161932 0.18676106,0.1897668 0 0 1 8.5131906,7.6264257 0.18676106,0.1897668 0 0 1 8.686815,7.4366573 Z"
     id="path27-6-5" />
  <path
     d="M 8.699952,4.0168729 A 0.56028311,0.56930036 0 0 0 8.1396684,4.5861716 0.56028311,0.56930036 0 0 0 8.699952,5.1554694 0.56028311,0.56930036 0 0 0 9.2602348,4.5861716 0.56028311,0.56930036 0 0 0 8.699952,4.0168729 Z M 8.686816,4.3964074 a 0.18676106,0.1897668 0 0 1 0.013139,0 A 0.18676106,0.1897668 0 0 1 8.8867138,4.5861716 0.18676106,0.1897668 0 0 1 8.6999527,4.7759352 0.18676106,0.1897668 0 0 1 8.5131912,4.5861716 0.18676106,0.1897668 0 0 1 8.686816,4.3964074 Z"
     style="color:#000000;clip-rule:nonzero;display:inline;overflow:visible;visibility:visible;isolation:auto;mix-blend-mode:normal;color-interpolation:sRGB;color-interpolation-filters:linearRGB;solid-color:#000000;solid-opacity:1;fill:#ffffff;fill-opacity:1;fill-rule:nonzero;stroke:none;stroke-width:0.175894;stroke-linecap:butt;stroke-linejoin:miter;stroke-miterlimit:4;stroke-dasharray:none;stroke-dashoffset:0;stroke-opacity:1;marker:none;color-rendering:auto;image-rendering:auto;shape-rendering:auto;text-rendering:auto;enable-background:accumulate"
     id="path31-6-2" />
  <path
     d="M 3.4706431,7.0571223 A 0.56028311,0.56930036 0 0 0 2.9103595,7.6264257 0.56028311,0.56930036 0 0 0 3.4706431,8.1957235 0.56028311,0.56930036 0 0 0 4.0309253,7.6264257 0.56028311,0.56930036 0 0 0 3.4706431,7.0571223 Z m -0.013136,0.379535 a 0.18676106,0.1897668 0 0 1 0.013138,0 A 0.18676106,0.1897668 0 0 1 3.6574049,7.6264257 0.18676106,0.1897668 0 0 1 3.4706431,7.8161932 0.18676106,0.1897668 0 0 1 3.283882,7.6264257 0.18676106,0.1897668 0 0 1 3.4575071,7.4366573 Z"
     style="color:#000000;clip-rule:nonzero;display:inline;overflow:visible;visibility:visible;opacity:0.5;isolation:auto;mix-blend-mode:normal;color-interpolation:sRGB;color-interpolation-filters:linearRGB;solid-color:#000000;solid-opacity:1;fill:#ffffff;fill-opacity:1;fill-rule:nonzero;stroke:none;stroke-width:0.175894;stroke-linecap:butt;stroke-linejoin:miter;stroke-miterlimit:4;stroke-dasharray:none;stroke-dashoffset:0;stroke-opacity:1;marker:none;color-rendering:auto;image-rendering:auto;shape-rendering:auto;text-rendering:auto;enable-background:accumulate"
     id="path33-2-9" />
  <path
     style="color:#000000;clip-rule:nonzero;display:inline;overflow:visible;visibility:visible;isolation:auto;mix-blend-mode:normal;color-interpolation:sRGB;color-interpolation-filters:linearRGB;solid-color:#000000;solid-opacity:1;fill:#ffffff;fill-opacity:1;fill-rule:nonzero;stroke:none;stroke-width:0.175894;stroke-linecap:butt;stroke-linejoin:miter;stroke-miterlimit:4;stroke-dasharray:none;stroke-dashoffset:0;stroke-opacity:1;marker:none;color-rendering:auto;image-rendering:auto;shape-rendering:auto;text-rendering:auto;enable-background:accumulate"
     d="M 3.4706431,4.0168729 A 0.56028311,0.56930036 0 0 0 2.9103595,4.5861716 0.56028311,0.56930036 0 0 0 3.4706431,5.1554694 0.56028311,0.56930036 0 0 0 4.0309253,4.5861716 0.56028311,0.56930036 0 0 0 3.4706431,4.0168729 Z m -0.013136,0.3795345 a 0.18676106,0.1897668 0 0 1 0.013139,0 A 0.18676106,0.1897668 0 0 1 3.6574049,4.5861716 0.18676106,0.1897668 0 0 1 3.4706445,4.7759352 0.18676106,0.1897668 0 0 1 3.2838834,4.5861716 0.18676106,0.1897668 0 0 1 3.4575071,4.3964074 Z"
     id="path37-1-2" />
  <path
     style="color:#000000;clip-rule:nonzero;display:inline;overflow:visible;visibility:visible;isolation:auto;mix-blend-mode:normal;color-interpolation:sRGB;color-interpolation-filters:linearRGB;solid-color:#000000;solid-opacity:1;fill:#ffffff;fill-opacity:1;fill-rule:nonzero;stroke:none;stroke-width:0.175894;stroke-linecap:butt;stroke-linejoin:miter;stroke-miterlimit:4;stroke-dasharray:none;stroke-dashoffset:0;stroke-opacity:1;marker:none;color-rendering:auto;image-rendering:auto;shape-rendering:auto;text-rendering:auto;enable-background:accumulate"
     d="M 6.075259,8.3862117 A 0.56028311,0.56930036 0 0 0 5.5149764,8.9555132 0.56028311,0.56930036 0 0 0 6.075259,9.5248128 0.56028311,0.56930036 0 0 0 6.6355423,8.9555132 0.56028311,0.56930036 0 0 0 6.075259,8.3862117 Z M 6.062123,8.7657475 a 0.18676106,0.1897668 0 0 1 0.013139,0 A 0.18676106,0.1897668 0 0 1 6.2620212,8.9555132 0.18676106,0.1897668 0 0 1 6.07526,9.145279 0.18676106,0.1897668 0 0 1 5.8884991,8.9555132 0.18676106,0.1897668 0 0 1 6.062123,8.7657475 Z"
     id="path39-8-7" />
  <path
     d="M 4.0726843,5.1223872 A 0.79243973,0.80519334 0 0 1 3.7691974,5.3469953 l 1.7326469,3.049608 A 0.79243973,0.80519334 0 0 1 5.8104374,8.1816325 Z"
     style="color:#000000;clip-rule:nonzero;display:inline;overflow:visible;visibility:visible;isolation:auto;mix-blend-mode:normal;color-interpolation:sRGB;color-interpolation-filters:linearRGB;solid-color:#000000;solid-opacity:1;fill:#ffffff;fill-opacity:1;fill-rule:nonzero;stroke:none;stroke-width:0.175894;stroke-linecap:butt;stroke-linejoin:miter;stroke-miterlimit:4;stroke-dasharray:none;stroke-dashoffset:0;stroke-opacity:1;marker:none;color-rendering:auto;image-rendering:auto;shape-rendering:auto;text-rendering:auto;enable-background:accumulate"
     id="path41-7-0" />
  <path
     d="M 8.1011786,5.1364688 6.3707214,8.1823734 A 0.79243973,0.80519334 0 0 1 6.6800444,8.397347 L 8.4090427,5.3536637 A 0.79243973,0.80519334 0 0 1 8.1011786,5.1364688 Z"
     style="color:#000000;clip-rule:nonzero;display:inline;overflow:visible;visibility:visible;isolation:auto;mix-blend-mode:normal;color-interpolation:sRGB;color-interpolation-filters:linearRGB;solid-color:#000000;solid-opacity:1;fill:#ffffff;fill-opacity:1;fill-rule:nonzero;stroke:none;stroke-width:0.175894;stroke-linecap:butt;stroke-linejoin:miter;stroke-miterlimit:4;stroke-dasharray:none;stroke-dashoffset:0;stroke-opacity:1;marker:none;color-rendering:auto;image-rendering:auto;shape-rendering:auto;text-rendering:auto;enable-background:accumulate"
     id="path43-9-9" />
</svg>
