<?xml version="1.0" encoding="UTF-8" standalone="no"?>
<svg
   width="45.999886"
   height="45.999989"
   version="1.1"
   viewBox="0 0 12.170564 12.170591"
   id="svg12"
   sodipodi:docname="io.github.pwr_solaar.solaar.svg"
   inkscape:version="1.3.2 (091e20ef0f, 2023-11-25)"
   xmlns:inkscape="http://www.inkscape.org/namespaces/inkscape"
   xmlns:sodipodi="http://sodipodi.sourceforge.net/DTD/sodipodi-0.dtd"
   xmlns:xlink="http://www.w3.org/1999/xlink"
   xmlns="http://www.w3.org/2000/svg"
   xmlns:svg="http://www.w3.org/2000/svg">
  <defs
     id="defs16">
    <linearGradient
       id="c"
       y1="523.79999"
       x1="403.57001"
       y2="536.79999"
       x2="416.57001"
       gradientUnits="userSpaceOnUse"
       gradientTransform="matrix(0.34526714,0,0,0.34526706,-134.80427,-174.63325)">
      <stop
         stop-color="#292c2f"
         id="stop1568" />
      <stop
         offset="1"
         stop-opacity="0"
         id="stop1570" />
    </linearGradient>
    <linearGradient
       xlink:href="#b-2"
       id="linearGradient4189"
       x1="14.369"
       y1="22.521999"
       x2="26.521999"
       y2="22.521999"
       gradientUnits="userSpaceOnUse" />
    <linearGradient
       x1="36"
       gradientUnits="userSpaceOnUse"
       x2="14"
       y2="12"
       y1="44"
       id="b-2">
      <stop
         style="stop-color:#bfc9c9;stop-opacity:1"
         stop-color="#536161"
         id="stop1579" />
      <stop
         style="stop-color:#fbfbfb;stop-opacity:1"
         stop-color="#f4f5f5"
         offset="1"
         id="stop1581" />
    </linearGradient>
    <linearGradient
       xlink:href="#b-2"
       id="linearGradient4428"
       gradientUnits="userSpaceOnUse"
       x1="31.586"
       y1="36.345001"
       x2="1.2029999"
       y2="6.723" />
    <linearGradient
       xlink:href="#b-2"
       id="linearGradient4189-3"
       x1="14.369"
       y1="22.521999"
       x2="26.521999"
       y2="22.521999"
       gradientUnits="userSpaceOnUse"
       gradientTransform="translate(20.841982,61.553822)" />
    <linearGradient
       xlink:href="#b-2"
       id="linearGradient4428-5"
       gradientUnits="userSpaceOnUse"
       x1="31.586"
       y1="36.345001"
       x2="1.2029999"
       y2="6.723"
       gradientTransform="translate(20.841982,61.553822)" />
    <linearGradient
       xlink:href="#b-2"
       id="linearGradient4189-3-3"
       x1="14.369"
       y1="22.521999"
       x2="26.521999"
       y2="22.521999"
       gradientUnits="userSpaceOnUse"
       gradientTransform="translate(4.376802,4.4211693)" />
    <linearGradient
       xlink:href="#b-2"
       id="linearGradient4428-5-5"
       gradientUnits="userSpaceOnUse"
       x1="31.586"
       y1="36.345001"
       x2="1.2029999"
       y2="6.723"
       gradientTransform="translate(4.376802,4.4211693)" />
    <linearGradient
       inkscape:collect="always"
       xlink:href="#linearGradient11"
       id="linearGradient13"
       x1="-43.819283"
       y1="23.120178"
       x2="-1.9547797"
       y2="23.120178"
       gradientUnits="userSpaceOnUse"
       gradientTransform="scale(0.26457813)" />
    <linearGradient
       id="linearGradient11"
       inkscape:collect="always">
      <stop
         style="stop-color:#37c871;stop-opacity:1"
         offset="0"
         id="stop4-3" />
      <stop
         style="stop-color:#00ccff;stop-opacity:1"
         offset="1"
         id="stop11" />
    </linearGradient>
    <linearGradient
       inkscape:collect="always"
       xlink:href="#linearGradient14"
       id="linearGradient15"
       x1="-9.6850061"
       y1="45.161198"
       x2="11.98815"
       y2="21.735205"
       gradientUnits="userSpaceOnUse"
       gradientTransform="scale(0.26457813)" />
    <linearGradient
       id="linearGradient14"
       inkscape:collect="always">
      <stop
         style="stop-color:#37c871;stop-opacity:1"
         offset="0"
         id="stop12" />
      <stop
         style="stop-color:#00ccff;stop-opacity:1"
         offset="1"
         id="stop13" />
    </linearGradient>
    <filter
       id="filter2917-3"
       x="-0.96181147"
       y="-0.66745996"
       width="2.9236229"
       height="2.3349199"
       color-interpolation-filters="sRGB">
      <feGaussianBlur
         stdDeviation="0.2871969"
         id="feGaussianBlur732-5" />
    </filter>
    <filter
       id="filter1"
       x="-0.96181148"
       y="-0.66745996"
       width="2.9236228"
       height="2.3349199"
       color-interpolation-filters="sRGB">
      <feGaussianBlur
         stdDeviation="0.2871969"
         id="feGaussianBlur1" />
    </filter>
    <filter
       id="filter2"
       x="-0.96181148"
       y="-0.66745996"
       width="2.9236228"
       height="2.3349199"
       color-interpolation-filters="sRGB">
      <feGaussianBlur
         stdDeviation="0.2871969"
         id="feGaussianBlur2" />
    </filter>
    <linearGradient
       inkscape:collect="always"
       xlink:href="#linearGradient11-3"
       id="linearGradient1"
       gradientUnits="userSpaceOnUse"
       x1="29.517408"
       y1="7.7983851"
       x2="29.488047"
       y2="51.897598"
       gradientTransform="matrix(0.23812032,0,0,0.23812036,0.32972727,0.32002293)" />
    <linearGradient
       id="linearGradient11-3"
       inkscape:collect="always">
      <stop
         style="stop-color:#acfbfe;stop-opacity:1;"
         offset="0"
         id="stop11-3" />
      <stop
         style="stop-color:#02797e;stop-opacity:1;"
         offset="1"
         id="stop12-6" />
    </linearGradient>
  </defs>
  <sodipodi:namedview
     id="namedview14"
     pagecolor="#000000"
     bordercolor="#666666"
     borderopacity="1.0"
     inkscape:showpageshadow="2"
     inkscape:pageopacity="0.0"
     inkscape:pagecheckerboard="0"
     inkscape:deskcolor="#d1d1d1"
     showgrid="false"
     inkscape:zoom="5.2149125"
     inkscape:cx="23.20269"
     inkscape:cy="53.692176"
     inkscape:window-width="1920"
     inkscape:window-height="996"
     inkscape:window-x="0"
     inkscape:window-y="0"
     inkscape:window-maximized="1"
     inkscape:current-layer="svg12">
    <inkscape:grid
       type="xygrid"
       id="grid244"
       originx="9.7893915"
       originy="-31.749373"
       spacingy="1"
       spacingx="1"
       units="px"
       visible="false" />
  </sodipodi:namedview>
  <rect
     x="-12.025727"
     y="0.1490714"
     width="11.940627"
     height="11.936014"
     rx="1.6121091"
     stroke="url(#paint4_linear_77:23)"
     shape-rendering="crispEdges"
     id="rect5-6-7-3"
     ry="1.7735944"
     transform="matrix(0.00523883,-0.99998628,0.999988,0.00489859,0,0)"
     style="fill:#80b3ff;fill-opacity:0.15;stroke:url(#linearGradient13);stroke-width:0.188987;stroke-opacity:1" />
  <rect
     x="-3.7266586"
     y="4.6446943"
     width="7.912631"
     height="7.912384"
     rx="1.612043"
     shape-rendering="crispEdges"
     id="rect5-6-6-6-6"
     style="fill:#80b3ff;fill-opacity:0.122146;stroke:url(#linearGradient15);stroke-width:0.188987;stroke-opacity:1"
     ry="1.7735215"
     transform="matrix(0.72612649,-0.68756114,0.6879775,0.72573202,0,0)" />
  <path
     style="opacity:0.3;fill:#000000;fill-opacity:1;stroke:none;stroke-width:0.264578;stroke-dasharray:none;stroke-opacity:0.3"
     d="M 4.7863149,3.2273066 3.9579918,3.7071162 4.7060038,5.0069084 A 1.9125214,1.9192393 0 0 0 4.1965901,5.8962445 H 2.6986969 V 6.8558664 H 4.1951895 A 1.9125214,1.9192393 0 0 0 4.7064709,7.7437926 L 3.9579918,9.0449983 4.7863149,9.5248052 5.5347945,8.2236035 a 1.9125214,1.9192393 0 0 0 0.5108148,0.071728 1.9125214,1.9192393 0 0 0 0.5117492,-0.069754 L 7.3049039,9.5248599 8.1332274,9.0450515 7.3852152,7.7452579 A 1.9125214,1.9192393 0 0 0 7.8946293,6.8558793 H 9.3925238 V 5.8962516 H 7.8960301 A 1.9125214,1.9192393 0 0 0 7.384748,5.0083172 L 8.1332274,3.7071162 7.3049039,3.2273066 6.5564245,4.5285061 A 1.9125214,1.9192393 0 0 0 6.0456093,4.4568147 1.9125214,1.9192393 0 0 0 5.5338603,4.5265977 Z M 6.0456093,5.1765272 A 1.1953263,1.1995246 0 0 1 7.2409353,6.3760534 1.1953263,1.1995246 0 0 1 6.0456093,7.5755825 1.1953263,1.1995246 0 0 1 4.8502837,6.3760534 1.1953263,1.1995246 0 0 1 6.0456093,5.1765272 Z"
     id="path8-0-0" />
  <path
     d="M 4.7863149,2.8267612 3.9579918,3.3065705 4.7060038,4.6063678 A 1.9125214,1.9192393 0 0 0 4.1965901,5.4957024 H 2.6986969 V 6.4553251 H 4.1951895 A 1.9125214,1.9192393 0 0 0 4.7064709,7.3432549 L 3.9579918,8.6444546 4.7863149,9.1242636 5.5347945,7.8230608 a 1.9125214,1.9192393 0 0 0 0.5108148,0.071729 1.9125214,1.9192393 0 0 0 0.5117492,-0.069755 L 7.3049039,9.1243105 8.1332274,8.644502 7.3852152,7.3447082 A 1.9125214,1.9192393 0 0 0 7.8946293,6.4553456 H 9.3925238 V 5.4957198 H 7.8960301 A 1.9125214,1.9192393 0 0 0 7.384748,4.6077757 L 8.1332274,3.3065705 7.3049039,2.8267612 6.5564245,4.1279638 a 1.9125214,1.9192393 0 0 0 -0.5108152,-0.071708 1.9125214,1.9192393 0 0 0 -0.511749,0.0698 z M 6.0456093,4.7759873 A 1.1953263,1.1995246 0 0 1 7.2409353,5.9755127 1.1953263,1.1995246 0 0 1 6.0456093,7.1750385 1.1953263,1.1995246 0 0 1 4.8502837,5.9755127 1.1953263,1.1995246 0 0 1 6.0456093,4.7759873 Z"
     id="path8-0"
     style="fill:url(#linearGradient1);fill-opacity:1;stroke:#000000;stroke-width:0.264578;stroke-dasharray:none;stroke-opacity:0.3" />
</svg>
