<?xml version="1.0" encoding="UTF-8" standalone="no"?>
<svg
   width="45.999886"
   height="45.999989"
   version="1.1"
   viewBox="0 0 12.170564 12.170591"
   id="svg12"
   sodipodi:docname="julia.svg"
   inkscape:version="1.3.2 (091e20ef0f, 2023-11-25)"
   xmlns:inkscape="http://www.inkscape.org/namespaces/inkscape"
   xmlns:sodipodi="http://sodipodi.sourceforge.net/DTD/sodipodi-0.dtd"
   xmlns:xlink="http://www.w3.org/1999/xlink"
   xmlns="http://www.w3.org/2000/svg"
   xmlns:svg="http://www.w3.org/2000/svg">
  <defs
     id="defs16">
    <linearGradient
       id="c"
       y1="523.79999"
       x1="403.57001"
       y2="536.79999"
       x2="416.57001"
       gradientUnits="userSpaceOnUse"
       gradientTransform="matrix(0.34526714,0,0,0.34526706,-134.80427,-174.63325)">
      <stop
         stop-color="#292c2f"
         id="stop1568" />
      <stop
         offset="1"
         stop-opacity="0"
         id="stop1570" />
    </linearGradient>
    <linearGradient
       xlink:href="#b-2"
       id="linearGradient4189"
       x1="14.369"
       y1="22.521999"
       x2="26.521999"
       y2="22.521999"
       gradientUnits="userSpaceOnUse" />
    <linearGradient
       x1="36"
       gradientUnits="userSpaceOnUse"
       x2="14"
       y2="12"
       y1="44"
       id="b-2">
      <stop
         style="stop-color:#bfc9c9;stop-opacity:1"
         stop-color="#536161"
         id="stop1579" />
      <stop
         style="stop-color:#fbfbfb;stop-opacity:1"
         stop-color="#f4f5f5"
         offset="1"
         id="stop1581" />
    </linearGradient>
    <linearGradient
       xlink:href="#b-2"
       id="linearGradient4428"
       gradientUnits="userSpaceOnUse"
       x1="31.586"
       y1="36.345001"
       x2="1.2029999"
       y2="6.723" />
    <linearGradient
       xlink:href="#b-2"
       id="linearGradient4189-3"
       x1="14.369"
       y1="22.521999"
       x2="26.521999"
       y2="22.521999"
       gradientUnits="userSpaceOnUse"
       gradientTransform="translate(20.841982,61.553822)" />
    <linearGradient
       xlink:href="#b-2"
       id="linearGradient4428-5"
       gradientUnits="userSpaceOnUse"
       x1="31.586"
       y1="36.345001"
       x2="1.2029999"
       y2="6.723"
       gradientTransform="translate(20.841982,61.553822)" />
    <linearGradient
       xlink:href="#b-2"
       id="linearGradient4189-3-3"
       x1="14.369"
       y1="22.521999"
       x2="26.521999"
       y2="22.521999"
       gradientUnits="userSpaceOnUse"
       gradientTransform="translate(4.376802,4.4211693)" />
    <linearGradient
       xlink:href="#b-2"
       id="linearGradient4428-5-5"
       gradientUnits="userSpaceOnUse"
       x1="31.586"
       y1="36.345001"
       x2="1.2029999"
       y2="6.723"
       gradientTransform="translate(4.376802,4.4211693)" />
    <linearGradient
       inkscape:collect="always"
       xlink:href="#linearGradient11"
       id="linearGradient13"
       x1="-43.819283"
       y1="23.120178"
       x2="-1.9547797"
       y2="23.120178"
       gradientUnits="userSpaceOnUse"
       gradientTransform="scale(0.26457813)" />
    <linearGradient
       id="linearGradient11"
       inkscape:collect="always">
      <stop
         style="stop-color:#9955ff;stop-opacity:0.65640396;"
         offset="0"
         id="stop4-3" />
      <stop
         style="stop-color:#00ccff;stop-opacity:1"
         offset="1"
         id="stop11" />
    </linearGradient>
    <linearGradient
       inkscape:collect="always"
       xlink:href="#linearGradient14"
       id="linearGradient15"
       x1="-9.6850061"
       y1="45.161198"
       x2="11.98815"
       y2="21.735205"
       gradientUnits="userSpaceOnUse"
       gradientTransform="scale(0.26457813)" />
    <linearGradient
       id="linearGradient14"
       inkscape:collect="always">
      <stop
         style="stop-color:#9955ff;stop-opacity:0.45197046;"
         offset="0"
         id="stop12" />
      <stop
         style="stop-color:#00ccff;stop-opacity:1"
         offset="1"
         id="stop13" />
    </linearGradient>
    <filter
       id="filter2917-3"
       x="-0.96181147"
       y="-0.66745996"
       width="2.9236229"
       height="2.3349199"
       color-interpolation-filters="sRGB">
      <feGaussianBlur
         stdDeviation="0.2871969"
         id="feGaussianBlur732-5" />
    </filter>
    <filter
       id="filter1"
       x="-0.96181148"
       y="-0.66745996"
       width="2.9236228"
       height="2.3349199"
       color-interpolation-filters="sRGB">
      <feGaussianBlur
         stdDeviation="0.2871969"
         id="feGaussianBlur1" />
    </filter>
    <filter
       id="filter2"
       x="-0.96181148"
       y="-0.66745996"
       width="2.9236228"
       height="2.3349199"
       color-interpolation-filters="sRGB">
      <feGaussianBlur
         stdDeviation="0.2871969"
         id="feGaussianBlur2" />
    </filter>
    <linearGradient
       id="_lgradient_3"
       x1="0.031182563"
       y1="0.10866628"
       x2="0.95837951"
       y2="0.97519469"
       gradientTransform="matrix(7.7609586,0,0,7.7609586,4.5860207,0.35277125)"
       gradientUnits="userSpaceOnUse">
      <stop
         offset="0%"
         stop-opacity="1"
         style="stop-color:rgb(165,248,106)"
         id="stop1" />
      <stop
         offset="97.91666666666666%"
         stop-opacity="1"
         style="stop-color:rgb(47,206,146)"
         id="stop2" />
    </linearGradient>
    <linearGradient
       id="_lgradient_4"
       x1="0.031182563"
       y1="0.10866628"
       x2="0.95837951"
       y2="0.97519469"
       gradientTransform="matrix(7.7609586,0,0,7.7609586,8.8192708,8.4665003)"
       gradientUnits="userSpaceOnUse">
      <stop
         offset="0%"
         stop-opacity="1"
         style="stop-color:rgb(199,81,251)"
         id="stop3" />
      <stop
         offset="97.5%"
         stop-opacity="1"
         style="stop-color:rgb(109,68,222)"
         id="stop4" />
    </linearGradient>
    <linearGradient
       id="_lgradient_5"
       x1="-0.014458464"
       y1="0.009839246"
       x2="1.0164566"
       y2="1.072293"
       gradientTransform="matrix(7.7609586,0,0,7.7609586,0.35277082,8.4665003)"
       gradientUnits="userSpaceOnUse">
      <stop
         offset="0%"
         stop-opacity="1"
         style="stop-color:rgb(249,212,35)"
         id="stop5" />
      <stop
         offset="51.56237565086822%"
         stop-opacity="1"
         style="stop-color:rgb(255,78,80)"
         id="stop6" />
      <stop
         offset="99.1304347826087%"
         stop-opacity="1"
         style="stop-color:rgb(138,35,135)"
         id="stop7" />
    </linearGradient>
  </defs>
  <sodipodi:namedview
     id="namedview14"
     pagecolor="#000000"
     bordercolor="#666666"
     borderopacity="1.0"
     inkscape:showpageshadow="2"
     inkscape:pageopacity="0.0"
     inkscape:pagecheckerboard="0"
     inkscape:deskcolor="#d1d1d1"
     showgrid="false"
     inkscape:zoom="5.2149125"
     inkscape:cx="23.20269"
     inkscape:cy="53.692176"
     inkscape:window-width="1920"
     inkscape:window-height="996"
     inkscape:window-x="0"
     inkscape:window-y="0"
     inkscape:window-maximized="1"
     inkscape:current-layer="svg12">
    <inkscape:grid
       type="xygrid"
       id="grid244"
       originx="9.7893915"
       originy="-31.749373"
       spacingy="1"
       spacingx="1"
       units="px"
       visible="false" />
  </sodipodi:namedview>
  <rect
     x="-12.025727"
     y="0.1490714"
     width="11.940627"
     height="11.936014"
     rx="1.6121091"
     stroke="url(#paint4_linear_77:23)"
     shape-rendering="crispEdges"
     id="rect5-6-7-3"
     ry="1.7735944"
     transform="matrix(0.00523883,-0.99998628,0.999988,0.00489859,0,0)"
     style="fill:#80b3ff;fill-opacity:0.15;stroke:url(#linearGradient13);stroke-width:0.188987;stroke-opacity:1" />
  <rect
     x="-3.7266586"
     y="4.6446943"
     width="7.912631"
     height="7.912384"
     rx="1.612043"
     shape-rendering="crispEdges"
     id="rect5-6-6-6-6"
     style="fill:#80b3ff;fill-opacity:0.122146;stroke:url(#linearGradient15);stroke-width:0.188987;stroke-opacity:1"
     ry="1.7735215"
     transform="matrix(0.72612649,-0.68756114,0.6879775,0.72573202,0,0)" />
  <path
     d="m 4.5507439,4.0969483 c 0,-0.412036 0.1636857,-0.807139 0.4543688,-1.097823 0.2906832,-0.290683 0.6857866,-0.454369 1.0978229,-0.454369 0.4120364,0 0.8071397,0.163686 1.0978229,0.454369 0.2906832,0.290684 0.454369,0.685787 0.454369,1.097823 0,0.412036 -0.1636858,0.80714 -0.454369,1.097823 -0.2906832,0.290683 -0.6857865,0.454369 -1.0978229,0.454369 -0.4120363,0 -0.8071397,-0.163686 -1.0978229,-0.454369 C 4.7144296,4.9040883 4.5507439,4.5089843 4.5507439,4.0969483 Z m 0.5644334,0 c 0,-0.262461 0.1044201,-0.513634 0.2892721,-0.698486 0.1848519,-0.184852 0.4360247,-0.289272 0.6984862,-0.289272 0.2624615,0 0.5136344,0.10442 0.6984863,0.289272 0.1848519,0.184852 0.2892721,0.436025 0.2892721,0.698486 0,0.262462 -0.1044202,0.513634 -0.2892721,0.698486 -0.1848519,0.184852 -0.4360248,0.289272 -0.6984863,0.289272 -0.2624615,0 -0.5136343,-0.10442 -0.6984862,-0.289272 -0.184852,-0.184852 -0.2892721,-0.436024 -0.2892721,-0.698486 z"
     fill-rule="evenodd"
     fill="url(#_lgradient_3)"
     id="path2"
     style="isolation:isolate;fill:#00ffcc;stroke-width:0.352771;fill-opacity:1" />
  <path
     d="m 6.2440439,7.3424403 c 0,-0.412037 0.1636857,-0.80714 0.4543689,-1.097823 0.2906832,-0.290683 0.6857865,-0.454369 1.0978227,-0.454369 0.4120364,0 0.80714,0.163686 1.0978232,0.454369 0.2906832,0.290683 0.4543688,0.685786 0.4543688,1.097823 0,0.412036 -0.1636856,0.80714 -0.4543688,1.097823 -0.2906832,0.290683 -0.6857868,0.454369 -1.0978232,0.454369 -0.4120362,0 -0.8071395,-0.163686 -1.0978227,-0.454369 C 6.4077296,8.1495803 6.2440439,7.7544763 6.2440439,7.3424403 Z m 0.5644334,0 c 0,-0.262462 0.1044202,-0.513635 0.2892721,-0.698487 0.1848519,-0.184852 0.4360248,-0.289272 0.6984861,-0.289272 0.2624616,0 0.5136344,0.10442 0.6984864,0.289272 0.184852,0.184852 0.289272,0.436025 0.289272,0.698487 0,0.262461 -0.10442,0.513634 -0.289272,0.698486 -0.184852,0.184852 -0.4360248,0.289272 -0.6984864,0.289272 -0.2624613,0 -0.5136342,-0.10442 -0.6984861,-0.289272 C 6.9128975,7.8560743 6.8084773,7.6049013 6.8084773,7.3424403 Z"
     fill-rule="evenodd"
     fill="url(#_lgradient_4)"
     id="path4"
     style="isolation:isolate;fill:#bc5ed3;stroke-width:0.352771;fill-opacity:1" />
  <path
     d="m 2.8574438,7.3424403 c 0,-0.412037 0.1636857,-0.80714 0.4543688,-1.097823 0.2906832,-0.290683 0.6857866,-0.454369 1.097823,-0.454369 0.4120363,0 0.8071397,0.163686 1.0978228,0.454369 0.2906832,0.290683 0.4543689,0.685786 0.4543689,1.097823 0,0.412036 -0.1636857,0.80714 -0.4543689,1.097823 -0.2906831,0.290683 -0.6857865,0.454369 -1.0978228,0.454369 -0.4120364,0 -0.8071398,-0.163686 -1.097823,-0.454369 C 3.0211295,8.1495803 2.8574438,7.7544763 2.8574438,7.3424403 Z m 0.5644334,0 c 0,-0.262462 0.1044201,-0.513635 0.2892721,-0.698487 0.1848519,-0.184852 0.4360247,-0.289272 0.6984863,-0.289272 0.2624615,0 0.5136343,0.10442 0.6984862,0.289272 0.1848519,0.184852 0.2892721,0.436025 0.2892721,0.698487 0,0.262461 -0.1044202,0.513634 -0.2892721,0.698486 -0.1848519,0.184852 -0.4360247,0.289272 -0.6984862,0.289272 -0.2624616,0 -0.5136344,-0.10442 -0.6984863,-0.289272 -0.184852,-0.184852 -0.2892721,-0.436025 -0.2892721,-0.698486 z"
     fill-rule="evenodd"
     fill="url(#_lgradient_5)"
     id="path7"
     style="isolation:isolate;fill:#ffcc00;stroke-width:0.352771;fill-opacity:1" />
</svg>
