<?xml version="1.0" encoding="UTF-8" standalone="no"?>
<svg
   width="45.999886"
   height="45.999989"
   version="1.1"
   viewBox="0 0 12.170564 12.170591"
   id="svg12"
   sodipodi:docname="kajongg.svg"
   inkscape:version="1.3.2 (091e20ef0f, 2023-11-25)"
   xmlns:inkscape="http://www.inkscape.org/namespaces/inkscape"
   xmlns:sodipodi="http://sodipodi.sourceforge.net/DTD/sodipodi-0.dtd"
   xmlns:xlink="http://www.w3.org/1999/xlink"
   xmlns="http://www.w3.org/2000/svg"
   xmlns:svg="http://www.w3.org/2000/svg">
  <defs
     id="defs16">
    <linearGradient
       id="c"
       y1="523.79999"
       x1="403.57001"
       y2="536.79999"
       x2="416.57001"
       gradientUnits="userSpaceOnUse"
       gradientTransform="matrix(0.34526714,0,0,0.34526706,-134.80427,-174.63325)">
      <stop
         stop-color="#292c2f"
         id="stop1568" />
      <stop
         offset="1"
         stop-opacity="0"
         id="stop1570" />
    </linearGradient>
    <linearGradient
       xlink:href="#b-2"
       id="linearGradient4189"
       x1="14.369"
       y1="22.521999"
       x2="26.521999"
       y2="22.521999"
       gradientUnits="userSpaceOnUse" />
    <linearGradient
       x1="36"
       gradientUnits="userSpaceOnUse"
       x2="14"
       y2="12"
       y1="44"
       id="b-2">
      <stop
         style="stop-color:#bfc9c9;stop-opacity:1"
         stop-color="#536161"
         id="stop1579" />
      <stop
         style="stop-color:#fbfbfb;stop-opacity:1"
         stop-color="#f4f5f5"
         offset="1"
         id="stop1581" />
    </linearGradient>
    <linearGradient
       xlink:href="#b-2"
       id="linearGradient4428"
       gradientUnits="userSpaceOnUse"
       x1="31.586"
       y1="36.345001"
       x2="1.2029999"
       y2="6.723" />
    <linearGradient
       xlink:href="#b-2"
       id="linearGradient4189-3"
       x1="14.369"
       y1="22.521999"
       x2="26.521999"
       y2="22.521999"
       gradientUnits="userSpaceOnUse"
       gradientTransform="translate(20.841982,61.553822)" />
    <linearGradient
       xlink:href="#b-2"
       id="linearGradient4428-5"
       gradientUnits="userSpaceOnUse"
       x1="31.586"
       y1="36.345001"
       x2="1.2029999"
       y2="6.723"
       gradientTransform="translate(20.841982,61.553822)" />
    <linearGradient
       xlink:href="#b-2"
       id="linearGradient4189-3-3"
       x1="14.369"
       y1="22.521999"
       x2="26.521999"
       y2="22.521999"
       gradientUnits="userSpaceOnUse"
       gradientTransform="translate(4.376802,4.4211693)" />
    <linearGradient
       xlink:href="#b-2"
       id="linearGradient4428-5-5"
       gradientUnits="userSpaceOnUse"
       x1="31.586"
       y1="36.345001"
       x2="1.2029999"
       y2="6.723"
       gradientTransform="translate(4.376802,4.4211693)" />
    <linearGradient
       inkscape:collect="always"
       xlink:href="#linearGradient11"
       id="linearGradient13"
       x1="-43.819283"
       y1="23.120178"
       x2="-1.9547797"
       y2="23.120178"
       gradientUnits="userSpaceOnUse"
       gradientTransform="scale(0.26457813)" />
    <linearGradient
       id="linearGradient11"
       inkscape:collect="always">
      <stop
         style="stop-color:#37c871;stop-opacity:1"
         offset="0"
         id="stop4-3" />
      <stop
         style="stop-color:#00ccff;stop-opacity:1"
         offset="1"
         id="stop11" />
    </linearGradient>
    <linearGradient
       inkscape:collect="always"
       xlink:href="#linearGradient14"
       id="linearGradient15"
       x1="-9.6850061"
       y1="45.161198"
       x2="11.98815"
       y2="21.735205"
       gradientUnits="userSpaceOnUse"
       gradientTransform="scale(0.26457813)" />
    <linearGradient
       id="linearGradient14"
       inkscape:collect="always">
      <stop
         style="stop-color:#37c871;stop-opacity:1"
         offset="0"
         id="stop12" />
      <stop
         style="stop-color:#00ccff;stop-opacity:1"
         offset="1"
         id="stop13" />
    </linearGradient>
    <filter
       id="filter2917-3"
       x="-0.96181147"
       y="-0.66745996"
       width="2.9236229"
       height="2.3349199"
       color-interpolation-filters="sRGB">
      <feGaussianBlur
         stdDeviation="0.2871969"
         id="feGaussianBlur732-5" />
    </filter>
    <filter
       id="filter1"
       x="-0.96181148"
       y="-0.66745996"
       width="2.9236228"
       height="2.3349199"
       color-interpolation-filters="sRGB">
      <feGaussianBlur
         stdDeviation="0.2871969"
         id="feGaussianBlur1" />
    </filter>
    <filter
       id="filter2"
       x="-0.96181148"
       y="-0.66745996"
       width="2.9236228"
       height="2.3349199"
       color-interpolation-filters="sRGB">
      <feGaussianBlur
         stdDeviation="0.2871969"
         id="feGaussianBlur2" />
    </filter>
  </defs>
  <sodipodi:namedview
     id="namedview14"
     pagecolor="#000000"
     bordercolor="#666666"
     borderopacity="1.0"
     inkscape:showpageshadow="2"
     inkscape:pageopacity="0.0"
     inkscape:pagecheckerboard="0"
     inkscape:deskcolor="#d1d1d1"
     showgrid="false"
     inkscape:zoom="5.2149125"
     inkscape:cx="23.20269"
     inkscape:cy="53.692176"
     inkscape:window-width="1920"
     inkscape:window-height="996"
     inkscape:window-x="0"
     inkscape:window-y="0"
     inkscape:window-maximized="1"
     inkscape:current-layer="svg12">
    <inkscape:grid
       type="xygrid"
       id="grid244"
       originx="9.7893915"
       originy="-31.749373"
       spacingy="1"
       spacingx="1"
       units="px"
       visible="false" />
  </sodipodi:namedview>
  <rect
     x="-12.025727"
     y="0.1490714"
     width="11.940627"
     height="11.936014"
     rx="1.6121091"
     stroke="url(#paint4_linear_77:23)"
     shape-rendering="crispEdges"
     id="rect5-6-7-3"
     ry="1.7735944"
     transform="matrix(0.00523883,-0.99998628,0.999988,0.00489859,0,0)"
     style="fill:#80b3ff;fill-opacity:0.15;stroke:url(#linearGradient13);stroke-width:0.188987;stroke-opacity:1" />
  <rect
     x="-3.7266586"
     y="4.6446943"
     width="7.912631"
     height="7.912384"
     rx="1.612043"
     shape-rendering="crispEdges"
     id="rect5-6-6-6-6"
     style="fill:#80b3ff;fill-opacity:0.122146;stroke:url(#linearGradient15);stroke-width:0.188987;stroke-opacity:1"
     ry="1.7735215"
     transform="matrix(0.72612649,-0.68756114,0.6879775,0.72573202,0,0)" />
  <path
     inkscape:connector-curvature="0"
     style="display:inline;fill:#8fdf86;fill-opacity:1;stroke-width:0.150505"
     d="M 7.004538,3.0549779 C 6.9810966,3.0169098 6.9060822,2.97371 6.9781641,2.9448978 7.0883408,2.8377782 7.2750844,2.8731616 7.3766168,2.9722147 7.5166818,3.0861055 7.643561,3.2784351 7.5412958,3.4475951 7.4571981,3.5769427 7.3139097,3.6603324 7.1986638,3.7652498 7.1467984,3.8081765 7.095813,3.8520395 7.0392592,3.8899378 7.2056965,3.9998074 7.3737746,4.1077503 7.5394498,4.2185974 7.7111614,4.0786674 7.8808217,3.9369327 8.039611,3.7847667 8.0659837,3.6677002 7.7794067,3.5701915 7.9977095,3.5049918 c 0.1737627,-0.081736 0.3472911,0.06158 0.4337623,0.1896788 0.092302,0.1208795 0.1280509,0.297775 0.00876,0.4157469 -0.1303952,0.1213076 -0.2874557,0.2165432 -0.4298355,0.32616 -0.047765,0.027336 0.067101,0.045754 0.092597,0.066866 C 8.343858,4.6130985 8.585983,4.7203506 8.835844,4.812117 8.9691694,4.866505 9.1083552,4.911189 9.238487,4.9708886 9.303837,5.0191726 9.4022905,5.0561876 9.3917396,5.1489265 9.3741631,5.2456885 9.2575543,5.259023 9.1708195,5.2467505 8.9170713,5.2361748 8.6617307,5.2298216 8.4089107,5.215012 8.2621051,5.1599634 8.1093521,5.1159305 7.9663277,5.0541172 7.5870971,4.8310308 7.18337,4.6316369 6.867696,4.3322775 6.7768589,4.2528868 6.6857284,4.1732904 6.5948913,4.0938838 6.398859,4.1963428 6.2091269,4.3196981 5.9895647,4.3751837 5.8676667,4.3396151 6.0698502,4.1897408 6.1073601,4.1322407 6.1776836,4.0397349 6.3236107,3.9535765 6.3619967,3.8650404 6.2995783,3.7911687 6.2172434,3.728497 6.1683086,3.6468855 6.1269918,3.5522625 6.1829593,3.4272948 6.3054433,3.4656762 c 0.062417,0.00612 0.1356695,-0.014808 0.1793303,0.038076 0.05333,0.038957 0.1066602,0.07791 0.1599904,0.1166432 0.090251,-0.08511 0.1907579,-0.1598274 0.290386,-0.235021 0.057437,-0.052955 0.1136928,-0.1066922 0.1415301,-0.1782487 0.035457,-0.05398 -0.040439,-0.11474 -0.07472,-0.1519981 z"
     id="path4111-0-5-6" />
  <path
     inkscape:connector-curvature="0"
     style="display:inline;fill:#8fdf86;fill-opacity:1;stroke-width:0.150505"
     d="M 4.0464113,3.3376369 C 4.1650855,3.3462169 4.2691086,3.4500519 4.3744501,3.506145 4.5575896,3.6257552 4.7455349,3.7395427 4.9252754,3.8634882 5.0673913,3.733929 5.2177123,3.6116575 5.3540267,3.4772065 5.4381234,3.3736845 5.5339426,3.2293349 5.4612729,3.1009795 5.3906543,3.0508442 5.3329291,2.9824311 5.2532266,2.944958 5.1723555,2.9136023 5.091771,2.8822756 5.0108965,2.8511733 5.0653995,2.714418 5.2541057,2.6767342 5.393614,2.6485783 c 0.1983766,-0.022234 0.3618541,0.092088 0.5040875,0.2011122 0.081756,0.06477 0.178158,0.1158023 0.2484838,0.1907411 0.101386,0.1126201 0.065346,0.2748237 -0.031056,0.3794213 C 5.8783666,3.7270236 5.5576824,3.9706221 5.2105376,4.1685801 4.760366,4.4220225 4.2960419,4.6730756 3.7817568,4.8008523 3.5625752,4.8503838 3.3289779,4.8616227 3.1068957,4.8221887 2.9433883,4.7686282 3.130336,4.6111374 3.2428579,4.6227753 3.4860659,4.5685904 3.7343156,4.5319563 3.9723676,4.4610487 4.1915487,4.388844 4.3925037,4.2766662 4.5752622,4.1460348 4.4179058,4.0037967 4.2600841,3.8603498 4.102203,3.719615 4.0055055,3.6139775 3.9688775,3.4618964 4.0465282,3.3375478 Z"
     id="path4109-6-6-2" />
  <path
     inkscape:connector-curvature="0"
     style="display:inline;fill:#8fdf86;fill-opacity:1;stroke-width:0.150505"
     d="m 5.3253983,4.8428998 c 0.064466,0.2515391 0.038681,0.5122429 0.041019,0.7682657 -0.026374,0.1989931 -0.026374,0.401505 -0.072083,0.597577 -0.037803,0.1812126 -0.2045304,0.3192166 -0.4047236,0.3401307 -0.335863,0.066243 -0.6795794,0.019026 -1.0177281,5.112e-4 -0.084681,-0.049757 -0.08146,0.037678 -0.098749,0.093355 -0.04102,0.1574995 -0.066519,0.3179853 -0.1128137,0.4745141 0.344595,0.031354 0.6928825,0.073862 1.0385031,0.042343 C 4.80988,7.1240555 4.9115589,7.0728085 5.0036265,7.0054886 5.1190773,6.9927856 5.265003,6.9170116 5.3530858,7.0245126 5.4802582,7.2256264 5.3955788,7.4611802 5.3794588,7.6776824 5.3357955,8.0008368 5.3284753,8.3406066 5.1429877,8.6298526 5.0342762,8.8583734 4.7547322,8.9856917 4.4884621,8.9721874 4.3510343,8.9747239 4.2127275,8.9848799 4.0786984,8.9501485 3.8929217,8.9289896 3.7171961,8.8622983 3.5737901,8.7520062 3.4302092,8.6742944 3.3332185,8.5335752 3.3030373,8.386067 3.2795963,8.304332 3.3909453,8.353677 3.4334322,8.373365 3.6107115,8.443268 3.7819249,8.5293894 3.9651229,8.584429 4.1122203,8.625921 4.27309,8.638449 4.4157045,8.575859 4.5311554,8.540498 4.6636019,8.508997 4.7115112,8.3916732 c 0.07824,-0.1619443 0.1095906,-0.339875 0.1421163,-0.5137394 0.02344,-0.1196148 0.02344,-0.2398112 0.00878,-0.3602866 -0.029887,-0.033201 -0.1233628,-0.00419 -0.1778651,-0.014818 -0.3912147,0 -0.7824009,0 -1.1735867,0 C 3.4040108,7.6226386 3.3070204,7.7509539 3.1934151,7.8653093 3.0225828,7.9408993 3.1078533,7.6413184 3.1125442,7.5591989 3.1986928,7.1260492 3.2766373,6.6903116 3.3806607,6.2608839 3.4219776,6.1395861 3.5705393,6.1397959 3.6838809,6.1508045 c 0.3092856,0.00215 0.620652,0.03878 0.92818,-0.00419 C 4.7401081,6.1440724 4.8180523,6.0540953 4.8303593,5.9465603 4.8954095,5.7534896 4.9373128,5.5543259 4.9396571,5.3520305 4.9660289,5.1826715 4.7571038,5.1435089 4.6159249,5.1378328 4.4292693,5.1526518 4.2403282,5.1505448 4.0568958,5.1842028 3.8315608,5.1499098 4.0539304,4.8413629 4.2171792,4.8457006 4.5141875,4.7760426 4.8223891,4.7644426 5.126137,4.7347715 c 0.08087,-0.00254 0.1743488,0.028166 0.1998414,0.1054237 z"
     id="path4107-2-2-9" />
  <path
     inkscape:connector-curvature="0"
     style="display:inline;fill:#8fdf86;fill-opacity:1;stroke-width:0.150505"
     d="m 6.0971042,4.8560501 c 0.1101765,-0.052691 0.2391065,-0.066019 0.3610627,-0.085981 0.2602046,-0.037082 0.5226654,-2.313e-4 0.7750756,0.058664 0.1239487,0.024577 0.2760277,0.056713 0.3277756,0.1754935 0.020512,0.099288 -0.046301,0.1896809 -0.072959,0.2832959 -0.066224,0.1973013 -0.1605767,0.3978806 -0.1438743,0.6081603 0.02344,0.1898867 0.2130278,0.3390058 0.412928,0.3681979 0.1333257,0.00856 0.2309023,-0.086788 0.3407565,-0.1403514 0.041018,-0.022038 0.078238,-0.056703 0.1295167,-0.041706 0.056844,0.00418 0.1136927,0.00612 0.170539,0.010606 0.119554,0.081482 0.079996,0.2384923 0.043662,0.3506311 C 8.3809352,6.6323065 8.1570621,6.7303468 7.9526786,6.7196512 7.6728384,6.7026917 7.375772,6.6004592 7.2111217,6.3837473 7.1214576,6.2522876 7.0742799,6.0998671 7.0300334,5.951505 7.0241234,5.8401525 7.0564044,5.7292898 7.0757434,5.619186 7.0903934,5.528582 7.1202824,5.433316 7.0903934,5.3430697 6.925128,5.3117138 6.7593066,5.2406088 6.5883273,5.283587 6.4769786,5.3130211 6.3547876,5.3457916 6.2697819,5.4184361 6.1807031,5.5374109 6.1944762,5.6876911 6.1610703,5.8233058 6.1314727,5.9674727 6.11917,6.1151285 6.0749215,6.2562252 6.0265732,6.4086457 5.8862143,6.5396859 5.7077343,6.5560253 5.6461982,6.5750496 5.4627665,6.5873812 5.5380735,6.490377 5.5840735,6.3851629 5.7059758,6.3290648 5.7610645,6.2281044 5.8756362,6.0339826 5.8671383,5.8054582 5.8765152,5.5914497 5.8882383,5.3971172 5.821426,5.1905018 5.9137277,5.0058775 5.9480103,4.9320145 6.0285929,4.8985513 6.0971601,4.8566355 Z"
     id="path4105-6-9-1" />
  <path
     inkscape:connector-curvature="0"
     style="display:inline;fill:#8fdf86;fill-opacity:1;stroke-width:0.150505"
     d="M 6.4472078,7.1238403 C 6.2866313,7.1026795 6.116883,7.1152551 5.9658886,7.054631 5.791246,6.9858509 5.9599768,6.8759579 6.0751859,6.8840027 6.2864554,6.8554757 6.500714,6.8437697 6.7135366,6.8287347 c 0.4513435,0.016965 0.9029799,0.029044 1.354177,0.047423 0.1596977,-0.00125 0.2370557,0.1579249 0.1784513,0.2810461 C 8.1708559,7.3614882 8.04603,7.5464325 7.9457281,7.7408323 7.9082181,7.8089973 7.8707131,7.8773769 7.8332072,7.9455424 8.1334974,8.0494832 8.4471202,8.1375518 8.7167306,8.300705 8.8433165,8.393856 8.7753366,8.5631612 8.7372446,8.6823673 8.6929959,8.7869401 8.6446474,8.9457996 8.4972578,8.9490757 8.3923546,8.919656 8.3076712,8.8485236 8.2118528,8.7998312 7.9616109,8.6552458 7.7111639,8.5107012 7.4608342,8.3661314 7.3770305,8.470924 7.2571835,8.5452339 7.1569401,8.6360459 6.9597354,8.7929191 6.7074131,8.8768298 6.4676324,8.9643024 6.2507958,8.9749015 6.0332845,8.9890701 5.8165349,8.9956565 5.6993259,8.9691796 5.5739117,8.9643024 5.4659331,8.912857 5.492306,8.8685938 5.5608724,8.8563499 5.6133235,8.840633 5.8849558,8.7525848 6.1689538,8.698382 6.4374221,8.6024618 6.6337473,8.5230476 6.8141325,8.410453 6.9573621,8.2640667 7.0566969,8.2111305 7.0206542,8.098732 6.9210243,8.0608397 6.7038963,7.9486744 6.4889345,7.8321531 6.2874514,7.697075 6.103726,7.5709041 5.9059647,7.458088 5.740348,7.3119553 5.6952229,7.2039862 5.9281761,7.2971359 5.9876596,7.3058089 6.4405857,7.4360034 6.8787136,7.6047868 7.3180725,7.7682794 7.3995328,7.6435056 7.5015049,7.5232839 7.5395977,7.3803646 7.5542515,7.2922872 7.4692704,7.2482484 7.3872257,7.2454952 7.2161004,7.2118271 7.0449747,7.1790175 6.8701283,7.167408 6.728891,7.1525689 6.5876538,7.1386179 6.4463578,7.1239838 Z"
     id="path4103-1-1-2" />
</svg>
