<?xml version="1.0" encoding="UTF-8" standalone="no"?>
<svg
   width="45.999886"
   height="45.999989"
   version="1.1"
   viewBox="0 0 12.170564 12.170591"
   id="svg12"
   sodipodi:docname="kalzium.svg"
   inkscape:version="1.3.2 (091e20ef0f, 2023-11-25)"
   xmlns:inkscape="http://www.inkscape.org/namespaces/inkscape"
   xmlns:sodipodi="http://sodipodi.sourceforge.net/DTD/sodipodi-0.dtd"
   xmlns:xlink="http://www.w3.org/1999/xlink"
   xmlns="http://www.w3.org/2000/svg"
   xmlns:svg="http://www.w3.org/2000/svg">
  <defs
     id="defs16">
    <linearGradient
       id="linearGradient3"
       inkscape:collect="always">
      <stop
         style="stop-color:#00aad4;stop-opacity:1"
         offset="0"
         id="stop3" />
      <stop
         style="stop-color:#aa87de;stop-opacity:1"
         offset="1"
         id="stop4" />
    </linearGradient>
    <linearGradient
       id="linearGradient1"
       inkscape:collect="always">
      <stop
         style="stop-color:#8d5fd3;stop-opacity:1"
         offset="0"
         id="stop1" />
      <stop
         style="stop-color:#ffb769;stop-opacity:0;"
         offset="1"
         id="stop2" />
    </linearGradient>
    <linearGradient
       id="c"
       y1="523.79999"
       x1="403.57001"
       y2="536.79999"
       x2="416.57001"
       gradientUnits="userSpaceOnUse"
       gradientTransform="matrix(0.34526714,0,0,0.34526706,-134.80427,-174.63325)">
      <stop
         stop-color="#292c2f"
         id="stop1568" />
      <stop
         offset="1"
         stop-opacity="0"
         id="stop1570" />
    </linearGradient>
    <linearGradient
       xlink:href="#b-2"
       id="linearGradient4189"
       x1="14.369"
       y1="22.521999"
       x2="26.521999"
       y2="22.521999"
       gradientUnits="userSpaceOnUse" />
    <linearGradient
       x1="36"
       gradientUnits="userSpaceOnUse"
       x2="14"
       y2="12"
       y1="44"
       id="b-2">
      <stop
         style="stop-color:#bfc9c9;stop-opacity:1"
         stop-color="#536161"
         id="stop1579" />
      <stop
         style="stop-color:#fbfbfb;stop-opacity:1"
         stop-color="#f4f5f5"
         offset="1"
         id="stop1581" />
    </linearGradient>
    <linearGradient
       xlink:href="#b-2"
       id="linearGradient4428"
       gradientUnits="userSpaceOnUse"
       x1="31.586"
       y1="36.345001"
       x2="1.2029999"
       y2="6.723" />
    <linearGradient
       xlink:href="#b-2"
       id="linearGradient4189-3"
       x1="14.369"
       y1="22.521999"
       x2="26.521999"
       y2="22.521999"
       gradientUnits="userSpaceOnUse"
       gradientTransform="translate(20.841982,61.553822)" />
    <linearGradient
       xlink:href="#b-2"
       id="linearGradient4428-5"
       gradientUnits="userSpaceOnUse"
       x1="31.586"
       y1="36.345001"
       x2="1.2029999"
       y2="6.723"
       gradientTransform="translate(20.841982,61.553822)" />
    <linearGradient
       xlink:href="#b-2"
       id="linearGradient4189-3-3"
       x1="14.369"
       y1="22.521999"
       x2="26.521999"
       y2="22.521999"
       gradientUnits="userSpaceOnUse"
       gradientTransform="translate(4.376802,4.4211693)" />
    <linearGradient
       xlink:href="#b-2"
       id="linearGradient4428-5-5"
       gradientUnits="userSpaceOnUse"
       x1="31.586"
       y1="36.345001"
       x2="1.2029999"
       y2="6.723"
       gradientTransform="translate(4.376802,4.4211693)" />
    <linearGradient
       inkscape:collect="always"
       xlink:href="#linearGradient11"
       id="linearGradient13"
       x1="-43.819283"
       y1="23.120178"
       x2="-1.9547797"
       y2="23.120178"
       gradientUnits="userSpaceOnUse"
       gradientTransform="scale(0.26457813)" />
    <linearGradient
       id="linearGradient11"
       inkscape:collect="always">
      <stop
         style="stop-color:#9955ff;stop-opacity:0.65640396;"
         offset="0"
         id="stop4-3" />
      <stop
         style="stop-color:#00ccff;stop-opacity:1"
         offset="1"
         id="stop11" />
    </linearGradient>
    <linearGradient
       inkscape:collect="always"
       xlink:href="#linearGradient14"
       id="linearGradient15"
       x1="-9.6850061"
       y1="45.161198"
       x2="11.98815"
       y2="21.735205"
       gradientUnits="userSpaceOnUse"
       gradientTransform="scale(0.26457813)" />
    <linearGradient
       id="linearGradient14"
       inkscape:collect="always">
      <stop
         style="stop-color:#9955ff;stop-opacity:0.45197046;"
         offset="0"
         id="stop12" />
      <stop
         style="stop-color:#00ccff;stop-opacity:1"
         offset="1"
         id="stop13" />
    </linearGradient>
    <filter
       id="filter2917-3"
       x="-0.96181147"
       y="-0.66745996"
       width="2.9236229"
       height="2.3349199"
       color-interpolation-filters="sRGB">
      <feGaussianBlur
         stdDeviation="0.2871969"
         id="feGaussianBlur732-5" />
    </filter>
    <filter
       id="filter1"
       x="-0.96181148"
       y="-0.66745996"
       width="2.9236228"
       height="2.3349199"
       color-interpolation-filters="sRGB">
      <feGaussianBlur
         stdDeviation="0.2871969"
         id="feGaussianBlur1" />
    </filter>
    <filter
       id="filter2"
       x="-0.96181148"
       y="-0.66745996"
       width="2.9236228"
       height="2.3349199"
       color-interpolation-filters="sRGB">
      <feGaussianBlur
         stdDeviation="0.2871969"
         id="feGaussianBlur2" />
    </filter>
    <linearGradient
       inkscape:collect="always"
       xlink:href="#linearGradient1"
       id="linearGradient2"
       x1="3.383425"
       y1="6.0108846"
       x2="8.7871678"
       y2="6.0108846"
       gradientUnits="userSpaceOnUse" />
    <linearGradient
       inkscape:collect="always"
       xlink:href="#linearGradient3"
       id="linearGradient4"
       x1="2.7780704"
       y1="6.0108844"
       x2="9.3925238"
       y2="6.0108844"
       gradientUnits="userSpaceOnUse" />
  </defs>
  <sodipodi:namedview
     id="namedview14"
     pagecolor="#000000"
     bordercolor="#666666"
     borderopacity="1.0"
     inkscape:showpageshadow="2"
     inkscape:pageopacity="0.0"
     inkscape:pagecheckerboard="0"
     inkscape:deskcolor="#d1d1d1"
     showgrid="false"
     inkscape:zoom="5.2149125"
     inkscape:cx="13.423044"
     inkscape:cy="32.119427"
     inkscape:window-width="1920"
     inkscape:window-height="996"
     inkscape:window-x="0"
     inkscape:window-y="0"
     inkscape:window-maximized="1"
     inkscape:current-layer="svg12">
    <inkscape:grid
       type="xygrid"
       id="grid244"
       originx="9.7893915"
       originy="-31.749373"
       spacingy="1"
       spacingx="1"
       units="px"
       visible="false" />
  </sodipodi:namedview>
  <rect
     x="-12.025727"
     y="0.1490714"
     width="11.940627"
     height="11.936014"
     rx="1.6121091"
     stroke="url(#paint4_linear_77:23)"
     shape-rendering="crispEdges"
     id="rect5-6-7-3"
     ry="1.7735944"
     transform="matrix(0.00523883,-0.99998628,0.999988,0.00489859,0,0)"
     style="fill:#80b3ff;fill-opacity:0.15;stroke:url(#linearGradient13);stroke-width:0.188987;stroke-opacity:1" />
  <rect
     x="-3.7266586"
     y="4.6446943"
     width="7.912631"
     height="7.912384"
     rx="1.612043"
     shape-rendering="crispEdges"
     id="rect5-6-6-6-6"
     style="fill:#80b3ff;fill-opacity:0.122146;stroke:url(#linearGradient15);stroke-width:0.188987;stroke-opacity:1"
     ry="1.7735215"
     transform="matrix(0.72612649,-0.68756114,0.6879775,0.72573202,0,0)" />
  <path
     style="fill:url(#linearGradient2);stroke:#b2b2b2;stroke-width:0.793734;fill-opacity:1;stroke-opacity:1"
     d="M 8.5840888,4.5226356 3.586504,7.4991337 m 0,-2.9764981 4.9975848,2.9764981"
     id="path2" />
  <path
     style="opacity:0.2;stroke-width:0.264578"
     d="M 3.586504,3.8529189 A 0.8084333,0.81853869 0 0 0 2.7780704,4.6714605 0.8084333,0.81853869 0 0 0 3.586504,5.4899969 0.8084333,0.81853869 0 0 0 4.3949362,4.6714605 0.8084333,0.81853869 0 0 0 3.586504,3.8529189 Z m 4.9975848,0 A 0.8084333,0.81853869 0 0 0 7.7756568,4.6714605 0.8084333,0.81853869 0 0 0 8.5840888,5.4899969 0.8084333,0.81853869 0 0 0 9.3925238,4.6714605 0.8084333,0.81853869 0 0 0 8.5840888,3.8529189 Z M 6.0852967,4.8946982 A 1.2493966,1.265014 0 0 0 4.8358999,6.1597098 1.2493966,1.265014 0 0 0 6.0852967,7.4247242 1.2493966,1.265014 0 0 0 7.3346939,6.1597098 1.2493966,1.265014 0 0 0 6.0852967,4.8946982 Z M 3.586504,6.8294202 A 0.8084333,0.81853869 0 0 0 2.7780704,7.6479659 0.8084333,0.81853869 0 0 0 3.586504,8.4665003 0.8084333,0.81853869 0 0 0 4.3949362,7.6479659 0.8084333,0.81853869 0 0 0 3.586504,6.8294202 Z m 4.9975848,0 a 0.8084333,0.81853869 0 0 0 -0.808432,0.8185457 0.8084333,0.81853869 0 0 0 0.808432,0.8185344 0.8084333,0.81853869 0 0 0 0.808435,-0.8185344 0.8084333,0.81853869 0 0 0 -0.808435,-0.8185457 z"
     id="path3" />
  <path
     style="fill:url(#linearGradient4);stroke-width:0.264578;fill-opacity:1"
     d="M 3.586504,3.7040939 A 0.8084333,0.81853869 0 0 0 2.7780704,4.5226356 0.8084333,0.81853869 0 0 0 3.586504,5.341172 0.8084333,0.81853869 0 0 0 4.3949362,4.5226356 0.8084333,0.81853869 0 0 0 3.586504,3.7040939 Z m 4.9975848,0 A 0.8084333,0.81853869 0 0 0 7.7756568,4.5226356 0.8084333,0.81853869 0 0 0 8.5840888,5.341172 0.8084333,0.81853869 0 0 0 9.3925238,4.5226356 0.8084333,0.81853869 0 0 0 8.5840888,3.7040939 Z M 6.0852967,4.7458673 A 1.2493966,1.265014 0 0 0 4.8358999,6.0108838 1.2493966,1.265014 0 0 0 6.0852967,7.2759021 1.2493966,1.265014 0 0 0 7.3346939,6.0108838 1.2493966,1.265014 0 0 0 6.0852967,4.7458673 Z M 3.586504,6.6805971 A 0.8084333,0.81853869 0 0 0 2.7780704,7.4991337 0.8084333,0.81853869 0 0 0 3.586504,8.3176749 0.8084333,0.81853869 0 0 0 4.3949362,7.4991337 0.8084333,0.81853869 0 0 0 3.586504,6.6805971 Z m 4.9975848,0 a 0.8084333,0.81853869 0 0 0 -0.808432,0.8185366 0.8084333,0.81853869 0 0 0 0.808432,0.8185412 0.8084333,0.81853869 0 0 0 0.808435,-0.8185412 0.8084333,0.81853869 0 0 0 -0.808435,-0.8185366 z"
     id="path4" />
</svg>
