<?xml version="1.0" encoding="UTF-8" standalone="no"?>
<svg
   width="45.999886"
   height="45.999989"
   version="1.1"
   viewBox="0 0 12.170564 12.170591"
   id="svg12"
   sodipodi:docname="kapptemplate.svg"
   inkscape:version="1.3.2 (091e20ef0f, 2023-11-25)"
   xmlns:inkscape="http://www.inkscape.org/namespaces/inkscape"
   xmlns:sodipodi="http://sodipodi.sourceforge.net/DTD/sodipodi-0.dtd"
   xmlns:xlink="http://www.w3.org/1999/xlink"
   xmlns="http://www.w3.org/2000/svg"
   xmlns:svg="http://www.w3.org/2000/svg">
  <defs
     id="defs16">
    <linearGradient
       id="c"
       y1="523.79999"
       x1="403.57001"
       y2="536.79999"
       x2="416.57001"
       gradientUnits="userSpaceOnUse"
       gradientTransform="matrix(0.09135013,0,0,0.09135011,-37.518309,-48.056186)">
      <stop
         stop-color="#292c2f"
         id="stop1568" />
      <stop
         offset="1"
         stop-opacity="0"
         id="stop1570" />
    </linearGradient>
    <linearGradient
       xlink:href="#b-2"
       id="linearGradient4189"
       x1="14.369"
       y1="22.521999"
       x2="26.521999"
       y2="22.521999"
       gradientUnits="userSpaceOnUse" />
    <linearGradient
       x1="36"
       gradientUnits="userSpaceOnUse"
       x2="14"
       y2="12"
       y1="44"
       id="b-2">
      <stop
         style="stop-color:#bfc9c9;stop-opacity:1"
         stop-color="#536161"
         id="stop1579" />
      <stop
         style="stop-color:#fbfbfb;stop-opacity:1"
         stop-color="#f4f5f5"
         offset="1"
         id="stop1581" />
    </linearGradient>
    <linearGradient
       xlink:href="#b-2"
       id="linearGradient4428"
       gradientUnits="userSpaceOnUse"
       x1="31.586"
       y1="36.345001"
       x2="1.2029999"
       y2="6.723" />
    <linearGradient
       xlink:href="#b-2"
       id="linearGradient4189-3"
       x1="14.369"
       y1="22.521999"
       x2="26.521999"
       y2="22.521999"
       gradientUnits="userSpaceOnUse"
       gradientTransform="translate(20.841982,61.553822)" />
    <linearGradient
       xlink:href="#b-2"
       id="linearGradient4428-5"
       gradientUnits="userSpaceOnUse"
       x1="31.586"
       y1="36.345001"
       x2="1.2029999"
       y2="6.723"
       gradientTransform="translate(20.841982,61.553822)" />
    <linearGradient
       xlink:href="#b-2"
       id="linearGradient4189-3-3"
       x1="14.369"
       y1="22.521999"
       x2="26.521999"
       y2="22.521999"
       gradientUnits="userSpaceOnUse"
       gradientTransform="translate(4.376802,4.4211693)" />
    <linearGradient
       xlink:href="#b-2"
       id="linearGradient4428-5-5"
       gradientUnits="userSpaceOnUse"
       x1="31.586"
       y1="36.345001"
       x2="1.2029999"
       y2="6.723"
       gradientTransform="translate(4.376802,4.4211693)" />
    <linearGradient
       inkscape:collect="always"
       xlink:href="#linearGradient11"
       id="linearGradient13"
       x1="-43.819283"
       y1="23.120178"
       x2="-1.9547797"
       y2="23.120178"
       gradientUnits="userSpaceOnUse"
       gradientTransform="scale(0.26457813)" />
    <linearGradient
       id="linearGradient11"
       inkscape:collect="always">
      <stop
         style="stop-color:#37c871;stop-opacity:1"
         offset="0"
         id="stop4-3" />
      <stop
         style="stop-color:#00ccff;stop-opacity:1"
         offset="1"
         id="stop11" />
    </linearGradient>
    <linearGradient
       inkscape:collect="always"
       xlink:href="#linearGradient14"
       id="linearGradient15"
       x1="-9.6850061"
       y1="45.161198"
       x2="11.98815"
       y2="21.735205"
       gradientUnits="userSpaceOnUse"
       gradientTransform="scale(0.26457813)" />
    <linearGradient
       id="linearGradient14"
       inkscape:collect="always">
      <stop
         style="stop-color:#37c871;stop-opacity:1"
         offset="0"
         id="stop12" />
      <stop
         style="stop-color:#00ccff;stop-opacity:1"
         offset="1"
         id="stop13" />
    </linearGradient>
    <filter
       id="filter2917-3"
       x="-0.96181147"
       y="-0.66745996"
       width="2.9236229"
       height="2.3349199"
       color-interpolation-filters="sRGB">
      <feGaussianBlur
         stdDeviation="0.2871969"
         id="feGaussianBlur732-5" />
    </filter>
    <filter
       id="filter1"
       x="-0.96181148"
       y="-0.66745996"
       width="2.9236228"
       height="2.3349199"
       color-interpolation-filters="sRGB">
      <feGaussianBlur
         stdDeviation="0.2871969"
         id="feGaussianBlur1" />
    </filter>
    <filter
       id="filter2"
       x="-0.96181148"
       y="-0.66745996"
       width="2.9236228"
       height="2.3349199"
       color-interpolation-filters="sRGB">
      <feGaussianBlur
         stdDeviation="0.2871969"
         id="feGaussianBlur2" />
    </filter>
    <linearGradient
       id="a"
       gradientUnits="userSpaceOnUse"
       x1="45"
       x2="0"
       y1="45"
       y2="3"
       gradientTransform="matrix(1.049854,0,0,1.0499253,88.091637,-7.7170607)">
      <stop
         offset="0"
         stop-color="#b0b8b8"
         id="stop2" />
      <stop
         offset="1"
         stop-color="#eff1f1"
         id="stop4" />
    </linearGradient>
    <linearGradient
       id="e"
       gradientUnits="userSpaceOnUse"
       x1="4"
       x2="4"
       y1="3"
       y2="45"
       gradientTransform="matrix(1.049854,0,0,1.0499253,88.091637,-7.7170607)">
      <stop
         offset="0"
         stop-color="#292c2f"
         id="stop12-3" />
      <stop
         offset="1"
         stop-opacity="0"
         id="stop14" />
    </linearGradient>
    <linearGradient
       id="b"
       gradientUnits="userSpaceOnUse"
       x1="4"
       x2="4"
       y1="45"
       y2="3"
       gradientTransform="matrix(1.049854,0,0,1.0499253,88.091637,-7.7170607)">
      <stop
         offset="0"
         stop-color="#197cf1"
         id="stop7" />
      <stop
         offset="1"
         stop-color="#21c9fb"
         id="stop9" />
    </linearGradient>
    <linearGradient
       id="f"
       gradientUnits="userSpaceOnUse"
       x1="4"
       x2="4"
       y1="45"
       y2="3"
       gradientTransform="matrix(1.049854,0,0,1.0499253,88.091637,-7.7170607)">
      <stop
         offset="0"
         stop-color="#7cbaf8"
         id="stop17" />
      <stop
         offset="1"
         stop-color="#f4fcff"
         id="stop19" />
    </linearGradient>
  </defs>
  <sodipodi:namedview
     id="namedview14"
     pagecolor="#000000"
     bordercolor="#666666"
     borderopacity="1.0"
     inkscape:showpageshadow="2"
     inkscape:pageopacity="0.0"
     inkscape:pagecheckerboard="0"
     inkscape:deskcolor="#d1d1d1"
     showgrid="false"
     inkscape:zoom="5.2149125"
     inkscape:cx="23.20269"
     inkscape:cy="69.032798"
     inkscape:window-width="1920"
     inkscape:window-height="996"
     inkscape:window-x="0"
     inkscape:window-y="0"
     inkscape:window-maximized="1"
     inkscape:current-layer="svg12">
    <inkscape:grid
       type="xygrid"
       id="grid244"
       originx="9.7893915"
       originy="-31.749373"
       spacingy="1"
       spacingx="1"
       units="px"
       visible="false" />
  </sodipodi:namedview>
  <rect
     x="-12.025727"
     y="0.1490714"
     width="11.940627"
     height="11.936014"
     rx="1.6121091"
     stroke="url(#paint4_linear_77:23)"
     shape-rendering="crispEdges"
     id="rect5-6-7-3"
     ry="1.7735944"
     transform="matrix(0.00523883,-0.99998628,0.999988,0.00489859,0,0)"
     style="fill:#80b3ff;fill-opacity:0.15;stroke:url(#linearGradient13);stroke-width:0.188987;stroke-opacity:1" />
  <rect
     x="-3.7266586"
     y="4.6446943"
     width="7.912631"
     height="7.912384"
     rx="1.612043"
     shape-rendering="crispEdges"
     id="rect5-6-6-6-6"
     style="fill:#80b3ff;fill-opacity:0.122146;stroke:url(#linearGradient15);stroke-width:0.188987;stroke-opacity:1"
     ry="1.7735215"
     transform="matrix(0.72612649,-0.68756114,0.6879775,0.72573202,0,0)" />
  <path
     style="fill:#aaeeff;stroke-width:0.277777;fill-opacity:1"
     d="m 6.0852847,2.6457941 a 3.4390483,3.4392817 0 0 0 -0.3525006,0.017151 l -0.077376,0.533087 A 2.9231921,2.9233903 0 0 0 5.0191816,3.3679941 L 4.6752775,2.9484133 a 3.4390483,3.4392817 0 0 0 -0.6018336,0.350809 l 0.189148,0.4986953 A 2.9231921,2.9233903 0 0 0 3.7983209,4.2622183 L 3.2996531,4.0730662 A 3.4390483,3.4392817 0 0 0 2.9557543,4.6749446 L 3.366292,5.01887 A 2.9231921,2.9233903 0 0 0 3.2652627,5.3284042 2.9231921,2.9233903 0 0 0 3.196512,5.6551409 l -0.5330576,0.077345 a 3.4390483,3.4392817 0 0 0 0,0.6964524 L 3.196512,6.5149313 A 2.9231921,2.9233903 0 0 0 3.3684579,7.1511984 L 2.9488966,7.4951259 A 3.4390483,3.4392817 0 0 0 3.2996791,8.0970036 L 3.7983477,7.9078367 A 2.9231921,2.9233903 0 0 0 4.2626185,8.3721445 L 4.0734704,8.8708424 a 3.4390483,3.4392817 0 0 0 0.6087126,0.349086 l 0.337018,-0.417867 a 2.9231921,2.9233903 0 0 0 0.3095147,0.1031689 2.9231921,2.9233903 0 0 0 0.3267105,0.068827 l 0.077377,0.5330834 a 3.4390483,3.4392817 0 0 0 0.696406,0 l 0.085973,-0.533086 A 2.9231921,2.9233903 0 0 0 7.151405,8.8020904 L 7.4901511,9.2233996 A 3.4390483,3.4392817 0 0 0 8.1000357,8.8708665 L 7.9080015,8.3721661 A 2.9231921,2.9233903 0 0 0 8.3722718,7.9078609 L 8.8709346,8.0970308 A 3.4390483,3.4392817 0 0 0 9.2199884,7.488264 L 8.8021327,7.1512207 a 2.9231921,2.9233903 0 0 0 0.1031698,-0.309533 2.9231921,2.9233903 0 0 0 0.068783,-0.3267364 l 0.5330521,-0.085998 a 3.4390483,3.4392817 0 0 0 0,-0.6964528 L 8.9740865,5.6551532 A 2.9231921,2.9233903 0 0 0 8.8021338,5.018886 L 9.2234159,4.6749513 A 3.4390483,3.4392817 0 0 0 8.8709131,4.0730832 L 8.3722507,4.2622458 A 2.9231921,2.9233903 0 0 0 7.9079828,3.7979456 L 8.0971283,3.2992512 A 3.4390483,3.4392817 0 0 0 7.4952997,2.9553079 L 7.1513946,3.3658718 A 2.9231921,2.9233903 0 0 0 6.8418802,3.2648573 2.9231921,2.9233903 0 0 0 6.5151709,3.1960635 L 6.4291953,2.662987 A 3.4390483,3.4392817 0 0 0 6.0852902,2.6458648 Z M 6.0637939,3.6775779 A 2.4073343,2.4074987 0 0 1 6.7043169,3.7635725 2.4073343,2.4074987 0 0 1 8.4066448,6.704168 2.4073343,2.4074987 0 0 1 5.4662591,8.4065992 2.4073343,2.4074987 0 0 1 3.7639302,5.4660151 2.4073343,2.4074987 0 0 1 6.063794,3.6775947 Z"
     id="path24-1" />
  <path
     style="fill:#aaeeff;fill-opacity:1;stroke-width:0.277779"
     d="M 5.1682857,4.4978283 V 7.6727659 L 7.4081877,6.0852972 Z"
     id="path32-9" />
</svg>
