<?xml version="1.0" encoding="UTF-8" standalone="no"?>
<svg
   width="45.999886"
   height="45.999989"
   version="1.1"
   viewBox="0 0 12.170564 12.170591"
   id="svg12"
   sodipodi:docname="kate.svg"
   inkscape:version="1.3.2 (091e20ef0f, 2023-11-25)"
   xmlns:inkscape="http://www.inkscape.org/namespaces/inkscape"
   xmlns:sodipodi="http://sodipodi.sourceforge.net/DTD/sodipodi-0.dtd"
   xmlns:xlink="http://www.w3.org/1999/xlink"
   xmlns="http://www.w3.org/2000/svg"
   xmlns:svg="http://www.w3.org/2000/svg">
  <defs
     id="defs16">
    <linearGradient
       id="c"
       y1="523.79999"
       x1="403.57001"
       y2="536.79999"
       x2="416.57001"
       gradientUnits="userSpaceOnUse"
       gradientTransform="matrix(0.34526714,0,0,0.34526706,-134.80427,-174.63325)">
      <stop
         stop-color="#292c2f"
         id="stop1568" />
      <stop
         offset="1"
         stop-opacity="0"
         id="stop1570" />
    </linearGradient>
    <linearGradient
       xlink:href="#b-2"
       id="linearGradient4189"
       x1="14.369"
       y1="22.521999"
       x2="26.521999"
       y2="22.521999"
       gradientUnits="userSpaceOnUse" />
    <linearGradient
       x1="36"
       gradientUnits="userSpaceOnUse"
       x2="14"
       y2="12"
       y1="44"
       id="b-2">
      <stop
         style="stop-color:#bfc9c9;stop-opacity:1"
         stop-color="#536161"
         id="stop1579" />
      <stop
         style="stop-color:#fbfbfb;stop-opacity:1"
         stop-color="#f4f5f5"
         offset="1"
         id="stop1581" />
    </linearGradient>
    <linearGradient
       xlink:href="#b-2"
       id="linearGradient4428"
       gradientUnits="userSpaceOnUse"
       x1="31.586"
       y1="36.345001"
       x2="1.2029999"
       y2="6.723" />
    <linearGradient
       xlink:href="#b-2"
       id="linearGradient4189-3"
       x1="14.369"
       y1="22.521999"
       x2="26.521999"
       y2="22.521999"
       gradientUnits="userSpaceOnUse"
       gradientTransform="translate(20.841982,61.553822)" />
    <linearGradient
       xlink:href="#b-2"
       id="linearGradient4428-5"
       gradientUnits="userSpaceOnUse"
       x1="31.586"
       y1="36.345001"
       x2="1.2029999"
       y2="6.723"
       gradientTransform="translate(20.841982,61.553822)" />
    <linearGradient
       xlink:href="#b-2"
       id="linearGradient4189-3-3"
       x1="14.369"
       y1="22.521999"
       x2="26.521999"
       y2="22.521999"
       gradientUnits="userSpaceOnUse"
       gradientTransform="translate(4.376802,4.4211693)" />
    <linearGradient
       xlink:href="#b-2"
       id="linearGradient4428-5-5"
       gradientUnits="userSpaceOnUse"
       x1="31.586"
       y1="36.345001"
       x2="1.2029999"
       y2="6.723"
       gradientTransform="translate(4.376802,4.4211693)" />
    <linearGradient
       inkscape:collect="always"
       xlink:href="#linearGradient11"
       id="linearGradient13"
       x1="-43.819283"
       y1="23.120178"
       x2="-1.9547797"
       y2="23.120178"
       gradientUnits="userSpaceOnUse"
       gradientTransform="scale(0.26457813)" />
    <linearGradient
       id="linearGradient11"
       inkscape:collect="always">
      <stop
         style="stop-color:#9955ff;stop-opacity:0.69999999;"
         offset="0"
         id="stop4-3" />
      <stop
         style="stop-color:#00a2cc;stop-opacity:1;"
         offset="1"
         id="stop11" />
    </linearGradient>
    <linearGradient
       inkscape:collect="always"
       xlink:href="#linearGradient14"
       id="linearGradient15"
       x1="-9.6850061"
       y1="45.161198"
       x2="11.98815"
       y2="21.735205"
       gradientUnits="userSpaceOnUse"
       gradientTransform="scale(0.26457813)" />
    <linearGradient
       id="linearGradient14"
       inkscape:collect="always">
      <stop
         style="stop-color:#9955ff;stop-opacity:0.69999999;"
         offset="0"
         id="stop12" />
      <stop
         style="stop-color:#008fb2;stop-opacity:1;"
         offset="1"
         id="stop13" />
    </linearGradient>
    <filter
       id="filter2917-3"
       x="-0.96181147"
       y="-0.66745996"
       width="2.9236229"
       height="2.3349199"
       color-interpolation-filters="sRGB">
      <feGaussianBlur
         stdDeviation="0.2871969"
         id="feGaussianBlur732-5" />
    </filter>
    <filter
       id="filter1"
       x="-0.96181148"
       y="-0.66745996"
       width="2.9236228"
       height="2.3349199"
       color-interpolation-filters="sRGB">
      <feGaussianBlur
         stdDeviation="0.2871969"
         id="feGaussianBlur1" />
    </filter>
    <filter
       id="filter2"
       x="-0.96181148"
       y="-0.66745996"
       width="2.9236228"
       height="2.3349199"
       color-interpolation-filters="sRGB">
      <feGaussianBlur
         stdDeviation="0.2871969"
         id="feGaussianBlur2" />
    </filter>
    <linearGradient
       id="c-0"
       x1="61.163261"
       x2="64.927658"
       y1="105.1096"
       y2="109.0449"
       gradientUnits="userSpaceOnUse"
       gradientTransform="matrix(2.1808333,0,0,2.2353034,-113.73169,-222.90456)">
      <stop
         stop-color="#e6e6e6"
         offset="0"
         id="stop3337-2" />
      <stop
         stop-color="#b3b3b3"
         offset="1"
         id="stop3339-3" />
    </linearGradient>
    <linearGradient
       id="d-7"
       x1="77.166962"
       x2="64.371704"
       y1="115.71481"
       y2="112.00438"
       gradientUnits="userSpaceOnUse"
       gradientTransform="matrix(2.1808333,0,0,2.2353034,-113.73169,-222.90456)">
      <stop
         stop-color="#0cf"
         offset="0"
         id="stop3342-9" />
      <stop
         stop-color="#2a7fff"
         offset="1"
         id="stop3344-2" />
    </linearGradient>
    <linearGradient
       id="e-2"
       x1="68.7071"
       x2="75.81916"
       y1="113.06454"
       y2="117.91264"
       gradientUnits="userSpaceOnUse"
       xlink:href="#linearGradient899"
       gradientTransform="matrix(2.1808333,0,0,2.2353034,-113.73169,-222.90456)" />
    <linearGradient
       id="linearGradient899">
      <stop
         stop-color="#2a7fff"
         offset="0"
         id="stop3327-6" />
      <stop
         stop-color="#0cf"
         offset="1"
         id="stop3329-2" />
    </linearGradient>
    <linearGradient
       id="g-6"
       x1="77.401382"
       x2="68.670082"
       y1="106.36805"
       y2="120.35797"
       gradientUnits="userSpaceOnUse"
       xlink:href="#linearGradient905"
       gradientTransform="matrix(2.1808333,0,0,2.2353034,-113.73169,-222.90456)" />
    <linearGradient
       id="linearGradient905">
      <stop
         stop-color="#fff"
         offset="0"
         id="stop3348-9" />
      <stop
         stop-color="#b3b3b3"
         offset="1"
         id="stop3350-1" />
    </linearGradient>
    <linearGradient
       id="h-3"
       x1="68.228661"
       x2="68.16433"
       y1="112.73174"
       y2="118.55463"
       gradientUnits="userSpaceOnUse"
       gradientTransform="matrix(2.1808333,0,0,2.2353034,-113.73169,-222.90456)">
      <stop
         stop-color="#b3b3b3"
         offset="0"
         id="stop3354-6" />
      <stop
         stop-color="#fff"
         offset="1"
         id="stop3356-0" />
    </linearGradient>
    <linearGradient
       id="i-7"
       x1="63.36673"
       x2="71.135635"
       y1="106.86487"
       y2="104.88973"
       gradientUnits="userSpaceOnUse"
       xlink:href="#linearGradient905"
       gradientTransform="matrix(2.1808333,0,0,2.2353034,-113.73169,-222.90456)" />
    <linearGradient
       id="j-9"
       x1="66.951469"
       x2="66.335762"
       y1="104.46095"
       y2="109.66759"
       gradientUnits="userSpaceOnUse"
       gradientTransform="matrix(2.1808333,0,0,2.2353034,-113.73169,-222.90456)">
      <stop
         stop-color="#ccc"
         offset="0"
         id="stop3360-1" />
      <stop
         stop-color="#b3b3b3"
         offset="1"
         id="stop3362-2" />
    </linearGradient>
    <linearGradient
       id="k-5"
       x1="62.960659"
       x2="77.488457"
       y1="115.88342"
       y2="107.31376"
       gradientUnits="userSpaceOnUse"
       gradientTransform="matrix(2.1808333,0,0,2.2353034,-113.73169,-222.90456)">
      <stop
         stop-color="#e6e6e6"
         offset="0"
         id="stop3365-6" />
      <stop
         stop-color="#fff"
         offset="1"
         id="stop3367-2" />
    </linearGradient>
  </defs>
  <sodipodi:namedview
     id="namedview14"
     pagecolor="#000000"
     bordercolor="#666666"
     borderopacity="1.0"
     inkscape:showpageshadow="2"
     inkscape:pageopacity="0.0"
     inkscape:pagecheckerboard="0"
     inkscape:deskcolor="#d1d1d1"
     showgrid="false"
     inkscape:zoom="5.2149125"
     inkscape:cx="23.20269"
     inkscape:cy="53.692176"
     inkscape:window-width="1920"
     inkscape:window-height="996"
     inkscape:window-x="0"
     inkscape:window-y="0"
     inkscape:window-maximized="1"
     inkscape:current-layer="svg12">
    <inkscape:grid
       type="xygrid"
       id="grid244"
       originx="9.7893915"
       originy="-31.749373"
       spacingy="1"
       spacingx="1"
       units="px"
       visible="false" />
  </sodipodi:namedview>
  <rect
     x="-12.025727"
     y="0.1490714"
     width="11.940627"
     height="11.936014"
     rx="1.6121091"
     stroke="url(#paint4_linear_77:23)"
     shape-rendering="crispEdges"
     id="rect5-6-7-3"
     ry="1.7735944"
     transform="matrix(0.00523883,-0.99998628,0.999988,0.00489859,0,0)"
     style="fill:#b380ff;fill-opacity:0.15;stroke:url(#linearGradient13);stroke-width:0.188987;stroke-opacity:1" />
  <rect
     x="-3.7266586"
     y="4.6446943"
     width="7.912631"
     height="7.912384"
     rx="1.612043"
     shape-rendering="crispEdges"
     id="rect5-6-6-6-6"
     style="fill:#b380ff;fill-opacity:0.122146;stroke:url(#linearGradient15);stroke-width:0.188987;stroke-opacity:1"
     ry="1.7735215"
     transform="matrix(0.72612649,-0.68756114,0.6879775,0.72573202,0,0)" />
  <g
     id="g2"
     transform="matrix(0.20758761,0,0,0.20704552,-0.00551997,0.69884072)"
     style="stroke-width:1.2762">
    <path
       d="m 22.699174,20.48243 c -1.359864,-4.514532 -9.044651,-3.419059 -10.32919,-3.517066 1.441744,-0.715682 2.744675,-1.305615 5.716914,-3.458729 5.725819,-4.147825 11.787946,-3.24324 14.823697,-1.596037 -8.299295,0.315492 -6.718218,4.836948 -5.495805,7.219342 -1.55455,0.451543 -4.008516,1.133186 -4.715616,1.35249 z"
       fill="url(#c)"
       id="path3382"
       style="fill:url(#c-0);stroke-width:0.584173" />
    <path
       d="m 43.18527,14.27023 c -2.988579,3.947552 -7.957411,9.280972 -13.395512,9.983514 -5.438098,0.702547 -10.62244,-0.07574 -11.823352,3.974298 -1.105923,3.729723 2.783723,7.211974 6.817949,6.372712 4.309811,-0.896609 3.379041,-5.781466 1.021744,-9.107947 1.790593,-0.102613 1.457516,-0.07609 4.493956,-0.229141 4.525992,3.857921 6.026176,4.957856 13.93336,10.586531 -6.093427,-0.638193 -8.311145,-1.224153 -12.681557,-3.83833 1.13216,2.84184 3.552037,9.291694 4.076211,14.29624 -2.520679,-3.622048 -3.476286,-4.953153 -7.382736,-7.566213 -5.003911,-3.347159 -9.0565,-3.460475 -11.402079,-8.391874 -2.340508,-4.920733 0.757475,-8.465332 6.301079,-10.00039 7.92222,-2.193718 14.748276,-4.273559 20.040937,-6.0794 z"
       fill="url(#d)"
       id="path3384"
       style="fill:url(#d-7);stroke-width:0.584173" />
    <path
       d="m 25.806099,25.492807 c 1.790593,-0.102613 1.457516,-0.07609 4.493956,-0.229141 4.525992,3.857921 6.026176,4.957856 13.93336,10.586531 -7.947776,-0.568552 -13.961281,-2.912586 -18.427316,-10.35739 z"
       fill="url(#e)"
       id="path3386"
       style="fill:url(#e-2);stroke-width:0.584173" />
    <path
       d="m 43.18527,14.27023 c -2.988579,3.947552 -7.957411,9.280972 -13.395512,9.983514 -5.438098,0.702547 -10.62244,-0.07574 -11.823352,3.974298 -1.105923,3.729723 2.783723,7.211974 6.817949,6.372712 4.309811,-0.896609 3.379041,-5.781466 1.021744,-9.107947 1.790593,-0.102613 1.457516,-0.07609 4.493956,-0.229141 4.525992,3.857921 6.026176,4.957856 13.93336,10.586531 -6.093427,-0.638193 -8.311145,-1.224153 -12.681557,-3.83833 1.13216,2.84184 3.552037,9.291694 4.076211,14.29624 -2.520679,-3.622048 -3.476286,-4.953153 -7.382736,-7.566213 -5.003911,-3.347159 -9.0565,-3.460475 -11.402079,-8.391874 -2.340508,-4.920733 0.757475,-8.465332 6.301079,-10.00039 7.92222,-2.193718 14.748276,-4.273559 20.040937,-6.0794 z"
       fill="url(#g)"
       id="path3388"
       style="fill:url(#g-6);stroke-width:0.584173" />
    <path
       d="m 25.806099,25.492807 c 1.790593,-0.102613 1.457516,-0.07609 4.493956,-0.229141 4.525992,3.857921 6.026176,4.957856 13.93336,10.586531 -7.947776,-0.568552 -13.961281,-2.912586 -18.427316,-10.35739 z"
       fill="url(#h)"
       id="path3390"
       style="fill:url(#h-3);stroke-width:0.584173" />
    <path
       d="m 12.369984,16.965364 c 1.441744,-0.715682 2.744675,-1.305615 5.716914,-3.458729 5.725819,-4.147825 11.787946,-3.24324 14.823697,-1.596037 -8.299295,0.315492 -7.229953,1.969111 -7.260579,3.265456 -5.514078,-1.162301 -7.124069,0.419117 -13.280032,1.78931 z"
       fill="url(#i)"
       id="path3392"
       style="fill:url(#i-7);stroke-width:0.584173" />
    <path
       d="m 32.910595,11.910598 c -8.299295,0.315492 -6.718218,4.836948 -5.495805,7.219342 -0.968479,0.281311 -2.018179,0.601788 -3.312839,0.944425 -5.223816,-9.307959 4.545085,-10.518867 8.808644,-8.163767 z"
       fill="url(#j)"
       id="path3394"
       style="fill:url(#j-9);stroke-width:0.584173" />
    <path
       d="M 18.337695,32.668841 C 14.276477,27.439525 15.026331,22.646389 22.978796,20.156038 30.826552,17.69847 37.892609,16.076071 43.18527,14.27023 28.902317,19.712343 11.017263,23.348746 18.337695,32.668841 Z"
       fill="url(#k)"
       id="path3396"
       style="fill:url(#k-5);stroke-width:0.584173" />
  </g>
</svg>
