<?xml version="1.0" encoding="UTF-8" standalone="no"?>
<svg
   width="45.999886"
   height="45.999989"
   version="1.1"
   viewBox="0 0 12.170564 12.170591"
   id="svg12"
   sodipodi:docname="kcachegrind.svg"
   inkscape:version="1.3.2 (091e20ef0f, 2023-11-25)"
   xmlns:inkscape="http://www.inkscape.org/namespaces/inkscape"
   xmlns:sodipodi="http://sodipodi.sourceforge.net/DTD/sodipodi-0.dtd"
   xmlns:xlink="http://www.w3.org/1999/xlink"
   xmlns="http://www.w3.org/2000/svg"
   xmlns:svg="http://www.w3.org/2000/svg">
  <defs
     id="defs16">
    <linearGradient
       id="c"
       y1="523.79999"
       x1="403.57001"
       y2="536.79999"
       x2="416.57001"
       gradientUnits="userSpaceOnUse"
       gradientTransform="matrix(0.34526714,0,0,0.34526706,-134.80427,-174.63325)">
      <stop
         stop-color="#292c2f"
         id="stop1568" />
      <stop
         offset="1"
         stop-opacity="0"
         id="stop1570" />
    </linearGradient>
    <linearGradient
       xlink:href="#b-2"
       id="linearGradient4189"
       x1="14.369"
       y1="22.521999"
       x2="26.521999"
       y2="22.521999"
       gradientUnits="userSpaceOnUse" />
    <linearGradient
       x1="36"
       gradientUnits="userSpaceOnUse"
       x2="14"
       y2="12"
       y1="44"
       id="b-2">
      <stop
         style="stop-color:#bfc9c9;stop-opacity:1"
         stop-color="#536161"
         id="stop1579" />
      <stop
         style="stop-color:#fbfbfb;stop-opacity:1"
         stop-color="#f4f5f5"
         offset="1"
         id="stop1581" />
    </linearGradient>
    <linearGradient
       xlink:href="#b-2"
       id="linearGradient4428"
       gradientUnits="userSpaceOnUse"
       x1="31.586"
       y1="36.345001"
       x2="1.2029999"
       y2="6.723" />
    <linearGradient
       xlink:href="#b-2"
       id="linearGradient4189-3"
       x1="14.369"
       y1="22.521999"
       x2="26.521999"
       y2="22.521999"
       gradientUnits="userSpaceOnUse"
       gradientTransform="translate(20.841982,61.553822)" />
    <linearGradient
       xlink:href="#b-2"
       id="linearGradient4428-5"
       gradientUnits="userSpaceOnUse"
       x1="31.586"
       y1="36.345001"
       x2="1.2029999"
       y2="6.723"
       gradientTransform="translate(20.841982,61.553822)" />
    <linearGradient
       xlink:href="#b-2"
       id="linearGradient4189-3-3"
       x1="14.369"
       y1="22.521999"
       x2="26.521999"
       y2="22.521999"
       gradientUnits="userSpaceOnUse"
       gradientTransform="translate(4.376802,4.4211693)" />
    <linearGradient
       xlink:href="#b-2"
       id="linearGradient4428-5-5"
       gradientUnits="userSpaceOnUse"
       x1="31.586"
       y1="36.345001"
       x2="1.2029999"
       y2="6.723"
       gradientTransform="translate(4.376802,4.4211693)" />
    <linearGradient
       inkscape:collect="always"
       xlink:href="#linearGradient11"
       id="linearGradient13"
       x1="-43.819283"
       y1="23.120178"
       x2="-1.9547797"
       y2="23.120178"
       gradientUnits="userSpaceOnUse"
       gradientTransform="scale(0.26457813)" />
    <linearGradient
       id="linearGradient11"
       inkscape:collect="always">
      <stop
         style="stop-color:#9955ff;stop-opacity:0.65640396;"
         offset="0"
         id="stop4-3" />
      <stop
         style="stop-color:#00ccff;stop-opacity:1"
         offset="1"
         id="stop11" />
    </linearGradient>
    <linearGradient
       inkscape:collect="always"
       xlink:href="#linearGradient14"
       id="linearGradient15"
       x1="-9.6850061"
       y1="45.161198"
       x2="11.98815"
       y2="21.735205"
       gradientUnits="userSpaceOnUse"
       gradientTransform="scale(0.26457813)" />
    <linearGradient
       id="linearGradient14"
       inkscape:collect="always">
      <stop
         style="stop-color:#9955ff;stop-opacity:0.45197046;"
         offset="0"
         id="stop12" />
      <stop
         style="stop-color:#00ccff;stop-opacity:1"
         offset="1"
         id="stop13" />
    </linearGradient>
    <filter
       id="filter2917-3"
       x="-0.96181147"
       y="-0.66745996"
       width="2.9236229"
       height="2.3349199"
       color-interpolation-filters="sRGB">
      <feGaussianBlur
         stdDeviation="0.2871969"
         id="feGaussianBlur732-5" />
    </filter>
    <filter
       id="filter1"
       x="-0.96181148"
       y="-0.66745996"
       width="2.9236228"
       height="2.3349199"
       color-interpolation-filters="sRGB">
      <feGaussianBlur
         stdDeviation="0.2871969"
         id="feGaussianBlur1" />
    </filter>
    <filter
       id="filter2"
       x="-0.96181148"
       y="-0.66745996"
       width="2.9236228"
       height="2.3349199"
       color-interpolation-filters="sRGB">
      <feGaussianBlur
         stdDeviation="0.2871969"
         id="feGaussianBlur2" />
    </filter>
    <linearGradient
       id="paint0_linear_714_6"
       x1="99.045197"
       y1="64.988403"
       x2="86.023804"
       y2="99.283302"
       gradientUnits="userSpaceOnUse"
       gradientTransform="scale(0.26457814)">
      <stop
         stop-color="#FE0F7C"
         id="stop2-3" />
      <stop
         offset="1"
         stop-color="#DF0066"
         id="stop3-6" />
    </linearGradient>
    <linearGradient
       id="paint1_linear_714_6"
       x1="64"
       y1="120.001"
       x2="64"
       y2="8"
       gradientUnits="userSpaceOnUse"
       gradientTransform="scale(0.26457814)">
      <stop
         stop-color="#5570FF"
         id="stop4-7" />
      <stop
         offset="1"
         stop-color="#4DD3FF"
         id="stop5" />
    </linearGradient>
  </defs>
  <sodipodi:namedview
     id="namedview14"
     pagecolor="#000000"
     bordercolor="#666666"
     borderopacity="1.0"
     inkscape:showpageshadow="2"
     inkscape:pageopacity="0.0"
     inkscape:pagecheckerboard="0"
     inkscape:deskcolor="#d1d1d1"
     showgrid="false"
     inkscape:zoom="5.2149125"
     inkscape:cx="13.423044"
     inkscape:cy="47.555927"
     inkscape:window-width="1920"
     inkscape:window-height="996"
     inkscape:window-x="0"
     inkscape:window-y="0"
     inkscape:window-maximized="1"
     inkscape:current-layer="svg12">
    <inkscape:grid
       type="xygrid"
       id="grid244"
       originx="9.7893915"
       originy="-31.749373"
       spacingy="1"
       spacingx="1"
       units="px"
       visible="false" />
  </sodipodi:namedview>
  <rect
     x="-12.025727"
     y="0.1490714"
     width="11.940627"
     height="11.936014"
     rx="1.6121091"
     stroke="url(#paint4_linear_77:23)"
     shape-rendering="crispEdges"
     id="rect5-6-7-3"
     ry="1.7735944"
     transform="matrix(0.00523883,-0.99998628,0.999988,0.00489859,0,0)"
     style="fill:#80b3ff;fill-opacity:0.15;stroke:url(#linearGradient13);stroke-width:0.188987;stroke-opacity:1" />
  <rect
     x="-3.7266586"
     y="4.6446943"
     width="7.912631"
     height="7.912384"
     rx="1.612043"
     shape-rendering="crispEdges"
     id="rect5-6-6-6-6"
     style="fill:#80b3ff;fill-opacity:0.122146;stroke:url(#linearGradient15);stroke-width:0.188987;stroke-opacity:1"
     ry="1.7735215"
     transform="matrix(0.72612649,-0.68756114,0.6879775,0.72573202,0,0)" />
  <path
     d="M 6.3653798,6.0852845 5.953008,6.5049756 7.5955328,8.0457951 8.0093958,7.6260984 Z"
     fill="url(#paint0_linear_714_6)"
     id="path1"
     style="fill:#b380ff;stroke-width:0.264578" />
  <path
     fill-rule="evenodd"
     clip-rule="evenodd"
     d="m 5.760156,2.9266297 c 0.1108446,-0.011222 0.2222618,-0.016724 0.3336733,-0.016241 0.1059405,3.9e-4 0.2117619,0.00616 0.3171354,0.017127 0.033263,0.00347 0.06444,0.017881 0.088643,0.040964 0.024203,0.023083 0.040072,0.053541 0.045124,0.086605 l 0.05551,0.3632171 c 0.01414,0.00257 0.028302,0.00505 0.042465,0.00753 0.048809,0.00855 0.097635,0.017105 0.1456383,0.029379 7.886e-4,1.928e-4 0.00157,3.855e-4 0.00236,5.897e-4 0.049228,0.013442 0.097283,0.030593 0.1453379,0.047737 h 5.7e-6 c 0.012569,0.00448 0.025144,0.00897 0.03773,0.013391 l 0.22737,-0.2840765 c 0.020938,-0.026125 0.04996,-0.044562 0.082503,-0.05242 0.032543,-0.00785 0.066775,-0.00469 0.097328,0.00901 0.1987505,0.088892 0.3878511,0.1978432 0.5642864,0.3254185 0.027134,0.019622 0.046983,0.047692 0.056445,0.07981 0.00946,0.032123 0.00799,0.066475 -0.00418,0.097669 L 7.8625853,4.0390187 c 0.09552,0.083501 0.1845708,0.1736174 0.2675496,0.2696079 L 8.4791499,4.172496 c 0.031126,-0.012127 0.06537,-0.013601 0.097459,-0.0042 0.032033,0.00941 0.06004,0.029153 0.079713,0.056173 0.1277339,0.1761233 0.2371555,0.3649576 0.3262802,0.5634301 0.013721,0.030553 0.016838,0.064786 0.00901,0.097334 -0.00788,0.032543 -0.026307,0.061565 -0.052443,0.082503 L 8.6462823,5.2024985 c 0.041161,0.1198591 0.073874,0.242037 0.098026,0.3664657 l 0.3720333,0.056996 c 0.03311,0.00507 0.063612,0.020983 0.086687,0.045243 0.023075,0.024266 0.037475,0.05551 0.040877,0.088824 0.021998,0.2163995 0.021714,0.4345054 -9e-4,0.6508425 -0.00346,0.033223 -0.017803,0.064366 -0.04082,0.088569 -0.023018,0.024198 -0.053407,0.040095 -0.086403,0.045203 l -0.363529,0.05581 c -0.00255,0.014038 -0.00499,0.028098 -0.00748,0.042164 v 5.67e-5 5.66e-5 c -0.00856,0.048775 -0.017121,0.097567 -0.029425,0.1455307 l -3.429e-4,0.00141 -2.357e-4,9.429e-4 C 8.701504,6.8391886 8.684552,6.8865856 8.6676,6.9339889 8.66284,6.9473129 8.65802,6.9606409 8.653369,6.9739929 L 8.9374114,7.201669 c 0.02608,0.020927 0.044449,0.049892 0.05233,0.082378 0.00782,0.032481 0.00471,0.066651 -0.0089,0.09717 -0.088898,0.1987675 -0.1978659,0.3878739 -0.3254297,0.5643203 -0.019616,0.027129 -0.047681,0.046983 -0.079827,0.05644 -0.03209,0.00946 -0.066447,0.00799 -0.097629,-0.00417 L 8.1312657,7.8628622 C 8.0478337,7.9583252 7.9579262,8.0474841 7.8619868,8.1303892 L 7.9981172,8.479461 c 0.012195,0.031125 0.01371,0.065483 0.0043,0.097572 -0.0094,0.032146 -0.029198,0.06021 -0.056276,0.079883 C 7.7699272,8.7846499 7.5810079,8.893788 7.382439,8.9829127 7.351892,8.9966337 7.317659,8.9998067 7.285116,8.9919227 7.252571,8.9841027 7.223555,8.9656157 7.202617,8.9395367 L 6.9678692,8.6465987 c -0.119757,0.041161 -0.2418329,0.073874 -0.3661539,0.098026 l -0.057285,0.3720898 c -0.00512,0.033053 -0.021062,0.063442 -0.045316,0.086517 -0.02426,0.023018 -0.055471,0.037362 -0.088745,0.040764 -0.2162805,0.021941 -0.4342901,0.021658 -0.6505139,-9e-4 -0.033223,-0.00347 -0.06436,-0.017809 -0.088563,-0.040828 -0.024197,-0.023018 -0.040089,-0.053407 -0.045197,-0.08646 L 5.5702844,8.7523354 c -0.014264,-0.00261 -0.028552,-0.0051 -0.042839,-0.00765 -0.048684,-0.0085 -0.097385,-0.017008 -0.1452584,-0.029255 L 5.381017,8.7150876 5.379827,8.714809 C 5.331052,8.701485 5.283547,8.684534 5.2359859,8.667582 h -5.7e-6 c -0.013063,-0.00465 -0.026131,-0.0093 -0.039227,-0.01389 L 4.9690884,8.9377344 c -0.020926,0.02608 -0.049892,0.044449 -0.082372,0.05233 -0.032481,0.00782 -0.066651,0.00471 -0.097164,-0.0089 -0.198756,-0.088898 -0.3878511,-0.1978659 -0.5642925,-0.3254299 -0.02713,-0.019616 -0.04698,-0.04768 -0.05644,-0.079827 -0.0095,-0.032089 -0.008,-0.066447 0.0042,-0.097629 L 4.3079453,8.1315825 C 4.2123859,8.048116 4.1231189,7.9582314 4.0401179,7.8622695 L 3.6910909,7.9984 c -0.03116,0.012195 -0.06549,0.013714 -0.0976,0.00431 -0.03212,-0.0094 -0.0602,-0.029198 -0.07987,-0.056281 -0.127745,-0.1762254 -0.236872,-0.3651505 -0.325991,-0.5637248 -0.01377,-0.030587 -0.01698,-0.064888 -0.0091,-0.097499 0.0079,-0.032605 0.02633,-0.061679 0.05253,-0.082639 l 0.293216,-0.234763 c -0.04115,-0.1197739 -0.07393,-0.2418329 -0.09803,-0.3661708 l -0.372061,-0.05699 c -0.03311,-0.00506 -0.0636,-0.020976 -0.08668,-0.045237 -0.02309,-0.024265 -0.03747,-0.05551 -0.04088,-0.08883 -0.02196,-0.2163994 -0.0217,-0.4345054 8.78e-4,-0.6508369 0.0035,-0.033229 0.01782,-0.064372 0.04085,-0.088569 0.02302,-0.024203 0.05341,-0.040095 0.08642,-0.045203 l 0.363495,-0.055811 c 0.0026,-0.014066 0.005,-0.028149 0.0075,-0.042232 v -1.14e-5 c 0.0086,-0.048786 0.01713,-0.097595 0.02941,-0.1455703 1.87e-4,-7.885e-4 3.79e-4,-0.00158 5.85e-4,-0.00236 0.01322,-0.048355 0.03013,-0.095537 0.04705,-0.1427185 v 0 l 1.2e-5,-3.4e-5 c 0.0048,-0.013437 0.0096,-0.026873 0.01436,-0.040333 l -0.284351,-0.227977 c -0.02606,-0.02092 -0.04445,-0.049886 -0.0523,-0.082372 -0.0079,-0.032481 -0.0047,-0.066651 0.0089,-0.09717 0.08889,-0.1987617 0.197837,-0.3878682 0.325407,-0.5643146 0.01962,-0.027134 0.04769,-0.046983 0.0798,-0.056446 0.03212,-0.00946 0.06647,-0.00799 0.09766,0.00418 l 0.346963,0.1352461 c 0.08346,-0.095469 0.173363,-0.1846218 0.269302,-0.267544 L 4.1724349,3.6914539 c -0.0122,-0.03116 -0.01371,-0.065489 -0.0043,-0.097606 0.0094,-0.032118 0.0292,-0.060205 0.05628,-0.079866 0.1762139,-0.1277567 0.3651333,-0.2368834 0.5637022,-0.3260081 0.030547,-0.013698 0.06478,-0.016867 0.097323,-0.00901 0.032549,0.00785 0.061565,0.02629 0.082503,0.052415 l 0.2347517,0.2929378 c 0.1197569,-0.041178 0.2418328,-0.073913 0.3661538,-0.098037 l 0.057285,-0.3723734 c 0.00513,-0.033057 0.021062,-0.063482 0.045316,-0.086512 0.02426,-0.02303 0.055471,-0.037367 0.088745,-0.040764 z m 0.325101,5.4264585 c 0.6240996,0 1.1893213,-0.2521004 1.5993743,-0.6600273 1.303e-4,-1.077e-4 2.571e-4,-2.357e-4 3.857e-4,-3.428e-4 0.4126383,-0.4106879 0.6680441,-0.9792151 0.6680441,-1.6073968 0,-1.1499577 -0.8559147,-2.1000088 -1.9654489,-2.2478242 v 1.7803507 c 0.2342131,0.1074938 0.3968656,0.3440768 0.3968656,0.6186511 0,0.375741 -0.3046,0.6803412 -0.6803411,0.6803412 -0.3757411,0 -0.6803411,-0.3046002 -0.6803411,-0.6803412 0,-0.2745743 0.1626526,-0.5111573 0.3968656,-0.6186511 v -1.785099 c -1.1278071,0.131028 -2.0032073,1.0895663 -2.0032073,2.2525357 0,1.2524739 1.0153294,2.2678037 2.2678031,2.2678037 z"
     fill="url(#paint1_linear_714_6)"
     id="path2-5"
     style="fill:url(#paint1_linear_714_6);stroke-width:0.264578" />
</svg>
