<?xml version="1.0" encoding="UTF-8" standalone="no"?>
<svg
   width="45.999886"
   height="45.999989"
   version="1.1"
   viewBox="0 0 12.170564 12.170591"
   id="svg12"
   sodipodi:docname="kdesvn.svg"
   inkscape:version="1.3.2 (091e20ef0f, 2023-11-25)"
   xmlns:inkscape="http://www.inkscape.org/namespaces/inkscape"
   xmlns:sodipodi="http://sodipodi.sourceforge.net/DTD/sodipodi-0.dtd"
   xmlns:xlink="http://www.w3.org/1999/xlink"
   xmlns="http://www.w3.org/2000/svg"
   xmlns:svg="http://www.w3.org/2000/svg">
  <defs
     id="defs16">
    <linearGradient
       id="c"
       y1="523.79999"
       x1="403.57001"
       y2="536.79999"
       x2="416.57001"
       gradientUnits="userSpaceOnUse"
       gradientTransform="matrix(0.34526714,0,0,0.34526706,-134.80427,-174.63325)">
      <stop
         stop-color="#292c2f"
         id="stop1568" />
      <stop
         offset="1"
         stop-opacity="0"
         id="stop1570" />
    </linearGradient>
    <linearGradient
       xlink:href="#b-2"
       id="linearGradient4189"
       x1="14.369"
       y1="22.521999"
       x2="26.521999"
       y2="22.521999"
       gradientUnits="userSpaceOnUse" />
    <linearGradient
       x1="36"
       gradientUnits="userSpaceOnUse"
       x2="14"
       y2="12"
       y1="44"
       id="b-2">
      <stop
         style="stop-color:#bfc9c9;stop-opacity:1"
         stop-color="#536161"
         id="stop1579" />
      <stop
         style="stop-color:#fbfbfb;stop-opacity:1"
         stop-color="#f4f5f5"
         offset="1"
         id="stop1581" />
    </linearGradient>
    <linearGradient
       xlink:href="#b-2"
       id="linearGradient4428"
       gradientUnits="userSpaceOnUse"
       x1="31.586"
       y1="36.345001"
       x2="1.2029999"
       y2="6.723" />
    <linearGradient
       xlink:href="#b-2"
       id="linearGradient4189-3"
       x1="14.369"
       y1="22.521999"
       x2="26.521999"
       y2="22.521999"
       gradientUnits="userSpaceOnUse"
       gradientTransform="translate(20.841982,61.553822)" />
    <linearGradient
       xlink:href="#b-2"
       id="linearGradient4428-5"
       gradientUnits="userSpaceOnUse"
       x1="31.586"
       y1="36.345001"
       x2="1.2029999"
       y2="6.723"
       gradientTransform="translate(20.841982,61.553822)" />
    <linearGradient
       xlink:href="#b-2"
       id="linearGradient4189-3-3"
       x1="14.369"
       y1="22.521999"
       x2="26.521999"
       y2="22.521999"
       gradientUnits="userSpaceOnUse"
       gradientTransform="translate(4.376802,4.4211693)" />
    <linearGradient
       xlink:href="#b-2"
       id="linearGradient4428-5-5"
       gradientUnits="userSpaceOnUse"
       x1="31.586"
       y1="36.345001"
       x2="1.2029999"
       y2="6.723"
       gradientTransform="translate(4.376802,4.4211693)" />
    <linearGradient
       inkscape:collect="always"
       xlink:href="#linearGradient11"
       id="linearGradient13"
       x1="-43.819283"
       y1="23.120178"
       x2="-1.9547797"
       y2="23.120178"
       gradientUnits="userSpaceOnUse"
       gradientTransform="scale(0.26457813)" />
    <linearGradient
       id="linearGradient11"
       inkscape:collect="always">
      <stop
         style="stop-color:#5599ff;stop-opacity:1"
         offset="0"
         id="stop4-3" />
      <stop
         style="stop-color:#00ccff;stop-opacity:1"
         offset="1"
         id="stop11" />
    </linearGradient>
    <linearGradient
       inkscape:collect="always"
       xlink:href="#linearGradient14"
       id="linearGradient15"
       x1="-9.6850061"
       y1="45.161198"
       x2="11.98815"
       y2="21.735205"
       gradientUnits="userSpaceOnUse"
       gradientTransform="scale(0.26457813)" />
    <linearGradient
       id="linearGradient14"
       inkscape:collect="always">
      <stop
         style="stop-color:#80b3ff;stop-opacity:1"
         offset="0"
         id="stop12" />
      <stop
         style="stop-color:#00ccff;stop-opacity:1"
         offset="1"
         id="stop13" />
    </linearGradient>
    <filter
       id="filter2917-3"
       x="-0.96181147"
       y="-0.66745996"
       width="2.9236229"
       height="2.3349199"
       color-interpolation-filters="sRGB">
      <feGaussianBlur
         stdDeviation="0.2871969"
         id="feGaussianBlur732-5" />
    </filter>
    <filter
       id="filter1"
       x="-0.96181148"
       y="-0.66745996"
       width="2.9236228"
       height="2.3349199"
       color-interpolation-filters="sRGB">
      <feGaussianBlur
         stdDeviation="0.2871969"
         id="feGaussianBlur1" />
    </filter>
    <filter
       id="filter2"
       x="-0.96181148"
       y="-0.66745996"
       width="2.9236228"
       height="2.3349199"
       color-interpolation-filters="sRGB">
      <feGaussianBlur
         stdDeviation="0.2871969"
         id="feGaussianBlur2" />
    </filter>
    <linearGradient
       id="l"
       x1="27.447001"
       x2="25.966"
       y1="289.76001"
       y2="289.76001"
       gradientTransform="matrix(0.94283,0,0,0.9628,-16.618,11.67)"
       gradientUnits="userSpaceOnUse">
      <stop
         stop-color="#1881ce"
         offset="0"
         id="stop19" />
      <stop
         stop-color="#2980b9"
         offset="1"
         id="stop21" />
    </linearGradient>
    <linearGradient
       id="j"
       x1="10.692"
       x2="34.026001"
       y1="14.134"
       y2="29.068001"
       gradientTransform="matrix(0.24946,0,0,0.25474,0.77251,285.56)"
       gradientUnits="userSpaceOnUse">
      <stop
         stop-color="#349cd2"
         offset="0"
         id="stop7" />
      <stop
         stop-color="#2694d9"
         offset=".74017"
         id="stop9" />
      <stop
         stop-color="#0e6daa"
         offset="1"
         id="stop11-3" />
    </linearGradient>
    <linearGradient
       id="k"
       x1="21.274"
       x2="27.447001"
       y1="291.29999"
       y2="287.35001"
       gradientTransform="matrix(0.94283,0,0,0.9628,-16.618,11.67)"
       gradientUnits="userSpaceOnUse">
      <stop
         stop-color="#1d99f3"
         offset="0"
         id="stop14" />
      <stop
         stop-color="#3daee9"
         offset="1"
         id="stop16" />
    </linearGradient>
    <linearGradient
       inkscape:collect="always"
       xlink:href="#KugelLinie1"
       id="linearGradient1131"
       gradientUnits="userSpaceOnUse"
       gradientTransform="matrix(0.00477791,0,0,0.12823484,-10.80506,-34.85244)"
       x1="260.97736"
       y1="225.05336"
       x2="453.37738"
       y2="225.05336" />
    <linearGradient
       id="KugelLinie1">
      <stop
         style="stop-color:#000000;stop-opacity:0.94117647;"
         offset="0.0000000"
         id="stop3531" />
      <stop
         style="stop-color:#000000;stop-opacity:0;"
         offset="1"
         id="stop3533" />
    </linearGradient>
    <linearGradient
       inkscape:collect="always"
       xlink:href="#KugelLinie1"
       id="linearGradient1135"
       gradientUnits="userSpaceOnUse"
       x1="260.97736"
       y1="225.05336"
       x2="453.37738"
       y2="225.05336"
       gradientTransform="matrix(0.00477791,0,0,0.12823482,-11.960454,-36.006583)" />
  </defs>
  <sodipodi:namedview
     id="namedview14"
     pagecolor="#000000"
     bordercolor="#666666"
     borderopacity="1.0"
     inkscape:showpageshadow="2"
     inkscape:pageopacity="0.0"
     inkscape:pagecheckerboard="0"
     inkscape:deskcolor="#d1d1d1"
     showgrid="false"
     inkscape:zoom="10.429825"
     inkscape:cx="22.819175"
     inkscape:cy="33.653489"
     inkscape:window-width="1920"
     inkscape:window-height="996"
     inkscape:window-x="0"
     inkscape:window-y="0"
     inkscape:window-maximized="1"
     inkscape:current-layer="svg12">
    <inkscape:grid
       type="xygrid"
       id="grid244"
       originx="9.7893915"
       originy="-31.749373"
       spacingy="1"
       spacingx="1"
       units="px"
       visible="false" />
  </sodipodi:namedview>
  <rect
     x="-12.025727"
     y="0.1490714"
     width="11.940627"
     height="11.936014"
     rx="1.6121091"
     stroke="url(#paint4_linear_77:23)"
     shape-rendering="crispEdges"
     id="rect5-6-7-3"
     ry="1.7735944"
     transform="matrix(0.00523883,-0.99998628,0.999988,0.00489859,0,0)"
     style="fill:#80b3ff;fill-opacity:0.15;stroke:url(#linearGradient13);stroke-width:0.188987;stroke-opacity:1" />
  <rect
     x="-3.7266586"
     y="4.6446943"
     width="7.912631"
     height="7.912384"
     rx="1.612043"
     shape-rendering="crispEdges"
     id="rect5-6-6-6-6"
     style="fill:#80b3ff;fill-opacity:0.122146;stroke:url(#linearGradient15);stroke-width:0.188987;stroke-opacity:1"
     ry="1.7735215"
     transform="matrix(0.72612649,-0.68756114,0.6879775,0.72573202,0,0)" />
  <ellipse
     style="fill:#7ae5ff;fill-opacity:1;fill-rule:evenodd;stroke:url(#linearGradient1131);stroke-width:0.212877;stroke-linecap:round;stroke-linejoin:round;stroke-miterlimit:4;stroke-dasharray:none;stroke-opacity:1"
     id="path2507-2-1"
     transform="scale(-1)"
     cx="-7.7619028"
     cy="-5.0781937"
     rx="0.40638652"
     ry="0.40647438" />
  <ellipse
     id="path2503-7-7"
     style="fill:#7ae5ff;fill-opacity:1;fill-rule:evenodd;stroke:#2ad4ff;stroke-width:0.212877;stroke-linecap:round;stroke-linejoin:round;stroke-miterlimit:4;stroke-dasharray:none;stroke-opacity:1"
     cx="5.4511161"
     cy="5.078196"
     rx="0.40638691"
     ry="0.40647432" />
  <path
     style="fill:#7ae5ff;fill-opacity:1;fill-rule:evenodd;stroke:#ffffff;stroke-width:0.114657;stroke-linecap:butt;stroke-linejoin:miter;stroke-miterlimit:4;stroke-dasharray:none;stroke-opacity:1"
     d="M 3.4793208,5.0992145 H 8.035479"
     id="path2513-5-9"
     sodipodi:nodetypes="cc" />
  <path
     style="fill:#7ae5ff;fill-opacity:0;fill-rule:evenodd;stroke:#ffffff;stroke-width:0.115477;stroke-linecap:butt;stroke-linejoin:miter;stroke-miterlimit:4;stroke-dasharray:none;stroke-opacity:1"
     d="M 5.4511143,5.0781929 6.606508,6.2323402 h 2.3107883"
     id="path2517-9-2"
     sodipodi:nodetypes="ccc" />
  <ellipse
     style="fill:#7ae5ff;fill-opacity:1;fill-rule:evenodd;stroke:#2ad4ff;stroke-width:0.212877;stroke-linecap:round;stroke-linejoin:round;stroke-miterlimit:4;stroke-dasharray:none;stroke-opacity:1"
     id="path2105-2-0"
     transform="matrix(0.54579272,-0.83792023,0.83845812,0.54496603,0,0)"
     cx="-1.625242"
     cy="8.9372873"
     rx="0.40607861"
     ry="0.40678284" />
  <ellipse
     style="fill:#7ae5ff;fill-opacity:1;fill-rule:evenodd;stroke:url(#linearGradient1135);stroke-width:0.212877;stroke-linecap:round;stroke-linejoin:round;stroke-miterlimit:4;stroke-dasharray:none;stroke-opacity:1"
     id="path2505-2-2"
     transform="scale(-1)"
     cx="-8.9172926"
     cy="-6.2323389"
     rx="0.40638691"
     ry="0.40647432" />
  <ellipse
     style="fill:#7ae5ff;fill-opacity:1;fill-rule:evenodd;stroke:#2ad4ff;stroke-width:0.212877;stroke-linecap:round;stroke-linejoin:round;stroke-miterlimit:4;stroke-dasharray:none;stroke-opacity:1"
     id="path2509-8-3"
     transform="matrix(-0.65193566,0.75827429,-0.75896967,-0.65112597,0,0)"
     cx="-1.3234391"
     cy="-7.5677733"
     rx="0.40613383"
     ry="0.40672716" />
  <ellipse
     id="path2511-9-7"
     style="fill:#2ad4ff;fill-opacity:1;fill-rule:evenodd;stroke:#2ad4ff;stroke-width:0.212877;stroke-linecap:round;stroke-linejoin:round;stroke-miterlimit:4;stroke-dasharray:none;stroke-opacity:1"
     cx="3.1192811"
     cy="5.0992212"
     rx="0.40638691"
     ry="0.40647432" />
  <path
     style="fill:#7ae5ff;fill-opacity:1;fill-rule:evenodd;stroke:#ffffff;stroke-width:0.115477;stroke-linecap:butt;stroke-linejoin:miter;stroke-miterlimit:4;stroke-dasharray:none;stroke-opacity:1"
     d="M 6.606508,3.9240457 5.4511143,5.0781929"
     id="path2515-7-5"
     sodipodi:nodetypes="cc" />
  <path
     id="path81-3-9"
     style="fill:#7ae5ff;fill-opacity:1;stroke:#809cc9;stroke-width:0.0580768"
     d="M 1.4352641,9.4419414 H 10.470377" />
  <path
     id="text1323-1-2"
     style="font-style:normal;font-weight:normal;font-size:12px;font-family:'Bitstream Vera Sans';fill:#7ae5ff;fill-opacity:1;stroke:none;stroke-width:0.0580768pt;stroke-linecap:butt;stroke-linejoin:miter;stroke-opacity:1"
     d="m 1.6309772,8.465279 h 0.098784 V 8.7735249 L 2.0574128,8.465279 H 2.1845611 L 1.8221886,8.8052778 2.2104797,9.1946151 H 2.0803973 L 1.7297616,8.8433814 V 9.1946151 H 1.6309772 V 8.465279 m 1.7125889,0.081092 v 0.5671531 h 0.1193237 c 0.1007401,0 0.1744208,-0.022796 0.2210423,-0.068391 0.046947,-0.045593 0.07042,-0.117566 0.070421,-0.2159184 -7e-7,-0.0977 -0.023474,-0.1691849 -0.070421,-0.2144536 -0.046621,-0.045593 -0.1203022,-0.06839 -0.2210423,-0.068391 H 3.3435661 M 3.2447817,8.465279 h 0.202948 c 0.1414928,7e-7 0.2453304,0.029474 0.3115132,0.088419 0.066182,0.058621 0.099273,0.1504593 0.099274,0.2755165 -7e-7,0.1257083 -0.033255,0.2180353 -0.099763,0.2769815 C 3.6922449,9.165142 3.5885705,9.194615 3.4477297,9.194615 H 3.2447817 V 8.465279 m 1.7272597,0 H 5.4336873 V 8.548325 H 5.0708258 v 0.2159185 h 0.3477015 v 0.083046 H 5.0708258 V 9.11157 h 0.371664 V 9.194615 H 4.9720414 V 8.465279" />
  <path
     id="path1332-2-8"
     style="font-style:normal;font-weight:normal;font-size:12px;font-family:'Bitstream Vera Sans';fill:#7ae5ff;fill-opacity:1;stroke:none;stroke-width:0.0580768pt;stroke-linecap:butt;stroke-linejoin:miter;stroke-opacity:1"
     d="m 7.0000556,8.4892157 v 0.096235 c -0.037493,-0.017911 -0.072866,-0.031263 -0.1061198,-0.040057 -0.033254,-0.00879 -0.065368,-0.013189 -0.096339,-0.01319 -0.053794,7e-7 -0.095361,0.010422 -0.124703,0.031264 -0.029016,0.020843 -0.043524,0.050479 -0.043524,0.088908 -2e-7,0.032242 0.00962,0.056668 0.028853,0.073276 0.019561,0.016284 0.056401,0.029473 0.1105212,0.039569 l 0.059662,0.012212 c 0.07368,0.014005 0.1279628,0.038755 0.1628475,0.074253 0.03521,0.035172 0.052815,0.082394 0.052815,0.141666 -6e-7,0.07067 -0.0238,0.1242425 -0.071399,0.1607176 -0.047273,0.036475 -0.116716,0.054712 -0.2083275,0.054712 -0.034559,0 -0.071399,-0.00391 -0.1105212,-0.011723 -0.038797,-0.00782 -0.07906,-0.019379 -0.1207908,-0.034685 V 9.060765 c 0.0401,0.022471 0.079386,0.039406 0.1178567,0.050805 0.03847,0.011399 0.076289,0.017097 0.1134553,0.017097 0.056401,0 0.099925,-0.011073 0.1305715,-0.033218 0.030646,-0.022146 0.045968,-0.053736 0.045969,-0.09477 -5e-7,-0.035823 -0.011085,-0.06383 -0.033254,-0.084023 C 6.8857845,8.896464 6.8497595,8.881321 6.7995525,8.871225 L 6.7394018,8.8595018 C 6.6657208,8.8448467 6.6124164,8.8218872 6.5794885,8.7906227 6.5465603,8.7593588 6.5300962,8.715882 6.5300962,8.660192 c 0,-0.064482 0.022658,-0.1152862 0.067975,-0.1524132 0.045643,-0.037126 0.1084018,-0.055689 0.1882772,-0.055689 0.034232,8e-7 0.069116,0.00309 0.1046528,0.00928 0.035536,0.00619 0.071887,0.01547 0.109054,0.027845 M 8.3429362,9.1946151 8.0641887,8.465279 H 8.1673742 L 8.3986858,9.0793287 8.6304875,8.465279 H 8.7331841 L 8.4549244,9.1946151 H 8.3429362 M 9.7958498,8.465279 H 9.9288665 L 10.252605,9.0754201 V 8.465279 h 0.09585 V 9.1946151 H 10.215439 L 9.8916991,8.5844739 V 9.1946151 H 9.7958498 V 8.465279" />
</svg>
