<?xml version="1.0" encoding="UTF-8" standalone="no"?>
<svg
   width="45.999886"
   height="45.999989"
   version="1.1"
   viewBox="0 0 12.170564 12.170591"
   id="svg12"
   sodipodi:docname="keepass.svg"
   inkscape:version="1.3.2 (091e20ef0f, 2023-11-25)"
   xmlns:inkscape="http://www.inkscape.org/namespaces/inkscape"
   xmlns:sodipodi="http://sodipodi.sourceforge.net/DTD/sodipodi-0.dtd"
   xmlns:xlink="http://www.w3.org/1999/xlink"
   xmlns="http://www.w3.org/2000/svg"
   xmlns:svg="http://www.w3.org/2000/svg">
  <defs
     id="defs16">
    <linearGradient
       id="c"
       y1="523.79999"
       x1="403.57001"
       y2="536.79999"
       x2="416.57001"
       gradientUnits="userSpaceOnUse"
       gradientTransform="matrix(0.09135013,0,0,0.09135011,-37.518309,-48.056186)">
      <stop
         stop-color="#292c2f"
         id="stop1568" />
      <stop
         offset="1"
         stop-opacity="0"
         id="stop1570" />
    </linearGradient>
    <linearGradient
       xlink:href="#b-2"
       id="linearGradient4189"
       x1="14.369"
       y1="22.521999"
       x2="26.521999"
       y2="22.521999"
       gradientUnits="userSpaceOnUse" />
    <linearGradient
       x1="36"
       gradientUnits="userSpaceOnUse"
       x2="14"
       y2="12"
       y1="44"
       id="b-2">
      <stop
         style="stop-color:#bfc9c9;stop-opacity:1"
         stop-color="#536161"
         id="stop1579" />
      <stop
         style="stop-color:#fbfbfb;stop-opacity:1"
         stop-color="#f4f5f5"
         offset="1"
         id="stop1581" />
    </linearGradient>
    <linearGradient
       xlink:href="#b-2"
       id="linearGradient4428"
       gradientUnits="userSpaceOnUse"
       x1="31.586"
       y1="36.345001"
       x2="1.2029999"
       y2="6.723" />
    <linearGradient
       xlink:href="#b-2"
       id="linearGradient4189-3"
       x1="14.369"
       y1="22.521999"
       x2="26.521999"
       y2="22.521999"
       gradientUnits="userSpaceOnUse"
       gradientTransform="translate(20.841982,61.553822)" />
    <linearGradient
       xlink:href="#b-2"
       id="linearGradient4428-5"
       gradientUnits="userSpaceOnUse"
       x1="31.586"
       y1="36.345001"
       x2="1.2029999"
       y2="6.723"
       gradientTransform="translate(20.841982,61.553822)" />
    <linearGradient
       xlink:href="#b-2"
       id="linearGradient4189-3-3"
       x1="14.369"
       y1="22.521999"
       x2="26.521999"
       y2="22.521999"
       gradientUnits="userSpaceOnUse"
       gradientTransform="translate(4.376802,4.4211693)" />
    <linearGradient
       xlink:href="#b-2"
       id="linearGradient4428-5-5"
       gradientUnits="userSpaceOnUse"
       x1="31.586"
       y1="36.345001"
       x2="1.2029999"
       y2="6.723"
       gradientTransform="translate(4.376802,4.4211693)" />
    <linearGradient
       inkscape:collect="always"
       xlink:href="#linearGradient11"
       id="linearGradient13"
       x1="-43.819283"
       y1="23.120178"
       x2="-1.9547797"
       y2="23.120178"
       gradientUnits="userSpaceOnUse"
       gradientTransform="scale(0.26457813)" />
    <linearGradient
       id="linearGradient11"
       inkscape:collect="always">
      <stop
         style="stop-color:#37c871;stop-opacity:0.75738919;"
         offset="0"
         id="stop4-3" />
      <stop
         style="stop-color:#00d455;stop-opacity:1"
         offset="1"
         id="stop11" />
    </linearGradient>
    <linearGradient
       inkscape:collect="always"
       xlink:href="#linearGradient14"
       id="linearGradient15"
       x1="-9.6850061"
       y1="45.161198"
       x2="11.98815"
       y2="21.735205"
       gradientUnits="userSpaceOnUse"
       gradientTransform="scale(0.26457813)" />
    <linearGradient
       id="linearGradient14"
       inkscape:collect="always">
      <stop
         style="stop-color:#37c871;stop-opacity:1"
         offset="0"
         id="stop12" />
      <stop
         style="stop-color:#00d455;stop-opacity:1"
         offset="1"
         id="stop13" />
    </linearGradient>
    <filter
       id="filter2917-3"
       x="-0.96181147"
       y="-0.66745996"
       width="2.9236229"
       height="2.3349199"
       color-interpolation-filters="sRGB">
      <feGaussianBlur
         stdDeviation="0.2871969"
         id="feGaussianBlur732-5" />
    </filter>
    <filter
       id="filter1"
       x="-0.96181148"
       y="-0.66745996"
       width="2.9236228"
       height="2.3349199"
       color-interpolation-filters="sRGB">
      <feGaussianBlur
         stdDeviation="0.2871969"
         id="feGaussianBlur1" />
    </filter>
    <filter
       id="filter2"
       x="-0.96181148"
       y="-0.66745996"
       width="2.9236228"
       height="2.3349199"
       color-interpolation-filters="sRGB">
      <feGaussianBlur
         stdDeviation="0.2871969"
         id="feGaussianBlur2" />
    </filter>
    <linearGradient
       id="a"
       gradientUnits="userSpaceOnUse"
       x1="45"
       x2="0"
       y1="45"
       y2="3"
       gradientTransform="matrix(1.049854,0,0,1.0499253,88.091637,-7.7170607)">
      <stop
         offset="0"
         stop-color="#b0b8b8"
         id="stop2" />
      <stop
         offset="1"
         stop-color="#eff1f1"
         id="stop4" />
    </linearGradient>
    <linearGradient
       id="e"
       gradientUnits="userSpaceOnUse"
       x1="4"
       x2="4"
       y1="3"
       y2="45"
       gradientTransform="matrix(1.049854,0,0,1.0499253,88.091637,-7.7170607)">
      <stop
         offset="0"
         stop-color="#292c2f"
         id="stop12-3" />
      <stop
         offset="1"
         stop-opacity="0"
         id="stop14" />
    </linearGradient>
    <linearGradient
       id="b"
       gradientUnits="userSpaceOnUse"
       x1="4"
       x2="4"
       y1="45"
       y2="3"
       gradientTransform="matrix(1.049854,0,0,1.0499253,88.091637,-7.7170607)">
      <stop
         offset="0"
         stop-color="#197cf1"
         id="stop7" />
      <stop
         offset="1"
         stop-color="#21c9fb"
         id="stop9" />
    </linearGradient>
    <linearGradient
       id="f"
       gradientUnits="userSpaceOnUse"
       x1="4"
       x2="4"
       y1="45"
       y2="3"
       gradientTransform="matrix(1.049854,0,0,1.0499253,88.091637,-7.7170607)">
      <stop
         offset="0"
         stop-color="#7cbaf8"
         id="stop17" />
      <stop
         offset="1"
         stop-color="#f4fcff"
         id="stop19" />
    </linearGradient>
    <linearGradient
       inkscape:collect="always"
       xlink:href="#linearGradient4153"
       id="linearGradient1468"
       gradientUnits="userSpaceOnUse"
       gradientTransform="matrix(0.27780703,0,0,0.27780705,5.1862783,7.3389551)"
       x1="11.663"
       y1="13.65"
       x2="9.6639996"
       y2="5.8860002" />
    <linearGradient
       id="linearGradient4153">
      <stop
         style="stop-color:#bf4231;stop-opacity:1"
         offset="0"
         id="stop4155" />
      <stop
         style="stop-color:#e05e4c;stop-opacity:1"
         offset="1"
         id="stop4157" />
    </linearGradient>
  </defs>
  <sodipodi:namedview
     id="namedview14"
     pagecolor="#000000"
     bordercolor="#666666"
     borderopacity="1.0"
     inkscape:showpageshadow="2"
     inkscape:pageopacity="0.0"
     inkscape:pagecheckerboard="0"
     inkscape:deskcolor="#d1d1d1"
     showgrid="false"
     inkscape:zoom="5.2149125"
     inkscape:cx="23.20269"
     inkscape:cy="69.032798"
     inkscape:window-width="1920"
     inkscape:window-height="996"
     inkscape:window-x="0"
     inkscape:window-y="0"
     inkscape:window-maximized="1"
     inkscape:current-layer="svg12">
    <inkscape:grid
       type="xygrid"
       id="grid244"
       originx="9.7893915"
       originy="-31.749373"
       spacingy="1"
       spacingx="1"
       units="px"
       visible="false" />
  </sodipodi:namedview>
  <rect
     x="-12.025727"
     y="0.1490714"
     width="11.940627"
     height="11.936014"
     rx="1.6121091"
     stroke="url(#paint4_linear_77:23)"
     shape-rendering="crispEdges"
     id="rect5-6-7-3"
     ry="1.7735944"
     transform="matrix(0.00523883,-0.99998628,0.999988,0.00489859,0,0)"
     style="fill:#80b3ff;fill-opacity:0.15;stroke:url(#linearGradient13);stroke-width:0.188987;stroke-opacity:1" />
  <rect
     x="-3.7266586"
     y="4.6446943"
     width="7.912631"
     height="7.912384"
     rx="1.612043"
     shape-rendering="crispEdges"
     id="rect5-6-6-6-6"
     style="fill:#80b3ff;fill-opacity:0.122146;stroke:url(#linearGradient15);stroke-width:0.188987;stroke-opacity:1"
     ry="1.7735215"
     transform="matrix(0.72612649,-0.68756114,0.6879775,0.72573202,0,0)" />
  <path
     style="opacity:0.15;fill:#000000;fill-opacity:1;stroke:none;stroke-width:2.77807;stroke-miterlimit:4;stroke-dasharray:none;stroke-opacity:0.392157"
     d="M 5.8107348,2.7534072 A 0.32947467,0.32287508 0 0 0 5.4812597,3.0762816 0.32947467,0.32287508 0 0 0 5.8107348,3.3991562 0.32947467,0.32287508 0 0 0 6.1402095,3.0762816 0.32947467,0.32287508 0 0 0 5.8107348,2.7534072 Z M 6.908984,2.968657 A 0.32947467,0.32287508 0 0 0 6.579509,3.2915317 0.32947467,0.32287508 0 0 0 6.908984,3.614407 0.32947467,0.32287508 0 0 0 7.2384582,3.2915317 0.32947467,0.32287508 0 0 0 6.908984,2.968657 Z M 5.1517856,3.3991562 A 0.32947467,0.32287508 0 0 0 4.8223108,3.7220312 0.32947467,0.32287508 0 0 0 5.1517856,4.0449063 0.32947467,0.32287508 0 0 0 5.4812597,3.7220312 0.32947467,0.32287508 0 0 0 5.1517856,3.3991562 Z M 7.7875831,3.614407 A 0.32947467,0.32287508 0 0 0 7.4581081,3.9372815 0.32947467,0.32287508 0 0 0 7.7875831,4.2601567 0.32947467,0.32287508 0 0 0 8.1170576,3.9372815 0.32947467,0.32287508 0 0 0 7.7875831,3.614407 Z M 5.5910852,4.2601567 A 0.32947467,0.32287508 0 0 0 5.2616105,4.5830316 0.32947467,0.32287508 0 0 0 5.5910852,4.9059064 0.32947467,0.32287508 0 0 0 5.9205597,4.5830316 0.32947467,0.32287508 0 0 0 5.5910852,4.2601567 Z M 8.4465325,4.475407 A 0.32947467,0.32287508 0 0 0 8.1170576,4.7982816 0.32947467,0.32287508 0 0 0 8.4465325,5.1211568 0.32947467,0.32287508 0 0 0 8.7760066,4.7982816 0.32947467,0.32287508 0 0 0 8.4465325,4.475407 Z M 6.2500345,5.1211568 A 0.32947467,0.32287508 0 0 0 5.9205597,5.4440324 0.32947467,0.32287508 0 0 0 6.2500345,5.7669066 0.32947467,0.32287508 0 0 0 6.579509,5.4440324 0.32947467,0.32287508 0 0 0 6.2500345,5.1211568 Z M 8.6661822,5.3364071 A 0.32947467,0.32287508 0 0 0 8.3367074,5.6592824 0.32947467,0.32287508 0 0 0 8.6661822,5.9821569 0.32947467,0.32287508 0 0 0 8.9956566,5.6592824 0.32947467,0.32287508 0 0 0 8.6661822,5.3364071 Z M 5.5910852,5.7669066 A 0.32947467,0.32287508 0 0 0 5.2616105,6.0897817 0.32947467,0.32287508 0 0 0 5.5910852,6.412657 0.32947467,0.32287508 0 0 0 5.9205597,6.0897817 0.32947467,0.32287508 0 0 0 5.5910852,5.7669066 Z m 1.5375486,0 A 0.32947467,0.32287508 0 0 0 6.7991587,6.0897817 0.32947467,0.32287508 0 0 0 7.1286338,6.412657 0.32947467,0.32287508 0 0 0 7.4581081,6.0897817 0.32947467,0.32287508 0 0 0 7.1286338,5.7669066 Z M 8.0072327,6.1974072 A 0.32947467,0.32287508 0 0 0 7.6777577,6.5202817 0.32947467,0.32287508 0 0 0 8.0072327,6.843157 0.32947467,0.32287508 0 0 0 8.3367074,6.5202817 0.32947467,0.32287508 0 0 0 8.0072327,6.1974072 Z M 4.9321357,6.412657 A 0.32947467,0.32287508 0 0 0 4.6026607,6.7355326 0.32947467,0.32287508 0 0 0 4.9321357,7.058407 0.32947467,0.32287508 0 0 0 5.2616105,6.7355326 0.32947467,0.32287508 0 0 0 4.9321357,6.412657 Z M 4.2731863,7.058407 A 0.32947467,0.32287508 0 0 0 3.9437114,7.3812826 0.32947467,0.32287508 0 0 0 4.2731863,7.7041571 0.32947467,0.32287508 0 0 0 4.6026607,7.3812826 0.32947467,0.32287508 0 0 0 4.2731863,7.058407 Z M 3.6142375,7.7041571 A 0.32947467,0.32287508 0 0 0 3.2847628,8.0270328 0.32947467,0.32287508 0 0 0 3.6142375,8.3499079 0.32947467,0.32287508 0 0 0 3.9437114,8.0270328 0.32947467,0.32287508 0 0 0 3.6142375,7.7041571 Z M 4.2731863,8.3499079 A 0.32947467,0.32287508 0 0 0 3.9437114,8.6727828 0.32947467,0.32287508 0 0 0 4.2731863,8.9956565 0.32947467,0.32287508 0 0 0 4.6026607,8.6727828 0.32947467,0.32287508 0 0 0 4.2731863,8.3499079 Z"
     id="path4342-73-3" />
  <path
     style="fill:#ffffff;fill-opacity:1;stroke:none;stroke-width:2.77807;stroke-miterlimit:4;stroke-dasharray:none;stroke-opacity:0.392157"
     d="M 5.7009097,2.6457813 A 0.32947467,0.32287508 0 0 0 5.3714354,2.968657 0.32947467,0.32287508 0 0 0 5.7009097,3.2915317 0.32947467,0.32287508 0 0 0 6.0303846,2.968657 0.32947467,0.32287508 0 0 0 5.7009097,2.6457813 Z m 1.098249,0.2152498 A 0.32947467,0.32287508 0 0 0 6.4696842,3.1839062 0.32947467,0.32287508 0 0 0 6.7991587,3.5067813 0.32947467,0.32287508 0 0 0 7.1286338,3.1839062 0.32947467,0.32287508 0 0 0 6.7991587,2.8610311 Z M 5.0419608,3.2915317 A 0.32947467,0.32287508 0 0 0 4.7124862,3.614407 0.32947467,0.32287508 0 0 0 5.0419608,3.9372815 0.32947467,0.32287508 0 0 0 5.3714354,3.614407 0.32947467,0.32287508 0 0 0 5.0419608,3.2915317 Z M 7.6777577,3.5067813 A 0.32947467,0.32287508 0 0 0 7.3482835,3.8296568 0.32947467,0.32287508 0 0 0 7.6777577,4.1525317 0.32947467,0.32287508 0 0 0 8.0072327,3.8296568 0.32947467,0.32287508 0 0 0 7.6777577,3.5067813 Z M 5.4812597,4.1525317 A 0.32947467,0.32287508 0 0 0 5.1517856,4.475407 0.32947467,0.32287508 0 0 0 5.4812597,4.7982816 0.32947467,0.32287508 0 0 0 5.8107348,4.475407 0.32947467,0.32287508 0 0 0 5.4812597,4.1525317 Z M 8.3367074,4.3677815 A 0.32947467,0.32287508 0 0 0 8.0072327,4.690657 0.32947467,0.32287508 0 0 0 8.3367074,5.0135316 0.32947467,0.32287508 0 0 0 8.6661822,4.690657 0.32947467,0.32287508 0 0 0 8.3367074,4.3677815 Z M 6.1402095,5.0135316 A 0.32947467,0.32287508 0 0 0 5.8107348,5.3364071 0.32947467,0.32287508 0 0 0 6.1402095,5.6592824 0.32947467,0.32287508 0 0 0 6.4696842,5.3364071 0.32947467,0.32287508 0 0 0 6.1402095,5.0135316 Z M 8.5563571,5.2287825 A 0.32947467,0.32287508 0 0 0 8.2268827,5.551657 0.32947467,0.32287508 0 0 0 8.5563571,5.8745317 0.32947467,0.32287508 0 0 0 8.8858318,5.551657 0.32947467,0.32287508 0 0 0 8.5563571,5.2287825 Z M 5.4812597,5.6592824 A 0.32947467,0.32287508 0 0 0 5.1517856,5.9821569 0.32947467,0.32287508 0 0 0 5.4812597,6.3050319 0.32947467,0.32287508 0 0 0 5.8107348,5.9821569 0.32947467,0.32287508 0 0 0 5.4812597,5.6592824 Z m 1.5375488,0 A 0.32947467,0.32287508 0 0 0 6.6893341,5.9821569 0.32947467,0.32287508 0 0 0 7.0188085,6.3050319 0.32947467,0.32287508 0 0 0 7.3482835,5.9821569 0.32947467,0.32287508 0 0 0 7.0188085,5.6592824 Z M 7.8974076,6.0897817 A 0.32947467,0.32287508 0 0 0 7.5679332,6.412657 0.32947467,0.32287508 0 0 0 7.8974076,6.7355326 0.32947467,0.32287508 0 0 0 8.2268827,6.412657 0.32947467,0.32287508 0 0 0 7.8974076,6.0897817 Z M 4.8223108,6.3050319 A 0.32947467,0.32287508 0 0 0 4.4928362,6.6279069 0.32947467,0.32287508 0 0 0 4.8223108,6.9507827 0.32947467,0.32287508 0 0 0 5.1517856,6.6279069 0.32947467,0.32287508 0 0 0 4.8223108,6.3050319 Z M 4.1633618,6.9507827 A 0.32947467,0.32287508 0 0 0 3.8338872,7.2736569 0.32947467,0.32287508 0 0 0 4.1633618,7.5965329 0.32947467,0.32287508 0 0 0 4.4928362,7.2736569 0.32947467,0.32287508 0 0 0 4.1633618,6.9507827 Z M 3.5044124,7.5965329 A 0.32947467,0.32287508 0 0 0 3.1749376,7.9194072 0.32947467,0.32287508 0 0 0 3.5044124,8.2422827 0.32947467,0.32287508 0 0 0 3.8338872,7.9194072 0.32947467,0.32287508 0 0 0 3.5044124,7.5965329 Z M 4.1633618,8.2422827 A 0.32947467,0.32287508 0 0 0 3.8338872,8.565158 0.32947467,0.32287508 0 0 0 4.1633618,8.8880339 0.32947467,0.32287508 0 0 0 4.4928362,8.565158 0.32947467,0.32287508 0 0 0 4.1633618,8.2422827 Z"
     id="path4342-6" />
  <path
     style="fill:url(#linearGradient1468);fill-opacity:1;stroke:none;stroke-width:0.555614;stroke-linecap:round;stroke-linejoin:round;stroke-miterlimit:4;stroke-dasharray:none;stroke-opacity:1"
     d="M 5.5381428,7.2570235 6.1594056,7.8658425 5.5381428,8.4746617 5.8487744,8.7790723 6.4700372,8.1702511 7.0913001,8.7790723 7.4019337,8.4746617 6.7806697,7.8658425 7.4019337,7.2570235 7.0913001,6.9526138 6.4700372,7.5614326 5.8487744,6.9526138 Z"
     id="rect4146-3"
     inkscape:transform-center-x="-0.80405661"
     inkscape:transform-center-y="-5.358067" />
</svg>
