<?xml version="1.0" encoding="UTF-8" standalone="no"?>
<svg
   width="45.999886"
   height="45.999989"
   version="1.1"
   viewBox="0 0 12.170564 12.170591"
   id="svg12"
   sodipodi:docname="kfloppy.svg"
   inkscape:version="1.3.2 (091e20ef0f, 2023-11-25)"
   xmlns:inkscape="http://www.inkscape.org/namespaces/inkscape"
   xmlns:sodipodi="http://sodipodi.sourceforge.net/DTD/sodipodi-0.dtd"
   xmlns:xlink="http://www.w3.org/1999/xlink"
   xmlns="http://www.w3.org/2000/svg"
   xmlns:svg="http://www.w3.org/2000/svg">
  <defs
     id="defs16">
    <linearGradient
       id="linearGradient3"
       inkscape:collect="always">
      <stop
         style="stop-color:#b280ff;stop-opacity:1;"
         offset="0"
         id="stop1" />
      <stop
         style="stop-color:#00ccff;stop-opacity:1"
         offset="1"
         id="stop2" />
    </linearGradient>
    <linearGradient
       id="c"
       y1="523.79999"
       x1="403.57001"
       y2="536.79999"
       x2="416.57001"
       gradientUnits="userSpaceOnUse"
       gradientTransform="matrix(0.34526714,0,0,0.34526706,-134.80427,-174.63325)">
      <stop
         stop-color="#292c2f"
         id="stop1568" />
      <stop
         offset="1"
         stop-opacity="0"
         id="stop1570" />
    </linearGradient>
    <linearGradient
       xlink:href="#b-2"
       id="linearGradient4189"
       x1="14.369"
       y1="22.521999"
       x2="26.521999"
       y2="22.521999"
       gradientUnits="userSpaceOnUse" />
    <linearGradient
       x1="36"
       gradientUnits="userSpaceOnUse"
       x2="14"
       y2="12"
       y1="44"
       id="b-2">
      <stop
         style="stop-color:#bfc9c9;stop-opacity:1"
         stop-color="#536161"
         id="stop1579" />
      <stop
         style="stop-color:#fbfbfb;stop-opacity:1"
         stop-color="#f4f5f5"
         offset="1"
         id="stop1581" />
    </linearGradient>
    <linearGradient
       xlink:href="#b-2"
       id="linearGradient4428"
       gradientUnits="userSpaceOnUse"
       x1="31.586"
       y1="36.345001"
       x2="1.2029999"
       y2="6.723" />
    <linearGradient
       xlink:href="#b-2"
       id="linearGradient4189-3"
       x1="14.369"
       y1="22.521999"
       x2="26.521999"
       y2="22.521999"
       gradientUnits="userSpaceOnUse"
       gradientTransform="translate(20.841982,61.553822)" />
    <linearGradient
       xlink:href="#b-2"
       id="linearGradient4428-5"
       gradientUnits="userSpaceOnUse"
       x1="31.586"
       y1="36.345001"
       x2="1.2029999"
       y2="6.723"
       gradientTransform="translate(20.841982,61.553822)" />
    <linearGradient
       xlink:href="#b-2"
       id="linearGradient4189-3-3"
       x1="14.369"
       y1="22.521999"
       x2="26.521999"
       y2="22.521999"
       gradientUnits="userSpaceOnUse"
       gradientTransform="translate(4.376802,4.4211693)" />
    <linearGradient
       xlink:href="#b-2"
       id="linearGradient4428-5-5"
       gradientUnits="userSpaceOnUse"
       x1="31.586"
       y1="36.345001"
       x2="1.2029999"
       y2="6.723"
       gradientTransform="translate(4.376802,4.4211693)" />
    <linearGradient
       inkscape:collect="always"
       xlink:href="#linearGradient11"
       id="linearGradient13"
       x1="-43.819283"
       y1="23.120178"
       x2="-1.9547797"
       y2="23.120178"
       gradientUnits="userSpaceOnUse"
       gradientTransform="scale(0.26457813)" />
    <linearGradient
       id="linearGradient11"
       inkscape:collect="always">
      <stop
         style="stop-color:#9955ff;stop-opacity:0.65640396;"
         offset="0"
         id="stop4-3" />
      <stop
         style="stop-color:#00ccff;stop-opacity:1"
         offset="1"
         id="stop11" />
    </linearGradient>
    <linearGradient
       inkscape:collect="always"
       xlink:href="#linearGradient3"
       id="linearGradient15"
       x1="0.7821216"
       y1="30.768938"
       x2="2.5723972"
       y2="47.560497"
       gradientUnits="userSpaceOnUse"
       gradientTransform="scale(0.26457813)" />
    <linearGradient
       id="paint1_linear_8_389"
       x1="5.6750498"
       y1="22.9186"
       x2="21.941299"
       y2="17.363199"
       gradientUnits="userSpaceOnUse"
       gradientTransform="scale(0.26457815)">
      <stop
         stop-color="#0357D1"
         id="stop4" />
      <stop
         offset="1"
         stop-color="#27CDFC"
         id="stop5" />
    </linearGradient>
    <linearGradient
       inkscape:collect="always"
       xlink:href="#linearGradient3"
       id="linearGradient2"
       x1="3.6353343"
       y1="6.1231265"
       x2="8.6110353"
       y2="6.1231265"
       gradientUnits="userSpaceOnUse" />
  </defs>
  <sodipodi:namedview
     id="namedview14"
     pagecolor="#000000"
     bordercolor="#666666"
     borderopacity="1.0"
     inkscape:showpageshadow="2"
     inkscape:pageopacity="0.0"
     inkscape:pagecheckerboard="0"
     inkscape:deskcolor="#d1d1d1"
     showgrid="false"
     inkscape:zoom="10.429825"
     inkscape:cx="17.066442"
     inkscape:cy="19.463414"
     inkscape:window-width="1920"
     inkscape:window-height="996"
     inkscape:window-x="0"
     inkscape:window-y="0"
     inkscape:window-maximized="1"
     inkscape:current-layer="svg12">
    <inkscape:grid
       type="xygrid"
       id="grid244"
       originx="9.7893915"
       originy="-31.749373"
       spacingy="1"
       spacingx="1"
       units="px"
       visible="false" />
  </sodipodi:namedview>
  <rect
     x="-12.025727"
     y="0.1490714"
     width="11.940627"
     height="11.936014"
     rx="1.6121091"
     stroke="url(#paint4_linear_77:23)"
     shape-rendering="crispEdges"
     id="rect5-6-7-3"
     ry="1.7735944"
     transform="matrix(0.00523883,-0.99998628,0.999988,0.00489859,0,0)"
     style="fill:#80b3ff;fill-opacity:0.15;stroke:url(#linearGradient13);stroke-width:0.188987;stroke-opacity:1" />
  <rect
     x="-3.7266586"
     y="4.6446943"
     width="7.912631"
     height="7.912384"
     rx="1.612043"
     shape-rendering="crispEdges"
     id="rect5-6-6-6-6"
     style="fill:#80b3ff;fill-opacity:0.122146;stroke:url(#linearGradient15);stroke-width:0.188987;stroke-opacity:1"
     ry="1.7735215"
     transform="matrix(0.72612649,-0.68756114,0.6879775,0.72573202,0,0)" />
  <path
     d="m 3.9598389,2.9481888 c -0.086063,0 -0.1686048,0.03419 -0.2294573,0.095042 -0.060858,0.060852 -0.095045,0.1433854 -0.095045,0.2294563 0,0.086063 0.034186,0.1686038 0.095045,0.2294615 0.060855,0.060855 0.1433944,0.095042 0.2294573,0.095042 H 6.555847 c 0.086104,0 0.1686238,-0.034184 0.2294732,-0.095042 0.060852,-0.060868 0.095034,-0.1434042 0.095034,-0.2294615 0,-0.086065 -0.034179,-0.1686007 -0.095034,-0.2294563 C 6.7244712,2.9823678 6.6419487,2.9481888 6.555847,2.9481888 Z m 2.618507,3.8940335 c 0.3889717,0 0.7130422,0 0.9700494,0.03461 0.2717172,0.036348 0.5170418,0.1168205 0.7139076,0.3141191 0.1972983,0.1968659 0.2777751,0.4421903 0.3141191,0.7139081 0.034613,0.2570063 0.034613,0.5810773 0.034613,0.970049 V 9.0237018 L 7.9620264,9.6399043 V 8.8974038 c 0,-0.4170936 -8.654e-4,-0.6974641 -0.028992,-0.9064444 C 7.9062139,7.7915031 7.8599178,7.7058349 7.8032384,7.6495871 7.7469915,7.5933468 7.6617551,7.5470523 7.4622936,7.519787 7.2533137,7.4920904 6.9729431,7.491228 6.5558477,7.491228 H 5.6905043 c -0.417075,0 -0.6974468,8.654e-4 -0.9064267,0.028991 C 4.5846163,7.5470437 4.4989472,7.5933378 4.4427,7.6500248 4.3864591,7.7062756 4.340157,7.7915052 4.312894,7.9909714 4.2852107,8.1999496 4.2843374,8.4803199 4.2843374,8.8974165 V 9.8007678 L 3.6353342,9.127681 V 8.8749139 c 0,-0.3889716 0,-0.7130427 0.034613,-0.9700482 0.036347,-0.2717197 0.116824,-0.5170442 0.3136892,-0.7139103 0.1972987,-0.1972973 0.4426239,-0.2777745 0.713908,-0.3141191 0.25744,-0.03461 0.5819434,-0.03461 0.9704622,-0.03461 z"
     fill="url(#paint1_linear_8_389)"
     id="path2"
     style="fill:url(#linearGradient2);stroke-width:0.264578"
     sodipodi:nodetypes="scsssscscssccccsccscccsscccsccscsccc" />
</svg>
