<?xml version="1.0" encoding="UTF-8" standalone="no"?>
<svg
   width="45.999886"
   height="45.999989"
   version="1.1"
   viewBox="0 0 12.170564 12.170591"
   id="svg12"
   sodipodi:docname="kipi.svg"
   inkscape:version="1.3.2 (091e20ef0f, 2023-11-25)"
   xmlns:inkscape="http://www.inkscape.org/namespaces/inkscape"
   xmlns:sodipodi="http://sodipodi.sourceforge.net/DTD/sodipodi-0.dtd"
   xmlns:xlink="http://www.w3.org/1999/xlink"
   xmlns="http://www.w3.org/2000/svg"
   xmlns:svg="http://www.w3.org/2000/svg">
  <defs
     id="defs16">
    <linearGradient
       id="c"
       y1="523.79999"
       x1="403.57001"
       y2="536.79999"
       x2="416.57001"
       gradientUnits="userSpaceOnUse"
       gradientTransform="matrix(0.34526714,0,0,0.34526706,-134.80427,-174.63325)">
      <stop
         stop-color="#292c2f"
         id="stop1568" />
      <stop
         offset="1"
         stop-opacity="0"
         id="stop1570" />
    </linearGradient>
    <linearGradient
       xlink:href="#b-2"
       id="linearGradient4189"
       x1="14.369"
       y1="22.521999"
       x2="26.521999"
       y2="22.521999"
       gradientUnits="userSpaceOnUse" />
    <linearGradient
       x1="36"
       gradientUnits="userSpaceOnUse"
       x2="14"
       y2="12"
       y1="44"
       id="b-2">
      <stop
         style="stop-color:#bfc9c9;stop-opacity:1"
         stop-color="#536161"
         id="stop1579" />
      <stop
         style="stop-color:#fbfbfb;stop-opacity:1"
         stop-color="#f4f5f5"
         offset="1"
         id="stop1581" />
    </linearGradient>
    <linearGradient
       xlink:href="#b-2"
       id="linearGradient4428"
       gradientUnits="userSpaceOnUse"
       x1="31.586"
       y1="36.345001"
       x2="1.2029999"
       y2="6.723" />
    <linearGradient
       xlink:href="#b-2"
       id="linearGradient4189-3"
       x1="14.369"
       y1="22.521999"
       x2="26.521999"
       y2="22.521999"
       gradientUnits="userSpaceOnUse"
       gradientTransform="translate(20.841982,61.553822)" />
    <linearGradient
       xlink:href="#b-2"
       id="linearGradient4428-5"
       gradientUnits="userSpaceOnUse"
       x1="31.586"
       y1="36.345001"
       x2="1.2029999"
       y2="6.723"
       gradientTransform="translate(20.841982,61.553822)" />
    <linearGradient
       xlink:href="#b-2"
       id="linearGradient4189-3-3"
       x1="14.369"
       y1="22.521999"
       x2="26.521999"
       y2="22.521999"
       gradientUnits="userSpaceOnUse"
       gradientTransform="translate(4.376802,4.4211693)" />
    <linearGradient
       xlink:href="#b-2"
       id="linearGradient4428-5-5"
       gradientUnits="userSpaceOnUse"
       x1="31.586"
       y1="36.345001"
       x2="1.2029999"
       y2="6.723"
       gradientTransform="translate(4.376802,4.4211693)" />
    <linearGradient
       inkscape:collect="always"
       xlink:href="#linearGradient11"
       id="linearGradient13"
       x1="-43.819283"
       y1="23.120178"
       x2="-1.9547797"
       y2="23.120178"
       gradientUnits="userSpaceOnUse"
       gradientTransform="scale(0.26457813)" />
    <linearGradient
       id="linearGradient11"
       inkscape:collect="always">
      <stop
         style="stop-color:#9955ff;stop-opacity:0.65640396;"
         offset="0"
         id="stop4-3" />
      <stop
         style="stop-color:#00ccff;stop-opacity:1"
         offset="1"
         id="stop11" />
    </linearGradient>
    <linearGradient
       inkscape:collect="always"
       xlink:href="#linearGradient14"
       id="linearGradient15"
       x1="-9.6850061"
       y1="45.161198"
       x2="11.98815"
       y2="21.735205"
       gradientUnits="userSpaceOnUse"
       gradientTransform="scale(0.26457813)" />
    <linearGradient
       id="linearGradient14"
       inkscape:collect="always">
      <stop
         style="stop-color:#9955ff;stop-opacity:0.45197046;"
         offset="0"
         id="stop12" />
      <stop
         style="stop-color:#00ccff;stop-opacity:1"
         offset="1"
         id="stop13" />
    </linearGradient>
    <linearGradient
       inkscape:collect="always"
       xlink:href="#linearGradient3"
       id="linearGradient5"
       x1="14.995038"
       y1="30.492855"
       x2="34.285194"
       y2="12.275867"
       gradientUnits="userSpaceOnUse"
       gradientTransform="scale(0.26457813)" />
    <linearGradient
       id="linearGradient3"
       inkscape:collect="always">
      <stop
         style="stop-color:#bc5fd3;stop-opacity:1"
         offset="0"
         id="stop3" />
      <stop
         style="stop-color:#b380ff;stop-opacity:1"
         offset="0.51436442"
         id="stop13-3" />
      <stop
         style="stop-color:#ffd42a;stop-opacity:1"
         offset="1"
         id="stop5" />
    </linearGradient>
    <linearGradient
       id="_lgradient_31"
       x1="0"
       y1="0.5"
       x2="1"
       y2="0.5"
       gradientTransform="matrix(1.5762079,0,0,1.5762079,4.9048311,8.7592236)"
       gradientUnits="userSpaceOnUse">
      <stop
         offset="0"
         stop-opacity="1"
         style="stop-color:#ad9dff;stop-opacity:1;"
         id="stop4-3-6" />
      <stop
         offset="51.73913043478261%"
         stop-opacity="1"
         style="stop-color:rgb(32,189,255)"
         id="stop5-5" />
      <stop
         offset="98.26086956521739%"
         stop-opacity="1"
         style="stop-color:rgb(165,254,203)"
         id="stop6" />
    </linearGradient>
    <linearGradient
       id="_lgradient_32"
       x1="0"
       y1="0.5"
       x2="1"
       y2="0.5"
       gradientTransform="matrix(1.5762079,0,0,1.5762079,3.7789681,6.2823257)"
       gradientUnits="userSpaceOnUse">
      <stop
         offset="0%"
         stop-opacity="1"
         style="stop-color:rgb(255,229,59)"
         id="stop7" />
      <stop
         offset="98.69565217391305%"
         stop-opacity="1"
         style="stop-color:rgb(255,0,91)"
         id="stop8" />
    </linearGradient>
    <linearGradient
       id="_lgradient_34"
       x1="0"
       y1="0.5"
       x2="0.90748805"
       y2="0.92007786"
       gradientTransform="matrix(1.5762079,0,0,1.5762079,8.0572471,3.8054268)"
       gradientUnits="userSpaceOnUse">
      <stop
         offset="0%"
         stop-opacity="1"
         style="stop-color:rgb(247,241,7)"
         id="stop11-7" />
      <stop
         offset="83.88839793817618%"
         stop-opacity="1"
         style="stop-color:rgb(255,187,36)"
         id="stop12-5" />
    </linearGradient>
  </defs>
  <sodipodi:namedview
     id="namedview14"
     pagecolor="#000000"
     bordercolor="#666666"
     borderopacity="1.0"
     inkscape:showpageshadow="2"
     inkscape:pageopacity="0.0"
     inkscape:pagecheckerboard="0"
     inkscape:deskcolor="#d1d1d1"
     showgrid="false"
     inkscape:zoom="5.2149125"
     inkscape:cx="23.20269"
     inkscape:cy="69.032798"
     inkscape:window-width="1920"
     inkscape:window-height="996"
     inkscape:window-x="0"
     inkscape:window-y="0"
     inkscape:window-maximized="1"
     inkscape:current-layer="svg12">
    <inkscape:grid
       type="xygrid"
       id="grid244"
       originx="9.7893915"
       originy="-31.749373"
       spacingy="1"
       spacingx="1"
       units="px"
       visible="false" />
  </sodipodi:namedview>
  <rect
     x="-12.025727"
     y="0.1490714"
     width="11.940627"
     height="11.936014"
     rx="1.6121091"
     stroke="url(#paint4_linear_77:23)"
     shape-rendering="crispEdges"
     id="rect5-6-7-3"
     ry="1.7735944"
     transform="matrix(0.00523883,-0.99998628,0.999988,0.00489859,0,0)"
     style="fill:#80b3ff;fill-opacity:0.15;stroke:url(#linearGradient13);stroke-width:0.188987;stroke-opacity:1" />
  <rect
     x="-3.7266586"
     y="4.6446943"
     width="7.912631"
     height="7.912384"
     rx="1.612043"
     shape-rendering="crispEdges"
     id="rect5-6-6-6-6"
     style="fill:#80b3ff;fill-opacity:0.122146;stroke:url(#linearGradient15);stroke-width:0.188987;stroke-opacity:1"
     ry="1.7735215"
     transform="matrix(0.72612649,-0.68756114,0.6879775,0.72573202,0,0)" />
  <path
     d="M 8.7198041,6.0851541 C 8.5963194,7.0732987 7.3448582,6.7686415 6.778641,6.7785038 c -1.3602192,0.1711761 0.4698893,1.6744698 -0.099706,1.87145 -0.1946835,0.045666 -0.3845036,0.06985 -0.5935082,0.06985 -1.4595197,0 -2.6346476,-1.175128 -2.6346476,-2.6346481 0,-1.4593849 1.1751279,-2.6343776 2.6346476,-2.6343776 1.4593851,0 2.6343777,1.1749927 2.6343773,2.634376 z M 6.8472734,7.3201327 c 0.00129,0.0027 0.00273,0.00547 0.00402,0.00817 0.054045,0.1161892 0.1121356,0.2310269 0.1769851,0.3418106 0.064853,0.1134874 0.1256463,0.2296759 0.1823893,0.3472157 0.02972,0.06485 0.056747,0.132401 0.077007,0.1999525 0.028375,0.085113 0.043236,0.1729328 0.044579,0.2621006 C 7.3363238,8.6293205 7.2930968,8.7752319 7.2093336,8.898176 7.1134253,9.0332588 6.9742691,9.1305333 6.8148475,9.1737665 6.5757149,9.2305078 6.3311783,9.2602309 6.0866413,9.2602309 5.243595,9.2615232 4.4343265,8.9265088 3.8385216,8.3320543 3.2440677,7.7362491 2.9090118,6.9269815 2.9103635,6.0852886 2.9090155,5.2435954 3.2440677,4.4343271 3.8385222,3.8385223 4.4343272,3.2440674 5.2435957,2.9090115 6.0852883,2.9103635 c 0.8416933,-0.00126 1.6509613,0.3337039 2.2467666,0.9281588 0.5944537,0.5958048 0.9295097,1.4050731 0.9281588,2.2467663 0,0.01891 -0.00126,0.03648 -0.00273,0.05539 C 9.2345412,6.3636024 9.1575324,6.5784171 9.0332372,6.7648592 8.9143466,6.9337381 8.7549243,7.0715431 8.5711843,7.1647645 8.4131137,7.2431242 8.2442346,7.2971657 8.0699518,7.3228358 7.9159338,7.3458018 7.7592139,7.3579586 7.6038455,7.3552633 7.4349666,7.3539708 7.2660875,7.3458108 7.0985597,7.3336446 7.014796,7.3255219 6.9310315,7.3214787 6.8472672,7.3201309 Z M 9.2602166,6.0852892 m 0,0 z"
     fill-rule="evenodd"
     id="path3"
     style="fill:url(#linearGradient5);stroke-width:0.264579" />
  <path
     d="m 4.5991558,7.3687698 c 0,-0.2610188 0.2118421,-0.472861 0.4728616,-0.472861 0.261019,0 0.4728611,0.2118422 0.4728611,0.472861 0,0.2610194 -0.2118421,0.4728614 -0.4728611,0.4728614 -0.2610195,0 -0.4728616,-0.211842 -0.4728616,-0.4728614 z"
     fill="url(#_lgradient_31)"
     id="path6"
     style="isolation:isolate;fill:url(#_lgradient_31);stroke-width:0.225173" />
  <path
     d="m 3.9236399,5.8826348 c 0,-0.2610194 0.2118416,-0.4728612 0.4728613,-0.4728612 0.2610197,0 0.4728616,0.2118418 0.4728616,0.4728612 0,0.261019 -0.2118419,0.4728612 -0.4728616,0.4728612 -0.2610197,0 -0.4728613,-0.2118422 -0.4728613,-0.4728612 z"
     fill="url(#_lgradient_32)"
     id="path8"
     style="isolation:isolate;fill:url(#_lgradient_32);stroke-width:0.225173" />
  <path
     d="m 4.8693628,4.5316023 c 0,-0.2610194 0.2118413,-0.4728612 0.4728606,-0.4728612 0.2610196,0 0.4728617,0.2118418 0.4728617,0.4728612 0,0.261019 -0.2118421,0.4728613 -0.4728617,0.4728613 -0.2610193,0 -0.4728606,-0.2118423 -0.4728606,-0.4728613 z"
     id="path10"
     style="isolation:isolate;fill:#b98bff;fill-opacity:1;stroke-width:0.225173" />
  <path
     d="m 6.4906008,4.3964987 c 0,-0.261019 0.2118419,-0.4728609 0.4728615,-0.4728609 0.2610195,0 0.4728608,0.2118419 0.4728608,0.4728609 0,0.2610208 -0.2118413,0.4728617 -0.4728608,0.4728617 -0.2610196,0 -0.4728615,-0.2118409 -0.4728615,-0.4728617 z"
     fill="url(#_lgradient_34)"
     id="path12"
     style="isolation:isolate;fill:url(#_lgradient_34);stroke-width:0.225173" />
</svg>
