<?xml version="1.0" encoding="UTF-8" standalone="no"?>
<svg
   width="45.999886"
   height="45.999989"
   version="1.1"
   viewBox="0 0 12.170564 12.170591"
   id="svg12"
   sodipodi:docname="kirogi.svg"
   inkscape:version="1.3.2 (091e20ef0f, 2023-11-25)"
   xmlns:inkscape="http://www.inkscape.org/namespaces/inkscape"
   xmlns:sodipodi="http://sodipodi.sourceforge.net/DTD/sodipodi-0.dtd"
   xmlns:xlink="http://www.w3.org/1999/xlink"
   xmlns="http://www.w3.org/2000/svg"
   xmlns:svg="http://www.w3.org/2000/svg">
  <defs
     id="defs16">
    <linearGradient
       id="linearGradient7">
      <stop
         offset="0"
         stop-color="#78542e"
         id="stop1"
         style="stop-color:#c1915e;stop-opacity:1;" />
      <stop
         offset="1"
         stop-color="#544020"
         id="stop6" />
    </linearGradient>
    <linearGradient
       id="c"
       y1="523.79999"
       x1="403.57001"
       y2="536.79999"
       x2="416.57001"
       gradientUnits="userSpaceOnUse"
       gradientTransform="matrix(0.34526714,0,0,0.34526706,-134.80427,-174.63325)">
      <stop
         stop-color="#292c2f"
         id="stop1568" />
      <stop
         offset="1"
         stop-opacity="0"
         id="stop1570" />
    </linearGradient>
    <linearGradient
       xlink:href="#b-2"
       id="linearGradient4189"
       x1="14.369"
       y1="22.521999"
       x2="26.521999"
       y2="22.521999"
       gradientUnits="userSpaceOnUse" />
    <linearGradient
       x1="36"
       gradientUnits="userSpaceOnUse"
       x2="14"
       y2="12"
       y1="44"
       id="b-2">
      <stop
         style="stop-color:#bfc9c9;stop-opacity:1"
         stop-color="#536161"
         id="stop1579" />
      <stop
         style="stop-color:#fbfbfb;stop-opacity:1"
         stop-color="#f4f5f5"
         offset="1"
         id="stop1581" />
    </linearGradient>
    <linearGradient
       xlink:href="#b-2"
       id="linearGradient4428"
       gradientUnits="userSpaceOnUse"
       x1="31.586"
       y1="36.345001"
       x2="1.2029999"
       y2="6.723" />
    <linearGradient
       xlink:href="#b-2"
       id="linearGradient4189-3"
       x1="14.369"
       y1="22.521999"
       x2="26.521999"
       y2="22.521999"
       gradientUnits="userSpaceOnUse"
       gradientTransform="translate(20.841982,61.553822)" />
    <linearGradient
       xlink:href="#b-2"
       id="linearGradient4428-5"
       gradientUnits="userSpaceOnUse"
       x1="31.586"
       y1="36.345001"
       x2="1.2029999"
       y2="6.723"
       gradientTransform="translate(20.841982,61.553822)" />
    <linearGradient
       xlink:href="#b-2"
       id="linearGradient4189-3-3"
       x1="14.369"
       y1="22.521999"
       x2="26.521999"
       y2="22.521999"
       gradientUnits="userSpaceOnUse"
       gradientTransform="translate(4.376802,4.4211693)" />
    <linearGradient
       xlink:href="#b-2"
       id="linearGradient4428-5-5"
       gradientUnits="userSpaceOnUse"
       x1="31.586"
       y1="36.345001"
       x2="1.2029999"
       y2="6.723"
       gradientTransform="translate(4.376802,4.4211693)" />
    <linearGradient
       inkscape:collect="always"
       xlink:href="#linearGradient11"
       id="linearGradient13"
       x1="-43.819283"
       y1="23.120178"
       x2="-1.9547797"
       y2="23.120178"
       gradientUnits="userSpaceOnUse"
       gradientTransform="scale(0.26457813)" />
    <linearGradient
       id="linearGradient11"
       inkscape:collect="always">
      <stop
         style="stop-color:#00ba4b;stop-opacity:0.7044335;"
         offset="0"
         id="stop4-3" />
      <stop
         style="stop-color:#00aa44;stop-opacity:1"
         offset="1"
         id="stop11" />
    </linearGradient>
    <filter
       id="filter2917-3"
       x="-0.96181147"
       y="-0.66745996"
       width="2.9236229"
       height="2.3349199"
       color-interpolation-filters="sRGB">
      <feGaussianBlur
         stdDeviation="0.2871969"
         id="feGaussianBlur732-5" />
    </filter>
    <filter
       id="filter1"
       x="-0.96181148"
       y="-0.66745996"
       width="2.9236228"
       height="2.3349199"
       color-interpolation-filters="sRGB">
      <feGaussianBlur
         stdDeviation="0.2871969"
         id="feGaussianBlur1" />
    </filter>
    <filter
       id="filter2"
       x="-0.96181148"
       y="-0.66745996"
       width="2.9236228"
       height="2.3349199"
       color-interpolation-filters="sRGB">
      <feGaussianBlur
         stdDeviation="0.2871969"
         id="feGaussianBlur2" />
    </filter>
    <linearGradient
       id="paint0_linear_41_119"
       x1="18.44566"
       y1="34.313705"
       x2="23.814877"
       y2="13.464253"
       gradientUnits="userSpaceOnUse"
       gradientTransform="scale(0.26457817)">
      <stop
         stop-color="#02AA93"
         id="stop2" />
      <stop
         offset="1"
         stop-color="#67FF80"
         id="stop3" />
    </linearGradient>
    <linearGradient
       id="paint1_linear_41_119"
       x1="19.6236"
       y1="21.062599"
       x2="19.6236"
       y2="2.9365201"
       gradientUnits="userSpaceOnUse"
       gradientTransform="scale(0.26457817)">
      <stop
         stop-color="#02AA93"
         id="stop4" />
      <stop
         offset="1"
         stop-color="#67FF80"
         id="stop5" />
    </linearGradient>
    <linearGradient
       inkscape:collect="always"
       xlink:href="#paint1_linear_41_119"
       id="linearGradient6"
       x1="-3.8211522"
       y1="8.6008863"
       x2="4.2804661"
       y2="8.6008863"
       gradientUnits="userSpaceOnUse" />
    <linearGradient
       id="c-3"
       gradientUnits="userSpaceOnUse"
       x1="12"
       x2="44"
       y1="12"
       y2="44"
       gradientTransform="matrix(0.27781773,0,0,0.27779161,-17.861455,-14.756217)">
      <stop
         offset="0"
         stop-color="#292c2f"
         id="stop29" />
      <stop
         offset="1"
         stop-opacity="0"
         id="stop31" />
    </linearGradient>
    <linearGradient
       inkscape:collect="always"
       xlink:href="#linearGradient7"
       id="linearGradient846"
       gradientUnits="userSpaceOnUse"
       gradientTransform="matrix(0.27781225,0,0,0.25463821,0.74004974,1.3893128)"
       x1="24"
       y1="29"
       x2="24"
       y2="40" />
    <linearGradient
       id="a">
      <stop
         offset="0"
         stop-color="#78542e"
         id="stop2-6"
         style="stop-color:#be8b56;stop-opacity:1;" />
      <stop
         offset="1"
         stop-color="#544020"
         id="stop4-7"
         style="stop-color:#b58a45;stop-opacity:1;" />
    </linearGradient>
    <linearGradient
       inkscape:collect="always"
       xlink:href="#e"
       id="linearGradient848"
       gradientUnits="userSpaceOnUse"
       gradientTransform="matrix(1.0500123,0,0,1.0499135,0.74004974,-297.74922)"
       x1="6.3499999"
       y1="293.82501"
       x2="6.3499999"
       y2="286.15201" />
    <linearGradient
       id="e"
       gradientUnits="userSpaceOnUse"
       x1="6.3499999"
       x2="6.3499999"
       y1="293.82501"
       y2="286.15201"
       gradientTransform="matrix(1.0500331,0,0,1.0499343,-17.861455,-313.25254)">
      <stop
         offset="0"
         stop-color="#dadedf"
         id="stop7" />
      <stop
         offset="1"
         stop-color="#fcfcfc"
         id="stop9" />
    </linearGradient>
    <linearGradient
       inkscape:collect="always"
       xlink:href="#a"
       id="linearGradient850"
       gradientUnits="userSpaceOnUse"
       gradientTransform="matrix(0.27781225,0,0,0.27778615,0.74004974,0.74123778)"
       x1="24"
       y1="9.007"
       x2="24"
       y2="21.025999" />
    <linearGradient
       inkscape:collect="always"
       xlink:href="#g"
       id="linearGradient852"
       gradientUnits="userSpaceOnUse"
       gradientTransform="matrix(1.0500123,0,0,1.0499135,0.74004974,-297.74922)"
       x1="6.3499999"
       y1="294.09"
       x2="6.3499999"
       y2="289.85999" />
    <linearGradient
       id="g"
       gradientUnits="userSpaceOnUse"
       x1="6.3499999"
       x2="6.3499999"
       y1="294.09"
       y2="289.85999"
       gradientTransform="matrix(1.0500331,0,0,1.0499343,-17.861455,-313.25254)">
      <stop
         offset="0"
         stop-color="#e26b00"
         id="stop17" />
      <stop
         offset="1"
         stop-color="#ff9230"
         id="stop19" />
    </linearGradient>
    <linearGradient
       inkscape:collect="always"
       xlink:href="#h"
       id="linearGradient854"
       gradientUnits="userSpaceOnUse"
       gradientTransform="matrix(0.27781225,0,0,0.27778337,0.74004974,0.74123778)"
       x1="24"
       y1="24"
       x2="24"
       y2="21" />
    <linearGradient
       id="h"
       gradientTransform="matrix(0.27781773,0,0,0.27778883,-17.861455,-14.756217)"
       gradientUnits="userSpaceOnUse"
       x1="24"
       x2="24"
       y1="24"
       y2="21">
      <stop
         offset="0"
         stop-color="#232629"
         id="stop12" />
      <stop
         offset="1"
         stop-color="#4f535c"
         id="stop14" />
    </linearGradient>
    <linearGradient
       inkscape:collect="always"
       xlink:href="#i"
       id="linearGradient856"
       gradientUnits="userSpaceOnUse"
       gradientTransform="matrix(1.0500123,0,0,1.0499135,0.74004974,-297.74922)"
       x1="6.3499999"
       y1="289.32599"
       x2="6.3499999"
       y2="286.94601" />
    <linearGradient
       id="i"
       gradientUnits="userSpaceOnUse"
       x1="6.3499999"
       x2="6.3499999"
       y1="289.32599"
       y2="286.94601"
       gradientTransform="matrix(1.0500331,0,0,1.0499343,-17.861455,-313.25254)">
      <stop
         offset="0"
         stop-color="#7e8690"
         id="stop34" />
      <stop
         offset="1"
         stop-color="#8f97a1"
         id="stop36" />
    </linearGradient>
    <linearGradient
       inkscape:collect="always"
       xlink:href="#j"
       id="linearGradient858"
       gradientUnits="userSpaceOnUse"
       gradientTransform="matrix(0.27798025,0,0,0.26199542,0.72954994,0.65722638)"
       x1="24.025"
       y1="18.358999"
       x2="24.025"
       y2="10.937" />
    <linearGradient
       id="j"
       gradientTransform="matrix(0.27798572,0,0,0.26200058,-17.871955,-14.84023)"
       gradientUnits="userSpaceOnUse"
       x1="24.025"
       x2="24.025"
       y1="18.358999"
       y2="10.937">
      <stop
         offset="0"
         stop-color="#098ae7"
         id="stop39" />
      <stop
         offset="1"
         stop-color="#34a3f4"
         id="stop41" />
    </linearGradient>
  </defs>
  <sodipodi:namedview
     id="namedview14"
     pagecolor="#000000"
     bordercolor="#666666"
     borderopacity="1.0"
     inkscape:showpageshadow="2"
     inkscape:pageopacity="0.0"
     inkscape:pagecheckerboard="0"
     inkscape:deskcolor="#d1d1d1"
     showgrid="false"
     inkscape:zoom="5.2149125"
     inkscape:cx="23.20269"
     inkscape:cy="53.692176"
     inkscape:window-width="1920"
     inkscape:window-height="996"
     inkscape:window-x="0"
     inkscape:window-y="0"
     inkscape:window-maximized="1"
     inkscape:current-layer="svg12">
    <inkscape:grid
       type="xygrid"
       id="grid244"
       originx="9.7893915"
       originy="-31.749373"
       spacingy="1"
       spacingx="1"
       units="px"
       visible="false" />
  </sodipodi:namedview>
  <rect
     x="-12.025727"
     y="0.1490714"
     width="11.940627"
     height="11.936014"
     rx="1.6121091"
     stroke="url(#paint4_linear_77:23)"
     shape-rendering="crispEdges"
     id="rect5-6-7-3"
     ry="1.7735944"
     transform="matrix(0.00523883,-0.99998628,0.999988,0.00489859,0,0)"
     style="fill:#80b3ff;fill-opacity:0.15;stroke:url(#linearGradient13);stroke-width:0.188987;stroke-opacity:1" />
  <rect
     x="-3.7266586"
     y="4.6446943"
     width="7.912631"
     height="7.912384"
     rx="1.612043"
     shape-rendering="crispEdges"
     id="rect5-6-6-6-6"
     style="fill:#80b3ff;fill-opacity:0.122146;stroke:url(#linearGradient6);stroke-width:0.188987;stroke-opacity:1"
     ry="1.7735215"
     transform="matrix(0.72612649,-0.68756114,0.6879775,0.72573202,0,0)" />
  <path
     d="m 3.4440664,6.7708047 c 0,0.556211 -0.052814,1.868066 0.2535148,2.173076 0.052819,0.05258 0.084916,0.0517 0.1123347,0.0517 0.084504,0 -0.01829,-0.960125 0.243562,-1.483366 z m 5.281572,0 -0.6094144,0.741481 c 0.2620461,0.523248 0.1590554,1.483368 0.2437633,1.483368 0.027227,0 0.059117,0.0013 0.1121325,-0.05171 0.3063304,-0.305009 0.2535186,-1.616856 0.2535186,-2.173076 z"
     fill="url(#d)"
     id="path48-2"
     style="fill:url(#linearGradient846);stroke-width:0.277796" />
  <path
     d="M 6.2346279,2.1166251 C 5.9398026,2.6639741 5.0223147,2.6777344 4.4595378,3.1279952 3.6518406,3.7747277 3.2410821,5.3525527 3.2410821,6.1621117 c 0,0.404397 0.2710227,1.011381 0.4069192,1.213194 0.4053845,0.606983 1.0311187,0.890588 1.6246067,1.011369 0.2664172,0.05416 1.2499343,0.04117 1.6246068,0 0.6349492,-0.06952 1.2192242,-0.405156 1.6253753,-1.011369 0.1358964,-0.201813 0.4069219,-0.873768 0.4069219,-1.213194 0,-0.809559 -0.3408942,-2.502053 -1.2192254,-3.0341165 C 7.2427132,2.8397986 6.4580499,2.7243661 6.216201,2.6173429 6.2446081,2.5286659 6.3651486,2.4675098 6.235394,2.1166251 Z"
     fill="url(#e)"
     id="path50-6"
     style="fill:url(#linearGradient848);stroke-width:1.04996" />
  <path
     d="M 5.1473717,2.8955175 A 0.71057422,0.70750304 0 0 0 4.873949,2.9394055 C 4.2956172,3.1614878 4.1570772,3.2292457 3.85034,3.5346525 3.3589518,4.0239205 3.1438291,5.6551395 3.4877402,5.4193045 4.6186053,4.6442455 5.268238,4.5677885 5.4425305,4.4697025 c 0.220607,-0.123981 0.1915587,-0.328268 0.6423202,-0.328268 0.4507612,0 0.4217126,0.204287 0.6423199,0.328268 0.1742924,0.09788 0.8239245,0.174543 1.9547924,0.949602 C 9.0258698,5.6551397 8.8109552,4.0241197 8.3193606,3.5346527 8.0128265,3.2294499 7.8740838,3.1614876 7.2955488,2.939407 A 0.71098053,0.70790753 0 0 0 7.0223293,2.895518 c -0.2813459,0.00526 -0.5886924,0.1306595 -0.9374786,0.1306595 -0.3487873,0 -0.656134,-0.1254009 -0.937479,-0.13066 z"
     fill="url(#f)"
     id="path52-1"
     style="fill:url(#linearGradient850);stroke-width:0.277796" />
  <path
     d="m 6.0849118,3.9360257 c -0.595024,0 -0.4652694,0.371521 -0.6426259,0.530536 0.2211193,-0.123855 0.1919433,-0.328728 0.6426259,-0.328728 0.4506828,0 0.4222755,0.204873 0.6426259,0.328728 -0.1773552,-0.159015 -0.047601,-0.530536 -0.6426259,-0.530536 z"
     opacity="0.388"
     id="path54-8"
     style="stroke-width:1.04996" />
  <path
     d="m 6.0849118,8.5915507 c -0.8123038,0 -2.031526,-0.808794 -2.031526,-1.213184 0,-0.405158 0.6096112,-0.606985 0.8123032,-1.011379 0.2034592,-0.405155 0.6096116,-1.011373 1.2192228,-1.011373 0.6096113,0 1.0157636,0.606218 1.2184548,1.011373 0.2034614,0.404394 0.8130724,0.606221 0.8130724,1.010612 0,0.405157 -1.2192242,1.213951 -2.0315272,1.213951 z"
     fill="url(#g)"
     id="path56-7"
     style="fill:url(#linearGradient852);stroke-width:1.04996" />
  <path
     d="m 5.2365232,6.5688037 c -0.1159337,0 -0.1666066,0.194169 -0.1781231,0.290499 -0.00549,0.04656 0.054505,0.113906 0.102114,0.113906 0.1074872,0 0.1474113,-0.405172 0.076017,-0.405172 z m 1.6967773,0 c -0.072174,0 -0.030704,0.404405 0.075247,0.404405 0.047601,0 0.1082561,-0.06716 0.102881,-0.113906 -0.011527,-0.09634 -0.062197,-0.290499 -0.178128,-0.290499 z"
     opacity="0.55"
     id="path58-9"
     style="stroke-width:1.04996" />
  <path
     d="m 4.3656993,5.3549937 c -0.075777,0 -0.1090848,0.140766 -0.1090848,0.284774 0,0.144016 0.00976,0.322003 0.088368,0.322003 0.078619,0 0.1147726,-0.168885 0.1147726,-0.322003 0,-0.15311 -0.018281,-0.284774 -0.094056,-0.284774 z m 3.4383024,0 c -0.075776,0 -0.094055,0.154122 -0.094055,0.284774 0,0.13067 0.048356,0.322003 0.1147729,0.322003 0.066429,0 0.088367,-0.182439 0.088367,-0.322003 0,-0.139559 -0.03331,-0.284774 -0.1090849,-0.284774 z"
     fill="url(#h)"
     id="path60-2"
     style="fill:url(#linearGradient854);stroke-width:0.277796" />
  <path
     d="m 5.1083057,3.0339705 c -0.1965511,0.01529 -0.4238103,0.084089 -0.6487679,0.1972254 -0.340892,0.1735388 -0.6311097,0.3845238 -0.8123033,0.7338848 -0.06449,0.123068 -0.3009671,0.686476 0,0.884473 0.2364729,0.155948 0.4284169,-0.191114 0.8123033,-0.405172 0.3838848,-0.212517 0.8798667,-0.26756 1.0157628,-0.354702 0.1919433,-0.124599 0.2034597,-0.443376 0.2034597,-0.655904 0,-0.303483 -0.2426154,-0.4250323 -0.5704546,-0.3998052 z m 1.9532133,0 c -0.3278391,-0.02523 -0.5704551,0.096323 -0.5704551,0.3998052 0,0.213288 0.010757,0.531305 0.2034592,0.655904 0.135896,0.08787 0.6311088,0.142185 1.0157635,0.355463 0.3838865,0.213297 0.5758292,0.560359 0.8123035,0.404411 0.3001984,-0.197997 0.06449,-0.761405 0,-0.885241 C 8.3413958,3.6157197 8.0511783,3.4047347 7.7102866,3.2311959 A 1.7796976,1.772005 0 0 0 7.061519,3.0339705 Z"
     fill="url(#i)"
     id="path64-2"
     style="fill:url(#linearGradient856);stroke-width:1.04996" />
  <path
     d="M 5.1152151,3.0951286 A 1.7351656,1.7276664 0 0 0 4.5240308,3.2656056 C 4.1954239,3.4223017 3.9389867,3.6004237 3.7762198,3.8947387 a 1.3581898,1.3523193 0 0 0 -0.1213074,0.349357 0.51210441,0.50989096 0 0 0 -0.00154,0.195708 c 0.012289,0.05121 0.032245,0.08111 0.072176,0.106255 0.02917,0.0184 0.02994,0.01518 0.052202,0.01082 a 0.44761148,0.44567683 0 0 0 0.1228765,-0.06717 c 0.1120827,-0.07946 0.2656374,-0.21941 0.4790779,-0.331024 0.211906,-0.110845 0.4437724,-0.175824 0.6357162,-0.225511 0.1927106,-0.04884 0.3616206,-0.09939 0.3708337,-0.105498 0.047599,-0.02915 0.085225,-0.09325 0.1074886,-0.188818 0.023039,-0.09557 0.027629,-0.211755 0.027629,-0.3103684 0,-0.084075 -0.023038,-0.1261331 -0.059888,-0.1605373 A 0.3401233,0.33865322 0 0 0 5.2695071,3.0967277 0.78696663,0.78356529 0 0 0 5.1144168,3.0950382 Z m 1.9401616,0 a 0.78696663,0.78356529 0 0 0 -0.1550904,0.00155 0.3401233,0.33865322 0 0 0 -0.1919431,0.0711 c -0.03686,0.034408 -0.059888,0.076474 -0.059888,0.1605397 0,0.098614 0.00457,0.2140454 0.026863,0.3103724 0.023036,0.09556 0.061423,0.159764 0.1082562,0.188052 0.00918,0.0066 0.1781235,0.05738 0.3708337,0.10626 0.1927113,0.04885 0.423811,0.114671 0.6357162,0.225515 0.2134403,0.111606 0.3669947,0.252266 0.4790893,0.331006 0.056042,0.03898 0.099811,0.06185 0.1228446,0.06717 0.023036,0.0063 0.023036,0.0076 0.052202,-0.01156 0.039913,-0.02452 0.059888,-0.05342 0.072177,-0.105487 A 0.51133663,0.50912651 0 0 0 8.5149201,4.2440707 1.3574218,1.3515547 0 0 0 8.393608,3.8947047 C 8.230833,3.5996497 7.9743981,3.4222927 7.6457909,3.2655911 A 1.7351656,1.7276664 0 0 0 7.0546058,3.0951164 Z"
     fill="url(#j)"
     id="path66-3"
     style="fill:url(#linearGradient858);stroke-width:1.04996" />
</svg>
