<?xml version="1.0" encoding="UTF-8" standalone="no"?>
<svg
   width="45.999886"
   height="45.999989"
   version="1.1"
   viewBox="0 0 12.170564 12.170591"
   id="svg12"
   sodipodi:docname="kmahjongg.svg"
   inkscape:version="1.3.2 (091e20ef0f, 2023-11-25)"
   xmlns:inkscape="http://www.inkscape.org/namespaces/inkscape"
   xmlns:sodipodi="http://sodipodi.sourceforge.net/DTD/sodipodi-0.dtd"
   xmlns:xlink="http://www.w3.org/1999/xlink"
   xmlns="http://www.w3.org/2000/svg"
   xmlns:svg="http://www.w3.org/2000/svg">
  <defs
     id="defs16">
    <linearGradient
       id="c"
       y1="523.79999"
       x1="403.57001"
       y2="536.79999"
       x2="416.57001"
       gradientUnits="userSpaceOnUse"
       gradientTransform="matrix(0.34526714,0,0,0.34526706,-134.80427,-174.63325)">
      <stop
         stop-color="#292c2f"
         id="stop1568" />
      <stop
         offset="1"
         stop-opacity="0"
         id="stop1570" />
    </linearGradient>
    <linearGradient
       xlink:href="#b-2"
       id="linearGradient4189"
       x1="14.369"
       y1="22.521999"
       x2="26.521999"
       y2="22.521999"
       gradientUnits="userSpaceOnUse" />
    <linearGradient
       x1="36"
       gradientUnits="userSpaceOnUse"
       x2="14"
       y2="12"
       y1="44"
       id="b-2">
      <stop
         style="stop-color:#bfc9c9;stop-opacity:1"
         stop-color="#536161"
         id="stop1579" />
      <stop
         style="stop-color:#fbfbfb;stop-opacity:1"
         stop-color="#f4f5f5"
         offset="1"
         id="stop1581" />
    </linearGradient>
    <linearGradient
       xlink:href="#b-2"
       id="linearGradient4428"
       gradientUnits="userSpaceOnUse"
       x1="31.586"
       y1="36.345001"
       x2="1.2029999"
       y2="6.723" />
    <linearGradient
       xlink:href="#b-2"
       id="linearGradient4189-3"
       x1="14.369"
       y1="22.521999"
       x2="26.521999"
       y2="22.521999"
       gradientUnits="userSpaceOnUse"
       gradientTransform="translate(20.841982,61.553822)" />
    <linearGradient
       xlink:href="#b-2"
       id="linearGradient4428-5"
       gradientUnits="userSpaceOnUse"
       x1="31.586"
       y1="36.345001"
       x2="1.2029999"
       y2="6.723"
       gradientTransform="translate(20.841982,61.553822)" />
    <linearGradient
       xlink:href="#b-2"
       id="linearGradient4189-3-3"
       x1="14.369"
       y1="22.521999"
       x2="26.521999"
       y2="22.521999"
       gradientUnits="userSpaceOnUse"
       gradientTransform="translate(4.376802,4.4211693)" />
    <linearGradient
       xlink:href="#b-2"
       id="linearGradient4428-5-5"
       gradientUnits="userSpaceOnUse"
       x1="31.586"
       y1="36.345001"
       x2="1.2029999"
       y2="6.723"
       gradientTransform="translate(4.376802,4.4211693)" />
    <linearGradient
       inkscape:collect="always"
       xlink:href="#linearGradient11"
       id="linearGradient13"
       x1="-43.819283"
       y1="23.120178"
       x2="-1.9547797"
       y2="23.120178"
       gradientUnits="userSpaceOnUse"
       gradientTransform="scale(0.26457813)" />
    <linearGradient
       id="linearGradient11"
       inkscape:collect="always">
      <stop
         style="stop-color:#d15a89;stop-opacity:0.88546801;"
         offset="0"
         id="stop4-3" />
      <stop
         style="stop-color:#c83771;stop-opacity:1"
         offset="1"
         id="stop11" />
    </linearGradient>
    <linearGradient
       inkscape:collect="always"
       xlink:href="#linearGradient14"
       id="linearGradient15"
       x1="-9.6850061"
       y1="45.161198"
       x2="11.98815"
       y2="21.735205"
       gradientUnits="userSpaceOnUse"
       gradientTransform="scale(0.26457813)" />
    <linearGradient
       id="linearGradient14"
       inkscape:collect="always">
      <stop
         style="stop-color:#a02c5a;stop-opacity:1"
         offset="0"
         id="stop12" />
      <stop
         style="stop-color:#c83771;stop-opacity:1"
         offset="1"
         id="stop13" />
    </linearGradient>
    <linearGradient
       id="linearGradient3331">
      <stop
         style="stop-color:#ffebf2;stop-opacity:1;"
         offset="0"
         id="stop3333" />
      <stop
         style="stop-color:#fe005d;stop-opacity:0;"
         offset="1"
         id="stop3335" />
    </linearGradient>
    <filter
       inkscape:collect="always"
       id="filter20766-5-3"
       x="-0.028127656"
       y="-0.020928725"
       width="1.0562553"
       height="1.0418575">
      <feGaussianBlur
         inkscape:collect="always"
         stdDeviation="0.49516509"
         id="feGaussianBlur20768-6-5" />
    </filter>
  </defs>
  <sodipodi:namedview
     id="namedview14"
     pagecolor="#000000"
     bordercolor="#666666"
     borderopacity="1.0"
     inkscape:showpageshadow="2"
     inkscape:pageopacity="0.0"
     inkscape:pagecheckerboard="0"
     inkscape:deskcolor="#d1d1d1"
     showgrid="false"
     inkscape:zoom="5.2149125"
     inkscape:cx="23.20269"
     inkscape:cy="69.032798"
     inkscape:window-width="1920"
     inkscape:window-height="996"
     inkscape:window-x="0"
     inkscape:window-y="0"
     inkscape:window-maximized="1"
     inkscape:current-layer="svg12">
    <inkscape:grid
       type="xygrid"
       id="grid244"
       originx="9.7893915"
       originy="-31.749373"
       spacingy="1"
       spacingx="1"
       units="px"
       visible="false" />
  </sodipodi:namedview>
  <rect
     x="-12.025727"
     y="0.1490714"
     width="11.940627"
     height="11.936014"
     rx="1.6121091"
     stroke="url(#paint4_linear_77:23)"
     shape-rendering="crispEdges"
     id="rect5-6-7-3"
     ry="1.7735944"
     transform="matrix(0.00523883,-0.99998628,0.999988,0.00489859,0,0)"
     style="fill:#de87aa;fill-opacity:0.15;stroke:url(#linearGradient13);stroke-width:0.188987;stroke-opacity:1" />
  <rect
     x="-3.7266586"
     y="4.6446943"
     width="7.912631"
     height="7.912384"
     rx="1.612043"
     shape-rendering="crispEdges"
     id="rect5-6-6-6-6"
     style="fill:#de87aa;fill-opacity:0.122146;stroke:url(#linearGradient15);stroke-width:0.188987;stroke-opacity:1"
     ry="1.7735215"
     transform="matrix(0.72612649,-0.68756114,0.6879775,0.72573202,0,0)" />
  <path
     id="path18333-2-1"
     d="m 5.4646043,2.6186006 c -0.2584426,-0.04781 -0.039119,0.1536313 0.00592,0.2626606 0.2382264,0.3720991 0.1581968,0.8276335 0.1899944,1.2452784 0.00617,0.1726777 0.010608,0.3453662 0.00482,0.5181187 C 5.135903,4.7416955 4.6081242,4.848414 4.075213,4.9245026 3.9468466,4.8594611 3.9406318,4.6124168 3.761207,4.6566309 3.6078662,4.7192584 3.4528354,4.7777581 3.2987995,4.8386862 3.5498423,5.0553158 3.6637907,5.3640457 3.7917887,5.6583882 4.0127864,6.0946969 4.2086016,6.5438736 4.3407495,7.0148425 4.4518048,7.3588624 4.9778645,7.177513 4.7455025,6.8405108 4.6702505,6.7462648 4.9256978,6.7990318 4.9879654,6.7647508 5.1906628,6.7372918 5.3946446,6.7221558 5.598342,6.7043108 5.589582,7.2205902 5.573517,7.7366564 5.538907,8.2517159 5.545597,8.7187469 5.525303,9.1873185 5.549377,9.653355 5.559632,9.765967 5.565494,9.895356 5.665196,9.969141 5.9220146,9.8666 5.9533866,9.54743 5.9925567,9.3050607 6.0526841,8.9430209 6.0212703,8.5728056 6.0410319,8.2071598 6.0519718,7.6863095 6.0629039,7.1654579 6.0738366,6.6446067 6.7000979,6.5773186 7.3293829,6.5336731 7.953611,6.4505814 8.1252964,6.3987323 8.1881955,6.1404901 7.9736908,6.0970499 7.7637586,6.0893926 8.0076313,5.9121637 8.0429722,5.8120625 8.1973887,5.5966369 8.3309141,5.3623064 8.4983717,5.1586852 8.6326235,5.0398941 8.8751921,4.9331727 8.7374713,4.715556 8.6087032,4.5233655 8.3854945,4.4231316 8.2136549,4.2715361 7.9649607,3.9961322 7.6564078,4.2209434 7.4137106,4.3619216 7.0037279,4.4792554 6.5780017,4.5128114 6.1555828,4.5588387 6.1642377,4.1168294 6.2115273,3.6761132 6.2245377,3.2339934 6.2748792,3.1030773 6.4737304,2.9133735 6.2369579,2.8280693 6.0091718,2.6769379 5.7371931,2.6055391 5.4646012,2.6185967 Z M 7.719578,4.8162982 C 7.7687307,5.080869 7.6809358,5.3760948 7.6144463,5.6397829 7.5349711,5.8367727 7.5300678,6.1513692 7.2526418,6.1217898 6.8651979,6.1929087 6.4718637,6.2224381 6.0812906,6.2714792 6.1060561,5.8336801 6.1308227,5.3958808 6.1555892,4.9580819 6.6766426,4.9052145 7.194351,4.8099888 7.719578,4.8162982 Z M 5.6392094,5.0364395 C 5.6255884,5.4642896 5.6119653,5.8921391 5.5983431,6.3199894 5.2590471,6.3597941 4.9197501,6.3995866 4.5804543,6.4393853 4.4504319,6.0376565 4.3204091,5.6359272 4.190388,5.2341985 4.6733289,5.1682803 5.1562685,5.1023599 5.6392094,5.0364395 Z"
     style="fill:#44000d;fill-opacity:1;stroke:#53000b;stroke-width:0.225938;stroke-linecap:round;stroke-linejoin:round;stroke-miterlimit:4;stroke-dasharray:none;stroke-opacity:1" />
  <path
     style="fill:#eeeeec;fill-opacity:1;stroke-width:0.0908501"
     d="m 5.672203,2.7563987 c -0.2584424,-0.047809 -0.039119,0.1536319 0.00592,0.2626596 0.2382268,0.3720986 0.1581971,0.8276347 0.1899946,1.2452794 0.00617,0.1726768 0.010612,0.3453658 0.00481,0.5181198 C 5.343509,4.8794939 4.8157296,4.9862112 4.2828187,5.0622995 4.1544456,4.9972612 4.1482301,4.7502134 3.9688061,4.7944297 3.8154651,4.8570564 3.6604354,4.9155549 3.5063992,4.9764837 3.7574418,5.1931136 3.8713897,5.5018432 3.9993884,5.7961857 4.2203851,6.2324952 4.4162007,6.6816708 4.548349,7.1526406 4.6593996,7.4966598 5.1854636,7.3153119 4.9531018,6.9783076 4.8778489,6.8840602 5.1332966,6.9368254 5.1955643,6.902547 5.398262,6.875085 5.602243,6.859952 5.8059412,6.842102 c -0.00876,0.5162801 -0.024823,1.0323473 -0.059434,1.5474057 0.00669,0.4670321 -0.013604,0.9356037 0.010471,1.4016433 0.010255,0.11261 0.01612,0.241996 0.1158219,0.315782 C 6.1296236,10.004397 6.1609954,9.685228 6.2001654,9.442858 6.2602934,9.0808172 6.2288808,8.7106016 6.2486409,8.3449568 6.2595737,7.8241047 6.2705055,7.3032541 6.2814383,6.782403 6.9076978,6.7151159 7.5369836,6.6714707 8.1612115,6.5883779 8.3328962,6.5365288 8.3957951,6.2782863 8.1812913,6.2348463 7.9713586,6.2271939 8.2152297,6.0499603 8.25057,5.9498592 8.4049934,5.7344343 8.5385185,5.5001038 8.7059759,5.2964823 8.8402221,5.1776917 9.0827915,5.0709697 8.9450699,4.8533537 8.8163021,4.6611625 8.5930938,4.5609285 8.4212535,4.4093328 8.1725594,4.1339313 7.8640064,4.3587404 7.62131,4.4997195 7.2113275,4.6170531 6.7856005,4.6506081 6.3631817,4.6966355 6.3718407,4.254627 6.419126,3.8139118 6.4321369,3.3717921 6.4824775,3.2408745 6.6813292,3.0511718 6.4445568,2.9658664 6.2167701,2.8147349 5.9447919,2.7433358 5.6721996,2.7563934 Z m 2.2549737,2.1976972 c 0.049153,0.2645715 -0.038641,0.5597957 -0.105132,0.8234846 -0.079475,0.1969899 -0.084378,0.5115861 -0.361805,0.482006 -0.3874431,0.071118 -0.7807776,0.1006498 -1.1713501,0.14969 0.024763,-0.4377991 0.049532,-0.8755991 0.074301,-1.3133968 0.5210526,-0.052867 1.0387612,-0.1480928 1.5639861,-0.1417838 z m -2.080368,0.2201407 c -0.01362,0.4278508 -0.027244,0.8557012 -0.040867,1.28355 C 5.4666448,6.4975903 5.1273477,6.5373844 4.7880522,6.5771817 4.6580303,6.1754531 4.5280079,5.7737256 4.3979865,5.3719952 4.8809275,5.3060758 5.3638675,5.2401573 5.8468087,5.1742366 Z"
     id="path2463-9-2" />
  <path
     style="fill:#888a85;fill-opacity:1;stroke-width:0.87312;filter:url(#filter20766-5-3)"
     d="m -35.134129,-16.686842 c -0.69648,0.04295 -0.27138,0.684078 0.15625,1.3125 0.0186,-0.22147 0.25236,-0.314823 0.9375,-0.1875 2.10224,-0.101145 4.21204,0.454376 5.96875,1.625 0.11412,0.0413 0.22352,0.07769 0.3125,0.125 0.0962,-0.480025 -0.0621,-0.90467 -0.84375,-1.1875 -1.75671,-1.170625 -3.86651,-1.726145 -5.96875,-1.625 -0.24914,-0.0463 -0.41868,-0.07137 -0.5625,-0.0625 z m 1.21875,3.25 c 1.08292,2.635827 0.66212,5.69172 0.875,8.5 0.0476,1.337513 0.0767,2.6619 0.0312,4.00000005 -4.08203,0.751625 -8.17143,1.566896 -12.28125,2.15624995 -0.99002,-0.50379395 -1.02253,-2.404978 -2.406247,-2.06249995 -1.18258,0.485114 -2.37457,0.934311 -3.5625,1.40625 0.3282,0.28445 0.63313,0.58481595 0.90625,0.90624995 1.06319,-0.418828 2.13034,-0.81633595 3.1875,-1.24999995 1.383717,-0.342478 1.416217,1.58995495 2.406247,2.09374995 4.10982,-0.589354 8.19922,-1.43587395 12.28125,-2.18749995 0.0455,-1.33810005 0.0163,-2.66248605 -0.0312,-4.00000005 -0.24255,-3.199675 0.35835,-6.697931 -1.40625,-9.5625 z m 18.25,8.59375 c -1.32989,0.08533 -2.7052,1.036246 -3.875,1.71875 -2.97948,0.856424 -6.05283,1.140952 -9.125,1.46875 -0.0138,0.375435 -0.0239,0.74935205 -0.0312,1.12500005 3.25771,-0.35652 6.5257,-0.62241905 9.6875,-1.53125005 1.87168,-1.092006 4.26956,-2.820693 6.1875,-0.6875 1.23084,1.090575 2.7991,1.83140205 3.8125004,3.12500005 -0.0328,-0.234941 -0.13787,-0.472849 -0.3125,-0.75 C -10.314639,-1.862997 -12.027589,-2.637623 -13.352829,-3.811842 c -0.71923,-0.799948 -1.51457,-1.08245 -2.3125,-1.03125 z m -1.40625,6.3125 c 0.0459,1.756367 -0.48064,3.617262 -0.90625,5.3125 -0.61291,1.525825 -0.64172,3.947868 -2.78125,3.71875 -2.78215,0.512933 -5.63045,0.757374 -8.4375,1.09375 -0.0212,0.375629 -0.0413,0.749371 -0.0625,1.125 3.01211,-0.379834 6.04327,-0.605369 9.03125,-1.15625 2.13953,0.229118 2.16834,-2.192926 2.78125,-3.71875 0.51278,-2.042455 1.19157,-4.325702 0.8125,-6.375 -0.14466,-0.0017 -0.29298,-2.1e-4 -0.4375,0 z m -15.625,1.6875 c -0.18713,0.02565 -0.37538,0.03685 -0.5625,0.0625 -0.0932,2.938878 -0.18809,5.87362 -0.28125,8.8125 -2.55378,0.300856 -5.10248,0.605392 -7.65625,0.90625 0.11714,0.363524 0.2266,0.730226 0.34375,1.09375 2.61666,-0.308268 5.22707,-0.629231 7.84375,-0.9375 0.10505,-3.314007 0.20745,-6.623492 0.3125,-9.9375 z m -15.499996,2.03125 c 0.25145,0.571016 0.47196,1.148776 0.71875,1.71875 1.704326,3.379527 3.230866,6.883248 4.249996,10.53125 0.10706,0.333085 0.2481,0.600989 0.4375,0.8125 -1.01756,-3.554923 -2.46056,-6.980836 -4.125,-10.28125 -0.406996,-0.940013 -0.829386,-1.861161 -1.281246,-2.78125 z m 33.218746,5.1875 c -0.40094,0.529666 -0.6052,0.966537 0.3125,1 0.20678,0.04206 0.35753,0.131068 0.5,0.21875 0.0463,-0.513569 -0.18178,-1.006614 -0.8125,-1.21875 z m -18.03125,5.71875 c -0.18815,0.01656 -0.37431,0.01509 -0.5625,0.03125 -0.0712,3.632215 -0.16373,7.251054 -0.40625,10.875 0.0517,3.6175 -0.12334,7.265191 0.0625,10.875 0.0706,0.776894 0.13566,1.631812 0.6875,2.21875 -0.0864,-0.386634 -0.12133,-0.772111 -0.15625,-1.15625 -0.18584,-3.609809 -0.0108,-7.257501 -0.0625,-10.875 0.26699,-3.989499 0.37022,-7.969792 0.4375,-11.96875 z"
     id="path20743-7-9"
     transform="matrix(0.12966739,0,0,0.12910358,10.153816,4.9030947)" />
</svg>
