<?xml version="1.0" encoding="UTF-8" standalone="no"?>
<svg
   width="45.999886"
   height="45.999989"
   version="1.1"
   viewBox="0 0 12.170564 12.170591"
   id="svg12"
   sodipodi:docname="kmplayer.svg"
   inkscape:version="1.3.2 (091e20ef0f, 2023-11-25)"
   xmlns:inkscape="http://www.inkscape.org/namespaces/inkscape"
   xmlns:sodipodi="http://sodipodi.sourceforge.net/DTD/sodipodi-0.dtd"
   xmlns:xlink="http://www.w3.org/1999/xlink"
   xmlns="http://www.w3.org/2000/svg"
   xmlns:svg="http://www.w3.org/2000/svg">
  <defs
     id="defs16">
    <linearGradient
       id="c"
       y1="523.79999"
       x1="403.57001"
       y2="536.79999"
       x2="416.57001"
       gradientUnits="userSpaceOnUse"
       gradientTransform="matrix(0.34526714,0,0,0.34526706,-134.80427,-174.63325)">
      <stop
         stop-color="#292c2f"
         id="stop1568" />
      <stop
         offset="1"
         stop-opacity="0"
         id="stop1570" />
    </linearGradient>
    <linearGradient
       xlink:href="#b-2"
       id="linearGradient4189"
       x1="14.369"
       y1="22.521999"
       x2="26.521999"
       y2="22.521999"
       gradientUnits="userSpaceOnUse" />
    <linearGradient
       x1="36"
       gradientUnits="userSpaceOnUse"
       x2="14"
       y2="12"
       y1="44"
       id="b-2">
      <stop
         style="stop-color:#bfc9c9;stop-opacity:1"
         stop-color="#536161"
         id="stop1579" />
      <stop
         style="stop-color:#fbfbfb;stop-opacity:1"
         stop-color="#f4f5f5"
         offset="1"
         id="stop1581" />
    </linearGradient>
    <linearGradient
       xlink:href="#b-2"
       id="linearGradient4428"
       gradientUnits="userSpaceOnUse"
       x1="31.586"
       y1="36.345001"
       x2="1.2029999"
       y2="6.723" />
    <linearGradient
       xlink:href="#b-2"
       id="linearGradient4189-3"
       x1="14.369"
       y1="22.521999"
       x2="26.521999"
       y2="22.521999"
       gradientUnits="userSpaceOnUse"
       gradientTransform="translate(20.841982,61.553822)" />
    <linearGradient
       xlink:href="#b-2"
       id="linearGradient4428-5"
       gradientUnits="userSpaceOnUse"
       x1="31.586"
       y1="36.345001"
       x2="1.2029999"
       y2="6.723"
       gradientTransform="translate(20.841982,61.553822)" />
    <linearGradient
       xlink:href="#b-2"
       id="linearGradient4189-3-3"
       x1="14.369"
       y1="22.521999"
       x2="26.521999"
       y2="22.521999"
       gradientUnits="userSpaceOnUse"
       gradientTransform="translate(4.376802,4.4211693)" />
    <linearGradient
       xlink:href="#b-2"
       id="linearGradient4428-5-5"
       gradientUnits="userSpaceOnUse"
       x1="31.586"
       y1="36.345001"
       x2="1.2029999"
       y2="6.723"
       gradientTransform="translate(4.376802,4.4211693)" />
    <linearGradient
       inkscape:collect="always"
       xlink:href="#linearGradient11"
       id="linearGradient13"
       x1="-43.819283"
       y1="23.120178"
       x2="-1.9547797"
       y2="23.120178"
       gradientUnits="userSpaceOnUse"
       gradientTransform="scale(0.26457813)" />
    <linearGradient
       id="linearGradient11"
       inkscape:collect="always">
      <stop
         style="stop-color:#9955ff;stop-opacity:0.65640396;"
         offset="0"
         id="stop4-3" />
      <stop
         style="stop-color:#00ccff;stop-opacity:1"
         offset="1"
         id="stop11" />
    </linearGradient>
    <linearGradient
       inkscape:collect="always"
       xlink:href="#linearGradient14"
       id="linearGradient15"
       x1="-9.6850061"
       y1="45.161198"
       x2="11.98815"
       y2="21.735205"
       gradientUnits="userSpaceOnUse"
       gradientTransform="scale(0.26457813)" />
    <linearGradient
       id="linearGradient14"
       inkscape:collect="always">
      <stop
         style="stop-color:#9955ff;stop-opacity:0.45197046;"
         offset="0"
         id="stop12" />
      <stop
         style="stop-color:#00ccff;stop-opacity:1"
         offset="1"
         id="stop13" />
    </linearGradient>
    <filter
       id="filter2917-3"
       x="-0.96181147"
       y="-0.66745996"
       width="2.9236229"
       height="2.3349199"
       color-interpolation-filters="sRGB">
      <feGaussianBlur
         stdDeviation="0.2871969"
         id="feGaussianBlur732-5" />
    </filter>
    <filter
       id="filter1"
       x="-0.96181148"
       y="-0.66745996"
       width="2.9236228"
       height="2.3349199"
       color-interpolation-filters="sRGB">
      <feGaussianBlur
         stdDeviation="0.2871969"
         id="feGaussianBlur1" />
    </filter>
    <filter
       id="filter2"
       x="-0.96181148"
       y="-0.66745996"
       width="2.9236228"
       height="2.3349199"
       color-interpolation-filters="sRGB">
      <feGaussianBlur
         stdDeviation="0.2871969"
         id="feGaussianBlur2" />
    </filter>
    <linearGradient
       id="a">
      <stop
         offset="0"
         id="stop1433" />
      <stop
         offset="1"
         stop-opacity="0"
         id="stop1435" />
    </linearGradient>
    <linearGradient
       id="linearGradient4161">
      <stop
         style="stop-color:#334545;stop-opacity:1;"
         offset="0"
         id="stop7" />
      <stop
         style="stop-color:#4d6868;stop-opacity:1"
         offset="1"
         id="stop9" />
    </linearGradient>
  </defs>
  <sodipodi:namedview
     id="namedview14"
     pagecolor="#000000"
     bordercolor="#666666"
     borderopacity="1.0"
     inkscape:showpageshadow="2"
     inkscape:pageopacity="0.0"
     inkscape:pagecheckerboard="0"
     inkscape:deskcolor="#d1d1d1"
     showgrid="false"
     inkscape:zoom="5.2149125"
     inkscape:cx="19.175777"
     inkscape:cy="55.417996"
     inkscape:window-width="1920"
     inkscape:window-height="996"
     inkscape:window-x="0"
     inkscape:window-y="0"
     inkscape:window-maximized="1"
     inkscape:current-layer="svg12">
    <inkscape:grid
       type="xygrid"
       id="grid244"
       originx="9.7893915"
       originy="-31.749373"
       spacingy="1"
       spacingx="1"
       units="px"
       visible="false" />
  </sodipodi:namedview>
  <rect
     x="-12.025727"
     y="0.1490714"
     width="11.940627"
     height="11.936014"
     rx="1.6121091"
     stroke="url(#paint4_linear_77:23)"
     shape-rendering="crispEdges"
     id="rect5-6-7-3"
     ry="1.7735944"
     transform="matrix(0.00523883,-0.99998628,0.999988,0.00489859,0,0)"
     style="fill:#80b3ff;fill-opacity:0.15;stroke:url(#linearGradient13);stroke-width:0.188987;stroke-opacity:1" />
  <rect
     x="-3.7266586"
     y="4.6446943"
     width="7.912631"
     height="7.912384"
     rx="1.612043"
     shape-rendering="crispEdges"
     id="rect5-6-6-6-6"
     style="fill:#80b3ff;fill-opacity:0.122146;stroke:url(#linearGradient15);stroke-width:0.188987;stroke-opacity:1"
     ry="1.7735215"
     transform="matrix(0.72612649,-0.68756114,0.6879775,0.72573202,0,0)" />
  <path
     fill="#4788c7"
     d="m 8.5891602,3.9422179 c 0.068264,0 0.1419198,0.060799 0.1419198,0.1592234 v 4.1266208 c 0,0.098264 -0.073822,0.1590642 -0.1420784,0.1590642 -0.023974,0 -0.047304,-0.0071 -0.069534,-0.02144 L 5.2080142,6.2399146 C 5.1624525,6.2107091 5.1357828,6.1583182 5.136578,6.0997411 5.1373747,6.0414833 5.1653107,5.9902067 5.211189,5.9624254 L 8.5226456,3.9617445 c 0.021436,-0.013025 0.043816,-0.01953 0.066512,-0.01953 m 0,-0.1587472 c -0.049529,0 -0.1004863,0.013181 -0.1485868,0.042219 L 5.1291171,5.8265377 C 4.9305248,5.9465496 4.9267145,6.2480102 5.1223049,6.3734201 l 3.3114566,2.1257776 c 0.049842,0.032068 0.1033443,0.046675 0.1552543,0.046675 0.1565242,0 0.300825,-0.1320774 0.300825,-0.3179696 V 4.1014391 C 8.8898319,3.9161815 8.746008,3.7834694 8.5891658,3.7834694 Z"
     id="path1"
     style="stroke-width:0.529157" />
  <path
     fill="#dff0fe"
     d="m 8.5891602,3.9422179 c 0.068264,0 0.1419198,0.060799 0.1419198,0.1592234 v 4.1266208 c 0,0.098264 -0.073822,0.1590642 -0.1420784,0.1590642 -0.023974,0 -0.047304,-0.0071 -0.069534,-0.02144 L 5.2080142,6.2399146 C 5.1624525,6.2107091 5.1357828,6.1583182 5.136578,6.0997411 5.1373747,6.0414833 5.1653107,5.9902067 5.211189,5.9624254 L 8.5226456,3.9617445 c 0.021436,-0.013025 0.043816,-0.01953 0.066512,-0.01953"
     id="path2"
     style="stroke-width:0.529157" />
  <path
     fill="#4788c7"
     d="m 3.4756107,3.9422179 v 0 c 0.022707,0 0.045087,0.00648 0.066351,0.019362 l 3.3114582,2.000686 c 0.045873,0.027785 0.073822,0.079056 0.074611,0.1373163 8.179e-4,0.058579 -0.025873,0.1109634 -0.071433,0.1401731 l -3.3114564,2.125938 c -0.02206,0.014293 -0.045406,0.02144 -0.069379,0.02144 -0.068262,0 -0.142078,-0.060801 -0.142078,-0.1592236 V 4.1014419 c 0,-0.098423 0.073662,-0.1592236 0.1419191,-0.1592236 m 0,-0.158746 c -0.1568414,0 -0.300666,0.1327124 -0.300666,0.3179696 v 4.1266208 c 0,0.1857336 0.1443005,0.3178105 0.3008249,0.3178105 0.051916,0 0.1054078,-0.014606 0.1552543,-0.046518 L 6.94248,6.3735802 C 7.1380563,6.2480118 7.1342463,5.9467109 6.9356575,5.8266978 L 3.6241954,3.8256981 C 3.5760982,3.7966437 3.5251406,3.7834735 3.4756113,3.7834735 Z"
     id="path3"
     style="stroke-width:0.529157" />
  <path
     fill="#98ccfd"
     d="m 3.4756107,3.9422179 v 0 c 0.022707,0 0.045087,0.00648 0.066351,0.019362 l 3.3114582,2.000686 c 0.045873,0.027785 0.073822,0.079056 0.074611,0.1373163 8.179e-4,0.058579 -0.025873,0.1109634 -0.071433,0.1401731 l -3.3114564,2.125938 c -0.02206,0.014293 -0.045406,0.02144 -0.069379,0.02144 -0.068262,0 -0.142078,-0.060801 -0.142078,-0.1592236 V 4.1014419 c 0,-0.098423 0.073662,-0.1592236 0.1419191,-0.1592236"
     id="path4"
     style="stroke-width:0.529157" />
</svg>
