<?xml version="1.0" encoding="UTF-8" standalone="no"?>
<svg
   width="45.999886"
   height="45.999989"
   version="1.1"
   viewBox="0 0 12.170564 12.170591"
   id="svg12"
   sodipodi:docname="kmplot.svg"
   inkscape:version="1.3.2 (091e20ef0f, 2023-11-25)"
   xmlns:inkscape="http://www.inkscape.org/namespaces/inkscape"
   xmlns:sodipodi="http://sodipodi.sourceforge.net/DTD/sodipodi-0.dtd"
   xmlns:xlink="http://www.w3.org/1999/xlink"
   xmlns="http://www.w3.org/2000/svg"
   xmlns:svg="http://www.w3.org/2000/svg">
  <defs
     id="defs16">
    <linearGradient
       id="c"
       y1="523.79999"
       x1="403.57001"
       y2="536.79999"
       x2="416.57001"
       gradientUnits="userSpaceOnUse"
       gradientTransform="matrix(0.34526714,0,0,0.34526706,-134.80427,-174.63325)">
      <stop
         stop-color="#292c2f"
         id="stop1568" />
      <stop
         offset="1"
         stop-opacity="0"
         id="stop1570" />
    </linearGradient>
    <linearGradient
       xlink:href="#b-2"
       id="linearGradient4189"
       x1="14.369"
       y1="22.521999"
       x2="26.521999"
       y2="22.521999"
       gradientUnits="userSpaceOnUse" />
    <linearGradient
       x1="36"
       gradientUnits="userSpaceOnUse"
       x2="14"
       y2="12"
       y1="44"
       id="b-2">
      <stop
         style="stop-color:#bfc9c9;stop-opacity:1"
         stop-color="#536161"
         id="stop1579" />
      <stop
         style="stop-color:#fbfbfb;stop-opacity:1"
         stop-color="#f4f5f5"
         offset="1"
         id="stop1581" />
    </linearGradient>
    <linearGradient
       xlink:href="#b-2"
       id="linearGradient4428"
       gradientUnits="userSpaceOnUse"
       x1="31.586"
       y1="36.345001"
       x2="1.2029999"
       y2="6.723" />
    <linearGradient
       xlink:href="#b-2"
       id="linearGradient4189-3"
       x1="14.369"
       y1="22.521999"
       x2="26.521999"
       y2="22.521999"
       gradientUnits="userSpaceOnUse"
       gradientTransform="translate(20.841982,61.553822)" />
    <linearGradient
       xlink:href="#b-2"
       id="linearGradient4428-5"
       gradientUnits="userSpaceOnUse"
       x1="31.586"
       y1="36.345001"
       x2="1.2029999"
       y2="6.723"
       gradientTransform="translate(20.841982,61.553822)" />
    <linearGradient
       xlink:href="#b-2"
       id="linearGradient4189-3-3"
       x1="14.369"
       y1="22.521999"
       x2="26.521999"
       y2="22.521999"
       gradientUnits="userSpaceOnUse"
       gradientTransform="translate(4.376802,4.4211693)" />
    <linearGradient
       xlink:href="#b-2"
       id="linearGradient4428-5-5"
       gradientUnits="userSpaceOnUse"
       x1="31.586"
       y1="36.345001"
       x2="1.2029999"
       y2="6.723"
       gradientTransform="translate(4.376802,4.4211693)" />
    <linearGradient
       inkscape:collect="always"
       xlink:href="#linearGradient11"
       id="linearGradient13"
       x1="-43.819283"
       y1="23.120178"
       x2="-1.9547797"
       y2="23.120178"
       gradientUnits="userSpaceOnUse"
       gradientTransform="scale(0.26457813)" />
    <linearGradient
       id="linearGradient11"
       inkscape:collect="always">
      <stop
         style="stop-color:#9955ff;stop-opacity:0.65640396;"
         offset="0"
         id="stop4-3" />
      <stop
         style="stop-color:#00ccff;stop-opacity:1"
         offset="1"
         id="stop11" />
    </linearGradient>
    <linearGradient
       inkscape:collect="always"
       xlink:href="#linearGradient14"
       id="linearGradient15"
       x1="-9.6850061"
       y1="45.161198"
       x2="11.98815"
       y2="21.735205"
       gradientUnits="userSpaceOnUse"
       gradientTransform="scale(0.26457813)" />
    <linearGradient
       id="linearGradient14"
       inkscape:collect="always">
      <stop
         style="stop-color:#9955ff;stop-opacity:0.45197046;"
         offset="0"
         id="stop12" />
      <stop
         style="stop-color:#00ccff;stop-opacity:1"
         offset="1"
         id="stop13" />
    </linearGradient>
    <filter
       id="filter2917-3"
       x="-0.96181147"
       y="-0.66745996"
       width="2.9236229"
       height="2.3349199"
       color-interpolation-filters="sRGB">
      <feGaussianBlur
         stdDeviation="0.2871969"
         id="feGaussianBlur732-5" />
    </filter>
    <filter
       id="filter1"
       x="-0.96181148"
       y="-0.66745996"
       width="2.9236228"
       height="2.3349199"
       color-interpolation-filters="sRGB">
      <feGaussianBlur
         stdDeviation="0.2871969"
         id="feGaussianBlur1" />
    </filter>
    <filter
       id="filter2"
       x="-0.96181148"
       y="-0.66745996"
       width="2.9236228"
       height="2.3349199"
       color-interpolation-filters="sRGB">
      <feGaussianBlur
         stdDeviation="0.2871969"
         id="feGaussianBlur2" />
    </filter>
  </defs>
  <sodipodi:namedview
     id="namedview14"
     pagecolor="#000000"
     bordercolor="#666666"
     borderopacity="1.0"
     inkscape:showpageshadow="2"
     inkscape:pageopacity="0.0"
     inkscape:pagecheckerboard="0"
     inkscape:deskcolor="#d1d1d1"
     showgrid="false"
     inkscape:zoom="7.375"
     inkscape:cx="8"
     inkscape:cy="51.932203"
     inkscape:window-width="1920"
     inkscape:window-height="996"
     inkscape:window-x="0"
     inkscape:window-y="0"
     inkscape:window-maximized="1"
     inkscape:current-layer="svg12">
    <inkscape:grid
       type="xygrid"
       id="grid244"
       originx="9.7893915"
       originy="-31.749373"
       spacingy="1"
       spacingx="1"
       units="px"
       visible="false" />
  </sodipodi:namedview>
  <rect
     x="-12.025727"
     y="0.1490714"
     width="11.940627"
     height="11.936014"
     rx="1.6121091"
     stroke="url(#paint4_linear_77:23)"
     shape-rendering="crispEdges"
     id="rect5-6-7-3"
     ry="1.7735944"
     transform="matrix(0.00523883,-0.99998628,0.999988,0.00489859,0,0)"
     style="fill:#80b3ff;fill-opacity:0.15;stroke:url(#linearGradient13);stroke-width:0.188987;stroke-opacity:1" />
  <rect
     x="-3.7266586"
     y="4.6446943"
     width="7.912631"
     height="7.912384"
     rx="1.612043"
     shape-rendering="crispEdges"
     id="rect5-6-6-6-6"
     style="fill:#80b3ff;fill-opacity:0.122146;stroke:url(#linearGradient15);stroke-width:0.188987;stroke-opacity:1"
     ry="1.7735215"
     transform="matrix(0.72612649,-0.68756114,0.6879775,0.72573202,0,0)" />
  <ellipse
     style="fill:#aaeeff;fill-opacity:1;fill-rule:nonzero;stroke:none;stroke-width:0.108288;stroke-linecap:round;stroke-linejoin:round;stroke-miterlimit:4;stroke-dasharray:none;stroke-dashoffset:4;stroke-opacity:1"
     id="path2076-7-5"
     transform="matrix(0.99998893,-0.00470616,-0.05343774,0.99857118,0,0)"
     cx="5.8518939"
     cy="6.5865798"
     rx="0.14479552"
     ry="0.13560456" />
  <path
     style="font-style:normal;font-variant:normal;font-weight:normal;font-stretch:normal;font-size:37.2529px;line-height:125%;font-family:Cotillion;text-align:start;writing-mode:lr-tb;text-anchor:start;fill:#aaeeff;fill-opacity:1;stroke:none;stroke-width:0.0745154px;stroke-linecap:butt;stroke-linejoin:miter;stroke-opacity:1"
     d="m 4.8669636,3.6930956 c 0.015767,0.08376 -0.012834,0.142022 -0.085495,0.1747876 -0.012505,0.00347 -0.027245,0.00347 -0.044056,0 l -0.0073,-0.021872 -0.015327,-0.054623 c -0.00354,-0.018137 -0.024964,-0.049148 -0.065051,-0.092841 -0.04223,-0.047335 -0.098231,-0.071008 -0.1679841,-0.071008 -0.044044,3.7e-6 -0.089861,0.012545 -0.1374355,0.038238 -0.0497,0.021874 -0.093234,0.063732 -0.1306231,0.1256206 -0.037413,0.061898 -0.071453,0.1547394 -0.1021854,0.2785557 -0.013821,0.058256 -0.023754,0.1074201 -0.029801,0.1474866 -0.020312,0.1165141 -0.036943,0.267629 -0.049998,0.4533303 L 4.0158705,4.9274678 4.015552,5.0967766 h 0.5121238 l 0.00829,0.071008 h -0.528545 l -0.02254,0.3113287 -0.020424,0.2676289 -0.01014,0.152948 -0.007,0.1583903 -0.012914,0.081946 -0.042168,0.447874 C 3.8519616,6.9410919 3.7952206,7.1905134 3.7221425,7.3361606 3.6490592,7.481796 3.52493,7.5965057 3.3497337,7.680261 3.2822487,7.709389 3.2170826,7.733037 3.1542711,7.751269 3.0914531,7.769405 3.0343314,7.778597 2.9829471,7.778597 L 2.8751603,7.773017 h -0.08813 l -0.063762,-0.0056 C 2.6939173,7.7674138 2.6595123,7.761817 2.6201131,7.750945 2.5828271,7.743665 2.5387081,7.730961 2.4877318,7.712745 2.3852396,7.6691498 2.3138424,7.6126993 2.2735684,7.5435272 c -0.027599,-0.047336 -0.032,-0.092857 -0.013336,-0.1365345 l 0.043818,-0.03824 c 0.032447,-0.00728 0.054219,-0.011032 0.065229,-0.011032 0.051395,-4.8e-6 0.098986,0.02188 0.1427842,0.065528 0.019125,0.032776 0.028901,0.052792 0.02945,0.060072 l -0.01158,0.027328 c -0.00935,0.021872 -0.00541,0.047336 0.011472,0.076448 0.02546,0.043696 0.073102,0.078304 0.1429895,0.1037777 0.06469,0.029128 0.1410854,0.043696 0.2291886,0.043696 0.1101434,0 0.2080465,-0.027328 0.2937282,-0.081928 0.082007,-0.054624 0.1501908,-0.1456393 0.2044852,-0.2730946 0.021189,-0.058256 0.035743,-0.1183274 0.043761,-0.180249 0.00797,-0.061898 0.018283,-0.1766037 0.030987,-0.3440949 l 0.00941,-0.1256379 0.021469,-0.3604796 0.063048,-0.639036 0.014888,-0.1638523 0.02676,-0.3987178 H 3.2696384 l -0.00828,-0.070998 H 3.6247747 L 3.6430657,4.872577 C 3.6677907,4.6249683 3.7004877,4.4319812 3.7410917,4.2936124 3.7795657,4.1516028 3.8321317,4.0369075 3.8987346,3.949517 4.0261576,3.7711012 4.1683648,3.652759 4.3253557,3.594495 4.4090707,3.561737 4.4912997,3.545347 4.572081,3.545347 c 0.047716,1.6e-6 0.097576,0.00347 0.1495277,0.011035 0.055637,0.00726 0.099349,0.038238 0.131145,0.092857 0.00417,0.00726 0.00896,0.021872 0.014276,0.043693"
     id="path1992-7-0" />
  <path
     style="font-style:normal;font-variant:normal;font-weight:normal;font-stretch:normal;font-size:37.2529px;line-height:125%;font-family:Cotillion;text-align:start;writing-mode:lr-tb;text-anchor:start;fill:#aaeeff;fill-opacity:1;stroke:none;stroke-width:0.0745154px;stroke-linecap:butt;stroke-linejoin:miter;stroke-opacity:1"
     d="m 5.5487836,4.0901548 0.0041,0.01647 -0.010187,0.011035 -0.00173,0.01647 -0.082155,0.076447 c -0.029247,0.025503 -0.05449,0.054622 -0.075779,0.087386 -0.023401,0.029128 -0.062662,0.091028 -0.1176928,0.1857013 -0.1042756,0.1929604 -0.1839529,0.4187147 -0.2390486,0.6772354 -0.055101,0.2585329 -0.082794,0.5389059 -0.083087,0.8411254 6.974e-4,0.3422763 0.022995,0.6008085 0.065988,0.7755826 0.046672,0.1747878 0.098612,0.3113258 0.155845,0.4096382 l 0.034952,0.06007 -0.00173,0.01647 c 0.00282,0.011032 3.185e-4,0.016472 -0.00707,0.016472 -0.013163,-0.00344 -0.024383,-0.00728 -0.033864,-0.011032 -0.011488,-0.00728 -0.031305,-0.025502 -0.059298,-0.054622 C 5.0399449,7.1525033 4.9780624,7.0651205 4.9123517,6.9522375 4.7724337,6.7119126 4.6802695,6.4715973 4.6358281,6.231269 4.5892706,5.987312 4.5912678,5.7069353 4.6418071,5.3901502 4.6729169,5.2481437 4.7099615,5.1225182 4.7528437,5.0132787 4.795726,4.9040579 4.868386,4.776604 4.9708326,4.630951 5.0254419,4.554505 5.0670704,4.4998736 5.0957212,4.4671005 5.1462467,4.4088443 5.2004487,4.350588 5.2582996,4.2923165 l 0.076661,-0.076466 0.05949,-0.049148 0.093151,-0.076447 0.034545,-0.01647 0.026045,0.01647"
     id="path1990-3-6" />
  <path
     style="font-style:normal;font-variant:normal;font-weight:normal;font-stretch:normal;font-size:37.2529px;line-height:125%;font-family:Cotillion;text-align:start;writing-mode:lr-tb;text-anchor:start;fill:#afdde9;fill-opacity:1;stroke:none;stroke-width:0.0745154px;stroke-linecap:butt;stroke-linejoin:miter;stroke-opacity:1"
     d="m 7.5665974,5.7849843 0.00128,0.021869 -0.015717,0.038238 -0.00418,0.021854 -0.070951,0.1256206 -0.04772,0.076465 -0.040526,0.081946 -0.049436,0.071008 -0.068454,0.098317 C 7.2162464,6.4040609 7.1694728,6.4659337 7.130572,6.5060053 7.091666,6.5460563 7.030611,6.5915763 6.9473844,6.6425378 c -0.083223,0.050977 -0.1633662,0.076447 -0.2404715,0.076447 -0.2055877,0 -0.3613824,-0.1110526 -0.467381,-0.3331768 -0.016551,-0.029113 -0.02857,-0.05644 -0.036585,-0.081945 -0.00899,-0.02913 -0.01536,-0.049164 -0.018693,-0.06007 l -0.019417,0.043693 -0.024936,0.043693 c -0.061627,0.120176 -0.1360221,0.2111899 -0.223178,0.2730908 -0.090826,0.061883 -0.1802969,0.092857 -0.2683994,0.092857 -0.088112,0 -0.1440865,-0.038222 -0.1679436,-0.1146993 -0.00356,-0.011035 -0.00653,-0.038238 -0.00896,-0.081946 -0.00361,-0.047335 0.017849,-0.083758 0.065054,-0.109241 0.043448,-0.025483 0.076185,-0.038238 0.098206,-0.038238 0.025724,3.4e-6 0.046893,0.00892 0.063593,0.027332 l 0.010233,0.032778 c 0.016144,0.040067 0.063805,0.069193 0.142897,0.087386 0.026835,0.00347 0.053935,-0.00347 0.081297,-0.021872 0.023697,-0.018135 0.056954,-0.052792 0.099794,-0.1037609 L 6.087829,6.2874796 6.141063,6.2110326 6.162182,6.1728106 C 6.1404609,6.103641 6.1263955,6.0526594 6.1198636,6.0198815 6.1122001,5.9834787 6.0959252,5.8724089 6.0709947,5.6867082 l -0.023205,-0.1802378 -0.01238,-0.092857 -0.00355,-0.081945 -0.010296,-0.1037609 -0.027785,0.087402 -0.033716,0.1037594 -0.037122,0.092857 -0.068338,0.1693087 c -0.02727,0.065545 -0.044723,0.1037625 -0.052331,0.1146993 -0.00756,0.011035 -0.024819,0.014662 -0.051662,0.011035 L 5.75093,5.7904989 5.74989,5.7686489 5.80392,5.6594157 5.900447,5.3863242 5.940468,5.2497916 l 0.033286,-0.087386 0.078804,0.00558 c 0.062404,1.6e-6 0.1188865,-0.00726 0.1694174,-0.021874 0.050529,-0.014662 0.1011683,-0.034611 0.1519774,-0.06007 l -0.00363,0.076447 0.00104,0.1802489 c 0.00316,0.1274509 0.00785,0.2312136 0.01437,0.3113219 0.00674,0.080116 0.018737,0.1602053 0.036398,0.2403204 l 0.053631,-0.092853 0.051538,-0.081945 0.068846,-0.1146962 C 6.7454897,5.4008888 6.8644201,5.2643421 6.9529775,5.1951609 c 0.091088,-0.072821 0.1733428,-0.1092354 0.24677,-0.1092354 0.059867,0.00347 0.1083383,0.023648 0.1453983,0.060085 0.039617,0.032778 0.058296,0.069195 0.056097,0.109255 l -0.010906,0.071008 c -0.036297,0.083758 -0.07278,0.1256207 -0.1094965,0.1256207 -0.022063,0 -0.051585,-0.018117 -0.088624,-0.054627 -0.017005,-0.00726 -0.02912,-0.010879 -0.036452,-0.010879 -0.043788,-0.011035 -0.084035,-0.01647 -0.1207529,-0.01647 -0.022058,0 -0.053493,0.011035 -0.094407,0.032774 -0.038362,0.018118 -0.073082,0.036407 -0.1041073,0.054625 -0.059788,0.043693 -0.1154699,0.09467 -0.1670488,0.152945 -0.064264,0.076447 -0.1258104,0.1674947 -0.1846493,0.2730869 l -0.042608,0.092841 c 0.01086,0.058256 0.023606,0.1110479 0.038396,0.1583871 0.00567,0.018134 0.011409,0.036406 0.017023,0.054622 0.016551,0.02913 0.02687,0.050977 0.031467,0.065525 0.063605,0.2039047 0.1596436,0.3058664 0.2881463,0.3058664 0.055071,0 0.1167363,-0.020003 0.1850099,-0.060085 0.038336,-0.018134 0.072622,-0.043693 0.1027859,-0.076465 0.030158,-0.032756 0.070597,-0.085573 0.1213064,-0.1583919 l 0.079465,-0.098313 0.034202,-0.049148 0.049436,-0.071008 0.1135757,-0.218469 c 0.00807,-0.032778 0.016659,-0.052792 0.025302,-0.06007 0.00362,0 0.00684,-0.00196 0.00936,-0.00558 l 0.028862,0.021854"
     id="path1988-6-3" />
  <path
     style="font-style:normal;font-variant:normal;font-weight:normal;font-stretch:normal;font-size:37.2529px;line-height:125%;font-family:Cotillion;text-align:start;writing-mode:lr-tb;text-anchor:start;fill:#afdde9;fill-opacity:1;stroke:none;stroke-width:0.0745154px;stroke-linecap:butt;stroke-linejoin:miter;stroke-opacity:1"
     d="m 8.1751207,4.6090309 c 0.089742,0.1856989 0.1475723,0.3859712 0.1735049,0.6008016 0.029772,0.2403201 0.02365,0.4915638 -0.018246,0.7537347 C 8.306029,6.0983021 8.270054,6.2257367 8.2225301,6.3458952 8.1728612,6.4624109 8.0973024,6.588038 7.9958338,6.7227598 7.9272671,6.8319961 7.8340608,6.943059 7.7161948,7.0559349 l -0.084466,0.081946 -0.051667,0.043693 -0.098662,0.076448 c -0.013492,0.014664 -0.023996,0.021872 -0.031335,0.021872 -0.00944,-0.00344 -0.015296,-0.00728 -0.017319,-0.011032 l -0.00724,-0.021875 0.00171,-0.01647 0.01019,-0.011035 0.082156,-0.076467 c 0.0246,-0.014662 0.051948,-0.040045 0.082148,-0.076457 C 7.626018,7.0264569 7.6631524,6.9609278 7.7129449,6.869898 7.7927724,6.7170286 7.8678053,6.5021956 7.9379976,6.2254623 7.998944,5.9706111 8.0270643,5.6720318 8.0223936,5.3297523 8.0217452,4.9875382 7.998687,4.7308349 7.9541331,4.5596958 7.9074445,4.3849155 7.8576194,4.252009 7.8046259,4.1609766 l -0.031819,-0.054624 -0.00724,-0.021857 c 0.0098,-0.014662 0.023466,-0.01647 0.040889,-0.00558 0.034775,0.021874 0.071402,0.056443 0.1099629,0.1037625 0.042241,0.047335 0.091978,0.120156 0.1491908,0.2184727 0.019074,0.032774 0.038158,0.06554 0.057225,0.098317 0.020186,0.04735 0.037739,0.08376 0.052577,0.1092363"
     id="path1986-5-2" />
  <path
     style="font-style:normal;font-variant:normal;font-weight:normal;font-stretch:normal;font-size:37.2529px;line-height:125%;font-family:Cotillion;text-align:start;writing-mode:lr-tb;text-anchor:start;fill:#afdde9;fill-opacity:1;stroke:none;stroke-width:0.0745154px;stroke-linecap:butt;stroke-linejoin:miter;stroke-opacity:1"
     d="M 10.450836,6.3645988 H 9.0115583 V 6.1515869 h 1.4392777 v 0.2130119"
     id="text1977-3-6" />
</svg>
