<?xml version="1.0" encoding="UTF-8" standalone="no"?>
<svg
   width="45.999886"
   height="45.999989"
   version="1.1"
   viewBox="0 0 12.170564 12.170591"
   id="svg12"
   sodipodi:docname="kopete.svg"
   inkscape:version="1.3.2 (091e20ef0f, 2023-11-25)"
   xmlns:inkscape="http://www.inkscape.org/namespaces/inkscape"
   xmlns:sodipodi="http://sodipodi.sourceforge.net/DTD/sodipodi-0.dtd"
   xmlns:xlink="http://www.w3.org/1999/xlink"
   xmlns="http://www.w3.org/2000/svg"
   xmlns:svg="http://www.w3.org/2000/svg">
  <defs
     id="defs16">
    <linearGradient
       id="c"
       y1="523.79999"
       x1="403.57001"
       y2="536.79999"
       x2="416.57001"
       gradientUnits="userSpaceOnUse"
       gradientTransform="matrix(0.34526714,0,0,0.34526706,-134.80427,-174.63325)">
      <stop
         stop-color="#292c2f"
         id="stop1568" />
      <stop
         offset="1"
         stop-opacity="0"
         id="stop1570" />
    </linearGradient>
    <linearGradient
       xlink:href="#b-2"
       id="linearGradient4189"
       x1="14.369"
       y1="22.521999"
       x2="26.521999"
       y2="22.521999"
       gradientUnits="userSpaceOnUse" />
    <linearGradient
       x1="36"
       gradientUnits="userSpaceOnUse"
       x2="14"
       y2="12"
       y1="44"
       id="b-2">
      <stop
         style="stop-color:#bfc9c9;stop-opacity:1"
         stop-color="#536161"
         id="stop1579" />
      <stop
         style="stop-color:#fbfbfb;stop-opacity:1"
         stop-color="#f4f5f5"
         offset="1"
         id="stop1581" />
    </linearGradient>
    <linearGradient
       xlink:href="#b-2"
       id="linearGradient4428"
       gradientUnits="userSpaceOnUse"
       x1="31.586"
       y1="36.345001"
       x2="1.2029999"
       y2="6.723" />
    <linearGradient
       xlink:href="#b-2"
       id="linearGradient4189-3"
       x1="14.369"
       y1="22.521999"
       x2="26.521999"
       y2="22.521999"
       gradientUnits="userSpaceOnUse"
       gradientTransform="translate(20.841982,61.553822)" />
    <linearGradient
       xlink:href="#b-2"
       id="linearGradient4428-5"
       gradientUnits="userSpaceOnUse"
       x1="31.586"
       y1="36.345001"
       x2="1.2029999"
       y2="6.723"
       gradientTransform="translate(20.841982,61.553822)" />
    <linearGradient
       xlink:href="#b-2"
       id="linearGradient4189-3-3"
       x1="14.369"
       y1="22.521999"
       x2="26.521999"
       y2="22.521999"
       gradientUnits="userSpaceOnUse"
       gradientTransform="translate(4.376802,4.4211693)" />
    <linearGradient
       xlink:href="#b-2"
       id="linearGradient4428-5-5"
       gradientUnits="userSpaceOnUse"
       x1="31.586"
       y1="36.345001"
       x2="1.2029999"
       y2="6.723"
       gradientTransform="translate(4.376802,4.4211693)" />
    <linearGradient
       inkscape:collect="always"
       xlink:href="#linearGradient11"
       id="linearGradient13"
       x1="-43.819283"
       y1="23.120178"
       x2="-1.9547797"
       y2="23.120178"
       gradientUnits="userSpaceOnUse"
       gradientTransform="scale(0.26457813)" />
    <linearGradient
       id="linearGradient11"
       inkscape:collect="always">
      <stop
         style="stop-color:#9955ff;stop-opacity:0.65640396;"
         offset="0"
         id="stop4-3" />
      <stop
         style="stop-color:#00ccff;stop-opacity:1"
         offset="1"
         id="stop11" />
    </linearGradient>
    <linearGradient
       inkscape:collect="always"
       xlink:href="#linearGradient14"
       id="linearGradient15"
       x1="-9.6850061"
       y1="45.161198"
       x2="11.98815"
       y2="21.735205"
       gradientUnits="userSpaceOnUse"
       gradientTransform="scale(0.26457813)" />
    <linearGradient
       id="linearGradient14"
       inkscape:collect="always">
      <stop
         style="stop-color:#9955ff;stop-opacity:0.45197046;"
         offset="0"
         id="stop12" />
      <stop
         style="stop-color:#00ccff;stop-opacity:1"
         offset="1"
         id="stop13" />
    </linearGradient>
    <filter
       id="filter2917-3"
       x="-0.96181147"
       y="-0.66745996"
       width="2.9236229"
       height="2.3349199"
       color-interpolation-filters="sRGB">
      <feGaussianBlur
         stdDeviation="0.2871969"
         id="feGaussianBlur732-5" />
    </filter>
    <filter
       id="filter1"
       x="-0.96181148"
       y="-0.66745996"
       width="2.9236228"
       height="2.3349199"
       color-interpolation-filters="sRGB">
      <feGaussianBlur
         stdDeviation="0.2871969"
         id="feGaussianBlur1" />
    </filter>
    <filter
       id="filter2"
       x="-0.96181148"
       y="-0.66745996"
       width="2.9236228"
       height="2.3349199"
       color-interpolation-filters="sRGB">
      <feGaussianBlur
         stdDeviation="0.2871969"
         id="feGaussianBlur2" />
    </filter>
    <linearGradient
       id="a">
      <stop
         offset="0"
         id="stop1433" />
      <stop
         offset="1"
         stop-opacity="0"
         id="stop1435" />
    </linearGradient>
    <linearGradient
       id="linearGradient4161">
      <stop
         style="stop-color:#334545;stop-opacity:1;"
         offset="0"
         id="stop7" />
      <stop
         style="stop-color:#4d6868;stop-opacity:1"
         offset="1"
         id="stop9" />
    </linearGradient>
    <linearGradient
       id="paint0_linear"
       x1="16"
       y1="30"
       x2="16"
       y2="2"
       gradientUnits="userSpaceOnUse"
       gradientTransform="scale(0.26457811)">
      <stop
         stop-color="#5570FF"
         id="stop1" />
      <stop
         offset="1"
         stop-color="#4DD3FF"
         id="stop2" />
    </linearGradient>
  </defs>
  <sodipodi:namedview
     id="namedview14"
     pagecolor="#000000"
     bordercolor="#666666"
     borderopacity="1.0"
     inkscape:showpageshadow="2"
     inkscape:pageopacity="0.0"
     inkscape:pagecheckerboard="0"
     inkscape:deskcolor="#d1d1d1"
     showgrid="false"
     inkscape:zoom="5.2149125"
     inkscape:cx="19.175777"
     inkscape:cy="55.417996"
     inkscape:window-width="1920"
     inkscape:window-height="996"
     inkscape:window-x="0"
     inkscape:window-y="0"
     inkscape:window-maximized="1"
     inkscape:current-layer="svg12">
    <inkscape:grid
       type="xygrid"
       id="grid244"
       originx="9.7893915"
       originy="-31.749373"
       spacingy="1"
       spacingx="1"
       units="px"
       visible="false" />
  </sodipodi:namedview>
  <rect
     x="-12.025727"
     y="0.1490714"
     width="11.940627"
     height="11.936014"
     rx="1.6121091"
     stroke="url(#paint4_linear_77:23)"
     shape-rendering="crispEdges"
     id="rect5-6-7-3"
     ry="1.7735944"
     transform="matrix(0.00523883,-0.99998628,0.999988,0.00489859,0,0)"
     style="fill:#80b3ff;fill-opacity:0.15;stroke:url(#linearGradient13);stroke-width:0.188987;stroke-opacity:1" />
  <rect
     x="-3.7266586"
     y="4.6446943"
     width="7.912631"
     height="7.912384"
     rx="1.612043"
     shape-rendering="crispEdges"
     id="rect5-6-6-6-6"
     style="fill:#80b3ff;fill-opacity:0.122146;stroke:url(#linearGradient15);stroke-width:0.188987;stroke-opacity:1"
     ry="1.7735215"
     transform="matrix(0.72612649,-0.68756114,0.6879775,0.72573202,0,0)" />
  <path
     fill-rule="evenodd"
     clip-rule="evenodd"
     d="M 8.4741655,8.6390777 C 8.2486524,8.4968856 8.0758382,8.2763822 7.9847223,8.014489 l -0.00259,-0.00844 c -0.00841,-0.024727 -0.00884,-0.051767 -0.0011,-0.076718 0.0077,-0.024968 0.023326,-0.046374 0.044011,-0.06075 l 4.824e-4,-2.581e-4 C 8.6138155,7.4141607 8.9927476,6.6853173 8.9956994,5.8619081 v -4.784e-4 c 0,-1.4821794 -1.3030407,-2.6864921 -2.9103835,-2.6864921 -1.6073473,0.015521 -2.9103783,1.2193464 -2.9103783,2.6857641 0,1.4814479 1.303031,2.6855142 2.9103838,2.6855142 l 0.033655,2.502e-4 c 0.2033322,0 0.4019035,-0.022802 0.5934063,-0.065703 l -0.018641,0.00329 c 0.020068,-0.00716 0.041624,-0.00778 0.062122,-0.0024 0.020505,0.0055 0.039096,0.017082 0.053648,0.03343 0.4529818,0.295386 0.9701774,0.4603208 1.5009065,0.4786367 l 0.00535,2.3e-4 c 0.028764,0.00388 0.057993,0.00109 0.085725,-0.00798 0.027708,-0.00912 0.05333,-0.02431 0.075148,-0.044723 0.021814,-0.020386 0.039345,-0.045405 0.051443,-0.073544 0.012098,-0.028093 0.018481,-0.058619 0.018758,-0.089536 0.025016,-0.040202 -0.014697,-0.08026 -0.053957,-0.119849 -0.00632,-0.0064 -0.012765,-0.012865 -0.018826,-0.019283 z M 7.6920003,8.3922569 c 0.00834,0.0077 0.013686,0.018577 0.014787,0.030298 v 2.289e-4 c -4.366e-4,0.00803 -0.00355,0.015722 -0.00905,0.021443 -0.00549,0.00562 -0.012508,0.00917 -0.020111,0.00962 C 7.3702007,8.3623548 7.0837149,8.2044445 6.8359377,7.9899701 c -0.019352,-0.018161 -0.042861,-0.03058 -0.06816,-0.035929 -0.025784,-0.00551 -0.052457,-0.00333 -0.077231,0.00581 l 0.00111,-2.497e-4 c -0.1989101,0.050401 -0.4025744,0.076426 -0.6070292,0.077631 h -0.00111 c -1.3462355,0 -2.4325135,-0.9565183 -2.4325135,-2.146054 0,-1.1895131 1.086278,-2.1460297 2.4325135,-2.1460297 1.3462604,0 2.4327691,0.9565166 2.4327691,2.1460297 -0.0094,0.3505981 -0.1042772,0.692485 -0.2753452,0.992026 C 8.0698887,7.1827486 7.828535,7.4295702 7.5407188,7.5993912 l -0.00981,0.00548 c -0.024036,0.01384 -0.044539,0.033747 -0.059729,0.057946 -0.015174,0.02422 -0.024565,0.052033 -0.027387,0.080996 v 7.278e-4 c 0.034868,0.2352012 0.1203444,0.4586152 0.2497318,0.6527167 l -0.00304,-0.00496 z M 7.6776551,6.4935228 v -7.487e-4 l 6.21e-5,-7.062e-4 z m 6.21e-5,-0.00142 1.663e-4,-0.00548 c 0,0.0011 -2.05e-5,0.0025 -8.29e-5,0.00362 -2.11e-5,5.607e-4 -6.26e-5,0.00109 -8.34e-5,0.00161 z m -6.21e-5,-0.00111 v 0.0018 c -0.00202,0.028061 -0.017814,0.061045 -0.032904,0.092611 -0.00955,0.019915 -0.018779,0.039282 -0.024171,0.05652 l -0.00304,0.0044 C 7.4383779,6.8905186 7.2074184,7.0860336 6.9436541,7.2168139 6.6798902,7.3475729 6.3908057,7.4098972 6.1001002,7.3986296 h -0.012739 l -0.040473,4.99e-4 C 5.7640373,7.3992344 5.4846615,7.332877 5.2286099,7.2047586 4.9725795,7.0766385 4.7461743,6.8899381 4.5655371,6.657918 l -4.554e-4,-2.496e-4 c -0.021303,-0.018417 -0.03875,-0.041408 -0.051208,-0.067477 -0.012456,-0.026048 -0.019654,-0.054609 -0.021119,-0.083818 v 4.998e-4 c -0.00174,-0.017448 -1.786e-4,-0.035095 0.00484,-0.051825 0.00499,-0.01674 0.013128,-0.032166 0.024015,-0.04534 0.010881,-0.013154 0.02421,-0.02376 0.039143,-0.031125 0.014933,-0.00748 0.031146,-0.011329 0.047619,-0.011613 h 6.818e-4 c 0.026149,0.00332 0.051002,0.014182 0.072097,0.03104 l -0.00399,-0.00332 c 0.3998718,0.3409619 0.8961134,0.5280162 1.4082366,0.5308023 h -0.00199 l 0.039553,4.778e-4 c 0.4991931,0.0011 0.9828571,-0.1849336 1.3664875,-0.5254281 0.019929,-0.019397 0.045803,-0.03042 0.072772,-0.03102 h 0.00156 c 0.01497,-4.14e-5 0.02981,0.00318 0.043642,0.0092 0.013841,0.00604 0.026428,0.015058 0.037011,0.026332 0.010587,0.011298 0.018986,0.024686 0.024703,0.039442 0.0056,0.01476 0.00862,0.03055 0.00858,0.04653 z M 5.4616696,5.2537865 c 0,0.2296292 -0.1861404,0.4157686 -0.4157698,0.4157686 -0.2296227,0 -0.4157688,-0.1861394 -0.4157688,-0.4157686 0,-0.2296295 0.1861461,-0.4157696 0.4157688,-0.4157696 0.2296294,0 0.4157698,0.1861401 0.4157698,0.4157696 z m 1.663076,0.4157686 c 0.2296292,0 0.4157687,-0.1861394 0.4157687,-0.4157686 0,-0.2296295 -0.1861395,-0.4157696 -0.4157687,-0.4157696 -0.2296294,0 -0.4157693,0.1861401 -0.4157693,0.4157696 0,0.2296292 0.1861399,0.4157686 0.4157693,0.4157686 z"
     fill="url(#paint0_linear)"
     id="path1-3"
     style="fill:#81b3e2;stroke-width:0.264578;fill-opacity:1" />
</svg>
