<?xml version="1.0" encoding="UTF-8" standalone="no"?>
<svg
   width="45.999886"
   height="45.999989"
   version="1.1"
   viewBox="0 0 12.170564 12.170591"
   id="svg12"
   sodipodi:docname="kshisen.svg"
   inkscape:version="1.3.2 (091e20ef0f, 2023-11-25)"
   xmlns:inkscape="http://www.inkscape.org/namespaces/inkscape"
   xmlns:sodipodi="http://sodipodi.sourceforge.net/DTD/sodipodi-0.dtd"
   xmlns:xlink="http://www.w3.org/1999/xlink"
   xmlns="http://www.w3.org/2000/svg"
   xmlns:svg="http://www.w3.org/2000/svg">
  <defs
     id="defs16">
    <linearGradient
       id="linearGradient7"
       inkscape:collect="always">
      <stop
         style="stop-color:#ffb380;stop-opacity:1"
         offset="0"
         id="stop6" />
      <stop
         style="stop-color:#ff5555;stop-opacity:1;"
         offset="1"
         id="stop7" />
    </linearGradient>
    <linearGradient
       id="c"
       y1="523.79999"
       x1="403.57001"
       y2="536.79999"
       x2="416.57001"
       gradientUnits="userSpaceOnUse"
       gradientTransform="matrix(0.34526714,0,0,0.34526706,-134.80427,-174.63325)">
      <stop
         stop-color="#292c2f"
         id="stop1568" />
      <stop
         offset="1"
         stop-opacity="0"
         id="stop1570" />
    </linearGradient>
    <linearGradient
       xlink:href="#b-2"
       id="linearGradient4189"
       x1="14.369"
       y1="22.521999"
       x2="26.521999"
       y2="22.521999"
       gradientUnits="userSpaceOnUse" />
    <linearGradient
       x1="36"
       gradientUnits="userSpaceOnUse"
       x2="14"
       y2="12"
       y1="44"
       id="b-2">
      <stop
         style="stop-color:#bfc9c9;stop-opacity:1"
         stop-color="#536161"
         id="stop1579" />
      <stop
         style="stop-color:#fbfbfb;stop-opacity:1"
         stop-color="#f4f5f5"
         offset="1"
         id="stop1581" />
    </linearGradient>
    <linearGradient
       xlink:href="#b-2"
       id="linearGradient4428"
       gradientUnits="userSpaceOnUse"
       x1="31.586"
       y1="36.345001"
       x2="1.2029999"
       y2="6.723" />
    <linearGradient
       xlink:href="#b-2"
       id="linearGradient4189-3"
       x1="14.369"
       y1="22.521999"
       x2="26.521999"
       y2="22.521999"
       gradientUnits="userSpaceOnUse"
       gradientTransform="translate(20.841982,61.553822)" />
    <linearGradient
       xlink:href="#b-2"
       id="linearGradient4428-5"
       gradientUnits="userSpaceOnUse"
       x1="31.586"
       y1="36.345001"
       x2="1.2029999"
       y2="6.723"
       gradientTransform="translate(20.841982,61.553822)" />
    <linearGradient
       xlink:href="#b-2"
       id="linearGradient4189-3-3"
       x1="14.369"
       y1="22.521999"
       x2="26.521999"
       y2="22.521999"
       gradientUnits="userSpaceOnUse"
       gradientTransform="translate(4.376802,4.4211693)" />
    <linearGradient
       xlink:href="#b-2"
       id="linearGradient4428-5-5"
       gradientUnits="userSpaceOnUse"
       x1="31.586"
       y1="36.345001"
       x2="1.2029999"
       y2="6.723"
       gradientTransform="translate(4.376802,4.4211693)" />
    <linearGradient
       inkscape:collect="always"
       xlink:href="#linearGradient14"
       id="linearGradient15"
       x1="-9.6850061"
       y1="45.161198"
       x2="11.98815"
       y2="21.735205"
       gradientUnits="userSpaceOnUse"
       gradientTransform="scale(0.26457813)" />
    <linearGradient
       id="linearGradient14"
       inkscape:collect="always">
      <stop
         style="stop-color:#ffb380;stop-opacity:1"
         offset="0"
         id="stop12" />
      <stop
         style="stop-color:#ff5555;stop-opacity:1"
         offset="1"
         id="stop13" />
    </linearGradient>
    <filter
       id="filter2917-3"
       x="-0.96181147"
       y="-0.66745996"
       width="2.9236229"
       height="2.3349199"
       color-interpolation-filters="sRGB">
      <feGaussianBlur
         stdDeviation="0.2871969"
         id="feGaussianBlur732-5" />
    </filter>
    <filter
       id="filter1"
       x="-0.96181148"
       y="-0.66745996"
       width="2.9236228"
       height="2.3349199"
       color-interpolation-filters="sRGB">
      <feGaussianBlur
         stdDeviation="0.2871969"
         id="feGaussianBlur1" />
    </filter>
    <filter
       id="filter2"
       x="-0.96181148"
       y="-0.66745996"
       width="2.9236228"
       height="2.3349199"
       color-interpolation-filters="sRGB">
      <feGaussianBlur
         stdDeviation="0.2871969"
         id="feGaussianBlur2" />
    </filter>
    <linearGradient
       id="_lgradient_20"
       x1="-0.29991642"
       y1="-0.26140401"
       x2="0.96725708"
       y2="0.86616999"
       gradientTransform="matrix(15.137397,0,0,16.82717,0.89780187,0.05291536)"
       gradientUnits="userSpaceOnUse">
      <stop
         offset="34.94098066785295%"
         stop-opacity="1"
         style="stop-color:rgb(178,229,107)"
         id="stop1" />
      <stop
         offset="53.84922244785295%"
         stop-opacity="1"
         style="stop-color:rgb(194,233,100)"
         id="stop2" />
      <stop
         offset="90.40515655585295%"
         stop-opacity="1"
         style="stop-color:rgb(236,244,81)"
         id="stop3" />
      <stop
         offset="100%"
         stop-opacity="1"
         style="stop-color:rgb(250,247,75)"
         id="stop4" />
    </linearGradient>
    <linearGradient
       inkscape:collect="always"
       xlink:href="#linearGradient7"
       id="linearGradient6"
       x1="-12.120221"
       y1="6.1170783"
       x2="0.0093933269"
       y2="6.1170783"
       gradientUnits="userSpaceOnUse" />
    <linearGradient
       id="paint0_linear_41_132"
       x1="9.04953"
       y1="23"
       x2="9.04953"
       y2="1"
       gradientUnits="userSpaceOnUse"
       gradientTransform="scale(0.26457813)">
      <stop
         stop-color="#FD5900"
         id="stop2-7" />
      <stop
         offset="1"
         stop-color="#FFDE00"
         id="stop3-5" />
    </linearGradient>
    <linearGradient
       id="paint1_linear_41_132"
       x1="19.6236"
       y1="21.062599"
       x2="19.6236"
       y2="2.9365201"
       gradientUnits="userSpaceOnUse"
       gradientTransform="scale(0.26457813)">
      <stop
         stop-color="#FD5900"
         id="stop4-3" />
      <stop
         offset="1"
         stop-color="#FFDE00"
         id="stop5-5" />
    </linearGradient>
    <linearGradient
       id="a"
       x1="15"
       x2="33"
       y1="15"
       y2="33"
       gradientUnits="userSpaceOnUse"
       gradientTransform="matrix(1.0499999,0,0,1.0243901,-61.606779,-28.624307)">
      <stop
         id="stop894"
         stop-color="#fceaca"
         offset="0"
         style="stop-color:#ffffff;stop-opacity:1;" />
      <stop
         id="stop896"
         stop-color="#fdcf7e"
         offset="1"
         style="stop-color:#feebc9;stop-opacity:1;" />
    </linearGradient>
    <linearGradient
       inkscape:collect="always"
       xlink:href="#linearGradient22"
       id="linearGradient24"
       x1="4.0000005"
       y1="11.003911"
       x2="12"
       y2="1.5"
       gradientUnits="userSpaceOnUse"
       gradientTransform="scale(0.26457821)" />
    <linearGradient
       id="linearGradient22"
       inkscape:collect="always">
      <stop
         style="stop-color:#ffb380;stop-opacity:1"
         offset="0"
         id="stop23" />
      <stop
         style="stop-color:#ff5555;stop-opacity:1"
         offset="1"
         id="stop24" />
    </linearGradient>
  </defs>
  <sodipodi:namedview
     id="namedview14"
     pagecolor="#000000"
     bordercolor="#666666"
     borderopacity="1.0"
     inkscape:showpageshadow="2"
     inkscape:pageopacity="0.0"
     inkscape:pagecheckerboard="0"
     inkscape:deskcolor="#d1d1d1"
     showgrid="false"
     inkscape:zoom="5.2149125"
     inkscape:cx="23.20269"
     inkscape:cy="38.351554"
     inkscape:window-width="1920"
     inkscape:window-height="996"
     inkscape:window-x="0"
     inkscape:window-y="0"
     inkscape:window-maximized="1"
     inkscape:current-layer="svg12">
    <inkscape:grid
       type="xygrid"
       id="grid244"
       originx="9.7893915"
       originy="-31.749373"
       spacingy="1"
       spacingx="1"
       units="px"
       visible="false" />
  </sodipodi:namedview>
  <rect
     x="-12.025727"
     y="0.1490714"
     width="11.940627"
     height="11.936014"
     rx="1.6121091"
     stroke="url(#paint4_linear_77:23)"
     shape-rendering="crispEdges"
     id="rect5-6-7-3"
     ry="1.7735944"
     transform="matrix(0.00523883,-0.99998628,0.999988,0.00489859,0,0)"
     style="fill:#ffb380;fill-opacity:0.12;stroke:url(#linearGradient6);stroke-width:0.188987;stroke-opacity:1" />
  <rect
     x="-3.7266586"
     y="4.6446943"
     width="7.912631"
     height="7.912384"
     rx="1.612043"
     shape-rendering="crispEdges"
     id="rect5-6-6-6-6"
     style="fill:#ffccaa;fill-opacity:0.1;stroke:url(#linearGradient15);stroke-width:0.188987;stroke-opacity:1"
     ry="1.7735215"
     transform="matrix(0.72612649,-0.68756114,0.6879775,0.72573202,0,0)" />
  <path
     class="ColorScheme-Text"
     d="M 5.073778,2.834728 C 5.010812,2.879875 4.994941,2.947816 4.994941,3.0273457 c 0,0.1470413 0.062964,0.3280413 0.094717,0.3959706 0,0 0.1243538,0.7605563 0.1402241,0.8508426 -0.142348,0.011521 -0.3174964,0.02279 -0.4122162,0.045579 H 4.6911985 C 4.4229146,4.3309799 4.1699754,4.342097 4.059381,4.4216457 l -0.047085,0.03354 0.047082,0.045575 c 0.079363,0.067913 0.1105916,0.2601098 0.1423466,0.4639002 0.078841,0.4183287 0.1735642,0.9703656 0.6471628,1.1737237 l 0.094718,0.033971 v -0.079093 c 0,0 0.015824,-0.033966 0.015824,-0.079117 0,-0.033968 -0.015824,-0.09073 -0.031213,-0.1698128 0.125935,0.01152 0.3174957,0.03397 0.4122163,0.03397 0.015825,0.090729 0.5032371,3.7791352 0.5032371,3.7791352 h 0.1576896 c 0,0 0.2317727,-3.6428491 0.2317727,-3.7563519 0.1100651,0 0.5418607,0.01152 0.6842042,0.022789 -0.031738,0.067909 -0.1582194,0.3508215 -0.1582194,0.3508215 L 6.9803488,6.1276175 C 7.0433176,6.0936551 8.4170196,5.1684292 8.2275824,4.5798466 8.164611,4.387668 7.9434196,4.251807 7.5804171,4.1838762 h -0.031738 c -0.2053152,0 -0.7789242,0.01152 -1.2525237,0.033967 0.015824,-0.2940755 0.015824,-0.4213353 0.015824,-0.5004452 V 3.615487 c 0,-0.05633 0.021155,-0.13543 0.084142,-0.192177 0.062965,-0.067912 0.1423377,-0.1242672 0.1423377,-0.1921773 0,-0.022786 -0.015822,-0.045573 -0.031735,-0.067933 C 6.4120179,3.0612943 5.5632449,2.801193 5.2632107,2.7784056 5.1684958,2.789547 5.1055212,2.8011914 5.0737667,2.8351603 Z m 0.093129,1.8242182 h 0.078841 c 0,0.1019099 0.047095,0.8461128 0.062964,0.9480082 C 5.1822545,5.5953899 4.9594803,5.5729915 4.8647604,5.5729915 4.8176649,5.4255336 4.8017917,5.2673081 4.7859156,5.1090909 4.7700443,4.973233 4.7541692,4.8059858 4.7229458,4.6817346 c 0.1418117,0 0.4439656,-0.022791 0.4439656,-0.022791 z m 1.0974788,0.3822126 c 0,0 0.015822,-0.3031056 0.015822,-0.3933906 0.2053138,0.02236 0.4159196,0.033969 0.6683294,0.033969 h 0.284683 c 0,0.045145 -0.01581,0.1019096 -0.01581,0.1019096 -0.031735,0.2489315 -0.07937,0.5743934 -0.2211896,0.8684689 -0.094711,0 -0.6212345,-0.022789 -0.7477037,-0.03397 0,-0.079092 0.015825,-0.5769728 0.015825,-0.5769728 z"
     id="path22"
     style="color:#d5c289;isolation:isolate;fill:url(#linearGradient24);fill-opacity:1;stroke-width:0.26458" />
</svg>
