<?xml version="1.0" encoding="UTF-8" standalone="no"?>
<svg
   width="45.999886"
   height="45.999989"
   version="1.1"
   viewBox="0 0 12.170564 12.170591"
   id="svg12"
   sodipodi:docname="ksirk.svg"
   inkscape:version="1.3.2 (091e20ef0f, 2023-11-25)"
   xmlns:inkscape="http://www.inkscape.org/namespaces/inkscape"
   xmlns:sodipodi="http://sodipodi.sourceforge.net/DTD/sodipodi-0.dtd"
   xmlns:xlink="http://www.w3.org/1999/xlink"
   xmlns="http://www.w3.org/2000/svg"
   xmlns:svg="http://www.w3.org/2000/svg">
  <defs
     id="defs16">
    <linearGradient
       id="c"
       y1="523.79999"
       x1="403.57001"
       y2="536.79999"
       x2="416.57001"
       gradientUnits="userSpaceOnUse"
       gradientTransform="matrix(0.34526714,0,0,0.34526706,-134.80427,-174.63325)">
      <stop
         stop-color="#292c2f"
         id="stop1568" />
      <stop
         offset="1"
         stop-opacity="0"
         id="stop1570" />
    </linearGradient>
    <linearGradient
       xlink:href="#b-2"
       id="linearGradient4189"
       x1="14.369"
       y1="22.521999"
       x2="26.521999"
       y2="22.521999"
       gradientUnits="userSpaceOnUse" />
    <linearGradient
       x1="36"
       gradientUnits="userSpaceOnUse"
       x2="14"
       y2="12"
       y1="44"
       id="b-2">
      <stop
         style="stop-color:#bfc9c9;stop-opacity:1"
         stop-color="#536161"
         id="stop1579" />
      <stop
         style="stop-color:#fbfbfb;stop-opacity:1"
         stop-color="#f4f5f5"
         offset="1"
         id="stop1581" />
    </linearGradient>
    <linearGradient
       xlink:href="#b-2"
       id="linearGradient4428"
       gradientUnits="userSpaceOnUse"
       x1="31.586"
       y1="36.345001"
       x2="1.2029999"
       y2="6.723" />
    <linearGradient
       xlink:href="#b-2"
       id="linearGradient4189-3"
       x1="14.369"
       y1="22.521999"
       x2="26.521999"
       y2="22.521999"
       gradientUnits="userSpaceOnUse"
       gradientTransform="translate(20.841982,61.553822)" />
    <linearGradient
       xlink:href="#b-2"
       id="linearGradient4428-5"
       gradientUnits="userSpaceOnUse"
       x1="31.586"
       y1="36.345001"
       x2="1.2029999"
       y2="6.723"
       gradientTransform="translate(20.841982,61.553822)" />
    <linearGradient
       xlink:href="#b-2"
       id="linearGradient4189-3-3"
       x1="14.369"
       y1="22.521999"
       x2="26.521999"
       y2="22.521999"
       gradientUnits="userSpaceOnUse"
       gradientTransform="translate(4.376802,4.4211693)" />
    <linearGradient
       xlink:href="#b-2"
       id="linearGradient4428-5-5"
       gradientUnits="userSpaceOnUse"
       x1="31.586"
       y1="36.345001"
       x2="1.2029999"
       y2="6.723"
       gradientTransform="translate(4.376802,4.4211693)" />
    <linearGradient
       inkscape:collect="always"
       xlink:href="#linearGradient11"
       id="linearGradient13"
       x1="-43.819283"
       y1="23.120178"
       x2="-1.9547797"
       y2="23.120178"
       gradientUnits="userSpaceOnUse"
       gradientTransform="scale(0.26457813)" />
    <linearGradient
       id="linearGradient11"
       inkscape:collect="always">
      <stop
         style="stop-color:#37c871;stop-opacity:1"
         offset="0"
         id="stop4-3" />
      <stop
         style="stop-color:#00ccff;stop-opacity:1"
         offset="1"
         id="stop11" />
    </linearGradient>
    <linearGradient
       inkscape:collect="always"
       xlink:href="#linearGradient14"
       id="linearGradient15"
       x1="-9.6850061"
       y1="45.161198"
       x2="11.98815"
       y2="21.735205"
       gradientUnits="userSpaceOnUse"
       gradientTransform="scale(0.26457813)" />
    <linearGradient
       id="linearGradient14"
       inkscape:collect="always">
      <stop
         style="stop-color:#37c871;stop-opacity:1"
         offset="0"
         id="stop12" />
      <stop
         style="stop-color:#00ccff;stop-opacity:1"
         offset="1"
         id="stop13" />
    </linearGradient>
    <filter
       id="filter2917-3"
       x="-0.96181147"
       y="-0.66745996"
       width="2.9236229"
       height="2.3349199"
       color-interpolation-filters="sRGB">
      <feGaussianBlur
         stdDeviation="0.2871969"
         id="feGaussianBlur732-5" />
    </filter>
    <filter
       id="filter1"
       x="-0.96181148"
       y="-0.66745996"
       width="2.9236228"
       height="2.3349199"
       color-interpolation-filters="sRGB">
      <feGaussianBlur
         stdDeviation="0.2871969"
         id="feGaussianBlur1" />
    </filter>
    <filter
       id="filter2"
       x="-0.96181148"
       y="-0.66745996"
       width="2.9236228"
       height="2.3349199"
       color-interpolation-filters="sRGB">
      <feGaussianBlur
         stdDeviation="0.2871969"
         id="feGaussianBlur2" />
    </filter>
    <linearGradient
       inkscape:collect="always"
       xlink:href="#rainblue"
       id="linearGradient24"
       x1="10.738559"
       y1="30.501238"
       x2="33.06641"
       y2="17.078194"
       gradientUnits="userSpaceOnUse"
       gradientTransform="scale(0.26457814)" />
    <linearGradient
       id="rainblue"
       x1="0"
       x2="0"
       y1="0"
       y2="1">
      <stop
         offset="0%"
         style="stop-color:#00F260; stop-opacity:1"
         id="stop9" />
      <stop
         offset="1"
         style="stop-color:#63affc;stop-opacity:1;"
         id="stop10" />
    </linearGradient>
  </defs>
  <sodipodi:namedview
     id="namedview14"
     pagecolor="#000000"
     bordercolor="#666666"
     borderopacity="1.0"
     inkscape:showpageshadow="2"
     inkscape:pageopacity="0.0"
     inkscape:pagecheckerboard="0"
     inkscape:deskcolor="#d1d1d1"
     showgrid="false"
     inkscape:zoom="5.2149125"
     inkscape:cx="23.20269"
     inkscape:cy="53.692176"
     inkscape:window-width="1920"
     inkscape:window-height="996"
     inkscape:window-x="0"
     inkscape:window-y="0"
     inkscape:window-maximized="1"
     inkscape:current-layer="svg12">
    <inkscape:grid
       type="xygrid"
       id="grid244"
       originx="9.7893915"
       originy="-31.749373"
       spacingy="1"
       spacingx="1"
       units="px"
       visible="false" />
  </sodipodi:namedview>
  <rect
     x="-12.025727"
     y="0.1490714"
     width="11.940627"
     height="11.936014"
     rx="1.6121091"
     stroke="url(#paint4_linear_77:23)"
     shape-rendering="crispEdges"
     id="rect5-6-7-3"
     ry="1.7735944"
     transform="matrix(0.00523883,-0.99998628,0.999988,0.00489859,0,0)"
     style="fill:#80b3ff;fill-opacity:0.15;stroke:url(#linearGradient13);stroke-width:0.188987;stroke-opacity:1" />
  <rect
     x="-3.7266586"
     y="4.6446943"
     width="7.912631"
     height="7.912384"
     rx="1.612043"
     shape-rendering="crispEdges"
     id="rect5-6-6-6-6"
     style="fill:#80b3ff;fill-opacity:0.122146;stroke:url(#linearGradient15);stroke-width:0.188987;stroke-opacity:1"
     ry="1.7735215"
     transform="matrix(0.72612649,-0.68756114,0.6879775,0.72573202,0,0)" />
  <path
     class="ColorScheme-Text"
     d="m 8.2764509,3.7596655 c -0.023234,-0.00117 -0.046094,0.00382 -0.066673,0.015016 C 8.039475,3.8520655 8.2368299,4.0353355 7.649339,4.3036907 7.0725167,4.5662725 5.8476269,4.4111165 4.7438924,4.9147092 4.5975915,4.9816979 4.4691972,5.0544756 4.3533757,5.1233878 4.3263246,5.0648662 4.2889883,5.0117312 4.2425066,4.967072 4.13621,4.8608149 3.9780985,4.803056 3.8001747,4.803056 c -0.053716,0 -0.055249,-0.011198 -0.066295,-0.02233 C 3.7117857,4.758005 3.6965467,4.729517 3.6893037,4.698716 3.6672037,4.610155 3.6820737,4.497353 3.6820737,4.497353 3.6930846,4.4207322 3.6668354,4.3433479 3.6112085,4.2898298 3.5552076,4.236701 3.4770993,4.2139862 3.4016633,4.2293757 3.2991772,4.2486307 3.2214535,4.3333323 3.2100236,4.4380535 c 0,0 -0.026662,0.1747954 0.022485,0.3726931 0.02476,0.098569 0.074295,0.2090634 0.1691605,0.3049313 0.1066802,0.1051092 0.2495507,0.1640157 0.3985184,0.1644014 0.085723,0 0.1005866,0.019255 0.110494,0.02965 0.010275,0.010396 0.02286,0.029649 0.029712,0.074695 7.624e-4,0.0073 -0.00113,0.014628 0,0.02233 C 3.3464113,5.9161322 3.4027987,6.3997099 3.3650803,6.5544852 3.3178365,6.4805698 3.2073491,6.4593868 3.1143875,6.5021279 3.0137995,6.5479477 2.9254148,6.7554661 3.1216168,7.1951528 3.3178279,7.6348376 3.537279,7.7103018 3.6378616,7.6644845 3.7308256,7.6217452 3.7788286,7.5247341 3.755966,7.4411763 3.8481608,7.4896878 4.0260896,7.660249 4.3529808,7.7391768 4.3152674,7.6059644 4.2954544,7.4681284 4.2943128,7.3295227 4.2954564,6.486342 4.9713359,5.8029424 5.8060895,5.8017866 c 0.5657733,0 1.061825,0.3164825 1.319757,0.7823498 0.3836596,-0.3707699 0.8122759,-0.79852 1.1208797,-0.9390511 0.587109,-0.2679695 0.6046361,0.032732 0.7745595,-0.044668 0.1047701,-0.047734 0.090321,-0.1359066 0.044183,-0.2383222 L 8.4166559,3.9013502 C 8.3823666,3.8251176 8.3396958,3.766206 8.2764505,3.7596696 Z M 5.8060979,6.137127 c -0.6518773,0 -1.1799324,0.5336287 -1.1799324,1.1923885 0,0.6583739 0.5280551,1.1923889 1.1799324,1.1923889 0.6514967,0 1.1795518,-0.534015 1.1795518,-1.1923889 0,-0.6587598 -0.5280551,-1.1923885 -1.1795518,-1.1923885 z m 0,0.4543171 c 0.40309,3.917e-4 0.7296005,0.3303413 0.7299813,0.7380714 C 6.5356984,7.7368603 6.2091879,8.0668176 5.8060979,8.0672034 5.4026274,8.0668373 5.0761173,7.7368603 5.0757365,7.3295155 5.0761173,6.9217854 5.4026274,6.5918282 5.8060979,6.5914441 Z m 0,0.484732 c -0.1363968,0 -0.2510734,0.1155027 -0.2510734,0.2533394 0,0.1378378 0.1146747,0.253339 0.2510734,0.253339 0.1363975,0 0.250693,-0.1155029 0.250693,-0.253339 0,-0.1378389 -0.1142977,-0.2537239 -0.250693,-0.2537239 z"
     id="path22"
     style="color:#d5c289;isolation:isolate;fill:url(#linearGradient24);fill-opacity:1;stroke-width:0.264579" />
</svg>
