<?xml version="1.0" encoding="UTF-8" standalone="no"?>
<svg
   width="45.999886"
   height="45.999989"
   version="1.1"
   viewBox="0 0 12.170564 12.170591"
   id="svg12"
   sodipodi:docname="kxstitch.svg"
   inkscape:version="1.3.2 (091e20ef0f, 2023-11-25)"
   xmlns:inkscape="http://www.inkscape.org/namespaces/inkscape"
   xmlns:sodipodi="http://sodipodi.sourceforge.net/DTD/sodipodi-0.dtd"
   xmlns:xlink="http://www.w3.org/1999/xlink"
   xmlns="http://www.w3.org/2000/svg"
   xmlns:svg="http://www.w3.org/2000/svg">
  <defs
     id="defs16">
    <linearGradient
       id="c"
       y1="523.79999"
       x1="403.57001"
       y2="536.79999"
       x2="416.57001"
       gradientUnits="userSpaceOnUse"
       gradientTransform="matrix(0.34526714,0,0,0.34526706,-134.80427,-174.63325)">
      <stop
         stop-color="#292c2f"
         id="stop1568" />
      <stop
         offset="1"
         stop-opacity="0"
         id="stop1570" />
    </linearGradient>
    <linearGradient
       xlink:href="#b-2"
       id="linearGradient4189"
       x1="14.369"
       y1="22.521999"
       x2="26.521999"
       y2="22.521999"
       gradientUnits="userSpaceOnUse" />
    <linearGradient
       x1="36"
       gradientUnits="userSpaceOnUse"
       x2="14"
       y2="12"
       y1="44"
       id="b-2">
      <stop
         style="stop-color:#bfc9c9;stop-opacity:1"
         stop-color="#536161"
         id="stop1579" />
      <stop
         style="stop-color:#fbfbfb;stop-opacity:1"
         stop-color="#f4f5f5"
         offset="1"
         id="stop1581" />
    </linearGradient>
    <linearGradient
       xlink:href="#b-2"
       id="linearGradient4428"
       gradientUnits="userSpaceOnUse"
       x1="31.586"
       y1="36.345001"
       x2="1.2029999"
       y2="6.723" />
    <linearGradient
       xlink:href="#b-2"
       id="linearGradient4189-3"
       x1="14.369"
       y1="22.521999"
       x2="26.521999"
       y2="22.521999"
       gradientUnits="userSpaceOnUse"
       gradientTransform="translate(20.841982,61.553822)" />
    <linearGradient
       xlink:href="#b-2"
       id="linearGradient4428-5"
       gradientUnits="userSpaceOnUse"
       x1="31.586"
       y1="36.345001"
       x2="1.2029999"
       y2="6.723"
       gradientTransform="translate(20.841982,61.553822)" />
    <linearGradient
       xlink:href="#b-2"
       id="linearGradient4189-3-3"
       x1="14.369"
       y1="22.521999"
       x2="26.521999"
       y2="22.521999"
       gradientUnits="userSpaceOnUse"
       gradientTransform="translate(4.376802,4.4211693)" />
    <linearGradient
       xlink:href="#b-2"
       id="linearGradient4428-5-5"
       gradientUnits="userSpaceOnUse"
       x1="31.586"
       y1="36.345001"
       x2="1.2029999"
       y2="6.723"
       gradientTransform="translate(4.376802,4.4211693)" />
    <linearGradient
       inkscape:collect="always"
       xlink:href="#linearGradient11"
       id="linearGradient13"
       x1="-43.819283"
       y1="23.120178"
       x2="-1.9547797"
       y2="23.120178"
       gradientUnits="userSpaceOnUse"
       gradientTransform="scale(0.26457813)" />
    <linearGradient
       id="linearGradient11"
       inkscape:collect="always">
      <stop
         style="stop-color:#d15a89;stop-opacity:0.88546801;"
         offset="0"
         id="stop4-3" />
      <stop
         style="stop-color:#c83771;stop-opacity:1"
         offset="1"
         id="stop11" />
    </linearGradient>
    <linearGradient
       inkscape:collect="always"
       xlink:href="#linearGradient14"
       id="linearGradient15"
       x1="-9.6850061"
       y1="45.161198"
       x2="11.98815"
       y2="21.735205"
       gradientUnits="userSpaceOnUse"
       gradientTransform="scale(0.26457813)" />
    <linearGradient
       id="linearGradient14"
       inkscape:collect="always">
      <stop
         style="stop-color:#a02c5a;stop-opacity:1"
         offset="0"
         id="stop12" />
      <stop
         style="stop-color:#c83771;stop-opacity:1"
         offset="1"
         id="stop13" />
    </linearGradient>
    <linearGradient
       id="linearGradient3331">
      <stop
         style="stop-color:#ffebf2;stop-opacity:1;"
         offset="0"
         id="stop3333" />
      <stop
         style="stop-color:#fe005d;stop-opacity:0;"
         offset="1"
         id="stop3335" />
    </linearGradient>
  </defs>
  <sodipodi:namedview
     id="namedview14"
     pagecolor="#000000"
     bordercolor="#666666"
     borderopacity="1.0"
     inkscape:showpageshadow="2"
     inkscape:pageopacity="0.0"
     inkscape:pagecheckerboard="0"
     inkscape:deskcolor="#d1d1d1"
     showgrid="false"
     inkscape:zoom="5.2149125"
     inkscape:cx="18.216988"
     inkscape:cy="45.446592"
     inkscape:window-width="1920"
     inkscape:window-height="996"
     inkscape:window-x="0"
     inkscape:window-y="0"
     inkscape:window-maximized="1"
     inkscape:current-layer="svg12">
    <inkscape:grid
       type="xygrid"
       id="grid244"
       originx="9.7893915"
       originy="-31.749373"
       spacingy="1"
       spacingx="1"
       units="px"
       visible="false" />
  </sodipodi:namedview>
  <rect
     x="-12.025727"
     y="0.1490714"
     width="11.940627"
     height="11.936014"
     rx="1.6121091"
     stroke="url(#paint4_linear_77:23)"
     shape-rendering="crispEdges"
     id="rect5-6-7-3"
     ry="1.7735944"
     transform="matrix(0.00523883,-0.99998628,0.999988,0.00489859,0,0)"
     style="fill:#de87aa;fill-opacity:0.15;stroke:url(#linearGradient13);stroke-width:0.188987;stroke-opacity:1" />
  <rect
     x="-3.7266586"
     y="4.6446943"
     width="7.912631"
     height="7.912384"
     rx="1.612043"
     shape-rendering="crispEdges"
     id="rect5-6-6-6-6"
     style="fill:#de87aa;fill-opacity:0.122146;stroke:url(#linearGradient15);stroke-width:0.188987;stroke-opacity:1"
     ry="1.7735215"
     transform="matrix(0.72612649,-0.68756114,0.6879775,0.72573202,0,0)" />
  <path
     style="opacity:0.5;fill:#e4e4e4;fill-opacity:1;stroke-width:0.264578"
     d="m 3.7032389,3.4395157 c -0.146015,0 -0.2637232,0.1177086 -0.2637232,0.2637237 V 5.547873 c 0,0.1460138 0.1177082,0.2637225 0.2637232,0.2637225 h 1.8446338 c 0.1460145,0 0.2637228,-0.1177087 0.2637228,-0.2637225 V 3.7032394 c 0,-0.1460151 -0.1177083,-0.2637237 -0.2637228,-0.2637237 z m 0.4255204,0.5474035 h 0.9935928 c 0.078627,0 0.1418402,0.063215 0.1418402,0.1418407 v 0.9935924 c 0,0.078628 -0.063219,0.14184 -0.1418402,0.14184 H 4.1287593 c -0.078627,0 -0.1418401,-0.063215 -0.1418401,-0.14184 V 4.1287599 c 0,-0.078628 0.063219,-0.1418407 0.1418401,-0.1418407 z"
     id="path2" />
  <path
     style="opacity:0.5;fill:#e4e4e4;fill-opacity:1;stroke-width:0.264578"
     d="m 6.6227211,3.4395157 c -0.1460147,0 -0.2637221,0.1177086 -0.2637221,0.2637237 V 5.547873 c 0,0.1460138 0.1177074,0.2637225 0.2637221,0.2637225 h 1.8446347 c 0.1460145,0 0.2637227,-0.1177087 0.2637227,-0.2637225 V 3.7032394 c 0,-0.1460151 -0.1177082,-0.2637237 -0.2637227,-0.2637237 z m 0.4255205,0.5474035 h 0.9935939 c 0.078627,0 0.14184,0.063215 0.14184,0.1418407 v 0.9935924 c 0,0.078628 -0.06322,0.14184 -0.14184,0.14184 H 7.0482416 c -0.078627,0 -0.1418403,-0.063215 -0.1418403,-0.14184 V 4.1287599 c 0,-0.078628 0.063219,-0.1418407 0.1418403,-0.1418407 z"
     id="path3" />
  <path
     style="opacity:0.5;fill:#e4e4e4;fill-opacity:1;stroke-width:0.264578"
     d="m 3.7032389,6.3589989 c -0.146015,0 -0.2637232,0.1177077 -0.2637232,0.2637219 v 1.8446354 c 0,0.1460146 0.1177082,0.2637222 0.2637232,0.2637222 h 1.8446338 c 0.1460145,0 0.2637228,-0.1177076 0.2637228,-0.2637222 V 6.6227208 c 0,-0.1460142 -0.1177083,-0.2637219 -0.2637228,-0.2637219 z m 0.4255204,0.5474025 h 0.9935928 c 0.078627,0 0.1418402,0.063215 0.1418402,0.1418399 v 0.9935943 c 0,0.078628 -0.063219,0.1418399 -0.1418402,0.1418399 H 4.1287593 c -0.078627,0 -0.1418401,-0.063215 -0.1418401,-0.1418399 V 7.0482413 c 0,-0.078628 0.063219,-0.1418399 0.1418401,-0.1418399 z"
     id="path4" />
  <path
     style="opacity:0.5;fill:#e4e4e4;fill-opacity:1;stroke-width:0.264578"
     d="m 6.6227211,6.3589989 c -0.1460147,0 -0.2637221,0.1177077 -0.2637221,0.2637219 v 1.8446354 c 0,0.1460146 0.1177074,0.2637222 0.2637221,0.2637222 h 1.8446347 c 0.1460145,0 0.2637227,-0.1177076 0.2637227,-0.2637222 V 6.6227208 c 0,-0.1460142 -0.1177082,-0.2637219 -0.2637227,-0.2637219 z m 0.4255205,0.5474025 h 0.9935939 c 0.078627,0 0.14184,0.063215 0.14184,0.1418399 v 0.9935943 c 0,0.078628 -0.06322,0.1418399 -0.14184,0.1418399 H 7.0482416 c -0.078627,0 -0.1418403,-0.063215 -0.1418403,-0.1418399 V 7.0482413 c 0,-0.078628 0.063219,-0.1418399 0.1418403,-0.1418399 z"
     id="path5" />
  <path
     style="opacity:0.1;fill:none;stroke:#0a0202;stroke-width:0.99997;stroke-linecap:round"
     d="M 4.6301175,7.6316647 7.5404771,4.7213058"
     id="path6" />
  <path
     style="fill:none;stroke:#c5251a;stroke-width:0.99997;stroke-linecap:round"
     d="M 4.6301175,7.5404774 7.5404771,4.6301173"
     id="path7" />
  <path
     style="opacity:0.1;fill:none;stroke:#0a0202;stroke-width:0.99997;stroke-linecap:round"
     d="M 7.5404771,7.6316647 4.6301175,4.7213058"
     id="path8" />
  <path
     style="fill:none;stroke:#f44336;stroke-width:0.99997;stroke-linecap:round"
     d="M 7.5404771,7.5404774 4.6301175,4.6301173"
     id="path9" />
  <path
     style="opacity:0.1;fill:#ffffff;stroke-width:0.264578"
     d="M 4.6251997,4.1693862 A 0.45621476,0.45621476 0 0 0 4.1729501,4.6713508 0.45621476,0.45621476 0 0 1 4.6251997,4.2606207 0.45621476,0.45621476 0 0 1 4.9527143,4.3988966 L 7.8629312,7.3091138 A 0.45621476,0.45621476 0 0 1 8.0006733,7.5929717 0.45621476,0.45621476 0 0 0 7.8629312,7.2178793 L 4.9527143,4.3076625 A 0.45621476,0.45621476 0 0 0 4.6251997,4.1693862 Z"
     id="path11" />
</svg>
