<?xml version="1.0" encoding="UTF-8" standalone="no"?>
<svg
   width="45.999886"
   height="45.999989"
   version="1.1"
   viewBox="0 0 12.170564 12.170591"
   id="svg12"
   sodipodi:docname="latte-dock.svg"
   inkscape:version="1.3.2 (091e20ef0f, 2023-11-25)"
   xmlns:inkscape="http://www.inkscape.org/namespaces/inkscape"
   xmlns:sodipodi="http://sodipodi.sourceforge.net/DTD/sodipodi-0.dtd"
   xmlns:xlink="http://www.w3.org/1999/xlink"
   xmlns="http://www.w3.org/2000/svg"
   xmlns:svg="http://www.w3.org/2000/svg">
  <defs
     id="defs16">
    <linearGradient
       id="linearGradient7"
       inkscape:collect="always">
      <stop
         style="stop-color:#ff9955;stop-opacity:0.46059114;"
         offset="0"
         id="stop6" />
      <stop
         style="stop-color:#ffb583;stop-opacity:0.83137256;"
         offset="1"
         id="stop7" />
    </linearGradient>
    <linearGradient
       id="c"
       y1="523.79999"
       x1="403.57001"
       y2="536.79999"
       x2="416.57001"
       gradientUnits="userSpaceOnUse"
       gradientTransform="matrix(0.34526714,0,0,0.34526706,-134.80427,-174.63325)">
      <stop
         stop-color="#292c2f"
         id="stop1568" />
      <stop
         offset="1"
         stop-opacity="0"
         id="stop1570" />
    </linearGradient>
    <linearGradient
       xlink:href="#b-2"
       id="linearGradient4189"
       x1="14.369"
       y1="22.521999"
       x2="26.521999"
       y2="22.521999"
       gradientUnits="userSpaceOnUse" />
    <linearGradient
       x1="36"
       gradientUnits="userSpaceOnUse"
       x2="14"
       y2="12"
       y1="44"
       id="b-2">
      <stop
         style="stop-color:#bfc9c9;stop-opacity:1"
         stop-color="#536161"
         id="stop1579" />
      <stop
         style="stop-color:#fbfbfb;stop-opacity:1"
         stop-color="#f4f5f5"
         offset="1"
         id="stop1581" />
    </linearGradient>
    <linearGradient
       xlink:href="#b-2"
       id="linearGradient4428"
       gradientUnits="userSpaceOnUse"
       x1="31.586"
       y1="36.345001"
       x2="1.2029999"
       y2="6.723" />
    <linearGradient
       xlink:href="#b-2"
       id="linearGradient4189-3"
       x1="14.369"
       y1="22.521999"
       x2="26.521999"
       y2="22.521999"
       gradientUnits="userSpaceOnUse"
       gradientTransform="translate(20.841982,61.553822)" />
    <linearGradient
       xlink:href="#b-2"
       id="linearGradient4428-5"
       gradientUnits="userSpaceOnUse"
       x1="31.586"
       y1="36.345001"
       x2="1.2029999"
       y2="6.723"
       gradientTransform="translate(20.841982,61.553822)" />
    <linearGradient
       xlink:href="#b-2"
       id="linearGradient4189-3-3"
       x1="14.369"
       y1="22.521999"
       x2="26.521999"
       y2="22.521999"
       gradientUnits="userSpaceOnUse"
       gradientTransform="translate(4.376802,4.4211693)" />
    <linearGradient
       xlink:href="#b-2"
       id="linearGradient4428-5-5"
       gradientUnits="userSpaceOnUse"
       x1="31.586"
       y1="36.345001"
       x2="1.2029999"
       y2="6.723"
       gradientTransform="translate(4.376802,4.4211693)" />
    <linearGradient
       inkscape:collect="always"
       xlink:href="#linearGradient14"
       id="linearGradient15"
       x1="-9.6850061"
       y1="45.161198"
       x2="11.98815"
       y2="21.735205"
       gradientUnits="userSpaceOnUse"
       gradientTransform="scale(0.26457813)" />
    <linearGradient
       id="linearGradient14"
       inkscape:collect="always">
      <stop
         style="stop-color:#ff9900;stop-opacity:0.34509805;"
         offset="0"
         id="stop12" />
      <stop
         style="stop-color:#ffb685;stop-opacity:0.81568629;"
         offset="1"
         id="stop13" />
    </linearGradient>
    <filter
       id="filter2917-3"
       x="-0.96181147"
       y="-0.66745996"
       width="2.9236229"
       height="2.3349199"
       color-interpolation-filters="sRGB">
      <feGaussianBlur
         stdDeviation="0.2871969"
         id="feGaussianBlur732-5" />
    </filter>
    <filter
       id="filter1"
       x="-0.96181148"
       y="-0.66745996"
       width="2.9236228"
       height="2.3349199"
       color-interpolation-filters="sRGB">
      <feGaussianBlur
         stdDeviation="0.2871969"
         id="feGaussianBlur1" />
    </filter>
    <filter
       id="filter2"
       x="-0.96181148"
       y="-0.66745996"
       width="2.9236228"
       height="2.3349199"
       color-interpolation-filters="sRGB">
      <feGaussianBlur
         stdDeviation="0.2871969"
         id="feGaussianBlur2" />
    </filter>
    <linearGradient
       id="_lgradient_20"
       x1="-0.29991642"
       y1="-0.26140401"
       x2="0.96725708"
       y2="0.86616999"
       gradientTransform="matrix(15.137397,0,0,16.82717,0.89780187,0.05291536)"
       gradientUnits="userSpaceOnUse">
      <stop
         offset="34.94098066785295%"
         stop-opacity="1"
         style="stop-color:rgb(178,229,107)"
         id="stop1" />
      <stop
         offset="53.84922244785295%"
         stop-opacity="1"
         style="stop-color:rgb(194,233,100)"
         id="stop2" />
      <stop
         offset="90.40515655585295%"
         stop-opacity="1"
         style="stop-color:rgb(236,244,81)"
         id="stop3" />
      <stop
         offset="100%"
         stop-opacity="1"
         style="stop-color:rgb(250,247,75)"
         id="stop4" />
    </linearGradient>
    <linearGradient
       inkscape:collect="always"
       xlink:href="#linearGradient7"
       id="linearGradient6"
       x1="-12.120221"
       y1="6.1170783"
       x2="0.0093933269"
       y2="6.1170783"
       gradientUnits="userSpaceOnUse" />
    <linearGradient
       id="paint1_linear_19_153"
       x1="64"
       y1="120"
       x2="64"
       y2="8"
       gradientUnits="userSpaceOnUse"
       gradientTransform="translate(26.9062,40.0312)">
      <stop
         stop-color="#FF00B8"
         id="stop9" />
      <stop
         offset="1"
         stop-color="#FAFF00"
         id="stop10" />
    </linearGradient>
    <filter
       id="g-2"
       x="-0.036000001"
       y="-0.036000001"
       width="1.072"
       height="1.072"
       color-interpolation-filters="sRGB">
      <feGaussianBlur
         stdDeviation="0.72"
         id="feGaussianBlur232-7" />
    </filter>
    <linearGradient
       id="a-6"
       x1="32"
       x2="32"
       y1="8"
       y2="56"
       gradientTransform="matrix(0.51197725,0,0,0.51197725,-34.811977,46.950697)"
       gradientUnits="userSpaceOnUse">
      <stop
         stop-color="#bc3b22"
         offset="0"
         id="stop222" />
      <stop
         stop-color="#e05d3e"
         offset="1"
         id="stop224" />
    </linearGradient>
    <filter
       id="filter1127-3"
       x="-0.061878592"
       y="-0.058231784"
       width="1.1237572"
       height="1.1164636"
       color-interpolation-filters="sRGB">
      <feGaussianBlur
         stdDeviation="0.48526995"
         id="feGaussianBlur244-6" />
    </filter>
    <linearGradient
       gradientTransform="matrix(0.70711,-0.70711,0.70711,0.70711,-273.44,450.74)"
       gradientUnits="userSpaceOnUse"
       x2="0"
       y2="544.78998"
       y1="531.78998"
       id="d-5">
      <stop
         id="stop4286" />
      <stop
         id="stop4288"
         stop-opacity="0"
         offset="1" />
    </linearGradient>
    <linearGradient
       gradientTransform="matrix(0.70711,-0.70711,0.70711,0.70711,-273.44,450.74)"
       gradientUnits="userSpaceOnUse"
       x2="0"
       y2="544.78998"
       y1="531.78998"
       id="linearGradient2-3">
      <stop
         id="stop1-6" />
      <stop
         id="stop2-7"
         stop-opacity="0"
         offset="1" />
    </linearGradient>
    <linearGradient
       gradientTransform="matrix(0.70711,-0.70711,0.70711,0.70711,-273.44,450.74)"
       gradientUnits="userSpaceOnUse"
       x2="0"
       y2="544.78998"
       y1="531.78998"
       id="linearGradient4">
      <stop
         id="stop3-5" />
      <stop
         id="stop4-3"
         stop-opacity="0"
         offset="1" />
    </linearGradient>
    <linearGradient
       inkscape:collect="always"
       xlink:href="#linearGradient4162"
       id="linearGradient2467"
       gradientUnits="userSpaceOnUse"
       gradientTransform="matrix(0.27780709,0,0,0.27780709,0.74081775,0.74060958)"
       x1="20.16135"
       y1="31.694183"
       x2="20.16135"
       y2="10.212008" />
    <linearGradient
       id="linearGradient4162"
       inkscape:collect="always">
      <stop
         id="stop4164"
         offset="0"
         style="stop-color:#f3e0c1;stop-opacity:1" />
      <stop
         id="stop4166"
         offset="1"
         style="stop-color:#fff7eb;stop-opacity:1" />
    </linearGradient>
  </defs>
  <sodipodi:namedview
     id="namedview14"
     pagecolor="#000000"
     bordercolor="#666666"
     borderopacity="1.0"
     inkscape:showpageshadow="2"
     inkscape:pageopacity="0.0"
     inkscape:pagecheckerboard="0"
     inkscape:deskcolor="#d1d1d1"
     showgrid="false"
     inkscape:zoom="7.375"
     inkscape:cx="13.288136"
     inkscape:cy="52.474576"
     inkscape:window-width="1920"
     inkscape:window-height="996"
     inkscape:window-x="0"
     inkscape:window-y="0"
     inkscape:window-maximized="1"
     inkscape:current-layer="svg12">
    <inkscape:grid
       type="xygrid"
       id="grid244"
       originx="9.7893915"
       originy="-31.749373"
       spacingy="1"
       spacingx="1"
       units="px"
       visible="false" />
  </sodipodi:namedview>
  <rect
     x="-12.025727"
     y="0.1490714"
     width="11.940627"
     height="11.936014"
     rx="1.6121091"
     stroke="url(#paint4_linear_77:23)"
     shape-rendering="crispEdges"
     id="rect5-6-7-3"
     ry="1.7735944"
     transform="matrix(0.00523883,-0.99998628,0.999988,0.00489859,0,0)"
     style="fill:#ffe0cc;fill-opacity:0.09803922;stroke:url(#linearGradient6);stroke-width:0.188987;stroke-opacity:1" />
  <rect
     x="-3.7266586"
     y="4.6446943"
     width="7.912631"
     height="7.912384"
     rx="1.612043"
     shape-rendering="crispEdges"
     id="rect5-6-6-6-6"
     style="fill:#ffc299;fill-opacity:0.10196079;stroke:url(#linearGradient15);stroke-width:0.188987;stroke-opacity:1"
     ry="1.7735215"
     transform="matrix(0.72612649,-0.68756114,0.6879775,0.72573202,0,0)" />
  <path
     inkscape:connector-curvature="0"
     style="font-style:normal;font-variant:normal;font-weight:bold;font-stretch:normal;font-size:medium;line-height:125%;font-family:Tangerine;-inkscape-font-specification:'Tangerine Bold';letter-spacing:0px;word-spacing:0px;fill:#eddbbc;fill-opacity:1;stroke:none;stroke-width:0.277806px;stroke-linecap:butt;stroke-linejoin:miter;stroke-opacity:1"
     d="M 4.5639697,8.0365896 A 0.4630141,0.4630141 0 0 0 4.1009561,8.4995817 0.4630141,0.4630141 0 0 0 4.5639697,8.9626174 0.4630141,0.4630141 0 0 0 5.0269833,8.4995817 0.4630141,0.4630141 0 0 0 4.5639697,8.0365896 Z"
     id="path4162-0" />
  <path
     inkscape:connector-curvature="0"
     style="font-style:normal;font-variant:normal;font-weight:bold;font-stretch:normal;font-size:medium;line-height:125%;font-family:Tangerine;-inkscape-font-specification:'Tangerine Bold';letter-spacing:0px;word-spacing:0px;fill:#eddbbc;fill-opacity:1;stroke:none;stroke-width:0.277806px;stroke-linecap:butt;stroke-linejoin:miter;stroke-opacity:1"
     d="M 7.3420547,8.0365896 A 0.4630141,0.4630141 0 0 0 6.87904,8.4995817 0.4630141,0.4630141 0 0 0 7.3420547,8.9626174 0.4630141,0.4630141 0 0 0 7.8050683,8.4995817 0.4630141,0.4630141 0 0 0 7.3420547,8.0365896 Z"
     id="path4160-9" />
  <path
     inkscape:connector-curvature="0"
     style="font-style:normal;font-variant:normal;font-weight:bold;font-stretch:normal;font-size:medium;line-height:125%;font-family:Tangerine;-inkscape-font-specification:'Tangerine Bold';letter-spacing:0px;word-spacing:0px;fill:#eddbbc;fill-opacity:1;stroke:none;stroke-width:0.277806px;stroke-linecap:butt;stroke-linejoin:miter;stroke-opacity:1"
     d="M 5.9530116,8.4995817 A 0.4630141,0.4630141 0 0 0 5.4899977,8.9626174 0.4630141,0.4630141 0 0 0 5.9530116,9.4256329 0.4630141,0.4630141 0 0 0 6.4160256,8.9626174 0.4630141,0.4630141 0 0 0 5.9530116,8.4995817 Z"
     id="path4159-3" />
  <path
     inkscape:connector-curvature="0"
     style="font-style:normal;font-variant:normal;font-weight:bold;font-stretch:normal;font-size:medium;line-height:125%;font-family:Tangerine;-inkscape-font-specification:'Tangerine Bold';letter-spacing:0px;word-spacing:0px;fill:url(#linearGradient2467);fill-opacity:1;stroke:none;stroke-width:0.277806px;stroke-linecap:butt;stroke-linejoin:miter;stroke-opacity:1"
     d="m 8.1948326,2.2489141 c -0.2590287,0 -0.5077606,0.068286 -0.7460683,0.2052258 C 7.2156387,2.5857023 6.9953788,2.7780068 6.7881564,3.0305918 6.5861138,3.2780838 6.4022975,3.5834743 6.2365179,3.9466771 6.0707393,4.3046971 5.9283779,4.7099437 5.8092241,5.1627056 5.7263347,5.4836628 5.6434239,5.7550778 5.5605351,5.9759339 5.4776466,6.1971015 5.3922287,6.3811603 5.3041591,6.5285527 5.1124771,6.4548442 4.9231965,6.3249366 4.7366958,6.2776432 4.5553752,6.2249264 4.3690517,6.1991095 4.1773706,6.1991095 c -0.1502364,0 -0.2875855,0.023426 -0.4119191,0.070771 C 3.646297,6.3172475 3.5428862,6.3752508 3.4548153,6.443622 3.3667423,6.511925 3.2968175,6.5856347 3.2450124,6.6647888 c -0.046615,0.078726 -0.070075,0.2218277 -0.070075,0.2901329 0,0.1105725 0.051926,0.203065 0.1555439,0.2767722 0.1036115,0.073699 0.2589553,0.110374 0.4661793,0.110374 0.5491407,0 1.0126681,-0.1450998 1.3908506,-0.4345722 0.2383072,0.1051931 0.4820269,0.2054686 0.7306941,0.3001217 0.2538488,0.089586 0.5335596,0.1344505 0.8392133,0.1344505 0.3470992,0 0.6243031,-0.073717 0.8315264,-0.2211661 0.2072224,-0.1524863 0.3264713,-0.3476796 0.4508046,-0.6319923 0.00514,-0.031968 -0.00223,-0.053034 -0.023056,-0.063398 -0.015554,-0.015003 -0.033997,-0.015003 -0.054708,0 -0.088084,0.1788852 -0.1528935,0.2928308 -0.2875878,0.3875722 -0.1346959,0.094611 -0.3314959,0.1418365 -0.5905241,0.1418365 -0.3108352,0 -0.5960102,-0.033999 -0.855039,-0.102591 C 5.9749818,6.7786224 5.7317144,6.6971113 5.4985886,6.6078156 5.8197843,6.2233815 6.0710225,5.678503 6.2523427,4.9731334 6.3611348,4.5308674 6.4670533,4.1625287 6.5706653,3.8677204 6.6742775,3.5728697 6.7856602,3.3387825 6.9048126,3.1649985 7.0239669,2.9860981 7.1537969,2.8852932 7.2936725,2.8167456 7.4387286,2.7430364 7.6095629,2.7063925 7.8064246,2.7063925 c 0.1450563,0 0.263958,0.026534 0.3572081,0.079272 0.09843,0.047321 0.1713169,0.1104841 0.2179421,0.1893072 0.046618,0.079105 0.072144,0.1428508 0.077316,0.2374817 0.00515,0.094722 -0.00743,0.2817767 -0.038445,0.3767388 -0.00515,0.026534 0.00222,0.04478 0.02306,0.055172 0.025908,0.010147 0.04936,0.00763 0.070076,-0.00739 C 8.5654038,3.5474192 8.6143718,3.3416219 8.660996,3.2046586 8.70762,3.0625766 8.731078,2.9385765 8.731078,2.8334066 8.7310789,2.670095 8.681648,2.5334835 8.5832219,2.4229555 8.484807,2.3070749 8.3554286,2.2493079 8.1948312,2.2493079 Z m -4.359296,4.210606 c 0.2227645,0 0.4325482,0.031213 0.6294102,0.094472 C 4.6618091,6.6172071 4.856102,6.7604075 5.0477842,6.844611 4.9286306,6.9605645 4.7937871,7.0393656 4.6435498,7.0816761 4.4984942,7.1184471 4.3326725,7.1368581 4.1461722,7.1368581 3.9337691,7.1368581 3.767947,7.1025471 3.6487932,7.034179 3.5348201,6.9656138 3.4778746,6.8092016 3.4778746,6.7040085 c 0,-0.1632674 0.119355,-0.2444927 0.357662,-0.2444927 z"
     id="path4166-6" />
</svg>
