<?xml version="1.0" encoding="UTF-8" standalone="no"?>
<svg
   width="45.999886"
   height="45.999989"
   version="1.1"
   viewBox="0 0 12.170564 12.170591"
   id="svg12"
   sodipodi:docname="leocad.svg"
   inkscape:version="1.3.2 (091e20ef0f, 2023-11-25)"
   xmlns:inkscape="http://www.inkscape.org/namespaces/inkscape"
   xmlns:sodipodi="http://sodipodi.sourceforge.net/DTD/sodipodi-0.dtd"
   xmlns:xlink="http://www.w3.org/1999/xlink"
   xmlns="http://www.w3.org/2000/svg"
   xmlns:svg="http://www.w3.org/2000/svg">
  <defs
     id="defs16">
    <linearGradient
       id="c"
       y1="523.79999"
       x1="403.57001"
       y2="536.79999"
       x2="416.57001"
       gradientUnits="userSpaceOnUse"
       gradientTransform="matrix(0.34526714,0,0,0.34526706,-134.80427,-174.63325)">
      <stop
         stop-color="#292c2f"
         id="stop1568" />
      <stop
         offset="1"
         stop-opacity="0"
         id="stop1570" />
    </linearGradient>
    <linearGradient
       xlink:href="#b-2"
       id="linearGradient4189"
       x1="14.369"
       y1="22.521999"
       x2="26.521999"
       y2="22.521999"
       gradientUnits="userSpaceOnUse" />
    <linearGradient
       x1="36"
       gradientUnits="userSpaceOnUse"
       x2="14"
       y2="12"
       y1="44"
       id="b-2">
      <stop
         style="stop-color:#bfc9c9;stop-opacity:1"
         stop-color="#536161"
         id="stop1579" />
      <stop
         style="stop-color:#fbfbfb;stop-opacity:1"
         stop-color="#f4f5f5"
         offset="1"
         id="stop1581" />
    </linearGradient>
    <linearGradient
       xlink:href="#b-2"
       id="linearGradient4428"
       gradientUnits="userSpaceOnUse"
       x1="31.586"
       y1="36.345001"
       x2="1.2029999"
       y2="6.723" />
    <linearGradient
       xlink:href="#b-2"
       id="linearGradient4189-3"
       x1="14.369"
       y1="22.521999"
       x2="26.521999"
       y2="22.521999"
       gradientUnits="userSpaceOnUse"
       gradientTransform="translate(20.841982,61.553822)" />
    <linearGradient
       xlink:href="#b-2"
       id="linearGradient4428-5"
       gradientUnits="userSpaceOnUse"
       x1="31.586"
       y1="36.345001"
       x2="1.2029999"
       y2="6.723"
       gradientTransform="translate(20.841982,61.553822)" />
    <linearGradient
       xlink:href="#b-2"
       id="linearGradient4189-3-3"
       x1="14.369"
       y1="22.521999"
       x2="26.521999"
       y2="22.521999"
       gradientUnits="userSpaceOnUse"
       gradientTransform="translate(4.376802,4.4211693)" />
    <linearGradient
       xlink:href="#b-2"
       id="linearGradient4428-5-5"
       gradientUnits="userSpaceOnUse"
       x1="31.586"
       y1="36.345001"
       x2="1.2029999"
       y2="6.723"
       gradientTransform="translate(4.376802,4.4211693)" />
    <linearGradient
       inkscape:collect="always"
       xlink:href="#linearGradient11"
       id="linearGradient13"
       x1="-43.819283"
       y1="23.120178"
       x2="-1.9547797"
       y2="23.120178"
       gradientUnits="userSpaceOnUse"
       gradientTransform="scale(0.26457813)" />
    <linearGradient
       id="linearGradient11"
       inkscape:collect="always">
      <stop
         style="stop-color:#d15a89;stop-opacity:0.88546801;"
         offset="0"
         id="stop4-3" />
      <stop
         style="stop-color:#c83771;stop-opacity:1"
         offset="1"
         id="stop11" />
    </linearGradient>
    <linearGradient
       inkscape:collect="always"
       xlink:href="#linearGradient14"
       id="linearGradient15"
       x1="-9.6850061"
       y1="45.161198"
       x2="11.98815"
       y2="21.735205"
       gradientUnits="userSpaceOnUse"
       gradientTransform="scale(0.26457813)" />
    <linearGradient
       id="linearGradient14"
       inkscape:collect="always">
      <stop
         style="stop-color:#a02c5a;stop-opacity:1"
         offset="0"
         id="stop12" />
      <stop
         style="stop-color:#c83771;stop-opacity:1"
         offset="1"
         id="stop13" />
    </linearGradient>
    <linearGradient
       id="linearGradient3331">
      <stop
         style="stop-color:#ffebf2;stop-opacity:1;"
         offset="0"
         id="stop3333" />
      <stop
         style="stop-color:#fe005d;stop-opacity:0;"
         offset="1"
         id="stop3335" />
    </linearGradient>
    <linearGradient
       id="linearGradient4168">
      <stop
         style="stop-color:#fcfcfc;stop-opacity:1;"
         offset="0"
         id="stop7" />
      <stop
         style="stop-color:#f58273;stop-opacity:1"
         offset="1"
         id="stop9" />
    </linearGradient>
  </defs>
  <sodipodi:namedview
     id="namedview14"
     pagecolor="#000000"
     bordercolor="#666666"
     borderopacity="1.0"
     inkscape:showpageshadow="2"
     inkscape:pageopacity="0.0"
     inkscape:pagecheckerboard="0"
     inkscape:deskcolor="#d1d1d1"
     showgrid="false"
     inkscape:zoom="5.2149125"
     inkscape:cx="18.216988"
     inkscape:cy="45.446592"
     inkscape:window-width="1920"
     inkscape:window-height="996"
     inkscape:window-x="0"
     inkscape:window-y="0"
     inkscape:window-maximized="1"
     inkscape:current-layer="svg12">
    <inkscape:grid
       type="xygrid"
       id="grid244"
       originx="9.7893915"
       originy="-31.749373"
       spacingy="1"
       spacingx="1"
       units="px"
       visible="false" />
  </sodipodi:namedview>
  <rect
     x="-12.025727"
     y="0.1490714"
     width="11.940627"
     height="11.936014"
     rx="1.6121091"
     stroke="url(#paint4_linear_77:23)"
     shape-rendering="crispEdges"
     id="rect5-6-7-3"
     ry="1.7735944"
     transform="matrix(0.00523883,-0.99998628,0.999988,0.00489859,0,0)"
     style="fill:#de87aa;fill-opacity:0.15;stroke:url(#linearGradient13);stroke-width:0.188987;stroke-opacity:1" />
  <rect
     x="-3.7266586"
     y="4.6446943"
     width="7.912631"
     height="7.912384"
     rx="1.612043"
     shape-rendering="crispEdges"
     id="rect5-6-6-6-6"
     style="fill:#de87aa;fill-opacity:0.122146;stroke:url(#linearGradient15);stroke-width:0.188987;stroke-opacity:1"
     ry="1.7735215"
     transform="matrix(0.72612649,-0.68756114,0.6879775,0.72573202,0,0)" />
  <path
     fill-rule="evenodd"
     clip-rule="evenodd"
     d="m 4.1389906,3.8905257 c 0.030517,-0.03071 0.064182,-0.04566 0.1140063,-0.04566 h 0.7223382 c 0.049832,0 0.083495,0.01498 0.1140016,0.04566 0.033282,0.03359 0.045578,0.0658 0.045578,0.106267 v 0.455975 c 0,0.05591 -0.045124,0.101296 -0.1007918,0.101296 H 4.194202 c -0.055668,0 -0.1007951,-0.04534 -0.1007951,-0.101296 v -0.455971 c 0,-0.04056 0.012362,-0.07269 0.045582,-0.106267 z m 0.1140049,-0.45101 c -0.1533381,0 -0.2908467,0.05527 -0.399531,0.164861 -0.10594,0.10681 -0.1632259,0.240874 -0.1632259,0.392442 v 0.759952 h 1.8478476 v -0.759952 c 0,-0.151568 -0.057288,-0.28561 -0.1632207,-0.392442 C 5.2661714,3.4947217 5.1286616,3.4395157 4.9753347,3.4395157 Z m 2.7753553,0.45101 c 0.030499,-0.03071 0.064177,-0.04566 0.1139993,-0.04566 h 0.7223355 c 0.04396,0 0.078354,0.01383 0.1130672,0.04757 0.034644,0.03407 0.046498,0.06561 0.046498,0.104389 v 0.455972 c 0,0.0559 -0.045075,0.101298 -0.100797,0.101298 H 7.0835433 c -0.055655,0 -0.100793,-0.04535 -0.100793,-0.101298 v -0.455971 c 0,-0.0406 0.012362,-0.07271 0.04557,-0.106267 z m 0.1139993,-0.45101 c -0.1533233,0 -0.2908407,0.05527 -0.3995288,0.164861 -0.1059341,0.10681 -0.16322,0.240874 -0.16322,0.392442 v 0.759952 h 1.8478595 v -0.759952 c 0,-0.153362 -0.05964,-0.287974 -0.1679859,-0.394334 C 8.1512961,3.4962267 8.0164156,3.4395157 7.8646856,3.4395157 Z m -3.7226753,1.855874 c 0.021488,-0.02161 0.043256,-0.03202 0.081576,-0.03202 h 5.1151711 c 0.031824,0 0.054778,0.0079 0.081127,0.03431 0.022574,0.02209 0.032237,0.04326 0.032237,0.07959 v 2.216534 c 0,0.05591 -0.045056,0.101308 -0.1008,0.101308 H 3.4886611 c -0.055668,0 -0.1007949,-0.04527 -0.1007949,-0.101308 v -2.216536 c 0,-0.03847 0.010303,-0.06045 0.031814,-0.08206 z m 0.081576,-0.538619 c -0.1672004,0 -0.3186056,0.06043 -0.4379317,0.180371 -0.1193317,0.119968 -0.1794174,0.272169 -0.1794174,0.440262 v 2.571163 c 0,0.139908 0.1128155,0.253355 0.2519759,0.253355 h 5.8459393 c 0.1391317,0 0.2519603,-0.113467 0.2519603,-0.253355 v -2.571163 c 0,-0.170267 -0.062648,-0.3232 -0.1846574,-0.442641 C 8.9307952,4.8189917 8.7824811,4.7567707 8.6164227,4.7567707 Z"
     id="path1"
     style="fill:#ce4b7f;fill-opacity:1;stroke-width:0.264578" />
</svg>
