<?xml version="1.0" encoding="UTF-8" standalone="no"?>
<svg
   width="45.999886"
   height="45.999989"
   version="1.1"
   viewBox="0 0 12.170564 12.170591"
   id="svg12"
   sodipodi:docname="lftp-icon.svg"
   inkscape:version="1.3.2 (091e20ef0f, 2023-11-25)"
   xmlns:inkscape="http://www.inkscape.org/namespaces/inkscape"
   xmlns:sodipodi="http://sodipodi.sourceforge.net/DTD/sodipodi-0.dtd"
   xmlns:xlink="http://www.w3.org/1999/xlink"
   xmlns="http://www.w3.org/2000/svg"
   xmlns:svg="http://www.w3.org/2000/svg">
  <defs
     id="defs16">
    <linearGradient
       id="c"
       y1="523.79999"
       x1="403.57001"
       y2="536.79999"
       x2="416.57001"
       gradientUnits="userSpaceOnUse"
       gradientTransform="matrix(0.34526714,0,0,0.34526706,-134.80427,-174.63325)">
      <stop
         stop-color="#292c2f"
         id="stop1568" />
      <stop
         offset="1"
         stop-opacity="0"
         id="stop1570" />
    </linearGradient>
    <linearGradient
       xlink:href="#b-2"
       id="linearGradient4189"
       x1="14.369"
       y1="22.521999"
       x2="26.521999"
       y2="22.521999"
       gradientUnits="userSpaceOnUse" />
    <linearGradient
       x1="36"
       gradientUnits="userSpaceOnUse"
       x2="14"
       y2="12"
       y1="44"
       id="b-2">
      <stop
         style="stop-color:#bfc9c9;stop-opacity:1"
         stop-color="#536161"
         id="stop1579" />
      <stop
         style="stop-color:#fbfbfb;stop-opacity:1"
         stop-color="#f4f5f5"
         offset="1"
         id="stop1581" />
    </linearGradient>
    <linearGradient
       xlink:href="#b-2"
       id="linearGradient4428"
       gradientUnits="userSpaceOnUse"
       x1="31.586"
       y1="36.345001"
       x2="1.2029999"
       y2="6.723" />
    <linearGradient
       xlink:href="#b-2"
       id="linearGradient4189-3"
       x1="14.369"
       y1="22.521999"
       x2="26.521999"
       y2="22.521999"
       gradientUnits="userSpaceOnUse"
       gradientTransform="translate(20.841982,61.553822)" />
    <linearGradient
       xlink:href="#b-2"
       id="linearGradient4428-5"
       gradientUnits="userSpaceOnUse"
       x1="31.586"
       y1="36.345001"
       x2="1.2029999"
       y2="6.723"
       gradientTransform="translate(20.841982,61.553822)" />
    <linearGradient
       xlink:href="#b-2"
       id="linearGradient4189-3-3"
       x1="14.369"
       y1="22.521999"
       x2="26.521999"
       y2="22.521999"
       gradientUnits="userSpaceOnUse"
       gradientTransform="translate(4.376802,4.4211693)" />
    <linearGradient
       xlink:href="#b-2"
       id="linearGradient4428-5-5"
       gradientUnits="userSpaceOnUse"
       x1="31.586"
       y1="36.345001"
       x2="1.2029999"
       y2="6.723"
       gradientTransform="translate(4.376802,4.4211693)" />
    <linearGradient
       inkscape:collect="always"
       xlink:href="#linearGradient11"
       id="linearGradient13"
       x1="-43.819283"
       y1="23.120178"
       x2="-1.9547797"
       y2="23.120178"
       gradientUnits="userSpaceOnUse"
       gradientTransform="scale(0.26457813)" />
    <linearGradient
       id="linearGradient11"
       inkscape:collect="always">
      <stop
         style="stop-color:#9955ff;stop-opacity:0.65640396;"
         offset="0"
         id="stop4-3" />
      <stop
         style="stop-color:#00ccff;stop-opacity:1"
         offset="1"
         id="stop11" />
    </linearGradient>
    <linearGradient
       inkscape:collect="always"
       xlink:href="#linearGradient14"
       id="linearGradient15"
       x1="-9.6850061"
       y1="45.161198"
       x2="11.98815"
       y2="21.735205"
       gradientUnits="userSpaceOnUse"
       gradientTransform="scale(0.26457813)" />
    <linearGradient
       id="linearGradient14"
       inkscape:collect="always">
      <stop
         style="stop-color:#9955ff;stop-opacity:0.45197046;"
         offset="0"
         id="stop12" />
      <stop
         style="stop-color:#00ccff;stop-opacity:1"
         offset="1"
         id="stop13" />
    </linearGradient>
    <filter
       id="filter2917-3"
       x="-0.96181147"
       y="-0.66745996"
       width="2.9236229"
       height="2.3349199"
       color-interpolation-filters="sRGB">
      <feGaussianBlur
         stdDeviation="0.2871969"
         id="feGaussianBlur732-5" />
    </filter>
    <filter
       id="filter1"
       x="-0.96181148"
       y="-0.66745996"
       width="2.9236228"
       height="2.3349199"
       color-interpolation-filters="sRGB">
      <feGaussianBlur
         stdDeviation="0.2871969"
         id="feGaussianBlur1" />
    </filter>
    <filter
       id="filter2"
       x="-0.96181148"
       y="-0.66745996"
       width="2.9236228"
       height="2.3349199"
       color-interpolation-filters="sRGB">
      <feGaussianBlur
         stdDeviation="0.2871969"
         id="feGaussianBlur2" />
    </filter>
    <linearGradient
       id="paint0_linear_41_179"
       x1="23.746078"
       y1="14.465105"
       x2="11.473581"
       y2="33.905251"
       gradientUnits="userSpaceOnUse"
       gradientTransform="matrix(0.95454532,0,0,0.94465669,-10.454545,-9.33503)">
      <stop
         stop-color="#DC18FC"
         id="stop2"
         style="stop-color:#00ccff;stop-opacity:1" />
      <stop
         offset="1"
         stop-color="#8E1EFF"
         id="stop3" />
    </linearGradient>
    <linearGradient
       id="paint1_linear_41_179"
       x1="18.5"
       y1="4"
       x2="18.5"
       y2="20"
       gradientUnits="userSpaceOnUse"
       gradientTransform="translate(-11.232969,-11.084938)">
      <stop
         stop-color="#DC18FC"
         id="stop4" />
      <stop
         offset="1"
         stop-color="#8E1EFF"
         id="stop5" />
    </linearGradient>
  </defs>
  <sodipodi:namedview
     id="namedview14"
     pagecolor="#000000"
     bordercolor="#666666"
     borderopacity="1.0"
     inkscape:showpageshadow="2"
     inkscape:pageopacity="0.0"
     inkscape:pagecheckerboard="0"
     inkscape:deskcolor="#d1d1d1"
     showgrid="false"
     inkscape:zoom="5.2149125"
     inkscape:cx="23.20269"
     inkscape:cy="53.692176"
     inkscape:window-width="1920"
     inkscape:window-height="996"
     inkscape:window-x="0"
     inkscape:window-y="0"
     inkscape:window-maximized="1"
     inkscape:current-layer="svg12">
    <inkscape:grid
       type="xygrid"
       id="grid244"
       originx="9.7893915"
       originy="-31.749373"
       spacingy="1"
       spacingx="1"
       units="px"
       visible="false" />
  </sodipodi:namedview>
  <rect
     x="-12.025727"
     y="0.1490714"
     width="11.940627"
     height="11.936014"
     rx="1.6121091"
     stroke="url(#paint4_linear_77:23)"
     shape-rendering="crispEdges"
     id="rect5-6-7-3"
     ry="1.7735944"
     transform="matrix(0.00523883,-0.99998628,0.999988,0.00489859,0,0)"
     style="fill:#80b3ff;fill-opacity:0.15;stroke:url(#linearGradient13);stroke-width:0.188987;stroke-opacity:1" />
  <rect
     x="-3.7266586"
     y="4.6446943"
     width="7.912631"
     height="7.912384"
     rx="1.612043"
     shape-rendering="crispEdges"
     id="rect5-6-6-6-6"
     style="fill:#80b3ff;fill-opacity:0.122146;stroke:url(#linearGradient15);stroke-width:0.188987;stroke-opacity:1"
     ry="1.7735215"
     transform="matrix(0.72612649,-0.68756114,0.6879775,0.72573202,0,0)" />
  <path
     style="opacity:0.2;stroke-width:0.0717432"
     d="M 4.0206483,5.0010986 V 7.2837252 H 4.353729 V 6.2565433 H 5.2419427 V 5.9141437 H 4.353729 V 5.3434962 H 5.2419427 V 5.0010986 H 4.353729 Z m 1.4433481,0 v 0.3423976 h 0.4441078 v 1.940229 h 0.3330803 v -1.940229 h 0.444107 V 5.0010986 Z m 1.4433486,0 V 7.2837252 H 7.240426 V 6.2565433 H 8.1286398 V 5.0010986 H 7.240426 Z M 7.240426,5.3434962 H 7.7955592 V 5.9141437 H 7.240426 Z"
     id="path1-6" />
  <path
     style="fill:#ffffff;stroke-width:0.0717432"
     d="M 4.0206483,4.8869637 V 5.2293634 5.8000198 6.1424075 7.1695883 H 4.353729 V 6.1424075 H 5.2419427 V 5.8000198 H 4.353729 V 5.2293634 H 5.2419427 V 4.8869637 H 4.353729 Z m 1.4433481,0 V 5.2293634 H 5.9081042 V 7.1695883 H 6.2411845 V 5.2293634 h 0.444107 V 4.8869637 Z m 1.4433486,0 V 5.2293634 5.8000198 6.1424075 7.1695883 H 7.240426 V 6.1424075 H 7.7955592 8.1286398 V 5.8000198 5.2293634 4.8869637 H 7.7955592 7.240426 Z M 7.240426,5.2293634 H 7.7955592 V 5.8000198 H 7.240426 Z"
     id="path2-7" />
  <path
     style="opacity:0.2;stroke-width:0.0717432"
     d="M 7.7060011,3.289068 A 0.2379308,0.23492695 0 0 0 7.4624788,3.524017 V 3.8597234 H 3.5518206 c -0.1708581,0 -0.3083599,0.1526865 -0.3083599,0.3423917 0,0.1896893 0.1375045,0.3423945 0.3083599,0.3423945 H 7.4624788 V 4.8802201 A 0.2379308,0.23492695 0 0 0 7.8194136,5.0837337 L 8.414014,4.7446867 9.0088307,4.4056376 a 0.2379308,0.23492695 0 0 0 0,-0.4070421 L 8.414014,3.6595474 7.8194136,3.3204974 A 0.2379308,0.23492695 0 0 0 7.7060064,3.2890829 Z M 4.3322606,7.1695289 A 0.2379308,0.23492695 0 0 0 4.2188524,7.200884 L 3.6242509,7.5399767 3.0294336,7.8790296 a 0.2379308,0.23492695 0 0 0 0,0.4070293 L 3.6242509,8.6251129 4.2188513,8.964161 A 0.2379308,0.23492695 0 0 0 4.5757849,8.7606512 V 8.4249439 h 3.9106584 c 0.1708587,0 0.3083602,-0.1526866 0.3083602,-0.3423927 0,-0.1896853 -0.1375045,-0.3423927 -0.3083602,-0.3423927 H 4.5757827 V 7.404463 A 0.2379308,0.23492695 0 0 0 4.3322608,7.1695209 Z"
     id="path3" />
  <rect
     style="fill:#c83771;stroke-width:0.0717432"
     width="5.5513396"
     height="0.68478656"
     x="3.2434597"
     y="3.7456613"
     rx="0.19687104"
     ry="0.21788554"
     id="rect3" />
  <path
     style="fill:#c83771;stroke-width:0.0717432"
     d="M 7.7059622,3.1750649 A 0.2379308,0.23492695 0 0 0 7.4624788,3.4099684 v 1.3562 a 0.2379308,0.23492695 0 0 0 0.3568607,0.203475 L 8.4141066,4.6305945 9.0088742,4.2915404 a 0.2379308,0.23492695 0 0 0 0,-0.406949 L 8.4141066,3.5455434 7.8193395,3.2064884 A 0.2379308,0.23492695 0 0 0 7.7059578,3.1751095 Z"
     id="path4" />
  <rect
     style="fill:#3f92f7;stroke-width:0.0717432"
     width="5.5513396"
     height="0.68478656"
     x="-8.7947979"
     y="7.6261163"
     rx="0.19687104"
     ry="0.21788554"
     transform="scale(-1,1)"
     id="rect4" />
  <path
     style="fill:#3f92f7;stroke-width:0.0717432"
     d="M 4.3322998,7.0555209 A 0.2379308,0.23492695 0 0 1 4.5757826,7.2904263 V 8.6466304 A 0.2379308,0.23492695 0 0 1 4.2189221,8.8501034 L 3.6241548,8.5110563 3.0293867,8.1719984 a 0.2379308,0.23492695 0 0 1 0,-0.406946 L 3.6241548,7.4260003 4.2189221,7.0869493 a 0.2379308,0.23492695 0 0 1 0.1133816,-0.031356 z"
     id="path5" />
  <path
     style="opacity:0.2;fill:#ffffff;stroke-width:0.0717432"
     d="M 7.7060011,3.1750025 A 0.2379308,0.23492695 0 0 0 7.4624788,3.4099564 v 0.1142013 a 0.2379308,0.23492695 0 0 1 0.2435223,-0.234947 0.2379308,0.23492695 0 0 1 0.113407,0.031394 l 0.5946006,0.339055 0.5948161,0.3390549 A 0.2379308,0.23492695 0 0 1 9.1207117,4.1456442 0.2379308,0.23492695 0 0 0 9.0088248,3.8846142 L 8.414013,3.5454889 7.8194124,3.2064448 A 0.2379308,0.23492695 0 0 0 7.7060053,3.1750401 Z M 3.5518206,3.7456599 c -0.1708581,0 -0.3083599,0.1526886 -0.3083599,0.3423867 0,0.019662 0.00231,0.038411 0.00516,0.057111 C 3.2730118,3.9829154 3.3984934,3.8598288 3.5517726,3.8598288 H 7.4624165 V 3.7456243 Z m 0.78044,3.3097986 A 0.2379308,0.23492695 0 0 0 4.2188524,7.0869028 L 3.6242499,7.4259527 3.0294325,7.7649988 A 0.2379308,0.23492695 0 0 0 2.9175432,8.0249189 0.2379308,0.23492695 0 0 1 3.0294325,7.8791584 L 3.6242503,7.5401015 4.218851,7.2010504 A 0.2379308,0.23492695 0 0 1 4.332259,7.1696854 0.2379308,0.23492695 0 0 1 4.5757811,7.4046353 V 7.2904422 A 0.2379308,0.23492695 0 0 0 4.3322602,7.0554763 Z m 0.243522,0.5706554 v 0.1142042 h 3.9106585 c 0.1532777,0 0.2787593,0.1231162 0.3031556,0.2853292 0.00297,-0.01864 0.00514,-0.03746 0.00514,-0.057111 0,-0.1896912 -0.1375025,-0.3423936 -0.3083589,-0.3423936 z"
     id="path6" />
</svg>
