<?xml version="1.0" encoding="UTF-8" standalone="no"?>
<svg
   width="45.999886"
   height="45.999989"
   version="1.1"
   viewBox="0 0 12.170564 12.170591"
   id="svg12"
   sodipodi:docname="io.neovim.nvim.svg"
   inkscape:version="1.3.2 (091e20ef0f, 2023-11-25)"
   xmlns:inkscape="http://www.inkscape.org/namespaces/inkscape"
   xmlns:sodipodi="http://sodipodi.sourceforge.net/DTD/sodipodi-0.dtd"
   xmlns:xlink="http://www.w3.org/1999/xlink"
   xmlns="http://www.w3.org/2000/svg"
   xmlns:svg="http://www.w3.org/2000/svg">
  <defs
     id="defs16">
    <linearGradient
       id="c"
       y1="523.79999"
       x1="403.57001"
       y2="536.79999"
       x2="416.57001"
       gradientUnits="userSpaceOnUse"
       gradientTransform="matrix(0.34526714,0,0,0.34526706,-134.80427,-174.63325)">
      <stop
         stop-color="#292c2f"
         id="stop1568" />
      <stop
         offset="1"
         stop-opacity="0"
         id="stop1570" />
    </linearGradient>
    <linearGradient
       xlink:href="#b-2"
       id="linearGradient4189"
       x1="14.369"
       y1="22.521999"
       x2="26.521999"
       y2="22.521999"
       gradientUnits="userSpaceOnUse" />
    <linearGradient
       x1="36"
       gradientUnits="userSpaceOnUse"
       x2="14"
       y2="12"
       y1="44"
       id="b-2">
      <stop
         style="stop-color:#bfc9c9;stop-opacity:1"
         stop-color="#536161"
         id="stop1579" />
      <stop
         style="stop-color:#fbfbfb;stop-opacity:1"
         stop-color="#f4f5f5"
         offset="1"
         id="stop1581" />
    </linearGradient>
    <linearGradient
       xlink:href="#b-2"
       id="linearGradient4428"
       gradientUnits="userSpaceOnUse"
       x1="31.586"
       y1="36.345001"
       x2="1.2029999"
       y2="6.723" />
    <linearGradient
       xlink:href="#b-2"
       id="linearGradient4189-3"
       x1="14.369"
       y1="22.521999"
       x2="26.521999"
       y2="22.521999"
       gradientUnits="userSpaceOnUse"
       gradientTransform="translate(20.841982,61.553822)" />
    <linearGradient
       xlink:href="#b-2"
       id="linearGradient4428-5"
       gradientUnits="userSpaceOnUse"
       x1="31.586"
       y1="36.345001"
       x2="1.2029999"
       y2="6.723"
       gradientTransform="translate(20.841982,61.553822)" />
    <linearGradient
       xlink:href="#b-2"
       id="linearGradient4189-3-3"
       x1="14.369"
       y1="22.521999"
       x2="26.521999"
       y2="22.521999"
       gradientUnits="userSpaceOnUse"
       gradientTransform="translate(4.376802,4.4211693)" />
    <linearGradient
       xlink:href="#b-2"
       id="linearGradient4428-5-5"
       gradientUnits="userSpaceOnUse"
       x1="31.586"
       y1="36.345001"
       x2="1.2029999"
       y2="6.723"
       gradientTransform="translate(4.376802,4.4211693)" />
    <linearGradient
       inkscape:collect="always"
       xlink:href="#linearGradient11"
       id="linearGradient13"
       x1="-43.819283"
       y1="23.120178"
       x2="-1.9547797"
       y2="23.120178"
       gradientUnits="userSpaceOnUse"
       gradientTransform="scale(0.26457813)" />
    <linearGradient
       id="linearGradient11"
       inkscape:collect="always">
      <stop
         style="stop-color:#9955ff;stop-opacity:0.65640396;"
         offset="0"
         id="stop4-3" />
      <stop
         style="stop-color:#00ccff;stop-opacity:1"
         offset="1"
         id="stop11" />
    </linearGradient>
    <linearGradient
       inkscape:collect="always"
       xlink:href="#linearGradient14"
       id="linearGradient15"
       x1="-9.6850061"
       y1="45.161198"
       x2="11.98815"
       y2="21.735205"
       gradientUnits="userSpaceOnUse"
       gradientTransform="scale(0.26457813)" />
    <linearGradient
       id="linearGradient14"
       inkscape:collect="always">
      <stop
         style="stop-color:#9955ff;stop-opacity:0.45197046;"
         offset="0"
         id="stop12" />
      <stop
         style="stop-color:#00ccff;stop-opacity:1"
         offset="1"
         id="stop13" />
    </linearGradient>
    <filter
       id="filter2917-3"
       x="-0.96181147"
       y="-0.66745996"
       width="2.9236229"
       height="2.3349199"
       color-interpolation-filters="sRGB">
      <feGaussianBlur
         stdDeviation="0.2871969"
         id="feGaussianBlur732-5" />
    </filter>
    <filter
       id="filter1"
       x="-0.96181148"
       y="-0.66745996"
       width="2.9236228"
       height="2.3349199"
       color-interpolation-filters="sRGB">
      <feGaussianBlur
         stdDeviation="0.2871969"
         id="feGaussianBlur1" />
    </filter>
    <filter
       id="filter2"
       x="-0.96181148"
       y="-0.66745996"
       width="2.9236228"
       height="2.3349199"
       color-interpolation-filters="sRGB">
      <feGaussianBlur
         stdDeviation="0.2871969"
         id="feGaussianBlur2" />
    </filter>
    <linearGradient
       id="_lgradient_0"
       x1="0.2"
       y1="0.83749998"
       x2="1.0904868"
       y2="0.023340708"
       gradientTransform="matrix(1.0144598,0,0,4.0578392,5.4838612,5.379268)"
       gradientUnits="userSpaceOnUse">
      <stop
         offset="0"
         stop-opacity="1"
         style="stop-color:#8e79ff;stop-opacity:1;"
         id="stop1" />
      <stop
         offset="51.73913043478261%"
         stop-opacity="1"
         style="stop-color:rgb(32,189,255)"
         id="stop2-9" />
      <stop
         offset="98.26086956521739%"
         stop-opacity="1"
         style="stop-color:rgb(165,254,203)"
         id="stop3" />
    </linearGradient>
    <linearGradient
       id="_lgradient_1"
       x1="0"
       y1="0.5"
       x2="1"
       y2="0.5"
       gradientTransform="matrix(3.4549974,0,0,4.0578392,5.6807958,5.379268)"
       gradientUnits="userSpaceOnUse">
      <stop
         offset="0%"
         stop-opacity="1"
         style="stop-color:rgb(67,233,123)"
         id="stop4-5" />
      <stop
         offset="97.82608695652173%"
         stop-opacity="1"
         style="stop-color:rgb(56,249,215)"
         id="stop5" />
    </linearGradient>
    <linearGradient
       id="_lgradient_2"
       x1="0.071553186"
       y1="0.74391294"
       x2="0.99873358"
       y2="0.49568295"
       gradientTransform="matrix(7.4081961,0,0,7.4081961,3.6057291,3.7040889)"
       gradientUnits="userSpaceOnUse">
      <stop
         offset="0"
         stop-opacity="1"
         style="stop-color:#9480ff;stop-opacity:1;"
         id="stop6" />
      <stop
         offset="51.73913043478261%"
         stop-opacity="1"
         style="stop-color:rgb(32,189,255)"
         id="stop7" />
      <stop
         offset="98.26086956521739%"
         stop-opacity="1"
         style="stop-color:rgb(165,254,203)"
         id="stop8" />
    </linearGradient>
  </defs>
  <sodipodi:namedview
     id="namedview14"
     pagecolor="#000000"
     bordercolor="#666666"
     borderopacity="1.0"
     inkscape:showpageshadow="2"
     inkscape:pageopacity="0.0"
     inkscape:pagecheckerboard="0"
     inkscape:deskcolor="#d1d1d1"
     showgrid="false"
     inkscape:zoom="5.2149125"
     inkscape:cx="23.20269"
     inkscape:cy="53.692176"
     inkscape:window-width="1920"
     inkscape:window-height="996"
     inkscape:window-x="0"
     inkscape:window-y="0"
     inkscape:window-maximized="1"
     inkscape:current-layer="svg12">
    <inkscape:grid
       type="xygrid"
       id="grid244"
       originx="9.7893915"
       originy="-31.749373"
       spacingy="1"
       spacingx="1"
       units="px"
       visible="false" />
  </sodipodi:namedview>
  <rect
     x="-12.025727"
     y="0.1490714"
     width="11.940627"
     height="11.936014"
     rx="1.6121091"
     stroke="url(#paint4_linear_77:23)"
     shape-rendering="crispEdges"
     id="rect5-6-7-3"
     ry="1.7735944"
     transform="matrix(0.00523883,-0.99998628,0.999988,0.00489859,0,0)"
     style="fill:#80b3ff;fill-opacity:0.15;stroke:url(#linearGradient13);stroke-width:0.188987;stroke-opacity:1" />
  <rect
     x="-3.7266586"
     y="4.6446943"
     width="7.912631"
     height="7.912384"
     rx="1.612043"
     shape-rendering="crispEdges"
     id="rect5-6-6-6-6"
     style="fill:#80b3ff;fill-opacity:0.122146;stroke:url(#linearGradient15);stroke-width:0.188987;stroke-opacity:1"
     ry="1.7735215"
     transform="matrix(0.72612649,-0.68756114,0.6879775,0.72573202,0,0)" />
  <path
     d="M 4.4939715,4.9813379 5.3632437,4.3726749 V 7.850823 L 4.4937068,7.2421598 Z"
     fill="url(#_lgradient_0)"
     id="path3"
     style="isolation:isolate;fill:url(#_lgradient_0);stroke-width:0.154338" />
  <path
     d="M 6.754397,6.3596588 V 4.3726749 l 0.8695376,0.608663 V 7.2421598 L 6.754397,7.850823 4.662508,4.8633355 5.3632437,4.3726749 Z"
     fill-rule="evenodd"
     fill="url(#_lgradient_1)"
     id="path5"
     style="isolation:isolate;fill:url(#_lgradient_1);stroke-width:0.154338" />
  <path
     d="m 7.3666319,8.3842136 v 0 c 0.1321564,-0.075537 0.3014872,-0.02977 0.3778176,0.1019941 v 0 c 0.076333,0.1317605 0.030959,0.3008262 -0.1013337,0.3770243 v 0 C 7.128908,9.1592951 6.5424702,9.3050782 5.9506084,9.2848383 5.4139107,9.2665804 4.8901776,9.1119357 4.428621,8.8365102 v 0 C 4.2979191,8.7581944 4.2554541,8.5883352 4.3337699,8.4576339 v 0 C 4.4122165,8.3269325 4.5819433,8.2844668 4.7127782,8.3627821 v 0 C 5.0931097,8.5912453 5.5251655,8.7178461 5.9693937,8.7330598 6.4592601,8.7497226 6.9425123,8.6294773 7.3666319,8.3842136 Z M 8.4066894,4.9417831 v 0 C 8.3381633,4.8052604 8.3933302,4.6391052 8.5298506,4.570976 v 0 c 0.1365222,-0.068121 0.3022808,-0.0127 0.3701453,0.1238231 v 0 C 9.1365288,5.1669386 9.2499008,5.6915981 9.2319092,6.2199612 9.2181508,6.6227813 9.1287237,7.0188559 8.9669338,7.3863555 v 0 c -0.061117,0.1396971 -0.22423,0.2034604 -0.3639273,0.14221 v 0 C 8.4633092,7.4674488 8.3995461,7.3043359 8.4607957,7.1646391 v 0 C 8.5954656,6.8611669 8.6687542,6.5336188 8.6799988,6.201176 8.6949454,5.7651511 8.6006254,5.332433 8.4066894,4.9417831 Z M 4.9225887,3.7484021 v 0 c -0.1371841,0.065485 -0.3022809,0.0073 -0.3685585,-0.1299077 v 0 c -0.066144,-0.137184 -0.0086,-0.3024141 0.1285864,-0.368559 v 0 C 5.1445699,3.0280871 5.653751,2.9211979 6.1670335,2.9386595 c 0.493835,0.0168 0.9784107,0.1480311 1.4121873,0.385226 v 0 c 0.1340084,0.073152 0.1833523,0.241296 0.1101963,0.3753051 v 0 c -0.073156,0.133876 -0.241295,0.18322 -0.3753038,0.110064 v 0 C 6.9561386,3.6133351 6.5564927,3.5044605 6.1482483,3.4904379 5.7246578,3.4760205 5.3045073,3.5639899 4.9225887,3.7484021 Z M 3.5704601,6.9439808 v 0 c 0.04855,0.1441943 -0.029498,0.3006931 -0.1740929,0.3491107 v 0 C 3.251776,7.3415091 3.0950131,7.2630624 3.0465946,7.1182053 v 0 C 2.9276667,6.7591717 2.8728989,6.3816196 2.8857317,6.003536 2.9027948,5.504144 3.0368059,5.0142774 3.2796893,4.5764 v 0 C 3.3528453,4.443185 3.5205871,4.395031 3.6541991,4.4689819 v 0 c 0.133612,0.073958 0.1820306,0.2420883 0.1080812,0.3753035 v 0 C 3.5621266,5.2062284 3.4516644,5.609844 3.43751,6.0223211 3.4269257,6.3355822 3.4715094,6.6464621 3.5704601,6.9439808 Z M 8.4352637,4.105716 C 8.4299817,4.258112 8.3021806,4.3774365 8.1499161,4.3722774 7.9976509,4.3671271 7.8781941,4.2391946 7.8833535,4.0869309 7.8885242,3.9346651 8.0164362,3.8152074 8.1687008,3.8205 8.3209661,3.82566 8.4404226,3.9534499 8.4352637,4.105716 Z M 4.1223705,7.9324454 C 4.1172165,8.0847101 3.9894206,8.2041672 3.8371553,8.199008 3.6847583,8.1936964 3.5654341,8.0659246 3.5705931,7.9136604 3.5757715,7.7613949 3.7036756,7.6419379 3.8559403,7.647097 4.0082053,7.652257 4.1276631,7.7801806 4.1223705,7.9324454 Z M 8.542021,8.0831225 C 8.547181,7.9308579 8.4277232,7.8030666 8.2754584,7.7977751 8.1231932,7.7926322 7.9954023,7.9120727 7.9901103,8.0643379 c -0.00516,0.152265 0.1142984,0.2801883 0.266563,0.2853474 0.152265,0.00514 0.2801883,-0.1142976 0.2853477,-0.2665628 z M 4.321202,3.965489 C 4.3263604,3.8132231 4.2070361,3.6852995 4.054771,3.6801405 3.9023744,3.6750001 3.7745822,3.7944384 3.7694231,3.9467034 3.7641131,4.098968 3.8835888,4.2267594 4.0358541,4.232052 4.1882506,4.237182 4.3160424,4.1177533 4.321202,3.965489 Z"
     fill-rule="evenodd"
     fill="url(#_lgradient_2)"
     id="path8"
     style="isolation:isolate;fill:url(#_lgradient_2);stroke-width:0.154338" />
</svg>
