<?xml version="1.0" encoding="UTF-8" standalone="no"?>
<svg
   width="45.999886"
   height="45.999989"
   version="1.1"
   viewBox="0 0 12.170564 12.170591"
   id="svg12"
   sodipodi:docname="lokalize.svg"
   inkscape:version="1.3.2 (091e20ef0f, 2023-11-25)"
   xmlns:inkscape="http://www.inkscape.org/namespaces/inkscape"
   xmlns:sodipodi="http://sodipodi.sourceforge.net/DTD/sodipodi-0.dtd"
   xmlns:xlink="http://www.w3.org/1999/xlink"
   xmlns="http://www.w3.org/2000/svg"
   xmlns:svg="http://www.w3.org/2000/svg">
  <defs
     id="defs16">
    <linearGradient
       id="c"
       y1="523.79999"
       x1="403.57001"
       y2="536.79999"
       x2="416.57001"
       gradientUnits="userSpaceOnUse"
       gradientTransform="matrix(0.34526714,0,0,0.34526706,-134.80427,-174.63325)">
      <stop
         stop-color="#292c2f"
         id="stop1568" />
      <stop
         offset="1"
         stop-opacity="0"
         id="stop1570" />
    </linearGradient>
    <linearGradient
       xlink:href="#b-2"
       id="linearGradient4189"
       x1="14.369"
       y1="22.521999"
       x2="26.521999"
       y2="22.521999"
       gradientUnits="userSpaceOnUse" />
    <linearGradient
       x1="36"
       gradientUnits="userSpaceOnUse"
       x2="14"
       y2="12"
       y1="44"
       id="b-2">
      <stop
         style="stop-color:#bfc9c9;stop-opacity:1"
         stop-color="#536161"
         id="stop1579" />
      <stop
         style="stop-color:#fbfbfb;stop-opacity:1"
         stop-color="#f4f5f5"
         offset="1"
         id="stop1581" />
    </linearGradient>
    <linearGradient
       xlink:href="#b-2"
       id="linearGradient4428"
       gradientUnits="userSpaceOnUse"
       x1="31.586"
       y1="36.345001"
       x2="1.2029999"
       y2="6.723" />
    <linearGradient
       xlink:href="#b-2"
       id="linearGradient4189-3"
       x1="14.369"
       y1="22.521999"
       x2="26.521999"
       y2="22.521999"
       gradientUnits="userSpaceOnUse"
       gradientTransform="translate(20.841982,61.553822)" />
    <linearGradient
       xlink:href="#b-2"
       id="linearGradient4428-5"
       gradientUnits="userSpaceOnUse"
       x1="31.586"
       y1="36.345001"
       x2="1.2029999"
       y2="6.723"
       gradientTransform="translate(20.841982,61.553822)" />
    <linearGradient
       xlink:href="#b-2"
       id="linearGradient4189-3-3"
       x1="14.369"
       y1="22.521999"
       x2="26.521999"
       y2="22.521999"
       gradientUnits="userSpaceOnUse"
       gradientTransform="translate(4.376802,4.4211693)" />
    <linearGradient
       xlink:href="#b-2"
       id="linearGradient4428-5-5"
       gradientUnits="userSpaceOnUse"
       x1="31.586"
       y1="36.345001"
       x2="1.2029999"
       y2="6.723"
       gradientTransform="translate(4.376802,4.4211693)" />
    <linearGradient
       inkscape:collect="always"
       xlink:href="#linearGradient11"
       id="linearGradient13"
       x1="-43.819283"
       y1="23.120178"
       x2="-1.9547797"
       y2="23.120178"
       gradientUnits="userSpaceOnUse"
       gradientTransform="scale(0.26457813)" />
    <linearGradient
       id="linearGradient11"
       inkscape:collect="always">
      <stop
         style="stop-color:#9955ff;stop-opacity:0.65640396;"
         offset="0"
         id="stop4-3" />
      <stop
         style="stop-color:#00ccff;stop-opacity:1"
         offset="1"
         id="stop11" />
    </linearGradient>
    <linearGradient
       inkscape:collect="always"
       xlink:href="#linearGradient14"
       id="linearGradient15"
       x1="-9.6850061"
       y1="45.161198"
       x2="11.98815"
       y2="21.735205"
       gradientUnits="userSpaceOnUse"
       gradientTransform="scale(0.26457813)" />
    <linearGradient
       id="linearGradient14"
       inkscape:collect="always">
      <stop
         style="stop-color:#9955ff;stop-opacity:0.45197046;"
         offset="0"
         id="stop12" />
      <stop
         style="stop-color:#00ccff;stop-opacity:1"
         offset="1"
         id="stop13" />
    </linearGradient>
    <filter
       id="filter2917-3"
       x="-0.96181147"
       y="-0.66745996"
       width="2.9236229"
       height="2.3349199"
       color-interpolation-filters="sRGB">
      <feGaussianBlur
         stdDeviation="0.2871969"
         id="feGaussianBlur732-5" />
    </filter>
    <filter
       id="filter1"
       x="-0.96181148"
       y="-0.66745996"
       width="2.9236228"
       height="2.3349199"
       color-interpolation-filters="sRGB">
      <feGaussianBlur
         stdDeviation="0.2871969"
         id="feGaussianBlur1" />
    </filter>
    <filter
       id="filter2"
       x="-0.96181148"
       y="-0.66745996"
       width="2.9236228"
       height="2.3349199"
       color-interpolation-filters="sRGB">
      <feGaussianBlur
         stdDeviation="0.2871969"
         id="feGaussianBlur2" />
    </filter>
    <linearGradient
       id="paint0_linear_41_179"
       x1="23.746078"
       y1="14.465105"
       x2="11.473581"
       y2="33.905251"
       gradientUnits="userSpaceOnUse"
       gradientTransform="matrix(0.95454532,0,0,0.94465669,-10.454545,-9.33503)">
      <stop
         stop-color="#DC18FC"
         id="stop2"
         style="stop-color:#00ccff;stop-opacity:1" />
      <stop
         offset="1"
         stop-color="#8E1EFF"
         id="stop3" />
    </linearGradient>
    <linearGradient
       id="paint1_linear_41_179"
       x1="18.5"
       y1="4"
       x2="18.5"
       y2="20"
       gradientUnits="userSpaceOnUse"
       gradientTransform="translate(-11.232969,-11.084938)">
      <stop
         stop-color="#DC18FC"
         id="stop4" />
      <stop
         offset="1"
         stop-color="#8E1EFF"
         id="stop5" />
    </linearGradient>
    <linearGradient
       id="c-3"
       y1="529.79999"
       x1="400.57001"
       y2="548.79999"
       gradientUnits="userSpaceOnUse"
       x2="418.57001"
       gradientTransform="translate(11,-6)">
      <stop
         id="stop1846" />
      <stop
         offset="1"
         stop-opacity="0"
         id="stop1848" />
    </linearGradient>
  </defs>
  <sodipodi:namedview
     id="namedview14"
     pagecolor="#000000"
     bordercolor="#666666"
     borderopacity="1.0"
     inkscape:showpageshadow="2"
     inkscape:pageopacity="0.0"
     inkscape:pagecheckerboard="0"
     inkscape:deskcolor="#d1d1d1"
     showgrid="false"
     inkscape:zoom="5.2149125"
     inkscape:cx="23.20269"
     inkscape:cy="53.692176"
     inkscape:window-width="1920"
     inkscape:window-height="996"
     inkscape:window-x="0"
     inkscape:window-y="0"
     inkscape:window-maximized="1"
     inkscape:current-layer="svg12">
    <inkscape:grid
       type="xygrid"
       id="grid244"
       originx="9.7893915"
       originy="-31.749373"
       spacingy="1"
       spacingx="1"
       units="px"
       visible="false" />
  </sodipodi:namedview>
  <rect
     x="-12.025727"
     y="0.1490714"
     width="11.940627"
     height="11.936014"
     rx="1.6121091"
     stroke="url(#paint4_linear_77:23)"
     shape-rendering="crispEdges"
     id="rect5-6-7-3"
     ry="1.7735944"
     transform="matrix(0.00523883,-0.99998628,0.999988,0.00489859,0,0)"
     style="fill:#80b3ff;fill-opacity:0.15;stroke:url(#linearGradient13);stroke-width:0.188987;stroke-opacity:1" />
  <rect
     x="-3.7266586"
     y="4.6446943"
     width="7.912631"
     height="7.912384"
     rx="1.612043"
     shape-rendering="crispEdges"
     id="rect5-6-6-6-6"
     style="fill:#80b3ff;fill-opacity:0.122146;stroke:url(#linearGradient15);stroke-width:0.188987;stroke-opacity:1"
     ry="1.7735215"
     transform="matrix(0.72612649,-0.68756114,0.6879775,0.72573202,0,0)" />
  <path
     fill="#555753"
     d="M 4.6753708,3.1749376 V 3.5165308 H 3.3072266 v 0.3415943 h 2.0949708 v 0.085401 c 0,0.077196 -0.048231,0.2623459 -0.1022665,0.3904433 C 5.240417,4.4753823 5.1097582,4.667705 4.9832058,4.8002388 L 4.8781997,4.9095511 4.8026104,4.8275647 C 4.6993126,4.7148423 4.5453956,4.4825584 4.4879383,4.3524089 L 4.4397069,4.2451496 H 4.0275538 l 0.042753,0.1035051 c 0.080037,0.1940246 0.2561837,0.4604651 0.4254909,0.6432167 0.150498,0.1625989 0.155289,0.1298098 -0.038647,0.2736191 -0.29107,0.2158876 -0.5157862,0.3470566 -0.7716285,0.4509028 l -0.1381859,0.056026 0.2418183,0.26405 0.092353,-0.046121 C 4.1667613,5.8479022 4.4975125,5.6381658 4.7324923,5.4513135 L 4.864173,5.3471296 4.9643912,5.4284356 c 0.047883,0.038589 0.1231346,0.094278 0.1816239,0.1366365 0.0089,0.00649 0.020172,0.015697 0.028041,0.02151 0.055063,0.038943 0.08072,0.057047 0.094058,0.060807 0.1929079,0.1318575 0.3981326,0.2616618 0.5944596,0.3597007 L 5.9593755,6.0552538 6.0855851,5.9165664 6.2124824,5.7785615 6.0674592,5.7198068 C 5.8341918,5.6248383 5.6183659,5.4970824 5.3666296,5.3187721 5.3454124,5.3013486 5.3180578,5.2798307 5.2592311,5.2381539 5.1812433,5.1828183 5.1176246,5.1319208 5.1176246,5.1247445 c 0,-0.0072 0.044471,-0.061822 0.099534,-0.1212644 C 5.5137031,4.681699 5.6925902,4.3537708 5.7421823,4.0422368 l 0.024618,-0.183438 H 6.3848564 V 3.5172077 H 5.0167217 V 3.1756161 Z"
     id="path1885-9-9"
     style="fill:#80b3ff;fill-opacity:1;stroke-width:0.40463" />
  <path
     fill="#555753"
     d="M 7.2763601,6.0697584 6.683487,7.6779497 H 7.8679994 Z M 7.025088,5.6318336 H 7.5296841 L 8.783994,8.9162831 H 8.3212757 L 8.0231988,8.085946 6.5381439,8.0873794 6.2384235,8.9156677 H 5.769139 Z"
     id="path1889-6-6"
     style="fill:#80b3ff;fill-opacity:1;stroke-width:0.485744" />
</svg>
