<?xml version="1.0" encoding="UTF-8" standalone="no"?>
<svg
   width="45.999886"
   height="45.999989"
   version="1.1"
   viewBox="0 0 12.170564 12.170591"
   id="svg12"
   sodipodi:docname="luabackend.svg"
   inkscape:version="1.3.2 (091e20ef0f, 2023-11-25)"
   xmlns:inkscape="http://www.inkscape.org/namespaces/inkscape"
   xmlns:sodipodi="http://sodipodi.sourceforge.net/DTD/sodipodi-0.dtd"
   xmlns:xlink="http://www.w3.org/1999/xlink"
   xmlns="http://www.w3.org/2000/svg"
   xmlns:svg="http://www.w3.org/2000/svg">
  <defs
     id="defs16">
    <linearGradient
       id="c"
       y1="523.79999"
       x1="403.57001"
       y2="536.79999"
       x2="416.57001"
       gradientUnits="userSpaceOnUse"
       gradientTransform="matrix(0.34526714,0,0,0.34526706,-134.80427,-174.63325)">
      <stop
         stop-color="#292c2f"
         id="stop1568" />
      <stop
         offset="1"
         stop-opacity="0"
         id="stop1570" />
    </linearGradient>
    <linearGradient
       xlink:href="#b-2"
       id="linearGradient4189"
       x1="14.369"
       y1="22.521999"
       x2="26.521999"
       y2="22.521999"
       gradientUnits="userSpaceOnUse" />
    <linearGradient
       x1="36"
       gradientUnits="userSpaceOnUse"
       x2="14"
       y2="12"
       y1="44"
       id="b-2">
      <stop
         style="stop-color:#bfc9c9;stop-opacity:1"
         stop-color="#536161"
         id="stop1579" />
      <stop
         style="stop-color:#fbfbfb;stop-opacity:1"
         stop-color="#f4f5f5"
         offset="1"
         id="stop1581" />
    </linearGradient>
    <linearGradient
       xlink:href="#b-2"
       id="linearGradient4428"
       gradientUnits="userSpaceOnUse"
       x1="31.586"
       y1="36.345001"
       x2="1.2029999"
       y2="6.723" />
    <linearGradient
       xlink:href="#b-2"
       id="linearGradient4189-3"
       x1="14.369"
       y1="22.521999"
       x2="26.521999"
       y2="22.521999"
       gradientUnits="userSpaceOnUse"
       gradientTransform="translate(20.841982,61.553822)" />
    <linearGradient
       xlink:href="#b-2"
       id="linearGradient4428-5"
       gradientUnits="userSpaceOnUse"
       x1="31.586"
       y1="36.345001"
       x2="1.2029999"
       y2="6.723"
       gradientTransform="translate(20.841982,61.553822)" />
    <linearGradient
       xlink:href="#b-2"
       id="linearGradient4189-3-3"
       x1="14.369"
       y1="22.521999"
       x2="26.521999"
       y2="22.521999"
       gradientUnits="userSpaceOnUse"
       gradientTransform="translate(4.376802,4.4211693)" />
    <linearGradient
       xlink:href="#b-2"
       id="linearGradient4428-5-5"
       gradientUnits="userSpaceOnUse"
       x1="31.586"
       y1="36.345001"
       x2="1.2029999"
       y2="6.723"
       gradientTransform="translate(4.376802,4.4211693)" />
    <linearGradient
       inkscape:collect="always"
       xlink:href="#linearGradient11"
       id="linearGradient13"
       x1="-43.819283"
       y1="23.120178"
       x2="-1.9547797"
       y2="23.120178"
       gradientUnits="userSpaceOnUse"
       gradientTransform="scale(0.26457813)" />
    <linearGradient
       id="linearGradient11"
       inkscape:collect="always">
      <stop
         style="stop-color:#9955ff;stop-opacity:0.65640396;"
         offset="0"
         id="stop4-3" />
      <stop
         style="stop-color:#00ccff;stop-opacity:1"
         offset="1"
         id="stop11" />
    </linearGradient>
    <linearGradient
       inkscape:collect="always"
       xlink:href="#linearGradient14"
       id="linearGradient15"
       x1="-9.6850061"
       y1="45.161198"
       x2="11.98815"
       y2="21.735205"
       gradientUnits="userSpaceOnUse"
       gradientTransform="scale(0.26457813)" />
    <linearGradient
       id="linearGradient14"
       inkscape:collect="always">
      <stop
         style="stop-color:#9955ff;stop-opacity:0.45197046;"
         offset="0"
         id="stop12" />
      <stop
         style="stop-color:#00ccff;stop-opacity:1"
         offset="1"
         id="stop13" />
    </linearGradient>
    <filter
       id="filter2917-3"
       x="-0.96181147"
       y="-0.66745996"
       width="2.9236229"
       height="2.3349199"
       color-interpolation-filters="sRGB">
      <feGaussianBlur
         stdDeviation="0.2871969"
         id="feGaussianBlur732-5" />
    </filter>
    <filter
       id="filter1"
       x="-0.96181148"
       y="-0.66745996"
       width="2.9236228"
       height="2.3349199"
       color-interpolation-filters="sRGB">
      <feGaussianBlur
         stdDeviation="0.2871969"
         id="feGaussianBlur1" />
    </filter>
    <filter
       id="filter2"
       x="-0.96181148"
       y="-0.66745996"
       width="2.9236228"
       height="2.3349199"
       color-interpolation-filters="sRGB">
      <feGaussianBlur
         stdDeviation="0.2871969"
         id="feGaussianBlur2" />
    </filter>
    <linearGradient
       id="paint0_linear_41_156"
       x1="19.6236"
       y1="2.9365201"
       x2="19.6236"
       y2="21.062599"
       gradientUnits="userSpaceOnUse"
       gradientTransform="scale(0.26457819)">
      <stop
         stop-color="#00FFE0"
         id="stop2" />
      <stop
         offset="1"
         stop-color="#078AA7"
         id="stop3" />
    </linearGradient>
    <linearGradient
       id="paint1_linear_41_156"
       x1="9.0495195"
       y1="1"
       x2="9.0495195"
       y2="23"
       gradientUnits="userSpaceOnUse"
       gradientTransform="scale(0.26457819)">
      <stop
         stop-color="#00FFE0"
         id="stop4" />
      <stop
         offset="1"
         stop-color="#078AA7"
         id="stop5" />
    </linearGradient>
    <linearGradient
       id="b"
       gradientUnits="userSpaceOnUse"
       x1="19"
       x2="37"
       y1="1021.362"
       y2="1039.3621"
       gradientTransform="matrix(0.26457813,0,0,0.26457813,0,-265.73222)">
      <stop
         offset="0"
         stop-color="#292c2f"
         id="stop7-3" />
      <stop
         offset="1"
         stop-opacity="0"
         id="stop9" />
    </linearGradient>
    <linearGradient
       x2="0"
       gradientUnits="userSpaceOnUse"
       y2="4"
       y1="44"
       id="b-6">
      <stop
         id="stop856"
         stop-color="#0d4687" />
      <stop
         id="stop858"
         stop-color="#0b60c2"
         offset=".051" />
      <stop
         id="stop860"
         stop-color="#1b88f4"
         offset=".275" />
      <stop
         id="stop862"
         stop-color="#1b90f4"
         offset=".725" />
      <stop
         id="stop864"
         stop-color="#0d6ad6"
         offset=".962" />
      <stop
         id="stop866"
         stop-color="#115fbc"
         offset="1" />
    </linearGradient>
  </defs>
  <sodipodi:namedview
     id="namedview14"
     pagecolor="#000000"
     bordercolor="#666666"
     borderopacity="1.0"
     inkscape:showpageshadow="2"
     inkscape:pageopacity="0.0"
     inkscape:pagecheckerboard="0"
     inkscape:deskcolor="#d1d1d1"
     showgrid="false"
     inkscape:zoom="5.2149125"
     inkscape:cx="23.20269"
     inkscape:cy="69.032798"
     inkscape:window-width="1920"
     inkscape:window-height="996"
     inkscape:window-x="0"
     inkscape:window-y="0"
     inkscape:window-maximized="1"
     inkscape:current-layer="svg12">
    <inkscape:grid
       type="xygrid"
       id="grid244"
       originx="9.7893915"
       originy="-31.749373"
       spacingy="1"
       spacingx="1"
       units="px"
       visible="false" />
  </sodipodi:namedview>
  <rect
     x="-12.025727"
     y="0.1490714"
     width="11.940627"
     height="11.936014"
     rx="1.6121091"
     stroke="url(#paint4_linear_77:23)"
     shape-rendering="crispEdges"
     id="rect5-6-7-3"
     ry="1.7735944"
     transform="matrix(0.00523883,-0.99998628,0.999988,0.00489859,0,0)"
     style="fill:#80b3ff;fill-opacity:0.15;stroke:url(#linearGradient13);stroke-width:0.188987;stroke-opacity:1" />
  <rect
     x="-3.7266586"
     y="4.6446943"
     width="7.912631"
     height="7.912384"
     rx="1.612043"
     shape-rendering="crispEdges"
     id="rect5-6-6-6-6"
     style="fill:#80b3ff;fill-opacity:0.122146;stroke:url(#linearGradient15);stroke-width:0.188987;stroke-opacity:1"
     ry="1.7735215"
     transform="matrix(0.72612649,-0.68756114,0.6879775,0.72573202,0,0)" />
  <path
     inkscape:connector-curvature="0"
     style="fill:#464646;fill-opacity:0.01;stroke-width:0.264578"
     d="m 6.1117546,3.4527448 c 1.5269797,0 2.7648409,1.2378618 2.7648409,2.7648405 0,1.5269805 -1.2378612,2.764842 -2.7648409,2.764842 -1.5269795,0 -2.7648409,-1.2378615 -2.7648409,-2.764842 0,-1.5269787 1.2378614,-2.7648405 2.7648409,-2.7648405 z"
     id="circle12-2-6"
     sodipodi:nodetypes="sssss" />
  <path
     style="fill:#80b3ff;fill-opacity:0.769406;stroke-width:0.264578"
     d="M 6.1117546,3.3072267 A 2.910359,2.9103591 0 0 0 3.2013954,6.2175853 2.910359,2.9103591 0 0 0 6.1117546,9.1279456 2.910359,2.9103591 0 0 0 9.0221141,6.2175853 2.910359,2.9103591 0 0 0 6.1117546,3.3072267 Z m 0,0.1455181 A 2.7648411,2.7648412 0 0 1 8.8765955,6.2175853 2.7648411,2.7648412 0 0 1 6.1117546,8.9824273 2.7648411,2.7648412 0 0 1 3.3469137,6.2175853 2.7648411,2.7648412 0 0 1 6.1117546,3.4527448 Z"
     id="circle12-2" />
  <path
     style="fill:#2a7fff;fill-opacity:1;stroke-width:0.273701"
     d="m 8.2433652,3.4530285 a 0.65483079,0.65483082 0 0 0 -0.065369,0.00112 0.65483079,0.65483082 0 0 0 -0.6104934,0.6826789 0.65483079,0.65483082 0 0 0 0.6687571,0.6252719 0.65483079,0.65483082 0 0 0 0.6403358,-0.6545461 l -0.00251,-0.058269 A 0.65483079,0.65483082 0 0 0 8.2433652,3.4530285 Z M 6.1839449,4.0359535 A 2.1827694,2.1827695 0 0 0 5.9656683,4.0396915 2.1827694,2.1827695 0 0 0 3.9312592,6.315115 2.1827694,2.1827695 0 0 0 6.1603554,8.3998302 2.1827694,2.1827695 0 0 0 8.294524,6.2176285 L 8.2857135,6.022944 A 2.1827694,2.1827695 0 0 0 6.1839449,4.0359535 Z m 0.749759,0.726737 a 0.65483079,0.65483082 0 0 1 0.6306724,0.5962824 l 0.00252,0.05827 A 0.65483079,0.65483082 0 0 1 6.9265859,6.0717877 0.65483079,0.65483082 0 0 1 6.2578286,5.4465148 0.65483079,0.65483082 0 0 1 6.8683218,4.7638317 a 0.65483079,0.65483082 0 0 1 0.065367,-0.00106 z"
     id="path969" />
</svg>
