<?xml version="1.0" encoding="UTF-8" standalone="no"?>
<svg
   width="45.999886"
   height="45.999989"
   version="1.1"
   viewBox="0 0 12.170564 12.170591"
   id="svg12"
   sodipodi:docname="mathematica.svg"
   inkscape:version="1.3.2 (091e20ef0f, 2023-11-25)"
   xmlns:inkscape="http://www.inkscape.org/namespaces/inkscape"
   xmlns:sodipodi="http://sodipodi.sourceforge.net/DTD/sodipodi-0.dtd"
   xmlns:xlink="http://www.w3.org/1999/xlink"
   xmlns="http://www.w3.org/2000/svg"
   xmlns:svg="http://www.w3.org/2000/svg">
  <defs
     id="defs16">
    <linearGradient
       id="c"
       y1="523.79999"
       x1="403.57001"
       y2="536.79999"
       x2="416.57001"
       gradientUnits="userSpaceOnUse"
       gradientTransform="matrix(0.34526714,0,0,0.34526706,-134.80427,-174.63325)">
      <stop
         stop-color="#292c2f"
         id="stop1568" />
      <stop
         offset="1"
         stop-opacity="0"
         id="stop1570" />
    </linearGradient>
    <linearGradient
       xlink:href="#b-2"
       id="linearGradient4189"
       x1="14.369"
       y1="22.521999"
       x2="26.521999"
       y2="22.521999"
       gradientUnits="userSpaceOnUse" />
    <linearGradient
       x1="36"
       gradientUnits="userSpaceOnUse"
       x2="14"
       y2="12"
       y1="44"
       id="b-2">
      <stop
         style="stop-color:#bfc9c9;stop-opacity:1"
         stop-color="#536161"
         id="stop1579" />
      <stop
         style="stop-color:#fbfbfb;stop-opacity:1"
         stop-color="#f4f5f5"
         offset="1"
         id="stop1581" />
    </linearGradient>
    <linearGradient
       xlink:href="#b-2"
       id="linearGradient4428"
       gradientUnits="userSpaceOnUse"
       x1="31.586"
       y1="36.345001"
       x2="1.2029999"
       y2="6.723" />
    <linearGradient
       xlink:href="#b-2"
       id="linearGradient4189-3"
       x1="14.369"
       y1="22.521999"
       x2="26.521999"
       y2="22.521999"
       gradientUnits="userSpaceOnUse"
       gradientTransform="translate(20.841982,61.553822)" />
    <linearGradient
       xlink:href="#b-2"
       id="linearGradient4428-5"
       gradientUnits="userSpaceOnUse"
       x1="31.586"
       y1="36.345001"
       x2="1.2029999"
       y2="6.723"
       gradientTransform="translate(20.841982,61.553822)" />
    <linearGradient
       xlink:href="#b-2"
       id="linearGradient4189-3-3"
       x1="14.369"
       y1="22.521999"
       x2="26.521999"
       y2="22.521999"
       gradientUnits="userSpaceOnUse"
       gradientTransform="translate(4.376802,4.4211693)" />
    <linearGradient
       xlink:href="#b-2"
       id="linearGradient4428-5-5"
       gradientUnits="userSpaceOnUse"
       x1="31.586"
       y1="36.345001"
       x2="1.2029999"
       y2="6.723"
       gradientTransform="translate(4.376802,4.4211693)" />
    <linearGradient
       inkscape:collect="always"
       xlink:href="#linearGradient11"
       id="linearGradient13"
       x1="-43.819283"
       y1="23.120178"
       x2="-1.9547797"
       y2="23.120178"
       gradientUnits="userSpaceOnUse"
       gradientTransform="scale(0.26457813)" />
    <linearGradient
       id="linearGradient11"
       inkscape:collect="always">
      <stop
         style="stop-color:#d15a89;stop-opacity:0.88546801;"
         offset="0"
         id="stop4-3" />
      <stop
         style="stop-color:#c83771;stop-opacity:1"
         offset="1"
         id="stop11" />
    </linearGradient>
    <linearGradient
       inkscape:collect="always"
       xlink:href="#linearGradient14"
       id="linearGradient15"
       x1="-9.6850061"
       y1="45.161198"
       x2="11.98815"
       y2="21.735205"
       gradientUnits="userSpaceOnUse"
       gradientTransform="scale(0.26457813)" />
    <linearGradient
       id="linearGradient14"
       inkscape:collect="always">
      <stop
         style="stop-color:#a02c5a;stop-opacity:1"
         offset="0"
         id="stop12" />
      <stop
         style="stop-color:#c83771;stop-opacity:1"
         offset="1"
         id="stop13" />
    </linearGradient>
    <linearGradient
       id="linearGradient4801">
      <stop
         style="stop-color:#000000;stop-opacity:1;"
         offset="0"
         id="stop176-3" />
      <stop
         style="stop-color:#000000;stop-opacity:0;"
         offset="1"
         id="stop178" />
    </linearGradient>
  </defs>
  <sodipodi:namedview
     id="namedview14"
     pagecolor="#000000"
     bordercolor="#666666"
     borderopacity="1.0"
     inkscape:showpageshadow="2"
     inkscape:pageopacity="0.0"
     inkscape:pagecheckerboard="0"
     inkscape:deskcolor="#d1d1d1"
     showgrid="false"
     inkscape:zoom="5.2149125"
     inkscape:cx="23.20269"
     inkscape:cy="53.692176"
     inkscape:window-width="1920"
     inkscape:window-height="996"
     inkscape:window-x="0"
     inkscape:window-y="0"
     inkscape:window-maximized="1"
     inkscape:current-layer="svg12">
    <inkscape:grid
       type="xygrid"
       id="grid244"
       originx="9.7893915"
       originy="-31.749373"
       spacingy="1"
       spacingx="1"
       units="px"
       visible="false" />
  </sodipodi:namedview>
  <rect
     x="-12.025727"
     y="0.1490714"
     width="11.940627"
     height="11.936014"
     rx="1.6121091"
     stroke="url(#paint4_linear_77:23)"
     shape-rendering="crispEdges"
     id="rect5-6-7-3"
     ry="1.7735944"
     transform="matrix(0.00523883,-0.99998628,0.999988,0.00489859,0,0)"
     style="fill:#de87aa;fill-opacity:0.15;stroke:url(#linearGradient13);stroke-width:0.188987;stroke-opacity:1" />
  <rect
     x="-3.7266586"
     y="4.6446943"
     width="7.912631"
     height="7.912384"
     rx="1.612043"
     shape-rendering="crispEdges"
     id="rect5-6-6-6-6"
     style="fill:#de87aa;fill-opacity:0.122146;stroke:url(#linearGradient15);stroke-width:0.188987;stroke-opacity:1"
     ry="1.7735215"
     transform="matrix(0.72612649,-0.68756114,0.6879775,0.72573202,0,0)" />
  <path
     style="opacity:0.2;fill-rule:evenodd;stroke-width:0.264578"
     d="m 6.0263918,3.0219224 a 0.18229303,0.17826108 0 0 0 -0.1650086,0.08819 L 5.3155083,4.0240764 4.324389,3.5986024 a 0.18229303,0.17826108 0 0 0 -0.2546035,0.18097 l 0.107751,1.053271 -1.0575735,0.225473 a 0.18229303,0.17826108 0 0 0 -0.09725,0.292779 l 0.7202584,0.7902 -0.7201398,0.790316 a 0.18229303,0.17826108 0 0 0 0.097308,0.292721 l 1.0576331,0.225241 -0.1075136,1.053271 a 0.18229303,0.17826108 0 0 0 0.2546624,0.180912 l 0.9910599,-0.425648 0.5461125,0.913844 a 0.18229303,0.17826108 0 0 0 0.3147682,-5.9e-5 l 0.5459356,-0.913961 0.9910598,0.425417 A 0.18229303,0.17826108 0 0 0 7.9685198,8.5023784 L 7.8607682,7.4492234 8.9183423,7.2236924 a 0.18229303,0.17826108 0 0 0 0.09725,-0.292779 l -0.7202589,-0.79014 0.7201397,-0.790375 a 0.18229303,0.17826108 0 0 0 -0.097307,-0.29272 L 7.8604727,4.8324374 7.9679862,3.7791664 A 0.18229303,0.17826108 0 0 0 7.7133238,3.5982544 L 6.722323,4.0239604 6.1761511,3.1100574 a 0.18229303,0.17826108 0 0 0 -0.1497593,-0.08814 z"
     id="path1" />
  <path
     style="fill:#d6342a;fill-rule:evenodd;stroke-width:0.264578"
     d="M 6.0263918,2.9105214 A 0.18229303,0.17826108 0 0 0 5.8613832,2.9987144 L 5.3155083,3.9126754 4.324389,3.4872004 a 0.18229303,0.17826108 0 0 0 -0.2546035,0.180971 l 0.107751,1.053271 -1.0575735,0.225473 a 0.18229303,0.17826108 0 0 0 -0.09725,0.292779 l 0.7202584,0.7902 -0.7201398,0.790316 a 0.18229303,0.17826108 0 0 0 0.097308,0.29272 l 1.0576333,0.225242 -0.1075136,1.053271 a 0.18229303,0.17826108 0 0 0 0.2546624,0.180912 l 0.9910599,-0.425649 0.5461125,0.913845 a 0.18229303,0.17826108 0 0 0 0.3147682,-5.9e-5 l 0.5459344,-0.913961 0.9910598,0.425416 a 0.18229303,0.17826108 0 0 0 0.2546629,-0.18097 L 7.8607687,7.3378224 8.9183428,7.1122914 a 0.18229303,0.17826108 0 0 0 0.09725,-0.292779 l -0.7202593,-0.79014 0.7201397,-0.790375 a 0.18229303,0.17826108 0 0 0 -0.097307,-0.29272 L 7.8604727,4.7210364 7.9679862,3.6677654 A 0.18229303,0.17826108 0 0 0 7.7133238,3.4868524 L 6.722323,3.9125594 6.1761511,2.9986564 a 0.18229303,0.17826108 0 0 0 -0.1497593,-0.08813 z"
     id="path2" />
  <path
     style="opacity:0.2;fill-rule:evenodd;stroke-width:0.264578"
     d="m 4.6259268,4.3585814 c 0,0 0.2589864,0.825495 0.1008053,1.354657 -0.1581813,0.52916 -0.9613921,1.12489 -0.9613921,1.12489 0,0 1.0499987,0.05664 1.4486913,0.30853 0.3986923,0.251893 0.8042414,1.222367 0.8042414,1.222367 0,0 0.5385073,-1.069299 0.7637432,-1.222367 0.2252357,-0.153068 1.4909503,-0.309835 1.4909503,-0.309835 0,0 -0.9254226,-0.861179 -1.0040915,-1.101392 -0.078668,-0.240215 0.1439447,-1.376414 0.1439447,-1.376414 0,0 -0.8328791,0.55657 -1.4178772,0.55657 -0.5849981,0 -1.3690152,-0.557006 -1.3690154,-0.557006 z m 2.3427327,0.622498 c -0.019436,0.139747 -0.038566,0.28337 -0.047762,0.414926 -0.010783,0.154248 -0.031701,0.264896 0.026413,0.442341 0.061258,0.187054 0.1468208,0.261515 0.2533339,0.386206 0.1053516,0.123331 0.2309627,0.255828 0.3534789,0.380548 -0.176571,0.0299 -0.3613355,0.06453 -0.5242757,0.103786 -0.1632173,0.03933 -0.2834008,0.05635 -0.4393181,0.162315 -0.155908,0.105953 -0.2139837,0.211838 -0.3041767,0.345518 -0.087349,0.129466 -0.1753773,0.277924 -0.2570755,0.421235 C 5.8750917,7.3599074 5.6980035,7.0558814 5.3960526,6.8651084 5.1349055,6.7001164 4.8242406,6.6394544 4.5317241,6.5935684 4.7399102,6.3802464 4.954489,6.1305324 5.0509375,5.8078854 c 0.082982,-0.2776 0.069717,-0.553177 0.040278,-0.805701 0.2644052,0.126743 0.5670154,0.247607 0.9037262,0.247607 0.3587338,0 0.6897892,-0.13397 0.9737178,-0.268712 z"
     id="path3" />
  <path
     style="fill:#ffffff;fill-rule:evenodd;stroke-width:0.264578"
     d="m 4.6259268,4.2471804 c 0,0 0.2589864,0.825495 0.1008053,1.354656 -0.1581813,0.529161 -0.9613921,1.124891 -0.9613921,1.124891 0,0 1.0499987,0.05664 1.4486913,0.30853 0.3986923,0.251893 0.8042414,1.222367 0.8042414,1.222367 0,0 0.5385073,-1.069299 0.7637432,-1.222367 0.2252357,-0.153068 1.4909503,-0.309835 1.4909503,-0.309835 0,0 -0.9254226,-0.861179 -1.0040915,-1.101393 -0.078668,-0.240214 0.1439447,-1.376414 0.1439447,-1.376414 0,0 -0.8328791,0.556571 -1.4178772,0.556571 -0.5849981,0 -1.3690152,-0.557006 -1.3690154,-0.557006 z m 2.3427327,0.622498 c -0.019436,0.139747 -0.038566,0.28337 -0.047762,0.414926 -0.010783,0.154248 -0.031701,0.264896 0.026413,0.442341 0.061258,0.187054 0.1468208,0.261515 0.2533339,0.386205 0.1053516,0.123332 0.2309627,0.255828 0.3534789,0.380549 -0.176571,0.0299 -0.3613355,0.06453 -0.5242757,0.103785 -0.1632173,0.03933 -0.2834008,0.05636 -0.4393181,0.162316 -0.155908,0.105953 -0.2139837,0.211838 -0.3041767,0.345518 -0.087349,0.129466 -0.1753773,0.277924 -0.2570755,0.421235 C 5.8750917,7.2485064 5.6980035,6.9444794 5.3960526,6.7537074 5.1349055,6.5887154 4.8242406,6.5280534 4.5317241,6.4821674 4.7399102,6.2688454 4.954489,6.0191304 5.0509375,5.6964844 c 0.082982,-0.2776 0.069717,-0.553177 0.040278,-0.805701 0.2644052,0.126742 0.5670154,0.247607 0.9037262,0.247607 0.3587338,0 0.6897892,-0.13397 0.9737178,-0.268712 z"
     id="path4" />
  <path
     style="opacity:0.2;fill:#ffffff;fill-rule:evenodd;stroke-width:0.264578"
     d="m 6.008148,2.9105834 a 0.18229303,0.17826108 0 0 0 -0.1468061,0.08812 L 5.3154965,3.9127594 4.3243911,3.4871724 a 0.18229303,0.17826108 0 0 0 -0.2546545,0.181026 l 0.00505,0.04917 a 0.18229303,0.17826108 0 0 1 0.2495922,-0.118799 l 0.9911054,0.425587 0.5458453,-0.914055 a 0.18229303,0.17826108 0 0 1 0.1650743,-0.08812 0.18229303,0.17826108 0 0 1 0.1496672,0.08812 l 0.5462857,0.913837 0.990885,-0.425587 a 0.18229303,0.17826108 0 0 1 0.2495926,0.118581 l 0.00505,-0.04917 a 0.18229303,0.17826108 0 0 0 -0.25463,-0.180808 L 6.7223689,3.9125414 6.1760833,2.9987034 a 0.18229303,0.17826108 0 0 0 -0.1496672,-0.08812 0.18229303,0.17826108 0 0 0 -0.018268,0 z m 1.8635775,1.812881 -0.011228,0.109008 1.0575755,0.225195 A 0.18229303,0.17826108 0 0 1 9.0523333,5.1762494 0.18229303,0.17826108 0 0 0 8.918073,4.9462664 Z m -3.7053654,4.21e-4 -1.0463503,0.22302 a 0.18229303,0.17826108 0 0 0 -0.1342604,0.229983 0.18229303,0.17826108 0 0 1 0.1342604,-0.118581 l 1.0575753,-0.2254 z m 4.1798987,1.361183 -0.050843,0.0557 0.7201635,0.790035 a 0.18229303,0.17826108 0 0 1 0.036976,0.06288 0.18229303,0.17826108 0 0 0 -0.036976,-0.174282 z m -4.6542119,4.21e-4 -0.6693208,0.73477 a 0.18229303,0.17826108 0 0 0 -0.036757,0.174064 0.18229303,0.17826108 0 0 1 0.036757,-0.06266 l 0.7201636,-0.790443 z m 4.179899,1.361402 -0.011224,0.0024 0.1027861,1.003916 a 0.18229303,0.17826108 0 0 0 0.00506,-0.06223 z m -3.7053657,2.22e-4 -0.096403,0.9443 a 0.18229303,0.17826108 0 0 0 0.00505,0.06179 l 0.1025661,-1.003699 z"
     id="path5" />
</svg>
