<?xml version="1.0" encoding="UTF-8" standalone="no"?>
<svg
   width="45.999886"
   height="45.999989"
   version="1.1"
   viewBox="0 0 12.170564 12.170591"
   id="svg12"
   sodipodi:docname="maximabackend.svg"
   inkscape:version="1.3.2 (091e20ef0f, 2023-11-25)"
   xmlns:inkscape="http://www.inkscape.org/namespaces/inkscape"
   xmlns:sodipodi="http://sodipodi.sourceforge.net/DTD/sodipodi-0.dtd"
   xmlns:xlink="http://www.w3.org/1999/xlink"
   xmlns="http://www.w3.org/2000/svg"
   xmlns:svg="http://www.w3.org/2000/svg">
  <defs
     id="defs16">
    <linearGradient
       id="c"
       y1="523.79999"
       x1="403.57001"
       y2="536.79999"
       x2="416.57001"
       gradientUnits="userSpaceOnUse"
       gradientTransform="matrix(0.34526714,0,0,0.34526706,-134.80427,-174.63325)">
      <stop
         stop-color="#292c2f"
         id="stop1568" />
      <stop
         offset="1"
         stop-opacity="0"
         id="stop1570" />
    </linearGradient>
    <linearGradient
       xlink:href="#b-2"
       id="linearGradient4189"
       x1="14.369"
       y1="22.521999"
       x2="26.521999"
       y2="22.521999"
       gradientUnits="userSpaceOnUse" />
    <linearGradient
       x1="36"
       gradientUnits="userSpaceOnUse"
       x2="14"
       y2="12"
       y1="44"
       id="b-2">
      <stop
         style="stop-color:#bfc9c9;stop-opacity:1"
         stop-color="#536161"
         id="stop1579" />
      <stop
         style="stop-color:#fbfbfb;stop-opacity:1"
         stop-color="#f4f5f5"
         offset="1"
         id="stop1581" />
    </linearGradient>
    <linearGradient
       xlink:href="#b-2"
       id="linearGradient4428"
       gradientUnits="userSpaceOnUse"
       x1="31.586"
       y1="36.345001"
       x2="1.2029999"
       y2="6.723" />
    <linearGradient
       xlink:href="#b-2"
       id="linearGradient4189-3"
       x1="14.369"
       y1="22.521999"
       x2="26.521999"
       y2="22.521999"
       gradientUnits="userSpaceOnUse"
       gradientTransform="translate(20.841982,61.553822)" />
    <linearGradient
       xlink:href="#b-2"
       id="linearGradient4428-5"
       gradientUnits="userSpaceOnUse"
       x1="31.586"
       y1="36.345001"
       x2="1.2029999"
       y2="6.723"
       gradientTransform="translate(20.841982,61.553822)" />
    <linearGradient
       xlink:href="#b-2"
       id="linearGradient4189-3-3"
       x1="14.369"
       y1="22.521999"
       x2="26.521999"
       y2="22.521999"
       gradientUnits="userSpaceOnUse"
       gradientTransform="translate(4.376802,4.4211693)" />
    <linearGradient
       xlink:href="#b-2"
       id="linearGradient4428-5-5"
       gradientUnits="userSpaceOnUse"
       x1="31.586"
       y1="36.345001"
       x2="1.2029999"
       y2="6.723"
       gradientTransform="translate(4.376802,4.4211693)" />
    <linearGradient
       inkscape:collect="always"
       xlink:href="#linearGradient11"
       id="linearGradient13"
       x1="-43.819283"
       y1="23.120178"
       x2="-1.9547797"
       y2="23.120178"
       gradientUnits="userSpaceOnUse"
       gradientTransform="scale(0.26457813)" />
    <linearGradient
       id="linearGradient11"
       inkscape:collect="always">
      <stop
         style="stop-color:#d15a89;stop-opacity:0.88546801;"
         offset="0"
         id="stop4-3" />
      <stop
         style="stop-color:#c83771;stop-opacity:1"
         offset="1"
         id="stop11" />
    </linearGradient>
    <linearGradient
       inkscape:collect="always"
       xlink:href="#linearGradient14"
       id="linearGradient15"
       x1="-9.6850061"
       y1="45.161198"
       x2="11.98815"
       y2="21.735205"
       gradientUnits="userSpaceOnUse"
       gradientTransform="scale(0.26457813)" />
    <linearGradient
       id="linearGradient14"
       inkscape:collect="always">
      <stop
         style="stop-color:#a02c5a;stop-opacity:1"
         offset="0"
         id="stop12" />
      <stop
         style="stop-color:#c83771;stop-opacity:1"
         offset="1"
         id="stop13" />
    </linearGradient>
    <linearGradient
       id="linearGradient4801">
      <stop
         style="stop-color:#000000;stop-opacity:1;"
         offset="0"
         id="stop176-3" />
      <stop
         style="stop-color:#000000;stop-opacity:0;"
         offset="1"
         id="stop178" />
    </linearGradient>
    <linearGradient
       inkscape:collect="always"
       xlink:href="#d"
       id="linearGradient1735"
       gradientUnits="userSpaceOnUse"
       gradientTransform="matrix(0.26457812,0,0,0.26457812,1.2311983,1.2067081)"
       x1="39"
       y1="38"
       x2="8"
       y2="9" />
    <linearGradient
       gradientTransform="translate(379.57,499.8)"
       x2="0"
       gradientUnits="userSpaceOnUse"
       y2="14"
       y1="34"
       id="d">
      <stop
         id="stop1056"
         stop-color="#ec0000" />
      <stop
         id="stop1058"
         stop-color="#ff2020"
         offset="1" />
    </linearGradient>
  </defs>
  <sodipodi:namedview
     id="namedview14"
     pagecolor="#000000"
     bordercolor="#666666"
     borderopacity="1.0"
     inkscape:showpageshadow="2"
     inkscape:pageopacity="0.0"
     inkscape:pagecheckerboard="0"
     inkscape:deskcolor="#d1d1d1"
     showgrid="false"
     inkscape:zoom="5.2149125"
     inkscape:cx="23.20269"
     inkscape:cy="53.692176"
     inkscape:window-width="1920"
     inkscape:window-height="996"
     inkscape:window-x="0"
     inkscape:window-y="0"
     inkscape:window-maximized="1"
     inkscape:current-layer="svg12">
    <inkscape:grid
       type="xygrid"
       id="grid244"
       originx="9.7893915"
       originy="-31.749373"
       spacingy="1"
       spacingx="1"
       units="px"
       visible="false" />
  </sodipodi:namedview>
  <rect
     x="-12.025727"
     y="0.1490714"
     width="11.940627"
     height="11.936014"
     rx="1.6121091"
     stroke="url(#paint4_linear_77:23)"
     shape-rendering="crispEdges"
     id="rect5-6-7-3"
     ry="1.7735944"
     transform="matrix(0.00523883,-0.99998628,0.999988,0.00489859,0,0)"
     style="fill:#de87aa;fill-opacity:0.15;stroke:url(#linearGradient13);stroke-width:0.188987;stroke-opacity:1" />
  <rect
     x="-3.7266586"
     y="4.6446943"
     width="7.912631"
     height="7.912384"
     rx="1.612043"
     shape-rendering="crispEdges"
     id="rect5-6-6-6-6"
     style="fill:#de87aa;fill-opacity:0.122146;stroke:url(#linearGradient15);stroke-width:0.188987;stroke-opacity:1"
     ry="1.7735215"
     transform="matrix(0.72612649,-0.68756114,0.6879775,0.72573202,0,0)" />
  <path
     style="fill:#d6d6d6;fill-opacity:1;stroke-width:0.0718547"
     d="m 4.3515955,2.9103745 c -0.2928197,0 -0.5857913,0.2314114 -0.6313415,0.4949184 -0.039039,0.237799 0.071579,0.3789733 0.3708986,0.4689532 -0.1821979,0.1542423 -0.2993,0.3471637 -0.338342,0.5592561 C 3.7137686,4.677725 3.7852626,4.883464 3.9934872,5.1148359 3.7397106,5.2819339 3.6162273,5.3785106 3.4795776,5.5070487 3.1997724,5.7769816 2.9916774,6.1686964 2.933114,6.5414558 2.842017,7.0491883 3.030611,7.5183106 3.3884999,7.7111235 3.583713,7.8139563 3.8244415,7.8525848 4.2213736,7.8525848 c 0.1171289,0 0.2604797,-0.00601 0.5728203,-0.01896 0.2537769,-0.012855 0.42273,0.1733376 0.3836879,0.4239962 -0.039036,0.2442178 -0.2471804,0.4243811 -0.4879425,0.4243811 -0.032532,0 -0.1561865,-0.013079 -0.279821,-0.038775 -0.149663,-0.019301 -0.2018787,-0.025569 -0.2604426,-0.025569 -0.1626775,0 -0.2925502,0.109064 -0.3185772,0.2697416 -0.039035,0.2185157 0.1559166,0.3728355 0.4747652,0.3728355 0.3058334,0 0.5598008,-0.1286443 0.8200848,-0.4050032 C 5.3536957,8.6109986 5.5033113,8.315275 5.555368,8.0196354 5.564688,7.9678234 5.568632,7.918862 5.570099,7.8711991 H 8.9112805 L 9.2600891,6.7034572 H 9.092274 C 8.8856856,7.2223869 8.6920274,7.3328627 7.9431486,7.3328627 H 6.2192654 L 7.5815513,5.4775899 6.535904,3.7715363 h 1.0909925 c 0.7488786,0 0.9486869,0.1492292 1.0584357,0.7914044 H 8.8535354 L 8.7888099,3.5056744 H 5.59955 L 7.0071817,5.7953988 5.5666082,7.7661582 C 5.5497093,7.5964305 5.4781402,7.4570267 5.3534478,7.3514653 5.223306,7.2357789 5.080424,7.2034149 4.7876046,7.2034149 H 4.2213739 c -0.279804,0 -0.4943648,-0.02572 -0.6049861,-0.077149 C 3.3626105,7.0041612 3.2194816,6.7024028 3.2780456,6.3682003 3.3561302,5.9118868 3.7010092,5.5260177 4.2996619,5.2175238 c 0.1691853,0.064262 0.2990125,0.083711 0.5007324,0.083711 0.5140602,0 0.8461529,-0.1350996 0.8851951,-0.3600507 0.026037,-0.1478196 -0.1303188,-0.2313719 -0.4166301,-0.2313719 -0.2537766,0 -0.5010309,0.070894 -0.9890619,0.2701329 C 4.0326278,4.7807114 3.9675411,4.6519335 4.0000759,4.4462721 4.0326084,4.2470339 4.1887535,4.0541832 4.4620512,3.8742312 4.787407,3.8613661 5.0152238,3.8231364 5.2104367,3.7331576 5.4446931,3.6239012 5.6203359,3.4631858 5.6398578,3.3153594 5.6658899,3.1932494 5.5682032,3.1223573 5.3860031,3.1223573 c -0.240762,0 -0.5334223,0.147958 -1.0084406,0.5142948 C 4.1693359,3.6303929 4.0520287,3.5080437 4.0845653,3.3409445 4.1040869,3.1995473 4.2344672,3.1032976 4.475229,3.0390341 L 4.4946076,2.9231477 C 4.4360427,2.9168949 4.3841327,2.9103595 4.3515965,2.9103595 Z"
     id="use27-6-2" />
  <path
     style="fill:url(#linearGradient1735);fill-opacity:1;stroke-width:0.0804467"
     d="m 3.7152158,4.1009649 -0.011238,3.9686549 h 0.7937297 v -3.373354 l 1.3998803,3.373354 h 0.3751604 l 1.3998796,-3.373354 v 3.373354 H 8.4663575 L 8.4551264,4.1009649 H 7.2757714 L 6.0851761,6.8790275 4.8945802,4.1009649 Z"
     id="use39-0-9" />
  <path
     style="fill:#ffffff;fill-opacity:0.294118;stroke-width:0.0804467"
     d="M 8.2683142,4.1009649 8.2791722,7.871188 H 7.6726318 V 8.0696198 H 8.4663621 L 8.4551301,4.1009649 Z M 4.2992744,4.6962658 4.3105134,7.871188 h -0.606149 l -3.962e-4,0.1984318 h 0.7937302 v -3.373354 z m 3.1749212,0 L 6.0855549,7.871188 H 5.8154233 l 0.08217,0.1984318 H 6.2727488 L 7.6726286,4.6962658 Z M 3.5167829,7.6727569 V 7.871188 l 3.984e-4,-0.1984311 z"
     id="use39-6-6-1" />
</svg>
