<?xml version="1.0" encoding="UTF-8" standalone="no"?>
<svg
   width="45.999886"
   height="45.999989"
   version="1.1"
   viewBox="0 0 12.170564 12.170591"
   id="svg12"
   sodipodi:docname="mendeleydesktop.svg"
   inkscape:version="1.3.2 (091e20ef0f, 2023-11-25)"
   xmlns:inkscape="http://www.inkscape.org/namespaces/inkscape"
   xmlns:sodipodi="http://sodipodi.sourceforge.net/DTD/sodipodi-0.dtd"
   xmlns:xlink="http://www.w3.org/1999/xlink"
   xmlns="http://www.w3.org/2000/svg"
   xmlns:svg="http://www.w3.org/2000/svg">
  <defs
     id="defs16">
    <linearGradient
       id="c"
       y1="523.79999"
       x1="403.57001"
       y2="536.79999"
       x2="416.57001"
       gradientUnits="userSpaceOnUse"
       gradientTransform="matrix(0.34526714,0,0,0.34526706,-134.80427,-174.63325)">
      <stop
         stop-color="#292c2f"
         id="stop1568" />
      <stop
         offset="1"
         stop-opacity="0"
         id="stop1570" />
    </linearGradient>
    <linearGradient
       xlink:href="#b-2"
       id="linearGradient4189"
       x1="14.369"
       y1="22.521999"
       x2="26.521999"
       y2="22.521999"
       gradientUnits="userSpaceOnUse" />
    <linearGradient
       x1="36"
       gradientUnits="userSpaceOnUse"
       x2="14"
       y2="12"
       y1="44"
       id="b-2">
      <stop
         style="stop-color:#bfc9c9;stop-opacity:1"
         stop-color="#536161"
         id="stop1579" />
      <stop
         style="stop-color:#fbfbfb;stop-opacity:1"
         stop-color="#f4f5f5"
         offset="1"
         id="stop1581" />
    </linearGradient>
    <linearGradient
       xlink:href="#b-2"
       id="linearGradient4428"
       gradientUnits="userSpaceOnUse"
       x1="31.586"
       y1="36.345001"
       x2="1.2029999"
       y2="6.723" />
    <linearGradient
       xlink:href="#b-2"
       id="linearGradient4189-3"
       x1="14.369"
       y1="22.521999"
       x2="26.521999"
       y2="22.521999"
       gradientUnits="userSpaceOnUse"
       gradientTransform="translate(20.841982,61.553822)" />
    <linearGradient
       xlink:href="#b-2"
       id="linearGradient4428-5"
       gradientUnits="userSpaceOnUse"
       x1="31.586"
       y1="36.345001"
       x2="1.2029999"
       y2="6.723"
       gradientTransform="translate(20.841982,61.553822)" />
    <linearGradient
       xlink:href="#b-2"
       id="linearGradient4189-3-3"
       x1="14.369"
       y1="22.521999"
       x2="26.521999"
       y2="22.521999"
       gradientUnits="userSpaceOnUse"
       gradientTransform="translate(4.376802,4.4211693)" />
    <linearGradient
       xlink:href="#b-2"
       id="linearGradient4428-5-5"
       gradientUnits="userSpaceOnUse"
       x1="31.586"
       y1="36.345001"
       x2="1.2029999"
       y2="6.723"
       gradientTransform="translate(4.376802,4.4211693)" />
    <linearGradient
       inkscape:collect="always"
       xlink:href="#linearGradient11"
       id="linearGradient13"
       x1="-43.819283"
       y1="23.120178"
       x2="-1.9547797"
       y2="23.120178"
       gradientUnits="userSpaceOnUse"
       gradientTransform="scale(0.26457813)" />
    <linearGradient
       id="linearGradient11"
       inkscape:collect="always">
      <stop
         style="stop-color:#d15a89;stop-opacity:0.88546801;"
         offset="0"
         id="stop4-3" />
      <stop
         style="stop-color:#c83771;stop-opacity:1"
         offset="1"
         id="stop11" />
    </linearGradient>
    <linearGradient
       inkscape:collect="always"
       xlink:href="#linearGradient14"
       id="linearGradient15"
       x1="-9.6850061"
       y1="45.161198"
       x2="11.98815"
       y2="21.735205"
       gradientUnits="userSpaceOnUse"
       gradientTransform="scale(0.26457813)" />
    <linearGradient
       id="linearGradient14"
       inkscape:collect="always">
      <stop
         style="stop-color:#a02c5a;stop-opacity:1"
         offset="0"
         id="stop12" />
      <stop
         style="stop-color:#c83771;stop-opacity:1"
         offset="1"
         id="stop13" />
    </linearGradient>
    <linearGradient
       id="linearGradient4801">
      <stop
         style="stop-color:#000000;stop-opacity:1;"
         offset="0"
         id="stop176-3" />
      <stop
         style="stop-color:#000000;stop-opacity:0;"
         offset="1"
         id="stop178" />
    </linearGradient>
    <linearGradient
       gradientTransform="translate(379.57,499.8)"
       x2="0"
       gradientUnits="userSpaceOnUse"
       y2="14"
       y1="34"
       id="d">
      <stop
         id="stop1056"
         stop-color="#ec0000" />
      <stop
         id="stop1058"
         stop-color="#ff2020"
         offset="1" />
    </linearGradient>
    <linearGradient
       inkscape:collect="always"
       xlink:href="#linearGradient4144"
       id="linearGradient863"
       gradientUnits="userSpaceOnUse"
       gradientTransform="matrix(0.27780715,0,0,0.27780717,0.7324838,0.73804018)"
       x1="14.023"
       y1="8.1289997"
       x2="27.879"
       y2="34.944" />
    <linearGradient
       id="linearGradient4144">
      <stop
         style="stop-color:#ffffff;stop-opacity:1;"
         offset="0"
         id="stop1141" />
      <stop
         style="stop-color:#eea9a9;stop-opacity:1"
         offset="1"
         id="stop1143" />
    </linearGradient>
  </defs>
  <sodipodi:namedview
     id="namedview14"
     pagecolor="#000000"
     bordercolor="#666666"
     borderopacity="1.0"
     inkscape:showpageshadow="2"
     inkscape:pageopacity="0.0"
     inkscape:pagecheckerboard="0"
     inkscape:deskcolor="#d1d1d1"
     showgrid="false"
     inkscape:zoom="5.2149125"
     inkscape:cx="23.20269"
     inkscape:cy="53.692176"
     inkscape:window-width="1920"
     inkscape:window-height="996"
     inkscape:window-x="0"
     inkscape:window-y="0"
     inkscape:window-maximized="1"
     inkscape:current-layer="svg12">
    <inkscape:grid
       type="xygrid"
       id="grid244"
       originx="9.7893915"
       originy="-31.749373"
       spacingy="1"
       spacingx="1"
       units="px"
       visible="false" />
  </sodipodi:namedview>
  <rect
     x="-12.025727"
     y="0.1490714"
     width="11.940627"
     height="11.936014"
     rx="1.6121091"
     stroke="url(#paint4_linear_77:23)"
     shape-rendering="crispEdges"
     id="rect5-6-7-3"
     ry="1.7735944"
     transform="matrix(0.00523883,-0.99998628,0.999988,0.00489859,0,0)"
     style="fill:#de87aa;fill-opacity:0.15;stroke:url(#linearGradient13);stroke-width:0.188987;stroke-opacity:1" />
  <rect
     x="-3.7266586"
     y="4.6446943"
     width="7.912631"
     height="7.912384"
     rx="1.612043"
     shape-rendering="crispEdges"
     id="rect5-6-6-6-6"
     style="fill:#de87aa;fill-opacity:0.122146;stroke:url(#linearGradient15);stroke-width:0.188987;stroke-opacity:1"
     ry="1.7735215"
     transform="matrix(0.72612649,-0.68756114,0.6879775,0.72573202,0,0)" />
  <path
     style="fill:url(#linearGradient863);fill-opacity:1;stroke-width:0.277808"
     d="M 4.2530866,3.4400083 C 3.9709604,3.4488206 3.6984497,3.5765025 3.4897012,3.7699342 3.2775511,3.9665245 3.1254883,4.2366284 3.0946974,4.527026 c -0.015404,0.1452062 -4.119e-4,0.2940353 0.046899,0.4318846 0.047316,0.1378715 0.1273726,0.2645306 0.2336188,0.3626362 0.1253113,0.1156938 0.2819317,0.1886783 0.4258362,0.2791846 0.071958,0.045267 0.1414865,0.095484 0.2010955,0.1565811 0.059602,0.061098 0.1091639,0.1335694 0.1364555,0.2150803 0.024283,0.072527 0.03027,0.1508877 0.019443,0.2266908 -0.010844,0.075832 -0.038419,0.1489947 -0.078585,0.2137901 C 3.9991437,6.5424876 3.8696492,6.6368576 3.7275366,6.6873176 3.5627095,6.7458363 3.3811275,6.7487439 3.2222707,6.8223885 3.0965565,6.8806673 2.9908139,6.9822888 2.9248467,7.1058602 2.8588987,7.2294382 2.8327737,7.3743942 2.8488017,7.5140844 2.8676367,7.6782316 2.9447677,7.8343563 3.060456,7.9502779 3.1761441,8.0661929 3.3292305,8.1416972 3.489684,8.166651 3.7249455,8.2032349 3.976433,8.126552 4.1474556,7.9580207 4.2329669,7.8737562 4.2981948,7.7683775 4.3346055,7.6530325 4.3710204,7.5376705 4.3785437,7.4125956 4.3548824,7.2938391 4.3368105,7.2031651 4.3012242,7.1172326 4.2682757,7.0310199 4.2353295,6.9447712 4.2043992,6.8564893 4.1964572,6.7643247 4.182439,6.6015862 4.243658,6.4360213 4.3498119,6.3135192 4.4559661,6.1910204 4.6042809,6.1104137 4.7608692,6.0747708 c 0.1010301,-0.02299 0.2063658,-0.02815 0.308401,-0.010329 0.1020353,0.017859 0.200798,0.058746 0.2834667,0.1221662 0.082673,0.063438 0.1487555,0.1496455 0.185462,0.2482065 0.036714,0.098559 0.043211,0.2094638 0.013931,0.3105747 -0.029977,0.1035591 -0.094416,0.1923767 -0.1596896,0.2774533 -0.06527,0.085074 -0.1335773,0.1705308 -0.1723666,0.271003 -0.042777,0.1108046 -0.047052,0.2357383 -0.017738,0.3510118 0.029313,0.1152537 0.091242,0.2209753 0.1723651,0.3066986 0.089744,0.094858 0.2033912,0.1659069 0.3269846,0.2047566 0.1235976,0.038874 0.2500171,0.04561 0.3793799,0.04561 0.129358,0 0.2642145,-0.00663 0.3878297,-0.04561 C 6.5924883,8.1174643 6.7061384,8.0464173 6.7958752,7.9515593 6.876993,7.8658173 6.9389319,7.7601068 6.9682397,7.6448609 6.997547,7.529583 6.9932734,7.4046624 6.9505008,7.2938493 6.911713,7.1933742 6.843411,7.1079247 6.7781344,7.022846 6.7128594,6.9377675 6.6484191,6.8489495 6.6184442,6.7453935 6.5891771,6.6442782 6.5956781,6.5333744 6.6323793,6.4348188 6.6690865,6.3362614 6.7351655,6.2500439 6.817842,6.1866122 6.900517,6.1231832 6.9992816,6.0822858 7.1013075,6.0644463 c 0.102034,-0.017831 0.2073704,-0.012681 0.3084021,0.010332 0.156585,0.035632 0.3049016,0.1162412 0.4110574,0.2387485 0.1061534,0.1224999 0.1673785,0.2880821 0.1533539,0.4508054 -0.00802,0.092173 -0.038878,0.1804547 -0.071811,0.2666954 -0.032947,0.086224 -0.068536,0.172155 -0.08661,0.262818 -0.023663,0.1187542 -0.016129,0.2438132 0.020286,0.3591931 0.036412,0.1153395 0.1016412,0.2207133 0.1871527,0.3049868 0.171026,0.1685291 0.42251,0.2452183 0.6577709,0.2086278 C 8.8413493,8.1417002 8.9944502,8.0661929 9.1101378,7.9502779 9.2258239,7.8343624 9.3029594,7.6782354 9.3217917,7.5140844 9.3378228,7.3743842 9.3116876,7.2294443 9.2457472,7.1058602 9.179798,6.9822829 9.0740474,6.8806631 8.9483241,6.8223885 8.7894567,6.748741 8.6078833,6.7458355 8.4430627,6.6873176 8.3009546,6.6368597 8.1714589,6.5424876 8.0911434,6.4128737 8.0509867,6.3480766 8.0234056,6.2749107 8.0125651,6.1990836 8.0017206,6.1232732 8.0077119,6.0449123 8.0319907,5.9723928 8.0592816,5.8908794 8.108839,5.8184065 8.1684463,5.7573125 8.2280537,5.6962139 8.2975795,5.6459925 8.3695401,5.6007314 8.5134613,5.5102332 8.6700753,5.4372494 8.7953768,5.3215468 8.901625,5.2234503 8.9816815,5.0967821 9.028995,4.9589106 9.0763106,4.8210613 9.0912874,4.6722359 9.0758892,4.527026 9.0450854,4.2366284 8.8930334,3.9665336 8.6808852,3.7699342 8.4721378,3.5764934 8.1996266,3.448817 7.9174989,3.4400083 7.7764362,3.435644 7.6343569,3.4607275 7.5043241,3.5165744 7.3742936,3.572429 7.2567269,3.6592003 7.1667744,3.7699342 7.0636522,3.896883 6.9988385,4.0511541 6.9394883,4.2043945 6.8801359,4.3576632 6.8240395,4.5139085 6.7341694,4.6509128 6.5859696,4.8768246 6.3520658,5.0913924 6.0852587,5.0913924 5.8184519,5.0913924 5.5845517,4.8768097 5.4363483,4.6509128 5.3464786,4.5139233 5.2903797,4.357682 5.2310285,4.2043967 5.171677,4.0511515 5.1068636,3.8968764 5.0037405,3.7699362 4.9137907,3.6591969 4.796223,3.5724242 4.666193,3.5165771 4.5361617,3.4607236 4.3940914,3.4356023 4.2530169,3.4400083 Z m 1.832235,2.0918853 A 0.43260006,0.44050085 0 0 1 6.5179222,5.9723726 0.43260006,0.44050085 0 0 1 6.0853216,6.412851 0.43260006,0.44050085 0 0 1 5.6527218,5.9723726 0.43260006,0.44050085 0 0 1 6.0853216,5.5318936 Z"
     id="path1167-9" />
</svg>
