<?xml version="1.0" encoding="UTF-8" standalone="no"?>
<svg
   width="45.999886"
   height="45.999989"
   version="1.1"
   viewBox="0 0 12.170564 12.170591"
   id="svg12"
   sodipodi:docname="net.davidotek.pupgui2.svg"
   inkscape:version="1.3.2 (091e20ef0f, 2023-11-25)"
   xmlns:inkscape="http://www.inkscape.org/namespaces/inkscape"
   xmlns:sodipodi="http://sodipodi.sourceforge.net/DTD/sodipodi-0.dtd"
   xmlns:xlink="http://www.w3.org/1999/xlink"
   xmlns="http://www.w3.org/2000/svg"
   xmlns:svg="http://www.w3.org/2000/svg">
  <defs
     id="defs16">
    <linearGradient
       id="c"
       y1="523.79999"
       x1="403.57001"
       y2="536.79999"
       x2="416.57001"
       gradientUnits="userSpaceOnUse"
       gradientTransform="matrix(0.34526714,0,0,0.34526706,-134.80427,-174.63325)">
      <stop
         stop-color="#292c2f"
         id="stop1568" />
      <stop
         offset="1"
         stop-opacity="0"
         id="stop1570" />
    </linearGradient>
    <linearGradient
       xlink:href="#b-2"
       id="linearGradient4189"
       x1="14.369"
       y1="22.521999"
       x2="26.521999"
       y2="22.521999"
       gradientUnits="userSpaceOnUse" />
    <linearGradient
       x1="36"
       gradientUnits="userSpaceOnUse"
       x2="14"
       y2="12"
       y1="44"
       id="b-2">
      <stop
         style="stop-color:#bfc9c9;stop-opacity:1"
         stop-color="#536161"
         id="stop1579" />
      <stop
         style="stop-color:#fbfbfb;stop-opacity:1"
         stop-color="#f4f5f5"
         offset="1"
         id="stop1581" />
    </linearGradient>
    <linearGradient
       xlink:href="#b-2"
       id="linearGradient4428"
       gradientUnits="userSpaceOnUse"
       x1="31.586"
       y1="36.345001"
       x2="1.2029999"
       y2="6.723" />
    <linearGradient
       xlink:href="#b-2"
       id="linearGradient4189-3"
       x1="14.369"
       y1="22.521999"
       x2="26.521999"
       y2="22.521999"
       gradientUnits="userSpaceOnUse"
       gradientTransform="translate(20.841982,61.553822)" />
    <linearGradient
       xlink:href="#b-2"
       id="linearGradient4428-5"
       gradientUnits="userSpaceOnUse"
       x1="31.586"
       y1="36.345001"
       x2="1.2029999"
       y2="6.723"
       gradientTransform="translate(20.841982,61.553822)" />
    <linearGradient
       xlink:href="#b-2"
       id="linearGradient4189-3-3"
       x1="14.369"
       y1="22.521999"
       x2="26.521999"
       y2="22.521999"
       gradientUnits="userSpaceOnUse"
       gradientTransform="translate(4.376802,4.4211693)" />
    <linearGradient
       xlink:href="#b-2"
       id="linearGradient4428-5-5"
       gradientUnits="userSpaceOnUse"
       x1="31.586"
       y1="36.345001"
       x2="1.2029999"
       y2="6.723"
       gradientTransform="translate(4.376802,4.4211693)" />
    <linearGradient
       inkscape:collect="always"
       xlink:href="#linearGradient11"
       id="linearGradient13"
       x1="-43.819283"
       y1="23.120178"
       x2="-1.9547797"
       y2="23.120178"
       gradientUnits="userSpaceOnUse"
       gradientTransform="scale(0.26457813)" />
    <linearGradient
       id="linearGradient11"
       inkscape:collect="always">
      <stop
         style="stop-color:#9955ff;stop-opacity:0.65640396;"
         offset="0"
         id="stop4-3" />
      <stop
         style="stop-color:#00ccff;stop-opacity:1"
         offset="1"
         id="stop11" />
    </linearGradient>
    <linearGradient
       inkscape:collect="always"
       xlink:href="#linearGradient14"
       id="linearGradient15"
       x1="-9.6850061"
       y1="45.161198"
       x2="11.98815"
       y2="21.735205"
       gradientUnits="userSpaceOnUse"
       gradientTransform="scale(0.26457813)" />
    <linearGradient
       id="linearGradient14"
       inkscape:collect="always">
      <stop
         style="stop-color:#9955ff;stop-opacity:0.45197046;"
         offset="0"
         id="stop12" />
      <stop
         style="stop-color:#00ccff;stop-opacity:1"
         offset="1"
         id="stop13" />
    </linearGradient>
    <filter
       id="filter2917-3"
       x="-0.96181147"
       y="-0.66745996"
       width="2.9236229"
       height="2.3349199"
       color-interpolation-filters="sRGB">
      <feGaussianBlur
         stdDeviation="0.2871969"
         id="feGaussianBlur732-5" />
    </filter>
    <filter
       id="filter1"
       x="-0.96181148"
       y="-0.66745996"
       width="2.9236228"
       height="2.3349199"
       color-interpolation-filters="sRGB">
      <feGaussianBlur
         stdDeviation="0.2871969"
         id="feGaussianBlur1" />
    </filter>
    <filter
       id="filter2"
       x="-0.96181148"
       y="-0.66745996"
       width="2.9236228"
       height="2.3349199"
       color-interpolation-filters="sRGB">
      <feGaussianBlur
         stdDeviation="0.2871969"
         id="feGaussianBlur2" />
    </filter>
    <linearGradient
       id="_lgradient_2-9"
       x1="0.071553186"
       y1="0.74391294"
       x2="0.99873358"
       y2="0.49568295"
       gradientTransform="matrix(7.9373527,0,0,7.9373527,3.4394873,3.439503)"
       gradientUnits="userSpaceOnUse">
      <stop
         offset="0"
         stop-opacity="1"
         style="stop-color:#9581ff;stop-opacity:1;"
         id="stop6-0" />
      <stop
         offset="51.73913043478261%"
         stop-opacity="1"
         style="stop-color:rgb(32,189,255)"
         id="stop7-6" />
      <stop
         offset="98.26086956521739%"
         stop-opacity="1"
         style="stop-color:rgb(165,254,203)"
         id="stop8-8" />
    </linearGradient>
    <linearGradient
       inkscape:collect="always"
       xlink:href="#_lgradient_2"
       id="linearGradient15-3"
       x1="3.7444291"
       y1="7.2238593"
       x2="12.255571"
       y2="7.2238593"
       gradientUnits="userSpaceOnUse"
       gradientTransform="matrix(0.61056486,0,0,0.61056486,2.5236599,2.523669)" />
    <linearGradient
       id="_lgradient_2"
       x1="0.071553186"
       y1="0.74391294"
       x2="0.99873358"
       y2="0.49568295"
       gradientTransform="matrix(28.000032,0,0,28.000032,70.373983,-56.169507)"
       gradientUnits="userSpaceOnUse">
      <stop
         offset="0"
         stop-opacity="1"
         style="stop-color:#9480ff;stop-opacity:1;"
         id="stop6" />
      <stop
         offset="51.73913043478261%"
         stop-opacity="1"
         style="stop-color:rgb(32,189,255)"
         id="stop7" />
      <stop
         offset="98.26086956521739%"
         stop-opacity="1"
         style="stop-color:rgb(165,254,203)"
         id="stop8" />
    </linearGradient>
  </defs>
  <sodipodi:namedview
     id="namedview14"
     pagecolor="#000000"
     bordercolor="#666666"
     borderopacity="1.0"
     inkscape:showpageshadow="2"
     inkscape:pageopacity="0.0"
     inkscape:pagecheckerboard="0"
     inkscape:deskcolor="#d1d1d1"
     showgrid="false"
     inkscape:zoom="5.2149125"
     inkscape:cx="23.20269"
     inkscape:cy="53.692176"
     inkscape:window-width="1920"
     inkscape:window-height="996"
     inkscape:window-x="0"
     inkscape:window-y="0"
     inkscape:window-maximized="1"
     inkscape:current-layer="svg12">
    <inkscape:grid
       type="xygrid"
       id="grid244"
       originx="9.7893915"
       originy="-31.749373"
       spacingy="1"
       spacingx="1"
       units="px"
       visible="false" />
  </sodipodi:namedview>
  <rect
     x="-12.025727"
     y="0.1490714"
     width="11.940627"
     height="11.936014"
     rx="1.6121091"
     stroke="url(#paint4_linear_77:23)"
     shape-rendering="crispEdges"
     id="rect5-6-7-3"
     ry="1.7735944"
     transform="matrix(0.00523883,-0.99998628,0.999988,0.00489859,0,0)"
     style="fill:#80b3ff;fill-opacity:0.15;stroke:url(#linearGradient13);stroke-width:0.188987;stroke-opacity:1" />
  <rect
     x="-3.7266586"
     y="4.6446943"
     width="7.912631"
     height="7.912384"
     rx="1.612043"
     shape-rendering="crispEdges"
     id="rect5-6-6-6-6"
     style="fill:#80b3ff;fill-opacity:0.122146;stroke:url(#linearGradient15);stroke-width:0.188987;stroke-opacity:1"
     ry="1.7735215"
     transform="matrix(0.72612649,-0.68756114,0.6879775,0.72573202,0,0)" />
  <path
     d="m 7.5020693,8.5471259 v 0 c 0.143169,-0.08186 0.3266135,-0.03229 0.4093024,0.110497 v 0 c 0.082694,0.14274 0.033531,0.325885 -0.1097792,0.40844 v 0 C 7.244535,9.3867959 6.6092282,9.5447319 5.9680458,9.5228039 5.3866212,9.5029979 4.8192479,9.3354879 4.3192281,9.0371139 v 0 c -0.1415974,-0.08485 -0.1875997,-0.26886 -0.102758,-0.410448 v 0 c 0.084982,-0.141599 0.2688549,-0.187604 0.4105946,-0.102757 v 0 c 0.4120227,0.247504 0.8800865,0.384651 1.3613294,0.401131 0.5306905,0.01804 1.0542131,-0.112208 1.5136752,-0.377914 z m 1.1267261,-3.729292 v 0 c -0.074231,-0.147899 -0.014457,-0.327912 0.1334265,-0.401714 v 0 c 0.1478992,-0.07382 0.3274727,-0.01374 0.4009918,0.134139 v 0 c 0.2562435,0.511488 0.379064,1.079866 0.359572,1.652259 -0.014904,0.436394 -0.1117841,0.865472 -0.2870573,1.263598 v 0 c -0.066212,0.151337 -0.2429155,0.220413 -0.3942544,0.154056 v 0 C 8.6901363,7.5539609 8.6210558,7.3772539 8.6874113,7.2259129 v 0 C 8.833305,6.8971629 8.9126996,6.5423149 8.9248847,6.1821689 8.9410937,5.7098119 8.8388977,5.2410329 8.6287954,4.8178339 Z M 4.8543599,3.5249909 v 0 c -0.1486154,0.07093 -0.3274701,0.0078 -0.3992709,-0.140724 v 0 C 4.383426,3.2356559 4.445759,3.0566519 4.5943894,2.9849899 v 0 c 0.500449,-0.240333 1.0520619,-0.356133 1.6081177,-0.337212 0.5349865,0.01818 1.0599412,0.16037 1.5298692,0.417326 v 0 c 0.1451757,0.07925 0.1986292,0.261408 0.1193797,0.406574 v 0 c -0.079255,0.145043 -0.2614033,0.198498 -0.4065772,0.119247 v 0 C 7.0573687,3.3786739 6.6244185,3.2607299 6.1821531,3.2455399 5.7232649,3.2299189 5.2681051,3.3252269 4.8543599,3.5249909 Z M 3.38955,6.9868719 v 0 c 0.052603,0.156213 -0.031937,0.325756 -0.1886004,0.378204 v 0 C 3.0443105,7.4175279 2.874486,7.3325309 2.8220297,7.1756239 v 0 C 2.6931924,6.7866689 2.6338608,6.3776539 2.6477642,5.9680619 2.6662966,5.4270509 2.8114281,4.8963679 3.0745511,4.4219939 v 0 c 0.07925,-0.144317 0.2609709,-0.196486 0.4057222,-0.11637 v 0 c 0.1447401,0.08011 0.1971972,0.262268 0.1170841,0.406579 v 0 c -0.2168297,0.392101 -0.3364997,0.829353 -0.3518355,1.276208 -0.011471,0.339365 0.036849,0.676148 0.1440281,0.998461 z m 5.2702007,-3.074781 c -0.00575,0.165096 -0.1441686,0.294357 -0.3091239,0.28877 -0.1649565,-0.0057 -0.2943665,-0.144173 -0.2887787,-0.309121 0.00563,-0.164957 0.1441778,-0.294371 0.3091278,-0.288632 0.1649529,0.0057 0.2943659,0.144025 0.2887748,0.308983 z m -4.6722921,4.145626 c -0.00557,0.164944 -0.1440358,0.294356 -0.3089883,0.288768 -0.1650983,-0.006 -0.2943627,-0.144171 -0.2887757,-0.309129 0.00558,-0.164952 0.144172,-0.294359 0.309128,-0.288774 0.1649572,0.0057 0.2943637,0.144176 0.288636,0.309135 z m 4.7879479,0.163224 c 0.00563,-0.164947 -0.1238227,-0.303392 -0.2887782,-0.309126 -0.1649523,-0.00572 -0.3033911,0.123825 -0.3091243,0.288779 -0.00562,0.164958 0.1238228,0.303538 0.2887731,0.309124 0.1649552,0.0056 0.3035385,-0.123819 0.3091294,-0.288777 z M 4.2028516,3.7601849 c 0.00559,-0.16496 -0.1236777,-0.303548 -0.2886313,-0.309139 -0.1650967,-0.0057 -0.3035373,0.123825 -0.3091213,0.288774 -0.00574,0.164962 0.1236748,0.303399 0.2886297,0.309133 0.1650963,0.0057 0.3035402,-0.123826 0.3091229,-0.288768 z"
     fill-rule="evenodd"
     fill="url(#_lgradient_2)"
     id="path8-2"
     style="isolation:isolate;fill:url(#_lgradient_2-9);stroke-width:0.165362" />
  <path
     d="M 6.8622405,6.7065899 8.337144,7.2149919 C 7.3427194,5.7431839 6.085023,4.0342189 6.085023,4.0342189 c 0,0 -1.2571152,1.709285 -2.2515983,3.180773 l 1.4743294,-0.508402 0.7775363,0.608395 z"
     id="path1"
     style="fill:url(#linearGradient15-3);fill-opacity:1;stroke-width:0.0742396" />
</svg>
