<?xml version="1.0" encoding="UTF-8" standalone="no"?>
<svg
   width="45.999886"
   height="45.999989"
   version="1.1"
   viewBox="0 0 12.170564 12.170591"
   id="svg12"
   sodipodi:docname="godot.svg"
   inkscape:version="1.3.2 (091e20ef0f, 2023-11-25)"
   xmlns:inkscape="http://www.inkscape.org/namespaces/inkscape"
   xmlns:sodipodi="http://sodipodi.sourceforge.net/DTD/sodipodi-0.dtd"
   xmlns:xlink="http://www.w3.org/1999/xlink"
   xmlns="http://www.w3.org/2000/svg"
   xmlns:svg="http://www.w3.org/2000/svg">
  <defs
     id="defs16">
    <linearGradient
       id="c"
       y1="523.79999"
       x1="403.57001"
       y2="536.79999"
       x2="416.57001"
       gradientUnits="userSpaceOnUse"
       gradientTransform="matrix(0.34526714,0,0,0.34526706,-134.80427,-174.63325)">
      <stop
         stop-color="#292c2f"
         id="stop1568" />
      <stop
         offset="1"
         stop-opacity="0"
         id="stop1570" />
    </linearGradient>
    <linearGradient
       xlink:href="#b-2"
       id="linearGradient4189"
       x1="14.369"
       y1="22.521999"
       x2="26.521999"
       y2="22.521999"
       gradientUnits="userSpaceOnUse" />
    <linearGradient
       x1="36"
       gradientUnits="userSpaceOnUse"
       x2="14"
       y2="12"
       y1="44"
       id="b-2">
      <stop
         style="stop-color:#bfc9c9;stop-opacity:1"
         stop-color="#536161"
         id="stop1579" />
      <stop
         style="stop-color:#fbfbfb;stop-opacity:1"
         stop-color="#f4f5f5"
         offset="1"
         id="stop1581" />
    </linearGradient>
    <linearGradient
       xlink:href="#b-2"
       id="linearGradient4428"
       gradientUnits="userSpaceOnUse"
       x1="31.586"
       y1="36.345001"
       x2="1.2029999"
       y2="6.723" />
    <linearGradient
       xlink:href="#b-2"
       id="linearGradient4189-3"
       x1="14.369"
       y1="22.521999"
       x2="26.521999"
       y2="22.521999"
       gradientUnits="userSpaceOnUse"
       gradientTransform="translate(20.841982,61.553822)" />
    <linearGradient
       xlink:href="#b-2"
       id="linearGradient4428-5"
       gradientUnits="userSpaceOnUse"
       x1="31.586"
       y1="36.345001"
       x2="1.2029999"
       y2="6.723"
       gradientTransform="translate(20.841982,61.553822)" />
    <linearGradient
       xlink:href="#b-2"
       id="linearGradient4189-3-3"
       x1="14.369"
       y1="22.521999"
       x2="26.521999"
       y2="22.521999"
       gradientUnits="userSpaceOnUse"
       gradientTransform="translate(4.376802,4.4211693)" />
    <linearGradient
       xlink:href="#b-2"
       id="linearGradient4428-5-5"
       gradientUnits="userSpaceOnUse"
       x1="31.586"
       y1="36.345001"
       x2="1.2029999"
       y2="6.723"
       gradientTransform="translate(4.376802,4.4211693)" />
    <linearGradient
       inkscape:collect="always"
       xlink:href="#linearGradient11"
       id="linearGradient13"
       x1="-43.819283"
       y1="23.120178"
       x2="-1.9547797"
       y2="23.120178"
       gradientUnits="userSpaceOnUse"
       gradientTransform="scale(0.26457813)" />
    <linearGradient
       id="linearGradient11"
       inkscape:collect="always">
      <stop
         style="stop-color:#9955ff;stop-opacity:0.65640396;"
         offset="0"
         id="stop4-3" />
      <stop
         style="stop-color:#00ccff;stop-opacity:1"
         offset="1"
         id="stop11" />
    </linearGradient>
    <linearGradient
       inkscape:collect="always"
       xlink:href="#linearGradient14"
       id="linearGradient15"
       x1="-9.6850061"
       y1="45.161198"
       x2="11.98815"
       y2="21.735205"
       gradientUnits="userSpaceOnUse"
       gradientTransform="scale(0.26457813)" />
    <linearGradient
       id="linearGradient14"
       inkscape:collect="always">
      <stop
         style="stop-color:#9955ff;stop-opacity:0.45197046;"
         offset="0"
         id="stop12" />
      <stop
         style="stop-color:#00ccff;stop-opacity:1"
         offset="1"
         id="stop13" />
    </linearGradient>
    <filter
       id="filter2917-3"
       x="-0.96181147"
       y="-0.66745996"
       width="2.9236229"
       height="2.3349199"
       color-interpolation-filters="sRGB">
      <feGaussianBlur
         stdDeviation="0.2871969"
         id="feGaussianBlur732-5" />
    </filter>
    <filter
       id="filter1"
       x="-0.96181148"
       y="-0.66745996"
       width="2.9236228"
       height="2.3349199"
       color-interpolation-filters="sRGB">
      <feGaussianBlur
         stdDeviation="0.2871969"
         id="feGaussianBlur1" />
    </filter>
    <filter
       id="filter2"
       x="-0.96181148"
       y="-0.66745996"
       width="2.9236228"
       height="2.3349199"
       color-interpolation-filters="sRGB">
      <feGaussianBlur
         stdDeviation="0.2871969"
         id="feGaussianBlur2" />
    </filter>
  </defs>
  <sodipodi:namedview
     id="namedview14"
     pagecolor="#000000"
     bordercolor="#666666"
     borderopacity="1.0"
     inkscape:showpageshadow="2"
     inkscape:pageopacity="0.0"
     inkscape:pagecheckerboard="0"
     inkscape:deskcolor="#d1d1d1"
     showgrid="false"
     inkscape:zoom="5.2149125"
     inkscape:cx="23.20269"
     inkscape:cy="69.032798"
     inkscape:window-width="1920"
     inkscape:window-height="996"
     inkscape:window-x="0"
     inkscape:window-y="0"
     inkscape:window-maximized="1"
     inkscape:current-layer="svg12">
    <inkscape:grid
       type="xygrid"
       id="grid244"
       originx="9.7893915"
       originy="-31.749373"
       spacingy="1"
       spacingx="1"
       units="px"
       visible="false" />
  </sodipodi:namedview>
  <rect
     x="-12.025727"
     y="0.1490714"
     width="11.940627"
     height="11.936014"
     rx="1.6121091"
     stroke="url(#paint4_linear_77:23)"
     shape-rendering="crispEdges"
     id="rect5-6-7-3"
     ry="1.7735944"
     transform="matrix(0.00523883,-0.99998628,0.999988,0.00489859,0,0)"
     style="fill:#80b3ff;fill-opacity:0.15;stroke:url(#linearGradient13);stroke-width:0.188987;stroke-opacity:1" />
  <rect
     x="-3.7266586"
     y="4.6446943"
     width="7.912631"
     height="7.912384"
     rx="1.612043"
     shape-rendering="crispEdges"
     id="rect5-6-6-6-6"
     style="fill:#80b3ff;fill-opacity:0.122146;stroke:url(#linearGradient15);stroke-width:0.188987;stroke-opacity:1"
     ry="1.7735215"
     transform="matrix(0.72612649,-0.68756114,0.6879775,0.72573202,0,0)" />
  <path
     style="opacity:0.2;stroke-width:0.150471"
     d="M 5.4212102,2.8979875 5.3934329,2.9140437 4.5745591,3.2575223 4.7438875,4.0961545 3.9643757,4.4492993 3.5585807,4.0961545 2.7119262,4.9347868 3.1957253,5.4540174 v 1.7385225 -0.133986 0.5591994 c 0,0 0.4838012,1.5101923 2.90281,1.5101923 2.4189946,0 2.9027921,-1.5101923 2.9027921,-1.5101923 V 7.0585529 7.1925388 5.4540162 L 9.4851271,4.9347886 8.638471,4.0961558 8.2326693,4.4493007 7.4531628,4.0961567 7.6225335,3.2575245 6.7758566,2.89799 6.4861569,3.3773316 H 5.7102686 Z"
     id="path1" />
  <path
     style="fill:#3888c3;stroke-width:0.150471"
     d="M 5.4212102,2.7781862 5.3934329,2.7942424 4.5745589,3.1377225 4.7438873,3.9763542 3.9643756,4.3294991 3.5585804,3.976354 2.7119259,4.8149863 3.195725,5.3342184 V 7.0727401 6.9387558 7.4979543 c 0,0 0.4838012,1.5101929 2.90281,1.5101929 2.4189946,0 2.9027921,-1.5101929 2.9027921,-1.5101929 V 6.9387558 7.0727401 5.3342192 L 9.4851271,4.814988 8.638471,3.9763547 8.2326693,4.3295009 7.4531628,3.9763547 7.6225335,3.1377231 6.7758566,2.7781914 6.4861569,3.2575283 H 5.7102686 Z"
     id="path2" />
  <path
     style="opacity:0.2;stroke-width:0.150471"
     d="m 4.4052312,5.2941977 c 0.4008792,0 0.7257029,0.3217482 0.7257029,0.7188313 0,0.3970764 -0.3248237,0.7188236 -0.7257029,0.7188236 -0.4008796,0 -0.7257047,-0.3217472 -0.7257047,-0.7188236 0,-0.3970831 0.3248251,-0.7188313 0.7257047,-0.7188313 z"
     id="path3" />
  <path
     style="fill:#ffffff;stroke-width:0.150471"
     d="m 4.4052312,5.1743974 c 0.4008792,0 0.7257029,0.3217478 0.7257029,0.7188277 0,0.3970777 -0.3248237,0.718824 -0.7257029,0.718824 -0.4008796,0 -0.7257047,-0.3217463 -0.7257047,-0.718824 0,-0.3970799 0.3248251,-0.7188277 0.7257047,-0.7188277 z"
     id="path4" />
  <path
     style="fill:#353535;stroke-width:0.150471"
     d="m 4.7680806,5.8932251 a 0.36285187,0.35941471 0 1 1 -0.7257034,0 0.36285187,0.35941471 0 1 1 0.7257034,0 z"
     id="path5" />
  <path
     style="opacity:0.2;stroke-width:0.150471"
     d="m 6.0985353,5.7734179 c 0.1340015,0 0.241894,0.1068664 0.241894,0.2396111 v 0.4792204 c 0,0.1327371 -0.1078925,0.2396032 -0.241894,0.2396032 -0.1340224,0 -0.2418971,-0.1068661 -0.2418971,-0.2396032 V 6.013029 c 0,-0.1327447 0.1078747,-0.2396111 0.2418971,-0.2396111 z"
     id="path6" />
  <path
     style="fill:#ffffff;stroke-width:0.150471"
     d="m 6.0985353,5.6536163 c 0.1340015,0 0.241894,0.1068632 0.241894,0.2396088 v 0.479217 c 0,0.13274 -0.1078925,0.239607 -0.241894,0.239607 -0.1340224,0 -0.2418971,-0.106867 -0.2418971,-0.239607 v -0.479217 c 0,-0.1327456 0.1078747,-0.2396088 0.2418971,-0.2396088 z"
     id="path7" />
  <path
     style="opacity:0.2;stroke-width:0.150471"
     d="m 7.7918488,5.2941977 c 0.4008466,0 0.7256811,0.3217482 0.7256811,0.7188313 0,0.3970764 -0.3248345,0.7188236 -0.7256811,0.7188236 -0.4009152,0 -0.7256999,-0.3217472 -0.7256999,-0.7188236 0,-0.3970831 0.3247847,-0.7188313 0.7256999,-0.7188313 z"
     id="path8" />
  <path
     style="fill:#ffffff;stroke-width:0.150471"
     d="m 7.7918488,5.1743974 c 0.4008466,0 0.7256811,0.3217478 0.7256811,0.7188277 0,0.3970777 -0.3248345,0.718824 -0.7256811,0.718824 -0.4009152,0 -0.7256999,-0.3217463 -0.7256999,-0.718824 0,-0.3970799 0.3247847,-0.7188277 0.7256999,-0.7188277 z"
     id="path9" />
  <path
     style="fill:#353535;stroke-width:0.150471"
     d="m 8.1546883,5.8932251 a 0.3628512,0.35941402 0 1 1 -0.7256842,0 0.3628512,0.35941402 0 1 1 0.7256842,0 z"
     id="path10" />
  <path
     style="opacity:0.2;fill:none;stroke:#000000;stroke-width:0.300966;stroke-linejoin:round"
     d="M 9.0013274,7.3308794 H 7.9127642 V 7.8100972 H 6.7032874 V 7.330793 H 6.0985353 m -2.90281,8.64e-5 H 4.2842805 V 7.8100972 H 5.4937811 V 7.330793 h 0.6047542"
     id="path11" />
  <path
     style="fill:none;stroke:#ffffff;stroke-width:0.300966;stroke-linejoin:round"
     d="M 9.0013274,7.2110761 H 7.9127642 V 7.6902913 H 6.7032874 V 7.2109912 H 6.0985353 m -2.90281,8.49e-5 H 4.2842805 V 7.6902913 H 5.4937811 V 7.2109912 h 0.6047542"
     id="path12" />
  <path
     style="opacity:0.2;fill:#ffffff;stroke-width:0.150471"
     d="M 5.4212598,2.7780724 5.3933818,2.7942304 4.5746037,3.1377296 4.5968077,3.2481762 5.3933818,2.914035 5.4212598,2.897877 5.7101719,3.3773299 H 6.4861702 L 6.7758092,2.8978765 7.6002553,3.248166 7.6224697,3.1377198 6.7758092,2.7780704 6.4861715,3.2575196 H 5.7101719 Z M 3.5585807,3.9763486 2.7119262,4.8149806 2.7700384,4.8772285 3.5585807,4.0961576 3.96442,4.4492549 4.7439871,4.0961576 4.7217793,3.9864173 3.9644195,4.3294476 Z m 5.0798903,0 -0.4058453,0.3530961 -0.757315,-0.3430308 -0.022237,0.1097404 0.7795535,0.3530974 0.4058451,-0.3530974 0.7885541,0.7810711 0.05812,-0.06225 z"
     id="path13" />
</svg>
