<?xml version="1.0" encoding="UTF-8" standalone="no"?>
<svg
   width="45.999886"
   height="45.999989"
   version="1.1"
   viewBox="0 0 12.170564 12.170591"
   id="svg12"
   sodipodi:docname="pattern-enlightenment.svg"
   inkscape:version="1.3.2 (091e20ef0f, 2023-11-25)"
   xmlns:inkscape="http://www.inkscape.org/namespaces/inkscape"
   xmlns:sodipodi="http://sodipodi.sourceforge.net/DTD/sodipodi-0.dtd"
   xmlns:xlink="http://www.w3.org/1999/xlink"
   xmlns="http://www.w3.org/2000/svg"
   xmlns:svg="http://www.w3.org/2000/svg">
  <defs
     id="defs16">
    <linearGradient
       id="c"
       y1="523.79999"
       x1="403.57001"
       y2="536.79999"
       x2="416.57001"
       gradientUnits="userSpaceOnUse"
       gradientTransform="matrix(0.34526714,0,0,0.34526706,-134.80427,-174.63325)">
      <stop
         stop-color="#292c2f"
         id="stop1568" />
      <stop
         offset="1"
         stop-opacity="0"
         id="stop1570" />
    </linearGradient>
    <linearGradient
       xlink:href="#b-2"
       id="linearGradient4189"
       x1="14.369"
       y1="22.521999"
       x2="26.521999"
       y2="22.521999"
       gradientUnits="userSpaceOnUse" />
    <linearGradient
       x1="36"
       gradientUnits="userSpaceOnUse"
       x2="14"
       y2="12"
       y1="44"
       id="b-2">
      <stop
         style="stop-color:#bfc9c9;stop-opacity:1"
         stop-color="#536161"
         id="stop1579" />
      <stop
         style="stop-color:#fbfbfb;stop-opacity:1"
         stop-color="#f4f5f5"
         offset="1"
         id="stop1581" />
    </linearGradient>
    <linearGradient
       xlink:href="#b-2"
       id="linearGradient4428"
       gradientUnits="userSpaceOnUse"
       x1="31.586"
       y1="36.345001"
       x2="1.2029999"
       y2="6.723" />
    <linearGradient
       xlink:href="#b-2"
       id="linearGradient4189-3"
       x1="14.369"
       y1="22.521999"
       x2="26.521999"
       y2="22.521999"
       gradientUnits="userSpaceOnUse"
       gradientTransform="translate(20.841982,61.553822)" />
    <linearGradient
       xlink:href="#b-2"
       id="linearGradient4428-5"
       gradientUnits="userSpaceOnUse"
       x1="31.586"
       y1="36.345001"
       x2="1.2029999"
       y2="6.723"
       gradientTransform="translate(20.841982,61.553822)" />
    <linearGradient
       xlink:href="#b-2"
       id="linearGradient4189-3-3"
       x1="14.369"
       y1="22.521999"
       x2="26.521999"
       y2="22.521999"
       gradientUnits="userSpaceOnUse"
       gradientTransform="translate(4.376802,4.4211693)" />
    <linearGradient
       xlink:href="#b-2"
       id="linearGradient4428-5-5"
       gradientUnits="userSpaceOnUse"
       x1="31.586"
       y1="36.345001"
       x2="1.2029999"
       y2="6.723"
       gradientTransform="translate(4.376802,4.4211693)" />
    <linearGradient
       inkscape:collect="always"
       xlink:href="#linearGradient11"
       id="linearGradient13"
       x1="-43.819283"
       y1="23.120178"
       x2="-1.9547797"
       y2="23.120178"
       gradientUnits="userSpaceOnUse"
       gradientTransform="scale(0.26457813)" />
    <linearGradient
       id="linearGradient11"
       inkscape:collect="always">
      <stop
         style="stop-color:#37c871;stop-opacity:1"
         offset="0"
         id="stop4-3" />
      <stop
         style="stop-color:#00ccff;stop-opacity:1"
         offset="1"
         id="stop11" />
    </linearGradient>
    <linearGradient
       inkscape:collect="always"
       xlink:href="#linearGradient14"
       id="linearGradient15"
       x1="-9.6850061"
       y1="45.161198"
       x2="11.98815"
       y2="21.735205"
       gradientUnits="userSpaceOnUse"
       gradientTransform="scale(0.26457813)" />
    <linearGradient
       id="linearGradient14"
       inkscape:collect="always">
      <stop
         style="stop-color:#37c871;stop-opacity:1"
         offset="0"
         id="stop12" />
      <stop
         style="stop-color:#00ccff;stop-opacity:1"
         offset="1"
         id="stop13" />
    </linearGradient>
    <filter
       id="filter2917-3"
       x="-0.96181147"
       y="-0.66745996"
       width="2.9236229"
       height="2.3349199"
       color-interpolation-filters="sRGB">
      <feGaussianBlur
         stdDeviation="0.2871969"
         id="feGaussianBlur732-5" />
    </filter>
    <filter
       id="filter1"
       x="-0.96181148"
       y="-0.66745996"
       width="2.9236228"
       height="2.3349199"
       color-interpolation-filters="sRGB">
      <feGaussianBlur
         stdDeviation="0.2871969"
         id="feGaussianBlur1" />
    </filter>
    <filter
       id="filter2"
       x="-0.96181148"
       y="-0.66745996"
       width="2.9236228"
       height="2.3349199"
       color-interpolation-filters="sRGB">
      <feGaussianBlur
         stdDeviation="0.2871969"
         id="feGaussianBlur2" />
    </filter>
    <linearGradient
       id="paint0_linear_19_69"
       x1="13.5381"
       y1="7.6556602"
       x2="19.187599"
       y2="7.6556602"
       gradientUnits="userSpaceOnUse"
       gradientTransform="scale(0.26457813)">
      <stop
         stop-color="#02AA93"
         id="stop3" />
      <stop
         offset="1"
         stop-color="#67FF80"
         id="stop4" />
    </linearGradient>
    <linearGradient
       id="paint1_linear_19_69"
       x1="13.5426"
       y1="5.74156"
       x2="23"
       y2="5.74156"
       gradientUnits="userSpaceOnUse"
       gradientTransform="scale(0.26457813)">
      <stop
         stop-color="#02AA93"
         id="stop5" />
      <stop
         offset="1"
         stop-color="#67FF80"
         id="stop6" />
    </linearGradient>
    <linearGradient
       id="paint2_linear_19_69"
       x1="1"
       y1="12.425"
       x2="22.2339"
       y2="12.425"
       gradientUnits="userSpaceOnUse"
       gradientTransform="scale(0.26457813)">
      <stop
         stop-color="#02AA93"
         id="stop7" />
      <stop
         offset="1"
         stop-color="#67FF80"
         id="stop8" />
    </linearGradient>
    <linearGradient
       id="d"
       gradientUnits="userSpaceOnUse"
       x1="10"
       x2="30"
       y1="10"
       y2="30"
       gradientTransform="matrix(0.82164929,0,0,0.77777884,-9.1358737,-31.887605)">
      <stop
         offset="0"
         id="stop232" />
      <stop
         offset="1"
         stop-opacity="0"
         id="stop234" />
    </linearGradient>
    <linearGradient
       inkscape:collect="always"
       xlink:href="#e"
       id="linearGradient902"
       gradientUnits="userSpaceOnUse"
       gradientTransform="matrix(0.32608568,0,0,0.30867491,2.1908181,2.4693893)"
       x1="10"
       y1="10"
       x2="22"
       y2="22" />
    <linearGradient
       id="e"
       gradientUnits="userSpaceOnUse"
       x1="10"
       x2="22"
       y1="10"
       y2="22"
       gradientTransform="matrix(0.82164929,0,0,0.77777884,-9.1358737,-31.887605)">
      <stop
         offset="0"
         stop-color="#171e25"
         id="stop219" />
      <stop
         offset="1"
         stop-opacity="0"
         id="stop221" />
    </linearGradient>
    <linearGradient
       inkscape:collect="always"
       xlink:href="#b"
       id="linearGradient904"
       gradientUnits="userSpaceOnUse"
       gradientTransform="matrix(0.32608568,0,0,0.30867491,2.1908181,2.4693893)"
       x1="16"
       y1="3"
       x2="17.993"
       y2="4.993" />
    <linearGradient
       id="b">
      <stop
         offset="0"
         stop-color="#292c2f"
         id="stop237" />
      <stop
         offset="1"
         stop-opacity="0"
         id="stop239" />
    </linearGradient>
    <linearGradient
       inkscape:collect="always"
       xlink:href="#b"
       id="linearGradient906"
       gradientUnits="userSpaceOnUse"
       gradientTransform="matrix(0.32608568,0,0,0.30867491,2.1908181,2.4693893)"
       x1="13.277"
       y1="3.2809999"
       x2="15.44"
       y2="5.4439998" />
    <linearGradient
       inkscape:collect="always"
       xlink:href="#b"
       id="linearGradient908"
       gradientUnits="userSpaceOnUse"
       gradientTransform="matrix(0.32608568,0,0,0.30867491,2.1908181,2.4693893)"
       x1="18.694"
       y1="3.3150001"
       x2="20.542999"
       y2="5.1479998" />
    <linearGradient
       inkscape:collect="always"
       xlink:href="#b"
       id="linearGradient910"
       gradientUnits="userSpaceOnUse"
       gradientTransform="matrix(0.32608568,0,0,0.30867491,2.1908181,2.4693893)"
       x1="10.753"
       y1="4.0830002"
       x2="13.038"
       y2="6.368" />
    <linearGradient
       inkscape:collect="always"
       xlink:href="#b"
       id="linearGradient912"
       gradientUnits="userSpaceOnUse"
       gradientTransform="matrix(0.32608568,0,0,0.30867491,2.1908181,2.4693893)"
       x1="21.214001"
       y1="4.1149998"
       x2="23.052999"
       y2="5.9429998" />
    <linearGradient
       inkscape:collect="always"
       xlink:href="#b"
       id="linearGradient914"
       gradientUnits="userSpaceOnUse"
       gradientTransform="matrix(0.32608568,0,0,0.30867491,2.1908181,2.4693893)"
       x1="23.558001"
       y1="5.454"
       x2="25.417999"
       y2="7.3140001" />
    <linearGradient
       inkscape:collect="always"
       xlink:href="#a"
       id="linearGradient916"
       gradientUnits="userSpaceOnUse"
       gradientTransform="matrix(0.32608568,0,0,0.30867491,2.1908181,2.4693893)"
       x1="26.400999"
       y1="29"
       x2="26.400999"
       y2="3" />
    <linearGradient
       id="a"
       gradientUnits="userSpaceOnUse"
       x1="567.30701"
       x2="567.30701"
       y1="691.461"
       y2="39.515999">
      <stop
         offset="0"
         stop-color="#73ba25"
         id="stop242" />
      <stop
         offset="1"
         stop-color="#96cb5c"
         id="stop244" />
    </linearGradient>
    <linearGradient
       inkscape:collect="always"
       xlink:href="#a"
       id="linearGradient918"
       gradientUnits="userSpaceOnUse"
       gradientTransform="matrix(0.32608568,0,0,0.30867491,2.1908181,2.4693893)"
       x1="26"
       y1="29"
       x2="26"
       y2="3" />
  </defs>
  <sodipodi:namedview
     id="namedview14"
     pagecolor="#000000"
     bordercolor="#666666"
     borderopacity="1.0"
     inkscape:showpageshadow="2"
     inkscape:pageopacity="0.0"
     inkscape:pagecheckerboard="0"
     inkscape:deskcolor="#d1d1d1"
     showgrid="false"
     inkscape:zoom="5.2149125"
     inkscape:cx="23.20269"
     inkscape:cy="53.692176"
     inkscape:window-width="1920"
     inkscape:window-height="996"
     inkscape:window-x="0"
     inkscape:window-y="0"
     inkscape:window-maximized="1"
     inkscape:current-layer="svg12">
    <inkscape:grid
       type="xygrid"
       id="grid244"
       originx="9.7893915"
       originy="-31.749373"
       spacingy="1"
       spacingx="1"
       units="px"
       visible="false" />
  </sodipodi:namedview>
  <rect
     x="-12.025727"
     y="0.1490714"
     width="11.940627"
     height="11.936014"
     rx="1.6121091"
     stroke="url(#paint4_linear_77:23)"
     shape-rendering="crispEdges"
     id="rect5-6-7-3"
     ry="1.7735944"
     transform="matrix(0.00523883,-0.99998628,0.999988,0.00489859,0,0)"
     style="fill:#80b3ff;fill-opacity:0.15;stroke:url(#linearGradient13);stroke-width:0.188987;stroke-opacity:1" />
  <rect
     x="-3.7266586"
     y="4.6446943"
     width="7.912631"
     height="7.912384"
     rx="1.612043"
     shape-rendering="crispEdges"
     id="rect5-6-6-6-6"
     style="fill:#80b3ff;fill-opacity:0.122146;stroke:url(#linearGradient15);stroke-width:0.188987;stroke-opacity:1"
     ry="1.7735215"
     transform="matrix(0.72612649,-0.68756114,0.6879775,0.72573202,0,0)" />
  <path
     d="M 8.4446743,6.222556 A 2.4204215,2.2930586 0 0 1 6.0242535,8.5156151 2.4204215,2.2930586 0 0 1 3.6038335,6.222556 2.4204215,2.2930586 0 0 1 6.0242535,3.9294956 2.4204215,2.2930586 0 0 1 8.4446743,6.222556 Z"
     fill="url(#e)"
     opacity="0.2"
     id="path258-7-6"
     style="fill:url(#linearGradient902);stroke-width:0.317262" />
  <path
     d="m 6.0242535,2.9103595 v 0.015243 c 8.807e-4,0.01196 0.00996,0.084857 0.021506,0.168671 0.040076,0.2848482 0.097894,0.459628 0.1823391,0.5508421 0.054597,0.059097 0.068578,0.06242 0.1229034,0.032373 C 6.421468,3.6382296 6.4916571,3.548058 6.5602353,3.4181211 Z"
     fill="url(#f)"
     opacity="0.2"
     id="path260-0-2"
     style="fill:url(#linearGradient904);stroke-width:0.317262" />
  <path
     d="m 5.2919431,2.981956 c 0.00544,0.00127 0.027426,0.053261 0.050549,0.1182185 0.06159,0.1722331 0.1266696,0.3192445 0.1774967,0.4005219 0.051901,0.082533 0.1441507,0.1735048 0.1914844,0.1893041 0.030388,0.01018 0.036298,0.0083 0.076111,-0.0288 0.032546,-0.029823 0.060506,-0.07514 0.086064,-0.1281581 z"
     fill="url(#g)"
     opacity="0.2"
     id="path262-9-6"
     style="fill:url(#linearGradient906);stroke-width:0.317262" />
  <path
     d="m 6.751456,2.9890909 a 0.17507721,0.16586462 0 0 1 -0.00211,0.03772 C 6.699057,3.4344615 6.727026,3.7014802 6.827881,3.788106 6.847774,3.805146 6.85504,3.805413 6.89243,3.794836 6.9924591,3.766604 7.1075635,3.6549806 7.2460645,3.4575221 Z"
     fill="url(#h)"
     opacity="0.2"
     id="path264-3-1"
     style="fill:url(#linearGradient908);stroke-width:0.317262" />
  <path
     d="m 4.6131475,3.1862931 0.00211,0.0058 c 0.00509,0.00163 0.044367,0.058847 0.092787,0.1365644 0.050019,0.079959 0.1140289,0.1755463 0.1425358,0.2117255 0.1446871,0.1862477 0.3181496,0.3031926 0.3652149,0.2471399 0.0045,-0.00637 0.00747,-0.01271 0.011825,-0.018633 z"
     fill="url(#i)"
     opacity="0.2"
     id="path266-6-8"
     style="fill:url(#linearGradient910);stroke-width:0.317262" />
  <path
     d="m 7.4275624,3.1929162 -0.00122,0.00163 c 0.0014,0.0065 -0.018297,0.079001 -0.044907,0.163825 -0.095741,0.3057417 -0.1156414,0.4981013 -0.061857,0.6109735 0.022056,0.046618 0.023662,0.04814 0.068579,0.047927 0.1232093,-7.994e-4 0.2797299,-0.1074923 0.5325281,-0.3566725 z"
     fill="url(#j)"
     opacity="0.2"
     id="path268-0-7"
     style="fill:url(#linearGradient912);stroke-width:0.317262" />
  <path
     d="m 8.0568699,3.5355988 c 0.00122,0.0052 -0.026905,0.059107 -0.065345,0.1263719 -0.1774977,0.3088018 -0.2388141,0.488677 -0.208156,0.6097004 0.015054,0.05933 0.030118,0.06601 0.1325856,0.05811 0.1237089,-0.00937 0.2920626,-0.089683 0.5416362,-0.25759 0.053247,-0.03589 0.07368,-0.047167 0.099505,-0.0627 z"
     fill="url(#k)"
     opacity="0.2"
     id="path270-6-9"
     style="fill:url(#linearGradient914);stroke-width:0.317262" />
  <path
     d="m 3.8638934,4.7267171 c 0.0199,-0.059324 -0.00174,-0.1745297 -0.049486,-0.2631929 -0.051097,-0.095032 -0.1828772,-0.2644634 -0.3232617,-0.4152964 -0.028501,-0.030565 -0.05163,-0.059328 -0.05163,-0.0642 0,-0.0052 0.037648,0.01659 0.083369,0.047657 0.3246042,0.2206475 0.4932263,0.3006472 0.6341497,0.3006472 0.073408,0 0.093054,-0.01271 0.1038082,-0.067226 0.024206,-0.1210303 -0.044909,-0.31543 -0.2205278,-0.6211713 -0.036034,-0.062958 -0.061585,-0.1141454 -0.056477,-0.1141454 0.00451,0 0.059161,0.05274 0.1210205,0.1172022 0.224023,0.233891 0.3985629,0.3546573 0.5311462,0.3676524 l 0.056484,0.0058 0.024479,-0.044339 C 4.7368635,3.9399259 4.7425205,3.9108429 4.7460045,3.8242332 4.7510945,3.6950569 4.7290665,3.5775996 4.6564505,3.346767 4.6295585,3.261664 4.6099245,3.190076 4.6126175,3.1877795 c 0.0027,-0.0029 0.045718,0.060937 0.095741,0.1408995 0.050019,0.079954 0.1140286,0.1752882 0.1422667,0.2114682 0.1446874,0.1862456 0.3181519,0.303954 0.3649463,0.2473936 0.061857,-0.0744 0.089282,-0.1663755 0.097621,-0.3256139 0.00544,-0.1098111 -0.010766,-0.4152982 -0.025018,-0.4626876 -0.00305,-0.00993 -0.0013,-0.017793 0.00358,-0.017793 0.00477,0 0.027963,0.053494 0.051091,0.11924 0.061585,0.1722331 0.1266696,0.3192449 0.1774987,0.400265 0.051897,0.082535 0.1441487,0.1740198 0.1912115,0.1895604 0.03039,0.01018 0.036032,0.0083 0.076111,-0.0288 0.1005518,-0.092479 0.165903,-0.2896885 0.2054377,-0.6191241 a 0.85790495,0.81276202 0 0 1 0.021503,-0.122296 c 0.00813,-0.01271 0.00911,-0.01271 0.00936,0.00173 0,0.0091 0.010219,0.08663 0.022048,0.1727459 0.039805,0.2848458 0.097622,0.4598831 0.1823389,0.5510951 0.054596,0.058847 0.068578,0.06271 0.1226334,0.032607 0.1118745,-0.062139 0.2229447,-0.2407683 0.328636,-0.5291842 0.062397,-0.1694303 0.079616,-0.1994949 0.069927,-0.1220414 -0.050284,0.4076553 -0.022858,0.674669 0.077995,0.7612951 0.019895,0.017053 0.027693,0.0178 0.064548,0.0074 0.122363,-0.034662 0.2640933,-0.1859894 0.4469692,-0.4764424 0.046797,-0.074158 0.086064,-0.1307053 0.08794,-0.12561 0.0019,0.0052 -0.018834,0.079001 -0.045716,0.1648442 -0.095741,0.3057427 -0.1151048,0.49836 -0.061858,0.6109718 0.02231,0.046897 0.024219,0.04841 0.069117,0.04815 0.1339296,-8.279e-4 0.3017473,-0.11848 0.5975762,-0.4193794 0.037648,-0.03793 0.069925,-0.066967 0.072614,-0.064682 0.00215,0.0026 -0.027963,0.060427 -0.067231,0.1289214 -0.177498,0.3087967 -0.238814,0.4886754 -0.2081559,0.6096962 0.015054,0.05934 0.03012,0.066251 0.1323165,0.058382 0.1237107,-0.00937 0.2926042,-0.089684 0.5419069,-0.2575878 0.078805,-0.05326 0.145224,-0.095035 0.1473779,-0.092742 0.00212,0.0022 -0.032283,0.044071 -0.077185,0.093506 -0.2756598,0.3049779 -0.3695199,0.4680356 -0.355265,0.6175947 0.00574,0.060417 0.00509,0.06215 -0.012089,0.041792 C 8.1507183,4.7215748 8.1119952,4.6751874 8.0751565,4.630103 7.9944824,4.5316575 7.7927793,4.3443889 7.6623459,4.2460453 7.2877195,3.9632343 6.7737828,3.7675607 6.2870087,3.7222092 a 2.6535888,2.5139569 0 0 0 -2.0000756,0.5972109 2.412891,2.2859249 0 0 0 -0.3469265,0.340392 0.9654793,0.9146757 0 0 1 -0.078528,0.089171 c -0.0027,0 -0.00167,-0.01018 0.00239,-0.02239 z m 2.1350807,4.658221 C 5.956483,9.0442922 5.8811809,8.8371517 5.7746825,8.7653017 l -0.033083,-0.02241 -0.04249,0.02266 c -0.109187,0.057856 -0.2232159,0.2397545 -0.3286389,0.525367 l -0.059971,0.1615282 c -0.014243,0.037729 -0.013436,-0.010177 0.00172,-0.1673918 0.03174,-0.3202635 -0.00172,-0.5516091 -0.091435,-0.6282975 -0.0199,-0.01706 -0.027434,-0.017799 -0.064549,-0.0077 -0.1215601,0.034659 -0.2614074,0.1842048 -0.4464343,0.4766991 -0.046798,0.073924 -0.086602,0.1307016 -0.088477,0.1258648 -0.00143,-0.0055 0.018831,-0.078231 0.045178,-0.1625545 0.096008,-0.3042198 0.1159095,-0.5009114 0.062389,-0.6137808 -0.022049,-0.046613 -0.024208,-0.048163 -0.068847,-0.04793 -0.133389,8.259e-4 -0.3055073,0.1215323 -0.5978409,0.4193742 -0.037376,0.03794 -0.069928,0.066971 -0.072613,0.064422 -0.00239,-0.0026 0.023129,-0.05169 0.057019,-0.1095593 0.1828832,-0.313127 0.2530744,-0.5167012 0.2183819,-0.6344133 -0.015866,-0.053499 -0.03308,-0.060159 -0.1320466,-0.052733 -0.1237109,0.0094 -0.2926016,0.089683 -0.542175,0.2575879 -0.0788,0.053251 -0.1452238,0.095033 -0.1471079,0.092995 -0.0021,-0.0022 0.035226,-0.046893 0.083099,-0.099368 0.1640501,-0.1814025 0.2495726,-0.2970771 0.311428,-0.4211554 0.031739,-0.06373 0.035492,-0.080495 0.035492,-0.160515 0,-0.081544 0.00167,-0.087901 0.016129,-0.070062 l 0.083635,0.1011515 C 4.0541308,7.9129198 4.2558363,8.0999275 4.3862703,8.1985321 4.6726879,8.4145887 5.0779725,8.596757 5.448029,8.6752307 A 2.8238251,2.6752346 0 0 0 6.3406308,8.7167507 2.6229301,2.4849117 0 0 0 7.772983,8.1144399 C 7.9252181,7.9884816 8.0061645,7.9087347 8.1094384,7.7833796 a 0.9466537,0.89684105 0 0 1 0.077458,-0.08764 c 0.00278,0 0.00167,0.00991 -0.00212,0.02216 -0.019915,0.05934 0.00167,0.1745267 0.049218,0.2631937 0.051094,0.095031 0.183144,0.264463 0.3235285,0.4152965 0.028238,0.030301 0.051362,0.059107 0.051362,0.06394 0,0.0052 -0.030113,-0.01195 -0.066961,-0.03748 C 8.2237287,8.2037693 8.0319762,8.1120452 7.8915919,8.1120452 c -0.07368,0 -0.093325,0.01271 -0.1040786,0.067504 -0.024211,0.1210211 0.044908,0.3154232 0.2205275,0.6211626 0.036033,0.0627 0.061857,0.1141435 0.05702,0.1141435 -0.0045,0 -0.059162,-0.05301 -0.1210202,-0.1174564 C 7.7084334,8.5519746 7.5217935,8.42713 7.3900155,8.42713 c -0.03039,0 -0.038461,0.00607 -0.055677,0.03821 -0.029575,0.055554 -0.035493,0.08765 -0.034956,0.1870115 4.363e-4,0.1080271 0.027428,0.2369488 0.092516,0.4440899 0.026899,0.085868 0.046799,0.1579659 0.044367,0.1605121 -0.00278,0.0028 -0.045718,-0.06113 -0.096007,-0.1411475 C 7.1611437,8.8299909 7.0073118,8.6717677 6.8838713,8.6460362 c -0.039537,-0.00828 -0.049486,-5.47e-4 -0.089284,0.070846 -0.036567,0.064961 -0.052437,0.1340167 -0.05916,0.2608981 -0.00574,0.1039538 0.00967,0.3982296 0.024211,0.4629443 0.0027,0.012709 0.00122,0.022898 -0.00391,0.022898 -0.00477,0 -0.022318,-0.04002 -0.039,-0.08917 C 6.6619578,9.2142021 6.5831598,9.0330503 6.5320622,8.9505008 6.4761225,8.8600528 6.3868359,8.7708783 6.3354696,8.7540614 c -0.03174,-0.010449 -0.036838,-0.00872 -0.082289,0.031075 -0.099776,0.08713 -0.1621703,0.2700709 -0.203047,0.5954304 -0.010764,0.084856 -0.022318,0.1541466 -0.026096,0.1541466 -0.00358,0 -0.014791,-0.067505 -0.025288,-0.1498148 z"
     id="path272-2-2"
     style="fill:url(#linearGradient916);stroke-width:0.317262" />
  <path
     d="M 6.0242535,3.9294956 A 2.4204215,2.2930586 0 0 0 3.6038335,6.222556 2.4204215,2.2930586 0 0 0 6.0242535,8.5156151 2.4204215,2.2930586 0 0 0 8.4446743,6.222556 2.4204215,2.2930586 0 0 0 6.0242535,3.9294956 Z m 0,0.2866364 A 2.1178688,2.0064268 0 0 1 8.1421222,6.222556 2.1178688,2.0064268 0 0 1 6.0242535,8.2289828 2.1178688,2.0064268 0 0 1 4.4302723,7.5397927 c 0.1524853,-0.1044639 0.4025984,-0.077953 0.7102607,-0.045107 0.1497953,0.016591 0.3205692,0.035168 0.497261,0.03898 0.4932289,0.00336 1.0246438,-0.083327 1.3519384,-0.2191135 0.2119216,-0.08714 0.3469292,-0.145226 0.4316437,-0.2180956 0.030659,-0.023969 0.046527,-0.06296 0.062933,-0.1044613 l 0.011567,-0.027762 c 0.013434,-0.033897 0.033625,-0.1052235 0.042488,-0.1444604 0.0039,-0.01704 0.00813,-0.033897 -0.00716,-0.045106 -0.013435,-0.00991 -0.045178,0.0083 -0.045178,0.0083 C 7.3420775,6.8649494 6.9825099,7.0201189 6.646609,7.0267419 6.2292143,7.0347215 5.3839484,6.6267362 5.2965452,6.5834208 5.2376502,6.4511873 5.1790203,6.3189554 5.1195852,6.1869767 c 0.6051061,0.3775913 1.1066703,0.5862585 1.490442,0.6186177 0.427609,0.03589 0.7610893,-0.1849754 0.9055064,-0.2769498 0.018819,-0.01196 0.037648,-0.02545 0.055136,-0.03821 0.00328,-0.0026 0.010764,-0.0083 0.00967,-0.01376 C 7.556134,6.3347162 7.3329185,5.6460335 7.1640277,5.4804247 7.1175022,5.4355795 7.080121,5.3912444 7.0048166,5.349208 6.3935259,5.0116221 4.9431561,4.8080502 4.8753854,4.7988747 c 0,0 -0.00691,-0.00163 -0.011567,0.0031 -0.00388,0.00389 -0.0045,0.01017 -0.0045,0.01017 0,0 -0.00541,0.284595 -0.0065,0.3164443 A 8.7979637,8.3350139 0 0 0 4.3568463,4.9891858 2.1178688,2.0064268 0 0 1 6.0242462,4.2161712 Z m 0.4413238,1.163852 0.031201,2.624e-4 A 0.62258627,0.58982581 0 0 1 7.0954276,5.9886717 0.61855221,0.58600395 0 0 1 6.8988351,6.3978561 C 6.7778148,6.5056294 6.6199475,6.5609163 6.4532081,6.5558203 A 0.62258627,0.58982581 0 0 1 5.8550926,5.9473985 C 5.8613111,5.7904504 5.9303972,5.644712 6.0514167,5.537959 6.1651773,5.4373185 6.3112092,5.382541 6.4655781,5.3799921 Z m 0.00422,0.1732508 A 0.42626313,0.40383317 0 0 0 6.1815648,5.6627965 c -0.084176,0.074871 -0.133661,0.1757992 -0.1371561,0.285355 a 0.43433117,0.41147674 0 0 0 0.4173879,0.4252374 c 0.1156418,0.00361 0.2264435,-0.03566 0.3108895,-0.1103219 A 0.43379334,0.41096723 0 0 0 6.4698724,5.5532348 Z m 0.092254,0.2058663 c 0.1062305,0 0.1922896,0.054234 0.1922896,0.121536 0,0.066734 -0.086064,0.1210227 -0.1922896,0.1210227 -0.1059593,0 -0.1917498,-0.054234 -0.1917498,-0.1210227 0,-0.06723 0.085797,-0.121536 0.1917498,-0.121536 z"
     id="path274-6-0"
     style="fill:url(#linearGradient918);stroke-width:0.317262" />
</svg>
