<?xml version="1.0" encoding="UTF-8" standalone="no"?>
<svg
   width="45.999886"
   height="45.999989"
   version="1.1"
   viewBox="0 0 12.170564 12.170591"
   id="svg12"
   sodipodi:docname="pattern-lxqt.svg"
   inkscape:version="1.3.2 (091e20ef0f, 2023-11-25)"
   xmlns:inkscape="http://www.inkscape.org/namespaces/inkscape"
   xmlns:sodipodi="http://sodipodi.sourceforge.net/DTD/sodipodi-0.dtd"
   xmlns:xlink="http://www.w3.org/1999/xlink"
   xmlns="http://www.w3.org/2000/svg"
   xmlns:svg="http://www.w3.org/2000/svg">
  <defs
     id="defs16">
    <linearGradient
       id="c"
       y1="523.79999"
       x1="403.57001"
       y2="536.79999"
       x2="416.57001"
       gradientUnits="userSpaceOnUse"
       gradientTransform="matrix(0.34526714,0,0,0.34526706,-134.80427,-174.63325)">
      <stop
         stop-color="#292c2f"
         id="stop1568" />
      <stop
         offset="1"
         stop-opacity="0"
         id="stop1570" />
    </linearGradient>
    <linearGradient
       xlink:href="#b-2"
       id="linearGradient4189"
       x1="14.369"
       y1="22.521999"
       x2="26.521999"
       y2="22.521999"
       gradientUnits="userSpaceOnUse" />
    <linearGradient
       x1="36"
       gradientUnits="userSpaceOnUse"
       x2="14"
       y2="12"
       y1="44"
       id="b-2">
      <stop
         style="stop-color:#bfc9c9;stop-opacity:1"
         stop-color="#536161"
         id="stop1579" />
      <stop
         style="stop-color:#fbfbfb;stop-opacity:1"
         stop-color="#f4f5f5"
         offset="1"
         id="stop1581" />
    </linearGradient>
    <linearGradient
       xlink:href="#b-2"
       id="linearGradient4428"
       gradientUnits="userSpaceOnUse"
       x1="31.586"
       y1="36.345001"
       x2="1.2029999"
       y2="6.723" />
    <linearGradient
       xlink:href="#b-2"
       id="linearGradient4189-3"
       x1="14.369"
       y1="22.521999"
       x2="26.521999"
       y2="22.521999"
       gradientUnits="userSpaceOnUse"
       gradientTransform="translate(20.841982,61.553822)" />
    <linearGradient
       xlink:href="#b-2"
       id="linearGradient4428-5"
       gradientUnits="userSpaceOnUse"
       x1="31.586"
       y1="36.345001"
       x2="1.2029999"
       y2="6.723"
       gradientTransform="translate(20.841982,61.553822)" />
    <linearGradient
       xlink:href="#b-2"
       id="linearGradient4189-3-3"
       x1="14.369"
       y1="22.521999"
       x2="26.521999"
       y2="22.521999"
       gradientUnits="userSpaceOnUse"
       gradientTransform="translate(4.376802,4.4211693)" />
    <linearGradient
       xlink:href="#b-2"
       id="linearGradient4428-5-5"
       gradientUnits="userSpaceOnUse"
       x1="31.586"
       y1="36.345001"
       x2="1.2029999"
       y2="6.723"
       gradientTransform="translate(4.376802,4.4211693)" />
    <linearGradient
       inkscape:collect="always"
       xlink:href="#linearGradient11"
       id="linearGradient13"
       x1="-43.819283"
       y1="23.120178"
       x2="-1.9547797"
       y2="23.120178"
       gradientUnits="userSpaceOnUse"
       gradientTransform="scale(0.26457813)" />
    <linearGradient
       id="linearGradient11"
       inkscape:collect="always">
      <stop
         style="stop-color:#5599ff;stop-opacity:1"
         offset="0"
         id="stop4-3" />
      <stop
         style="stop-color:#00ccff;stop-opacity:1"
         offset="1"
         id="stop11" />
    </linearGradient>
    <linearGradient
       inkscape:collect="always"
       xlink:href="#linearGradient14"
       id="linearGradient15"
       x1="-9.6850061"
       y1="45.161198"
       x2="11.98815"
       y2="21.735205"
       gradientUnits="userSpaceOnUse"
       gradientTransform="scale(0.26457813)" />
    <linearGradient
       id="linearGradient14"
       inkscape:collect="always">
      <stop
         style="stop-color:#80b3ff;stop-opacity:1"
         offset="0"
         id="stop12" />
      <stop
         style="stop-color:#00ccff;stop-opacity:1"
         offset="1"
         id="stop13" />
    </linearGradient>
    <filter
       id="filter2917-3"
       x="-0.96181147"
       y="-0.66745996"
       width="2.9236229"
       height="2.3349199"
       color-interpolation-filters="sRGB">
      <feGaussianBlur
         stdDeviation="0.2871969"
         id="feGaussianBlur732-5" />
    </filter>
    <filter
       id="filter1"
       x="-0.96181148"
       y="-0.66745996"
       width="2.9236228"
       height="2.3349199"
       color-interpolation-filters="sRGB">
      <feGaussianBlur
         stdDeviation="0.2871969"
         id="feGaussianBlur1" />
    </filter>
    <filter
       id="filter2"
       x="-0.96181148"
       y="-0.66745996"
       width="2.9236228"
       height="2.3349199"
       color-interpolation-filters="sRGB">
      <feGaussianBlur
         stdDeviation="0.2871969"
         id="feGaussianBlur2" />
    </filter>
    <linearGradient
       id="l"
       x1="27.447001"
       x2="25.966"
       y1="289.76001"
       y2="289.76001"
       gradientTransform="matrix(0.94283,0,0,0.9628,-16.618,11.67)"
       gradientUnits="userSpaceOnUse">
      <stop
         stop-color="#1881ce"
         offset="0"
         id="stop19" />
      <stop
         stop-color="#2980b9"
         offset="1"
         id="stop21" />
    </linearGradient>
    <linearGradient
       id="j"
       x1="10.692"
       x2="34.026001"
       y1="14.134"
       y2="29.068001"
       gradientTransform="matrix(0.24946,0,0,0.25474,0.77251,285.56)"
       gradientUnits="userSpaceOnUse">
      <stop
         stop-color="#349cd2"
         offset="0"
         id="stop7" />
      <stop
         stop-color="#2694d9"
         offset=".74017"
         id="stop9" />
      <stop
         stop-color="#0e6daa"
         offset="1"
         id="stop11-3" />
    </linearGradient>
    <linearGradient
       id="k"
       x1="21.274"
       x2="27.447001"
       y1="291.29999"
       y2="287.35001"
       gradientTransform="matrix(0.94283,0,0,0.9628,-16.618,11.67)"
       gradientUnits="userSpaceOnUse">
      <stop
         stop-color="#1d99f3"
         offset="0"
         id="stop14" />
      <stop
         stop-color="#3daee9"
         offset="1"
         id="stop16" />
    </linearGradient>
    <linearGradient
       id="paint0_linear_41_115"
       x1="11.9993"
       y1="30.565201"
       x2="11.9993"
       y2="1.43591"
       gradientUnits="userSpaceOnUse"
       gradientTransform="scale(0.26457821)">
      <stop
         stop-color="#5558FF"
         id="stop2" />
      <stop
         offset="1"
         stop-color="#00C0FF"
         id="stop3" />
    </linearGradient>
    <linearGradient
       id="paint1_linear_41_115"
       x1="26"
       y1="28"
       x2="26"
       y2="4"
       gradientUnits="userSpaceOnUse"
       gradientTransform="scale(0.26457821)">
      <stop
         stop-color="#5558FF"
         id="stop4" />
      <stop
         offset="1"
         stop-color="#00C0FF"
         id="stop5" />
    </linearGradient>
    <linearGradient
       id="paint0_linear"
       x1="26.879801"
       y1="12.11"
       x2="59.246101"
       y2="12.11"
       gradientUnits="userSpaceOnUse"
       gradientTransform="matrix(0.0634121,0,0,0.06141991,0.0798069,0.15118666)">
      <stop
         stop-color="#A93AFF"
         id="stop4-0" />
      <stop
         offset="1"
         stop-color="#FF81FF"
         id="stop5-3" />
    </linearGradient>
    <linearGradient
       id="paint1_linear"
       x1="17.9879"
       y1="28.323999"
       x2="17.9879"
       y2="7.4658198"
       gradientUnits="userSpaceOnUse"
       gradientTransform="matrix(0.0634121,0,0,0.06141991,0.0798069,0.15118666)">
      <stop
         stop-color="#5558FF"
         id="stop6" />
      <stop
         offset="1"
         stop-color="#00C0FF"
         id="stop7-6" />
    </linearGradient>
    <linearGradient
       id="paint2_linear"
       x1="17.8874"
       y1="37.5425"
       x2="17.8874"
       y2="24.0812"
       gradientUnits="userSpaceOnUse"
       gradientTransform="matrix(0.0634121,0,0,0.06141991,0.0798069,0.15118666)">
      <stop
         stop-color="#5558FF"
         id="stop8" />
      <stop
         offset="1"
         stop-color="#00C0FF"
         id="stop9-7" />
    </linearGradient>
    <linearGradient
       id="paint3_linear"
       x1="34.894699"
       y1="60"
       x2="34.894699"
       y2="18.817101"
       gradientUnits="userSpaceOnUse"
       gradientTransform="matrix(0.0634121,0,0,0.06141991,0.0798069,0.15118666)">
      <stop
         stop-color="#5558FF"
         id="stop10" />
      <stop
         offset="1"
         stop-color="#00C0FF"
         id="stop11-5" />
    </linearGradient>
  </defs>
  <sodipodi:namedview
     id="namedview14"
     pagecolor="#000000"
     bordercolor="#666666"
     borderopacity="1.0"
     inkscape:showpageshadow="2"
     inkscape:pageopacity="0.0"
     inkscape:pagecheckerboard="0"
     inkscape:deskcolor="#d1d1d1"
     showgrid="false"
     inkscape:zoom="5.2149125"
     inkscape:cx="23.20269"
     inkscape:cy="53.692176"
     inkscape:window-width="1920"
     inkscape:window-height="996"
     inkscape:window-x="0"
     inkscape:window-y="0"
     inkscape:window-maximized="1"
     inkscape:current-layer="svg12">
    <inkscape:grid
       type="xygrid"
       id="grid244"
       originx="9.7893915"
       originy="-31.749373"
       spacingy="1"
       spacingx="1"
       units="px"
       visible="false" />
  </sodipodi:namedview>
  <rect
     x="-12.025727"
     y="0.1490714"
     width="11.940627"
     height="11.936014"
     rx="1.6121091"
     stroke="url(#paint4_linear_77:23)"
     shape-rendering="crispEdges"
     id="rect5-6-7-3"
     ry="1.7735944"
     transform="matrix(0.00523883,-0.99998628,0.999988,0.00489859,0,0)"
     style="fill:#80b3ff;fill-opacity:0.15;stroke:url(#linearGradient13);stroke-width:0.188987;stroke-opacity:1" />
  <rect
     x="-3.7266586"
     y="4.6446943"
     width="7.912631"
     height="7.912384"
     rx="1.612043"
     shape-rendering="crispEdges"
     id="rect5-6-6-6-6"
     style="fill:#80b3ff;fill-opacity:0.122146;stroke:url(#linearGradient15);stroke-width:0.188987;stroke-opacity:1"
     ry="1.7735215"
     transform="matrix(0.72612649,-0.68756114,0.6879775,0.72573202,0,0)" />
  <path
     d="m 7.0030605,3.1751385 c -0.2459263,-0.0044 -0.4930695,0.06358 -0.6989581,0.194898 -0.2053297,0.130706 -0.3687821,0.322515 -0.462011,0.54299 -0.093235,0.221045 -0.1159718,0.468643 -0.063947,0.701855 0.052039,0.232673 0.1778694,0.449912 0.3568855,0.613333 -0.090937,-0.145232 -0.1379208,-0.316957 -0.132201,-0.487026 0.00519,-0.170024 0.062816,-0.337782 0.1629101,-0.477936 0.100095,-0.139624 0.2432247,-0.25063 0.4056493,-0.314884 0.1624474,-0.06428 0.3441918,-0.08176 0.5169142,-0.04954 0.2265867,0.04154 0.4334372,0.171055 0.5692924,0.351267 H 9.8555853 L 8.1011894,3.8843365 C 8.007388,3.6782635 7.8517865,3.4992125 7.6590505,3.3745655 7.4657299,3.2499155 7.2352649,3.1795625 7.0030605,3.1751425 Z"
     id="path1-3"
     style="fill:#ffffff;stroke-width:0.062408;fill-opacity:1" />
  <path
     d="M 6.2708872,5.9405865 3.415802,3.6006395 c -0.2813919,0.281406 -0.4426747,0.671951 -0.4392444,1.06361 0.00348,0.397186 0.1767344,0.790501 0.4701289,1.068037 0.2934045,0.277548 0.7034807,0.43597 1.1135593,0.430433 C 4.3349024,6.1327405 4.1209972,6.0258215 3.9648514,5.8652385 3.808713,5.7051005 3.7114917,5.4918795 3.6937629,5.2725015 3.6772119,5.0597875 3.7349421,4.8426265 3.8550432,4.6642495 Z"
     id="path2-5"
     style="fill:#80b3ff;stroke-width:0.062408;fill-opacity:1" />
  <path
     d="M 6.0604336,6.4925705 3.2053494,5.6416795 c -0.07607,0.281411 -0.052608,0.586642 0.065209,0.854221 0.1183879,0.267007 0.3305763,0.49414 0.5936663,0.634838 0.2007507,0.107468 0.4295161,0.164537 0.6588674,0.164537 0.2293376,0 0.4581178,-0.05713 0.6588696,-0.164537 C 4.9972243,7.1470805 4.8090576,7.1166035 4.6391885,7.0453595 4.46933,6.9738875 4.3183326,6.8598275 4.205091,6.7179755 4.0746872,6.5540365 3.9940528,6.3529155 3.9774648,6.1468375 l 2.0829762,0.345675"
     id="path3"
     style="fill:#80b3ff;stroke-width:0.062408;fill-opacity:1" />
  <path
     d="m 7.4430422,4.9950365 c -0.1247484,0.142879 -0.2063564,0.320693 -0.2325834,0.505892 -0.024486,0.17501 0,0.354016 0.047792,0.524515 0.047825,0.16994 0.1189098,0.3337 0.1888637,0.49687 0.069948,0.163215 0.1393257,0.326912 0.1847868,0.497983 0.044897,0.171149 0.065274,0.351187 0.034981,0.525098 -0.050711,0.291345 -0.2424924,0.550495 -0.4925788,0.719316 -0.2500714,0.168851 -0.5549467,0.252385 -0.8592252,0.271572 -0.3841531,0.02423 -0.7741288,-0.05143 -1.119217,-0.216802 l 0.00867,1.7344865 0.4476925,-0.8627355 c 0.5916633,0.167757 1.2532841,0.08529 1.7820048,-0.221314 0.266997,-0.1547 0.5013321,-0.365306 0.6645563,-0.621636 0.1638132,-0.256348 0.254172,-0.558415 0.2395993,-0.858782 C 8.3174009,7.0609575 8.0918231,6.6702375 7.8761446,6.2959035 7.6598832,5.9215595 7.4424404,5.5246395 7.4395377,5.0955315 c 0,-0.03335 0.00115,-0.0672 0.00364,-0.100543"
     id="path4"
     style="fill:#80b3ff;stroke-width:0.062408;fill-opacity:1" />
</svg>
