<?xml version="1.0" encoding="UTF-8" standalone="no"?>
<svg
   width="45.999886"
   height="45.999989"
   version="1.1"
   viewBox="0 0 12.170564 12.170591"
   id="svg12"
   sodipodi:docname="pattern-rpm-devel.svg"
   inkscape:version="1.3.2 (091e20ef0f, 2023-11-25)"
   xmlns:inkscape="http://www.inkscape.org/namespaces/inkscape"
   xmlns:sodipodi="http://sodipodi.sourceforge.net/DTD/sodipodi-0.dtd"
   xmlns:xlink="http://www.w3.org/1999/xlink"
   xmlns="http://www.w3.org/2000/svg"
   xmlns:svg="http://www.w3.org/2000/svg">
  <defs
     id="defs16">
    <linearGradient
       id="c"
       y1="523.79999"
       x1="403.57001"
       y2="536.79999"
       x2="416.57001"
       gradientUnits="userSpaceOnUse"
       gradientTransform="matrix(0.34526714,0,0,0.34526706,-134.80427,-174.63325)">
      <stop
         stop-color="#292c2f"
         id="stop1568" />
      <stop
         offset="1"
         stop-opacity="0"
         id="stop1570" />
    </linearGradient>
    <linearGradient
       xlink:href="#b-2"
       id="linearGradient4189"
       x1="14.369"
       y1="22.521999"
       x2="26.521999"
       y2="22.521999"
       gradientUnits="userSpaceOnUse" />
    <linearGradient
       x1="36"
       gradientUnits="userSpaceOnUse"
       x2="14"
       y2="12"
       y1="44"
       id="b-2">
      <stop
         style="stop-color:#bfc9c9;stop-opacity:1"
         stop-color="#536161"
         id="stop1579" />
      <stop
         style="stop-color:#fbfbfb;stop-opacity:1"
         stop-color="#f4f5f5"
         offset="1"
         id="stop1581" />
    </linearGradient>
    <linearGradient
       xlink:href="#b-2"
       id="linearGradient4428"
       gradientUnits="userSpaceOnUse"
       x1="31.586"
       y1="36.345001"
       x2="1.2029999"
       y2="6.723" />
    <linearGradient
       xlink:href="#b-2"
       id="linearGradient4189-3"
       x1="14.369"
       y1="22.521999"
       x2="26.521999"
       y2="22.521999"
       gradientUnits="userSpaceOnUse"
       gradientTransform="translate(20.841982,61.553822)" />
    <linearGradient
       xlink:href="#b-2"
       id="linearGradient4428-5"
       gradientUnits="userSpaceOnUse"
       x1="31.586"
       y1="36.345001"
       x2="1.2029999"
       y2="6.723"
       gradientTransform="translate(20.841982,61.553822)" />
    <linearGradient
       xlink:href="#b-2"
       id="linearGradient4189-3-3"
       x1="14.369"
       y1="22.521999"
       x2="26.521999"
       y2="22.521999"
       gradientUnits="userSpaceOnUse"
       gradientTransform="translate(4.376802,4.4211693)" />
    <linearGradient
       xlink:href="#b-2"
       id="linearGradient4428-5-5"
       gradientUnits="userSpaceOnUse"
       x1="31.586"
       y1="36.345001"
       x2="1.2029999"
       y2="6.723"
       gradientTransform="translate(4.376802,4.4211693)" />
    <linearGradient
       inkscape:collect="always"
       xlink:href="#linearGradient11"
       id="linearGradient13"
       x1="-43.819283"
       y1="23.120178"
       x2="-1.9547797"
       y2="23.120178"
       gradientUnits="userSpaceOnUse"
       gradientTransform="scale(0.26457813)" />
    <linearGradient
       id="linearGradient11"
       inkscape:collect="always">
      <stop
         style="stop-color:#d15a89;stop-opacity:0.88546801;"
         offset="0"
         id="stop4-3" />
      <stop
         style="stop-color:#c83771;stop-opacity:1"
         offset="1"
         id="stop11" />
    </linearGradient>
    <linearGradient
       inkscape:collect="always"
       xlink:href="#linearGradient14"
       id="linearGradient15"
       x1="-9.6850061"
       y1="45.161198"
       x2="11.98815"
       y2="21.735205"
       gradientUnits="userSpaceOnUse"
       gradientTransform="scale(0.26457813)" />
    <linearGradient
       id="linearGradient14"
       inkscape:collect="always">
      <stop
         style="stop-color:#a02c5a;stop-opacity:1"
         offset="0"
         id="stop12" />
      <stop
         style="stop-color:#c83771;stop-opacity:1"
         offset="1"
         id="stop13" />
    </linearGradient>
    <linearGradient
       id="a"
       gradientUnits="userSpaceOnUse"
       x1="16"
       x2="16"
       y1="30"
       y2="2"
       gradientTransform="translate(53.627117,26.508474)">
      <stop
         offset="0"
         stop-color="#db3636"
         id="stop2" />
      <stop
         offset="1"
         stop-color="#de4646"
         id="stop4" />
    </linearGradient>
    <linearGradient
       id="b-9"
       gradientUnits="userSpaceOnUse"
       x1="-7.1999998"
       x2="-7.1999998"
       y1="-6"
       y2="-28"
       gradientTransform="matrix(0.3968672,0,0,0.3968672,5.9000922,14.15493)">
      <stop
         offset="0"
         stop-color="#1b1e21"
         id="stop17-1" />
      <stop
         offset="1"
         stop-color="#363c42"
         id="stop19-2" />
    </linearGradient>
    <linearGradient
       id="c-7"
       gradientUnits="userSpaceOnUse"
       x1="-4.1999998"
       x2="11.8"
       y1="-25"
       y2="-9"
       gradientTransform="matrix(0.3968672,0,0,0.3968672,5.9000922,14.15493)">
      <stop
         offset="0"
         stop-color="#292c2f"
         id="stop12-0" />
      <stop
         offset="1"
         stop-opacity="0"
         id="stop14-9" />
    </linearGradient>
    <linearGradient
       id="d-3"
       gradientUnits="userSpaceOnUse"
       x1="3.8"
       x2="13.8"
       y1="-17"
       y2="-7"
       gradientTransform="matrix(0.3968672,0,0,0.3968672,5.9000922,14.15493)">
      <stop
         offset="0"
         id="stop22-6" />
      <stop
         offset="1"
         stop-opacity="0"
         id="stop24-0" />
    </linearGradient>
    <linearGradient
       id="e-6"
       gradientUnits="userSpaceOnUse"
       x1="3.8"
       x2="3.8"
       y1="-6"
       y2="-28"
       gradientTransform="matrix(0.3968672,0,0,0.3968672,5.9000922,14.15493)">
      <stop
         offset="0"
         stop-color="#4d4d4d"
         id="stop7-2" />
      <stop
         offset="1"
         stop-color="#7f8c8d"
         id="stop9-6" />
    </linearGradient>
  </defs>
  <sodipodi:namedview
     id="namedview14"
     pagecolor="#000000"
     bordercolor="#666666"
     borderopacity="1.0"
     inkscape:showpageshadow="2"
     inkscape:pageopacity="0.0"
     inkscape:pagecheckerboard="0"
     inkscape:deskcolor="#d1d1d1"
     showgrid="false"
     inkscape:zoom="14.75"
     inkscape:cx="21.152542"
     inkscape:cy="28.20339"
     inkscape:window-width="1920"
     inkscape:window-height="996"
     inkscape:window-x="0"
     inkscape:window-y="0"
     inkscape:window-maximized="1"
     inkscape:current-layer="svg12">
    <inkscape:grid
       type="xygrid"
       id="grid244"
       originx="9.7893915"
       originy="-31.749373"
       spacingy="1"
       spacingx="1"
       units="px"
       visible="false" />
  </sodipodi:namedview>
  <rect
     x="-12.025727"
     y="0.1490714"
     width="11.940627"
     height="11.936014"
     rx="1.6121091"
     stroke="url(#paint4_linear_77:23)"
     shape-rendering="crispEdges"
     id="rect5-6-7-3"
     ry="1.7735944"
     transform="matrix(0.00523883,-0.99998628,0.999988,0.00489859,0,0)"
     style="fill:#de87aa;fill-opacity:0.15;stroke:url(#linearGradient13);stroke-width:0.188987;stroke-opacity:1" />
  <rect
     x="-3.7266586"
     y="4.6446943"
     width="7.912631"
     height="7.912384"
     rx="1.612043"
     shape-rendering="crispEdges"
     id="rect5-6-6-6-6"
     style="fill:#de87aa;fill-opacity:0.122146;stroke:url(#linearGradient15);stroke-width:0.188987;stroke-opacity:1"
     ry="1.7735215"
     transform="matrix(0.72612649,-0.68756114,0.6879775,0.72573202,0,0)" />
  <path
     d="M 6.0950865,2.9103594 A 3.1749377,3.1749377 0 0 0 5.4147428,2.9865577 V 3.4535006 A 2.7213752,2.7213752 0 0 0 4.7153493,3.7431 L 4.3858362,3.4135869 A 3.1749377,3.1749377 0 0 0 3.4211086,4.3737789 L 3.7528897,4.7055601 A 2.7213752,2.7213752 0 0 0 3.4621561,5.4049533 H 2.9972545 a 3.1749377,3.1749377 0 0 0 -0.077106,0.680344 3.1749377,3.1749377 0 0 0 0.076199,0.6803435 H 3.46329 A 2.7213752,2.7213752 0 0 0 3.7528897,7.4650345 L 3.4233765,7.7945477 A 3.1749377,3.1749377 0 0 0 4.3835683,8.7592752 L 4.7153493,8.427494 a 2.7213752,2.7213752 0 0 0 0.6993935,0.2907337 v 0.4649018 a 3.1749377,3.1749377 0 0 0 0.6803437,0.077105 3.1749377,3.1749377 0 0 0 0.6803439,-0.076198 V 8.7170934 A 2.7213752,2.7213752 0 0 0 7.4748238,8.427494 L 7.804337,8.7570072 A 3.1749377,3.1749377 0 0 0 8.7690644,7.7968151 L 8.4372832,7.4650345 A 2.7213752,2.7213752 0 0 0 8.728017,6.7656408 H 9.1929187 A 3.1749377,3.1749377 0 0 0 9.2700244,6.0852973 3.1749377,3.1749377 0 0 0 9.1938256,5.4049533 H 8.7268832 a 2.7213752,2.7213752 0 0 0 -0.2896,-0.6993932 L 8.7667964,4.3760469 A 3.1749377,3.1749377 0 0 0 7.8066048,3.4113195 L 7.4748238,3.7431 A 2.7213752,2.7213752 0 0 0 6.7754304,3.4523669 V 2.9874652 A 3.1749377,3.1749377 0 0 0 6.0950865,2.9103594 Z M 7.8066048,3.4113195 A 3.1749377,3.1749377 0 0 0 6.7847284,2.9901863 3.1749377,3.1749377 0 0 1 7.8066048,3.4113195 Z M 9.1938256,5.4049533 A 3.1749377,3.1749377 0 0 0 8.7770015,4.3935087 3.1749377,3.1749377 0 0 1 9.1938256,5.4049533 Z M 8.7690644,7.7968151 A 3.1749377,3.1749377 0 0 0 9.1901976,6.7749391 3.1749377,3.1749377 0 0 1 8.7690644,7.7968151 Z M 6.7754304,9.1840363 A 3.1749377,3.1749377 0 0 0 7.7868748,8.7672123 3.1749377,3.1749377 0 0 1 6.7754304,9.1840363 Z M 4.3835683,8.7592752 A 3.1749377,3.1749377 0 0 0 5.4054447,9.1804077 3.1749377,3.1749377 0 0 1 4.3835683,8.7592752 Z M 2.9963474,6.7656408 A 3.1749377,3.1749377 0 0 0 3.4131713,7.7770854 3.1749377,3.1749377 0 0 1 2.9963474,6.7656408 Z M 3.4211086,4.3737789 A 3.1749377,3.1749377 0 0 0 2.9999759,5.3956556 3.1749377,3.1749377 0 0 1 3.4211086,4.3737789 Z M 5.4147428,2.9865577 a 3.1749377,3.1749377 0 0 0 -1.0114445,0.416824 3.1749377,3.1749377 0 0 1 1.0114445,-0.416824 z"
     id="path27-1"
     style="fill:#ff2a2a" />
  <path
     d="M 8.5896804,6.0852973 A 2.4945939,2.4945939 0 0 1 6.0950865,8.5798911 2.4945939,2.4945939 0 0 1 3.6004926,6.0852973 2.4945939,2.4945939 0 0 1 6.0950865,3.5907029 2.4945939,2.4945939 0 0 1 8.5896804,6.0852973 Z"
     id="path29-7"
     style="fill:url(#b-9);stroke-width:0.396867" />
  <path
     d="m 6.2155074,4.0465338 a 2.0378564,2.0378564 0 0 0 -0.5460893,0.043314 l 0.041728,0.2233794 A 1.8162912,1.8162912 0 0 1 6.2023543,4.2728618 1.8119823,1.8119823 0 0 1 7.71748,5.2743281 L 7.9199957,5.1729567 A 2.03831,2.03831 0 0 0 6.2152807,4.0465338 Z M 5.0816011,4.3148155 A 2.0410314,2.0410314 0 0 0 4.2470461,5.218539 l 0.1972996,0.1172463 a 1.8147037,1.8147037 0 0 1 0.739307,-0.8180001 z m 2.7844204,1.3797372 c 0.00318,0.014966 0.0059,0.03016 0.00884,0.045354 -0.00295,-0.015194 -0.00567,-0.030389 -0.00907,-0.045354 z M 4.0828564,5.756691 c -0.011793,0.068261 -0.02041,0.137656 -0.025173,0.2068246 -0.00408,0.075745 -0.00386,0.1514897 4.536e-4,0.2272349 l 0.2290491,0.013154 a 1.8088073,1.8088073 0 0 1 -0.00318,-0.2272348 1.8119823,1.8119823 0 0 1 0.017235,-0.1598806 z m 3.8167287,0.1553452 c 0.00181,0.018823 0.00363,0.037417 0.00499,0.05624 -0.00136,-0.018823 -0.00318,-0.037417 -0.00499,-0.05624 z"
     id="path31-9"
     style="stroke-width:0.396867"
     fill="#fcfcfc" />
  <path
     d="M 7.9199954,5.1729561 7.7174798,5.2743276 a 1.8031379,1.8031379 0 0 1 0.188682,0.916196 1.7904381,1.7904381 0 0 1 -0.029255,0.2256474 L 8.1041416,6.429777 C 8.1177486,6.355392 8.1272736,6.2801015 8.1324896,6.2043564 A 2.0303727,2.0303727 0 0 0 7.9199954,5.1729561 Z"
     id="path33-2"
     style="stroke-width:0.396867"
     fill="#ed1515" />
  <path
     d="m 6.5701933,6.1664847 a 0.34946993,0.34946993 0 0 1 -0.00408,0.022223 c 0.00159,-0.00726 0.00272,-0.014743 0.00408,-0.022223 z"
     fill="#fcbcbe"
     id="path37-2"
     style="stroke-width:0.396867" />
  <path
     d="m 6.3171054,6.0397139 a 0.22678127,0.22678127 0 0 1 0.00476,0.045583 0.22678127,0.22678127 0 0 1 -0.076652,0.169632 l 1.8550707,0.6184326 0.1070408,0.035834 0.07189,-0.2154423 -0.1077211,-0.035829 z"
     style="stroke-width:0.396867;fill:#ff0000"
     id="path1" />
  <circle
     cx="6.0950866"
     cy="6.0852971"
     r="0.45356253"
     id="circle43-5"
     style="stroke-width:0.396867;fill:#eff0f1;fill-opacity:1" />
  <path
     d="M 6.3218678,6.0852973 A 0.22678127,0.22678127 0 0 1 6.0950865,6.3120785 0.22678127,0.22678127 0 0 1 5.8683053,6.0852973 0.22678127,0.22678127 0 0 1 6.0950865,5.8585156 0.22678127,0.22678127 0 0 1 6.3218678,6.0852973 Z"
     fill="#31363b"
     id="path45-9"
     style="stroke-width:0.396867" />
  <path
     d="M 6.0950865,3.5907029 A 2.4945939,2.4945939 0 0 0 3.6004926,6.0852973 2.4945939,2.4945939 0 0 0 3.6916587,6.7406951 L 3.9077812,6.6817316 A 2.2678127,2.2678127 0 0 1 3.8272739,6.0852973 2.2678127,2.2678127 0 0 1 6.0950865,3.8174846 2.2678127,2.2678127 0 0 1 8.3628992,6.0852973 2.2678127,2.2678127 0 0 1 8.2787634,6.6810516 l 0.2206581,0.05987 A 2.4945939,2.4945939 0 0 0 8.5896804,6.0852973 2.4945939,2.4945939 0 0 0 6.0950865,3.5907029 Z"
     id="path47-2"
     style="fill:#a8a8a8;fill-opacity:1" />
</svg>
