<?xml version="1.0" encoding="UTF-8" standalone="no"?>
<svg
   width="45.999886"
   height="45.999989"
   version="1.1"
   viewBox="0 0 12.170564 12.170591"
   id="svg12"
   sodipodi:docname="pattern-mono.svg"
   inkscape:version="1.3.2 (091e20ef0f, 2023-11-25)"
   xmlns:inkscape="http://www.inkscape.org/namespaces/inkscape"
   xmlns:sodipodi="http://sodipodi.sourceforge.net/DTD/sodipodi-0.dtd"
   xmlns:xlink="http://www.w3.org/1999/xlink"
   xmlns="http://www.w3.org/2000/svg"
   xmlns:svg="http://www.w3.org/2000/svg">
  <defs
     id="defs16">
    <linearGradient
       id="linearGradient3"
       inkscape:collect="always">
      <stop
         style="stop-color:#c199ff;stop-opacity:1;"
         offset="0"
         id="stop2" />
      <stop
         style="stop-color:#b3efff;stop-opacity:1;"
         offset="1"
         id="stop3" />
    </linearGradient>
    <linearGradient
       id="c"
       y1="523.79999"
       x1="403.57001"
       y2="536.79999"
       x2="416.57001"
       gradientUnits="userSpaceOnUse"
       gradientTransform="matrix(0.34526714,0,0,0.34526706,-134.80427,-174.63325)">
      <stop
         stop-color="#292c2f"
         id="stop1568" />
      <stop
         offset="1"
         stop-opacity="0"
         id="stop1570" />
    </linearGradient>
    <linearGradient
       xlink:href="#b-2"
       id="linearGradient4189"
       x1="14.369"
       y1="22.521999"
       x2="26.521999"
       y2="22.521999"
       gradientUnits="userSpaceOnUse" />
    <linearGradient
       x1="36"
       gradientUnits="userSpaceOnUse"
       x2="14"
       y2="12"
       y1="44"
       id="b-2">
      <stop
         style="stop-color:#bfc9c9;stop-opacity:1"
         stop-color="#536161"
         id="stop1579" />
      <stop
         style="stop-color:#fbfbfb;stop-opacity:1"
         stop-color="#f4f5f5"
         offset="1"
         id="stop1581" />
    </linearGradient>
    <linearGradient
       xlink:href="#b-2"
       id="linearGradient4428"
       gradientUnits="userSpaceOnUse"
       x1="31.586"
       y1="36.345001"
       x2="1.2029999"
       y2="6.723" />
    <linearGradient
       xlink:href="#b-2"
       id="linearGradient4189-3"
       x1="14.369"
       y1="22.521999"
       x2="26.521999"
       y2="22.521999"
       gradientUnits="userSpaceOnUse"
       gradientTransform="translate(20.841982,61.553822)" />
    <linearGradient
       xlink:href="#b-2"
       id="linearGradient4428-5"
       gradientUnits="userSpaceOnUse"
       x1="31.586"
       y1="36.345001"
       x2="1.2029999"
       y2="6.723"
       gradientTransform="translate(20.841982,61.553822)" />
    <linearGradient
       xlink:href="#b-2"
       id="linearGradient4189-3-3"
       x1="14.369"
       y1="22.521999"
       x2="26.521999"
       y2="22.521999"
       gradientUnits="userSpaceOnUse"
       gradientTransform="translate(4.376802,4.4211693)" />
    <linearGradient
       xlink:href="#b-2"
       id="linearGradient4428-5-5"
       gradientUnits="userSpaceOnUse"
       x1="31.586"
       y1="36.345001"
       x2="1.2029999"
       y2="6.723"
       gradientTransform="translate(4.376802,4.4211693)" />
    <linearGradient
       inkscape:collect="always"
       xlink:href="#linearGradient11"
       id="linearGradient13"
       x1="-43.819283"
       y1="23.120178"
       x2="-1.9547797"
       y2="23.120178"
       gradientUnits="userSpaceOnUse"
       gradientTransform="scale(0.26457813)" />
    <linearGradient
       id="linearGradient11"
       inkscape:collect="always">
      <stop
         style="stop-color:#9955ff;stop-opacity:0.65640396;"
         offset="0"
         id="stop4-3" />
      <stop
         style="stop-color:#00ccff;stop-opacity:1"
         offset="1"
         id="stop11" />
    </linearGradient>
    <linearGradient
       inkscape:collect="always"
       xlink:href="#linearGradient14"
       id="linearGradient15"
       x1="-9.6850061"
       y1="45.161198"
       x2="11.98815"
       y2="21.735205"
       gradientUnits="userSpaceOnUse"
       gradientTransform="scale(0.26457813)" />
    <linearGradient
       id="linearGradient14"
       inkscape:collect="always">
      <stop
         style="stop-color:#9955ff;stop-opacity:0.45197046;"
         offset="0"
         id="stop12" />
      <stop
         style="stop-color:#00ccff;stop-opacity:1"
         offset="1"
         id="stop13" />
    </linearGradient>
    <linearGradient
       id="g"
       gradientUnits="userSpaceOnUse"
       x1="6"
       x2="6"
       y1="26"
       y2="6"
       gradientTransform="translate(-33.633557,-34.7247)">
      <stop
         offset="0"
         stop-color="#7f8c8d"
         id="stop4638" />
      <stop
         offset="1"
         stop-color="#fcfcfc"
         id="stop4640" />
    </linearGradient>
    <linearGradient
       id="b"
       gradientTransform="matrix(-1.0574466,-0.28334198,0.28334198,-1.0574466,15.741055,-0.892988)"
       gradientUnits="userSpaceOnUse"
       x1="-1.7690001"
       x2="-8.75"
       y1="1.988"
       y2="14.078">
      <stop
         offset="0"
         stop-color="#babec3"
         id="stop7170" />
      <stop
         offset="1"
         stop-color="#eff0f1"
         id="stop7172" />
    </linearGradient>
    <linearGradient
       inkscape:collect="always"
       xlink:href="#linearGradient3"
       id="linearGradient2"
       x1="3.4395156"
       y1="5.8207188"
       x2="8.7310781"
       y2="5.8207188"
       gradientUnits="userSpaceOnUse" />
  </defs>
  <sodipodi:namedview
     id="namedview14"
     pagecolor="#000000"
     bordercolor="#666666"
     borderopacity="1.0"
     inkscape:showpageshadow="2"
     inkscape:pageopacity="0.0"
     inkscape:pagecheckerboard="0"
     inkscape:deskcolor="#d1d1d1"
     showgrid="false"
     inkscape:zoom="5.2149125"
     inkscape:cx="23.20269"
     inkscape:cy="53.692176"
     inkscape:window-width="1920"
     inkscape:window-height="996"
     inkscape:window-x="0"
     inkscape:window-y="0"
     inkscape:window-maximized="1"
     inkscape:current-layer="svg12">
    <inkscape:grid
       type="xygrid"
       id="grid244"
       originx="9.7893915"
       originy="-31.749373"
       spacingy="1"
       spacingx="1"
       units="px"
       visible="false" />
  </sodipodi:namedview>
  <rect
     x="-12.025727"
     y="0.1490714"
     width="11.940627"
     height="11.936014"
     rx="1.6121091"
     stroke="url(#paint4_linear_77:23)"
     shape-rendering="crispEdges"
     id="rect5-6-7-3"
     ry="1.7735944"
     transform="matrix(0.00523883,-0.99998628,0.999988,0.00489859,0,0)"
     style="fill:#80b3ff;fill-opacity:0.15;stroke:url(#linearGradient13);stroke-width:0.188987;stroke-opacity:1" />
  <rect
     x="-3.7266586"
     y="4.6446943"
     width="7.912631"
     height="7.912384"
     rx="1.612043"
     shape-rendering="crispEdges"
     id="rect5-6-6-6-6"
     style="fill:#80b3ff;fill-opacity:0.122146;stroke:url(#linearGradient15);stroke-width:0.188987;stroke-opacity:1"
     ry="1.7735215"
     transform="matrix(0.72612649,-0.68756114,0.6879775,0.72573202,0,0)" />
  <path
     d="m 6.2704202,2.9103867 a 2.3488763,2.3308039 0 0 0 -0.2320634,0.010285 c -0.231586,0.024063 -0.4695386,0.080208 -0.5437498,0.1278847 -0.021228,0.013575 0.128638,0.05166 0.3859014,0.098654 0.230884,0.042115 0.399333,0.080639 0.3741243,0.08535 -0.025192,0.00504 -0.388258,-0.034347 -0.806675,-0.08766 C 4.7133776,3.0513768 4.6851056,3.049746 4.63398,3.0957843 4.5274888,3.1916363 4.3738843,3.453468 4.342314,3.5932764 4.3116774,3.7288667 4.3140579,3.7447613 4.3818929,3.8829284 4.4978018,4.1181127 4.7138442,4.2894737 5.2045887,4.5358794 5.4366496,4.6523006 5.6211145,4.7532932 5.614053,4.7600766 5.6072386,4.7668566 5.4090837,4.6929856 5.1737262,4.5964242 L 4.7463563,4.4210757 3.4395157,4.7782965 v 3.4852178 c 0,0.2590307 0.2101506,0.4675641 0.4711915,0.4675641 h 0.060314 C 4.3159279,8.2992872 5.3812861,7.02915 5.4048428,7.0342943 5.4213744,7.0378581 6.036238,7.2972937 6.7712926,7.6105604 8.0270121,8.1459252 8.1106464,8.1772551 8.1445697,8.1319 8.1959333,8.0636264 8.3726296,7.6970611 8.4661612,7.4644541 L 8.5453231,7.2671344 8.4117409,7.1946811 C 8.222319,7.0918042 7.9443182,6.8626989 7.7704476,6.6658593 7.6116563,6.486312 7.3251781,6.0533458 7.3251781,5.9927988 c 0,-0.020144 0.090937,0.071356 0.202373,0.202692 0.3123995,0.3696095 1.0323767,0.9479842 1.0776075,0.8656921 0.053718,-0.097492 0.088117,-0.3857422 0.086466,-0.720047 C 8.6893279,5.9334172 8.6357919,5.6159408 8.4941978,5.1778347 L 8.4150385,4.9321248 8.0230075,4.8098646 7.5431053,4.6600051 C 7.3737092,4.6071591 7.4792541,4.6099821 7.7270965,4.6650551 8.023481,4.7307081 8.3248048,4.7861489 8.5111596,4.809531 8.6753658,4.829884 8.7114118,4.797874 8.7288487,4.6166802 8.7512418,4.3855956 8.6011543,3.7473717 8.4496681,3.4294238 8.3891175,3.302695 8.3617926,3.2753378 8.2406945,3.2204048 7.8877784,3.0600094 6.8766049,2.9085138 6.2704202,2.9103925 Z"
     id="path7182-7-1"
     style="fill:url(#linearGradient2);fill-rule:evenodd;stroke-width:0.286884;fill-opacity:1" />
</svg>
