<?xml version="1.0" encoding="UTF-8" standalone="no"?>
<svg
   width="45.999886"
   height="45.999989"
   version="1.1"
   viewBox="0 0 12.170564 12.170591"
   id="svg12"
   sodipodi:docname="pattern-basis-devel.svg"
   inkscape:version="1.3.2 (091e20ef0f, 2023-11-25)"
   xmlns:inkscape="http://www.inkscape.org/namespaces/inkscape"
   xmlns:sodipodi="http://sodipodi.sourceforge.net/DTD/sodipodi-0.dtd"
   xmlns:xlink="http://www.w3.org/1999/xlink"
   xmlns="http://www.w3.org/2000/svg"
   xmlns:svg="http://www.w3.org/2000/svg">
  <defs
     id="defs16">
    <linearGradient
       id="c"
       y1="523.79999"
       x1="403.57001"
       y2="536.79999"
       x2="416.57001"
       gradientUnits="userSpaceOnUse"
       gradientTransform="matrix(0.34526714,0,0,0.34526706,-134.80427,-174.63325)">
      <stop
         stop-color="#292c2f"
         id="stop1568" />
      <stop
         offset="1"
         stop-opacity="0"
         id="stop1570" />
    </linearGradient>
    <linearGradient
       xlink:href="#b-2"
       id="linearGradient4189"
       x1="14.369"
       y1="22.521999"
       x2="26.521999"
       y2="22.521999"
       gradientUnits="userSpaceOnUse" />
    <linearGradient
       x1="36"
       gradientUnits="userSpaceOnUse"
       x2="14"
       y2="12"
       y1="44"
       id="b-2">
      <stop
         style="stop-color:#bfc9c9;stop-opacity:1"
         stop-color="#536161"
         id="stop1579" />
      <stop
         style="stop-color:#fbfbfb;stop-opacity:1"
         stop-color="#f4f5f5"
         offset="1"
         id="stop1581" />
    </linearGradient>
    <linearGradient
       xlink:href="#b-2"
       id="linearGradient4428"
       gradientUnits="userSpaceOnUse"
       x1="31.586"
       y1="36.345001"
       x2="1.2029999"
       y2="6.723" />
    <linearGradient
       xlink:href="#b-2"
       id="linearGradient4189-3"
       x1="14.369"
       y1="22.521999"
       x2="26.521999"
       y2="22.521999"
       gradientUnits="userSpaceOnUse"
       gradientTransform="translate(20.841982,61.553822)" />
    <linearGradient
       xlink:href="#b-2"
       id="linearGradient4428-5"
       gradientUnits="userSpaceOnUse"
       x1="31.586"
       y1="36.345001"
       x2="1.2029999"
       y2="6.723"
       gradientTransform="translate(20.841982,61.553822)" />
    <linearGradient
       xlink:href="#b-2"
       id="linearGradient4189-3-3"
       x1="14.369"
       y1="22.521999"
       x2="26.521999"
       y2="22.521999"
       gradientUnits="userSpaceOnUse"
       gradientTransform="translate(4.376802,4.4211693)" />
    <linearGradient
       xlink:href="#b-2"
       id="linearGradient4428-5-5"
       gradientUnits="userSpaceOnUse"
       x1="31.586"
       y1="36.345001"
       x2="1.2029999"
       y2="6.723"
       gradientTransform="translate(4.376802,4.4211693)" />
    <linearGradient
       inkscape:collect="always"
       xlink:href="#linearGradient11"
       id="linearGradient13"
       x1="-43.819283"
       y1="23.120178"
       x2="-1.9547797"
       y2="23.120178"
       gradientUnits="userSpaceOnUse"
       gradientTransform="scale(0.26457813)" />
    <linearGradient
       id="linearGradient11"
       inkscape:collect="always">
      <stop
         style="stop-color:#9955ff;stop-opacity:0.65640396;"
         offset="0"
         id="stop4-3" />
      <stop
         style="stop-color:#00ccff;stop-opacity:1"
         offset="1"
         id="stop11" />
    </linearGradient>
    <linearGradient
       inkscape:collect="always"
       xlink:href="#linearGradient14"
       id="linearGradient15"
       x1="-9.6850061"
       y1="45.161198"
       x2="11.98815"
       y2="21.735205"
       gradientUnits="userSpaceOnUse"
       gradientTransform="scale(0.26457813)" />
    <linearGradient
       id="linearGradient14"
       inkscape:collect="always">
      <stop
         style="stop-color:#9955ff;stop-opacity:0.45197046;"
         offset="0"
         id="stop12" />
      <stop
         style="stop-color:#00ccff;stop-opacity:1"
         offset="1"
         id="stop13" />
    </linearGradient>
    <linearGradient
       inkscape:collect="always"
       xlink:href="#a"
       id="linearGradient1441"
       gradientUnits="userSpaceOnUse"
       gradientTransform="matrix(0.12283985,0,0,0.12283985,-5.9908048,-4.2710457)"
       x1="66"
       y1="66"
       x2="66"
       y2="38" />
    <linearGradient
       id="a"
       gradientUnits="userSpaceOnUse"
       x1="66"
       x2="66"
       y1="66"
       y2="38"
       gradientTransform="matrix(1.5,0,0,1.5,-12.152542,-12.711864)">
      <stop
         offset="0"
         stop-color="#afb0b3"
         id="stop7" />
      <stop
         offset="1"
         stop-color="#bdc3c7"
         id="stop9" />
    </linearGradient>
    <linearGradient
       inkscape:collect="always"
       xlink:href="#b"
       id="linearGradient1443"
       gradientUnits="userSpaceOnUse"
       gradientTransform="matrix(0.12283985,0,0,0.12283985,-5.9908048,-4.2710457)"
       x1="66"
       y1="63"
       x2="66"
       y2="41" />
    <linearGradient
       id="b"
       gradientUnits="userSpaceOnUse"
       x1="66"
       x2="66"
       y1="63"
       y2="41"
       gradientTransform="matrix(1.5,0,0,1.5,-12.152542,-12.711864)">
      <stop
         offset="0"
         stop-color="#c0392b"
         id="stop2" />
      <stop
         offset="1"
         stop-color="#e74c3c"
         id="stop4" />
    </linearGradient>
  </defs>
  <sodipodi:namedview
     id="namedview14"
     pagecolor="#000000"
     bordercolor="#666666"
     borderopacity="1.0"
     inkscape:showpageshadow="2"
     inkscape:pageopacity="0.0"
     inkscape:pagecheckerboard="0"
     inkscape:deskcolor="#d1d1d1"
     showgrid="false"
     inkscape:zoom="5.2149125"
     inkscape:cx="23.20269"
     inkscape:cy="53.692176"
     inkscape:window-width="1920"
     inkscape:window-height="996"
     inkscape:window-x="0"
     inkscape:window-y="0"
     inkscape:window-maximized="1"
     inkscape:current-layer="svg12">
    <inkscape:grid
       type="xygrid"
       id="grid244"
       originx="9.7893915"
       originy="-31.749373"
       spacingy="1"
       spacingx="1"
       units="px"
       visible="false" />
  </sodipodi:namedview>
  <rect
     x="-12.025727"
     y="0.1490714"
     width="11.940627"
     height="11.936014"
     rx="1.6121091"
     stroke="url(#paint4_linear_77:23)"
     shape-rendering="crispEdges"
     id="rect5-6-7-3"
     ry="1.7735944"
     transform="matrix(0.00523883,-0.99998628,0.999988,0.00489859,0,0)"
     style="fill:#80b3ff;fill-opacity:0.15;stroke:url(#linearGradient13);stroke-width:0.188987;stroke-opacity:1" />
  <rect
     x="-3.7266586"
     y="4.6446943"
     width="7.912631"
     height="7.912384"
     rx="1.612043"
     shape-rendering="crispEdges"
     id="rect5-6-6-6-6"
     style="fill:#80b3ff;fill-opacity:0.122146;stroke:url(#linearGradient15);stroke-width:0.188987;stroke-opacity:1"
     ry="1.7735215"
     transform="matrix(0.72612649,-0.68756114,0.6879775,0.72573202,0,0)" />
  <path
     d="m 6.0852996,2.9103655 a 3.1749381,3.1749381 0 0 0 -0.6803442,0.07619 v 0.466943 a 2.7213757,2.7213757 0 0 0 -0.6993936,0.289608 l -0.329513,-0.329515 a 3.1749381,3.1749381 0 0 0 -0.964728,0.960192 l 0.331781,0.331782 A 2.7213757,2.7213757 0 0 0 3.4523683,5.4049585 H 2.9874665 a 3.1749381,3.1749381 0 0 0 -0.077107,0.680345 3.1749381,3.1749381 0 0 0 0.076198,0.680343 h 0.4669431 a 2.7213757,2.7213757 0 0 0 0.2895992,0.699393 l -0.3295132,0.329513 a 3.1749381,3.1749381 0 0 0 0.9601922,0.964728 l 0.331781,-0.33178 a 2.7213757,2.7213757 0 0 0 0.6993936,0.290733 v 0.464902 a 3.1749381,3.1749381 0 0 0 0.6803438,0.07709 3.1749381,3.1749381 0 0 0 0.6803438,-0.07619 v -0.466943 a 2.7213757,2.7213757 0 0 0 0.6993939,-0.289598 l 0.3295136,0.329512 a 3.1749381,3.1749381 0 0 0 0.964729,-0.96019 l -0.33178,-0.331777 a 2.7213757,2.7213757 0 0 0 0.290733,-0.699393 h 0.464902 a 3.1749381,3.1749381 0 0 0 0.0771,-0.680343 3.1749381,3.1749381 0 0 0 -0.0762,-0.680345 h -0.466942 a 2.7213757,2.7213757 0 0 0 -0.2896,-0.699393 l 0.329513,-0.329513 A 3.1749381,3.1749381 0 0 0 7.7968184,3.4113245 L 7.4650369,3.7431065 A 2.7213757,2.7213757 0 0 0 6.7656434,3.4523715 v -0.464902 a 3.1749381,3.1749381 0 0 0 -0.6803438,-0.07711 z m 1.7115175,0.500959 a 3.1749381,3.1749381 0 0 0 -1.0218759,-0.421134 3.1749381,3.1749381 0 0 1 1.0218759,0.421134 z m 1.3872224,1.993634 a 3.1749381,3.1749381 0 0 0 -0.416824,-1.011445 3.1749381,3.1749381 0 0 1 0.416824,1.011445 z m -0.424761,2.391863 a 3.1749381,3.1749381 0 0 0 0.421133,-1.021876 3.1749381,3.1749381 0 0 1 -0.421133,1.021876 z M 6.765643,9.1840425 A 3.1749381,3.1749381 0 0 0 7.7770868,8.7672195 3.1749381,3.1749381 0 0 1 6.765643,9.1840425 Z M 4.3737808,8.7592805 A 3.1749381,3.1749381 0 0 0 5.3956572,9.1804145 3.1749381,3.1749381 0 0 1 4.3737808,8.7592805 Z M 2.9865595,6.7656465 A 3.1749381,3.1749381 0 0 0 3.403384,7.7770915 3.1749381,3.1749381 0 0 1 2.9865595,6.7656465 Z m 0.4247613,-2.391863 a 3.1749381,3.1749381 0 0 0 -0.4211325,1.021878 3.1749381,3.1749381 0 0 1 0.4211325,-1.021878 z m 1.9936346,-1.38722 a 3.1749381,3.1749381 0 0 0 -1.0114446,0.416824 3.1749381,3.1749381 0 0 1 1.0114446,-0.416824 z"
     id="path12-0"
     style="fill:url(#linearGradient1441);stroke-width:0.12284" />
  <path
     d="M 6.0852996,3.5907085 A 2.4945943,2.4945943 0 0 0 4.3776361,4.2710525 H 6.538862 V 3.6337975 A 2.4945943,2.4945943 0 0 0 6.0852996,3.5907085 Z m 0.9071248,0.17099 v 0.509351 H 7.795231 A 2.4945943,2.4945943 0 0 0 6.9924244,3.7617025 Z m -2.9969149,0.962917 a 2.4945943,2.4945943 0 0 0 -0.3923316,1.133906 h 1.5749964 v -1.133906 z m 1.6362273,0 v 1.133906 H 8.5685555 A 2.4945943,2.4945943 0 0 0 8.1732752,4.7246155 Z m -2.0296926,1.587468 a 2.4945943,2.4945943 0 0 0 0.3952799,1.133908 H 6.538862 v -1.133908 z m 3.3903802,0 v 1.133908 h 1.1826654 a 2.4945943,2.4945943 0 0 0 0.3923317,-1.133908 z m -2.6170561,1.587469 a 2.4945943,2.4945943 0 0 0 0.802806,0.509352 v -0.509352 z m 1.2563685,0 v 0.637256 a 2.4945943,2.4945943 0 0 0 0.4535628,0.04309 2.4945943,2.4945943 0 0 0 1.707662,-0.680345 z"
     id="path14-9"
     style="fill:url(#linearGradient1443);stroke-width:0.12284" />
  <path
     d="M 9.7327098,8.4665003 9.5858044,8.907214 A 0.94492527,0.94493279 0 0 0 9.5352334,8.927877 L 9.1199748,8.7204283 8.852732,8.9876768 9.0605398,9.4032947 a 0.94492527,0.94493279 0 0 0 -0.021774,0.050205 L 8.5987893,9.6004173 v 0.377973 l 0.4407124,0.1469007 a 0.94492527,0.94493279 0 0 0 0.020667,0.05056 l -0.20745,0.415271 0.2672457,0.267243 0.4156148,-0.207808 a 0.94492527,0.94493279 0 0 0 0.050196,0.02174 l 0.146912,0.439982 H 10.11066 l 0.146903,-0.440717 a 0.94492527,0.94493279 0 0 0 0.05058,-0.02064 l 0.415257,0.207447 0.267244,-0.267241 -0.207807,-0.41562 a 0.94492527,0.94493279 0 0 0 0.02175,-0.05022 L 11.244572,9.9783883 V 9.6004264 l -0.440705,-0.146907 a 0.94492527,0.94493279 0 0 0 -0.02066,-0.050573 L 10.99065,8.9876887 10.723405,8.7204446 10.307788,8.9282528 a 0.94492527,0.94493279 0 0 0 -0.05021,-0.021765 L 10.110686,8.4665037 Z m 0.1889865,0.5669575 a 0.75594016,0.75594604 0 0 0 -0.063855,0.00349 0.75594016,0.75594604 0 0 1 0.063855,-0.00349 z m 0.063854,0.00349 a 0.75594016,0.75594604 0 0 1 0.03986,0.00486 0.75594016,0.75594604 0 0 0 -0.03986,-0.00486 z m -0.1675797,0.00487 a 0.75594016,0.75594604 0 0 0 -0.035063,0.00516 0.75594016,0.75594604 0 0 1 0.035063,-0.00516 z m 0.2425074,0.00516 a 0.75594016,0.75594604 0 0 1 0.04209,0.00967 0.75594016,0.75594604 0 0 0 -0.04209,-0.00967 z m -0.3196497,0.00968 a 0.75594016,0.75594604 0 0 0 -0.029163,0.00733 0.75594016,0.75594604 0 0 1 0.029163,-0.00733 z m 0.3908937,0.00733 a 0.75594016,0.75594604 0 0 1 0.04059,0.013336 0.75594016,0.75594604 0 0 0 -0.04059,-0.013336 z m -0.4606479,0.013332 a 0.75594016,0.75594604 0 0 0 -0.033961,0.012504 0.75594016,0.75594604 0 0 1 0.033961,-0.012504 z m 0.5352019,0.012504 a 0.75594016,0.75594604 0 0 1 0.03284,0.014835 0.75594016,0.75594604 0 0 0 -0.03284,-0.014835 z m -0.6020072,0.014835 a 0.75594016,0.75594604 0 0 0 -0.035074,0.016962 0.75594016,0.75594604 0 0 1 0.035074,-0.016962 z m 0.6699302,0.016962 a 0.75594016,0.75594604 0 0 1 0.031,0.017704 0.75594016,0.75594604 0 0 0 -0.031,-0.017704 z m -0.7360003,0.017701 a 0.75594016,0.75594604 0 0 0 -0.035432,0.021782 0.75594016,0.75594604 0 0 1 0.035432,-0.021782 z m 0.8024493,0.021782 a 0.75594016,0.75594604 0 0 1 0.02549,0.018455 0.75594016,0.75594604 0 0 0 -0.02549,-0.018455 z m -0.86336,0.018455 a 0.75594016,0.75594604 0 0 0 -0.035059,0.026586 0.75594016,0.75594604 0 0 1 0.035059,-0.026586 z m 0.92389,0.026586 a 0.75594016,0.75594604 0 0 1 0.0244,0.021395 0.75594016,0.75594604 0 0 0 -0.0244,-0.021395 z m -0.4794733,0.01666 A 0.56695532,0.56695974 0 0 1 10.488659,9.7897641 0.56695532,0.56695974 0 0 1 9.9217046,10.356725 0.56695532,0.56695974 0 0 1 9.3547492,9.7897641 0.56695532,0.56695974 0 0 1 9.9217047,9.2228048 Z m -0.5038336,0.00486 a 0.75594016,0.75594604 0 0 0 -0.030267,0.028067 0.75594016,0.75594604 0 0 1 0.00741,-0.00814 0.75594016,0.75594604 0 0 1 0.022885,-0.019936 z m 1.0379439,0.028067 a 0.75594016,0.75594604 0 0 1 0.0079,0.00733 0.75594016,0.75594604 0 0 1 0.01993,0.022884 0.75594016,0.75594604 0 0 0 -0.02807,-0.03027 z m -1.0962664,0.03027 a 0.75594016,0.75594604 0 0 0 -0.0214,0.024365 0.75594016,0.75594604 0 0 1 0.0214,-0.024365 z m 1.1457204,0.024365 a 0.75594016,0.75594604 0 0 1 0.02658,0.035063 0.75594016,0.75594604 0 0 0 -0.02658,-0.035063 z m -1.1937044,0.035066 a 0.75594016,0.75594604 0 0 0 -0.018458,0.025484 0.75594016,0.75594604 0 0 1 0.018458,-0.025484 z m 1.2387424,0.025484 a 0.75594016,0.75594604 0 0 1 0.02176,0.035436 0.75594016,0.75594604 0 0 0 -0.02176,-0.035436 z m -1.2789744,0.035438 a 0.75594016,0.75594604 0 0 0 -0.0177,0.031001 0.75594016,0.75594604 0 0 1 0.0177,-0.031001 z m 1.3184734,0.031001 a 0.75594016,0.75594604 0 0 1 0.01698,0.035047 0.75594016,0.75594604 0 0 0 -0.01698,-0.035047 z m -1.3531727,0.035051 a 0.75594016,0.75594604 0 0 0 -0.014765,0.03285 0.75594016,0.75594604 0 0 1 0.014765,-0.03285 z m 1.3849027,0.03285 a 0.75594016,0.75594604 0 0 1 0.01253,0.033955 0.75594016,0.75594604 0 0 0 -0.01253,-0.033955 z m -1.4122317,0.033955 a 0.75594016,0.75594604 0 0 0 -0.013282,0.040617 0.75594016,0.75594604 0 0 1 0.013282,-0.040617 z m 1.4380647,0.04062 a 0.75594016,0.75594604 0 0 1 0.0072,0.029168 0.75594016,0.75594604 0 0 0 -0.0072,-0.029168 z m -1.4587374,0.029173 a 0.75594016,0.75594604 0 0 0 -0.00962,0.042086 0.75594016,0.75594604 0 0 1 0.00962,-0.042086 z m 1.4757134,0.042086 a 0.75594016,0.75594604 0 0 1 0.0049,0.03505 0.75594016,0.75594604 0 0 0 -0.0049,-0.03505 z m -1.4904721,0.03505 a 0.75594016,0.75594604 0 0 0 -0.00475,0.039858 0.75594016,0.75594604 0 0 1 0.00475,-0.039858 z m 1.5004481,0.039858 a 0.75594016,0.75594604 0 0 1 0.0037,0.06384 0.75594016,0.75594604 0 0 0 -0.0037,-0.06384 z m -1.5085544,0.06384 a 0.75594016,0.75594604 0 0 0 0.00346,0.06384 0.75594016,0.75594604 0 0 1 -0.00346,-0.06384 z m 1.5085544,0.06384 a 0.75594016,0.75594604 0 0 1 -0.005,0.03985 0.75594016,0.75594604 0 0 0 0.005,-0.03985 z m -1.5004481,0.03985 a 0.75594016,0.75594604 0 0 0 0.00515,0.03507 0.75594016,0.75594604 0 0 1 -0.00515,-0.03507 z m 1.4904721,0.03507 a 0.75594016,0.75594604 0 0 1 -0.0096,0.042101 0.75594016,0.75594604 0 0 0 0.0096,-0.042101 z m -1.4757134,0.042101 a 0.75594016,0.75594604 0 0 0 0.00741,0.02919 0.75594016,0.75594604 0 0 1 -0.00741,-0.02919 z m 1.4587374,0.02919 a 0.75594016,0.75594604 0 0 1 -0.0133,0.04059 0.75594016,0.75594604 0 0 0 0.0133,-0.04059 z m -1.4380628,0.04059 a 0.75594016,0.75594604 0 0 0 0.012565,0.03395 0.75594016,0.75594604 0 0 1 -0.012565,-0.03395 z m 1.4122318,0.03395 a 0.75594016,0.75594604 0 0 1 -0.01475,0.03284 0.75594016,0.75594604 0 0 0 0.01475,-0.03284 z m -1.3849029,0.03284 a 0.75594016,0.75594604 0 0 0 0.016966,0.03507 0.75594016,0.75594604 0 0 1 -0.016966,-0.03507 z m 1.3531739,0.03476 a 0.75594016,0.75594604 0 0 1 -0.01768,0.031 0.75594016,0.75594604 0 0 0 0.01768,-0.031 z m -1.318475,0.03102 a 0.75594016,0.75594604 0 0 0 0.021779,0.03546 0.75594016,0.75594604 0 0 1 -0.021779,-0.03546 z m 1.278977,0.03546 a 0.75594016,0.75594604 0 0 1 -0.01847,0.02548 0.75594016,0.75594604 0 0 0 0.01847,-0.02548 z m -1.2387447,0.02548 a 0.75594016,0.75594604 0 0 0 0.02657,0.03505 0.75594016,0.75594604 0 0 1 -0.02657,-0.03505 z m 1.1937037,0.03505 a 0.75594016,0.75594604 0 0 1 -0.02142,0.02439 0.75594016,0.75594604 0 0 0 0.02142,-0.02439 z m -1.1457198,0.02439 a 0.75594016,0.75594604 0 0 0 0.028062,0.03029 0.75594016,0.75594604 0 0 1 -0.00813,-0.0071 0.75594016,0.75594604 0 0 1 -0.019933,-0.02289 z m 1.0962678,0.03029 a 0.75594016,0.75594604 0 0 1 -0.0072,0.0079 0.75594016,0.75594604 0 0 1 -0.02287,0.01993 0.75594016,0.75594604 0 0 0 0.03029,-0.02807 z m -1.0379451,0.02807 a 0.75594016,0.75594604 0 0 0 0.02437,0.02143 0.75594016,0.75594604 0 0 1 -0.02437,-0.02143 z m 0.9833071,0.02143 a 0.75594016,0.75594604 0 0 1 -0.03507,0.02656 0.75594016,0.75594604 0 0 0 0.03507,-0.02656 z m -0.9238915,0.02656 a 0.75594016,0.75594604 0 0 0 0.025477,0.01845 0.75594016,0.75594604 0 0 1 -0.025477,-0.01845 z m 0.8633605,0.01845 a 0.75594016,0.75594604 0 0 1 -0.03544,0.02176 0.75594016,0.75594604 0 0 0 0.03544,-0.02176 z m -0.8024501,0.02176 a 0.75594016,0.75594604 0 0 0 0.031009,0.01768 0.75594016,0.75594604 0 0 1 -0.031009,-0.01768 z M 10.2742,10.45767 a 0.75594016,0.75594604 0 0 1 -0.03506,0.01698 0.75594016,0.75594604 0 0 0 0.03506,-0.01698 z m -0.669931,0.01698 a 0.75594016,0.75594604 0 0 0 0.032846,0.01482 0.75594016,0.75594604 0 0 1 -0.032846,-0.01482 z m 0.602008,0.01482 a 0.75594016,0.75594604 0 0 1 -0.03395,0.01252 0.75594016,0.75594604 0 0 0 0.03395,-0.01252 z m -0.5352016,0.01252 a 0.75594016,0.75594604 0 0 0 0.040603,0.01336 0.75594016,0.75594604 0 0 1 -0.040603,-0.01336 z m 0.4606486,0.01336 a 0.75594016,0.75594604 0 0 1 -0.02919,0.0071 0.75594016,0.75594604 0 0 0 0.02919,-0.0071 z m -0.3908946,0.0071 a 0.75594016,0.75594604 0 0 0 0.042075,0.0096 0.75594016,0.75594604 0 0 1 -0.042075,-0.0096 z m 0.3196466,0.0096 a 0.75594016,0.75594604 0 0 1 -0.03507,0.0052 0.75594016,0.75594604 0 0 0 0.03507,-0.0052 z m -0.2425052,0.0052 a 0.75594016,0.75594604 0 0 0 0.039861,0.0051 0.75594016,0.75594604 0 0 1 -0.039861,-0.0051 z m 0.167578,0.0051 a 0.75594016,0.75594604 0 0 1 -0.063852,0.0038 0.75594016,0.75594604 0 0 0 0.063852,-0.0038 z"
     fill="#3d3846"
     id="path23-3"
     style="fill:#d7d4dd;fill-opacity:1;stroke-width:0.113391" />
</svg>
