<?xml version="1.0" encoding="UTF-8" standalone="no"?>
<svg
   width="45.999886"
   height="45.999989"
   version="1.1"
   viewBox="0 0 12.170564 12.170591"
   id="svg12"
   sodipodi:docname="pattern-vulkan-devel.svg"
   inkscape:version="1.3.2 (091e20ef0f, 2023-11-25)"
   xmlns:inkscape="http://www.inkscape.org/namespaces/inkscape"
   xmlns:sodipodi="http://sodipodi.sourceforge.net/DTD/sodipodi-0.dtd"
   xmlns:xlink="http://www.w3.org/1999/xlink"
   xmlns="http://www.w3.org/2000/svg"
   xmlns:svg="http://www.w3.org/2000/svg">
  <defs
     id="defs16">
    <linearGradient
       id="linearGradient3"
       inkscape:collect="always">
      <stop
         style="stop-color:#d35f8d;stop-opacity:0.76600987;"
         offset="0"
         id="stop1" />
      <stop
         style="stop-color:#c83771;stop-opacity:1"
         offset="1"
         id="stop2" />
    </linearGradient>
    <linearGradient
       id="c"
       y1="523.79999"
       x1="403.57001"
       y2="536.79999"
       x2="416.57001"
       gradientUnits="userSpaceOnUse"
       gradientTransform="matrix(0.34526714,0,0,0.34526706,-134.80427,-174.63325)">
      <stop
         stop-color="#292c2f"
         id="stop1568" />
      <stop
         offset="1"
         stop-opacity="0"
         id="stop1570" />
    </linearGradient>
    <linearGradient
       xlink:href="#b-2"
       id="linearGradient4189"
       x1="14.369"
       y1="22.521999"
       x2="26.521999"
       y2="22.521999"
       gradientUnits="userSpaceOnUse" />
    <linearGradient
       x1="36"
       gradientUnits="userSpaceOnUse"
       x2="14"
       y2="12"
       y1="44"
       id="b-2">
      <stop
         style="stop-color:#bfc9c9;stop-opacity:1"
         stop-color="#536161"
         id="stop1579" />
      <stop
         style="stop-color:#fbfbfb;stop-opacity:1"
         stop-color="#f4f5f5"
         offset="1"
         id="stop1581" />
    </linearGradient>
    <linearGradient
       xlink:href="#b-2"
       id="linearGradient4428"
       gradientUnits="userSpaceOnUse"
       x1="31.586"
       y1="36.345001"
       x2="1.2029999"
       y2="6.723" />
    <linearGradient
       xlink:href="#b-2"
       id="linearGradient4189-3"
       x1="14.369"
       y1="22.521999"
       x2="26.521999"
       y2="22.521999"
       gradientUnits="userSpaceOnUse"
       gradientTransform="translate(20.841982,61.553822)" />
    <linearGradient
       xlink:href="#b-2"
       id="linearGradient4428-5"
       gradientUnits="userSpaceOnUse"
       x1="31.586"
       y1="36.345001"
       x2="1.2029999"
       y2="6.723"
       gradientTransform="translate(20.841982,61.553822)" />
    <linearGradient
       xlink:href="#b-2"
       id="linearGradient4189-3-3"
       x1="14.369"
       y1="22.521999"
       x2="26.521999"
       y2="22.521999"
       gradientUnits="userSpaceOnUse"
       gradientTransform="translate(4.376802,4.4211693)" />
    <linearGradient
       xlink:href="#b-2"
       id="linearGradient4428-5-5"
       gradientUnits="userSpaceOnUse"
       x1="31.586"
       y1="36.345001"
       x2="1.2029999"
       y2="6.723"
       gradientTransform="translate(4.376802,4.4211693)" />
    <linearGradient
       inkscape:collect="always"
       xlink:href="#linearGradient3"
       id="linearGradient13"
       x1="-43.819283"
       y1="23.120178"
       x2="-1.9547797"
       y2="23.120178"
       gradientUnits="userSpaceOnUse"
       gradientTransform="scale(0.26457813)" />
    <linearGradient
       id="linearGradient11"
       inkscape:collect="always">
      <stop
         style="stop-color:#d35f8d;stop-opacity:1"
         offset="0"
         id="stop4-3" />
      <stop
         style="stop-color:#c83771;stop-opacity:1"
         offset="1"
         id="stop11" />
    </linearGradient>
    <filter
       id="filter2917-3"
       x="-0.96181147"
       y="-0.66745996"
       width="2.9236229"
       height="2.3349199"
       color-interpolation-filters="sRGB">
      <feGaussianBlur
         stdDeviation="0.2871969"
         id="feGaussianBlur732-5" />
    </filter>
    <filter
       id="filter1"
       x="-0.96181148"
       y="-0.66745996"
       width="2.9236228"
       height="2.3349199"
       color-interpolation-filters="sRGB">
      <feGaussianBlur
         stdDeviation="0.2871969"
         id="feGaussianBlur1" />
    </filter>
    <filter
       id="filter2"
       x="-0.96181148"
       y="-0.66745996"
       width="2.9236228"
       height="2.3349199"
       color-interpolation-filters="sRGB">
      <feGaussianBlur
         stdDeviation="0.2871969"
         id="feGaussianBlur2" />
    </filter>
    <linearGradient
       inkscape:collect="always"
       xlink:href="#linearGradient11"
       id="linearGradient2"
       x1="-3.8211522"
       y1="8.6008863"
       x2="4.2804661"
       y2="8.6008863"
       gradientUnits="userSpaceOnUse" />
    <linearGradient
       inkscape:collect="always"
       xlink:href="#b-3"
       id="linearGradient815"
       gradientUnits="userSpaceOnUse"
       gradientTransform="matrix(0.30566412,0,0,0.22641684,2.3477489,3.0155904)"
       x1="17.444"
       y1="35.000999"
       x2="17.444"
       y2="3.8" />
    <linearGradient
       id="b-3"
       gradientTransform="matrix(0.77019253,0,0,0.57051057,-35.963383,-17.968177)"
       gradientUnits="userSpaceOnUse"
       x1="17.444"
       x2="17.444"
       y1="35.000999"
       y2="3.8">
      <stop
         offset="0"
         stop-color="#c0392b"
         id="stop7" />
      <stop
         offset="1"
         stop-color="#e74c3c"
         id="stop9" />
    </linearGradient>
  </defs>
  <sodipodi:namedview
     id="namedview14"
     pagecolor="#000000"
     bordercolor="#666666"
     borderopacity="1.0"
     inkscape:showpageshadow="2"
     inkscape:pageopacity="0.0"
     inkscape:pagecheckerboard="0"
     inkscape:deskcolor="#d1d1d1"
     showgrid="false"
     inkscape:zoom="5.2149125"
     inkscape:cx="23.20269"
     inkscape:cy="53.692176"
     inkscape:window-width="1920"
     inkscape:window-height="996"
     inkscape:window-x="0"
     inkscape:window-y="0"
     inkscape:window-maximized="1"
     inkscape:current-layer="svg12">
    <inkscape:grid
       type="xygrid"
       id="grid244"
       originx="9.7893915"
       originy="-31.749373"
       spacingy="1"
       spacingx="1"
       units="px"
       visible="false" />
  </sodipodi:namedview>
  <rect
     x="-12.025727"
     y="0.1490714"
     width="11.940627"
     height="11.936014"
     rx="1.6121091"
     stroke="url(#paint4_linear_77:23)"
     shape-rendering="crispEdges"
     id="rect5-6-7-3"
     ry="1.7735944"
     transform="matrix(0.00523883,-0.99998628,0.999988,0.00489859,0,0)"
     style="fill:#80b3ff;fill-opacity:0.15;stroke:url(#linearGradient13);stroke-width:0.188987;stroke-opacity:1" />
  <rect
     x="-3.7266586"
     y="4.6446943"
     width="7.912631"
     height="7.912384"
     rx="1.612043"
     shape-rendering="crispEdges"
     id="rect5-6-6-6-6"
     style="fill:#80b3ff;fill-opacity:0.122146;stroke:url(#linearGradient2);stroke-width:0.188987;stroke-opacity:1"
     ry="1.7735215"
     transform="matrix(0.72612649,-0.68756114,0.6879775,0.72573202,0,0)" />
  <path
     d="m 3.5718048,7.6320641 h 1.7401099 v 0.966725 H 3.5718048 Z m 2.126802,0 h 2.900184 v 0.966725 H 5.6986068 Z M 3.5718048,6.2786427 H 6.4719886 V 7.2453683 H 3.5718048 Z m 3.2868756,0 H 8.5987908 V 7.2453683 H 6.8586804 Z M 3.5718048,4.9252252 H 5.3119147 V 5.8919518 H 3.5718048 Z m 2.126802,0 h 2.900184 V 5.8919518 H 5.6986068 Z M 6.8586804,3.5718048 H 8.5987908 V 4.538534 H 6.8586804 Z m -3.2868756,0 H 6.4719886 V 4.538534 H 3.5718048 Z"
     id="path14-5-5"
     style="fill:url(#linearGradient815);stroke-width:0.271701" />
  <rect
     fill="#eff0f1"
     height="2.3812034"
     ry="0.56553584"
     width="2.3812034"
     x="8.9406939"
     y="8.7847881"
     id="rect216-6-5-6-3"
     style="stroke-width:0.282768"
     rx="0.56553584" />
  <path
     d="m 9.9850875,9.0359974 -0.1082457,0.324734 a 0.69625821,0.69625821 0 0 0 -0.037262,0.01521 l -0.3059774,-0.152847 -0.1969156,0.196914 0.1531211,0.306239 a 0.69625821,0.69625821 0 0 0 -0.016045,0.03699 L 9.14957,9.8714834 v 0.2785046 l 0.3247352,0.108242 a 0.69625821,0.69625821 0 0 0 0.01523,0.03725 l -0.1528562,0.305973 0.196916,0.196915 0.3062418,-0.153125 a 0.69625821,0.69625821 0 0 0 0.036986,0.01607 l 0.1082466,0.324193 h 0.2785046 l 0.108246,-0.324737 a 0.69625821,0.69625821 0 0 0 0.03726,-0.0152 l 0.305978,0.152827 0.196915,-0.196916 -0.153121,-0.306243 a 0.69625821,0.69625821 0 0 0 0.01605,-0.03699 l 0.324191,-0.108241 V 9.8715064 l -0.324734,-0.108239 a 0.69625821,0.69625821 0 0 0 -0.01523,-0.03724 l 0.152855,-0.30598 -0.196916,-0.196916 -0.306242,0.153118 a 0.69625821,0.69625821 0 0 0 -0.03699,-0.01607 l -0.108248,-0.324193 z m 0.1392515,0.417749 a 0.55700632,0.55700632 0 0 0 -0.04706,0.0024 0.55700632,0.55700632 0 0 1 0.04706,-0.0024 z m 0.04705,0.0024 a 0.55700632,0.55700632 0 0 1 0.02937,0.0033 0.55700632,0.55700632 0 0 0 -0.02937,-0.0033 z m -0.123477,0.0033 a 0.55700632,0.55700632 0 0 0 -0.02584,0.0038 0.55700632,0.55700632 0 0 1 0.02584,-0.0038 z m 0.178688,0.0038 a 0.55700632,0.55700632 0 0 1 0.03101,0.0072 0.55700632,0.55700632 0 0 0 -0.03101,-0.0072 z m -0.2355305,0.0072 a 0.55700632,0.55700632 0 0 0 -0.021486,0.0059 0.55700632,0.55700632 0 0 1 0.021486,-0.0059 z m 0.2880275,0.0059 a 0.55700632,0.55700632 0 0 1 0.02991,0.0098 0.55700632,0.55700632 0 0 0 -0.02991,-0.0098 z m -0.3394255,0.0097 a 0.55700632,0.55700632 0 0 0 -0.025024,0.0093 0.55700632,0.55700632 0 0 1 0.025024,-0.0093 z m 0.3943605,0.0093 a 0.55700632,0.55700632 0 0 1 0.0242,0.01089 0.55700632,0.55700632 0 0 0 -0.0242,-0.01089 z m -0.4435859,0.01089 a 0.55700632,0.55700632 0 0 0 -0.025838,0.01251 0.55700632,0.55700632 0 0 1 0.025838,-0.01251 z m 0.4936329,0.01251 a 0.55700632,0.55700632 0 0 1 0.02285,0.01304 0.55700632,0.55700632 0 0 0 -0.02285,-0.01304 z m -0.5423157,0.01304 a 0.55700632,0.55700632 0 0 0 -0.026109,0.01607 0.55700632,0.55700632 0 0 1 0.026109,-0.01607 z m 0.5912767,0.01607 a 0.55700632,0.55700632 0 0 1 0.01877,0.01359 0.55700632,0.55700632 0 0 0 -0.01877,-0.01359 z m -0.636157,0.0135 a 0.55700632,0.55700632 0 0 0 -0.025838,0.0196 0.55700632,0.55700632 0 0 1 0.025838,-0.0196 z m 0.680759,0.0196 a 0.55700632,0.55700632 0 0 1 0.01796,0.01579 0.55700632,0.55700632 0 0 0 -0.01796,-0.01579 z m -0.353295,0.01226 A 0.41775489,0.41775489 0 0 1 10.542102,10.01094 0.41775489,0.41775489 0 0 1 10.124347,10.428692 0.41775489,0.41775489 0 0 1 9.7065918,10.01094 0.41775489,0.41775489 0 0 1 10.124347,9.5931854 Z m -0.3712448,0.0033 a 0.55700632,0.55700632 0 0 0 -0.022305,0.02064 0.55700632,0.55700632 0 0 1 0.00547,-0.0061 0.55700632,0.55700632 0 0 1 0.01686,-0.01467 z m 0.7647978,0.02064 a 0.55700632,0.55700632 0 0 1 0.006,0.0059 0.55700632,0.55700632 0 0 1 0.01469,0.01686 0.55700632,0.55700632 0 0 0 -0.02067,-0.02231 z m -0.8077708,0.02233 a 0.55700632,0.55700632 0 0 0 -0.015774,0.01793 0.55700632,0.55700632 0 0 1 0.015774,-0.01793 z m 0.8442128,0.01784 a 0.55700632,0.55700632 0 0 1 0.01958,0.02585 0.55700632,0.55700632 0 0 0 -0.01958,-0.02585 z m -0.8795682,0.02584 a 0.55700632,0.55700632 0 0 0 -0.0136,0.01879 0.55700632,0.55700632 0 0 1 0.0136,-0.01879 z m 0.9127522,0.01879 a 0.55700632,0.55700632 0 0 1 0.01604,0.02612 0.55700632,0.55700632 0 0 0 -0.01604,-0.02612 z m -0.942399,0.02612 a 0.55700632,0.55700632 0 0 0 -0.013058,0.02283 0.55700632,0.55700632 0 0 1 0.013058,-0.02283 z m 0.971503,0.022923 a 0.55700632,0.55700632 0 0 1 0.01251,0.02585 0.55700632,0.55700632 0 0 0 -0.01251,-0.02585 z m -0.99707,0.02579 a 0.55700632,0.55700632 0 0 0 -0.010879,0.0242 0.55700632,0.55700632 0 0 1 0.010879,-0.0242 z m 1.02045,0.0242 a 0.55700632,0.55700632 0 0 1 0.0092,0.02504 0.55700632,0.55700632 0 0 0 -0.0092,-0.02504 z m -1.0405854,0.02495 a 0.55700632,0.55700632 0 0 0 -0.0098,0.02993 0.55700632,0.55700632 0 0 1 0.0098,-0.02993 z m 1.0596214,0.02993 a 0.55700632,0.55700632 0 0 1 0.0055,0.02149 0.55700632,0.55700632 0 0 0 -0.0055,-0.02149 z m -1.074856,0.02158 a 0.55700632,0.55700632 0 0 0 -0.00711,0.03103 0.55700632,0.55700632 0 0 1 0.00711,-0.03103 z m 1.08736,0.03106 a 0.55700632,0.55700632 0 0 1 0.0038,0.02585 0.55700632,0.55700632 0 0 0 -0.0038,-0.02585 z m -1.0982355,0.02585 a 0.55700632,0.55700632 0 0 0 -0.00352,0.0294 0.55700632,0.55700632 0 0 1 0.00352,-0.0294 z m 1.1055885,0.0294 a 0.55700632,0.55700632 0 0 1 0.0024,0.04704 0.55700632,0.55700632 0 0 0 -0.0024,-0.04704 z m -1.1115627,0.04701 a 0.55700632,0.55700632 0 0 0 0.00245,0.04705 0.55700632,0.55700632 0 0 1 -0.00245,-0.04705 z m 1.1115627,0.04705 a 0.55700632,0.55700632 0 0 1 -0.0035,0.02939 0.55700632,0.55700632 0 0 0 0.0035,-0.02939 z m -1.1055885,0.02939 a 0.55700632,0.55700632 0 0 0 0.00381,0.02585 0.55700632,0.55700632 0 0 1 -0.00381,-0.02585 z m 1.0982355,0.02581 a 0.55700632,0.55700632 0 0 1 -0.0071,0.03102 0.55700632,0.55700632 0 0 0 0.0071,-0.03102 z m -1.0873603,0.03111 a 0.55700632,0.55700632 0 0 0 0.00547,0.02149 0.55700632,0.55700632 0 0 1 -0.00547,-0.02149 z m 1.0748563,0.02149 a 0.55700632,0.55700632 0 0 1 -0.0098,0.02992 0.55700632,0.55700632 0 0 0 0.0098,-0.02992 z m -1.0596222,0.02992 a 0.55700632,0.55700632 0 0 0 0.00924,0.02504 0.55700632,0.55700632 0 0 1 -0.00924,-0.02504 z m 1.0405862,0.02504 a 0.55700632,0.55700632 0 0 1 -0.01088,0.0242 0.55700632,0.55700632 0 0 0 0.01088,-0.0242 z m -1.0204504,0.0242 a 0.55700632,0.55700632 0 0 0 0.012511,0.02586 0.55700632,0.55700632 0 0 1 -0.012511,-0.02586 z m 0.9970694,0.02586 a 0.55700632,0.55700632 0 0 1 -0.01306,0.02283 0.55700632,0.55700632 0 0 0 0.01306,-0.02283 z m -0.9715027,0.02283 a 0.55700632,0.55700632 0 0 0 0.016046,0.02612 0.55700632,0.55700632 0 0 1 -0.016046,-0.02612 z m 0.9423997,0.02612 a 0.55700632,0.55700632 0 0 1 -0.0136,0.01878 0.55700632,0.55700632 0 0 0 0.0136,-0.01878 z m -0.9127529,0.01878 a 0.55700632,0.55700632 0 0 0 0.019581,0.02585 0.55700632,0.55700632 0 0 1 -0.019581,-0.02585 z m 0.8795689,0.02585 a 0.55700632,0.55700632 0 0 1 -0.01577,0.01792 0.55700632,0.55700632 0 0 0 0.01577,-0.01792 z m -0.8442134,0.01794 a 0.55700632,0.55700632 0 0 0 0.020672,0.02232 0.55700632,0.55700632 0 0 1 -0.00599,-0.0059 0.55700632,0.55700632 0 0 1 -0.014685,-0.01686 z m 0.8077714,0.02232 a 0.55700632,0.55700632 0 0 1 -0.0055,0.0061 0.55700632,0.55700632 0 0 1 -0.01686,0.01467 0.55700632,0.55700632 0 0 0 0.0223,-0.02064 z m -0.764796,0.02072 a 0.55700632,0.55700632 0 0 0 0.017956,0.01576 0.55700632,0.55700632 0 0 1 -0.017956,-0.01576 z m 0.72454,0.01576 a 0.55700632,0.55700632 0 0 1 -0.02584,0.01959 0.55700632,0.55700632 0 0 0 0.02584,-0.01959 z m -0.6807593,0.01959 a 0.55700632,0.55700632 0 0 0 0.018767,0.01361 0.55700632,0.55700632 0 0 1 -0.018767,-0.01361 z m 0.6361573,0.01361 a 0.55700632,0.55700632 0 0 1 -0.02611,0.01607 0.55700632,0.55700632 0 0 0 0.02611,-0.01607 z m -0.5912767,0.01607 a 0.55700632,0.55700632 0 0 0 0.022848,0.01304 0.55700632,0.55700632 0 0 1 -0.022848,-0.01304 z m 0.5423157,0.01304 a 0.55700632,0.55700632 0 0 1 -0.02584,0.01252 0.55700632,0.55700632 0 0 0 0.02584,-0.01252 z m -0.4936336,0.01257 a 0.55700632,0.55700632 0 0 0 0.024203,0.01089 0.55700632,0.55700632 0 0 1 -0.024203,-0.01089 z m 0.4435866,0.01089 a 0.55700632,0.55700632 0 0 1 -0.02502,0.0093 0.55700632,0.55700632 0 0 0 0.02502,-0.0093 z m -0.3943612,0.0092 a 0.55700632,0.55700632 0 0 0 0.029915,0.0098 0.55700632,0.55700632 0 0 1 -0.029915,-0.0098 z m 0.3394262,0.0098 a 0.55700632,0.55700632 0 0 1 -0.02149,0.0059 0.55700632,0.55700632 0 0 0 0.02149,-0.0059 z m -0.2880285,0.0059 a 0.55700632,0.55700632 0 0 0 0.031009,0.0072 0.55700632,0.55700632 0 0 1 -0.031009,-0.0072 z m 0.2355305,0.0072 a 0.55700632,0.55700632 0 0 1 -0.02584,0.0038 0.55700632,0.55700632 0 0 0 0.02584,-0.0038 z m -0.178688,0.0038 a 0.55700632,0.55700632 0 0 0 0.02937,0.0033 0.55700632,0.55700632 0 0 1 -0.02937,-0.0033 z m 0.123477,0.0033 a 0.55700632,0.55700632 0 0 1 -0.04705,0.0024 0.55700632,0.55700632 0 0 0 0.04705,-0.0024 z"
     fill="#3d3846"
     id="path23-3"
     style="stroke-width:0.264578" />
</svg>
