<?xml version="1.0" encoding="UTF-8" standalone="no"?>
<svg
   width="45.999886"
   height="45.999989"
   version="1.1"
   viewBox="0 0 12.170564 12.170591"
   id="svg12"
   sodipodi:docname="pattern-gnome-wayland.svg"
   inkscape:version="1.3.2 (091e20ef0f, 2023-11-25)"
   xmlns:inkscape="http://www.inkscape.org/namespaces/inkscape"
   xmlns:sodipodi="http://sodipodi.sourceforge.net/DTD/sodipodi-0.dtd"
   xmlns:xlink="http://www.w3.org/1999/xlink"
   xmlns="http://www.w3.org/2000/svg"
   xmlns:svg="http://www.w3.org/2000/svg">
  <defs
     id="defs16">
    <linearGradient
       id="linearGradient8"
       inkscape:collect="always">
      <stop
         style="stop-color:#d38d5f;stop-opacity:1"
         offset="0"
         id="stop8" />
      <stop
         style="stop-color:#ffccaa;stop-opacity:1"
         offset="1"
         id="stop9" />
    </linearGradient>
    <linearGradient
       id="linearGradient7"
       inkscape:collect="always">
      <stop
         style="stop-color:#ff9955;stop-opacity:0.46059114;"
         offset="0"
         id="stop6" />
      <stop
         style="stop-color:#ffb583;stop-opacity:0.83137256;"
         offset="1"
         id="stop7" />
    </linearGradient>
    <linearGradient
       id="c"
       y1="523.79999"
       x1="403.57001"
       y2="536.79999"
       x2="416.57001"
       gradientUnits="userSpaceOnUse"
       gradientTransform="matrix(0.34526714,0,0,0.34526706,-134.80427,-174.63325)">
      <stop
         stop-color="#292c2f"
         id="stop1568" />
      <stop
         offset="1"
         stop-opacity="0"
         id="stop1570" />
    </linearGradient>
    <linearGradient
       xlink:href="#b-2"
       id="linearGradient4189"
       x1="14.369"
       y1="22.521999"
       x2="26.521999"
       y2="22.521999"
       gradientUnits="userSpaceOnUse" />
    <linearGradient
       x1="36"
       gradientUnits="userSpaceOnUse"
       x2="14"
       y2="12"
       y1="44"
       id="b-2">
      <stop
         style="stop-color:#bfc9c9;stop-opacity:1"
         stop-color="#536161"
         id="stop1579" />
      <stop
         style="stop-color:#fbfbfb;stop-opacity:1"
         stop-color="#f4f5f5"
         offset="1"
         id="stop1581" />
    </linearGradient>
    <linearGradient
       xlink:href="#b-2"
       id="linearGradient4428"
       gradientUnits="userSpaceOnUse"
       x1="31.586"
       y1="36.345001"
       x2="1.2029999"
       y2="6.723" />
    <linearGradient
       xlink:href="#b-2"
       id="linearGradient4189-3"
       x1="14.369"
       y1="22.521999"
       x2="26.521999"
       y2="22.521999"
       gradientUnits="userSpaceOnUse"
       gradientTransform="translate(20.841982,61.553822)" />
    <linearGradient
       xlink:href="#b-2"
       id="linearGradient4428-5"
       gradientUnits="userSpaceOnUse"
       x1="31.586"
       y1="36.345001"
       x2="1.2029999"
       y2="6.723"
       gradientTransform="translate(20.841982,61.553822)" />
    <linearGradient
       xlink:href="#b-2"
       id="linearGradient4189-3-3"
       x1="14.369"
       y1="22.521999"
       x2="26.521999"
       y2="22.521999"
       gradientUnits="userSpaceOnUse"
       gradientTransform="translate(4.376802,4.4211693)" />
    <linearGradient
       xlink:href="#b-2"
       id="linearGradient4428-5-5"
       gradientUnits="userSpaceOnUse"
       x1="31.586"
       y1="36.345001"
       x2="1.2029999"
       y2="6.723"
       gradientTransform="translate(4.376802,4.4211693)" />
    <linearGradient
       inkscape:collect="always"
       xlink:href="#linearGradient14"
       id="linearGradient15"
       x1="-9.6850061"
       y1="45.161198"
       x2="11.98815"
       y2="21.735205"
       gradientUnits="userSpaceOnUse"
       gradientTransform="scale(0.26457813)" />
    <linearGradient
       id="linearGradient14"
       inkscape:collect="always">
      <stop
         style="stop-color:#ff9900;stop-opacity:0.34509805;"
         offset="0"
         id="stop12" />
      <stop
         style="stop-color:#ffb685;stop-opacity:0.81568629;"
         offset="1"
         id="stop13" />
    </linearGradient>
    <filter
       id="filter2917-3"
       x="-0.96181147"
       y="-0.66745996"
       width="2.9236229"
       height="2.3349199"
       color-interpolation-filters="sRGB">
      <feGaussianBlur
         stdDeviation="0.2871969"
         id="feGaussianBlur732-5" />
    </filter>
    <filter
       id="filter1"
       x="-0.96181148"
       y="-0.66745996"
       width="2.9236228"
       height="2.3349199"
       color-interpolation-filters="sRGB">
      <feGaussianBlur
         stdDeviation="0.2871969"
         id="feGaussianBlur1" />
    </filter>
    <filter
       id="filter2"
       x="-0.96181148"
       y="-0.66745996"
       width="2.9236228"
       height="2.3349199"
       color-interpolation-filters="sRGB">
      <feGaussianBlur
         stdDeviation="0.2871969"
         id="feGaussianBlur2" />
    </filter>
    <linearGradient
       id="_lgradient_20"
       x1="-0.29991642"
       y1="-0.26140401"
       x2="0.96725708"
       y2="0.86616999"
       gradientTransform="matrix(15.137397,0,0,16.82717,0.89780187,0.05291536)"
       gradientUnits="userSpaceOnUse">
      <stop
         offset="34.94098066785295%"
         stop-opacity="1"
         style="stop-color:rgb(178,229,107)"
         id="stop1" />
      <stop
         offset="53.84922244785295%"
         stop-opacity="1"
         style="stop-color:rgb(194,233,100)"
         id="stop2" />
      <stop
         offset="90.40515655585295%"
         stop-opacity="1"
         style="stop-color:rgb(236,244,81)"
         id="stop3" />
      <stop
         offset="100%"
         stop-opacity="1"
         style="stop-color:rgb(250,247,75)"
         id="stop4" />
    </linearGradient>
    <linearGradient
       inkscape:collect="always"
       xlink:href="#linearGradient7"
       id="linearGradient6"
       x1="-12.120221"
       y1="6.1170783"
       x2="0.0093933269"
       y2="6.1170783"
       gradientUnits="userSpaceOnUse" />
    <linearGradient
       id="b-2-5"
       y1="35.825909"
       y2="-4.1468086"
       gradientUnits="userSpaceOnUse"
       x2="1.525889"
       gradientTransform="matrix(0.18808708,0,0,0.18779368,2.9505234,2.8105876)"
       x1="0.19073613">
      <stop
         stop-color="#d35400"
         id="stop7-9-6"
         offset="0"
         style="stop-color:#ff9e5e;stop-opacity:1;" />
      <stop
         offset="1"
         stop-color="#f67400"
         stop-opacity=".941"
         id="stop9-1-2" />
    </linearGradient>
    <linearGradient
       id="linearGradient4308">
      <stop
         style="stop-color:#884d2c;stop-opacity:1"
         offset="0"
         id="stop363" />
      <stop
         style="stop-color:#ffc169;stop-opacity:1"
         offset="1"
         id="stop365" />
    </linearGradient>
    <linearGradient
       id="linearGradient4513">
      <stop
         style="stop-color:#000000;stop-opacity:1;"
         offset="0"
         id="stop353" />
      <stop
         style="stop-color:#000000;stop-opacity:0;"
         offset="1"
         id="stop355" />
    </linearGradient>
    <linearGradient
       id="linearGradient4325">
      <stop
         offset="0"
         style="stop-color:#2a2c2f;stop-opacity:1"
         id="stop358" />
      <stop
         offset="1"
         style="stop-color:#424649;stop-opacity:1"
         id="stop360" />
    </linearGradient>
    <linearGradient
       id="a"
       gradientUnits="userSpaceOnUse"
       x1="25"
       x2="25"
       y1="6"
       y2="26">
      <stop
         offset="0"
         id="stop1047" />
      <stop
         offset="1"
         stop-color="#292c2f"
         id="stop1049" />
    </linearGradient>
    <linearGradient
       inkscape:collect="always"
       xlink:href="#linearGradient8"
       id="linearGradient10"
       gradientUnits="userSpaceOnUse"
       x1="6.3140001"
       y1="3.1973591"
       x2="6.3859825"
       y2="9.5113592"
       gradientTransform="translate(0.11210939,0.10089806)" />
    <linearGradient
       inkscape:collect="always"
       xlink:href="#linearGradient8"
       id="linearGradient11"
       gradientUnits="userSpaceOnUse"
       x1="6.3140001"
       y1="3.1973591"
       x2="6.3859825"
       y2="9.5113592"
       gradientTransform="translate(0.11210939,0.10089806)" />
    <linearGradient
       inkscape:collect="always"
       xlink:href="#linearGradient8"
       id="linearGradient12"
       gradientUnits="userSpaceOnUse"
       x1="6.3140001"
       y1="3.1973591"
       x2="6.3859825"
       y2="9.5113592"
       gradientTransform="translate(0.11210939,0.10089806)" />
    <linearGradient
       inkscape:collect="always"
       xlink:href="#linearGradient8"
       id="linearGradient13"
       gradientUnits="userSpaceOnUse"
       x1="6.3140001"
       y1="3.1973591"
       x2="6.3859825"
       y2="9.5113592"
       gradientTransform="translate(0.11210939,0.10089806)" />
    <linearGradient
       inkscape:collect="always"
       xlink:href="#linearGradient8"
       id="linearGradient16"
       gradientUnits="userSpaceOnUse"
       x1="6.3140001"
       y1="3.1973591"
       x2="6.3859825"
       y2="9.5113592"
       gradientTransform="translate(0.11210939,0.10089806)" />
  </defs>
  <sodipodi:namedview
     id="namedview14"
     pagecolor="#000000"
     bordercolor="#666666"
     borderopacity="1.0"
     inkscape:showpageshadow="2"
     inkscape:pageopacity="0.0"
     inkscape:pagecheckerboard="0"
     inkscape:deskcolor="#d1d1d1"
     showgrid="false"
     inkscape:zoom="7.375"
     inkscape:cx="19.79661"
     inkscape:cy="48.271186"
     inkscape:window-width="1920"
     inkscape:window-height="996"
     inkscape:window-x="0"
     inkscape:window-y="0"
     inkscape:window-maximized="1"
     inkscape:current-layer="svg12">
    <inkscape:grid
       type="xygrid"
       id="grid244"
       originx="9.7893915"
       originy="-31.749373"
       spacingy="1"
       spacingx="1"
       units="px"
       visible="false" />
  </sodipodi:namedview>
  <rect
     x="-12.025727"
     y="0.1490714"
     width="11.940627"
     height="11.936014"
     rx="1.6121091"
     stroke="url(#paint4_linear_77:23)"
     shape-rendering="crispEdges"
     id="rect5-6-7-3"
     ry="1.7735944"
     transform="matrix(0.00523883,-0.99998628,0.999988,0.00489859,0,0)"
     style="fill:#ffe0cc;fill-opacity:0.09803922;stroke:url(#linearGradient6);stroke-width:0.188987;stroke-opacity:1" />
  <rect
     x="-3.7266586"
     y="4.6446943"
     width="7.912631"
     height="7.912384"
     rx="1.612043"
     shape-rendering="crispEdges"
     id="rect5-6-6-6-6"
     style="fill:#ffc299;fill-opacity:0.10196079;stroke:url(#linearGradient15);stroke-width:0.188987;stroke-opacity:1"
     ry="1.7735215"
     transform="matrix(0.72612649,-0.68756114,0.6879775,0.72573202,0,0)" />
  <g
     id="g8"
     transform="translate(-0.11210939,-0.10089806)">
    <path
       d="m 8.1731095,3.1435466 c -1.3207739,0 -1.5687369,1.881473 -0.8254837,1.881473 0.7429357,0 2.1465757,-1.881473 0.8254837,-1.881473 z"
       id="path21-5-9-3"
       style="fill:url(#linearGradient10);fill-opacity:1;stroke-width:0.396867" />
    <path
       d="m 5.9795453,4.7919786 c 0.3959147,0.02416 0.8299285,-1.510006 0.086358,-1.41349 -0.7435703,0.09653 -0.4819552,1.38935 -0.086358,1.41349 z"
       id="path23-3-2-1"
       style="fill:url(#linearGradient11);fill-opacity:1;stroke-width:0.396867" />
    <path
       d="m 4.1663384,5.7450906 c 0.2812989,-0.123823 0.036194,-1.33538 -0.442269,-1.004868 -0.4784631,0.330192 0.1609692,1.12869 0.442269,1.004868 z"
       id="path25-5-2-9"
       style="fill:url(#linearGradient12);fill-opacity:1;stroke-width:0.396867" />
    <path
       d="M 4.95912,5.1110526 C 5.2943937,5.0427876 5.3124909,3.6686846 4.7152849,3.9150546 4.1177617,4.1617506 4.6244803,5.1793176 4.95912,5.1110526 Z"
       id="path27-6-8-4"
       style="fill:url(#linearGradient13);fill-opacity:1;stroke-width:0.396867" />
    <path
       d="M 6.7085105,8.1859846 C 6.7678842,8.6399956 6.37546,8.8641476 5.990975,8.5717416 4.7676712,7.6402146 8.0169028,7.1754006 7.8029118,5.9025626 7.6251155,4.8462636 4.3835039,5.1713806 4.014576,6.8242516 c -0.24955,1.118215 1.0286801,2.66917 2.3621537,2.66917 0.6562597,0 1.4128477,-0.592442 1.5547672,-1.342999 0.1079482,-0.57244 -1.2725151,-0.342893 -1.2229864,0.03557 z"
       id="path29-2-9-7"
       style="fill:url(#linearGradient16);fill-opacity:1;stroke-width:0.396867" />
  </g>
  <rect
     fill="#eff0f1"
     height="2.6457818"
     rx="1.6933004"
     width="2.6457818"
     x="8.7924604"
     y="8.8427305"
     id="rect251-3-3"
     style="stroke-width:0.211663"
     ry="1.6933004" />
  <path
     d="m 10.902472,9.1734557 c 0.04068,0 0.06366,0.03073 0.06846,0.09242 l -0.03423,0.290211 h 0.01257 l 0.02695,-0.0215 h 0.0073 v 0.0063 c -0.03721,0.02715 -0.07325,0.101698 -0.108144,0.223403 a 1.4037525,1.4037525 0 0 1 -0.06681,0.2902113 0.88402183,0.88402183 0 0 0 -0.04134,0.25383 l -0.05242,0.152657 c 0,0.01287 0.01985,0.02576 0.05953,0.03867 -0.0072,0.03012 -0.01802,0.04518 -0.03242,0.04518 v 0.0083 h 0.01256 v 0.0061 c 0,0.01568 -0.02035,0.02361 -0.06118,0.02361 l 0.0072,0.0084 v 0.03012 h -0.01257 c 0.0083,0.03012 0.02646,0.04518 0.05407,0.04518 v 0.01485 h -0.05407 v 0.0086 c 0.01802,0 0.02696,0.01287 0.02696,0.03867 l -0.07574,0.03012 0.0073,0.0084 v 0.0061 c 0,0.0099 -0.0089,0.01485 -0.02695,0.01485 v 0.0086 c 0.02282,0 0.03423,0.0049 0.03423,0.01485 -0.03258,0.01308 -0.07524,0.07686 -0.127991,0.19149 -0.05425,0.101803 -0.101044,0.152731 -0.140564,0.152731 h -0.01457 c -0.03012,-0.02241 -0.05459,-0.09833 -0.07395,-0.227309 -0.07689,-0.196453 -0.115421,-0.311708 -0.115421,-0.346102 0,-0.08896 -0.02464,-0.183552 -0.07392,-0.283763 a 0.79935666,0.79935666 0 0 1 -0.02713,-0.167465 l -0.03241,-0.0084 c -0.081678,0.147863 -0.1243416,0.263286 -0.127981,0.346462 A 0.75074046,0.75074046 0 0 0 9.86572,10.645511 c 0.049276,0.01568 0.073921,0.03073 0.073921,0.04518 v 0.0083 c -0.038533,-0.0052 -0.065481,-0.01651 -0.08103,-0.03226 -0.017044,0.03867 -0.039188,0.146176 -0.066808,0.32245 -0.021653,0.08168 -0.048778,0.122536 -0.08103,0.122536 A 0.5192346,0.5192346 0 0 1 9.4815217,10.936154 c -0.0096,0 -0.025139,-0.0408 -0.046795,-0.122535 -0.013231,0 -0.02233,-0.0408 -0.027119,-0.122533 -0.04564,-0.116084 -0.076887,-0.248703 -0.093758,-0.397693 v -0.223899 h -0.00715 l -0.032414,0.0083 v -0.0083 c 0,-0.0099 0.010747,-0.01485 0.032414,-0.01485 l -0.00728,-0.1289823 v -0.101026 l -0.052241,-0.322456 v -0.137585 c 0.022829,-0.08598 0.06251,-0.128978 0.11906,-0.128978 0,0 0.00494,-3.49e-4 0.021501,0.02149 l -0.021501,-0.0061 c 0.087643,0.114594 0.1394014,0.21133 0.1549426,0.290209 h 0.061353 v 0.01506 h -0.046775 v 0.01723 c 0.018022,0.06597 0.03125,0.09889 0.039683,0.09889 h 0.01439 l 0.032414,-0.0083 0.0073,0.0083 0.00715,-0.0083 0.00729,0.0083 v 0.0063 a 0.12600537,0.12600537 0 0 0 -0.048777,0.07075 h -0.00531 v 0.01506 h 0.012562 c 0.016857,0.2394393 0.047955,0.4206773 0.093759,0.5440363 l 0.027101,0.02151 h 0.01438 c 0.018023,0 0.055891,-0.08381 0.113604,-0.251683 0.037208,-0.07587 0.064328,-0.1425353 0.081028,-0.1999193 l -0.00715,-0.02361 c 0.037216,-0.05586 0.075746,-0.08381 0.1154277,-0.08381 h 0.01258 c 0.02514,0 0.04333,0.01584 0.05407,0.04731 0.03357,0.04732 0.06069,0.118236 0.08103,0.2128223 l 0.101034,0.223729 a 0.08102708,0.08102708 0 0 1 0.01984,0.0537 c 0.03721,0.0845 0.07094,0.140393 0.10087,0.167682 h 0.02183 c 0.02514,0 0.05887,-0.10468 0.100872,-0.314025 0.0073,0 0.02711,-0.05586 0.05953,-0.167672 v -0.0084 l -0.113605,-0.01485 -0.02695,0.0082 h -0.03439 v -0.01725 l 0.06863,-0.0061 H 10.6194 c 0.05159,-0.184873 0.09922,-0.328075 0.142211,-0.429938 0.01455,-0.209182 0.03439,-0.313855 0.05953,-0.313855 z m -0.68691,0.18487 h 0.01985 v 0.0063 c 0,0.0099 -0.0066,0.01485 -0.01985,0.01485 l -0.0071,0.0083 v 0.0083 l -0.01985,-0.0083 v -0.01485 z m -0.100872,0.08381 v 0.0083 c 0,0.01155 -0.02893,0.02361 -0.08665,0.03653 v -0.01485 l 0.03968,-0.02146 0.0073,0.0058 h 0.0053 l 0.03439,-0.01485 m -0.194798,0.07728 v 0.0063 c -0.025284,0.02277 -0.066148,0.04362 -0.1225299,0.06222 v -0.01485 c 0.00959,0 0.014388,-0.0075 0.014388,-0.02377 z m 0.342628,0.07526 0.0072,0.0083 v 0.0063 l -0.01258,0.01704 h -0.0073 l -0.01439,-0.01723 v -0.0061 z m 0.248704,0.0083 h 0.0073 v 0.0063 l -0.01255,0.01704 h -0.0073 v -0.0083 l 0.01258,-0.01485 m -0.113605,0.107485 0.02712,0.02149 c -0.0049,0.01569 -0.01818,0.02351 -0.03968,0.02351 l -0.0144,-0.02355 c 0,-0.0069 0.0089,-0.01426 0.02695,-0.02149 m 0.162386,0.09889 0.0053,0.0083 v 0.0063 l -0.0053,0.0082 h -0.01472 v -0.0083 z m -0.25615,0.07745 v 0.0063 l -0.03423,0.0321 h -0.01985 v -0.0084 c 0,-0.01287 0.0182,-0.02277 0.05407,-0.03012 m -0.236146,0.6580433 h 0.0073 v 0.01485 l -0.05407,0.03244 -0.0073,-0.0083 v -0.01506 z m -0.01985,0.199921 h 0.0055 l 0.02149,0.02361 -0.0071,0.0061 h -0.0073 l -0.01257,-0.02152 z"
     fill="#232629"
     id="path253-6-6"
     style="stroke-width:0.211663" />
</svg>
