<?xml version="1.0" encoding="UTF-8" standalone="no"?>
<svg
   width="45.999886"
   height="45.999989"
   version="1.1"
   viewBox="0 0 12.170564 12.170591"
   id="svg12"
   sodipodi:docname="plasma-media-center.svg"
   inkscape:version="1.3.2 (091e20ef0f, 2023-11-25)"
   xmlns:inkscape="http://www.inkscape.org/namespaces/inkscape"
   xmlns:sodipodi="http://sodipodi.sourceforge.net/DTD/sodipodi-0.dtd"
   xmlns:xlink="http://www.w3.org/1999/xlink"
   xmlns="http://www.w3.org/2000/svg"
   xmlns:svg="http://www.w3.org/2000/svg">
  <defs
     id="defs16">
    <linearGradient
       id="c"
       y1="523.79999"
       x1="403.57001"
       y2="536.79999"
       x2="416.57001"
       gradientUnits="userSpaceOnUse"
       gradientTransform="matrix(0.34526714,0,0,0.34526706,-134.80427,-174.63325)">
      <stop
         stop-color="#292c2f"
         id="stop1568" />
      <stop
         offset="1"
         stop-opacity="0"
         id="stop1570" />
    </linearGradient>
    <linearGradient
       xlink:href="#b-2"
       id="linearGradient4189"
       x1="14.369"
       y1="22.521999"
       x2="26.521999"
       y2="22.521999"
       gradientUnits="userSpaceOnUse" />
    <linearGradient
       x1="36"
       gradientUnits="userSpaceOnUse"
       x2="14"
       y2="12"
       y1="44"
       id="b-2">
      <stop
         style="stop-color:#bfc9c9;stop-opacity:1"
         stop-color="#536161"
         id="stop1579" />
      <stop
         style="stop-color:#fbfbfb;stop-opacity:1"
         stop-color="#f4f5f5"
         offset="1"
         id="stop1581" />
    </linearGradient>
    <linearGradient
       xlink:href="#b-2"
       id="linearGradient4428"
       gradientUnits="userSpaceOnUse"
       x1="31.586"
       y1="36.345001"
       x2="1.2029999"
       y2="6.723" />
    <linearGradient
       xlink:href="#b-2"
       id="linearGradient4189-3"
       x1="14.369"
       y1="22.521999"
       x2="26.521999"
       y2="22.521999"
       gradientUnits="userSpaceOnUse"
       gradientTransform="translate(20.841982,61.553822)" />
    <linearGradient
       xlink:href="#b-2"
       id="linearGradient4428-5"
       gradientUnits="userSpaceOnUse"
       x1="31.586"
       y1="36.345001"
       x2="1.2029999"
       y2="6.723"
       gradientTransform="translate(20.841982,61.553822)" />
    <linearGradient
       xlink:href="#b-2"
       id="linearGradient4189-3-3"
       x1="14.369"
       y1="22.521999"
       x2="26.521999"
       y2="22.521999"
       gradientUnits="userSpaceOnUse"
       gradientTransform="translate(4.376802,4.4211693)" />
    <linearGradient
       xlink:href="#b-2"
       id="linearGradient4428-5-5"
       gradientUnits="userSpaceOnUse"
       x1="31.586"
       y1="36.345001"
       x2="1.2029999"
       y2="6.723"
       gradientTransform="translate(4.376802,4.4211693)" />
    <linearGradient
       inkscape:collect="always"
       xlink:href="#linearGradient11"
       id="linearGradient13"
       x1="-43.819283"
       y1="23.120178"
       x2="-1.9547797"
       y2="23.120178"
       gradientUnits="userSpaceOnUse"
       gradientTransform="scale(0.26457813)" />
    <linearGradient
       id="linearGradient11"
       inkscape:collect="always">
      <stop
         style="stop-color:#80b3ff;stop-opacity:0.73275864;"
         offset="0"
         id="stop4-3" />
      <stop
         style="stop-color:#2a7fff;stop-opacity:1"
         offset="1"
         id="stop11" />
    </linearGradient>
    <filter
       id="d-7"
       x="-0.036"
       y="-0.03600006"
       width="1.072"
       height="1.0720001"
       color-interpolation-filters="sRGB">
      <feGaussianBlur
         stdDeviation="9"
         id="feGaussianBlur238-5" />
    </filter>
    <linearGradient
       id="paint1_linear_41_121"
       x1="11.9599"
       y1="21"
       x2="11.9599"
       y2="3"
       gradientUnits="userSpaceOnUse"
       gradientTransform="scale(0.26457819)">
      <stop
         stop-color="#FD4C00"
         id="stop5" />
      <stop
         offset="1"
         stop-color="#FFB800"
         id="stop6" />
    </linearGradient>
    <linearGradient
       inkscape:collect="always"
       xlink:href="#linearGradient11"
       id="linearGradient2"
       x1="-3.8211522"
       y1="8.6008863"
       x2="4.2804661"
       y2="8.6008863"
       gradientUnits="userSpaceOnUse" />
    <linearGradient
       id="a-1-2-2"
       y1="510.79999"
       y2="527.14001"
       gradientUnits="userSpaceOnUse"
       x2="0"
       gradientTransform="matrix(1.2378066,0,0,1.231,-93.270747,-117.26405)">
      <stop
         stop-color="#7cbaf8"
         id="stop2-2-7-7" />
      <stop
         offset="1"
         stop-color="#f4fcff"
         id="stop4-70-0-0" />
    </linearGradient>
    <linearGradient
       id="c-93"
       y1="503.79999"
       x1="400.57001"
       y2="519.79999"
       x2="416.57001"
       gradientUnits="userSpaceOnUse"
       gradientTransform="matrix(1.2378066,0,0,1.231,-89.070362,-114.83858)">
      <stop
         stop-color="#292c2f"
         id="stop12-6" />
      <stop
         offset="1"
         stop-opacity="0"
         id="stop14-0" />
    </linearGradient>
    <linearGradient
       id="b-6"
       y1="542.79999"
       x1="408.57001"
       y2="521.79999"
       x2="387.57001"
       gradientUnits="userSpaceOnUse"
       gradientTransform="matrix(1.2378066,0,0,1.231,-473.64035,-614.6386)">
      <stop
         stop-color="#197cf1"
         id="stop7-2" />
      <stop
         offset="1"
         stop-color="#20bcfa"
         id="stop9-6" />
    </linearGradient>
    <linearGradient
       inkscape:collect="always"
       xlink:href="#linearGradient4213"
       id="linearGradient650"
       gradientUnits="userSpaceOnUse"
       gradientTransform="matrix(0.75593799,0,0,0.75593795,-10.734314,-8.4665065)"
       x1="27.162716"
       y1="18.294916"
       x2="23.003391"
       y2="14.040677" />
    <linearGradient
       id="linearGradient4213">
      <stop
         style="stop-color:#ee6406"
         id="stop2" />
      <stop
         offset="1"
         style="stop-color:#ffce0d"
         id="stop4" />
    </linearGradient>
    <linearGradient
       xlink:href="#linearGradient4213"
       id="linearGradient4234-9-7"
       x1="428.57101"
       x2="388.57101"
       gradientUnits="userSpaceOnUse"
       gradientTransform="matrix(0.20269091,0,0,0.34080765,-75.248165,-168.76982)" />
  </defs>
  <sodipodi:namedview
     id="namedview14"
     pagecolor="#000000"
     bordercolor="#666666"
     borderopacity="1.0"
     inkscape:showpageshadow="2"
     inkscape:pageopacity="0.0"
     inkscape:pagecheckerboard="0"
     inkscape:deskcolor="#d1d1d1"
     showgrid="false"
     inkscape:zoom="7.375"
     inkscape:cx="22.101695"
     inkscape:cy="42.169492"
     inkscape:window-width="1920"
     inkscape:window-height="996"
     inkscape:window-x="0"
     inkscape:window-y="0"
     inkscape:window-maximized="1"
     inkscape:current-layer="svg12">
    <inkscape:grid
       type="xygrid"
       id="grid244"
       originx="9.7893915"
       originy="-31.749373"
       spacingy="1"
       spacingx="1"
       units="px"
       visible="false" />
  </sodipodi:namedview>
  <rect
     x="-12.025727"
     y="0.1490714"
     width="11.940627"
     height="11.936014"
     rx="1.6121091"
     stroke="url(#paint4_linear_77:23)"
     shape-rendering="crispEdges"
     id="rect5-6-7-3"
     ry="1.7735944"
     transform="matrix(0.00523883,-0.99998628,0.999988,0.00489859,0,0)"
     style="fill:#80b3ff;fill-opacity:0.13;stroke:url(#linearGradient13);stroke-width:0.188987;stroke-opacity:1" />
  <rect
     x="-3.7266586"
     y="4.6446943"
     width="7.912631"
     height="7.912384"
     rx="1.612043"
     shape-rendering="crispEdges"
     id="rect5-6-6-6-6"
     style="fill:#5599ff;fill-opacity:0.1;stroke:url(#linearGradient2);stroke-width:0.188987;stroke-opacity:1"
     ry="1.7735215"
     transform="matrix(0.72612649,-0.68756114,0.6879775,0.72573202,0,0)" />
  <path
     d="m 5.9926938,3.0426485 c -1.6343245,0 -2.9500453,1.3171368 -2.9500453,2.9532199 0,1.6360837 1.3157208,2.9532215 2.9500453,2.9532215 1.6343251,0 2.9500471,-1.3171378 2.9500471,-2.9532215 0,-1.6360831 -1.315722,-2.9532199 -2.9500471,-2.9532199 z m 0,0.4218916 c 1.4008472,0 2.5286056,1.1289722 2.5286056,2.5313283 0,1.402356 -1.1277584,2.5313296 -2.5286056,2.5313296 -1.4008485,0 -2.5286075,-1.1289736 -2.5286075,-2.5313296 0,-1.4023561 1.127759,-2.5313283 2.5286075,-2.5313283 z"
     id="path41-7-1-5"
     style="fill:#ffffff;fill-opacity:1;stroke-width:0.411805" />
  <rect
     width="3.1403623"
     x="4.456378"
     y="4.4592733"
     rx="2.8164694"
     height="3.1437423"
     style="opacity:0.8;fill:#5599ff;fill-opacity:1;stroke-width:0.112657"
     id="rect43-5-2-3"
     ry="2.8164692" />
  <path
     style="opacity:0.85;fill:url(#linearGradient650);stroke-width:0.0755911"
     d="m 5.9926938,3.0426485 v 0.4218916 c 1.4008472,0 2.5286056,1.1289722 2.5286056,2.5313283 h 0.4214415 c 0,-1.6360831 -1.315722,-2.9532199 -2.9500471,-2.9532199 z"
     id="path47-3-7-5" />
  <path
     style="fill:#ffffff;fill-rule:evenodd;stroke-width:1.12657"
     d="M 6.9695568,6.0299103 5.3993691,5.0867944 v 1.8862483 z"
     id="path49-5-0-6" />
  <path
     style="fill:url(#linearGradient4234-9-7);stroke-width:0.0262827"
     d="m 3.9899162,9.1067189 c -0.031298,0 -0.056502,0.042419 -0.056502,0.095098 0,0.052689 0.025202,0.095108 0.056502,0.095108 h 2.7685037 v -0.190204 z"
     id="path45-0-2" />
  <path
     d="m 6.7584199,9.1067189 v 0.1902044 h 1.2561342 0.1563616 c 0.031302,0 0.056501,-0.042419 0.056501,-0.095108 0,-0.052689 -0.025199,-0.095098 -0.056501,-0.095098 z"
     id="path51-6-9"
     style="fill:#f0f0f0;fill-opacity:1;stroke-width:0.340816"
     sodipodi:nodetypes="cccsssc" />
  <rect
     width="0.22600038"
     x="6.6452627"
     y="9.0119925"
     rx="0.20269102"
     height="0.38040906"
     style="fill:#ffffff;stroke-width:0.0262827"
     id="rect53-2-1"
     ry="0.202691" />
  <path
     id="path20-6-0"
     style="color:#31363b;mix-blend-mode:normal;fill:#87aade;fill-opacity:1;stroke-width:0.708929"
     d="m 9.6122688,8.7819182 c -0.09133,0 -0.165382,0.073237 -0.165382,0.1635684 0,0.090359 0.07405,0.1636015 0.165382,0.1636015 0.0913,0 0.165368,-0.073245 0.165368,-0.1636015 0,-0.090329 -0.07407,-0.1635684 -0.165368,-0.1635684 z m 1.1575202,0 C 10.56825,8.6712544 10.329263,8.9056266 10.439062,9.1090881 l 0.496091,0.4907427 -0.496091,0.4907602 c -0.136224,0.225101 0.133321,0.440936 0.330727,0.327176 l 0.826806,-0.8179362 z m -1.5433652,0.981505 c -0.152202,0 -0.275611,0.1220674 -0.275611,0.2726378 0,0.150582 0.123409,0.272634 0.275611,0.272634 0.152198,0 0.27559,-0.122052 0.27559,-0.272634 0,-0.1505704 -0.123392,-0.2726378 -0.27559,-0.2726378 z m 0.716554,0.9815098 c -0.182658,0 -0.330709,0.146483 -0.330709,0.327183 0,0.180687 0.148051,0.327165 0.330709,0.327165 0.1826502,0 0.3307252,-0.146478 0.3307252,-0.327165 0,-0.1807 -0.148075,-0.327183 -0.3307252,-0.327183 z"
     class="ColorScheme-Text"
     sodipodi:nodetypes="ssssscccccccssssssssss" />
</svg>
