<?xml version="1.0" encoding="UTF-8" standalone="no"?>
<svg
   width="45.999886"
   height="45.999989"
   version="1.1"
   viewBox="0 0 12.170564 12.170591"
   id="svg12"
   sodipodi:docname="puremaps.svg"
   inkscape:version="1.3.2 (091e20ef0f, 2023-11-25)"
   xmlns:inkscape="http://www.inkscape.org/namespaces/inkscape"
   xmlns:sodipodi="http://sodipodi.sourceforge.net/DTD/sodipodi-0.dtd"
   xmlns:xlink="http://www.w3.org/1999/xlink"
   xmlns="http://www.w3.org/2000/svg"
   xmlns:svg="http://www.w3.org/2000/svg">
  <defs
     id="defs16">
    <linearGradient
       id="c"
       y1="523.79999"
       x1="403.57001"
       y2="536.79999"
       x2="416.57001"
       gradientUnits="userSpaceOnUse"
       gradientTransform="matrix(0.34526714,0,0,0.34526706,-134.80427,-174.63325)">
      <stop
         stop-color="#292c2f"
         id="stop1568" />
      <stop
         offset="1"
         stop-opacity="0"
         id="stop1570" />
    </linearGradient>
    <linearGradient
       xlink:href="#b-2"
       id="linearGradient4189"
       x1="14.369"
       y1="22.521999"
       x2="26.521999"
       y2="22.521999"
       gradientUnits="userSpaceOnUse" />
    <linearGradient
       x1="36"
       gradientUnits="userSpaceOnUse"
       x2="14"
       y2="12"
       y1="44"
       id="b-2">
      <stop
         style="stop-color:#bfc9c9;stop-opacity:1"
         stop-color="#536161"
         id="stop1579" />
      <stop
         style="stop-color:#fbfbfb;stop-opacity:1"
         stop-color="#f4f5f5"
         offset="1"
         id="stop1581" />
    </linearGradient>
    <linearGradient
       xlink:href="#b-2"
       id="linearGradient4428"
       gradientUnits="userSpaceOnUse"
       x1="31.586"
       y1="36.345001"
       x2="1.2029999"
       y2="6.723" />
    <linearGradient
       xlink:href="#b-2"
       id="linearGradient4189-3"
       x1="14.369"
       y1="22.521999"
       x2="26.521999"
       y2="22.521999"
       gradientUnits="userSpaceOnUse"
       gradientTransform="translate(20.841982,61.553822)" />
    <linearGradient
       xlink:href="#b-2"
       id="linearGradient4428-5"
       gradientUnits="userSpaceOnUse"
       x1="31.586"
       y1="36.345001"
       x2="1.2029999"
       y2="6.723"
       gradientTransform="translate(20.841982,61.553822)" />
    <linearGradient
       xlink:href="#b-2"
       id="linearGradient4189-3-3"
       x1="14.369"
       y1="22.521999"
       x2="26.521999"
       y2="22.521999"
       gradientUnits="userSpaceOnUse"
       gradientTransform="translate(4.376802,4.4211693)" />
    <linearGradient
       xlink:href="#b-2"
       id="linearGradient4428-5-5"
       gradientUnits="userSpaceOnUse"
       x1="31.586"
       y1="36.345001"
       x2="1.2029999"
       y2="6.723"
       gradientTransform="translate(4.376802,4.4211693)" />
    <linearGradient
       inkscape:collect="always"
       xlink:href="#linearGradient11"
       id="linearGradient13"
       x1="-43.819283"
       y1="23.120178"
       x2="-1.9547797"
       y2="23.120178"
       gradientUnits="userSpaceOnUse"
       gradientTransform="scale(0.26457813)" />
    <linearGradient
       id="linearGradient11"
       inkscape:collect="always">
      <stop
         style="stop-color:#9955ff;stop-opacity:0.65640396;"
         offset="0"
         id="stop4-3" />
      <stop
         style="stop-color:#00ccff;stop-opacity:1"
         offset="1"
         id="stop11" />
    </linearGradient>
    <linearGradient
       inkscape:collect="always"
       xlink:href="#linearGradient14"
       id="linearGradient15"
       x1="-9.6850061"
       y1="45.161198"
       x2="11.98815"
       y2="21.735205"
       gradientUnits="userSpaceOnUse"
       gradientTransform="scale(0.26457813)" />
    <linearGradient
       id="linearGradient14"
       inkscape:collect="always">
      <stop
         style="stop-color:#9955ff;stop-opacity:0.45197046;"
         offset="0"
         id="stop12" />
      <stop
         style="stop-color:#00ccff;stop-opacity:1"
         offset="1"
         id="stop13" />
    </linearGradient>
  </defs>
  <sodipodi:namedview
     id="namedview14"
     pagecolor="#000000"
     bordercolor="#666666"
     borderopacity="1.0"
     inkscape:showpageshadow="2"
     inkscape:pageopacity="0.0"
     inkscape:pagecheckerboard="0"
     inkscape:deskcolor="#d1d1d1"
     showgrid="false"
     inkscape:zoom="5.2149125"
     inkscape:cx="23.20269"
     inkscape:cy="53.692176"
     inkscape:window-width="1920"
     inkscape:window-height="996"
     inkscape:window-x="0"
     inkscape:window-y="0"
     inkscape:window-maximized="1"
     inkscape:current-layer="svg12">
    <inkscape:grid
       type="xygrid"
       id="grid244"
       originx="9.7893915"
       originy="-31.749373"
       spacingy="1"
       spacingx="1"
       units="px"
       visible="false" />
  </sodipodi:namedview>
  <rect
     x="-12.025727"
     y="0.1490714"
     width="11.940627"
     height="11.936014"
     rx="1.6121091"
     stroke="url(#paint4_linear_77:23)"
     shape-rendering="crispEdges"
     id="rect5-6-7-3"
     ry="1.7735944"
     transform="matrix(0.00523883,-0.99998628,0.999988,0.00489859,0,0)"
     style="fill:#80b3ff;fill-opacity:0.15;stroke:url(#linearGradient13);stroke-width:0.188987;stroke-opacity:1" />
  <rect
     x="-3.7266586"
     y="4.6446943"
     width="7.912631"
     height="7.912384"
     rx="1.612043"
     shape-rendering="crispEdges"
     id="rect5-6-6-6-6"
     style="fill:#80b3ff;fill-opacity:0.122146;stroke:url(#linearGradient15);stroke-width:0.188987;stroke-opacity:1"
     ry="1.7735215"
     transform="matrix(0.72612649,-0.68756114,0.6879775,0.72573202,0,0)" />
  <g
     id="g1"
     transform="matrix(-0.53315218,0,0,-0.52379755,10.03507,9.7786782)"
     style="stroke-width:1.89226">
    <path
       style="opacity:0.2;stroke-width:0.368911"
       d="m 7.3663008,2.1444823 -5.46e-4,0.0011 c -3.004235,0.0229 -5.416193,2.44774 -5.416193,5.457679 0,3.0241587 2.434612,5.4587717 5.458772,5.4587717 2.9149832,0 5.2816332,-2.262388 5.4486712,-5.1342477 l 0.0101,-0.0096 v -4.681991 c 0,-0.604832 -0.486922,-1.091754 -1.091754,-1.091754 H 7.3663008 Z"
       id="path360-7" />
    <path
       style="fill:#c9c9c9;stroke-width:0.368911"
       d="m 7.3663008,1.9495253 -5.46e-4,0.0011 c -3.004235,0.0229 -5.416193,2.447741 -5.416193,5.45768 0,3.0241587 2.434612,5.4587717 5.458772,5.4587717 2.9149832,0 5.2816332,-2.262389 5.4486712,-5.1342477 l 0.0101,-0.0095 v -4.681993 c 0,-0.604832 -0.486922,-1.091754 -1.091754,-1.091754 H 7.3663008 Z"
       id="path362-5" />
    <path
       style="opacity:0.1;stroke:#ffffff;stroke-width:0;stroke-linecap:square;stroke-opacity:0"
       d="m 11.697367,3.3141943 c -3.5568172,0.122649 -5.7331152,-0.153927 -7.3588012,1.47176 -1.625687,1.625687 -1.625692,4.261351 0,5.8870417 1.625691,1.625692 4.261355,1.625688 5.8870412,0 1.625687,-1.6256867 1.349111,-3.8019827 1.47176,-7.3588017 z"
       id="path364-3" />
    <path
       style="fill:#2669ee;stroke:#ffffff;stroke-width:0;stroke-linecap:square;stroke-opacity:0"
       d="m 11.697367,3.1192383 c -3.5568172,0.122649 -5.7331152,-0.153927 -7.3588012,1.47176 -1.625687,1.625687 -1.625692,4.261351 0,5.8870417 1.625691,1.625692 4.261355,1.625688 5.8870412,0 1.625687,-1.6256867 1.349111,-3.8019827 1.47176,-7.3588017 z"
       id="path366-5" />
    <path
       style="opacity:0.2;stroke:#ffffff;stroke-width:0;stroke-linecap:square;stroke-opacity:0"
       d="m 7.4083338,4.6788863 c -0.748467,0 -1.496541,0.285753 -2.067602,0.856741 -1.14212,1.141977 -1.14212,2.993606 0,4.135583 1.142121,1.1419777 2.993082,1.1419777 4.135203,0 1.1421202,-1.141977 1.1421202,-2.993606 0,-4.135583 -0.571061,-0.570988 -1.319136,-0.856741 -2.067601,-0.856741 z m 0.02285,1.364693 a 1.559906,1.5597108 0 0 1 1.079874,0.456929 1.559906,1.5597108 0 0 1 0,2.205821 1.559906,1.5597108 0 0 1 -2.205441,0 1.559906,1.5597108 0 0 1 0,-2.205821 1.559906,1.5597108 0 0 1 1.125567,-0.456929 z"
       id="path368-6" />
    <path
       style="fill:#ffffff;stroke:#ffffff;stroke-width:0;stroke-linecap:square;stroke-opacity:0"
       d="m 7.4083338,4.4839303 c -0.748467,0 -1.496541,0.285752 -2.067602,0.856741 -1.14212,1.141977 -1.14212,2.993606 0,4.135583 1.142121,1.1419777 2.993082,1.1419777 4.135203,0 1.1421202,-1.141977 1.1421202,-2.993606 0,-4.135583 -0.571061,-0.570989 -1.319136,-0.856741 -2.067601,-0.856741 z m 0.02285,1.364693 a 1.559906,1.5597108 0 0 1 1.079874,0.456929 1.559906,1.5597108 0 0 1 0,2.205821 1.559906,1.5597108 0 0 1 -2.205441,0 1.559906,1.5597108 0 0 1 0,-2.205821 1.559906,1.5597108 0 0 1 1.125567,-0.456929 z"
       id="path370-2" />
    <path
       style="opacity:0.2;fill:#ffffff;stroke-width:0.368911"
       d="m 7.3664478,1.9495013 -7.37e-4,0.0011 c -3.004236,0.0229 -5.416126,2.44769 -5.416126,5.457629 0,0.03193 0.0018,0.0634 0.0023,0.09519 0.05284,-2.963362 2.443024,-5.335222 5.41384,-5.357866 l 7.37e-4,-0.0011 h 4.4089772 c 0.604832,0 1.091679,0.486846 1.091679,1.091678 v -0.194956 c 0,-0.604832 -0.486847,-1.091679 -1.091679,-1.091679 z"
       id="path372-9" />
  </g>
</svg>
