<?xml version="1.0" encoding="UTF-8" standalone="no"?>
<svg
   width="45.999886"
   height="45.999989"
   version="1.1"
   viewBox="0 0 12.170564 12.170591"
   id="svg12"
   sodipodi:docname="qemu.svg"
   inkscape:version="1.3.2 (091e20ef0f, 2023-11-25)"
   xmlns:inkscape="http://www.inkscape.org/namespaces/inkscape"
   xmlns:sodipodi="http://sodipodi.sourceforge.net/DTD/sodipodi-0.dtd"
   xmlns:xlink="http://www.w3.org/1999/xlink"
   xmlns="http://www.w3.org/2000/svg"
   xmlns:svg="http://www.w3.org/2000/svg">
  <defs
     id="defs16">
    <linearGradient
       id="linearGradient7"
       inkscape:collect="always">
      <stop
         style="stop-color:#ff9955;stop-opacity:0.18431373;"
         offset="0"
         id="stop6" />
      <stop
         style="stop-color:#ffb583;stop-opacity:0.83137256;"
         offset="1"
         id="stop7" />
    </linearGradient>
    <linearGradient
       id="c"
       y1="523.79999"
       x1="403.57001"
       y2="536.79999"
       x2="416.57001"
       gradientUnits="userSpaceOnUse"
       gradientTransform="matrix(0.34526714,0,0,0.34526706,-134.80427,-174.63325)">
      <stop
         stop-color="#292c2f"
         id="stop1568" />
      <stop
         offset="1"
         stop-opacity="0"
         id="stop1570" />
    </linearGradient>
    <linearGradient
       xlink:href="#b-2"
       id="linearGradient4189"
       x1="14.369"
       y1="22.521999"
       x2="26.521999"
       y2="22.521999"
       gradientUnits="userSpaceOnUse" />
    <linearGradient
       x1="36"
       gradientUnits="userSpaceOnUse"
       x2="14"
       y2="12"
       y1="44"
       id="b-2">
      <stop
         style="stop-color:#bfc9c9;stop-opacity:1"
         stop-color="#536161"
         id="stop1579" />
      <stop
         style="stop-color:#fbfbfb;stop-opacity:1"
         stop-color="#f4f5f5"
         offset="1"
         id="stop1581" />
    </linearGradient>
    <linearGradient
       xlink:href="#b-2"
       id="linearGradient4428"
       gradientUnits="userSpaceOnUse"
       x1="31.586"
       y1="36.345001"
       x2="1.2029999"
       y2="6.723" />
    <linearGradient
       xlink:href="#b-2"
       id="linearGradient4189-3"
       x1="14.369"
       y1="22.521999"
       x2="26.521999"
       y2="22.521999"
       gradientUnits="userSpaceOnUse"
       gradientTransform="translate(20.841982,61.553822)" />
    <linearGradient
       xlink:href="#b-2"
       id="linearGradient4428-5"
       gradientUnits="userSpaceOnUse"
       x1="31.586"
       y1="36.345001"
       x2="1.2029999"
       y2="6.723"
       gradientTransform="translate(20.841982,61.553822)" />
    <linearGradient
       xlink:href="#b-2"
       id="linearGradient4189-3-3"
       x1="14.369"
       y1="22.521999"
       x2="26.521999"
       y2="22.521999"
       gradientUnits="userSpaceOnUse"
       gradientTransform="translate(4.376802,4.4211693)" />
    <linearGradient
       xlink:href="#b-2"
       id="linearGradient4428-5-5"
       gradientUnits="userSpaceOnUse"
       x1="31.586"
       y1="36.345001"
       x2="1.2029999"
       y2="6.723"
       gradientTransform="translate(4.376802,4.4211693)" />
    <linearGradient
       inkscape:collect="always"
       xlink:href="#linearGradient14"
       id="linearGradient15"
       x1="-9.6850061"
       y1="45.161198"
       x2="11.98815"
       y2="21.735205"
       gradientUnits="userSpaceOnUse"
       gradientTransform="scale(0.26457813)" />
    <linearGradient
       id="linearGradient14"
       inkscape:collect="always">
      <stop
         style="stop-color:#ff9900;stop-opacity:0.34509805;"
         offset="0"
         id="stop12" />
      <stop
         style="stop-color:#ffb685;stop-opacity:0.81568629;"
         offset="1"
         id="stop13" />
    </linearGradient>
    <filter
       id="filter2917-3"
       x="-0.96181147"
       y="-0.66745996"
       width="2.9236229"
       height="2.3349199"
       color-interpolation-filters="sRGB">
      <feGaussianBlur
         stdDeviation="0.2871969"
         id="feGaussianBlur732-5" />
    </filter>
    <filter
       id="filter1"
       x="-0.96181148"
       y="-0.66745996"
       width="2.9236228"
       height="2.3349199"
       color-interpolation-filters="sRGB">
      <feGaussianBlur
         stdDeviation="0.2871969"
         id="feGaussianBlur1" />
    </filter>
    <filter
       id="filter2"
       x="-0.96181148"
       y="-0.66745996"
       width="2.9236228"
       height="2.3349199"
       color-interpolation-filters="sRGB">
      <feGaussianBlur
         stdDeviation="0.2871969"
         id="feGaussianBlur2" />
    </filter>
    <linearGradient
       id="_lgradient_20"
       x1="-0.29991642"
       y1="-0.26140401"
       x2="0.96725708"
       y2="0.86616999"
       gradientTransform="matrix(15.137397,0,0,16.82717,0.89780187,0.05291536)"
       gradientUnits="userSpaceOnUse">
      <stop
         offset="34.94098066785295%"
         stop-opacity="1"
         style="stop-color:rgb(178,229,107)"
         id="stop1" />
      <stop
         offset="53.84922244785295%"
         stop-opacity="1"
         style="stop-color:rgb(194,233,100)"
         id="stop2" />
      <stop
         offset="90.40515655585295%"
         stop-opacity="1"
         style="stop-color:rgb(236,244,81)"
         id="stop3" />
      <stop
         offset="100%"
         stop-opacity="1"
         style="stop-color:rgb(250,247,75)"
         id="stop4" />
    </linearGradient>
    <linearGradient
       inkscape:collect="always"
       xlink:href="#linearGradient7"
       id="linearGradient6"
       x1="-12.120221"
       y1="6.1170783"
       x2="0.0093933269"
       y2="6.1170783"
       gradientUnits="userSpaceOnUse" />
  </defs>
  <sodipodi:namedview
     id="namedview14"
     pagecolor="#000000"
     bordercolor="#666666"
     borderopacity="1.0"
     inkscape:showpageshadow="2"
     inkscape:pageopacity="0.0"
     inkscape:pagecheckerboard="0"
     inkscape:deskcolor="#d1d1d1"
     showgrid="false"
     inkscape:zoom="7.375"
     inkscape:cx="13.288136"
     inkscape:cy="19.864407"
     inkscape:window-width="1920"
     inkscape:window-height="996"
     inkscape:window-x="0"
     inkscape:window-y="0"
     inkscape:window-maximized="1"
     inkscape:current-layer="svg12">
    <inkscape:grid
       type="xygrid"
       id="grid244"
       originx="9.7893915"
       originy="-31.749373"
       spacingy="1"
       spacingx="1"
       units="px"
       visible="false" />
  </sodipodi:namedview>
  <rect
     x="-12.025727"
     y="0.1490714"
     width="11.940627"
     height="11.936014"
     rx="1.6121091"
     stroke="url(#paint4_linear_77:23)"
     shape-rendering="crispEdges"
     id="rect5-6-7-3"
     ry="1.7735944"
     transform="matrix(0.00523883,-0.99998628,0.999988,0.00489859,0,0)"
     style="fill:#ffe0cc;fill-opacity:0.09803922;stroke:url(#linearGradient6);stroke-width:0.188987;stroke-opacity:1" />
  <rect
     x="-3.7266586"
     y="4.6446943"
     width="7.912631"
     height="7.912384"
     rx="1.612043"
     shape-rendering="crispEdges"
     id="rect5-6-6-6-6"
     style="fill:#ffc299;fill-opacity:0.10196079;stroke:url(#linearGradient15);stroke-width:0.188987;stroke-opacity:1"
     ry="1.7735215"
     transform="matrix(0.72612649,-0.68756114,0.6879775,0.72573202,0,0)" />
  <path
     style="opacity:0.2;stroke-width:0.264578"
     d="M 4.8985652,3.061574 C 4.8941829,3.2281105 4.602089,3.083844 4.5893958,3.2742324 4.2654141,3.130923 4.6140788,3.4923002 4.5816771,3.5258786 h -0.00178 l -0.024379,-0.00236 C 4.5398576,3.5179834 4.5171289,3.5086328 4.483555,3.4880794 4.4152703,3.542126 4.3669922,3.6137029 4.3265933,3.6930503 4.0565179,4.110481 3.9248851,4.458902 3.8360841,4.8987088 3.7226889,5.4603063 3.6950457,6.1165433 3.7064699,6.6702697 c 0.01217,0.1561135 0.051452,0.3036451 0.1801507,0.4022728 0.3625947,0.2959241 0.664082,0.6699414 0.9685335,1.0260811 0.5993578,0.8073231 1.1244462,1.4960289 1.466772,2.2199234 C 6.2842435,10.075263 6.2353599,9.6884044 6.2119367,9.3893505 6.0040769,8.3355263 5.5792644,7.7782944 5.5305746,6.6011604 5.5191577,6.3099776 5.8351809,5.7214925 6.1887494,5.4126335 6.7222767,4.9465671 7.1079281,5.0639109 7.7887026,5.1639389 c 0.0037,0.00105 0.00878,0.00197 0.012484,0.0023 0.022594,0.00368 0.047138,0.00817 0.069565,0.012415 0.1818876,0.016103 0.5473772,0.086328 0.612985,-0.038383 C 8.2327515,4.9280786 7.871886,4.900766 7.5663422,4.8172902 7.517974,4.8085574 7.4575792,4.7985609 7.3980825,4.793088 L 7.0990214,4.7267526 7.0241057,4.7072677 v 0.00265 L 5.9533095,4.5023911 c -0.01704,-0.015422 -0.035799,-0.030871 -0.052917,-0.042533 l 1.044637,0.1287747 v -0.00535 c 0.036826,0.00817 0.073638,0.015205 0.1105867,0.019471 v 0.00274 l 0.7384407,0.1353176 c 0.1274049,0.047216 0.2631783,0.083067 0.3906232,0.090973 0.2103663,0.030411 0.4773856,0.342407 0.5463955,0.3573912 C 8.6972568,4.8605276 8.3675665,4.7132686 8.0937152,4.6169309 7.7737734,4.4623824 7.2953258,4.4677899 7.2446877,4.0403939 7.2312172,4.0106148 7.2182522,3.9809592 7.2018803,3.9523758 L 7.0770232,3.7881563 7.081764,3.7857763 C 6.9117087,3.5863608 6.6726098,3.4407696 6.4182532,3.3852874 6.1657938,3.2987079 5.8820098,3.2129553 5.6150066,3.1785361 5.5243965,3.4436048 5.4232422,2.9684875 5.2053571,3.1094223 5.0143707,3.1318938 5.0407615,3.1817957 4.8985652,3.061574 Z m 1.3196191,0.5975114 c 0.067413,-0.00226 0.144626,0.012948 0.2220673,0.046078 C 6.6467603,3.7935004 6.7810324,3.9798736 6.741395,4.1219152 6.7017559,4.2639541 6.5016878,4.305946 6.2951797,4.2176096 6.0886712,4.1292745 5.9543998,3.9455576 5.9940366,3.803516 6.0188114,3.7147408 6.1058246,3.6627588 6.2181843,3.6590854 Z"
     id="path2" />
  <path
     style="fill:#ff944b;stroke-width:0.264578;fill-opacity:1"
     d="m 4.8985652,2.9103595 c -0.00438,0.1665366 -0.2964762,0.022273 -0.3091694,0.2126584 -0.3239817,-0.1433091 0.024683,0.218068 -0.00772,0.2516457 h -0.00177 l -0.024401,-0.00238 C 4.5398707,3.3667459 4.5171405,3.357412 4.483565,3.3368586 4.4152772,3.390909 4.3669999,3.4624861 4.3266001,3.5418334 4.0565257,3.9592641 3.9248922,4.3076883 3.836091,4.747489 3.7226962,5.3090955 3.6950537,5.9653246 3.7064777,6.5190541 3.7186464,6.6751666 3.7579323,6.8227008 3.886628,6.9213338 4.2492227,7.2172517 4.55071,7.5912676 4.8551616,7.9474127 5.4545193,8.7547309 5.9796078,9.4434361 6.3219338,10.167332 6.2842461,9.924053 6.2353633,9.5371856 6.21194,9.2381309 6.0040793,8.1843044 5.5792673,7.6270757 5.5305779,6.4499401 5.5191613,6.1587568 5.8351837,5.570273 6.1887524,5.2614127 6.7222804,4.7953471 7.107931,4.9126984 7.7887052,5.0127241 c 0.00368,9.82e-4 0.00878,0.00203 0.012489,0.00245 0.022589,0.00368 0.04714,0.00811 0.069564,0.012415 0.1818886,0.016122 0.5473783,0.086337 0.6129859,-0.038392 C 8.2327493,4.7769315 7.8718838,4.7496217 7.5663399,4.6661441 7.5179721,4.6573942 7.457577,4.6474091 7.3980801,4.6419156 L 7.0990196,4.5757336 7.0241059,4.5562406 v 0.00272 L 5.9533095,4.3511424 c -0.017036,-0.015407 -0.035803,-0.030863 -0.052917,-0.042546 l 1.0446362,0.1287794 v -0.00539 c 0.036826,0.00816 0.073639,0.015181 0.1105882,0.019484 v 0.00267 l 0.7384404,0.1353119 c 0.1274054,0.047223 0.2631791,0.08308 0.3906239,0.090984 0.2103676,0.030423 0.4773879,0.3424274 0.5463977,0.357405 C 8.6972567,4.7092882 8.3675663,4.5620334 8.0937151,4.4656965 7.7737734,4.3111678 7.2953258,4.3165767 7.2446877,3.8891796 7.2312172,3.8594004 7.2182522,3.8297448 7.2018793,3.8011625 L 7.0770222,3.6369428 7.081763,3.6345628 C 6.9117087,3.4351463 6.6726098,3.2895552 6.4182532,3.2340729 6.1657938,3.1474934 5.8820098,3.0617405 5.6150066,3.0273215 5.5243965,3.2923904 5.4232422,2.8172727 5.2053571,2.9582075 5.0143707,2.9806798 5.0407615,3.030581 4.8985652,2.9103595 Z m 1.3196191,0.5975117 c 0.067415,-0.00225 0.144626,0.012944 0.2220673,0.046079 0.2065087,0.088334 0.3407808,0.2747088 0.3011434,0.41675 C 6.7017579,4.1127399 6.5016878,4.1547307 6.2951797,4.0663956 6.0886712,3.97806 5.9543998,3.7943431 5.9940366,3.6523015 6.0188116,3.5635266 6.1058246,3.5115439 6.2181843,3.5078712 Z"
     id="path3" />
  <path
     style="opacity:0.35;fill:#ffffff;stroke-width:0.264578"
     d="M 4.8985652,2.9103595 C 4.894173,3.0768961 4.602089,2.9326325 4.5893958,3.1230179 4.3812247,3.0309329 4.4512272,3.1462199 4.5189403,3.2500226 c 0.019596,0.00522 0.039481,0.010548 0.070456,0.02422 0.012698,-0.190388 0.3047986,-0.046125 0.3091694,-0.2126591 0.1421963,0.1202218 0.1158055,0.070317 0.3067919,0.047853 0.2178851,-0.1409344 0.3190394,0.3341829 0.4096495,0.069115 0.2670032,0.034422 0.5507872,0.1201715 0.8032466,0.2067514 0.2543566,0.055483 0.4934555,0.2010747 0.6635256,0.4005073 l -0.00476,0.00237 0.1248567,0.1642197 c 0.01637,0.028578 0.029334,0.058237 0.042815,0.088015 0.050639,0.4273948 0.529086,0.4219884 0.8490279,0.5765416 0.2126186,0.074797 0.4572242,0.1816045 0.5725573,0.3786506 0.027517,0.022088 0.051039,0.038939 0.064804,0.041911 C 8.6972495,4.7093105 8.3675658,4.5620508 8.0937144,4.4657182 7.7737734,4.3111693 7.2953258,4.3165779 7.2446877,3.8891806 7.2312172,3.8594015 7.2182531,3.8297458 7.2018784,3.8011635 L 7.0770212,3.6369438 7.081762,3.6345638 C 6.9117087,3.4351463 6.6726098,3.2895552 6.4182532,3.2340729 6.1657938,3.1474935 5.8820098,3.0617405 5.6150066,3.0273215 5.5243965,3.2923904 5.4232422,2.8172727 5.2053571,2.9582075 5.0143707,2.9806798 5.0407615,3.030581 4.8985652,2.9103595 Z M 4.4802944,3.340107 C 4.4139233,3.3938077 4.36628,3.4639045 4.3266018,3.5418374 4.0565265,3.9592682 3.9248937,4.3076918 3.8360926,4.7474945 3.7414229,5.2163638 3.7084783,5.7479669 3.7061814,6.2340362 3.7146196,5.7908847 3.7513428,5.3184477 3.8360926,4.8987169 3.9248926,4.4589124 4.0565265,4.1104915 4.3266018,3.6930613 4.3670011,3.6137133 4.4152795,3.5421359 4.483565,3.4880818 c 0.033572,0.020553 0.056308,0.029899 0.071938,0.035444 l 0.024381,0.00237 h 0.00177 C 4.597429,3.5095658 4.523594,3.4157372 4.4802972,3.3401102 Z m 1.522958,0.4451064 c -0.00265,0.00643 -0.0073,0.011463 -0.00925,0.01831 -0.039635,0.1420416 0.094639,0.3257586 0.3011427,0.4140932 0.2065079,0.088333 0.4065771,0.046342 0.446215,-0.0957 0.011566,-0.041427 0.00685,-0.086583 -0.00862,-0.1320247 C 6.6803725,4.1154378 6.4914763,4.1503613 6.2951798,4.0663953 6.1495305,4.0040905 6.0413648,3.8943259 6.0032561,3.785213 Z M 5.9003938,4.4598121 c 0.017121,0.011673 0.035879,0.027115 0.052919,0.042536 l 1.0707963,0.2073383 v -0.00265 l 0.074916,0.019464 0.2990617,0.066158 c 0.05949,0.00564 0.1198917,0.015456 0.1682601,0.024203 0.2572909,0.070272 0.5530584,0.1019248 0.7901661,0.2365798 0.05783,-0.00877 0.1039218,-0.026485 0.1245618,-0.061164 -0.040563,-0.032245 -0.082646,-0.064081 -0.1257523,-0.090675 -0.02555,-0.014484 -0.051084,-0.02882 -0.077887,-0.041038 -0.00826,-0.00369 -0.016951,-0.00665 -0.025267,-0.010048 -0.022812,-0.0086 -0.04561,-0.016321 -0.06748,-0.019457 C 8.0572417,4.8231901 7.9214683,4.7872901 7.7940629,4.7400801 L 7.0556179,4.6050403 v -0.00274 c -0.036948,-0.00439 -0.073764,-0.01139 -0.1105875,-0.019494 v 0.00535 z M 5.5359307,6.5370769 c -0.00195,0.021528 -0.00606,0.044968 -0.0054,0.064161 0.04869,1.177124 0.4735017,1.7343612 0.6813624,2.7881813 0.017962,0.2293665 0.050372,0.4941762 0.081746,0.7224578 0.009,0.01857 0.019436,0.03693 0.028238,0.05551 C 6.2842418,9.9240688 6.2353593,9.537201 6.2119361,9.2381486 6.0093706,8.2111562 5.6016695,7.6541768 5.5359268,6.5370812 Z"
     id="path6" />
</svg>
