<?xml version="1.0" encoding="UTF-8" standalone="no"?>
<svg
   width="45.999886"
   height="45.999989"
   version="1.1"
   viewBox="0 0 12.170564 12.170591"
   id="svg12"
   sodipodi:docname="reddit.svg"
   inkscape:version="1.3.2 (091e20ef0f, 2023-11-25)"
   xmlns:inkscape="http://www.inkscape.org/namespaces/inkscape"
   xmlns:sodipodi="http://sodipodi.sourceforge.net/DTD/sodipodi-0.dtd"
   xmlns:xlink="http://www.w3.org/1999/xlink"
   xmlns="http://www.w3.org/2000/svg"
   xmlns:svg="http://www.w3.org/2000/svg">
  <defs
     id="defs16">
    <linearGradient
       id="c"
       y1="523.79999"
       x1="403.57001"
       y2="536.79999"
       x2="416.57001"
       gradientUnits="userSpaceOnUse"
       gradientTransform="matrix(0.34526714,0,0,0.34526706,-134.80427,-174.63325)">
      <stop
         stop-color="#292c2f"
         id="stop1568" />
      <stop
         offset="1"
         stop-opacity="0"
         id="stop1570" />
    </linearGradient>
    <linearGradient
       xlink:href="#b-2"
       id="linearGradient4189"
       x1="14.369"
       y1="22.521999"
       x2="26.521999"
       y2="22.521999"
       gradientUnits="userSpaceOnUse" />
    <linearGradient
       x1="36"
       gradientUnits="userSpaceOnUse"
       x2="14"
       y2="12"
       y1="44"
       id="b-2">
      <stop
         style="stop-color:#bfc9c9;stop-opacity:1"
         stop-color="#536161"
         id="stop1579" />
      <stop
         style="stop-color:#fbfbfb;stop-opacity:1"
         stop-color="#f4f5f5"
         offset="1"
         id="stop1581" />
    </linearGradient>
    <linearGradient
       xlink:href="#b-2"
       id="linearGradient4428"
       gradientUnits="userSpaceOnUse"
       x1="31.586"
       y1="36.345001"
       x2="1.2029999"
       y2="6.723" />
    <linearGradient
       xlink:href="#b-2"
       id="linearGradient4189-3"
       x1="14.369"
       y1="22.521999"
       x2="26.521999"
       y2="22.521999"
       gradientUnits="userSpaceOnUse"
       gradientTransform="translate(20.841982,61.553822)" />
    <linearGradient
       xlink:href="#b-2"
       id="linearGradient4428-5"
       gradientUnits="userSpaceOnUse"
       x1="31.586"
       y1="36.345001"
       x2="1.2029999"
       y2="6.723"
       gradientTransform="translate(20.841982,61.553822)" />
    <linearGradient
       xlink:href="#b-2"
       id="linearGradient4189-3-3"
       x1="14.369"
       y1="22.521999"
       x2="26.521999"
       y2="22.521999"
       gradientUnits="userSpaceOnUse"
       gradientTransform="translate(4.376802,4.4211693)" />
    <linearGradient
       xlink:href="#b-2"
       id="linearGradient4428-5-5"
       gradientUnits="userSpaceOnUse"
       x1="31.586"
       y1="36.345001"
       x2="1.2029999"
       y2="6.723"
       gradientTransform="translate(4.376802,4.4211693)" />
    <linearGradient
       inkscape:collect="always"
       xlink:href="#linearGradient11"
       id="linearGradient13"
       x1="-43.819283"
       y1="23.120178"
       x2="-1.9547797"
       y2="23.120178"
       gradientUnits="userSpaceOnUse"
       gradientTransform="scale(0.26457813)" />
    <linearGradient
       id="linearGradient11"
       inkscape:collect="always">
      <stop
         style="stop-color:#ff4500;stop-opacity:0.4544335;"
         offset="0"
         id="stop4-3" />
      <stop
         style="stop-color:#c83771;stop-opacity:1"
         offset="1"
         id="stop11" />
    </linearGradient>
    <linearGradient
       inkscape:collect="always"
       xlink:href="#linearGradient14"
       id="linearGradient15"
       x1="-9.6850061"
       y1="45.161198"
       x2="11.98815"
       y2="21.735205"
       gradientUnits="userSpaceOnUse"
       gradientTransform="scale(0.26457813)" />
    <linearGradient
       id="linearGradient14"
       inkscape:collect="always">
      <stop
         style="stop-color:#ff4500;stop-opacity:1"
         offset="0"
         id="stop12" />
      <stop
         style="stop-color:#c83771;stop-opacity:1"
         offset="1"
         id="stop13" />
    </linearGradient>
  </defs>
  <sodipodi:namedview
     id="namedview14"
     pagecolor="#000000"
     bordercolor="#666666"
     borderopacity="1.0"
     inkscape:showpageshadow="2"
     inkscape:pageopacity="0.0"
     inkscape:pagecheckerboard="0"
     inkscape:deskcolor="#d1d1d1"
     showgrid="false"
     inkscape:zoom="5.2149125"
     inkscape:cx="23.20269"
     inkscape:cy="53.692176"
     inkscape:window-width="1920"
     inkscape:window-height="996"
     inkscape:window-x="0"
     inkscape:window-y="0"
     inkscape:window-maximized="1"
     inkscape:current-layer="svg12">
    <inkscape:grid
       type="xygrid"
       id="grid244"
       originx="9.7893915"
       originy="-31.749373"
       spacingy="1"
       spacingx="1"
       units="px"
       visible="false" />
  </sodipodi:namedview>
  <rect
     x="-12.025727"
     y="0.1490714"
     width="11.940627"
     height="11.936014"
     rx="1.6121091"
     stroke="url(#paint4_linear_77:23)"
     shape-rendering="crispEdges"
     id="rect5-6-7-3"
     ry="1.7735944"
     transform="matrix(0.00523883,-0.99998628,0.999988,0.00489859,0,0)"
     style="fill:#ff4500;fill-opacity:0.07762557;stroke:url(#linearGradient13);stroke-width:0.188987;stroke-opacity:1" />
  <rect
     x="-3.7266586"
     y="4.6446943"
     width="7.912631"
     height="7.912384"
     rx="1.612043"
     shape-rendering="crispEdges"
     id="rect5-6-6-6-6"
     style="fill:#ff4500;fill-opacity:0.06621005;stroke:url(#linearGradient15);stroke-width:0.188987;stroke-opacity:1"
     ry="1.7735215"
     transform="matrix(0.72612649,-0.68756114,0.6879775,0.72573202,0,0)" />
  <path
     style="opacity:0.2;stroke-width:0.743383"
     d="m 6.4704492,2.3056288 c -0.095906,-0.00145 -0.1779717,0.06778 -0.1918304,0.161657 L 5.9509395,4.5783448 C 5.1982105,4.600415 4.4839897,4.8107277 3.945303,5.1688493 3.8025439,5.029976 3.6103724,4.9520504 3.410118,4.9518363 c -0.4221337,0 -0.7643393,0.3384109 -0.7643367,0.7558533 2.048e-4,0.2819117 0.1590399,0.5402831 0.4120251,0.670222 -0.018866,0.090984 -0.028842,0.1827111 -0.029858,0.274584 -2.2e-6,1.1479711 1.3688191,2.0785857 3.0573461,2.0785857 1.6885265,0 3.0573478,-0.9306146 3.0573455,-2.0785857 C 9.1413414,6.5608526 9.1311081,6.4693708 9.1120413,6.3786472 9.365553,6.248787 9.5247412,5.9900218 9.5248128,5.7076896 9.5248156,5.2902472 9.1826096,4.9518363 8.7604765,4.9518363 8.5595995,4.9518577 8.3668054,5.0300847 8.2237982,5.1695853 7.7145961,4.8296535 7.0465296,4.6215391 6.3353498,4.5812943 L 6.625708,2.7241499 7.6191962,2.942641 c 0.03539,0.2837544 0.2789106,0.497047 0.5680279,0.4975031 0.3165984,0 0.5732524,-0.2538004 0.5732524,-0.5668863 0,-0.3130853 -0.256654,-0.5668867 -0.5732524,-0.5668867 -0.1971756,1.65e-4 -0.3804252,0.1005367 -0.4851747,0.2657283 L 6.5100125,2.3107998 c -0.012974,-0.00282 -0.026232,-0.00504 -0.039562,-0.00504 z m -1.340574,3.4020608 c 0.3165983,0 0.5732524,0.2538014 0.5732524,0.5668865 0,0.313086 -0.2566541,0.5668866 -0.5732524,0.5668866 -0.3165988,0 -0.5732524,-0.2538006 -0.5732524,-0.5668866 0,-0.3130851 0.2566536,-0.5668865 0.5732524,-0.5668865 z m 1.9108406,0 c 0.3165992,0 0.5732529,0.2538014 0.5732529,0.5668865 0,0.313086 -0.2566537,0.5668866 -0.5732529,0.5668866 -0.3165981,0 -0.5732521,-0.2538006 -0.5732521,-0.5668866 0,-0.3130851 0.256654,-0.5668865 0.5732521,-0.5668865 z m 0.3717187,1.6939601 c 0.177783,-0.014859 0.2779684,0.1973516 0.1522702,0.3225634 0,0 -0.1251874,0.1313385 -0.3635081,0.2398957 C 6.9628765,8.0726936 6.5967778,8.173451 6.0808169,8.1648811 5.5678308,8.156239 5.2082504,8.0558742 4.9723802,7.953031 4.7365093,7.8502597 4.6111115,7.7293764 4.6111115,7.7293764 4.494099,7.6158773 4.5663991,7.4189257 4.7297926,7.4060782 c 0.00621,-5.389e-4 0.012433,-7.181e-4 0.018663,-7.181e-4 0.051742,5.891e-4 0.101027,0.021922 0.1365954,0.059068 0,0 0.054478,0.060491 0.2425874,0.1424597 0.1881111,0.081989 0.4958737,0.1700623 0.9621381,0.1786324 0.4632895,0.00786 0.7645341,-0.080052 0.9501953,-0.1646062 0.1856622,-0.08452 0.240348,-0.1505794 0.240348,-0.1505794 0.032863,-0.039567 0.080514,-0.064352 0.1321169,-0.068635 z"
     id="path2-3" />
  <path
     style="fill:#ffffff;stroke-width:0.743383"
     d="M 6.4439914,2.1166474 C 6.3480854,2.1151974 6.2660197,2.1844274 6.252161,2.2783045 L 5.9244817,4.3893638 C 5.1717527,4.4114338 4.4575319,4.6217464 3.9188452,4.979868 3.7760861,4.8409945 3.5839146,4.7630701 3.3836602,4.7628551 c -0.4221337,0 -0.7643393,0.3384108 -0.7643367,0.7558533 C 2.6195283,5.80062 2.7783634,6.0589916 3.0313486,6.1889315 3.0124816,6.2799155 3.0025066,6.3716416 3.0014906,6.4635146 3.0014884,7.6114854 4.3703097,8.5421 6.0588367,8.5421 7.7473632,8.5421 9.1161845,7.6114854 9.1161822,6.4635146 9.1148836,6.3718711 9.1046503,6.2803897 9.0855835,6.1896662 9.3390952,6.0598058 9.4982834,5.8010408 9.498355,5.5187084 9.4983578,5.1012659 9.1561518,4.7628551 8.7340187,4.7628551 8.5331417,4.7628772 8.3403476,4.8411033 8.1973404,4.9806039 7.6881383,4.6406721 7.0200718,4.4325578 6.308892,4.3923132 L 6.5992502,2.5351686 7.5927384,2.75366 c 0.03539,0.2837544 0.2789106,0.4970465 0.5680279,0.4975031 0.3165984,0 0.5732524,-0.2538002 0.5732524,-0.5668866 0,-0.3130853 -0.256654,-0.5668857 -0.5732524,-0.5668857 -0.1971756,1.64e-4 -0.3804252,0.1005355 -0.4851747,0.265727 L 6.4835547,2.1218183 c -0.012974,-0.00282 -0.026232,-0.00504 -0.039562,-0.00504 z m -1.340574,3.402061 c 0.3165983,0 0.5732524,0.2538015 0.5732524,0.5668863 0,0.3130863 -0.2566541,0.5668868 -0.5732524,0.5668868 -0.3165988,0 -0.5732524,-0.2538005 -0.5732524,-0.5668868 0,-0.3130848 0.2566536,-0.5668863 0.5732524,-0.5668863 z m 1.9108406,0 c 0.3165992,0 0.5732529,0.2538015 0.5732529,0.5668863 0,0.3130863 -0.2566537,0.5668868 -0.5732529,0.5668868 -0.3165981,0 -0.5732521,-0.2538005 -0.5732521,-0.5668868 0,-0.3130848 0.256654,-0.5668863 0.5732521,-0.5668863 z m 0.3717187,1.6939599 c 0.177783,-0.014858 0.2779684,0.1973518 0.1522702,0.3225638 0,0 -0.1251874,0.1313383 -0.3635081,0.2398952 C 6.9364187,7.8837125 6.57032,7.9844698 6.0543591,7.9758996 5.541373,7.9672732 5.1817926,7.8668929 4.9459224,7.7640497 4.7100515,7.6612783 4.5846537,7.5403951 4.5846537,7.5403951 4.4676412,7.4268968 4.5399413,7.2299444 4.7033348,7.2170969 c 0.00621,-5.388e-4 0.012433,-7.182e-4 0.018663,-7.182e-4 0.051742,5.903e-4 0.101027,0.021922 0.1365954,0.059068 0,0 0.054478,0.060491 0.2425874,0.1424589 0.1881109,0.081989 0.4958735,0.1700619 0.9621379,0.1786323 C 6.526608,7.6043979 6.8278526,7.5164859 7.0135138,7.4319316 7.1991762,7.3474116 7.253862,7.2813523 7.253862,7.2813523 7.286724,7.2417853 7.334377,7.2170003 7.3859789,7.2127193 Z"
     id="path3" />
</svg>
