<?xml version="1.0" encoding="UTF-8" standalone="no"?>
<svg
   width="45.999886"
   height="45.999989"
   version="1.1"
   viewBox="0 0 12.170564 12.170591"
   id="svg12"
   sodipodi:docname="sage-notebook.svg"
   inkscape:version="1.3.2 (091e20ef0f, 2023-11-25)"
   xmlns:inkscape="http://www.inkscape.org/namespaces/inkscape"
   xmlns:sodipodi="http://sodipodi.sourceforge.net/DTD/sodipodi-0.dtd"
   xmlns:xlink="http://www.w3.org/1999/xlink"
   xmlns="http://www.w3.org/2000/svg"
   xmlns:svg="http://www.w3.org/2000/svg">
  <defs
     id="defs16">
    <linearGradient
       id="c"
       y1="523.79999"
       x1="403.57001"
       y2="536.79999"
       x2="416.57001"
       gradientUnits="userSpaceOnUse"
       gradientTransform="matrix(0.34526714,0,0,0.34526706,-134.80427,-174.63325)">
      <stop
         stop-color="#292c2f"
         id="stop1568" />
      <stop
         offset="1"
         stop-opacity="0"
         id="stop1570" />
    </linearGradient>
    <linearGradient
       xlink:href="#b-2"
       id="linearGradient4189"
       x1="14.369"
       y1="22.521999"
       x2="26.521999"
       y2="22.521999"
       gradientUnits="userSpaceOnUse" />
    <linearGradient
       x1="36"
       gradientUnits="userSpaceOnUse"
       x2="14"
       y2="12"
       y1="44"
       id="b-2">
      <stop
         style="stop-color:#bfc9c9;stop-opacity:1"
         stop-color="#536161"
         id="stop1579" />
      <stop
         style="stop-color:#fbfbfb;stop-opacity:1"
         stop-color="#f4f5f5"
         offset="1"
         id="stop1581" />
    </linearGradient>
    <linearGradient
       xlink:href="#b-2"
       id="linearGradient4428"
       gradientUnits="userSpaceOnUse"
       x1="31.586"
       y1="36.345001"
       x2="1.2029999"
       y2="6.723" />
    <linearGradient
       xlink:href="#b-2"
       id="linearGradient4189-3"
       x1="14.369"
       y1="22.521999"
       x2="26.521999"
       y2="22.521999"
       gradientUnits="userSpaceOnUse"
       gradientTransform="translate(20.841982,61.553822)" />
    <linearGradient
       xlink:href="#b-2"
       id="linearGradient4428-5"
       gradientUnits="userSpaceOnUse"
       x1="31.586"
       y1="36.345001"
       x2="1.2029999"
       y2="6.723"
       gradientTransform="translate(20.841982,61.553822)" />
    <linearGradient
       xlink:href="#b-2"
       id="linearGradient4189-3-3"
       x1="14.369"
       y1="22.521999"
       x2="26.521999"
       y2="22.521999"
       gradientUnits="userSpaceOnUse"
       gradientTransform="translate(4.376802,4.4211693)" />
    <linearGradient
       xlink:href="#b-2"
       id="linearGradient4428-5-5"
       gradientUnits="userSpaceOnUse"
       x1="31.586"
       y1="36.345001"
       x2="1.2029999"
       y2="6.723"
       gradientTransform="translate(4.376802,4.4211693)" />
    <linearGradient
       inkscape:collect="always"
       xlink:href="#linearGradient11"
       id="linearGradient13"
       x1="-43.819283"
       y1="23.120178"
       x2="-1.9547797"
       y2="23.120178"
       gradientUnits="userSpaceOnUse"
       gradientTransform="scale(0.26457813)" />
    <linearGradient
       id="linearGradient11"
       inkscape:collect="always">
      <stop
         style="stop-color:#9955ff;stop-opacity:0.65640396;"
         offset="0"
         id="stop4-3" />
      <stop
         style="stop-color:#00ccff;stop-opacity:1"
         offset="1"
         id="stop11" />
    </linearGradient>
    <linearGradient
       inkscape:collect="always"
       xlink:href="#linearGradient14"
       id="linearGradient15"
       x1="-9.6850061"
       y1="45.161198"
       x2="11.98815"
       y2="21.735205"
       gradientUnits="userSpaceOnUse"
       gradientTransform="scale(0.26457813)" />
    <linearGradient
       id="linearGradient14"
       inkscape:collect="always">
      <stop
         style="stop-color:#9955ff;stop-opacity:0.45197046;"
         offset="0"
         id="stop12" />
      <stop
         style="stop-color:#00ccff;stop-opacity:1"
         offset="1"
         id="stop13" />
    </linearGradient>
  </defs>
  <sodipodi:namedview
     id="namedview14"
     pagecolor="#000000"
     bordercolor="#666666"
     borderopacity="1.0"
     inkscape:showpageshadow="2"
     inkscape:pageopacity="0.0"
     inkscape:pagecheckerboard="0"
     inkscape:deskcolor="#d1d1d1"
     showgrid="false"
     inkscape:zoom="5.2149125"
     inkscape:cx="23.20269"
     inkscape:cy="53.692176"
     inkscape:window-width="1920"
     inkscape:window-height="996"
     inkscape:window-x="0"
     inkscape:window-y="0"
     inkscape:window-maximized="1"
     inkscape:current-layer="svg12">
    <inkscape:grid
       type="xygrid"
       id="grid244"
       originx="9.7893915"
       originy="-31.749373"
       spacingy="1"
       spacingx="1"
       units="px"
       visible="false" />
  </sodipodi:namedview>
  <rect
     x="-12.025727"
     y="0.1490714"
     width="11.940627"
     height="11.936014"
     rx="1.6121091"
     stroke="url(#paint4_linear_77:23)"
     shape-rendering="crispEdges"
     id="rect5-6-7-3"
     ry="1.7735944"
     transform="matrix(0.00523883,-0.99998628,0.999988,0.00489859,0,0)"
     style="fill:#80b3ff;fill-opacity:0.15;stroke:url(#linearGradient13);stroke-width:0.188987;stroke-opacity:1" />
  <rect
     x="-3.7266586"
     y="4.6446943"
     width="7.912631"
     height="7.912384"
     rx="1.612043"
     shape-rendering="crispEdges"
     id="rect5-6-6-6-6"
     style="fill:#80b3ff;fill-opacity:0.122146;stroke:url(#linearGradient15);stroke-width:0.188987;stroke-opacity:1"
     ry="1.7735215"
     transform="matrix(0.72612649,-0.68756114,0.6879775,0.72573202,0,0)" />
  <path
     style="opacity:1;fill:#d0addf;fill-opacity:1;stroke:none;stroke-width:0.277807"
     d="m 5.0482531,2.9103595 c -0.1323467,0 -0.2393175,0.1063824 -0.2393175,0.2377373 0,0.051675 0.019656,0.099034 0.047865,0.1380415 L 4.2585049,3.968675 c -0.023906,-0.0063 -0.045888,-0.015338 -0.071797,-0.015338 -0.1609448,0 -0.2951589,0.1316773 -0.2951589,0.2914181 0,0.00601 0.00765,0.00939 0.008,0.015338 L 3.3730451,4.6051954 c -0.038808,-0.026854 -0.084717,-0.046013 -0.1356139,-0.046013 -0.1323435,0 -0.2393168,0.1063795 -0.2393168,0.237737 0,0.080078 0.042592,0.1486195 0.1037031,0.1917226 l -0.095732,1.7791927 c -0.058319,0.031636 -0.095726,0.0981 -0.095726,0.1687157 0,0.1029707 0.087713,0.1840564 0.1914538,0.1840564 0.0055,0 0.010603,4.887e-4 0.01595,0 l 1.3082668,1.3267243 c -1.171e-4,0.00277 0,0.00494 0,0.00768 0,0.1029708 0.079734,0.1917226 0.1834746,0.1917226 0.036805,0 0.074728,-0.012531 0.1037034,-0.030678 l 0.717954,0.3757711 c -0.00143,0.010694 -0.008,0.019584 -0.008,0.030669 0,0.1313563 0.106974,0.2377371 0.2393174,0.2377371 0.1239053,0 0.2188509,-0.095022 0.2313384,-0.2147335 l 1.9145559,-0.559851 c 0.043488,0.060147 0.1191506,0.099695 0.1994305,0.099695 0.132341,0 0.2393168,-0.1063774 0.2393168,-0.2377364 0,-0.055537 -0.023689,-0.1052327 -0.055836,-0.145711 L 9.0209114,6.3843576 c 0.1323386,0 0.239317,-0.1063797 0.239317,-0.2377376 0,-0.1152552 -0.081801,-0.2082444 -0.1914537,-0.2300674 L 8.8055226,5.0499907 c 0.041301,-0.034198 0.071803,-0.080485 0.071803,-0.1380414 0,-0.1029662 -0.087717,-0.1840536 -0.1914538,-0.1840536 -0.00883,0 -0.015412,0.0065 -0.023933,0.00768 L 7.4573705,3.2784689 c 0.00169,-0.00995 0.00798,-0.020285 0.00798,-0.03067 0,-0.10297 -0.087715,-0.1840562 -0.1914536,-0.1840562 -0.061782,0 -0.1093549,0.031001 -0.1435903,0.076684 L 5.2715925,3.0714047 C 5.2389151,2.978633 5.1528499,2.9103595 5.0482309,2.9103595 Z m 0.2233615,0.3220951 1.8267871,0.069019 c 0.012018,0.04164 0.03689,0.075479 0.0718,0.099697 L 7.1223344,3.6082348 C 7.0368482,3.6280674 6.9689767,3.685342 6.93088,3.7616137 L 4.8887069,4.0070171 5.0243207,3.3781664 c 0.009,0.00101 0.014655,0.00768 0.023934,0.00768 0.1019377,0 0.1887357,-0.064316 0.2233612,-0.1533809 z m 2.0820595,0.1840537 1.1726518,1.4187536 c -0.012289,0.024792 -0.023932,0.047189 -0.023932,0.076682 0,0.051486 0.021833,0.096632 0.055841,0.1303755 L 8.4625074,5.3107365 7.4414221,4.0223559 c 0.022425,-0.040981 0.03989,-0.088126 0.03989,-0.1380414 0,-0.1250366 -0.079538,-0.2280363 -0.1914536,-0.2684125 l 0.039887,-0.1917221 c 0.00828,-0.00267 0.016264,-0.00393 0.023934,-0.00768 z m -2.425082,0.038348 -0.1276354,0.559832 -0.3908836,0.046013 c -0.00216,-0.00284 -0.00555,-0.00494 -0.00798,-0.00768 L 4.9285969,3.4548714 Z M 6.9388583,4.0913779 6.3485423,6.376719 c -0.018488,0.0042 -0.038539,0.0084 -0.055839,0.015338 L 4.7770253,4.6818879 5.4870006,4.6052025 c 0.031874,0.057884 0.096372,0.099695 0.1675216,0.099695 0.1037401,0 0.1834776,-0.088751 0.1834776,-0.1917241 0,-0.014217 -0.00495,-0.025022 -0.008,-0.038344 L 6.851084,4.0990567 6.938829,4.0913767 Z M 6.500109,4.1373913 5.7901336,4.3981369 c -0.03445,-0.04099 -0.077626,-0.069017 -0.1356116,-0.069017 -0.1037423,0 -0.1914535,0.081087 -0.1914535,0.184051 0,0.00257 -9.52e-5,0.00521 0,0.00768 L 4.7610724,4.6051839 4.8169114,4.3291015 6.5001084,4.1373761 Z M 7.2579474,4.1757393 8.3667831,5.586824 8.1354421,6.2310144 6.7474049,6.5531121 c -0.02049,-0.037452 -0.04779,-0.064088 -0.079775,-0.092029 z M 4.7211855,4.3444483 4.6733213,4.5668504 4.4978205,4.3674568 4.7211852,4.3444512 Z m -0.7578389,0.076692 c 0.014166,0.017047 0.03018,0.03258 0.047868,0.046013 l -0.039892,0.2224004 -0.5025661,0.061354 c -4.883e-4,-0.00257 4.886e-4,-0.00521 0,-0.00768 z m 0.2074088,0.1073662 c 0.00542,2.32e-4 0.010453,0 0.015951,0 0.0055,0 0.010549,2.32e-4 0.015949,0 l 0.1116778,0.1227021 -0.1675246,0.023006 0.023934,-0.1457104 z m 0.2153858,0.1993937 0.2074091,0.2300655 -0.095729,0.4217906 c -0.099798,0.00437 -0.1754986,0.083911 -0.1754986,0.1840562 0,0.058094 0.029833,0.1038474 0.071799,0.1380417 L 3.7639164,6.652803 4.1308685,4.7585752 Z M 3.9553704,4.7739149 3.5565098,6.836857 C 3.4857898,6.850922 3.4302766,6.898474 3.3969621,6.9595585 L 3.2852842,6.9365519 c 0,-0.077222 -0.044265,-0.148081 -0.1116816,-0.176385 l 0.095724,-1.7331807 c 0.1059796,-0.014462 0.1848598,-0.0942 0.1994327,-0.199391 l 0.4866111,-0.053679 z m 0.7019988,0.2684119 1.4199474,1.5874675 c -0.00278,0.00992 -0.00605,0.020442 -0.00801,0.03067 L 3.7718807,6.9058749 C 3.7570562,6.8911497 3.742322,6.8780061 3.7240136,6.8675295 L 4.4579231,5.740195 c 0.015728,0.0042 0.030779,0.00768 0.047866,0.00768 0.1037398,0 0.1914538,-0.081079 0.1914538,-0.1840538 0,-0.073624 -0.049258,-0.138415 -0.1116819,-0.1687192 L 4.657357,5.0423302 Z m 3.9726626,0.046012 c 0.00501,0.00146 0.010821,-0.0012 0.015949,0 L 8.861366,5.8245568 8.5263197,5.3874261 8.6300227,5.0883398 Z M 8.4226226,5.6635098 8.7576666,6.0853007 8.2311691,6.2080052 Z M 8.7815986,6.3230379 8.0237601,7.971859 8.0397081,6.9442216 c 0.08009,-0.016262 0.1435904,-0.084413 0.1435904,-0.1687155 0,-0.068349 -0.046024,-0.124766 -0.1037033,-0.153377 L 8.1354337,6.4764135 8.7815904,6.323035 Z m -0.7339069,0.1763869 -0.039885,0.099696 c -0.097071,0 -0.1755012,0.080044 -0.1755012,0.1763853 0,0.080475 0.05298,0.1485819 0.1276354,0.1687155 l -0.023934,1.1733447 c -0.058532,0.0179 -0.1057086,0.063244 -0.1356116,0.1150348 L 6.7553785,8.0025307 c 0,-0.1029658 -0.087715,-0.1840534 -0.191456,-0.1840534 -0.1009945,0 -0.1871626,0.077194 -0.1914536,0.1763879 L 6.1171962,8.05621 6.436285,7.0899244 C 6.6108408,7.0860577 6.7569737,6.9563403 6.7872844,6.7908351 L 8.0476865,6.4994213 Z M 6.109225,6.8982066 C 6.131132,6.9382226 6.16208,6.9765286 6.19697,7.0055729 L 5.8300204,8.1252378 5.0642055,8.3169604 3.8277326,7.1589525 c 0.00169,-0.00464 0.00643,-0.010519 0.008,-0.015338 z m -2.768101,0.1993937 0.031907,0.00768 c 0.00143,0.00944 -0.00261,0.02164 0,0.03067 z m 0.1914516,0.1917248 c 0.022686,0.00701 0.046754,0.015338 0.071802,0.015338 0.0054,0 0.010674,2.323e-4 0.015947,0 l 1.0450182,0.9739546 c -0.016439,-0.00464 -0.037881,-0.00768 -0.055839,-0.00768 -0.036804,0 -0.066751,0.01253 -0.095724,0.030676 L 3.5325691,7.2893534 Z m 2.8558509,0.7822292 c 0.026871,0.07036 0.095201,0.1150356 0.175501,0.1150356 0.077808,0 0.1469825,-0.040443 0.1754984,-0.107367 L 7.6488315,8.2786167 5.8778842,8.7924341 6.0932695,8.1405752 Z M 5.8060912,8.2172645 5.614635,8.7924341 c -0.010549,0.0019 -0.021906,0.0042 -0.031906,0.00768 L 5.1280241,8.3783095 Z M 4.8488201,8.4473328 4.968479,8.562368 4.8009567,8.4703386 c 2.324e-4,-0.00484 0,-0.010376 0,-0.015338 z"
     id="path14-3" />
</svg>
