<?xml version="1.0" encoding="UTF-8" standalone="no"?>
<svg
   width="45.999886"
   height="45.999989"
   version="1.1"
   viewBox="0 0 12.170564 12.170591"
   id="svg12"
   sodipodi:docname="smw.svg"
   inkscape:version="1.3.2 (091e20ef0f, 2023-11-25)"
   xmlns:inkscape="http://www.inkscape.org/namespaces/inkscape"
   xmlns:sodipodi="http://sodipodi.sourceforge.net/DTD/sodipodi-0.dtd"
   xmlns:xlink="http://www.w3.org/1999/xlink"
   xmlns="http://www.w3.org/2000/svg"
   xmlns:svg="http://www.w3.org/2000/svg">
  <defs
     id="defs16">
    <linearGradient
       id="c"
       y1="523.79999"
       x1="403.57001"
       y2="536.79999"
       x2="416.57001"
       gradientUnits="userSpaceOnUse"
       gradientTransform="matrix(0.34526714,0,0,0.34526706,-134.80427,-174.63325)">
      <stop
         stop-color="#292c2f"
         id="stop1568" />
      <stop
         offset="1"
         stop-opacity="0"
         id="stop1570" />
    </linearGradient>
    <linearGradient
       xlink:href="#b-2"
       id="linearGradient4189"
       x1="14.369"
       y1="22.521999"
       x2="26.521999"
       y2="22.521999"
       gradientUnits="userSpaceOnUse" />
    <linearGradient
       x1="36"
       gradientUnits="userSpaceOnUse"
       x2="14"
       y2="12"
       y1="44"
       id="b-2">
      <stop
         style="stop-color:#bfc9c9;stop-opacity:1"
         stop-color="#536161"
         id="stop1579" />
      <stop
         style="stop-color:#fbfbfb;stop-opacity:1"
         stop-color="#f4f5f5"
         offset="1"
         id="stop1581" />
    </linearGradient>
    <linearGradient
       xlink:href="#b-2"
       id="linearGradient4428"
       gradientUnits="userSpaceOnUse"
       x1="31.586"
       y1="36.345001"
       x2="1.2029999"
       y2="6.723" />
    <linearGradient
       xlink:href="#b-2"
       id="linearGradient4189-3"
       x1="14.369"
       y1="22.521999"
       x2="26.521999"
       y2="22.521999"
       gradientUnits="userSpaceOnUse"
       gradientTransform="translate(20.841982,61.553822)" />
    <linearGradient
       xlink:href="#b-2"
       id="linearGradient4428-5"
       gradientUnits="userSpaceOnUse"
       x1="31.586"
       y1="36.345001"
       x2="1.2029999"
       y2="6.723"
       gradientTransform="translate(20.841982,61.553822)" />
    <linearGradient
       xlink:href="#b-2"
       id="linearGradient4189-3-3"
       x1="14.369"
       y1="22.521999"
       x2="26.521999"
       y2="22.521999"
       gradientUnits="userSpaceOnUse"
       gradientTransform="translate(4.376802,4.4211693)" />
    <linearGradient
       xlink:href="#b-2"
       id="linearGradient4428-5-5"
       gradientUnits="userSpaceOnUse"
       x1="31.586"
       y1="36.345001"
       x2="1.2029999"
       y2="6.723"
       gradientTransform="translate(4.376802,4.4211693)" />
    <linearGradient
       inkscape:collect="always"
       xlink:href="#linearGradient11"
       id="linearGradient13"
       x1="-43.819283"
       y1="23.120178"
       x2="-1.9547797"
       y2="23.120178"
       gradientUnits="userSpaceOnUse"
       gradientTransform="scale(0.26457813)" />
    <linearGradient
       id="linearGradient11"
       inkscape:collect="always">
      <stop
         style="stop-color:#9955ff;stop-opacity:0.65640396;"
         offset="0"
         id="stop4-3" />
      <stop
         style="stop-color:#00ccff;stop-opacity:1"
         offset="1"
         id="stop11" />
    </linearGradient>
    <linearGradient
       inkscape:collect="always"
       xlink:href="#linearGradient14"
       id="linearGradient15"
       x1="-9.6850061"
       y1="45.161198"
       x2="11.98815"
       y2="21.735205"
       gradientUnits="userSpaceOnUse"
       gradientTransform="scale(0.26457813)" />
    <linearGradient
       id="linearGradient14"
       inkscape:collect="always">
      <stop
         style="stop-color:#9955ff;stop-opacity:0.45197046;"
         offset="0"
         id="stop12" />
      <stop
         style="stop-color:#00ccff;stop-opacity:1"
         offset="1"
         id="stop13" />
    </linearGradient>
  </defs>
  <sodipodi:namedview
     id="namedview14"
     pagecolor="#000000"
     bordercolor="#666666"
     borderopacity="1.0"
     inkscape:showpageshadow="2"
     inkscape:pageopacity="0.0"
     inkscape:pagecheckerboard="0"
     inkscape:deskcolor="#d1d1d1"
     showgrid="false"
     inkscape:zoom="5.2149125"
     inkscape:cx="23.20269"
     inkscape:cy="69.032798"
     inkscape:window-width="1920"
     inkscape:window-height="996"
     inkscape:window-x="0"
     inkscape:window-y="0"
     inkscape:window-maximized="1"
     inkscape:current-layer="svg12">
    <inkscape:grid
       type="xygrid"
       id="grid244"
       originx="9.7893915"
       originy="-31.749373"
       spacingy="1"
       spacingx="1"
       units="px"
       visible="false" />
  </sodipodi:namedview>
  <rect
     x="-12.025727"
     y="0.1490714"
     width="11.940627"
     height="11.936014"
     rx="1.6121091"
     stroke="url(#paint4_linear_77:23)"
     shape-rendering="crispEdges"
     id="rect5-6-7-3"
     ry="1.7735944"
     transform="matrix(0.00523883,-0.99998628,0.999988,0.00489859,0,0)"
     style="fill:#80b3ff;fill-opacity:0.15;stroke:url(#linearGradient13);stroke-width:0.188987;stroke-opacity:1" />
  <rect
     x="-3.7266586"
     y="4.6446943"
     width="7.912631"
     height="7.912384"
     rx="1.612043"
     shape-rendering="crispEdges"
     id="rect5-6-6-6-6"
     style="fill:#80b3ff;fill-opacity:0.122146;stroke:url(#linearGradient15);stroke-width:0.188987;stroke-opacity:1"
     ry="1.7735215"
     transform="matrix(0.72612649,-0.68756114,0.6879775,0.72573202,0,0)" />
  <ellipse
     style="opacity:0.2;stroke-width:0.143365"
     cx="0.69471282"
     cy="8.3662977"
     rx="0.55982077"
     ry="0.89101595"
     transform="matrix(0.85207469,-0.52342021,0.42078744,0.90715926,0,0)"
     id="ellipse1" />
  <ellipse
     style="opacity:0.2;stroke-width:0.143365"
     cx="-10.421339"
     cy="1.9523984"
     rx="0.55982077"
     ry="0.89101595"
     transform="matrix(-0.85207469,-0.52342021,-0.42078744,0.90715926,0,0)"
     id="ellipse2" />
  <path
     style="opacity:0.2;stroke-width:0.143362"
     d="M 4.258304,5.4565232 V 6.8636524 C 4.1443678,7.0779314 3.9357397,7.369658 3.9357397,7.768069 c 0,0.8241194 0.9627575,1.4921657 2.1503868,1.4921657 1.1876297,0 2.1504678,-0.6680463 2.1504678,-1.4921657 0,-0.3654872 -0.2086376,-0.6412095 -0.3225642,-0.8498162 V 5.4565232 L 6.0861671,4.7665611 Z"
     id="path2" />
  <path
     style="fill:#ea2028;stroke-width:0.143362"
     d="m 8.5591584,5.3843923 c 0,1.3663713 -1.1071958,2.4740335 -2.4729911,2.4740335 -1.3657957,0 -2.4729915,-1.1076622 -2.4729915,-2.4740335 0,-1.3663713 1.4974115,-2.4740328 2.4729915,-2.4740328 0.9755798,0 2.4729911,1.1076615 2.4729911,2.4740328 z"
     id="path3" />
  <ellipse
     style="fill:#e5b493;stroke-width:0.143365"
     cx="-10.375741"
     cy="1.8601128"
     rx="0.55982077"
     ry="0.89101595"
     transform="matrix(-0.85207469,-0.52342021,-0.42078744,0.90715926,0,0)"
     id="ellipse3" />
  <path
     style="opacity:0.1;stroke-width:0.143362"
     d="M 8.2976919,6.4530997 C 8.4019099,6.453297 8.4932501,6.5338967 8.5210792,6.650237 8.4494685,6.5948636 8.3973681,6.5449609 8.2914887,6.5448483 8.242216,6.5448978 8.1445493,6.5701115 8.0989838,6.5834221 8.1409284,6.5026468 8.2163175,6.4532032 8.2976919,6.4530997 Z"
     id="path4" />
  <path
     style="opacity:0.1;stroke-width:0.143362"
     d="m 8.3284475,7.0195493 c 0.040463,0.096084 0.00187,0.2116604 -0.09437,0.2826553 0.02305,-0.087558 0.048673,-0.1550131 0.0075,-0.2525999 -0.019256,-0.045372 -0.080539,-0.1255211 -0.1105574,-0.1623076 0.090705,0.00713 0.1656084,0.057324 0.1974274,0.1322522 z"
     id="path5" />
  <path
     style="fill:#a84e37;stroke-width:0.143362"
     d="M 8.1832345,5.6118821 H 7.7002084 V 7.4655619 C 8.0141178,7.3581361 8.2092368,7.1965188 8.2398202,6.8862736 8.254191,6.7111116 8.1442809,6.5059287 8.1348291,6.3044561 8.1198433,5.985027 8.1629083,5.9038346 8.1832345,5.6118821 Z"
     id="path6" />
  <ellipse
     style="fill:#e5b493;stroke-width:0.143365"
     cx="0.74030709"
     cy="8.2740164"
     rx="0.55982077"
     ry="0.89101595"
     transform="matrix(0.85207469,-0.52342021,0.42078744,0.90715926,0,0)"
     id="ellipse6" />
  <path
     style="opacity:0.1;stroke-width:0.143362"
     d="M 3.8727484,6.4530997 C 3.7685304,6.453297 3.67719,6.5338967 3.6493607,6.650237 3.7209713,6.5948636 3.7730715,6.5449609 3.8789512,6.5448483 c 0.049273,4.95e-5 0.1469394,0.025263 0.1925052,0.038574 C 4.0295115,6.502646 3.9541228,6.4532025 3.8727484,6.4530997 Z"
     id="path7" />
  <path
     style="opacity:0.1;stroke-width:0.143362"
     d="m 3.8419923,7.0195493 c -0.040463,0.096084 -0.00187,0.2116604 0.09437,0.2826553 -0.02305,-0.087558 -0.048674,-0.1550131 -0.0075,-0.2525999 0.019256,-0.045372 0.080539,-0.1255211 0.1105578,-0.1623076 -0.090705,0.00713 -0.165609,0.057324 -0.1974291,0.1322522 z"
     id="path8" />
  <path
     style="fill:#a84e37;stroke-width:0.143362"
     d="M 4.0056708,5.6118821 H 4.4886966 V 7.4655619 C 4.1747877,7.3581361 3.9663225,7.1965188 3.9357397,6.8862736 3.921369,6.7111116 4.0446247,6.5059287 4.0540762,6.3044561 4.069062,5.985027 4.0259969,5.9038346 4.0056708,5.6118821 Z"
     id="path9" />
  <path
     style="fill:#f0c3a5;stroke-width:0.143362"
     d="m 4.258304,5.3489564 v 1.4071291 c -0.1139362,0.214279 -0.3225643,0.5060057 -0.3225643,0.9044167 0,0.8241194 0.9627575,1.4921657 2.1503868,1.4921657 1.1876297,0 2.1504678,-0.6680463 2.1504678,-1.4921657 0,-0.3654864 -0.2086376,-0.6412088 -0.3225642,-0.8498162 V 5.3489564 L 6.0861671,4.6589943 Z"
     id="path10" />
  <path
     style="opacity:0.1;stroke-width:0.143362"
     d="M 5.4284013,8.4151311 A 0.79709675,0.37005037 0 0 0 6.1185116,8.6008823 0.79709675,0.37005037 0 0 0 6.7474233,8.4573341 1.2295082,0.37005037 0 0 1 6.1966429,8.4968608 1.2295082,0.37005037 0 0 1 5.4284013,8.4151296 Z m 0.3065838,0.2466776 a 0.40115318,0.15114736 0 0 0 -0.00714,0.027934 0.40115318,0.15114736 0 0 0 0.4010535,0.1509795 0.40115318,0.15114736 0 0 0 0.4010543,-0.1509795 0.40115318,0.15114736 0 0 0 -0.00505,-0.023477 0.57828579,0.15114736 0 0 1 -0.3856059,0.038934 0.57828579,0.15114736 0 0 1 -0.4043219,-0.043391 z"
     id="path11" />
  <ellipse
     style="opacity:0.2;stroke-width:0.143362"
     cx="5.2259955"
     cy="6.5367594"
     rx="0.5376066"
     ry="0.61463606"
     id="ellipse11" />
  <path
     style="fill:#5b4b53;stroke-width:0.143362"
     d="M 7.6402539,7.0013353 C 7.2831546,7.3223618 6.6910802,7.5143497 6.0581923,7.5143399 5.4370747,7.5137247 4.8549422,7.3282555 4.4964044,7.01665 4.4189611,7.1912373 4.3961524,7.3523744 4.3658255,7.519193 c -1.08e-5,0.1800143 0.1440162,0.3259508 0.3216875,0.3259538 0.051916,-4.28e-5 0.1030501,-0.012815 0.1490362,-0.037231 -0.00287,0.017137 -0.00437,0.034477 -0.00451,0.051862 3.07e-5,0.1799851 0.1440454,0.3258758 0.3216877,0.3258788 0.1219324,-1.621e-4 0.2332968,-0.070147 0.2876078,-0.1807579 -0.00203,0.014774 -0.00308,0.029668 -0.0032,0.044584 2.32e-5,0.1934217 0.1586461,0.3502092 0.3543143,0.3502175 0.117802,-4.13e-5 0.2278807,-0.057954 0.2937115,-0.1545239 0.065832,0.09657 0.1759103,0.1544826 0.2937123,0.1545239 0.1956966,3.15e-5 0.3543635,-0.1567681 0.3543865,-0.3502175 -1.274e-4,-0.014939 -0.00121,-0.029855 -0.00328,-0.044659 0.05429,0.1106378 0.1656588,0.1806603 0.287608,0.1808329 0.1776421,-3e-6 0.3216571,-0.1458937 0.321688,-0.3258788 -1.391e-4,-0.017377 -0.00165,-0.034725 -0.00451,-0.051862 0.045986,0.024408 0.09712,0.037186 0.1490356,0.037231 0.1776714,-3e-6 0.3216985,-0.1459395 0.3216882,-0.3259538 C 7.7671131,7.339962 7.7041834,7.159018 7.6402311,7.0013353 Z"
     id="path12" />
  <path
     style="fill:#5d4e55;stroke-width:0.143362"
     d="M 5.2129242,5.0952655 A 0.49395424,0.61649927 0 0 0 4.718982,5.7118257 0.49395424,0.61649927 0 0 0 4.723662,5.7908295 0.5678165,0.61649927 0 0 1 5.2406287,5.4279872 0.5678165,0.61649927 0 0 1 5.7063664,5.6930648 0.49395424,0.61649927 0 0 0 5.2129275,5.0952655 Z"
     id="path13" />
  <ellipse
     style="fill:#ffffff;stroke-width:0.143362"
     cx="6.0861673"
     cy="4.0944524"
     rx="0.8601706"
     ry="0.64540017"
     id="ellipse13" />
  <path
     style="fill:#ed475f;stroke-width:0.143362"
     d="M 6.386611,3.5966353 6.0774871,3.9358622 5.7848837,3.6126028 5.4393589,4.349041 5.7408537,4.4414349 5.8350038,3.9476271 6.0772071,4.2148634 6.3398506,3.9266183 6.4956491,4.3966162 6.7329754,4.3014206 Z"
     id="path14" />
  <ellipse
     style="opacity:0.2;stroke-width:0.143362"
     cx="-6.9463391"
     cy="6.5367594"
     rx="0.5376066"
     ry="0.61463606"
     transform="scale(-1,1)"
     id="ellipse14" />
  <ellipse
     style="fill:#ffffff;stroke-width:0.143362"
     cx="5.2259955"
     cy="6.4291925"
     rx="0.5376066"
     ry="0.61463606"
     id="ellipse15" />
  <path
     style="fill:#2784cf;stroke-width:0.143362"
     d="m 5.5046999,5.9315407 a 0.35560621,0.47928248 0 0 0 -0.3555042,0.4793072 0.35560621,0.47928248 0 0 0 0.3555042,0.4793086 0.35560621,0.47928248 0 0 0 0.092101,-0.016507 0.53760674,0.61466658 0 0 0 0.1668022,-0.4444933 0.53760674,0.61466658 0 0 0 -0.219303,-0.4943149 0.35560621,0.47928248 0 0 0 -0.0396,-0.0033 z"
     id="path15" />
  <ellipse
     style="fill:#3f3f3f;stroke-width:0.143362"
     cx="5.4947982"
     cy="6.408534"
     rx="0.1920331"
     ry="0.26891658"
     id="ellipse16" />
  <path
     style="fill:#5d4e55;stroke-width:0.143362"
     d="M 6.9629002,5.0952655 A 0.49395424,0.61649927 0 0 1 7.4568428,5.7118257 0.49395424,0.61649927 0 0 1 7.4521629,5.7908295 0.5678165,0.61649927 0 0 0 6.9351962,5.4279872 0.5678165,0.61649927 0 0 0 6.4694584,5.6930648 0.49395424,0.61649927 0 0 1 6.9628972,5.0952655 Z"
     id="path16" />
  <ellipse
     style="fill:#ffffff;stroke-width:0.143362"
     cx="-6.9463391"
     cy="6.4291925"
     rx="0.5376066"
     ry="0.61463606"
     transform="scale(-1,1)"
     id="ellipse17" />
  <path
     style="fill:#2784cf;stroke-width:0.143362"
     d="M 6.667635,5.9315407 A 0.35560625,0.47928253 0 0 1 7.023139,6.4108479 0.35560625,0.47928253 0 0 1 6.667635,6.8901573 0.35560625,0.47928253 0 0 1 6.5755334,6.8736503 0.5376068,0.61466662 0 0 1 6.4087313,6.4291578 0.5376068,0.61466662 0 0 1 6.6280344,5.9348429 a 0.35560625,0.47928253 0 0 1 0.0396,-0.0033 z"
     id="path17" />
  <ellipse
     style="fill:#3f3f3f;stroke-width:0.143362"
     cx="-6.6775351"
     cy="6.408534"
     rx="0.1920331"
     ry="0.26891658"
     transform="scale(-1,1)"
     id="ellipse18" />
  <ellipse
     style="opacity:0.2;stroke-width:0.143362"
     cx="6.0861673"
     cy="7.3778124"
     rx="0.8601706"
     ry="0.69918329"
     id="ellipse19" />
  <ellipse
     style="fill:#ffd0ae;stroke-width:0.143362"
     cx="6.0861673"
     cy="7.2702441"
     rx="0.8601706"
     ry="0.69918329"
     id="ellipse20" />
  <path
     style="opacity:0.1;stroke-width:0.143362"
     d="M 6.0861671,4.6433172 C 5.2398565,4.6573331 4.35485,4.8413713 3.9972626,5.5695193 3.9262031,5.7142162 3.8928638,5.8903777 4.0314581,5.96239 4.1588479,6.0233757 4.215022,5.9472186 4.3038335,5.8675478 4.8336405,5.4076266 5.3805032,5.1646435 6.0861671,5.1646435 c 0.7056641,0 1.2525266,0.2429831 1.7823339,0.7029043 0.088812,0.079674 0.1449852,0.1558271 0.2723751,0.094842 C 8.2794703,5.8903747 8.2461311,5.7142162 8.1750716,5.5695193 7.8174843,4.8413713 6.9324777,4.6573331 6.0861671,4.6433172 Z"
     id="path20" />
  <path
     style="fill:#ff3137;stroke-width:0.143362"
     d="M 6.0861671,4.5357503 C 5.2398565,4.5497663 4.35485,4.7338045 3.9972626,5.4619525 3.9262031,5.6066494 3.8928638,5.7828109 4.0314581,5.8548232 4.1588479,5.9158089 4.215022,5.8396518 4.3038335,5.759981 4.8336405,5.3000598 5.3805032,5.0570767 6.0861671,5.0570767 c 0.7056641,0 1.2525266,0.2429831 1.7823339,0.7029043 C 7.957313,5.839655 8.0134862,5.9158081 8.1408761,5.854823 8.2794703,5.7828079 8.2461311,5.6066494 8.1750716,5.4619525 7.8174843,4.7338045 6.9324777,4.5497663 6.0861671,4.5357503 Z"
     id="path21" />
  <path
     style="opacity:0.2;fill:#ffffff;stroke-width:0.143362"
     d="m 6.0861671,2.9104398 c -0.9755798,0 -2.4729913,1.107663 -2.4729913,2.4740335 0,0.021069 0.00101,0.041875 0.00147,0.062817 0.03229,-1.345643 1.5066566,-2.4292847 2.4715213,-2.4292847 0.9648648,0 2.4392308,1.0836417 2.4715215,2.4292847 5.756e-4,-0.020941 0.00147,-0.041755 0.00147,-0.062817 0,-1.3663705 -1.4974114,-2.4740335 -2.4729915,-2.4740335 z"
     id="path22" />
  <path
     style="opacity:0.2;fill:#ffffff;stroke-width:0.143362"
     d="M 6.0861671,6.5710681 A 0.86017092,0.69918332 0 0 0 5.2259963,7.2702516 0.86017092,0.69918332 0 0 0 5.2291463,7.3263456 0.86017092,0.69918332 0 0 1 6.0861668,6.6786346 0.86017092,0.69918332 0 0 1 6.943188,7.3217237 0.86017092,0.69918332 0 0 0 6.946338,7.2702517 0.86017092,0.69918332 0 0 0 6.0861682,6.5710682 Z"
     id="path23" />
  <path
     style="opacity:0.2;fill:#ffffff;stroke-width:0.143362"
     d="m 6.0861671,4.5357053 c -0.8463106,0.014016 -1.7313084,0.1981435 -2.0888965,0.9262922 -0.044268,0.090141 -0.07374,0.1923908 -0.056281,0.2741677 0.00918,-0.055261 0.029999,-0.1130854 0.056281,-0.1666017 0.3575881,-0.7281479 1.2425859,-0.9122755 2.0888965,-0.9262914 0.8463106,0.014016 1.7313089,0.1981435 2.0888968,0.9262914 0.026282,0.053513 0.047109,0.1113387 0.05628,0.1666017 0.017458,-0.081777 -0.012013,-0.184027 -0.05628,-0.2741677 C 7.817476,4.7338488 6.9324777,4.5497212 6.0861671,4.5357053 Z"
     id="path24" />
</svg>
