<?xml version="1.0" encoding="UTF-8" standalone="no"?>
<svg
   width="45.999886"
   height="45.999989"
   version="1.1"
   viewBox="0 0 12.170564 12.170591"
   id="svg12"
   sodipodi:docname="synapse.svg"
   inkscape:version="1.3.2 (091e20ef0f, 2023-11-25)"
   xmlns:inkscape="http://www.inkscape.org/namespaces/inkscape"
   xmlns:sodipodi="http://sodipodi.sourceforge.net/DTD/sodipodi-0.dtd"
   xmlns:xlink="http://www.w3.org/1999/xlink"
   xmlns="http://www.w3.org/2000/svg"
   xmlns:svg="http://www.w3.org/2000/svg">
  <defs
     id="defs16">
    <linearGradient
       id="c"
       y1="523.79999"
       x1="403.57001"
       y2="536.79999"
       x2="416.57001"
       gradientUnits="userSpaceOnUse"
       gradientTransform="matrix(0.34526714,0,0,0.34526706,-134.80427,-174.63325)">
      <stop
         stop-color="#292c2f"
         id="stop1568" />
      <stop
         offset="1"
         stop-opacity="0"
         id="stop1570" />
    </linearGradient>
    <linearGradient
       xlink:href="#b-2"
       id="linearGradient4189"
       x1="14.369"
       y1="22.521999"
       x2="26.521999"
       y2="22.521999"
       gradientUnits="userSpaceOnUse" />
    <linearGradient
       x1="36"
       gradientUnits="userSpaceOnUse"
       x2="14"
       y2="12"
       y1="44"
       id="b-2">
      <stop
         style="stop-color:#bfc9c9;stop-opacity:1"
         stop-color="#536161"
         id="stop1579" />
      <stop
         style="stop-color:#fbfbfb;stop-opacity:1"
         stop-color="#f4f5f5"
         offset="1"
         id="stop1581" />
    </linearGradient>
    <linearGradient
       xlink:href="#b-2"
       id="linearGradient4428"
       gradientUnits="userSpaceOnUse"
       x1="31.586"
       y1="36.345001"
       x2="1.2029999"
       y2="6.723" />
    <linearGradient
       xlink:href="#b-2"
       id="linearGradient4189-3"
       x1="14.369"
       y1="22.521999"
       x2="26.521999"
       y2="22.521999"
       gradientUnits="userSpaceOnUse"
       gradientTransform="translate(20.841982,61.553822)" />
    <linearGradient
       xlink:href="#b-2"
       id="linearGradient4428-5"
       gradientUnits="userSpaceOnUse"
       x1="31.586"
       y1="36.345001"
       x2="1.2029999"
       y2="6.723"
       gradientTransform="translate(20.841982,61.553822)" />
    <linearGradient
       xlink:href="#b-2"
       id="linearGradient4189-3-3"
       x1="14.369"
       y1="22.521999"
       x2="26.521999"
       y2="22.521999"
       gradientUnits="userSpaceOnUse"
       gradientTransform="translate(4.376802,4.4211693)" />
    <linearGradient
       xlink:href="#b-2"
       id="linearGradient4428-5-5"
       gradientUnits="userSpaceOnUse"
       x1="31.586"
       y1="36.345001"
       x2="1.2029999"
       y2="6.723"
       gradientTransform="translate(4.376802,4.4211693)" />
    <linearGradient
       inkscape:collect="always"
       xlink:href="#linearGradient11"
       id="linearGradient13"
       x1="-43.819283"
       y1="23.120178"
       x2="-1.9547797"
       y2="23.120178"
       gradientUnits="userSpaceOnUse"
       gradientTransform="scale(0.26457813)" />
    <linearGradient
       id="linearGradient11"
       inkscape:collect="always">
      <stop
         style="stop-color:#37c871;stop-opacity:1"
         offset="0"
         id="stop4-3" />
      <stop
         style="stop-color:#00ccff;stop-opacity:1"
         offset="1"
         id="stop11" />
    </linearGradient>
    <linearGradient
       inkscape:collect="always"
       xlink:href="#linearGradient14"
       id="linearGradient15"
       x1="-9.6850061"
       y1="45.161198"
       x2="11.98815"
       y2="21.735205"
       gradientUnits="userSpaceOnUse"
       gradientTransform="scale(0.26457813)" />
    <linearGradient
       id="linearGradient14"
       inkscape:collect="always">
      <stop
         style="stop-color:#37c871;stop-opacity:1"
         offset="0"
         id="stop12" />
      <stop
         style="stop-color:#00ccff;stop-opacity:1"
         offset="1"
         id="stop13" />
    </linearGradient>
    <filter
       id="filter2917-3"
       x="-0.96181147"
       y="-0.66745996"
       width="2.9236229"
       height="2.3349199"
       color-interpolation-filters="sRGB">
      <feGaussianBlur
         stdDeviation="0.2871969"
         id="feGaussianBlur732-5" />
    </filter>
    <filter
       id="filter1"
       x="-0.96181148"
       y="-0.66745996"
       width="2.9236228"
       height="2.3349199"
       color-interpolation-filters="sRGB">
      <feGaussianBlur
         stdDeviation="0.2871969"
         id="feGaussianBlur1" />
    </filter>
    <filter
       id="filter2"
       x="-0.96181148"
       y="-0.66745996"
       width="2.9236228"
       height="2.3349199"
       color-interpolation-filters="sRGB">
      <feGaussianBlur
         stdDeviation="0.2871969"
         id="feGaussianBlur2" />
    </filter>
  </defs>
  <sodipodi:namedview
     id="namedview14"
     pagecolor="#000000"
     bordercolor="#666666"
     borderopacity="1.0"
     inkscape:showpageshadow="2"
     inkscape:pageopacity="0.0"
     inkscape:pagecheckerboard="0"
     inkscape:deskcolor="#d1d1d1"
     showgrid="false"
     inkscape:zoom="5.2149125"
     inkscape:cx="23.20269"
     inkscape:cy="53.692176"
     inkscape:window-width="1920"
     inkscape:window-height="996"
     inkscape:window-x="0"
     inkscape:window-y="0"
     inkscape:window-maximized="1"
     inkscape:current-layer="svg12">
    <inkscape:grid
       type="xygrid"
       id="grid244"
       originx="9.7893915"
       originy="-31.749373"
       spacingy="1"
       spacingx="1"
       units="px"
       visible="false" />
  </sodipodi:namedview>
  <rect
     x="-12.025727"
     y="0.1490714"
     width="11.940627"
     height="11.936014"
     rx="1.6121091"
     stroke="url(#paint4_linear_77:23)"
     shape-rendering="crispEdges"
     id="rect5-6-7-3"
     ry="1.7735944"
     transform="matrix(0.00523883,-0.99998628,0.999988,0.00489859,0,0)"
     style="fill:#80b3ff;fill-opacity:0.15;stroke:url(#linearGradient13);stroke-width:0.188987;stroke-opacity:1" />
  <rect
     x="-3.7266586"
     y="4.6446943"
     width="7.912631"
     height="7.912384"
     rx="1.612043"
     shape-rendering="crispEdges"
     id="rect5-6-6-6-6"
     style="fill:#80b3ff;fill-opacity:0.122146;stroke:url(#linearGradient15);stroke-width:0.188987;stroke-opacity:1"
     ry="1.7735215"
     transform="matrix(0.72612649,-0.68756114,0.6879775,0.72573202,0,0)" />
  <path
     style="opacity:0.2;stroke-width:0.191591;fill:#80ffb3"
     d="m 5.8074035,2.9591034 v 0.738609 a 2.6863064,2.6249242 0 0 0 -2.3678879,2.157861 h 0.567729 a 2.1305185,2.0818361 0 0 1 2.0780509,-1.629267 2.1305185,2.0818361 0 0 1 2.0766052,1.629267 h 0.5666421 a 2.6863064,2.6249242 0 0 0 -2.365355,-2.157156 v -0.739314 z m 0.277892,1.810288 A 1.574731,1.5387484 0 0 0 4.510564,6.3081434 1.574731,1.5387484 0 0 0 4.536612,6.5796864 H 4.6958267 5.1054296 7.0644359 A 1.0189436,0.99566077 0 0 1 6.0852955,7.3037994 1.0189436,0.99566077 0 0 1 5.3004639,6.9417414 H 4.652043 a 1.574731,1.5387484 0 0 0 1.4332525,0.905151 1.574731,1.5387484 0 0 0 1.574731,-1.538749 1.574731,1.5387484 0 0 0 -0.02605,-0.27155 H 7.4747661 7.0651608 5.1061543 a 1.0189436,0.99566077 0 0 1 0.9791412,-0.724115 1.0189436,0.99566077 0 0 1 0.7848343,0.362061 H 7.518548 A 1.574731,1.5387484 0 0 0 6.0852955,4.7693914 Z m -2.643247,1.99132 a 2.6863064,2.6249242 0 0 0 2.365355,2.157151 v 0.739317 h 0.5557843 v -0.73861 A 2.6863064,2.6249242 0 0 0 8.7310783,6.7607114 H 8.1633461 A 2.1305185,2.0818361 0 0 1 6.0852955,8.3899744 2.1305185,2.0818361 0 0 1 4.0086903,6.7607114 Z"
     id="path2" />
  <path
     style="fill:#80ffb3;stroke-width:0.191591"
     d="m 5.8074035,2.7780704 v 0.738613 a 2.6863064,2.6249242 0 0 0 -2.3678879,2.157856 h 0.567729 a 2.1305185,2.0818361 0 0 1 2.0780509,-1.629264 2.1305185,2.0818361 0 0 1 2.0766052,1.629264 h 0.5666421 a 2.6863064,2.6249242 0 0 0 -2.365355,-2.15715 v -0.739319 z m 0.277892,1.810288 A 1.574731,1.5387484 0 0 0 4.510564,6.1271054 1.574731,1.5387484 0 0 0 4.536613,6.3986594 H 4.695827 5.1054299 7.0644362 A 1.0189436,0.99566077 0 0 1 6.0852956,7.1227744 1.0189436,0.99566077 0 0 1 5.300464,6.7607114 H 4.652043 a 1.574731,1.5387484 0 0 0 1.4332525,0.905149 1.574731,1.5387484 0 0 0 1.574731,-1.538755 1.574731,1.5387484 0 0 0 -0.026051,-0.271532 H 7.4747661 7.0651608 5.1061543 a 1.0189436,0.99566077 0 0 1 0.9791412,-0.724117 1.0189436,0.99566077 0 0 1 0.7848343,0.362052 H 7.518548 a 1.574731,1.5387484 0 0 0 -1.4332525,-0.90515 z m -2.643247,1.991328 a 2.6863064,2.6249242 0 0 0 2.365355,2.157145 v 0.739322 H 6.3631878 V 8.7375404 A 2.6863064,2.6249242 0 0 0 8.7310783,6.5796864 H 8.1633461 A 2.1305185,2.0818361 0 0 1 6.0852955,8.2089484 2.1305185,2.0818361 0 0 1 4.0086903,6.5796864 Z"
     id="path3" />
</svg>
