<?xml version="1.0" encoding="UTF-8" standalone="no"?>
<svg
   width="45.999886"
   height="45.999989"
   version="1.1"
   viewBox="0 0 12.170564 12.170591"
   id="svg12"
   sodipodi:docname="syncplay.svg"
   inkscape:version="1.3.2 (091e20ef0f, 2023-11-25)"
   xmlns:inkscape="http://www.inkscape.org/namespaces/inkscape"
   xmlns:sodipodi="http://sodipodi.sourceforge.net/DTD/sodipodi-0.dtd"
   xmlns:xlink="http://www.w3.org/1999/xlink"
   xmlns="http://www.w3.org/2000/svg"
   xmlns:svg="http://www.w3.org/2000/svg">
  <defs
     id="defs16">
    <linearGradient
       id="linearGradient1"
       inkscape:collect="always">
      <stop
         style="stop-color:#80b3ff;stop-opacity:1"
         offset="0"
         id="stop3" />
      <stop
         style="stop-color:#b380ff;stop-opacity:1"
         offset="1"
         id="stop4" />
    </linearGradient>
    <linearGradient
       id="c"
       y1="523.79999"
       x1="403.57001"
       y2="536.79999"
       x2="416.57001"
       gradientUnits="userSpaceOnUse"
       gradientTransform="matrix(0.34526714,0,0,0.34526706,-134.80427,-174.63325)">
      <stop
         stop-color="#292c2f"
         id="stop1568" />
      <stop
         offset="1"
         stop-opacity="0"
         id="stop1570" />
    </linearGradient>
    <linearGradient
       xlink:href="#b-2"
       id="linearGradient4189"
       x1="14.369"
       y1="22.521999"
       x2="26.521999"
       y2="22.521999"
       gradientUnits="userSpaceOnUse" />
    <linearGradient
       x1="36"
       gradientUnits="userSpaceOnUse"
       x2="14"
       y2="12"
       y1="44"
       id="b-2">
      <stop
         style="stop-color:#bfc9c9;stop-opacity:1"
         stop-color="#536161"
         id="stop1579" />
      <stop
         style="stop-color:#fbfbfb;stop-opacity:1"
         stop-color="#f4f5f5"
         offset="1"
         id="stop1581" />
    </linearGradient>
    <linearGradient
       xlink:href="#b-2"
       id="linearGradient4428"
       gradientUnits="userSpaceOnUse"
       x1="31.586"
       y1="36.345001"
       x2="1.2029999"
       y2="6.723" />
    <linearGradient
       xlink:href="#b-2"
       id="linearGradient4189-3"
       x1="14.369"
       y1="22.521999"
       x2="26.521999"
       y2="22.521999"
       gradientUnits="userSpaceOnUse"
       gradientTransform="translate(20.841982,61.553822)" />
    <linearGradient
       xlink:href="#b-2"
       id="linearGradient4428-5"
       gradientUnits="userSpaceOnUse"
       x1="31.586"
       y1="36.345001"
       x2="1.2029999"
       y2="6.723"
       gradientTransform="translate(20.841982,61.553822)" />
    <linearGradient
       xlink:href="#b-2"
       id="linearGradient4189-3-3"
       x1="14.369"
       y1="22.521999"
       x2="26.521999"
       y2="22.521999"
       gradientUnits="userSpaceOnUse"
       gradientTransform="translate(4.376802,4.4211693)" />
    <linearGradient
       xlink:href="#b-2"
       id="linearGradient4428-5-5"
       gradientUnits="userSpaceOnUse"
       x1="31.586"
       y1="36.345001"
       x2="1.2029999"
       y2="6.723"
       gradientTransform="translate(4.376802,4.4211693)" />
    <linearGradient
       inkscape:collect="always"
       xlink:href="#linearGradient11"
       id="linearGradient13"
       x1="-43.819283"
       y1="23.120178"
       x2="-1.9547797"
       y2="23.120178"
       gradientUnits="userSpaceOnUse"
       gradientTransform="scale(0.26457813)" />
    <linearGradient
       id="linearGradient11"
       inkscape:collect="always">
      <stop
         style="stop-color:#9955ff;stop-opacity:0.65640396;"
         offset="0"
         id="stop4-3" />
      <stop
         style="stop-color:#00ccff;stop-opacity:1"
         offset="1"
         id="stop11" />
    </linearGradient>
    <linearGradient
       inkscape:collect="always"
       xlink:href="#linearGradient14"
       id="linearGradient15"
       x1="-9.6850061"
       y1="45.161198"
       x2="11.98815"
       y2="21.735205"
       gradientUnits="userSpaceOnUse"
       gradientTransform="scale(0.26457813)" />
    <linearGradient
       id="linearGradient14"
       inkscape:collect="always">
      <stop
         style="stop-color:#9955ff;stop-opacity:0.45197046;"
         offset="0"
         id="stop12" />
      <stop
         style="stop-color:#00ccff;stop-opacity:1"
         offset="1"
         id="stop13" />
    </linearGradient>
    <linearGradient
       id="_lgradient_4"
       x1="0"
       y1="0.5"
       x2="1"
       y2="0.5"
       gradientTransform="matrix(15.821772,0,0,16.248625,0.57854416,0.20460696)"
       gradientUnits="userSpaceOnUse">
      <stop
         offset="0%"
         stop-opacity="1"
         style="stop-color:rgb(255,229,59)"
         id="stop1" />
      <stop
         offset="98.69565217391305%"
         stop-opacity="1"
         style="stop-color:rgb(255,0,91)"
         id="stop2" />
    </linearGradient>
    <linearGradient
       inkscape:collect="always"
       xlink:href="#linearGradient1"
       id="linearGradient4"
       x1="3.2410821"
       y1="5.953008"
       x2="8.6649339"
       y2="5.953008"
       gradientUnits="userSpaceOnUse" />
  </defs>
  <sodipodi:namedview
     id="namedview14"
     pagecolor="#000000"
     bordercolor="#666666"
     borderopacity="1.0"
     inkscape:showpageshadow="2"
     inkscape:pageopacity="0.0"
     inkscape:pagecheckerboard="0"
     inkscape:deskcolor="#d1d1d1"
     showgrid="false"
     inkscape:zoom="5.2149125"
     inkscape:cx="23.20269"
     inkscape:cy="53.692176"
     inkscape:window-width="1920"
     inkscape:window-height="996"
     inkscape:window-x="0"
     inkscape:window-y="0"
     inkscape:window-maximized="1"
     inkscape:current-layer="svg12">
    <inkscape:grid
       type="xygrid"
       id="grid244"
       originx="9.7893915"
       originy="-31.749373"
       spacingy="1"
       spacingx="1"
       units="px"
       visible="false" />
  </sodipodi:namedview>
  <rect
     x="-12.025727"
     y="0.1490714"
     width="11.940627"
     height="11.936014"
     rx="1.6121091"
     stroke="url(#paint4_linear_77:23)"
     shape-rendering="crispEdges"
     id="rect5-6-7-3"
     ry="1.7735944"
     transform="matrix(0.00523883,-0.99998628,0.999988,0.00489859,0,0)"
     style="fill:#80b3ff;fill-opacity:0.15;stroke:url(#linearGradient13);stroke-width:0.188987;stroke-opacity:1" />
  <rect
     x="-3.7266586"
     y="4.6446943"
     width="7.912631"
     height="7.912384"
     rx="1.612043"
     shape-rendering="crispEdges"
     id="rect5-6-6-6-6"
     style="fill:#80b3ff;fill-opacity:0.122146;stroke:url(#linearGradient15);stroke-width:0.188987;stroke-opacity:1"
     ry="1.7735215"
     transform="matrix(0.72612649,-0.68756114,0.6879775,0.72573202,0,0)" />
  <path
     d="m 7.1884062,7.1490236 c -0.0023,0.00521 -0.00473,0.010381 -0.00702,0.015435 v 0 c 0.041363,-0.00603 0.081751,-0.016051 0.120933,-0.029313 C 7.3930132,7.1061936 7.480085,7.0700116 7.5635282,7.0265804 7.6687451,6.9735026 7.7715374,6.9131901 7.8707021,6.8492571 8.1573116,6.6622842 8.2588948,7.2014908 7.937212,7.6273073 7.7630696,7.8565 7.5599041,8.0615677 7.3313419,8.2364785 7.1185014,8.3969135 6.8802648,8.5223659 6.6275166,8.6080117 c -0.255167,0.08323 -0.5212183,0.1242467 -0.7896878,0.1230409 -0.1983285,0 -0.3966576,-0.02051 -0.5913584,-0.057899 C 5.0348392,8.630935 4.8256266,8.5730331 4.6224601,8.4994499 4.3975265,8.4174269 4.17743,8.3221272 3.9645895,8.2135623 3.7045852,8.0808711 3.4530457,7.9349113 3.208763,7.7756833 3.1954603,7.6357546 3.1882044,7.4958262 3.1882044,7.3558979 3.1869942,7.0917228 3.2148096,6.8287537 3.2704384,6.5694044 3.3260679,6.3221169 3.4095106,6.0820673 3.5219775,5.8540807 3.634448,5.62489 3.7747294,5.4101726 3.9391972,5.2147557 4.1121301,5.0084815 4.3068311,4.8203023 4.5184623,4.6550421 4.750652,4.4741001 4.9973538,4.3136648 5.2561487,4.1749427 5.5451771,4.0217455 5.8438792,3.8878483 6.1510472,3.7744583 6.4944941,3.6465927 6.8451979,3.538028 7.2007389,3.448763 7.6457693,3.3353724 8.0968463,3.2449017 8.5503423,3.1749376 c 0.041115,0.1676731 0.061676,0.3401704 0.061676,0.5138749 0,0.200242 -0.02782,0.3992787 -0.082236,0.5922832 C 8.4705247,4.4849563 8.3882892,4.680374 8.2830785,4.8637284 8.1669836,5.0663829 8.0315392,5.2569748 7.8791647,5.4330919 7.7209855,5.6175321 7.5504714,5.7907533 7.368347,5.9514296 7.5490207,5.8929274 7.7157854,5.7990763 7.859816,5.6743477 7.9480964,5.5983538 8.0267022,5.512706 8.0956332,5.4198222 8.3048466,5.1351406 8.6132229,5.3462434 8.5019657,5.7829125 8.4523859,5.9722985 8.376196,6.1532398 8.2734039,6.3209128 8.1718205,6.4849669 8.0460508,6.6321331 7.8997229,6.758792 7.7437211,6.8914833 7.5719971,7.0024605 7.3869708,7.0893131 Z M 7.2970028,6.7970314 c 0.016686,-0.090231 0.025274,-0.1832338 0.025274,-0.2782888 0,-0.080941 -0.00612,-0.1604347 -0.018144,-0.2379984 l 0.055027,-0.014116 C 7.6179565,6.2014866 7.857403,6.0760376 8.0593598,5.9023334 8.1041062,5.8625295 8.1476406,5.8203113 8.1899655,5.7768813 8.1476406,5.911984 8.0895929,6.0422619 8.0158239,6.1628904 7.9311738,6.3004061 7.8247509,6.4246529 7.7026099,6.5295988 7.5784122,6.6346662 7.4429675,6.7246552 7.2970028,6.7970314 Z M 6.9835472,7.4870229 C 6.6977849,7.8451668 6.2568654,8.0748432 5.7622528,8.0748432 c -0.8616423,0 -1.5600253,-0.6966263 -1.5600253,-1.5561006 0,-0.8593531 0.698383,-1.5560998 1.5600253,-1.5560998 v 0 0 c 0.5867627,0 1.0979432,0.3231625 1.3632689,0.8014523 C 7.3121197,5.6006435 7.4879551,5.4251299 7.6494005,5.2376741 7.7896814,5.0748267 7.9130319,4.8999167 8.0206617,4.7141495 8.1137789,4.551302 8.1863384,4.3788039 8.2383393,4.1990687 c 0.047168,-0.1664662 0.071351,-0.3377584 0.071351,-0.5114629 0,-0.055493 -0.00247,-0.1109768 -0.00733,-0.1664665 C 7.957752,3.5814531 7.614305,3.6550364 7.2744856,3.7406826 6.9298289,3.8275353 6.5900088,3.9336865 6.2562361,4.0567275 5.9623708,4.1652923 5.6757614,4.2943648 5.3988268,4.4415299 5.1557531,4.5718081 4.9223539,4.7225933 4.7046761,4.8926791 4.509975,5.0446698 4.3309956,5.2171677 4.1713655,5.4077592 4.0226183,5.5850825 3.8956397,5.7792933 3.7928469,5.9867735 3.6912641,6.1930473 3.6150765,6.4101779 3.5667042,6.6345456 c -0.052001,0.2364311 -0.077397,0.4788931 -0.076185,0.7213549 0,0.082029 0.00245,0.1640539 0.0073,0.2460808 0.1959062,0.12304 0.3978635,0.2376371 0.6046574,0.3425832 0.2019566,0.1037401 0.4099599,0.1942108 0.62401,0.2714128 0.1886545,0.068759 0.3821457,0.1218345 0.5792651,0.1604349 0.1753516,0.03498 0.3543313,0.053077 0.5333111,0.053077 0.2358021,0.00122 0.4692011,-0.034981 0.6929264,-0.1085646 C 6.7532651,8.2473458 6.9612686,8.1375706 7.1475043,7.9964359 7.3542984,7.8384132 7.538115,7.6526463 7.695327,7.4451668 7.7545827,7.3679658 7.8102123,7.28835 7.8646317,7.206323 7.8114199,7.2376828 7.757003,7.2666367 7.7013737,7.2943818 7.6034184,7.3450449 7.5018349,7.387266 7.3966244,7.4222474 7.304716,7.4524 7.2091789,7.4704953 7.1124335,7.4777393 Z M 5.3729719,5.7408134 c -0.034349,-8.548e-4 -0.067604,0.011821 -0.092152,0.034982 -0.024672,0.023161 -0.038577,0.055 -0.038577,0.088176 v 0.6547692 0.6547687 c 0,0.044029 0.02443,0.084802 0.063852,0.1067551 0.039542,0.02208 0.08828,0.02208 0.1278254,0 L 6.0211683,6.9528842 6.6084156,6.6254997 c 0.03954,-0.02208 0.063851,-0.062729 0.063851,-0.1067563 0,-0.044029 -0.02431,-0.084803 -0.063851,-0.1068759 L 6.0211685,6.0844823 5.4339217,5.7570983 c -0.018503,-0.010255 -0.039543,-0.015924 -0.06095,-0.016285 z M 5.7622528,5.221993 c 0.7179745,0 1.3000215,0.5805815 1.3000215,1.2967496 0,0.7161682 -0.582047,1.2967503 -1.3000215,1.2967503 -0.7179748,0 -1.3000211,-0.5805821 -1.3000211,-1.2967503 0,-0.7161681 0.5820463,-1.2967496 1.3000211,-1.2967496 z"
     fill-rule="evenodd"
     fill="url(#_lgradient_4)"
     id="path2"
     style="isolation:isolate;fill:url(#linearGradient4);stroke-width:0.352771" />
</svg>
