<?xml version="1.0" encoding="UTF-8" standalone="no"?>
<svg
   width="45.999886"
   height="45.999989"
   version="1.1"
   viewBox="0 0 12.170564 12.170591"
   id="svg12"
   sodipodi:docname="synfig_icon.svg"
   inkscape:version="1.3.2 (091e20ef0f, 2023-11-25)"
   xmlns:inkscape="http://www.inkscape.org/namespaces/inkscape"
   xmlns:sodipodi="http://sodipodi.sourceforge.net/DTD/sodipodi-0.dtd"
   xmlns:xlink="http://www.w3.org/1999/xlink"
   xmlns="http://www.w3.org/2000/svg"
   xmlns:svg="http://www.w3.org/2000/svg">
  <defs
     id="defs16">
    <linearGradient
       id="c"
       y1="523.79999"
       x1="403.57001"
       y2="536.79999"
       x2="416.57001"
       gradientUnits="userSpaceOnUse"
       gradientTransform="matrix(0.34526714,0,0,0.34526706,-134.80427,-174.63325)">
      <stop
         stop-color="#292c2f"
         id="stop1568" />
      <stop
         offset="1"
         stop-opacity="0"
         id="stop1570" />
    </linearGradient>
    <linearGradient
       xlink:href="#b-2"
       id="linearGradient4189"
       x1="14.369"
       y1="22.521999"
       x2="26.521999"
       y2="22.521999"
       gradientUnits="userSpaceOnUse" />
    <linearGradient
       x1="36"
       gradientUnits="userSpaceOnUse"
       x2="14"
       y2="12"
       y1="44"
       id="b-2">
      <stop
         style="stop-color:#bfc9c9;stop-opacity:1"
         stop-color="#536161"
         id="stop1579" />
      <stop
         style="stop-color:#fbfbfb;stop-opacity:1"
         stop-color="#f4f5f5"
         offset="1"
         id="stop1581" />
    </linearGradient>
    <linearGradient
       xlink:href="#b-2"
       id="linearGradient4428"
       gradientUnits="userSpaceOnUse"
       x1="31.586"
       y1="36.345001"
       x2="1.2029999"
       y2="6.723" />
    <linearGradient
       xlink:href="#b-2"
       id="linearGradient4189-3"
       x1="14.369"
       y1="22.521999"
       x2="26.521999"
       y2="22.521999"
       gradientUnits="userSpaceOnUse"
       gradientTransform="translate(20.841982,61.553822)" />
    <linearGradient
       xlink:href="#b-2"
       id="linearGradient4428-5"
       gradientUnits="userSpaceOnUse"
       x1="31.586"
       y1="36.345001"
       x2="1.2029999"
       y2="6.723"
       gradientTransform="translate(20.841982,61.553822)" />
    <linearGradient
       xlink:href="#b-2"
       id="linearGradient4189-3-3"
       x1="14.369"
       y1="22.521999"
       x2="26.521999"
       y2="22.521999"
       gradientUnits="userSpaceOnUse"
       gradientTransform="translate(4.376802,4.4211693)" />
    <linearGradient
       xlink:href="#b-2"
       id="linearGradient4428-5-5"
       gradientUnits="userSpaceOnUse"
       x1="31.586"
       y1="36.345001"
       x2="1.2029999"
       y2="6.723"
       gradientTransform="translate(4.376802,4.4211693)" />
    <linearGradient
       inkscape:collect="always"
       xlink:href="#linearGradient11"
       id="linearGradient13"
       x1="-43.819283"
       y1="23.120178"
       x2="-1.9547797"
       y2="23.120178"
       gradientUnits="userSpaceOnUse"
       gradientTransform="scale(0.26457813)" />
    <linearGradient
       id="linearGradient11"
       inkscape:collect="always">
      <stop
         style="stop-color:#9955ff;stop-opacity:0.65640396;"
         offset="0"
         id="stop4-3" />
      <stop
         style="stop-color:#00ccff;stop-opacity:1"
         offset="1"
         id="stop11" />
    </linearGradient>
    <linearGradient
       inkscape:collect="always"
       xlink:href="#linearGradient14"
       id="linearGradient15"
       x1="-9.6850061"
       y1="45.161198"
       x2="11.98815"
       y2="21.735205"
       gradientUnits="userSpaceOnUse"
       gradientTransform="scale(0.26457813)" />
    <linearGradient
       id="linearGradient14"
       inkscape:collect="always">
      <stop
         style="stop-color:#9955ff;stop-opacity:0.45197046;"
         offset="0"
         id="stop12" />
      <stop
         style="stop-color:#00ccff;stop-opacity:1"
         offset="1"
         id="stop13" />
    </linearGradient>
    <filter
       id="filter2917-3"
       x="-0.96181147"
       y="-0.66745996"
       width="2.9236229"
       height="2.3349199"
       color-interpolation-filters="sRGB">
      <feGaussianBlur
         stdDeviation="0.2871969"
         id="feGaussianBlur732-5" />
    </filter>
    <filter
       id="filter1"
       x="-0.96181148"
       y="-0.66745996"
       width="2.9236228"
       height="2.3349199"
       color-interpolation-filters="sRGB">
      <feGaussianBlur
         stdDeviation="0.2871969"
         id="feGaussianBlur1" />
    </filter>
    <filter
       id="filter2"
       x="-0.96181148"
       y="-0.66745996"
       width="2.9236228"
       height="2.3349199"
       color-interpolation-filters="sRGB">
      <feGaussianBlur
         stdDeviation="0.2871969"
         id="feGaussianBlur2" />
    </filter>
    <linearGradient
       id="paint0_linear"
       x1="15.7913"
       y1="31"
       x2="15.7913"
       y2="1"
       gradientUnits="userSpaceOnUse"
       gradientTransform="scale(0.26457812)">
      <stop
         stop-color="#5570FF"
         id="stop1"
         style="stop-color:#b380ff;stop-opacity:1" />
      <stop
         offset="1"
         stop-color="#4DD3FF"
         id="stop2" />
    </linearGradient>
  </defs>
  <sodipodi:namedview
     id="namedview14"
     pagecolor="#000000"
     bordercolor="#666666"
     borderopacity="1.0"
     inkscape:showpageshadow="2"
     inkscape:pageopacity="0.0"
     inkscape:pagecheckerboard="0"
     inkscape:deskcolor="#d1d1d1"
     showgrid="false"
     inkscape:zoom="5.2149125"
     inkscape:cx="23.20269"
     inkscape:cy="53.692176"
     inkscape:window-width="1920"
     inkscape:window-height="996"
     inkscape:window-x="0"
     inkscape:window-y="0"
     inkscape:window-maximized="1"
     inkscape:current-layer="svg12">
    <inkscape:grid
       type="xygrid"
       id="grid244"
       originx="9.7893915"
       originy="-31.749373"
       spacingy="1"
       spacingx="1"
       units="px"
       visible="false" />
  </sodipodi:namedview>
  <rect
     x="-12.025727"
     y="0.1490714"
     width="11.940627"
     height="11.936014"
     rx="1.6121091"
     stroke="url(#paint4_linear_77:23)"
     shape-rendering="crispEdges"
     id="rect5-6-7-3"
     ry="1.7735944"
     transform="matrix(0.00523883,-0.99998628,0.999988,0.00489859,0,0)"
     style="fill:#80b3ff;fill-opacity:0.15;stroke:url(#linearGradient13);stroke-width:0.188987;stroke-opacity:1" />
  <rect
     x="-3.7266586"
     y="4.6446943"
     width="7.912631"
     height="7.912384"
     rx="1.612043"
     shape-rendering="crispEdges"
     id="rect5-6-6-6-6"
     style="fill:#80b3ff;fill-opacity:0.122146;stroke:url(#linearGradient15);stroke-width:0.188987;stroke-opacity:1"
     ry="1.7735215"
     transform="matrix(0.72612649,-0.68756114,0.6879775,0.72573202,0,0)" />
  <path
     fill-rule="evenodd"
     clip-rule="evenodd"
     d="m 6.0955683,2.1166649 c 0,0 0,0 0,0 -0.025666,-7.411e-4 -0.050429,0.0089 -0.068194,0.026078 -0.2030874,0.1963055 -0.4062478,0.4110553 -0.5997329,0.623564 -0.025573,0.028105 -0.036704,0.066481 -0.030238,0.1039485 l 0.5678663,3.2927119 c 0.0236,0.1368174 0.2198458,0.1366692 0.243245,-1.733e-4 L 6.7705326,2.8759176 c 0.00631,-0.036984 -0.0045,-0.074854 -0.029396,-0.1028908 C 6.5518714,2.5599848 6.3610523,2.3476197 6.1598909,2.1441893 6.1433531,2.1273978 6.1201031,2.1173668 6.0955694,2.1166658 Z m 0.3442942,4.123864 c -0.067781,0.121275 0.085084,0.2448984 0.1892396,0.1530518 L 8.1492889,5.0534003 c 0.04043,-0.035657 0.053215,-0.093527 0.030654,-0.1425259 C 8.0683802,4.6683238 7.9387482,4.4259215 7.7949242,4.1867564 c -0.048179,-0.080141 -0.164187,-0.07703 -0.2098002,0.0046 z m 0.3894136,0.279788 C 6.7011994,6.5808829 6.7593511,6.774481 6.8995491,6.7543185 L 8.5884867,6.5113231 C 8.6605097,6.500966 8.7080726,6.4307437 8.6899062,6.360223 8.6455273,6.1878973 8.5974208,6.022392 8.5453169,5.8607155 8.5226831,5.7905125 8.4434282,5.7569599 8.3768108,5.7884672 Z M 6.9034501,6.990889 C 6.7632022,6.970304 6.7046061,7.1639809 6.8327072,7.2247665 l 2.064902,0.9796662 c 0.00458,0.0022 0.00977,0.0032 0.014886,0.0027 v 0 c 0.047074,-0.00369 0.083185,-0.040278 0.083159,-0.084017 v -0.027526 c 0,-0.066237 -0.017134,-0.202768 -0.040154,-0.3722769 -0.011605,-0.085337 -0.026118,-0.1680687 -0.039793,-0.256381 L 8.8857612,7.3567073 C 8.872877,7.3092917 8.8331386,7.2739979 8.7845638,7.266891 Z M 6.6574377,7.4019841 c -0.102901,-0.095824 -0.260177,0.027476 -0.1919301,0.1504578 l 0.628709,1.1328664 c 0.014782,0.026668 0.04662,0.038792 0.075359,0.028707 v 0 c 0.00407,-0.00141 0.00784,-0.0032 0.011504,-0.0054 C 7.3130528,8.6297113 7.4424131,8.5620062 7.5735009,8.5040622 7.6577658,8.4668272 7.6801534,8.3543209 7.6127223,8.291534 Z M 6.2057256,7.533984 C 6.1816113,7.3988715 5.9883235,7.3979814 5.9629499,7.5328633 L 5.6636765,9.1242185 c -0.00818,0.043563 0.00751,0.088131 0.041418,0.1166793 0.033943,0.028618 0.068272,0.05762 0.1062578,0.091351 0.055285,0.049082 0.106677,0.093449 0.1456751,0.1263904 0.019468,0.016481 0.035842,0.030049 0.048674,0.0402 0.00643,0.00491 0.011622,0.00939 0.017405,0.013389 0.0029,0.00191 0.00579,0.00409 0.010665,0.00698 v 0 c 0.00177,0.00109 0.00396,0.00152 0.00598,0.00191 l 0.012441,0.0022 c 0.022737,0.00409 0.046156,-2.96e-4 0.065948,-0.012166 l 0.1051951,-0.06313 c 0.00555,-0.0034 0.010832,-0.00702 0.015803,-0.011247 0.039365,-0.033033 0.086015,-0.072441 0.1378509,-0.1179647 0.029748,-0.026146 0.05203,-0.044309 0.073876,-0.062092 0.033943,-0.02762 0.049657,-0.071581 0.04196,-0.1147025 z M 5.6948747,7.5739657 C 5.7637877,7.4505645 5.6051545,7.3267935 5.5024512,7.4238287 L 4.5050815,8.3661342 c -0.034529,0.032638 -0.022648,0.08908 0.02127,0.107116 v 0 c 0.033149,0.013631 0.063703,0.026068 0.086324,0.035135 0.011316,0.00442 0.02031,0.00811 0.027355,0.010868 0.00327,0.00129 0.00645,0.0022 0.00911,0.0033 1.112e-4,4.93e-5 2.075e-4,9.89e-5 2.893e-4,1.98e-4 v 0 c 1.405e-4,1.473e-4 3.4e-4,2.224e-4 5.476e-4,2.224e-4 h 1.7e-5 4.21e-5 c 2e-4,0 3.951e-4,4.92e-5 5.748e-4,1.472e-4 6.962e-4,3.465e-4 0.00141,7.174e-4 0.00233,0.00129 3.138e-4,1.484e-4 5.43e-4,-1.486e-4 2.147e-4,-2.719e-4 v 0 c 5.036e-4,1.725e-4 7.951e-4,1.725e-4 0.00141,3.706e-4 0.00121,3.71e-4 0.00217,0.00109 0.00493,0.00172 6.418e-4,1.729e-4 0.0014,4.443e-4 0.00203,7.657e-4 1.729e-4,7.49e-5 4.97e-5,6.182e-4 -1.478e-4,6.424e-4 v 0 c -1.974e-4,0 -3.703e-4,7.658e-4 -1.729e-4,8.651e-4 0.00603,0.003 0.013104,0.00679 0.022414,0.011438 0.024284,0.012388 0.057415,0.029237 0.093773,0.048183 0.053709,0.027939 0.1053692,0.056258 0.1558198,0.085349 0.060862,0.035064 0.1392334,0.01482 0.1735171,-0.04656 z M 5.475202,7.1932119 C 5.5971821,7.1290419 5.538339,6.9433717 5.401723,6.9613359 L 3.3824316,7.2269408 c -0.053333,0.00702 -0.096045,0.047786 -0.1050926,0.1008903 -0.026573,0.1558936 -0.052177,0.3229808 -0.07082,0.4649624 -0.012111,0.092221 -0.021678,0.1730175 -0.027,0.2328649 -0.0026,0.029321 -0.00418,0.053118 -0.00456,0.072789 -9.5e-6,3.961e-4 8e-6,0.00119 0,0.00141 -1.084e-4,0.00811 1.835e-4,0.015499 0.00114,0.024288 5.208e-4,0.00521 7.65e-4,0.01052 0.00361,0.019894 0.00278,0.00946 5.333e-4,0.028481 0.041218,0.051785 0.021951,0.012579 0.025104,0.010008 0.030556,0.011218 0.00543,0.00129 0.00947,0.0022 0.013853,0.0029 0.00889,0.0014 0.018392,0.0022 0.029135,0.0033 0.021469,0.00201 0.04795,0.00409 0.076024,0.0054 0.029943,0.00152 0.06337,0.00432 0.097453,0.00762 0.024037,0.0022 0.048235,-0.0024 0.069606,-0.013631 z M 5.2401762,6.7386275 C 5.3810388,6.7606685 5.4408191,6.565734 5.3118784,6.5048239 L 3.7950265,5.7883407 c -0.066587,-0.031457 -0.1457641,0.00204 -0.168388,0.072172 -0.048979,0.1518411 -0.094341,0.3073139 -0.1363873,0.4688171 -0.018236,0.070027 0.02842,0.1400299 0.099851,0.1511987 z M 5.5224687,6.3480901 C 5.6254433,6.4434443 5.7822011,6.3202685 5.7141765,6.1974595 L 4.5941081,4.1756517 C 4.5487624,4.0938024 4.4327324,4.0903464 4.3845771,4.1706143 4.251939,4.3915932 4.1324049,4.6163523 4.0246416,4.8454115 c -0.022714,0.048288 -0.011143,0.1056098 0.027986,0.1418341 z"
     fill="url(#paint0_linear)"
     id="path1"
     style="fill:url(#paint0_linear);stroke-width:0.264578" />
</svg>
