<?xml version="1.0" encoding="UTF-8" standalone="no"?>
<svg
   width="45.999886"
   height="45.999989"
   version="1.1"
   viewBox="0 0 12.170564 12.170591"
   id="svg12"
   sodipodi:docname="terminator-commands.svg"
   inkscape:version="1.3.2 (091e20ef0f, 2023-11-25)"
   xmlns:inkscape="http://www.inkscape.org/namespaces/inkscape"
   xmlns:sodipodi="http://sodipodi.sourceforge.net/DTD/sodipodi-0.dtd"
   xmlns:xlink="http://www.w3.org/1999/xlink"
   xmlns="http://www.w3.org/2000/svg"
   xmlns:svg="http://www.w3.org/2000/svg">
  <defs
     id="defs16">
    <linearGradient
       id="c"
       y1="523.79999"
       x1="403.57001"
       y2="536.79999"
       x2="416.57001"
       gradientUnits="userSpaceOnUse"
       gradientTransform="matrix(0.34526714,0,0,0.34526706,-134.80427,-174.63325)">
      <stop
         stop-color="#292c2f"
         id="stop1568" />
      <stop
         offset="1"
         stop-opacity="0"
         id="stop1570" />
    </linearGradient>
    <linearGradient
       xlink:href="#b-2"
       id="linearGradient4189"
       x1="14.369"
       y1="22.521999"
       x2="26.521999"
       y2="22.521999"
       gradientUnits="userSpaceOnUse" />
    <linearGradient
       x1="36"
       gradientUnits="userSpaceOnUse"
       x2="14"
       y2="12"
       y1="44"
       id="b-2">
      <stop
         style="stop-color:#bfc9c9;stop-opacity:1"
         stop-color="#536161"
         id="stop1579" />
      <stop
         style="stop-color:#fbfbfb;stop-opacity:1"
         stop-color="#f4f5f5"
         offset="1"
         id="stop1581" />
    </linearGradient>
    <linearGradient
       xlink:href="#b-2"
       id="linearGradient4428"
       gradientUnits="userSpaceOnUse"
       x1="31.586"
       y1="36.345001"
       x2="1.2029999"
       y2="6.723" />
    <linearGradient
       xlink:href="#b-2"
       id="linearGradient4189-3"
       x1="14.369"
       y1="22.521999"
       x2="26.521999"
       y2="22.521999"
       gradientUnits="userSpaceOnUse"
       gradientTransform="translate(20.841982,61.553822)" />
    <linearGradient
       xlink:href="#b-2"
       id="linearGradient4428-5"
       gradientUnits="userSpaceOnUse"
       x1="31.586"
       y1="36.345001"
       x2="1.2029999"
       y2="6.723"
       gradientTransform="translate(20.841982,61.553822)" />
    <linearGradient
       xlink:href="#b-2"
       id="linearGradient4189-3-3"
       x1="14.369"
       y1="22.521999"
       x2="26.521999"
       y2="22.521999"
       gradientUnits="userSpaceOnUse"
       gradientTransform="translate(4.376802,4.4211693)" />
    <linearGradient
       xlink:href="#b-2"
       id="linearGradient4428-5-5"
       gradientUnits="userSpaceOnUse"
       x1="31.586"
       y1="36.345001"
       x2="1.2029999"
       y2="6.723"
       gradientTransform="translate(4.376802,4.4211693)" />
    <linearGradient
       inkscape:collect="always"
       xlink:href="#linearGradient11"
       id="linearGradient13"
       x1="-43.819283"
       y1="23.120178"
       x2="-1.9547797"
       y2="23.120178"
       gradientUnits="userSpaceOnUse"
       gradientTransform="scale(0.26457813)" />
    <linearGradient
       id="linearGradient11"
       inkscape:collect="always">
      <stop
         style="stop-color:#9955ff;stop-opacity:0.65640396;"
         offset="0"
         id="stop4-3" />
      <stop
         style="stop-color:#00ccff;stop-opacity:1"
         offset="1"
         id="stop11" />
    </linearGradient>
    <linearGradient
       inkscape:collect="always"
       xlink:href="#linearGradient14"
       id="linearGradient15"
       x1="-9.6850061"
       y1="45.161198"
       x2="11.98815"
       y2="21.735205"
       gradientUnits="userSpaceOnUse"
       gradientTransform="scale(0.26457813)" />
    <linearGradient
       id="linearGradient14"
       inkscape:collect="always">
      <stop
         style="stop-color:#9955ff;stop-opacity:0.45197046;"
         offset="0"
         id="stop12" />
      <stop
         style="stop-color:#00ccff;stop-opacity:1"
         offset="1"
         id="stop13" />
    </linearGradient>
  </defs>
  <sodipodi:namedview
     id="namedview14"
     pagecolor="#000000"
     bordercolor="#666666"
     borderopacity="1.0"
     inkscape:showpageshadow="2"
     inkscape:pageopacity="0.0"
     inkscape:pagecheckerboard="0"
     inkscape:deskcolor="#d1d1d1"
     showgrid="false"
     inkscape:zoom="5.2149125"
     inkscape:cx="23.20269"
     inkscape:cy="69.032798"
     inkscape:window-width="1920"
     inkscape:window-height="996"
     inkscape:window-x="0"
     inkscape:window-y="0"
     inkscape:window-maximized="1"
     inkscape:current-layer="svg12">
    <inkscape:grid
       type="xygrid"
       id="grid244"
       originx="9.7893915"
       originy="-31.749373"
       spacingy="1"
       spacingx="1"
       units="px"
       visible="false" />
  </sodipodi:namedview>
  <rect
     x="-12.025727"
     y="0.1490714"
     width="11.940627"
     height="11.936014"
     rx="1.6121091"
     stroke="url(#paint4_linear_77:23)"
     shape-rendering="crispEdges"
     id="rect5-6-7-3"
     ry="1.7735944"
     transform="matrix(0.00523883,-0.99998628,0.999988,0.00489859,0,0)"
     style="fill:#80b3ff;fill-opacity:0.15;stroke:url(#linearGradient13);stroke-width:0.188987;stroke-opacity:1" />
  <rect
     x="-3.7266586"
     y="4.6446943"
     width="7.912631"
     height="7.912384"
     rx="1.612043"
     shape-rendering="crispEdges"
     id="rect5-6-6-6-6"
     style="fill:#80b3ff;fill-opacity:0.122146;stroke:url(#linearGradient15);stroke-width:0.188987;stroke-opacity:1"
     ry="1.7735215"
     transform="matrix(0.72612649,-0.68756114,0.6879775,0.72573202,0,0)" />
  <path
     d="m 5.8104546,5.8639093 c 1.001e-4,0.058602 -0.023291,0.1148377 -0.065033,0.1562329 L 3.9770755,7.7781431 C 3.6102987,8.1396832 3.0632352,7.5958165 3.4269087,7.2311885 L 4.802354,5.8639093 3.4269087,4.496622 c -0.1515118,-0.1512106 -0.1515118,-0.3957481 0,-0.5469507 v 0 c 0.1519216,-0.1510512 0.3982484,-0.1510512 0.5501669,0 l 1.7683484,1.757988 c 0.041722,0.041414 0.065127,0.09764 0.065031,0.15625 z m -0.2221872,0 z"
     id="path4-3-9-2-3-4-0"
     style="color:#d6dbf1;fill:#99c2ff;fill-opacity:1;stroke-width:0.160811"
     sodipodi:nodetypes="ccccccsscccccccccccc"
     class="ColorScheme-Text" />
  <path
     d="m 6.269614,7.3313167 h 2.3991705 c 0.6122147,0.00239 0.6122147,0.7359622 0,0.7383163 H 6.269614 c -0.6122129,-0.00239 -0.6122129,-0.7359602 0,-0.7383163 z m 2.3991705,0.1476615 z"
     id="path8-6-7-36-2-9-3-6-5-3"
     style="color:#d6dbf1;fill:#99c2ff;fill-opacity:1;stroke-width:0.11977"
     sodipodi:nodetypes="cccccccccc"
     class="ColorScheme-Text" />
  <path
     d="m 10.813311,9.4533207 0.36115,5.62e-5 c 0.199462,3.1e-5 0.361172,-0.1616344 0.361209,-0.3610929 2.2e-5,-0.1994549 -0.161638,-0.3611729 -0.3611,-0.3612056 -0.199455,-3.1e-5 -0.361173,0.1616343 -0.361199,0.3610927 l -6e-5,0.3611496 -0.963011,-1.8e-6 -5.66e-5,-0.361146 C 9.8502124,8.8927137 9.6884941,8.7310474 9.4890376,8.7310794 9.2895801,8.7311102 9.1279142,8.8928272 9.1279456,9.092284 9.1279767,9.2917389 9.2896965,9.4534099 9.489151,9.4533778 l 0.361149,-5.89e-5 -5.66e-5,0.9630621 h 0.9630676 z"
     id="path1"
     style="fill:#99c2ff;fill-opacity:1;stroke-width:0.23812" />
  <path
     d="m 10.813311,10.416381 0.36115,6.1e-5 c 0.199462,-3.6e-5 0.361172,0.161636 0.361209,0.361088 2.2e-5,0.199466 -0.161638,0.361177 -0.3611,0.361209 -0.199455,2.6e-5 -0.361173,-0.16164 -0.361199,-0.361089 z"
     id="path2"
     style="fill:#99c2ff;fill-opacity:1;stroke-width:0.23812" />
  <path
     d="m 9.489151,10.416442 0.361149,6e-5 -5.66e-5,0.361148 c -3.1e-5,0.199449 -0.1617493,0.361114 -0.3612058,0.361089 -0.1994575,-3.2e-5 -0.3611234,-0.161744 -0.361092,-0.361209 3.11e-5,-0.199452 0.1617509,-0.361124 0.3612054,-0.361088 z"
     id="path3-3"
     style="fill:#99c2ff;fill-opacity:1;stroke-width:0.23812" />
</svg>
