<?xml version="1.0" encoding="UTF-8" standalone="no"?>
<svg
   width="45.999886"
   height="45.999989"
   version="1.1"
   viewBox="0 0 12.170564 12.170591"
   id="svg12"
   sodipodi:docname="terminator-preferences.svg"
   inkscape:version="1.3.2 (091e20ef0f, 2023-11-25)"
   xmlns:inkscape="http://www.inkscape.org/namespaces/inkscape"
   xmlns:sodipodi="http://sodipodi.sourceforge.net/DTD/sodipodi-0.dtd"
   xmlns:xlink="http://www.w3.org/1999/xlink"
   xmlns="http://www.w3.org/2000/svg"
   xmlns:svg="http://www.w3.org/2000/svg">
  <defs
     id="defs16">
    <linearGradient
       id="c"
       y1="523.79999"
       x1="403.57001"
       y2="536.79999"
       x2="416.57001"
       gradientUnits="userSpaceOnUse"
       gradientTransform="matrix(0.34526714,0,0,0.34526706,-134.80427,-174.63325)">
      <stop
         stop-color="#292c2f"
         id="stop1568" />
      <stop
         offset="1"
         stop-opacity="0"
         id="stop1570" />
    </linearGradient>
    <linearGradient
       xlink:href="#b-2"
       id="linearGradient4189"
       x1="14.369"
       y1="22.521999"
       x2="26.521999"
       y2="22.521999"
       gradientUnits="userSpaceOnUse" />
    <linearGradient
       x1="36"
       gradientUnits="userSpaceOnUse"
       x2="14"
       y2="12"
       y1="44"
       id="b-2">
      <stop
         style="stop-color:#bfc9c9;stop-opacity:1"
         stop-color="#536161"
         id="stop1579" />
      <stop
         style="stop-color:#fbfbfb;stop-opacity:1"
         stop-color="#f4f5f5"
         offset="1"
         id="stop1581" />
    </linearGradient>
    <linearGradient
       xlink:href="#b-2"
       id="linearGradient4428"
       gradientUnits="userSpaceOnUse"
       x1="31.586"
       y1="36.345001"
       x2="1.2029999"
       y2="6.723" />
    <linearGradient
       xlink:href="#b-2"
       id="linearGradient4189-3"
       x1="14.369"
       y1="22.521999"
       x2="26.521999"
       y2="22.521999"
       gradientUnits="userSpaceOnUse"
       gradientTransform="translate(20.841982,61.553822)" />
    <linearGradient
       xlink:href="#b-2"
       id="linearGradient4428-5"
       gradientUnits="userSpaceOnUse"
       x1="31.586"
       y1="36.345001"
       x2="1.2029999"
       y2="6.723"
       gradientTransform="translate(20.841982,61.553822)" />
    <linearGradient
       xlink:href="#b-2"
       id="linearGradient4189-3-3"
       x1="14.369"
       y1="22.521999"
       x2="26.521999"
       y2="22.521999"
       gradientUnits="userSpaceOnUse"
       gradientTransform="translate(4.376802,4.4211693)" />
    <linearGradient
       xlink:href="#b-2"
       id="linearGradient4428-5-5"
       gradientUnits="userSpaceOnUse"
       x1="31.586"
       y1="36.345001"
       x2="1.2029999"
       y2="6.723"
       gradientTransform="translate(4.376802,4.4211693)" />
    <linearGradient
       inkscape:collect="always"
       xlink:href="#linearGradient11"
       id="linearGradient13"
       x1="-43.819283"
       y1="23.120178"
       x2="-1.9547797"
       y2="23.120178"
       gradientUnits="userSpaceOnUse"
       gradientTransform="scale(0.26457813)" />
    <linearGradient
       id="linearGradient11"
       inkscape:collect="always">
      <stop
         style="stop-color:#9955ff;stop-opacity:0.65640396;"
         offset="0"
         id="stop4-3" />
      <stop
         style="stop-color:#00ccff;stop-opacity:1"
         offset="1"
         id="stop11" />
    </linearGradient>
    <linearGradient
       inkscape:collect="always"
       xlink:href="#linearGradient14"
       id="linearGradient15"
       x1="-9.6850061"
       y1="45.161198"
       x2="11.98815"
       y2="21.735205"
       gradientUnits="userSpaceOnUse"
       gradientTransform="scale(0.26457813)" />
    <linearGradient
       id="linearGradient14"
       inkscape:collect="always">
      <stop
         style="stop-color:#9955ff;stop-opacity:0.45197046;"
         offset="0"
         id="stop12" />
      <stop
         style="stop-color:#00ccff;stop-opacity:1"
         offset="1"
         id="stop13" />
    </linearGradient>
  </defs>
  <sodipodi:namedview
     id="namedview14"
     pagecolor="#000000"
     bordercolor="#666666"
     borderopacity="1.0"
     inkscape:showpageshadow="2"
     inkscape:pageopacity="0.0"
     inkscape:pagecheckerboard="0"
     inkscape:deskcolor="#d1d1d1"
     showgrid="false"
     inkscape:zoom="5.2149125"
     inkscape:cx="23.20269"
     inkscape:cy="69.032798"
     inkscape:window-width="1920"
     inkscape:window-height="996"
     inkscape:window-x="0"
     inkscape:window-y="0"
     inkscape:window-maximized="1"
     inkscape:current-layer="svg12">
    <inkscape:grid
       type="xygrid"
       id="grid244"
       originx="9.7893915"
       originy="-31.749373"
       spacingy="1"
       spacingx="1"
       units="px"
       visible="false" />
  </sodipodi:namedview>
  <rect
     x="-12.025727"
     y="0.1490714"
     width="11.940627"
     height="11.936014"
     rx="1.6121091"
     stroke="url(#paint4_linear_77:23)"
     shape-rendering="crispEdges"
     id="rect5-6-7-3"
     ry="1.7735944"
     transform="matrix(0.00523883,-0.99998628,0.999988,0.00489859,0,0)"
     style="fill:#80b3ff;fill-opacity:0.15;stroke:url(#linearGradient13);stroke-width:0.188987;stroke-opacity:1" />
  <rect
     x="-3.7266586"
     y="4.6446943"
     width="7.912631"
     height="7.912384"
     rx="1.612043"
     shape-rendering="crispEdges"
     id="rect5-6-6-6-6"
     style="fill:#80b3ff;fill-opacity:0.122146;stroke:url(#linearGradient15);stroke-width:0.188987;stroke-opacity:1"
     ry="1.7735215"
     transform="matrix(0.72612649,-0.68756114,0.6879775,0.72573202,0,0)" />
  <path
     d="m 5.8104546,5.8639093 c 1.001e-4,0.058602 -0.023291,0.1148377 -0.065033,0.1562329 L 3.9770755,7.7781431 C 3.6102987,8.1396832 3.0632352,7.5958165 3.4269087,7.2311885 L 4.802354,5.8639093 3.4269087,4.496622 c -0.1515118,-0.1512106 -0.1515118,-0.3957481 0,-0.5469507 v 0 c 0.1519216,-0.1510512 0.3982484,-0.1510512 0.5501669,0 l 1.7683484,1.757988 c 0.041722,0.041414 0.065127,0.09764 0.065031,0.15625 z m -0.2221872,0 z"
     id="path4-3-9-2-3-4-0"
     style="color:#d6dbf1;fill:#99c2ff;fill-opacity:1;stroke-width:0.160811"
     sodipodi:nodetypes="ccccccsscccccccccccc"
     class="ColorScheme-Text" />
  <path
     d="m 6.269614,7.3313167 h 2.3991705 c 0.6122147,0.00239 0.6122147,0.7359622 0,0.7383163 H 6.269614 c -0.6122129,-0.00239 -0.6122129,-0.7359602 0,-0.7383163 z m 2.3991705,0.1476615 z"
     id="path8-6-7-36-2-9-3-6-5-3"
     style="color:#d6dbf1;fill:#99c2ff;fill-opacity:1;stroke-width:0.11977"
     sodipodi:nodetypes="cccccccccc"
     class="ColorScheme-Text" />
  <path
     fill-rule="evenodd"
     clip-rule="evenodd"
     d="m 10.434783,8.6983408 c -0.04897,-0.020178 -0.111094,-0.020178 -0.235311,-0.020178 -0.124219,0 -0.186328,0 -0.2353139,0.020178 -0.065322,0.026777 -0.1172186,0.078303 -0.1442756,0.1430791 -0.012353,0.029537 -0.017191,0.063955 -0.019088,0.1141253 -0.00272,0.073704 -0.040927,0.1419509 -0.1053222,0.1788331 -0.064421,0.036827 -0.1430724,0.035505 -0.2088363,0.00172 -0.044754,-0.023477 -0.077203,-0.036476 -0.1092029,-0.040648 -0.070098,-0.00923 -0.1409906,0.00967 -0.1970849,0.052392 -0.042066,0.032068 -0.073121,0.085352 -0.1352317,0.1920272 -0.062107,0.10668 -0.09316,0.1600177 -0.1000789,0.2121488 -0.00925,0.069504 0.00974,0.1398161 0.052807,0.1954484 0.019661,0.02543 0.047255,0.046709 0.090109,0.073446 0.062993,0.03926 0.1035319,0.1061268 0.1035274,0.1799053 -4.1e-6,0.07373 -0.040531,0.140628 -0.1035274,0.179874 -0.04286,0.02665 -0.070475,0.04815 -0.090123,0.07347 -0.04304,0.05553 -0.06204,0.125913 -0.052806,0.195434 0.00688,0.0522 0.037963,0.105477 0.1000787,0.212152 0.062105,0.106671 0.093161,0.16002 0.1352318,0.192023 0.056091,0.04263 0.1269867,0.06149 0.1970855,0.05244 0.032018,-0.005 0.064443,-0.01728 0.1091932,-0.04061 0.065776,-0.03449 0.1444261,-0.03578 0.2088542,0.0021 0.064428,0.03679 0.1025483,0.105128 0.1053306,0.178853 0.00178,0.05022 0.00671,0.08452 0.019088,0.114119 0.027072,0.06473 0.078951,0.116241 0.144276,0.143076 0.048983,0.02019 0.1110904,0.02019 0.2353084,0.02019 0.124219,0 0.186331,0 0.235314,-0.02023 0.06536,-0.02676 0.117222,-0.07837 0.144272,-0.143082 0.0124,-0.02949 0.01723,-0.06395 0.0191,-0.11412 0.0031,-0.07366 0.04085,-0.141957 0.105314,-0.178848 0.06444,-0.0368 0.143082,-0.03548 0.208852,-0.0021 0.04471,0.02346 0.07722,0.03646 0.10919,0.0406 0.07011,0.0092 0.14099,-0.0096 0.197082,-0.05243 0.04208,-0.03211 0.07314,-0.08538 0.135235,-0.192047 0.06212,-0.106688 0.09317,-0.160027 0.100088,-0.212161 0.0092,-0.06948 -0.0097,-0.139827 -0.05277,-0.195442 -0.01962,-0.02546 -0.04731,-0.04668 -0.09014,-0.07347 -0.06297,-0.03931 -0.103513,-0.10612 -0.103513,-0.179887 0,-0.073729 0.04052,-0.1406191 0.103513,-0.1798627 0.04283,-0.026707 0.07047,-0.048103 0.09016,-0.073463 0.04305,-0.055607 0.06203,-0.1259402 0.05277,-0.1954518 -0.0065,-0.052266 -0.03795,-0.1055977 -0.100088,-0.212272 -0.06212,-0.1066961 -0.09317,-0.1600292 -0.135235,-0.1920488 -0.05609,-0.042694 -0.126983,-0.061498 -0.197082,-0.052408 -0.03203,0.005 -0.06447,0.017244 -0.109189,0.040648 -0.06574,0.034486 -0.144432,0.035819 -0.208853,-0.00172 -0.06448,-0.036776 -0.10255,-0.1050387 -0.105339,-0.1787576 -0.0022,-0.050192 -0.0062,-0.084545 -0.0191,-0.1141181 -0.02709,-0.064755 -0.07894,-0.1162295 -0.144273,-0.1430641 z m -0.235311,1.6982632 c 0.220854,0 0.399877,-0.177535 0.399877,-0.396548 0,-0.2190175 -0.179023,-0.396552 -0.399877,-0.396552 -0.2208546,0 -0.3998825,0.1775345 -0.3998825,0.396552 0,0.219013 0.1790279,0.396548 0.3998825,0.396548 z"
     id="path1"
     style="fill:#ff2a2a;stroke-width:0.264579" />
</svg>
