<?xml version="1.0" encoding="UTF-8" standalone="no"?>
<svg
   width="45.999886"
   height="45.999989"
   version="1.1"
   viewBox="0 0 12.170564 12.170591"
   id="svg12"
   sodipodi:docname="texstudio.svg"
   inkscape:version="1.3.2 (091e20ef0f, 2023-11-25)"
   xmlns:inkscape="http://www.inkscape.org/namespaces/inkscape"
   xmlns:sodipodi="http://sodipodi.sourceforge.net/DTD/sodipodi-0.dtd"
   xmlns:xlink="http://www.w3.org/1999/xlink"
   xmlns="http://www.w3.org/2000/svg"
   xmlns:svg="http://www.w3.org/2000/svg">
  <defs
     id="defs16">
    <linearGradient
       id="linearGradient2">
      <stop
         offset="0"
         stop-color="#fdbc4b"
         id="stop1" />
      <stop
         offset="1"
         stop-color="#fdbc4b"
         stop-opacity="0"
         id="stop2"
         style="stop-color:#fdbc4b;stop-opacity:0.55418718;" />
    </linearGradient>
    <linearGradient
       id="c"
       y1="523.79999"
       x1="403.57001"
       y2="536.79999"
       x2="416.57001"
       gradientUnits="userSpaceOnUse"
       gradientTransform="matrix(0.34526714,0,0,0.34526706,-134.80427,-174.63325)">
      <stop
         stop-color="#292c2f"
         id="stop1568" />
      <stop
         offset="1"
         stop-opacity="0"
         id="stop1570" />
    </linearGradient>
    <linearGradient
       xlink:href="#b-2"
       id="linearGradient4189"
       x1="14.369"
       y1="22.521999"
       x2="26.521999"
       y2="22.521999"
       gradientUnits="userSpaceOnUse" />
    <linearGradient
       x1="36"
       gradientUnits="userSpaceOnUse"
       x2="14"
       y2="12"
       y1="44"
       id="b-2">
      <stop
         style="stop-color:#bfc9c9;stop-opacity:1"
         stop-color="#536161"
         id="stop1579" />
      <stop
         style="stop-color:#fbfbfb;stop-opacity:1"
         stop-color="#f4f5f5"
         offset="1"
         id="stop1581" />
    </linearGradient>
    <linearGradient
       xlink:href="#b-2"
       id="linearGradient4428"
       gradientUnits="userSpaceOnUse"
       x1="31.586"
       y1="36.345001"
       x2="1.2029999"
       y2="6.723" />
    <linearGradient
       xlink:href="#b-2"
       id="linearGradient4189-3"
       x1="14.369"
       y1="22.521999"
       x2="26.521999"
       y2="22.521999"
       gradientUnits="userSpaceOnUse"
       gradientTransform="translate(20.841982,61.553822)" />
    <linearGradient
       xlink:href="#b-2"
       id="linearGradient4428-5"
       gradientUnits="userSpaceOnUse"
       x1="31.586"
       y1="36.345001"
       x2="1.2029999"
       y2="6.723"
       gradientTransform="translate(20.841982,61.553822)" />
    <linearGradient
       xlink:href="#b-2"
       id="linearGradient4189-3-3"
       x1="14.369"
       y1="22.521999"
       x2="26.521999"
       y2="22.521999"
       gradientUnits="userSpaceOnUse"
       gradientTransform="translate(4.376802,4.4211693)" />
    <linearGradient
       xlink:href="#b-2"
       id="linearGradient4428-5-5"
       gradientUnits="userSpaceOnUse"
       x1="31.586"
       y1="36.345001"
       x2="1.2029999"
       y2="6.723"
       gradientTransform="translate(4.376802,4.4211693)" />
    <linearGradient
       inkscape:collect="always"
       xlink:href="#linearGradient11"
       id="linearGradient13"
       x1="-43.819283"
       y1="23.120178"
       x2="-1.9547797"
       y2="23.120178"
       gradientUnits="userSpaceOnUse"
       gradientTransform="scale(0.26457813)" />
    <linearGradient
       id="linearGradient11"
       inkscape:collect="always">
      <stop
         style="stop-color:#9955ff;stop-opacity:0.54679805;"
         offset="0"
         id="stop4-3" />
      <stop
         style="stop-color:#9955ff;stop-opacity:0.76724136;"
         offset="1"
         id="stop11" />
    </linearGradient>
    <linearGradient
       inkscape:collect="always"
       xlink:href="#linearGradient14"
       id="linearGradient15"
       x1="-9.6850061"
       y1="45.161198"
       x2="11.98815"
       y2="21.735205"
       gradientUnits="userSpaceOnUse"
       gradientTransform="scale(0.26457813)" />
    <linearGradient
       id="linearGradient14"
       inkscape:collect="always">
      <stop
         style="stop-color:#9955ff;stop-opacity:0.45197046;"
         offset="0"
         id="stop12" />
      <stop
         style="stop-color:#b380ff;stop-opacity:1"
         offset="1"
         id="stop13" />
    </linearGradient>
    <linearGradient
       inkscape:collect="always"
       xlink:href="#b"
       id="linearGradient1609"
       gradientUnits="userSpaceOnUse"
       gradientTransform="matrix(0.19843195,0,0,0.19843195,2.6458618,2.6463326)"
       x1="11"
       y1="4"
       x2="6"
       y2="17" />
    <linearGradient
       id="b"
       gradientUnits="userSpaceOnUse"
       x1="11"
       x2="6"
       y1="4"
       y2="17"
       gradientTransform="matrix(0.74999377,0,0,0.74999377,65.149328,-30.499979)">
      <stop
         offset="0"
         stop-color="#194d6f"
         id="stop467" />
      <stop
         offset=".230769"
         stop-color="#115c92"
         id="stop469" />
      <stop
         offset="1"
         stop-color="#9b59b6"
         id="stop471" />
    </linearGradient>
    <radialGradient
       id="c-2-0"
       cx="0"
       cy="0"
       gradientTransform="matrix(0.99215957,0,0,1.5874554,4.2333181,5.2259496)"
       gradientUnits="userSpaceOnUse"
       r="1">
      <stop
         offset="0"
         stop-color="#0c3d61"
         id="stop474-7-6" />
      <stop
         offset="1"
         stop-color="#0c3d61"
         stop-opacity=".149"
         id="stop476-0-2" />
    </radialGradient>
    <linearGradient
       id="d">
      <stop
         offset="0"
         stop-color="#fdbc4b"
         id="stop479"
         style="stop-color:#b380ff;stop-opacity:1" />
      <stop
         offset="1"
         stop-color="#fdbc4b"
         stop-opacity="0"
         id="stop481"
         style="stop-color:#ccaaff;stop-opacity:1" />
    </linearGradient>
    <linearGradient
       inkscape:collect="always"
       xlink:href="#f"
       id="linearGradient1613"
       gradientUnits="userSpaceOnUse"
       gradientTransform="matrix(0.19843195,0,0,0.19843195,2.6458618,2.6463326)"
       x1="5"
       y1="10"
       x2="15"
       y2="22" />
    <linearGradient
       id="f"
       gradientUnits="userSpaceOnUse"
       x1="5"
       x2="15"
       y1="10"
       y2="22"
       gradientTransform="matrix(0.74999377,0,0,0.74999377,65.149328,-30.499979)">
      <stop
         offset="0"
         stop-color="#3daee9"
         id="stop485" />
      <stop
         offset=".5"
         stop-color="#177ac2"
         id="stop487" />
      <stop
         offset="1"
         stop-color="#9b59b6"
         id="stop489" />
    </linearGradient>
    <linearGradient
       id="i"
       gradientUnits="userSpaceOnUse"
       x1="8"
       x2="8"
       y1="4"
       y2="14"
       gradientTransform="matrix(0.74999377,0,0,0.74999377,65.149328,-30.499979)">
      <stop
         offset="0"
         stop-color="#318bba"
         id="stop502" />
      <stop
         offset=".275862"
         stop-color="#177ac2"
         id="stop504" />
      <stop
         offset="1"
         stop-color="#9b59b6"
         id="stop506" />
    </linearGradient>
    <linearGradient
       inkscape:collect="always"
       xlink:href="#l"
       id="linearGradient1619"
       gradientUnits="userSpaceOnUse"
       gradientTransform="matrix(0.19843195,0,0,0.19843195,2.6458618,2.6463326)"
       x1="46"
       y1="50"
       x2="32"
       y2="20" />
    <linearGradient
       id="l"
       gradientUnits="userSpaceOnUse"
       x1="46"
       x2="32"
       y1="50"
       y2="20"
       gradientTransform="matrix(0.74999377,0,0,0.74999377,65.149328,-30.499979)">
      <stop
         offset="0"
         stop-color="#9b59b6"
         id="stop517" />
      <stop
         offset="1"
         stop-color="#9b59b6"
         stop-opacity="0"
         id="stop519" />
    </linearGradient>
    <linearGradient
       inkscape:collect="always"
       xlink:href="#m"
       id="linearGradient1621"
       gradientUnits="userSpaceOnUse"
       gradientTransform="matrix(0.19843195,0,0,0.19843195,2.6458618,2.6463326)"
       x1="28"
       y1="23"
       x2="30"
       y2="31" />
    <linearGradient
       id="m"
       gradientUnits="userSpaceOnUse"
       x1="28"
       x2="30"
       y1="23"
       y2="31"
       gradientTransform="matrix(0.74999377,0,0,0.74999377,65.149328,-30.499979)">
      <stop
         offset="0"
         stop-color="#11d116"
         id="stop522" />
      <stop
         offset="1"
         stop-color="#11d116"
         stop-opacity="0"
         id="stop524" />
    </linearGradient>
  </defs>
  <sodipodi:namedview
     id="namedview14"
     pagecolor="#000000"
     bordercolor="#666666"
     borderopacity="1.0"
     inkscape:showpageshadow="2"
     inkscape:pageopacity="0.0"
     inkscape:pagecheckerboard="0"
     inkscape:deskcolor="#d1d1d1"
     showgrid="false"
     inkscape:zoom="5.2149125"
     inkscape:cx="23.20269"
     inkscape:cy="53.692176"
     inkscape:window-width="1920"
     inkscape:window-height="996"
     inkscape:window-x="0"
     inkscape:window-y="0"
     inkscape:window-maximized="1"
     inkscape:current-layer="svg12">
    <inkscape:grid
       type="xygrid"
       id="grid244"
       originx="9.7893915"
       originy="-31.749373"
       spacingy="1"
       spacingx="1"
       units="px"
       visible="false" />
  </sodipodi:namedview>
  <rect
     x="-12.025727"
     y="0.1490714"
     width="11.940627"
     height="11.936014"
     rx="1.6121091"
     stroke="url(#paint4_linear_77:23)"
     shape-rendering="crispEdges"
     id="rect5-6-7-3"
     ry="1.7735944"
     transform="matrix(0.00523883,-0.99998628,0.999988,0.00489859,0,0)"
     style="fill:#ccaaff;fill-opacity:0.1;stroke:url(#linearGradient13);stroke-width:0.188987;stroke-opacity:1" />
  <rect
     x="-3.7266586"
     y="4.6446943"
     width="7.912631"
     height="7.912384"
     rx="1.612043"
     shape-rendering="crispEdges"
     id="rect5-6-6-6-6"
     style="fill:#ccaaff;fill-opacity:0.07;stroke:url(#linearGradient15);stroke-width:0.188987;stroke-opacity:1"
     ry="1.7735215"
     transform="matrix(0.72612649,-0.68756114,0.6879775,0.72573202,0,0)" />
  <path
     d="m 3.4258648,1.7272127 v 1.475835 c 0,0.06183 0.04425,0.111622 0.099216,0.111622 0.054965,0 0.099216,-0.04979 0.099216,-0.111622 v -1.475835 z"
     fill="#194d6f"
     id="path529-3-8"
     style="stroke-width:0.198433;fill:#80b3ff" />
  <path
     d="m 2.7739758,2.1260207 c -0.1904563,0.01371 -0.3696149,0.09555 -0.5045963,0.230596 -0.3098887,0.309951 -0.3098887,0.812426 0,1.122373 L 2.8305691,4.0401757 4.3498225,3.3146697 3.3917517,2.3566167 C 3.22902,2.1938057 3.0036016,2.1096697 2.7739758,2.1260207 Z"
     fill="url(#b)"
     id="path531-6-4"
     style="fill:url(#linearGradient1609);stroke-width:0.198433" />
  <path
     d="m 3.0290005,2.3225097 c -0.2418487,0.0062 -0.396864,0.06562 -0.5611882,0.232539 -0.1590635,0.212345 -0.2299996,0.392704 -0.2325395,0.623201 0,0.130546 0.0885,0.235636 0.1984314,0.235636 0.028281,0 0.055142,-0.0072 0.079452,-0.01974 l 0.00275,0.0028 c 0,-0.0017 0,-0.0028 0,-0.0043 0.068637,-0.03701 0.1162614,-0.118684 0.1162614,-0.214328 0,-0.186606 0.032284,-0.31781 0.1169361,-0.42161 0.1488411,-0.148859 0.2799266,-0.235717 0.4783181,-0.235717 0.3969035,0 0.494554,0.16585 0.6433974,0.314693 L 3.5902205,2.5550267 C 3.4413765,2.4061607 3.2395526,2.3224797 3.0290357,2.3224797 Z"
     fill="url(#c)"
     id="path533-1-5"
     style="fill:url(#c-2-0);stroke-width:0.198433" />
  <path
     d="m 2.7739758,2.1260207 c -0.1904563,0.01371 -0.3696149,0.09555 -0.5045963,0.230596 -0.3098887,0.309951 -0.3098887,0.812426 0,1.122373 L 2.8305691,4.0401757 4.3498225,3.3146697 3.3917517,2.3566167 C 3.22902,2.1938057 3.0036016,2.1096697 2.7739758,2.1260207 Z"
     fill="url(#e)"
     opacity="0.35"
     id="path535-2-0"
     style="fill:#e580ff;stroke-width:0.198433;opacity:1;fill-opacity:1" />
  <path
     d="m 4.5904806,2.8263457 c -0.00682,1.26e-4 -0.013748,9.52e-4 -0.02051,0.0019 l -1.1440785,0.213952 c -0.2469861,0.03721 -0.4444659,0.22657 -0.4945328,0.471276 h -0.00307 l -0.2647094,1.040989 c -0.00353,0.01464 -0.00528,0.02955 -0.00538,0.04457 0,0.109594 0.088837,0.198433 0.198432,0.198433 0.013091,-4.24e-4 0.025992,-0.001 0.038752,-0.0031 l 1.1390428,-0.284472 c 0.1986696,-0.05876 0.3552091,-0.216551 0.4088853,-0.416629 l 0.3394993,-1.020078 c 0.00407,-0.01562 0.00602,-0.03185 0.00615,-0.04804 0,-0.109594 -0.088839,-0.198432 -0.1984312,-0.198432 z"
     fill="url(#f)"
     id="path537-9-3"
     style="fill:url(#linearGradient1613);stroke-width:0.198433" />
  <path
     d="m 4.5904806,2.8263457 c -0.00682,1.26e-4 -0.013748,9.52e-4 -0.02051,0.0019 l -1.1440785,0.213952 c -0.2469861,0.03721 -0.4444659,0.22657 -0.4945328,0.471276 h -0.00307 l -0.2647094,1.040989 c -0.00353,0.01464 -0.00528,0.02955 -0.00538,0.04457 0,0.109594 0.088837,0.198433 0.198432,0.198433 0.013091,-4.24e-4 0.025992,-0.001 0.038752,-0.0031 l 1.1390428,-0.284472 c 0.1986696,-0.05876 0.3552091,-0.216551 0.4088853,-0.416629 l 0.3394993,-1.020078 c 0.00407,-0.01562 0.00602,-0.03185 0.00615,-0.04804 0,-0.109594 -0.088839,-0.198432 -0.1984312,-0.198432 z"
     fill="url(#g)"
     opacity="0.5"
     id="path539-3-6"
     style="fill:#b380ff;stroke-width:0.198433;fill-opacity:1;opacity:1" />
  <path
     d="m 3.5607195,4.2572217 c 0.2465892,0 0.5263986,-0.199902 0.6250209,-0.446472 0.098599,-0.246573 -0.021333,-0.446472 -0.2679452,-0.446472 -0.246572,0 -0.5264009,0.199899 -0.6249999,0.446472 -0.09862,0.24657 0.021333,0.446472 0.2679242,0.446472 z"
     fill="#2c3e50"
     opacity="0.5"
     id="path541-1-1"
     style="stroke-width:0.198433" />
  <path
     d="m 3.5607195,4.2572217 c 0.2465892,0 0.5263986,-0.199902 0.6250209,-0.446472 0.098599,-0.246573 -0.021333,-0.446472 -0.2679452,-0.446472 -0.246572,0 -0.5264009,0.199899 -0.6249999,0.446472 -0.09862,0.24657 0.021333,0.446472 0.2679242,0.446472 z"
     fill="#2c3e50"
     opacity="0.5"
     id="path543-9-0"
     style="stroke-width:0.198433;fill:#ffe680;fill-opacity:1;opacity:1" />
  <path
     d="m 2.2352728,1.7272127 v 1.475835 c 0,0.06183 0.044249,0.111622 0.099216,0.111622 0.054965,0 0.099216,-0.04979 0.099216,-0.111622 v -1.475835 z"
     fill="url(#i)"
     id="path547-7-3"
     style="fill:#80b3ff;stroke-width:0.198433;fill-opacity:1" />
  <path
     d="m 3.3266488,5.9471873 -0.1387437,0.515846 0.2805827,0.280604 h 0.2081328 l 0.1073523,-0.267804 h 0.2371872 v 1.583567 L 3.6242968,8.3283743 3.904897,8.6089773 H 5.0954896 V 8.4105453 L 4.8148862,8.1299423 c -0.03891,-2.43e-4 -0.077686,-0.0026 -0.1162609,-0.0066 v -1.647521 h 0.3573144 l 0.267825,0.267804 H 5.5318811 L 5.3931368,6.2277933 5.1125316,5.9471873 Z m 3.3473658,0 -0.073243,0.146511 0.2806057,0.280581 c 0.075998,0.01678 0.1505921,0.03937 0.2232344,0.06705 l 0.40228,0.649566 -0.5964639,0.963466 -0.2894954,0.274015 0.2805828,0.280603 h 0.7441209 l 0.1027081,-0.102709 -0.2294236,-0.229447 0.3612013,-0.58327 0.2720689,0.439487 -0.1860212,0.195336 0.2805758,0.280603 h 0.7441334 l 0.073253,-0.146503 -0.2806002,-0.280602 c -0.059071,-0.01302 -0.117252,-0.02961 -0.1744001,-0.04921 L 8.1831866,7.4447373 8.7622233,6.5083763 c 0.1191009,-0.0603 0.2450001,-0.105407 0.3751228,-0.134097 L 9.0641315,6.2277933 8.7835313,5.9471873 7.9366982,6.0498963 8.1614814,6.2746813 7.810355,6.8424573 7.5452723,6.4146003 c 0.086851,-0.02341 0.1724343,-0.05108 0.2561717,-0.08412 L 7.5208428,6.0498963 Z m -0.1724589,0.992164 -1.6277548,0.149597 0.3379459,0.33795 v 1.617696 l -0.3096466,0.27594 0.2805843,0.280602 h 1.7176841 c 0.023595,-0.204008 0.073478,-0.404086 0.1484281,-0.595295 L 6.7682126,8.7252383 H 6.5542594 c -0.062603,0.118365 -0.1151074,0.241769 -0.1569538,0.368964 -0.096676,-0.01292 -0.1941692,-0.01998 -0.2918347,-0.02093 l -0.00103,-7.68e-4 H 5.8891227 v -0.612344 l 0.1984322,3.97e-4 c 0.031114,0.0011 0.061137,0.007 0.089509,0.01704 l 0.1810037,0.18099 H 6.4844309 V 8.0136823 L 6.2038384,7.7330773 H 6.0964919 c -0.033672,0.09523 -0.1124706,0.165056 -0.2073407,0.189126 v -0.454213 h 0.3968651 v -7.68e-4 c 0.050597,-4.49e-4 0.1010996,-0.0029 0.1515218,-0.0066 l 0.2751851,0.275166 H 6.9208414 L 6.7821045,7.2199553 Z"
     opacity="0.08"
     id="path553-5-6"
     style="stroke-width:0.198433" />
  <path
     d="m 3.3266488,5.9471873 -0.1387437,0.515846 h 0.2081156 l 0.107351,-0.267805 h 0.5177884 v 1.864172 c -0.1273129,0.0459 -0.2615331,0.06975 -0.3968633,0.07054 v 0.198432 H 4.8148862 V 8.1299403 C 4.6795559,8.1291463 4.5453378,8.1053003 4.4180238,8.0594003 V 6.1952283 H 4.935813 l 0.1073476,0.267805 H 5.2512748 L 5.1125316,5.9471873 Z m 3.3473658,0 -0.073243,0.146511 c 0.1282669,0.02827 0.2525287,0.07236 0.3701154,0.131374 l 0.5360047,0.865821 -0.5964639,0.963466 c -0.1154085,0.05715 -0.2371663,0.09983 -0.3627565,0.127513 l 0.073261,0.146502 H 7.365053 L 7.4677422,8.2256663 C 7.3665035,8.1857163 7.262583,8.1529963 7.1569184,8.1272263 l 0.4960799,-0.800316 0.4991923,0.80613 c -0.09804,0.0249 -0.1945758,0.05548 -0.2887368,0.09263 l 0.1027156,0.102708 h 0.7441101 l 0.073252,-0.146502 C 8.6747662,8.1578803 8.56871,8.1226203 8.4672546,8.0764653 L 7.902588,7.1641343 8.4816056,6.2277933 c 0.1190977,-0.0603 0.2450533,-0.105407 0.3751705,-0.134095 l -0.073245,-0.14651 H 8.0394051 L 7.936698,6.0498963 c 0.09899,0.03905 0.2006074,0.07098 0.3038524,0.09651 L 7.7568793,6.9288943 7.2646681,6.1339973 c 0.086855,-0.02339 0.1724364,-0.05106 0.2561747,-0.0841 L 7.4181342,5.9471883 Z m -1.7719144,0.992164 -0.028299,0.149597 c 0.1231868,0.0066 0.2412707,0.05128 0.3379459,0.12789 v 1.827756 c -0.096211,0.07544 -0.2139656,0.12025 -0.3379459,0.126342 l 0.028299,0.149598 h 1.717664 c 0.023579,-0.204008 0.0735,-0.404087 0.1484484,-0.595296 H 6.5542594 c -0.062603,0.118365 -0.1151074,0.241769 -0.1569538,0.368964 -0.096937,-0.01294 -0.194683,-0.02002 -0.2926142,-0.02093 v -7.68e-4 H 5.6086111 v -0.892949 l 0.1984315,3.96e-4 c 0.1220192,0.0041 0.229612,0.08229 0.2705264,0.198036 H 6.2039074 V 7.7330803 H 6.0965614 C 6.0546531,7.8515843 5.9428169,7.9310163 5.817123,7.9315123 H 5.6086111 v -0.74412 h 0.3968643 v -7.67e-4 c 0.1089787,-0.0011 0.2177425,-0.0096 0.3255544,-0.02558 l 0.1011538,0.294156 h 0.2081161 l -0.138744,-0.515847 z"
     fill="#fcfcfc"
     id="path555-0-1"
     style="stroke-width:0.198433" />
  <path
     d="m 3.3266488,5.9471873 -0.1387437,0.515846 h 0.2081156 l 0.107351,-0.267805 h 0.5177884 v 1.864172 c -0.1273129,0.0459 -0.2615331,0.06975 -0.3968633,0.07054 v 0.198432 H 4.8148862 V 8.1299403 C 4.6795559,8.1291463 4.5453378,8.1053003 4.4180238,8.0594003 V 6.1952283 H 4.935813 l 0.1073476,0.267805 H 5.2512748 L 5.1125316,5.9471873 Z m 3.3473658,0 -0.073243,0.146511 c 0.1282669,0.02827 0.2525287,0.07236 0.3701154,0.131374 l 0.5360047,0.865821 -0.5964639,0.963466 c -0.1154085,0.05715 -0.2371663,0.09983 -0.3627565,0.127513 l 0.073261,0.146502 H 7.365053 L 7.4677422,8.2256663 C 7.3665035,8.1857163 7.262583,8.1529963 7.1569184,8.1272263 l 0.4960799,-0.800316 0.4991923,0.80613 c -0.09804,0.0249 -0.1945758,0.05548 -0.2887368,0.09263 l 0.1027156,0.102708 h 0.7441101 l 0.073252,-0.146502 C 8.6747662,8.1578803 8.56871,8.1226203 8.4672546,8.0764653 L 7.902588,7.1641343 8.4816056,6.2277933 c 0.1190977,-0.0603 0.2450533,-0.105407 0.3751705,-0.134095 l -0.073245,-0.14651 H 8.0394051 L 7.936698,6.0498963 c 0.09899,0.03905 0.2006074,0.07098 0.3038524,0.09651 L 7.7568793,6.9288943 7.2646681,6.1339973 c 0.086855,-0.02339 0.1724364,-0.05106 0.2561747,-0.0841 L 7.4181342,5.9471883 Z m -1.7719144,0.992164 -0.028299,0.149597 c 0.1231868,0.0066 0.2412707,0.05128 0.3379459,0.12789 v 1.827756 c -0.096211,0.07544 -0.2139656,0.12025 -0.3379459,0.126342 l 0.028299,0.149598 h 1.717664 c 0.023579,-0.204008 0.0735,-0.404087 0.1484484,-0.595296 H 6.5542594 c -0.062603,0.118365 -0.1151074,0.241769 -0.1569538,0.368964 -0.096937,-0.01294 -0.194683,-0.02002 -0.2926142,-0.02093 v -7.68e-4 H 5.6086111 v -0.892949 l 0.1984315,3.96e-4 c 0.1220192,0.0041 0.229612,0.08229 0.2705264,0.198036 H 6.2039074 V 7.7330803 H 6.0965614 C 6.0546531,7.8515843 5.9428169,7.9310163 5.817123,7.9315123 H 5.6086111 v -0.74412 h 0.3968643 v -7.67e-4 c 0.1089787,-0.0011 0.2177425,-0.0096 0.3255544,-0.02558 l 0.1011538,0.294156 h 0.2081161 l -0.138744,-0.515847 z"
     fill="url(#l)"
     opacity="0.4"
     id="path557-3-5"
     style="fill:url(#linearGradient1619);stroke-width:0.198433" />
  <path
     d="m 3.3266488,5.9471873 -0.1387437,0.515846 h 0.2081156 l 0.107351,-0.267805 h 0.5177884 v 1.864172 c -0.1273129,0.0459 -0.2615331,0.06975 -0.3968633,0.07054 v 0.198432 H 4.8148862 V 8.1299403 C 4.6795559,8.1291463 4.5453378,8.1053003 4.4180238,8.0594003 V 6.1952283 H 4.935813 l 0.1073476,0.267805 H 5.2512748 L 5.1125316,5.9471873 Z m 3.3473658,0 -0.073243,0.146511 c 0.1282669,0.02827 0.2525287,0.07236 0.3701154,0.131374 l 0.5360047,0.865821 -0.5964639,0.963466 c -0.1154085,0.05715 -0.2371663,0.09983 -0.3627565,0.127513 l 0.073261,0.146502 H 7.365053 L 7.4677422,8.2256663 C 7.3665035,8.1857163 7.262583,8.1529963 7.1569184,8.1272263 l 0.4960799,-0.800316 0.4991923,0.80613 c -0.09804,0.0249 -0.1945758,0.05548 -0.2887368,0.09263 l 0.1027156,0.102708 h 0.7441101 l 0.073252,-0.146502 C 8.6747662,8.1578803 8.56871,8.1226203 8.4672546,8.0764653 L 7.902588,7.1641343 8.4816056,6.2277933 c 0.1190977,-0.0603 0.2450533,-0.105407 0.3751705,-0.134095 l -0.073245,-0.14651 H 8.0394051 L 7.936698,6.0498963 c 0.09899,0.03905 0.2006074,0.07098 0.3038524,0.09651 L 7.7568793,6.9288943 7.2646681,6.1339973 c 0.086855,-0.02339 0.1724364,-0.05106 0.2561747,-0.0841 L 7.4181342,5.9471883 Z m -1.7719144,0.992164 -0.028299,0.149597 c 0.1231868,0.0066 0.2412707,0.05128 0.3379459,0.12789 v 1.827756 c -0.096211,0.07544 -0.2139656,0.12025 -0.3379459,0.126342 l 0.028299,0.149598 h 1.717664 c 0.023579,-0.204008 0.0735,-0.404087 0.1484484,-0.595296 H 6.5542594 c -0.062603,0.118365 -0.1151074,0.241769 -0.1569538,0.368964 -0.096937,-0.01294 -0.194683,-0.02002 -0.2926142,-0.02093 v -7.68e-4 H 5.6086111 v -0.892949 l 0.1984315,3.96e-4 c 0.1220192,0.0041 0.229612,0.08229 0.2705264,0.198036 H 6.2039074 V 7.7330803 H 6.0965614 C 6.0546531,7.8515843 5.9428169,7.9310163 5.817123,7.9315123 H 5.6086111 v -0.74412 h 0.3968643 v -7.67e-4 c 0.1089787,-0.0011 0.2177425,-0.0096 0.3255544,-0.02558 l 0.1011538,0.294156 h 0.2081161 l -0.138744,-0.515847 z"
     fill="url(#m)"
     opacity="0.05"
     id="path559-6-5"
     style="fill:url(#linearGradient1621);stroke-width:0.198433" />
  <path
     d="M 7.4416352,2.734415 7.1470155,3.2665166 H 6.6793456 V 3.5325673 H 6.9453965 V 4.1805314 L 7.5985795,3.0004658 H 8.5417046 V 2.734415 Z M 5.6151417,3.2665166 V 3.5325673 H 6.4132943 V 3.2665166 Z M 8.275652,3.5325673 c -0.2197792,0 -0.5321027,0.1377076 -0.5321027,0.6651275 0,0.4087843 0.2584686,0.6568489 0.5321027,0.6651254 0.1876734,0 0.3935059,-0.068491 0.4882047,-0.2144382 L 8.5581815,4.5121122 c -0.092095,0.09892 -0.19688,0.1012576 -0.2740714,0.1012576 -0.1322852,0 -0.270889,-0.1108676 -0.2708612,-0.2826507 L 8.8077571,4.2908017 V 4.0646578 c 0,-0.2947848 -0.2373188,-0.5321016 -0.5321051,-0.5321016 z M 5.6151417,3.7986183 V 4.0646692 H 6.4132943 V 3.7986183 Z m 2.6593094,-0.024616 c 0.2051532,-0.00561 0.2764543,0.130711 0.2832427,0.290635 L 8.000316,4.0636782 C 8.008286,3.9241084 8.059539,3.7795365 8.2744511,3.7737662 Z M 6.1472428,4.3306922 V 4.5967444 H 6.4132943 V 5.1288458 H 6.6793456 V 4.5967468 H 6.9453965 V 5.1288467 H 7.2114479 V 4.596748 H 7.4774984 V 4.3306984 Z"
     fill="#fcfcfc"
     opacity="0.15"
     id="path561-1-4"
     style="opacity:1;fill:#8fbcff;fill-opacity:1;stroke-width:0.198434" />
  <path
     d="m 3.8672957,2.8321617 -0.590255,0.110446 c -0.2469879,0.03721 -0.4444653,0.226571 -0.4945331,0.471278 h -0.00307 l -0.1166562,0.458474 0.1387435,0.138765 0.1267358,-0.498023 h 0.00307 c 0.050067,-0.244707 0.2475444,-0.434068 0.4945328,-0.471277 l 0.5484043,-0.102709 z"
     fill="#000018"
     opacity="0.03"
     id="path567-3-7"
     style="stroke-width:0.198433" />
  <path
     d="m 3.921548,2.8864127 -0.565055,0.105804 c -0.246989,0.03721 -0.4444662,0.226571 -0.4945331,0.471277 h -0.00307 l -0.1224724,0.482507 0.065108,0.06513 0.1267358,-0.498024 h 0.00307 c 0.050067,-0.244712 0.2475438,-0.434073 0.4945327,-0.471282 l 0.5484041,-0.102709 z"
     fill="#000016"
     opacity="0.03"
     id="path569-2-6"
     style="stroke-width:0.198433" />
</svg>
