<?xml version="1.0" encoding="UTF-8" standalone="no"?>
<svg
   width="45.999886"
   height="45.999989"
   version="1.1"
   viewBox="0 0 12.170564 12.170591"
   id="svg12"
   sodipodi:docname="translator.svg"
   inkscape:version="1.3.2 (091e20ef0f, 2023-11-25)"
   xmlns:inkscape="http://www.inkscape.org/namespaces/inkscape"
   xmlns:sodipodi="http://sodipodi.sourceforge.net/DTD/sodipodi-0.dtd"
   xmlns:xlink="http://www.w3.org/1999/xlink"
   xmlns="http://www.w3.org/2000/svg"
   xmlns:svg="http://www.w3.org/2000/svg">
  <defs
     id="defs16">
    <linearGradient
       id="c"
       y1="523.79999"
       x1="403.57001"
       y2="536.79999"
       x2="416.57001"
       gradientUnits="userSpaceOnUse"
       gradientTransform="matrix(0.34526714,0,0,0.34526706,-134.80427,-174.63325)">
      <stop
         stop-color="#292c2f"
         id="stop1568" />
      <stop
         offset="1"
         stop-opacity="0"
         id="stop1570" />
    </linearGradient>
    <linearGradient
       xlink:href="#b-2"
       id="linearGradient4189"
       x1="14.369"
       y1="22.521999"
       x2="26.521999"
       y2="22.521999"
       gradientUnits="userSpaceOnUse" />
    <linearGradient
       x1="36"
       gradientUnits="userSpaceOnUse"
       x2="14"
       y2="12"
       y1="44"
       id="b-2">
      <stop
         style="stop-color:#bfc9c9;stop-opacity:1"
         stop-color="#536161"
         id="stop1579" />
      <stop
         style="stop-color:#fbfbfb;stop-opacity:1"
         stop-color="#f4f5f5"
         offset="1"
         id="stop1581" />
    </linearGradient>
    <linearGradient
       xlink:href="#b-2"
       id="linearGradient4428"
       gradientUnits="userSpaceOnUse"
       x1="31.586"
       y1="36.345001"
       x2="1.2029999"
       y2="6.723" />
    <linearGradient
       xlink:href="#b-2"
       id="linearGradient4189-3"
       x1="14.369"
       y1="22.521999"
       x2="26.521999"
       y2="22.521999"
       gradientUnits="userSpaceOnUse"
       gradientTransform="translate(20.841982,61.553822)" />
    <linearGradient
       xlink:href="#b-2"
       id="linearGradient4428-5"
       gradientUnits="userSpaceOnUse"
       x1="31.586"
       y1="36.345001"
       x2="1.2029999"
       y2="6.723"
       gradientTransform="translate(20.841982,61.553822)" />
    <linearGradient
       xlink:href="#b-2"
       id="linearGradient4189-3-3"
       x1="14.369"
       y1="22.521999"
       x2="26.521999"
       y2="22.521999"
       gradientUnits="userSpaceOnUse"
       gradientTransform="translate(4.376802,4.4211693)" />
    <linearGradient
       xlink:href="#b-2"
       id="linearGradient4428-5-5"
       gradientUnits="userSpaceOnUse"
       x1="31.586"
       y1="36.345001"
       x2="1.2029999"
       y2="6.723"
       gradientTransform="translate(4.376802,4.4211693)" />
    <linearGradient
       inkscape:collect="always"
       xlink:href="#linearGradient11"
       id="linearGradient13"
       x1="-43.819283"
       y1="23.120178"
       x2="-1.9547797"
       y2="23.120178"
       gradientUnits="userSpaceOnUse"
       gradientTransform="scale(0.26457813)" />
    <linearGradient
       id="linearGradient11"
       inkscape:collect="always">
      <stop
         style="stop-color:#9955ff;stop-opacity:0.65640396;"
         offset="0"
         id="stop4-3" />
      <stop
         style="stop-color:#00ccff;stop-opacity:1"
         offset="1"
         id="stop11" />
    </linearGradient>
    <linearGradient
       inkscape:collect="always"
       xlink:href="#linearGradient14"
       id="linearGradient15"
       x1="-9.6850061"
       y1="45.161198"
       x2="11.98815"
       y2="21.735205"
       gradientUnits="userSpaceOnUse"
       gradientTransform="scale(0.26457813)" />
    <linearGradient
       id="linearGradient14"
       inkscape:collect="always">
      <stop
         style="stop-color:#9955ff;stop-opacity:0.45197046;"
         offset="0"
         id="stop12" />
      <stop
         style="stop-color:#00ccff;stop-opacity:1"
         offset="1"
         id="stop13" />
    </linearGradient>
  </defs>
  <sodipodi:namedview
     id="namedview14"
     pagecolor="#000000"
     bordercolor="#666666"
     borderopacity="1.0"
     inkscape:showpageshadow="2"
     inkscape:pageopacity="0.0"
     inkscape:pagecheckerboard="0"
     inkscape:deskcolor="#d1d1d1"
     showgrid="false"
     inkscape:zoom="10.429825"
     inkscape:cx="19.463414"
     inkscape:cy="21.956265"
     inkscape:window-width="1920"
     inkscape:window-height="996"
     inkscape:window-x="0"
     inkscape:window-y="0"
     inkscape:window-maximized="1"
     inkscape:current-layer="svg12">
    <inkscape:grid
       type="xygrid"
       id="grid244"
       originx="9.7893915"
       originy="-31.749373"
       spacingy="1"
       spacingx="1"
       units="px"
       visible="false" />
  </sodipodi:namedview>
  <rect
     x="-12.025727"
     y="0.1490714"
     width="11.940627"
     height="11.936014"
     rx="1.6121091"
     stroke="url(#paint4_linear_77:23)"
     shape-rendering="crispEdges"
     id="rect5-6-7-3"
     ry="1.7735944"
     transform="matrix(0.00523883,-0.99998628,0.999988,0.00489859,0,0)"
     style="fill:#80b3ff;fill-opacity:0.15;stroke:url(#linearGradient13);stroke-width:0.188987;stroke-opacity:1" />
  <rect
     x="-3.7266586"
     y="4.6446943"
     width="7.912631"
     height="7.912384"
     rx="1.612043"
     shape-rendering="crispEdges"
     id="rect5-6-6-6-6"
     style="fill:#80b3ff;fill-opacity:0.122146;stroke:url(#linearGradient15);stroke-width:0.188987;stroke-opacity:1"
     ry="1.7735215"
     transform="matrix(0.72612649,-0.68756114,0.6879775,0.72573202,0,0)" />
  <path
     style="opacity:0.1;stroke-width:0.264579"
     d="m 5.1873139,3.2808774 0.08008,0.3786167 C 3.9178456,4.3342155 3.7766951,4.9251133 3.5909242,5.5190578 L 4.3196838,5.646919 C 4.491644,4.925612 4.9460361,4.5574653 5.4794432,4.3310709 L 5.6139345,4.7407231 6.5553801,3.7116314 Z m 2.9513189,0.259445 c -0.3374091,0 -0.6086522,0.094371 -0.8138339,0.2836511 -0.2042693,0.1883062 -0.3065166,0.4371289 -0.3065166,0.7454407 0,0.2146471 0.055777,0.4002893 0.1670204,0.5573717 0.1112549,0.1561079 0.2749279,0.3323029 0.4910527,0.422064 H 7.2422273 V 5.3198177 H 7.0320447 V 5.7648478 H 8.036043 V 5.5358158 C 7.8956082,5.5045926 7.7883786,5.3610979 7.7145135,5.2118196 7.6406484,5.0615679 7.6037916,4.8588213 7.6037916,4.6041722 c 0,-0.2897749 0.044849,-0.5095336 0.1351182,-0.6597846 0.091189,-0.1512286 0.2246352,-0.2271695 0.399723,-0.2271695 0.1750881,0 0.3079056,0.075946 0.3990975,0.2271695 0.09119,0.150251 0.1369941,0.3688587 0.1369941,0.6566817 0,0.2595273 -0.036514,0.463691 -0.1094701,0.6119931 -0.072954,0.1483019 -0.1805215,0.2915335 -0.3227805,0.3227534 v 0.229032 H 9.2452204 V 5.3198177 H 9.0362887 V 5.5488499 H 8.6009095 C 8.8179464,5.4590889 8.9819588,5.2828929 9.0932134,5.1267859 9.2044675,4.9697042 9.2602333,4.7840613 9.2602333,4.5694142 9.2602333,4.2611024 9.1576468,4.0122797 8.9524657,3.8239735 8.7472843,3.6346953 8.4760428,3.5403224 8.1386328,3.5403224 Z M 8.2756265,6.4252535 C 8.103667,7.1465587 7.6498998,7.5147048 7.116493,7.7411003 L 6.9813757,7.3320696 6.0399306,8.3605409 7.4079972,8.7912944 7.3279266,8.4126776 C 8.6774656,7.7379553 8.8186154,7.1470575 9.004386,6.5531135 Z M 4.0325582,6.718216 3.1749376,8.9427409 H 3.6816289 L 3.8436443,8.4344018 H 4.7481822 L 4.9070703,8.9427409 H 5.4168887 L 4.5824118,6.718216 Z M 4.2977901,7.2433129 4.5799103,7.9893731 H 4.0150429 Z"
     id="path2" />
  <g
     style="font-weight:bold;font-size:15.2347px;line-height:0%;font-family:FreeSans;text-align:center;text-anchor:middle;fill:#5e5c64;stroke-width:1.65858;enable-background:new"
     transform="matrix(0.21737234,0,0,0.20029797,1.0559231,1.2647679)"
     id="g3">
    <path
       style="fill:#ccaaff;stroke-width:1.65858"
       d="m 16.984789,35.000939 h -4.159067 l -0.746499,2.538532 H 9.748318 l 3.945781,-11.106079 h 2.528956 l 3.839138,11.106079 h -2.34614 z m -0.772618,-2.221216 -1.299298,-3.725967 -1.299799,3.725967 z"
       id="path3" />
  </g>
  <g
     style="font-weight:bold;font-size:19.2973px;line-height:0%;font-family:FreeSans;text-align:center;text-anchor:middle;fill:#5e5c64;stroke-width:1.65858;enable-background:new"
     transform="matrix(0.18388401,0,0,0.19673896,2.0713996,1.179866)"
     id="g4">
    <path
       style="fill:#ccaaff;fill-opacity:1;stroke-width:1.65858"
       d="m 35.508896,21.400037 h 2.366284 v -1.164173 h 1.137394 v 2.261397 h -5.452646 v -1.164174 c 0.773636,-0.158694 1.358822,-0.886457 1.755559,-1.640256 0.396736,-0.753799 0.595104,-1.790273 0.595104,-3.109421 0,-1.462965 -0.24796,-2.576307 -0.74388,-3.340024 -0.495921,-0.768677 -1.219965,-1.153015 -2.172132,-1.153015 -0.952167,0 -1.676211,0.384338 -2.172131,1.153015 -0.490961,0.763717 -0.736442,1.882018 -0.736442,3.354902 0,1.294352 0.200848,2.323387 0.602543,3.087104 0.401696,0.758759 0.984403,1.489001 1.74812,1.647695 v 1.164174 h -5.460084 v -2.261397 h 1.144832 v 1.164173 h 2.358846 c -1.175331,-0.456247 -2.065509,-1.352623 -2.670532,-2.146096 -0.605023,-0.798431 -0.907534,-1.74316 -0.907534,-2.834185 0,-1.567109 0.555431,-2.829226 1.666292,-3.786352 1.115821,-0.962086 2.591185,-1.443129 4.42609,-1.443129 1.834906,0 3.310269,0.481043 4.42609,1.443129 1.115821,0.957126 1.673731,2.219243 1.673731,3.786352 0,1.091025 -0.302511,2.035754 -0.907534,2.834185 -0.605023,0.793473 -1.497679,1.689849 -2.67797,2.146096 z"
       id="path4" />
  </g>
  <path
     style="fill:#5599ff;stroke-width:0.264579"
     d="M 5.4792127,4.1723121 5.6142454,4.5817572 6.5554027,3.5528353 5.1874847,3.122022 5.267329,3.5008128 C 3.91779,4.1755356 3.7769318,4.7663622 3.5911622,5.3603075 L 4.3199479,5.4882308 C 4.4919074,4.7669257 4.9458064,4.398707 5.4792127,4.1723121 Z"
     id="path5" />
  <path
     style="fill:#5599ff;stroke-width:0.264579"
     d="M 7.1163043,7.5823507 6.9812714,7.1729062 6.040115,8.2018272 7.4080325,8.6326397 7.3281875,8.2538486 C 8.6777261,7.5791257 8.8185838,6.9882976 9.0043549,6.3943558 L 8.27557,6.2664316 C 8.10361,6.9877374 7.6497113,7.3559551 7.1163043,7.5823507 Z"
     id="path6" />
</svg>
