<?xml version="1.0" encoding="UTF-8" standalone="no"?>
<svg
   width="45.999886"
   height="45.999989"
   version="1.1"
   viewBox="0 0 12.170564 12.170591"
   id="svg12"
   sodipodi:docname="ubiquity-kde.svg"
   inkscape:version="1.3.2 (091e20ef0f, 2023-11-25)"
   xmlns:inkscape="http://www.inkscape.org/namespaces/inkscape"
   xmlns:sodipodi="http://sodipodi.sourceforge.net/DTD/sodipodi-0.dtd"
   xmlns:xlink="http://www.w3.org/1999/xlink"
   xmlns="http://www.w3.org/2000/svg"
   xmlns:svg="http://www.w3.org/2000/svg">
  <defs
     id="defs16">
    <linearGradient
       id="c"
       y1="523.79999"
       x1="403.57001"
       y2="536.79999"
       x2="416.57001"
       gradientUnits="userSpaceOnUse"
       gradientTransform="matrix(0.34526714,0,0,0.34526706,-134.80427,-174.63325)">
      <stop
         stop-color="#292c2f"
         id="stop1568" />
      <stop
         offset="1"
         stop-opacity="0"
         id="stop1570" />
    </linearGradient>
    <linearGradient
       xlink:href="#b-2"
       id="linearGradient4189"
       x1="14.369"
       y1="22.521999"
       x2="26.521999"
       y2="22.521999"
       gradientUnits="userSpaceOnUse" />
    <linearGradient
       x1="36"
       gradientUnits="userSpaceOnUse"
       x2="14"
       y2="12"
       y1="44"
       id="b-2">
      <stop
         style="stop-color:#bfc9c9;stop-opacity:1"
         stop-color="#536161"
         id="stop1579" />
      <stop
         style="stop-color:#fbfbfb;stop-opacity:1"
         stop-color="#f4f5f5"
         offset="1"
         id="stop1581" />
    </linearGradient>
    <linearGradient
       xlink:href="#b-2"
       id="linearGradient4428"
       gradientUnits="userSpaceOnUse"
       x1="31.586"
       y1="36.345001"
       x2="1.2029999"
       y2="6.723" />
    <linearGradient
       xlink:href="#b-2"
       id="linearGradient4189-3"
       x1="14.369"
       y1="22.521999"
       x2="26.521999"
       y2="22.521999"
       gradientUnits="userSpaceOnUse"
       gradientTransform="translate(20.841982,61.553822)" />
    <linearGradient
       xlink:href="#b-2"
       id="linearGradient4428-5"
       gradientUnits="userSpaceOnUse"
       x1="31.586"
       y1="36.345001"
       x2="1.2029999"
       y2="6.723"
       gradientTransform="translate(20.841982,61.553822)" />
    <linearGradient
       xlink:href="#b-2"
       id="linearGradient4189-3-3"
       x1="14.369"
       y1="22.521999"
       x2="26.521999"
       y2="22.521999"
       gradientUnits="userSpaceOnUse"
       gradientTransform="translate(4.376802,4.4211693)" />
    <linearGradient
       xlink:href="#b-2"
       id="linearGradient4428-5-5"
       gradientUnits="userSpaceOnUse"
       x1="31.586"
       y1="36.345001"
       x2="1.2029999"
       y2="6.723"
       gradientTransform="translate(4.376802,4.4211693)" />
    <linearGradient
       inkscape:collect="always"
       xlink:href="#linearGradient11"
       id="linearGradient13"
       x1="-43.819283"
       y1="23.120178"
       x2="-1.9547797"
       y2="23.120178"
       gradientUnits="userSpaceOnUse"
       gradientTransform="scale(0.26457813)" />
    <linearGradient
       id="linearGradient11"
       inkscape:collect="always">
      <stop
         style="stop-color:#37c871;stop-opacity:1"
         offset="0"
         id="stop4-3" />
      <stop
         style="stop-color:#00ccff;stop-opacity:1"
         offset="1"
         id="stop11" />
    </linearGradient>
    <linearGradient
       inkscape:collect="always"
       xlink:href="#linearGradient14"
       id="linearGradient15"
       x1="-9.6850061"
       y1="45.161198"
       x2="11.98815"
       y2="21.735205"
       gradientUnits="userSpaceOnUse"
       gradientTransform="scale(0.26457813)" />
    <linearGradient
       id="linearGradient14"
       inkscape:collect="always">
      <stop
         style="stop-color:#37c871;stop-opacity:1"
         offset="0"
         id="stop12" />
      <stop
         style="stop-color:#00ccff;stop-opacity:1"
         offset="1"
         id="stop13" />
    </linearGradient>
    <filter
       id="filter2917-3"
       x="-0.96181147"
       y="-0.66745996"
       width="2.9236229"
       height="2.3349199"
       color-interpolation-filters="sRGB">
      <feGaussianBlur
         stdDeviation="0.2871969"
         id="feGaussianBlur732-5" />
    </filter>
    <filter
       id="filter1"
       x="-0.96181148"
       y="-0.66745996"
       width="2.9236228"
       height="2.3349199"
       color-interpolation-filters="sRGB">
      <feGaussianBlur
         stdDeviation="0.2871969"
         id="feGaussianBlur1" />
    </filter>
    <filter
       id="filter2"
       x="-0.96181148"
       y="-0.66745996"
       width="2.9236228"
       height="2.3349199"
       color-interpolation-filters="sRGB">
      <feGaussianBlur
         stdDeviation="0.2871969"
         id="feGaussianBlur2" />
    </filter>
    <linearGradient
       id="c-3"
       gradientTransform="matrix(2.0428665,-6.8308524,5.7819337,2.3633129,25.219113,34.652812)"
       gradientUnits="userSpaceOnUse"
       x1="24"
       x2="24"
       y1="35"
       y2="13">
      <stop
         offset="0"
         stop-color="#23a2cd"
         id="stop253" />
      <stop
         offset=".53"
         stop-color="#00b8f5"
         id="stop255" />
      <stop
         offset="1"
         stop-color="#2ecbff"
         id="stop257" />
    </linearGradient>
    <linearGradient
       id="paint0_linear"
       x1="31.416401"
       y1="45.448299"
       x2="31.996"
       y2="2.83233"
       gradientUnits="userSpaceOnUse"
       gradientTransform="matrix(0.05929954,0,0,0.05981766,0.24861829,0.1575967)">
      <stop
         stop-color="#BAFA52"
         id="stop4" />
      <stop
         offset="1"
         stop-color="#3F8F5B"
         id="stop5" />
    </linearGradient>
    <linearGradient
       id="paint1_linear"
       x1="32.471298"
       y1="54.594398"
       x2="60.0047"
       y2="54.594398"
       gradientUnits="userSpaceOnUse"
       gradientTransform="matrix(0.01568937,0,0,0.01582646,2.9767132,11.903154)">
      <stop
         stop-color="#A93AFF"
         id="stop6" />
      <stop
         offset="1"
         stop-color="#FF81FF"
         id="stop7" />
    </linearGradient>
    <linearGradient
       id="paint3_linear"
       x1="3.9952199"
       y1="54.594398"
       x2="36.6595"
       y2="54.594398"
       gradientUnits="userSpaceOnUse"
       gradientTransform="matrix(0.22412874,0,0,0.22608696,2.439678,2.095652)">
      <stop
         stop-color="#FD3A84"
         id="stop10" />
      <stop
         offset="1"
         stop-color="#FFA68D"
         id="stop11-3" />
    </linearGradient>
  </defs>
  <sodipodi:namedview
     id="namedview14"
     pagecolor="#000000"
     bordercolor="#666666"
     borderopacity="1.0"
     inkscape:showpageshadow="2"
     inkscape:pageopacity="0.0"
     inkscape:pagecheckerboard="0"
     inkscape:deskcolor="#d1d1d1"
     showgrid="false"
     inkscape:zoom="5.2149125"
     inkscape:cx="23.20269"
     inkscape:cy="69.032798"
     inkscape:window-width="1920"
     inkscape:window-height="996"
     inkscape:window-x="0"
     inkscape:window-y="0"
     inkscape:window-maximized="1"
     inkscape:current-layer="svg12">
    <inkscape:grid
       type="xygrid"
       id="grid244"
       originx="9.7893915"
       originy="-31.749373"
       spacingy="1"
       spacingx="1"
       units="px"
       visible="false" />
  </sodipodi:namedview>
  <rect
     x="-12.025727"
     y="0.1490714"
     width="11.940627"
     height="11.936014"
     rx="1.6121091"
     stroke="url(#paint4_linear_77:23)"
     shape-rendering="crispEdges"
     id="rect5-6-7-3"
     ry="1.7735944"
     transform="matrix(0.00523883,-0.99998628,0.999988,0.00489859,0,0)"
     style="fill:#80b3ff;fill-opacity:0.15;stroke:url(#linearGradient13);stroke-width:0.188987;stroke-opacity:1" />
  <rect
     x="-3.7266586"
     y="4.6446943"
     width="7.912631"
     height="7.912384"
     rx="1.612043"
     shape-rendering="crispEdges"
     id="rect5-6-6-6-6"
     style="fill:#80b3ff;fill-opacity:0.122146;stroke:url(#linearGradient15);stroke-width:0.188987;stroke-opacity:1"
     ry="1.7735215"
     transform="matrix(0.72612649,-0.68756114,0.6879775,0.72573202,0,0)" />
  <path
     fill-rule="evenodd"
     clip-rule="evenodd"
     d="M 6.0926535,2.2489351 H 5.1925018 c -0.030347,0 -0.054949,0.02472 -0.054949,0.05521 v 0.904402 1.1e-5 0.959594 1.1e-5 0.904383 c 0,0.03054 -0.024606,0.05521 -0.05495,0.05521 H 4.3989801 c -0.049545,0 -0.073804,0.06072 -0.037984,0.09517 l 0.8163413,0.784537 0.8773333,0.843134 c 0.021254,0.02042 0.054715,0.02042 0.075968,0 l 0.8773336,-0.843158 0.816342,-0.784536 c 0.035822,-0.0344 0.011675,-0.09517 -0.037984,-0.09517 h -0.683602 c -0.03035,0 -0.05495,-0.02471 -0.05495,-0.05521 v -0.904383 -9e-6 -0.959601 -9e-6 -0.904397 c 0,-0.03054 -0.024606,-0.05521 -0.05495,-0.05521 z"
     fill="url(#paint0_linear)"
     id="path1"
     style="fill:#00d455;stroke-width:0.0595581;fill-opacity:1" />
  <path
     d="m 8.6533841,7.2735991 c -0.119119,2.85e-4 -0.235215,0.03759 -0.3323913,0.106681 -0.097164,0.06926 -0.1706475,0.166974 -0.2103537,0.279762 H 6.2041823 v 0.386519 h 1.9064568 c 0.039696,0.112822 0.1132011,0.210533 0.2103537,0.279744 0.097178,0.06925 0.2132783,0.106443 0.3323913,0.106736 0.153034,0 0.299813,-0.06108 0.408034,-0.16985 0.108209,-0.108719 0.169016,-0.256195 0.169016,-0.409958 0,-0.153736 -0.06081,-0.301221 -0.169016,-0.409955 -0.108217,-0.108669 -0.255001,-0.169838 -0.408034,-0.169838 z"
     fill="url(#paint1_linear)"
     stroke="url(#paint2_linear)"
     id="path2"
     style="fill:url(#paint1_linear);stroke:url(#paint1_linear);stroke-width:0.0595581" />
  <path
     fill-rule="evenodd"
     clip-rule="evenodd"
     d="m 3.6522779,8.4331431 c 0.251253,0 0.4650014,-0.16127 0.5442168,-0.386517 h 1.3479954 c 0.079217,0.225186 0.2929651,0.386517 0.5442173,0.386517 0.3186957,0 0.5770484,-0.259573 0.5770484,-0.579773 0,-0.320202 -0.2583527,-0.579771 -0.5770484,-0.579771 -0.2512522,0 -0.4650016,0.16127 -0.5442173,0.386515 H 4.1964947 c -0.079211,-0.22518 -0.2929638,-0.386515 -0.5442168,-0.386515 -0.3186953,0 -0.5770476,0.259569 -0.5770476,0.579771 0,0.3202 0.2583523,0.579773 0.5770476,0.579773 z"
     fill="url(#paint3_linear)"
     id="path3"
     style="fill:#5599ff;stroke-width:0.0595581;fill-opacity:1" />
  <path
     d="M 4.1964947,8.0466261 V 7.8809751 H 4.0799046 l -0.038856,0.110424 z m 1.3479954,0 0.1554595,-0.0552 -0.038856,-0.110423 H 5.5445035 Z m 0,-0.386512 v 0.16565 h 0.1165877 l 0.038856,-0.110422 z m -1.3479954,0 -0.1554579,0.0552 0.038856,0.110422 h 0.1165885 z m -0.1554579,0.331307 c -0.056658,0.161027 -0.2095621,0.276073 -0.3887659,0.276073 v 0.33129 c 0.3232905,0 0.5978881,-0.207663 0.6996571,-0.496954 z m 1.5034478,-0.110421 h -1.347991 v 0.331297 H 5.544489 Z m -0.1554574,0.220846 c 0.1017723,0.289298 0.3763677,0.496962 0.6996679,0.496962 v -0.331297 c -0.1792133,0 -0.3321046,-0.115073 -0.3887655,-0.276072 z m 0.6996679,0.496962 c 0.4097481,0 0.7419188,-0.333745 0.7419188,-0.745417 H 6.5008845 c 0,0.228714 -0.1845456,0.41412 -0.4121771,0.41412 z m 0.7419201,-0.745418 c 0,-0.411679 -0.3321709,-0.745421 -0.7419187,-0.745421 v 0.331299 c 0.227631,0 0.4121766,0.185403 0.4121766,0.414122 z M 6.0887054,7.1079591 c -0.3232997,0 -0.5978871,0.207668 -0.6996683,0.496956 l 0.3109028,0.110411 c 0.05666,-0.161025 0.2095525,-0.276064 0.3887669,-0.276064 z M 4.1964937,7.8257621 H 5.544489 V 7.4944661 H 4.1964947 Z M 3.6522779,7.4392511 c 0.1792029,0 0.3321061,0.115073 0.3887661,0.276068 L 4.3519355,7.6049081 C 4.2501669,7.3156181 3.9755687,7.1079491 3.6522779,7.1079491 Z M 3.240102,7.8533701 c 0,-0.228718 0.1845379,-0.414119 0.4121759,-0.414119 v -0.331302 c -0.4097505,0 -0.7419184,0.333744 -0.7419184,0.745421 z m 0.4121759,0.414124 c -0.2276383,0 -0.4121759,-0.185407 -0.4121759,-0.414124 H 2.9103595 c 0,0.411676 0.3321679,0.745414 0.7419184,0.745414 z"
     fill="url(#paint4_linear)"
     id="path4"
     style="fill:#5599ff;stroke-width:0.0595581;fill-opacity:1" />
  <path
     style="color:#fcfcfc;fill:#80b3ff;fill-opacity:1;stroke:none;stroke-width:0.264575"
     d="m 10.200274,8.8633715 -0.4215792,0.03941 v 1.6281565 l 0.4169442,-0.0569 V 9.7781195 l 0.555933,0.7703315 0.435479,-0.131326 -0.569829,-0.7396715 0.574461,-0.700294 -0.444742,-0.09629 -0.5513,0.700294 0.0046,-0.717796 z m -0.9497123,0.398277 c -0.00471,0 -0.010353,0.0025 -0.013912,0.0045 l -0.1621456,0.157564 c -0.00691,0.0068 -0.00971,0.01829 -0.00464,0.02627 l 0.1899435,0.297639 c -0.034099,0.05416 -0.059227,0.113467 -0.078759,0.175023 l -0.3520847,0.07007 c -0.00982,0.0025 -0.018512,0.008 -0.018512,0.01758 v 0.21885 c 0,0.0092 0.00908,0.01956 0.018515,0.0218 l 0.3428239,0.07879 c 0.01824,0.07136 0.045975,0.139184 0.083389,0.201304 l -0.1992067,0.284542 c -0.00553,0.008 -0.00266,0.01956 0.00466,0.02627 l 0.1621467,0.153158 c 0.00691,0.0063 0.01938,0.0095 0.027795,0.0045 l 0.3103898,-0.179517 c 0.061031,0.03326 0.1250074,0.06102 0.1945761,0.07876 l 0.074121,0.32827 c 0.00206,0.0095 0.00852,0.01754 0.018521,0.01754 h 0.2316353 c 0.0098,0 0.02083,-0.0085 0.02317,-0.01754 l 0.08339,-0.32827 c 0.07171,-0.01829 0.141325,-0.04834 0.203842,-0.08314 l 0.305761,0.192582 c 0.0084,0.0051 0.02063,0.0025 0.0278,-0.0045 l 0.162146,-0.153203 c 0.0069,-0.0068 0.0097,-0.01829 0.0046,-0.02624 l -0.111186,-0.175037 -0.03706,0.0131 c -0.0053,0.0025 -0.01081,0 -0.01391,-0.0045 0,0 -0.07007,-0.100281 -0.162145,-0.227618 -0.110072,0.203537 -0.334387,0.341425 -0.5929908,0.341425 -0.3674152,0 -0.6671163,-0.278753 -0.6671163,-0.625893 0,-0.2553445 0.1623422,-0.4749835 0.3937833,-0.5733575 v -0.161867 c -0.042125,0.01398 -0.081775,0.02822 -0.1204529,0.04817 -2.89e-5,0 -0.00454,0 -0.00465,0 l -0.3103586,-0.19261 c -0.00421,-0.0025 -0.00918,-0.0048 -0.013914,-0.0043 z"
     class="ColorScheme-Text"
     id="path1-3" />
</svg>
