<?xml version="1.0" encoding="UTF-8" standalone="no"?>
<svg
   width="45.999886"
   height="45.999989"
   version="1.1"
   viewBox="0 0 12.170564 12.170591"
   id="svg12"
   sodipodi:docname="usb-creator-gtk.svg"
   inkscape:version="1.3.2 (091e20ef0f, 2023-11-25)"
   xmlns:inkscape="http://www.inkscape.org/namespaces/inkscape"
   xmlns:sodipodi="http://sodipodi.sourceforge.net/DTD/sodipodi-0.dtd"
   xmlns:xlink="http://www.w3.org/1999/xlink"
   xmlns="http://www.w3.org/2000/svg"
   xmlns:svg="http://www.w3.org/2000/svg">
  <defs
     id="defs16">
    <linearGradient
       id="c"
       y1="523.79999"
       x1="403.57001"
       y2="536.79999"
       x2="416.57001"
       gradientUnits="userSpaceOnUse"
       gradientTransform="matrix(0.34526714,0,0,0.34526706,-134.80427,-174.63325)">
      <stop
         stop-color="#292c2f"
         id="stop1568" />
      <stop
         offset="1"
         stop-opacity="0"
         id="stop1570" />
    </linearGradient>
    <linearGradient
       xlink:href="#b-2"
       id="linearGradient4189"
       x1="14.369"
       y1="22.521999"
       x2="26.521999"
       y2="22.521999"
       gradientUnits="userSpaceOnUse" />
    <linearGradient
       x1="36"
       gradientUnits="userSpaceOnUse"
       x2="14"
       y2="12"
       y1="44"
       id="b-2">
      <stop
         style="stop-color:#bfc9c9;stop-opacity:1"
         stop-color="#536161"
         id="stop1579" />
      <stop
         style="stop-color:#fbfbfb;stop-opacity:1"
         stop-color="#f4f5f5"
         offset="1"
         id="stop1581" />
    </linearGradient>
    <linearGradient
       xlink:href="#b-2"
       id="linearGradient4428"
       gradientUnits="userSpaceOnUse"
       x1="31.586"
       y1="36.345001"
       x2="1.2029999"
       y2="6.723" />
    <linearGradient
       xlink:href="#b-2"
       id="linearGradient4189-3"
       x1="14.369"
       y1="22.521999"
       x2="26.521999"
       y2="22.521999"
       gradientUnits="userSpaceOnUse"
       gradientTransform="translate(20.841982,61.553822)" />
    <linearGradient
       xlink:href="#b-2"
       id="linearGradient4428-5"
       gradientUnits="userSpaceOnUse"
       x1="31.586"
       y1="36.345001"
       x2="1.2029999"
       y2="6.723"
       gradientTransform="translate(20.841982,61.553822)" />
    <linearGradient
       xlink:href="#b-2"
       id="linearGradient4189-3-3"
       x1="14.369"
       y1="22.521999"
       x2="26.521999"
       y2="22.521999"
       gradientUnits="userSpaceOnUse"
       gradientTransform="translate(4.376802,4.4211693)" />
    <linearGradient
       xlink:href="#b-2"
       id="linearGradient4428-5-5"
       gradientUnits="userSpaceOnUse"
       x1="31.586"
       y1="36.345001"
       x2="1.2029999"
       y2="6.723"
       gradientTransform="translate(4.376802,4.4211693)" />
    <linearGradient
       inkscape:collect="always"
       xlink:href="#linearGradient11"
       id="linearGradient13"
       x1="-43.819283"
       y1="23.120178"
       x2="-1.9547797"
       y2="23.120178"
       gradientUnits="userSpaceOnUse"
       gradientTransform="scale(0.26457813)" />
    <linearGradient
       id="linearGradient11"
       inkscape:collect="always">
      <stop
         style="stop-color:#9955ff;stop-opacity:0.65640396;"
         offset="0"
         id="stop4-3" />
      <stop
         style="stop-color:#00ccff;stop-opacity:1"
         offset="1"
         id="stop11" />
    </linearGradient>
    <linearGradient
       inkscape:collect="always"
       xlink:href="#linearGradient14"
       id="linearGradient15"
       x1="-9.6850061"
       y1="45.161198"
       x2="11.98815"
       y2="21.735205"
       gradientUnits="userSpaceOnUse"
       gradientTransform="scale(0.26457813)" />
    <linearGradient
       id="linearGradient14"
       inkscape:collect="always">
      <stop
         style="stop-color:#9955ff;stop-opacity:0.45197046;"
         offset="0"
         id="stop12" />
      <stop
         style="stop-color:#00ccff;stop-opacity:1"
         offset="1"
         id="stop13" />
    </linearGradient>
    <filter
       id="filter2917-3"
       x="-0.96181147"
       y="-0.66745996"
       width="2.9236229"
       height="2.3349199"
       color-interpolation-filters="sRGB">
      <feGaussianBlur
         stdDeviation="0.2871969"
         id="feGaussianBlur732-5" />
    </filter>
    <filter
       id="filter1"
       x="-0.96181148"
       y="-0.66745996"
       width="2.9236228"
       height="2.3349199"
       color-interpolation-filters="sRGB">
      <feGaussianBlur
         stdDeviation="0.2871969"
         id="feGaussianBlur1" />
    </filter>
    <filter
       id="filter2"
       x="-0.96181148"
       y="-0.66745996"
       width="2.9236228"
       height="2.3349199"
       color-interpolation-filters="sRGB">
      <feGaussianBlur
         stdDeviation="0.2871969"
         id="feGaussianBlur2" />
    </filter>
    <linearGradient
       inkscape:collect="always"
       xlink:href="#linearGradient199209"
       id="linearGradient1208"
       gradientUnits="userSpaceOnUse"
       gradientTransform="matrix(0.33343983,-0.08934598,0.08934598,0.33343983,16.638119,0.25468015)"
       x1="-28.818001"
       y1="5.0549002"
       x2="-28.818001"
       y2="13.503" />
    <linearGradient
       id="linearGradient199209"
       x1="-28.818001"
       x2="-28.818001"
       y1="5.0549002"
       y2="13.503"
       gradientTransform="matrix(1.2602698,-0.33769223,0.33769223,1.2602698,141.19054,32.488018)"
       gradientUnits="userSpaceOnUse">
      <stop
         stop-color="#0079c7"
         offset="0"
         id="stop328" />
      <stop
         stop-color="#27acfe"
         offset="1"
         id="stop330" />
    </linearGradient>
  </defs>
  <sodipodi:namedview
     id="namedview14"
     pagecolor="#000000"
     bordercolor="#666666"
     borderopacity="1.0"
     inkscape:showpageshadow="2"
     inkscape:pageopacity="0.0"
     inkscape:pagecheckerboard="0"
     inkscape:deskcolor="#d1d1d1"
     showgrid="false"
     inkscape:zoom="5.2149125"
     inkscape:cx="23.20269"
     inkscape:cy="69.032798"
     inkscape:window-width="1920"
     inkscape:window-height="996"
     inkscape:window-x="0"
     inkscape:window-y="0"
     inkscape:window-maximized="1"
     inkscape:current-layer="svg12">
    <inkscape:grid
       type="xygrid"
       id="grid244"
       originx="9.7893915"
       originy="-31.749373"
       spacingy="1"
       spacingx="1"
       units="px"
       visible="false" />
  </sodipodi:namedview>
  <rect
     x="-12.025727"
     y="0.1490714"
     width="11.940627"
     height="11.936014"
     rx="1.6121091"
     stroke="url(#paint4_linear_77:23)"
     shape-rendering="crispEdges"
     id="rect5-6-7-3"
     ry="1.7735944"
     transform="matrix(0.00523883,-0.99998628,0.999988,0.00489859,0,0)"
     style="fill:#80b3ff;fill-opacity:0.15;stroke:url(#linearGradient13);stroke-width:0.188987;stroke-opacity:1" />
  <rect
     x="-3.7266586"
     y="4.6446943"
     width="7.912631"
     height="7.912384"
     rx="1.612043"
     shape-rendering="crispEdges"
     id="rect5-6-6-6-6"
     style="fill:#80b3ff;fill-opacity:0.122146;stroke:url(#linearGradient15);stroke-width:0.188987;stroke-opacity:1"
     ry="1.7735215"
     transform="matrix(0.72612649,-0.68756114,0.6879775,0.72573202,0,0)" />
  <path
     fill="#b7b7b7"
     d="m 4.7315726,2.7347908 c -0.248542,0 -0.448633,0.2000903 -0.448633,0.4486328 v 1.9440737 h 3.58906 V 3.1834236 c 0,-0.2485425 -0.20009,-0.4486328 -0.448632,-0.4486328 z"
     id="path1"
     style="stroke-width:0.264578;fill:#aaccff;fill-opacity:1" />
  <path
     fill="#4d4d4d"
     d="m 3.6847636,5.1274973 c -0.248543,0 -0.448633,0.2000904 -0.448633,0.4486328 v 1.1963533 c 0,1.5741017 1.267237,2.8413389 2.841339,2.8413389 1.574102,0 2.841339,-1.2672372 2.841339,-2.8413389 V 5.5761301 c 0,-0.2485424 -0.20009,-0.4486328 -0.448632,-0.4486328 z"
     id="path2"
     style="stroke-width:0.264578;fill:#5599ff" />
  <path
     d="m 4.7315726,3.3329677 h 1.046809 V 3.7816 h -1.046809 z m 1.644986,0 h 1.046809 V 3.7816 h -1.046809 z"
     opacity="0.35"
     id="path4"
     style="stroke-width:0.264578" />
  <path
     fill="#ffbb55"
     d="m 5.0306606,3.3329677 h 0.448632 V 3.7816 h -0.448632 z m 1.644986,0 h 0.448633 V 3.7816 h -0.448633 z"
     id="path5"
     style="stroke-width:0.264578" />
  <circle
     cx="10.013678"
     cy="9.9509277"
     r="1.3228906"
     fill="#4bd296"
     id="circle5"
     style="stroke-width:0.264579;fill:#5599ff" />
  <path
     fill="#ffffff"
     d="m 9.352243,10.045427 0.661439,0.755937 0.661451,-0.755937 h -0.37797 V 9.100504 H 9.73021 v 0.944923 z"
     id="path6"
     style="stroke-width:0.264579" />
  <path
     d="m 6.7127665,6.3495339 c -0.02976,-0.111063 -0.1436765,-0.176833 -0.254122,-0.14724 -0.1104428,0.02959 -0.1762143,0.143513 -0.1466212,0.253951 0.02024,0.07549 0.079757,0.130436 0.1507195,0.148199 0.01061,0.0072 0.021246,0.0244 0.023759,0.03376 l 7.938e-4,0.0025 c 0.024447,0.111158 0.029619,0.205389 0.025426,0.272059 -0.00577,0.08581 -0.1721371,0.310949 -0.2507803,0.349411 -0.034184,0.01719 -0.050291,0.0095 -0.066346,-0.05044 L 5.9607931,6.3357389 c -0.00265,-0.0094 -0.0046,-0.02217 0.00349,-0.03438 0.043962,-0.05056 0.063141,-0.121245 0.044415,-0.191125 -0.029757,-0.111064 -0.1436765,-0.176834 -0.2541194,-0.147242 -0.1104428,0.02959 -0.1762143,0.143513 -0.1464545,0.254577 0.018891,0.0705 0.071801,0.123203 0.1362339,0.144058 l 7.937e-4,5.29e-4 c 7.938e-4,5.29e-4 0.00132,3.44e-4 0.00283,6.08e-4 0.00132,3.44e-4 0.00283,6.09e-4 0.00439,0.0015 0.016854,0.0055 0.025611,0.0132 0.027611,0.02069 l 0.3281986,1.224848 c 0.011721,0.04368 0.013705,0.07858 -0.032681,0.08767 -0.046388,0.0091 -0.2994786,-0.07691 -0.394441,-0.189226 -0.043962,-0.05175 -0.073857,-0.10594 -0.08924,-0.163341 l -0.00106,-0.0031 c -0.00519,-0.01934 -0.018891,-0.07051 -0.00278,-0.0902 0.038806,-0.04985 0.054453,-0.116237 0.036895,-0.181757 -0.02976,-0.111064 -0.1436765,-0.176835 -0.2541193,-0.147242 -0.1104455,0.02959 -0.1784236,0.142769 -0.1486612,0.253832 0.019896,0.07425 0.077836,0.128277 0.1463038,0.146711 0.017489,0.0053 0.023574,0.01307 0.04143,0.05978 0.017859,0.04671 0.059848,0.148475 0.1234865,0.233741 0.076643,0.103853 0.1849084,0.168466 0.3232748,0.215653 0.1004048,0.03529 0.1856148,0.06128 0.2444252,0.111058 0.05881,0.04978 0.086213,0.06718 0.1087787,0.151414 0.021378,0.07986 -0.00159,0.09404 -0.028268,0.126613 -0.073431,0.07786 -0.1061647,0.190289 -0.07641,0.301346 l 0.00185,0.0069 c 0.045978,0.171586 0.2224017,0.273436 0.3939832,0.227462 0.171579,-0.04597 0.2734363,-0.222395 0.2274605,-0.393982 -0.022225,-0.08298 -0.074907,-0.149787 -0.1428193,-0.191107 -0.023442,-0.01513 -0.047468,-0.0274 -0.07377,-0.03574 -0.05549,-0.0199 -0.083493,-0.05453 -0.094526,-0.09572 l -0.040303,-0.150454 c -0.041965,-0.156612 -0.043131,-0.263291 -0.019843,-0.351123 0.024315,-0.09144 0.076397,-0.171611 0.1636971,-0.272573 0.09624,-0.110049 0.1564371,-0.219806 0.1715181,-0.348226 0.011483,-0.09937 -0.00442,-0.206127 -0.03144,-0.331971 -0.00238,-0.0114 -0.00106,-0.03853 0.00921,-0.04794 0.042092,-0.05006 0.060813,-0.119945 0.042422,-0.188587 z"
     fill="#0892e7"
     stroke="url(#linearGradient199209)"
     stroke-width="0.00580315"
     id="path398-5"
     style="fill:#ffffff;fill-opacity:1;stroke:url(#linearGradient1208)" />
</svg>
