<?xml version="1.0" encoding="UTF-8" standalone="no"?>
<svg
   width="45.999886"
   height="45.999989"
   version="1.1"
   viewBox="0 0 12.170564 12.170591"
   id="svg12"
   sodipodi:docname="wayland.svg"
   inkscape:version="1.3.2 (091e20ef0f, 2023-11-25)"
   xmlns:inkscape="http://www.inkscape.org/namespaces/inkscape"
   xmlns:sodipodi="http://sodipodi.sourceforge.net/DTD/sodipodi-0.dtd"
   xmlns:xlink="http://www.w3.org/1999/xlink"
   xmlns="http://www.w3.org/2000/svg"
   xmlns:svg="http://www.w3.org/2000/svg">
  <defs
     id="defs16">
    <linearGradient
       id="linearGradient7"
       inkscape:collect="always">
      <stop
         style="stop-color:#ff9955;stop-opacity:0.46059114;"
         offset="0"
         id="stop6" />
      <stop
         style="stop-color:#ffb583;stop-opacity:0.83137256;"
         offset="1"
         id="stop7" />
    </linearGradient>
    <linearGradient
       id="c"
       y1="523.79999"
       x1="403.57001"
       y2="536.79999"
       x2="416.57001"
       gradientUnits="userSpaceOnUse"
       gradientTransform="matrix(0.34526714,0,0,0.34526706,-134.80427,-174.63325)">
      <stop
         stop-color="#292c2f"
         id="stop1568" />
      <stop
         offset="1"
         stop-opacity="0"
         id="stop1570" />
    </linearGradient>
    <linearGradient
       xlink:href="#b-2"
       id="linearGradient4189"
       x1="14.369"
       y1="22.521999"
       x2="26.521999"
       y2="22.521999"
       gradientUnits="userSpaceOnUse" />
    <linearGradient
       x1="36"
       gradientUnits="userSpaceOnUse"
       x2="14"
       y2="12"
       y1="44"
       id="b-2">
      <stop
         style="stop-color:#bfc9c9;stop-opacity:1"
         stop-color="#536161"
         id="stop1579" />
      <stop
         style="stop-color:#fbfbfb;stop-opacity:1"
         stop-color="#f4f5f5"
         offset="1"
         id="stop1581" />
    </linearGradient>
    <linearGradient
       xlink:href="#b-2"
       id="linearGradient4428"
       gradientUnits="userSpaceOnUse"
       x1="31.586"
       y1="36.345001"
       x2="1.2029999"
       y2="6.723" />
    <linearGradient
       xlink:href="#b-2"
       id="linearGradient4189-3"
       x1="14.369"
       y1="22.521999"
       x2="26.521999"
       y2="22.521999"
       gradientUnits="userSpaceOnUse"
       gradientTransform="translate(20.841982,61.553822)" />
    <linearGradient
       xlink:href="#b-2"
       id="linearGradient4428-5"
       gradientUnits="userSpaceOnUse"
       x1="31.586"
       y1="36.345001"
       x2="1.2029999"
       y2="6.723"
       gradientTransform="translate(20.841982,61.553822)" />
    <linearGradient
       xlink:href="#b-2"
       id="linearGradient4189-3-3"
       x1="14.369"
       y1="22.521999"
       x2="26.521999"
       y2="22.521999"
       gradientUnits="userSpaceOnUse"
       gradientTransform="translate(4.376802,4.4211693)" />
    <linearGradient
       xlink:href="#b-2"
       id="linearGradient4428-5-5"
       gradientUnits="userSpaceOnUse"
       x1="31.586"
       y1="36.345001"
       x2="1.2029999"
       y2="6.723"
       gradientTransform="translate(4.376802,4.4211693)" />
    <linearGradient
       inkscape:collect="always"
       xlink:href="#linearGradient14"
       id="linearGradient15"
       x1="-9.6850061"
       y1="45.161198"
       x2="11.98815"
       y2="21.735205"
       gradientUnits="userSpaceOnUse"
       gradientTransform="scale(0.26457813)" />
    <linearGradient
       id="linearGradient14"
       inkscape:collect="always">
      <stop
         style="stop-color:#ff9900;stop-opacity:0.34509805;"
         offset="0"
         id="stop12" />
      <stop
         style="stop-color:#ffb685;stop-opacity:0.81568629;"
         offset="1"
         id="stop13" />
    </linearGradient>
    <filter
       id="filter2917-3"
       x="-0.96181147"
       y="-0.66745996"
       width="2.9236229"
       height="2.3349199"
       color-interpolation-filters="sRGB">
      <feGaussianBlur
         stdDeviation="0.2871969"
         id="feGaussianBlur732-5" />
    </filter>
    <filter
       id="filter1"
       x="-0.96181148"
       y="-0.66745996"
       width="2.9236228"
       height="2.3349199"
       color-interpolation-filters="sRGB">
      <feGaussianBlur
         stdDeviation="0.2871969"
         id="feGaussianBlur1" />
    </filter>
    <filter
       id="filter2"
       x="-0.96181148"
       y="-0.66745996"
       width="2.9236228"
       height="2.3349199"
       color-interpolation-filters="sRGB">
      <feGaussianBlur
         stdDeviation="0.2871969"
         id="feGaussianBlur2" />
    </filter>
    <linearGradient
       id="_lgradient_20"
       x1="-0.29991642"
       y1="-0.26140401"
       x2="0.96725708"
       y2="0.86616999"
       gradientTransform="matrix(15.137397,0,0,16.82717,0.89780187,0.05291536)"
       gradientUnits="userSpaceOnUse">
      <stop
         offset="34.94098066785295%"
         stop-opacity="1"
         style="stop-color:rgb(178,229,107)"
         id="stop1" />
      <stop
         offset="53.84922244785295%"
         stop-opacity="1"
         style="stop-color:rgb(194,233,100)"
         id="stop2" />
      <stop
         offset="90.40515655585295%"
         stop-opacity="1"
         style="stop-color:rgb(236,244,81)"
         id="stop3" />
      <stop
         offset="100%"
         stop-opacity="1"
         style="stop-color:rgb(250,247,75)"
         id="stop4" />
    </linearGradient>
    <linearGradient
       inkscape:collect="always"
       xlink:href="#linearGradient7"
       id="linearGradient6"
       x1="-12.120221"
       y1="6.1170783"
       x2="0.0093933269"
       y2="6.1170783"
       gradientUnits="userSpaceOnUse" />
    <linearGradient
       id="b-2-5"
       y1="35.825909"
       y2="-4.1468086"
       gradientUnits="userSpaceOnUse"
       x2="1.525889"
       gradientTransform="matrix(0.18808708,0,0,0.18779368,2.9505234,2.8105876)"
       x1="0.19073613">
      <stop
         stop-color="#d35400"
         id="stop7-9-6"
         offset="0"
         style="stop-color:#ff9e5e;stop-opacity:1;" />
      <stop
         offset="1"
         stop-color="#f67400"
         stop-opacity=".941"
         id="stop9-1-2" />
    </linearGradient>
    <linearGradient
       id="linearGradient4308">
      <stop
         style="stop-color:#884d2c;stop-opacity:1"
         offset="0"
         id="stop363" />
      <stop
         style="stop-color:#ffc169;stop-opacity:1"
         offset="1"
         id="stop365" />
    </linearGradient>
    <linearGradient
       id="linearGradient4513">
      <stop
         style="stop-color:#000000;stop-opacity:1;"
         offset="0"
         id="stop353" />
      <stop
         style="stop-color:#000000;stop-opacity:0;"
         offset="1"
         id="stop355" />
    </linearGradient>
    <linearGradient
       id="linearGradient4325">
      <stop
         offset="0"
         style="stop-color:#2a2c2f;stop-opacity:1"
         id="stop358" />
      <stop
         offset="1"
         style="stop-color:#424649;stop-opacity:1"
         id="stop360" />
    </linearGradient>
  </defs>
  <sodipodi:namedview
     id="namedview14"
     pagecolor="#000000"
     bordercolor="#666666"
     borderopacity="1.0"
     inkscape:showpageshadow="2"
     inkscape:pageopacity="0.0"
     inkscape:pagecheckerboard="0"
     inkscape:deskcolor="#d1d1d1"
     showgrid="false"
     inkscape:zoom="7.375"
     inkscape:cx="13.288136"
     inkscape:cy="48.271186"
     inkscape:window-width="1920"
     inkscape:window-height="996"
     inkscape:window-x="0"
     inkscape:window-y="0"
     inkscape:window-maximized="1"
     inkscape:current-layer="svg12">
    <inkscape:grid
       type="xygrid"
       id="grid244"
       originx="9.7893915"
       originy="-31.749373"
       spacingy="1"
       spacingx="1"
       units="px"
       visible="false" />
  </sodipodi:namedview>
  <rect
     x="-12.025727"
     y="0.1490714"
     width="11.940627"
     height="11.936014"
     rx="1.6121091"
     stroke="url(#paint4_linear_77:23)"
     shape-rendering="crispEdges"
     id="rect5-6-7-3"
     ry="1.7735944"
     transform="matrix(0.00523883,-0.99998628,0.999988,0.00489859,0,0)"
     style="fill:#ffe0cc;fill-opacity:0.09803922;stroke:url(#linearGradient6);stroke-width:0.188987;stroke-opacity:1" />
  <rect
     x="-3.7266586"
     y="4.6446943"
     width="7.912631"
     height="7.912384"
     rx="1.612043"
     shape-rendering="crispEdges"
     id="rect5-6-6-6-6"
     style="fill:#ffc299;fill-opacity:0.10196079;stroke:url(#linearGradient15);stroke-width:0.188987;stroke-opacity:1"
     ry="1.7735215"
     transform="matrix(0.72612649,-0.68756114,0.6879775,0.72573202,0,0)" />
  <path
     style="font-style:normal;font-variant:normal;font-weight:bold;font-stretch:normal;font-size:medium;line-height:125%;letter-spacing:0px;word-spacing:0px;fill:#ffccaa;fill-opacity:1;stroke:none;stroke-width:0.277773"
     d="m 8.6037356,3.4395157 c 0.1307716,9e-6 0.2038507,0.09861 0.2192432,0.295815 l -0.1096243,0.928716 h 0.04039 l 0.086543,-0.06877 h 0.02308 v 0.02062 c -0.1192425,0.08713 -0.2346355,0.325624 -0.3461753,0.715451 -0.042319,0.334803 -0.113474,0.644372 -0.2134784,0.928716 -0.088473,0.29352 -0.1327048,0.564113 -0.132699,0.811768 L 8.003693,7.5602697 c -3.9e-6,0.04128 0.063464,0.08256 0.1903989,0.12383 -0.023085,0.09631 -0.057703,0.144469 -0.1038538,0.144469 v 0.02755 h 0.040389 v 0.02062 c -3.9e-6,0.05047 -0.0654,0.07562 -0.1961656,0.07562 l 0.023075,0.02756 v 0.09631 h -0.040388 c 0.026919,0.09631 0.084614,0.144475 0.1730881,0.144472 v 0.0482 h -0.173087 v 0.02753 c 0.057692,0 0.086538,0.04129 0.086542,0.123831 l -0.242321,0.09631 0.023077,0.02757 v 0.02062 c -5.6e-6,0.03211 -0.028853,0.04821 -0.086544,0.04821 v 0.02754 c 0.07308,0 0.1096164,0.01605 0.1096228,0.04821 -0.1038564,0.04127 -0.2404026,0.245347 -0.4096442,0.612245 -0.1730895,0.325607 -0.3230993,0.488415 -0.4500293,0.488415 H 6.9016986 C 6.8055325,9.7157917 6.726683,9.4727197 6.6651449,9.0599577 6.4189677,8.4316477 6.295884,8.0624477 6.2958856,7.9523787 6.295884,7.6680337 6.2170315,7.3653417 6.0593332,7.0443037 6.017021,6.9021377 5.9881734,6.7232687 5.9727896,6.5077077 L 5.868936,6.4801677 c -0.2615596,0.47239 -0.3981093,0.841577 -0.4096422,1.107583 -0.073086,0.155932 -0.1307798,0.343968 -0.17309,0.564107 0.1577014,0.05048 0.2365529,0.0986 0.236555,0.144462 v 0.02758 C 5.3996726,8.3055487 5.3131234,8.2711377 5.2631262,8.2206867 5.2092751,8.3445147 5.138115,8.6884807 5.0496514,9.2525897 4.9804138,9.5140087 4.8938691,9.6447167 4.7900189,9.6447167 4.4976907,9.5300577 4.2534407,9.3420217 4.0572753,9.0806077 c -0.030772,0 -0.080776,-0.130714 -0.1500098,-0.392128 -0.042312,0 -0.07116,-0.130708 -0.086545,-0.392123 C 3.6745593,7.9248577 3.5745528,7.5006317 3.5207037,7.0236587 v -0.715449 h -0.023077 l -0.1038563,0.02755 v -0.02755 c 0,-0.03211 0.034619,-0.04822 0.1038563,-0.04822 l -0.02308,-0.412739 v -0.323324 l -0.16732,-1.031909 v -0.440278 c 0.073082,-0.275173 0.2000132,-0.412762 0.380796,-0.412767 0,0 0.016073,-0.0014 0.069239,0.06877 l -0.069232,-0.02063 c 0.2807855,0.366913 0.4461799,0.676485 0.4961851,0.928723 h 0.1961696 v 0.04822 H 4.2303733 v 0.05498 c 0.057698,0.210973 0.1000064,0.316455 0.1269303,0.31645 h 0.046157 l 0.1038547,-0.02756 0.023077,0.02756 0.023079,-0.02756 0.023078,0.02756 v 0.02062 c -0.076928,0.054984 -0.1288553,0.130704 -0.155781,0.227021 h -0.017305 v 0.04821 h 0.04039 c 0.053851,0.7659 0.1538542,1.346059 0.3000184,1.740481 l 0.086547,0.06877 h 0.046156 c 0.057697,1e-6 0.1788599,-0.268292 0.3634882,-0.804886 0.119239,-0.243065 0.2057798,-0.456329 0.2596329,-0.639776 l -0.023083,-0.07563 c 0.119238,-0.178836 0.2423244,-0.26827 0.3692561,-0.268277 h 0.040389 c 0.080772,7e-6 0.1384689,0.05048 0.1730894,0.151345 0.1076982,0.151356 0.1942409,0.378375 0.2596309,0.681066 l 0.3231012,0.715449 c 0.042309,0.05048 0.063463,0.107781 0.063468,0.171987 0.1192368,0.270592 0.2269366,0.449454 0.3230997,0.536593 h 0.069234 c 0.080772,0 0.188474,-0.334796 0.3231034,-1.004394 0.023073,4e-6 0.086535,-0.178857 0.1903949,-0.536587 v -0.02755 L 7.247894,5.9917077 7.16135,6.0192377 H 7.0517211 v -0.05499 l 0.2192434,-0.02063 h 0.4269524 c 0.1653903,-0.591639 0.317323,-1.050262 0.4557999,-1.375891 0.046154,-0.669582 0.1096166,-1.004377 0.1903991,-1.004385 l 0.2596317,-0.123813 m -2.1982253,0.59164 h 0.063469 v 0.02062 c -4.2e-6,0.03213 -0.021158,0.04821 -0.063469,0.04821 l -0.023076,0.02756 v 0.02758 l -0.063472,-0.02758 v -0.04821 l 0.086544,-0.04822 m -0.3230968,0.268298 v 0.02756 c -1.6e-6,0.0367 -0.092313,0.07565 -0.2769415,0.116955 v -0.04822 l 0.1269334,-0.06878 0.023075,0.02062 h 0.017307 l 0.109621,-0.0482 m -0.6231158,0.247668 v 0.02062 c -0.080779,0.07339 -0.2115563,0.139888 -0.3923367,0.199507 v -0.04821 c 0.030772,5e-6 0.046155,-0.0252 0.046155,-0.07564 l 0.3461822,-0.0963 m 1.0962226,0.240779 0.023078,0.02756 v 0.02062 l -0.040389,0.05497 h -0.023076 l -0.046157,-0.05498 v -0.02062 l 0.086543,-0.02755 m 0.796209,0.02756 h 0.023078 v 0.02062 l -0.04039,0.05497 h -0.023079 v -0.02755 l 0.04039,-0.04822 m -0.3634865,0.34397 0.086546,0.06877 c -0.015382,0.05048 -0.057705,0.07564 -0.1269338,0.07564 l -0.046156,-0.07562 c -4.3e-6,-0.02287 0.028844,-0.04587 0.086541,-0.06877 m 0.519265,0.316444 0.017305,0.02759 v 0.02063 l -0.017305,0.02754 h -0.046152 v -0.02754 l 0.046154,-0.04821 m -0.8192823,0.247725 v 0.02063 l -0.1096206,0.103231 h -0.063468 v -0.02759 c -3.7e-6,-0.04128 0.05769,-0.07336 0.1730878,-0.09631 m -0.7558164,2.10511 h 0.023075 v 0.04822 l -0.1730915,0.103162 -0.023077,-0.027548 v -0.04821 l 0.1730898,-0.07563 m -0.063472,0.639777 h 0.017307 l 0.069239,0.07565 -0.023077,0.02062 h -0.023079 l -0.040391,-0.06877 v -0.02754"
     id="path26-0" />
</svg>
