<?xml version="1.0" encoding="UTF-8" standalone="no"?>
<svg
   width="45.999886"
   height="45.999989"
   version="1.1"
   viewBox="0 0 12.170564 12.170591"
   id="svg12"
   sodipodi:docname="discord.svg"
   inkscape:version="1.3.2 (091e20ef0f, 2023-11-25)"
   xmlns:inkscape="http://www.inkscape.org/namespaces/inkscape"
   xmlns:sodipodi="http://sodipodi.sourceforge.net/DTD/sodipodi-0.dtd"
   xmlns:xlink="http://www.w3.org/1999/xlink"
   xmlns="http://www.w3.org/2000/svg"
   xmlns:svg="http://www.w3.org/2000/svg">
  <defs
     id="defs16">
    <linearGradient
       id="c"
       y1="523.79999"
       x1="403.57001"
       y2="536.79999"
       x2="416.57001"
       gradientUnits="userSpaceOnUse"
       gradientTransform="matrix(0.34526714,0,0,0.34526706,-134.80427,-174.63325)">
      <stop
         stop-color="#292c2f"
         id="stop1568" />
      <stop
         offset="1"
         stop-opacity="0"
         id="stop1570" />
    </linearGradient>
    <linearGradient
       xlink:href="#b-2"
       id="linearGradient4189"
       x1="14.369"
       y1="22.521999"
       x2="26.521999"
       y2="22.521999"
       gradientUnits="userSpaceOnUse" />
    <linearGradient
       x1="36"
       gradientUnits="userSpaceOnUse"
       x2="14"
       y2="12"
       y1="44"
       id="b-2">
      <stop
         style="stop-color:#bfc9c9;stop-opacity:1"
         stop-color="#536161"
         id="stop1579" />
      <stop
         style="stop-color:#fbfbfb;stop-opacity:1"
         stop-color="#f4f5f5"
         offset="1"
         id="stop1581" />
    </linearGradient>
    <linearGradient
       xlink:href="#b-2"
       id="linearGradient4428"
       gradientUnits="userSpaceOnUse"
       x1="31.586"
       y1="36.345001"
       x2="1.2029999"
       y2="6.723" />
    <linearGradient
       xlink:href="#b-2"
       id="linearGradient4189-3"
       x1="14.369"
       y1="22.521999"
       x2="26.521999"
       y2="22.521999"
       gradientUnits="userSpaceOnUse"
       gradientTransform="translate(20.841982,61.553822)" />
    <linearGradient
       xlink:href="#b-2"
       id="linearGradient4428-5"
       gradientUnits="userSpaceOnUse"
       x1="31.586"
       y1="36.345001"
       x2="1.2029999"
       y2="6.723"
       gradientTransform="translate(20.841982,61.553822)" />
    <linearGradient
       xlink:href="#b-2"
       id="linearGradient4189-3-3"
       x1="14.369"
       y1="22.521999"
       x2="26.521999"
       y2="22.521999"
       gradientUnits="userSpaceOnUse"
       gradientTransform="translate(4.376802,4.4211693)" />
    <linearGradient
       xlink:href="#b-2"
       id="linearGradient4428-5-5"
       gradientUnits="userSpaceOnUse"
       x1="31.586"
       y1="36.345001"
       x2="1.2029999"
       y2="6.723"
       gradientTransform="translate(4.376802,4.4211693)" />
    <linearGradient
       inkscape:collect="always"
       xlink:href="#linearGradient11"
       id="linearGradient13"
       x1="-43.819283"
       y1="23.120178"
       x2="-1.9547797"
       y2="23.120178"
       gradientUnits="userSpaceOnUse"
       gradientTransform="scale(0.26457813)" />
    <linearGradient
       id="linearGradient11"
       inkscape:collect="always">
      <stop
         style="stop-color:#5599ff;stop-opacity:1"
         offset="0"
         id="stop4-3" />
      <stop
         style="stop-color:#00ccff;stop-opacity:1"
         offset="1"
         id="stop11" />
    </linearGradient>
    <linearGradient
       inkscape:collect="always"
       xlink:href="#linearGradient14"
       id="linearGradient15"
       x1="-9.6850061"
       y1="45.161198"
       x2="11.98815"
       y2="21.735205"
       gradientUnits="userSpaceOnUse"
       gradientTransform="scale(0.26457813)" />
    <linearGradient
       id="linearGradient14"
       inkscape:collect="always">
      <stop
         style="stop-color:#80b3ff;stop-opacity:1"
         offset="0"
         id="stop12" />
      <stop
         style="stop-color:#00ccff;stop-opacity:1"
         offset="1"
         id="stop13" />
    </linearGradient>
    <filter
       id="filter2917-3"
       x="-0.96181147"
       y="-0.66745996"
       width="2.9236229"
       height="2.3349199"
       color-interpolation-filters="sRGB">
      <feGaussianBlur
         stdDeviation="0.2871969"
         id="feGaussianBlur732-5" />
    </filter>
    <filter
       id="filter1"
       x="-0.96181148"
       y="-0.66745996"
       width="2.9236228"
       height="2.3349199"
       color-interpolation-filters="sRGB">
      <feGaussianBlur
         stdDeviation="0.2871969"
         id="feGaussianBlur1" />
    </filter>
    <filter
       id="filter2"
       x="-0.96181148"
       y="-0.66745996"
       width="2.9236228"
       height="2.3349199"
       color-interpolation-filters="sRGB">
      <feGaussianBlur
         stdDeviation="0.2871969"
         id="feGaussianBlur2" />
    </filter>
    <linearGradient
       id="l"
       x1="27.447001"
       x2="25.966"
       y1="289.76001"
       y2="289.76001"
       gradientTransform="matrix(0.94283,0,0,0.9628,-16.618,11.67)"
       gradientUnits="userSpaceOnUse">
      <stop
         stop-color="#1881ce"
         offset="0"
         id="stop19" />
      <stop
         stop-color="#2980b9"
         offset="1"
         id="stop21" />
    </linearGradient>
    <linearGradient
       id="j"
       x1="10.692"
       x2="34.026001"
       y1="14.134"
       y2="29.068001"
       gradientTransform="matrix(0.24946,0,0,0.25474,0.77251,285.56)"
       gradientUnits="userSpaceOnUse">
      <stop
         stop-color="#349cd2"
         offset="0"
         id="stop7" />
      <stop
         stop-color="#2694d9"
         offset=".74017"
         id="stop9" />
      <stop
         stop-color="#0e6daa"
         offset="1"
         id="stop11-3" />
    </linearGradient>
    <linearGradient
       id="k"
       x1="21.274"
       x2="27.447001"
       y1="291.29999"
       y2="287.35001"
       gradientTransform="matrix(0.94283,0,0,0.9628,-16.618,11.67)"
       gradientUnits="userSpaceOnUse">
      <stop
         stop-color="#1d99f3"
         offset="0"
         id="stop14" />
      <stop
         stop-color="#3daee9"
         offset="1"
         id="stop16" />
    </linearGradient>
    <linearGradient
       inkscape:collect="always"
       xlink:href="#linearGradient1468"
       id="linearGradient2216"
       gradientUnits="userSpaceOnUse"
       gradientTransform="matrix(0.42589561,0,0,0.42589562,-0.44527593,0.02816872)"
       x1="16.076847"
       y1="21.827013"
       x2="16.195972"
       y2="6.1272912" />
    <linearGradient
       id="linearGradient1468"
       inkscape:collect="always">
      <stop
         id="stop1464"
         offset="0"
         style="stop-color:#afbceb;stop-opacity:1" />
      <stop
         style="stop-color:#cdd5e3;stop-opacity:1"
         offset="0.47191679"
         id="stop1474" />
      <stop
         style="stop-color:#f6f7fe;stop-opacity:1"
         offset="0.85509378"
         id="stop1472" />
      <stop
         id="stop1466"
         offset="1"
         style="stop-color:#c5cef4;stop-opacity:1" />
    </linearGradient>
    <radialGradient
       gradientUnits="userSpaceOnUse"
       gradientTransform="matrix(0.38203025,0,0,0.3954047,0.93733412,0.61353695)"
       r="2.7728343"
       fy="16.885899"
       fx="20.297014"
       cy="16.885899"
       cx="20.297014"
       id="radialGradient1484-6-1"
       xlink:href="#linearGradient1482"
       inkscape:collect="always" />
    <linearGradient
       id="linearGradient1482"
       inkscape:collect="always">
      <stop
         id="stop1478"
         offset="0"
         style="stop-color:#728cdb;stop-opacity:1;" />
      <stop
         id="stop1480"
         offset="1"
         style="stop-color:#728cdb;stop-opacity:0;" />
    </linearGradient>
    <radialGradient
       r="2.7728343"
       fy="16.885899"
       fx="20.297014"
       cy="16.885899"
       cx="20.297014"
       gradientTransform="matrix(0.38203025,0,0,0.3999402,-1.6430903,0.53695114)"
       gradientUnits="userSpaceOnUse"
       id="radialGradient1488-1-9"
       xlink:href="#linearGradient1482"
       inkscape:collect="always" />
  </defs>
  <sodipodi:namedview
     id="namedview14"
     pagecolor="#000000"
     bordercolor="#666666"
     borderopacity="1.0"
     inkscape:showpageshadow="2"
     inkscape:pageopacity="0.0"
     inkscape:pagecheckerboard="0"
     inkscape:deskcolor="#d1d1d1"
     showgrid="false"
     inkscape:zoom="5.2149125"
     inkscape:cx="23.20269"
     inkscape:cy="53.692176"
     inkscape:window-width="1920"
     inkscape:window-height="996"
     inkscape:window-x="0"
     inkscape:window-y="0"
     inkscape:window-maximized="1"
     inkscape:current-layer="svg12">
    <inkscape:grid
       type="xygrid"
       id="grid244"
       originx="9.7893915"
       originy="-31.749373"
       spacingy="1"
       spacingx="1"
       units="px"
       visible="false" />
  </sodipodi:namedview>
  <rect
     x="-12.025727"
     y="0.1490714"
     width="11.940627"
     height="11.936014"
     rx="1.6121091"
     stroke="url(#paint4_linear_77:23)"
     shape-rendering="crispEdges"
     id="rect5-6-7-3"
     ry="1.7735944"
     transform="matrix(0.00523883,-0.99998628,0.999988,0.00489859,0,0)"
     style="fill:#80b3ff;fill-opacity:0.15;stroke:url(#linearGradient13);stroke-width:0.188987;stroke-opacity:1" />
  <rect
     x="-3.7266586"
     y="4.6446943"
     width="7.912631"
     height="7.912384"
     rx="1.612043"
     shape-rendering="crispEdges"
     id="rect5-6-6-6-6"
     style="fill:#80b3ff;fill-opacity:0.122146;stroke:url(#linearGradient15);stroke-width:0.188987;stroke-opacity:1"
     ry="1.7735215"
     transform="matrix(0.72612649,-0.68756114,0.6879775,0.72573202,0,0)" />
  <path
     id="path34-3-2-7-0"
     d="M 7.3476416,7.727857 C 7.775895,7.5941894 8.1454486,7.3869144 8.4326284,7.0177863 6.860669,7.9209531 5.3056495,7.8932996 3.736657,7.0241513 3.8646687,7.2057381 4.0188178,7.343701 4.1987492,7.4472518 4.3781348,7.5505111 4.568538,7.6348721 4.7605398,7.7307603 4.6777472,7.8335179 4.5794931,7.9409867 4.4985666,8.0600701 4.421531,8.1735249 4.3341875,8.2132672 4.1933986,8.1969966 3.6629029,8.135655 3.185994,7.9601274 2.7905444,7.5929998 2.7790803,7.5823504 2.7683035,7.5709408 2.7566737,7.5604814 2.5952295,7.4159218 2.5278314,7.2545681 2.5417226,7.0211683 2.6074075,5.9163505 2.8846706,4.8710095 3.3700875,3.8781224 3.3938839,3.8294824 3.434521,3.7826094 3.4789831,3.7512463 3.866743,3.4775999 4.2919979,3.2885859 4.7623476,3.2068774 c 0.08979,-0.015629 0.1808908,-0.027311 0.2718153,-0.03131 0.036961,-0.0019 0.075071,0.021982 0.1118305,0.04847 C 4.5870281,3.4098105 4.0558425,3.6336288 3.5886807,4.0076058 5.1939733,3.2473523 6.789899,3.2097284 8.390314,3.9883114 7.9624998,3.6445634 7.4679299,3.4315646 6.9505271,3.2632353 c 0.038634,-0.07896 0.092542,-0.0942 0.1751623,-0.08653 0.5599249,0.05174 1.0599382,0.256352 1.5163488,0.574653 0.042838,0.02986 0.082823,0.07373 0.1058817,0.1201068 0.3541412,0.712803 0.5928417,1.462808 0.7281532,2.2462112 0.062833,0.3641129 0.095205,0.7307581 0.1016254,1.0995279 9.596e-4,0.051851 -0.021275,0.113618 -0.05336,0.1550486 C 9.2261211,7.7569377 8.828615,7.994529 8.3605748,8.1133789 8.1797747,8.1593017 7.991241,8.1755948 7.8055949,8.2010168 7.7768398,8.2051968 7.7333288,8.1946468 7.7160988,8.1746358 7.5924496,8.0304719 7.4738833,7.8821694 7.3476447,7.7278068 Z M 4.8681036,6.7427062 C 5.0733079,6.7421997 5.1949792,6.6989966 5.3017558,6.6108205 5.4762916,6.4665695 5.5414116,6.2765393 5.5548471,6.0559359 5.5698562,5.8092408 5.4735152,5.6257474 5.2673656,5.5005668 5.0546751,5.371441 4.8324275,5.3607667 4.6171635,5.4952468 4.271641,5.7108246 4.2067394,6.2236073 4.481663,6.5326269 4.6019678,6.6678244 4.7514063,6.7414443 4.8681036,6.742882 Z M 7.133,6.7522262 C 7.203546,6.7361322 7.2773868,6.7284942 7.3440956,6.7025212 7.7557916,6.5428234 7.8868791,5.9932503 7.6022085,5.6309999 7.3803788,5.3487523 6.9670539,5.3233131 6.7143102,5.5789399 6.5471378,5.7480155 6.4949946,5.9548683 6.5234842,6.1863474 6.5612292,6.4931505 6.8313374,6.7412934 7.133,6.7521576 Z"
     inkscape:connector-curvature="0"
     style="fill:url(#linearGradient2216);fill-opacity:1;stroke-width:0.0194753" />
  <ellipse
     ry="1.3733443"
     rx="0.85372114"
     cy="5.6505404"
     cx="7.1378655"
     id="path1476-0-2"
     style="opacity:0.424028;fill:url(#radialGradient1484-6-1);fill-opacity:1;stroke:none;stroke-width:0.151618;stroke-linejoin:round;stroke-dashoffset:1;stroke-opacity:0.162864" />
  <ellipse
     style="opacity:0.424028;fill:url(#radialGradient1488-1-9);fill-opacity:1;stroke:none;stroke-width:0.151618;stroke-linejoin:round;stroke-dashoffset:1;stroke-opacity:0.162864"
     id="ellipse1486-9-3"
     cx="5.0582399"
     cy="5.6505404"
     rx="0.85372114"
     ry="1.3733443" />
</svg>
