<?xml version="1.0" encoding="UTF-8" standalone="no"?>
<svg
   width="45.999886"
   height="45.999989"
   version="1.1"
   viewBox="0 0 12.170564 12.170591"
   id="svg12"
   sodipodi:docname="xmind.svg"
   inkscape:version="1.3.2 (091e20ef0f, 2023-11-25)"
   xmlns:inkscape="http://www.inkscape.org/namespaces/inkscape"
   xmlns:sodipodi="http://sodipodi.sourceforge.net/DTD/sodipodi-0.dtd"
   xmlns:xlink="http://www.w3.org/1999/xlink"
   xmlns="http://www.w3.org/2000/svg"
   xmlns:svg="http://www.w3.org/2000/svg">
  <defs
     id="defs16">
    <linearGradient
       id="c"
       y1="523.79999"
       x1="403.57001"
       y2="536.79999"
       x2="416.57001"
       gradientUnits="userSpaceOnUse"
       gradientTransform="matrix(0.34526714,0,0,0.34526706,-134.80427,-174.63325)">
      <stop
         stop-color="#292c2f"
         id="stop1568" />
      <stop
         offset="1"
         stop-opacity="0"
         id="stop1570" />
    </linearGradient>
    <linearGradient
       xlink:href="#b-2"
       id="linearGradient4189"
       x1="14.369"
       y1="22.521999"
       x2="26.521999"
       y2="22.521999"
       gradientUnits="userSpaceOnUse" />
    <linearGradient
       x1="36"
       gradientUnits="userSpaceOnUse"
       x2="14"
       y2="12"
       y1="44"
       id="b-2">
      <stop
         style="stop-color:#bfc9c9;stop-opacity:1"
         stop-color="#536161"
         id="stop1579" />
      <stop
         style="stop-color:#fbfbfb;stop-opacity:1"
         stop-color="#f4f5f5"
         offset="1"
         id="stop1581" />
    </linearGradient>
    <linearGradient
       xlink:href="#b-2"
       id="linearGradient4428"
       gradientUnits="userSpaceOnUse"
       x1="31.586"
       y1="36.345001"
       x2="1.2029999"
       y2="6.723" />
    <linearGradient
       xlink:href="#b-2"
       id="linearGradient4189-3"
       x1="14.369"
       y1="22.521999"
       x2="26.521999"
       y2="22.521999"
       gradientUnits="userSpaceOnUse"
       gradientTransform="translate(20.841982,61.553822)" />
    <linearGradient
       xlink:href="#b-2"
       id="linearGradient4428-5"
       gradientUnits="userSpaceOnUse"
       x1="31.586"
       y1="36.345001"
       x2="1.2029999"
       y2="6.723"
       gradientTransform="translate(20.841982,61.553822)" />
    <linearGradient
       xlink:href="#b-2"
       id="linearGradient4189-3-3"
       x1="14.369"
       y1="22.521999"
       x2="26.521999"
       y2="22.521999"
       gradientUnits="userSpaceOnUse"
       gradientTransform="translate(4.376802,4.4211693)" />
    <linearGradient
       xlink:href="#b-2"
       id="linearGradient4428-5-5"
       gradientUnits="userSpaceOnUse"
       x1="31.586"
       y1="36.345001"
       x2="1.2029999"
       y2="6.723"
       gradientTransform="translate(4.376802,4.4211693)" />
    <linearGradient
       inkscape:collect="always"
       xlink:href="#linearGradient11"
       id="linearGradient13"
       x1="-43.819283"
       y1="23.120178"
       x2="-1.9547797"
       y2="23.120178"
       gradientUnits="userSpaceOnUse"
       gradientTransform="scale(0.26457813)" />
    <linearGradient
       id="linearGradient11"
       inkscape:collect="always">
      <stop
         style="stop-color:#d15a89;stop-opacity:0.88546801;"
         offset="0"
         id="stop4-3" />
      <stop
         style="stop-color:#c83771;stop-opacity:1"
         offset="1"
         id="stop11" />
    </linearGradient>
    <linearGradient
       inkscape:collect="always"
       xlink:href="#linearGradient14"
       id="linearGradient15"
       x1="-9.6850061"
       y1="45.161198"
       x2="11.98815"
       y2="21.735205"
       gradientUnits="userSpaceOnUse"
       gradientTransform="scale(0.26457813)" />
    <linearGradient
       id="linearGradient14"
       inkscape:collect="always">
      <stop
         style="stop-color:#a02c5a;stop-opacity:1"
         offset="0"
         id="stop12" />
      <stop
         style="stop-color:#c83771;stop-opacity:1"
         offset="1"
         id="stop13" />
    </linearGradient>
    <linearGradient
       inkscape:collect="always"
       xlink:href="#linearGradient4168"
       id="linearGradient802"
       gradientUnits="userSpaceOnUse"
       gradientTransform="matrix(0.27780667,0,0,0.27780669,0.74082676,0.74082762)"
       x1="17.197001"
       y1="11.627"
       x2="25.299107"
       y2="26.339453" />
    <linearGradient
       id="linearGradient4168">
      <stop
         style="stop-color:#fcfcfc;stop-opacity:1;"
         offset="0"
         id="stop7" />
      <stop
         style="stop-color:#fbc2bb;stop-opacity:1"
         offset="1"
         id="stop9" />
    </linearGradient>
  </defs>
  <sodipodi:namedview
     id="namedview14"
     pagecolor="#000000"
     bordercolor="#666666"
     borderopacity="1.0"
     inkscape:showpageshadow="2"
     inkscape:pageopacity="0.0"
     inkscape:pagecheckerboard="0"
     inkscape:deskcolor="#d1d1d1"
     showgrid="false"
     inkscape:zoom="5.2149125"
     inkscape:cx="23.20269"
     inkscape:cy="69.032798"
     inkscape:window-width="1920"
     inkscape:window-height="996"
     inkscape:window-x="0"
     inkscape:window-y="0"
     inkscape:window-maximized="1"
     inkscape:current-layer="svg12">
    <inkscape:grid
       type="xygrid"
       id="grid244"
       originx="9.7893915"
       originy="-31.749373"
       spacingy="1"
       spacingx="1"
       units="px"
       visible="false" />
  </sodipodi:namedview>
  <rect
     x="-12.025727"
     y="0.1490714"
     width="11.940627"
     height="11.936014"
     rx="1.6121091"
     stroke="url(#paint4_linear_77:23)"
     shape-rendering="crispEdges"
     id="rect5-6-7-3"
     ry="1.7735944"
     transform="matrix(0.00523883,-0.99998628,0.999988,0.00489859,0,0)"
     style="fill:#de87aa;fill-opacity:0.15;stroke:url(#linearGradient13);stroke-width:0.188987;stroke-opacity:1" />
  <rect
     x="-3.7266586"
     y="4.6446943"
     width="7.912631"
     height="7.912384"
     rx="1.612043"
     shape-rendering="crispEdges"
     id="rect5-6-6-6-6"
     style="fill:#de87aa;fill-opacity:0.122146;stroke:url(#linearGradient15);stroke-width:0.188987;stroke-opacity:1"
     ry="1.7735215"
     transform="matrix(0.72612649,-0.68756114,0.6879775,0.72573202,0,0)" />
  <path
     style="fill:url(#linearGradient802);fill-opacity:1;stroke-width:0.283953;enable-background:new"
     d="m 4.8365701,3.8365724 c -0.01558,2.237e-4 -0.033168,0.00141 -0.053369,0.00278 -0.076531,0.00481 -1.5207314,0.2733339 -1.6126433,0.2998204 -0.097174,0.027979 -0.180159,0.087105 -0.2004055,0.1431925 -0.034527,0.095315 0.065533,0.4050901 0.1976208,0.6130825 0.5269431,0.6212908 1.1119874,0.7791564 1.6853445,1.1139473 0.065805,0.076588 0.091789,0.1135629 -0.4129844,0.3354722 -0.7889194,0.3468587 -1.0442714,0.6418714 -1.1953694,1.078312 -0.044621,0.1289614 -0.065354,0.4699902 -0.033895,0.5558072 0.040833,0.1112433 0.065445,0.1336386 0.8277028,-0.00994 0.765719,-0.1442213 0.7023989,-0.1526627 0.7662577,-0.212732 0.052011,-0.048928 0.054986,-0.06073 0.077704,-0.2922258 C 4.8956263,7.3314341 4.9226473,7.0724055 4.9424763,7.0037859 4.9884523,6.8444277 5.1040884,6.6780103 5.2300268,6.5899961 5.7076424,6.2562403 6.6065867,6.4226739 7.0930416,6.9348232 7.27634,7.1277974 7.3914412,7.4032452 7.4832987,7.7025334 7.5363007,7.8752223 7.5901268,7.9501987 7.6737152,7.9667082 7.7506132,7.9818602 7.7525032,7.9579782 8.7267954,7.7743174 9.2687562,7.6721463 9.4943029,7.6224567 9.5261891,7.5978184 9.5947011,7.5448384 9.5949641,7.415198 9.5266397,7.2009789 9.4095209,6.8329112 9.2063306,6.588231 8.8299635,6.3051363 8.6437709,6.1650862 8.4086628,6.0326826 8.0105895,5.8434222 7.6319612,5.6634059 7.451635,5.6147023 7.451635,5.5587988 c 0,-0.046223 0.1487049,-0.066824 0.4490441,-0.1560466 0.6580982,-0.1955482 0.975219,-0.469859 0.975219,-0.9777778 0,-0.2228971 -0.042364,-0.4027672 -0.1082523,-0.4611286 -0.087619,-0.077625 -0.2414796,-0.080081 -0.6093944,-0.014016 -1.1793417,0.2117397 -1.0981276,0.203485 -1.1529901,0.291637 -0.029029,0.046625 -0.027763,0.057555 0.025598,0.2694308 0.030557,0.1214663 0.055171,0.2734211 0.054989,0.3086735 -4.507e-4,0.074973 -0.098575,0.2002226 -0.146558,0.2448823 C 6.8218812,5.1736672 6.555743,5.24797 6.2831303,5.24797 5.9534031,5.24797 5.7049711,5.1354314 5.4582061,4.8745096 5.2798963,4.6859747 5.1888671,4.5035291 5.0673901,4.1678281 4.9607168,3.8729864 4.9460864,3.8345554 4.8364546,3.8364469 Z"
     id="path31-7" />
</svg>
