<?xml version="1.0" encoding="UTF-8" standalone="no"?>
<svg
   width="45.999886"
   height="45.999989"
   version="1.1"
   viewBox="0 0 12.170564 12.170591"
   id="svg12"
   sodipodi:docname="preferences-system-linux.svg"
   inkscape:version="1.3.2 (091e20ef0f, 2023-11-25)"
   xmlns:inkscape="http://www.inkscape.org/namespaces/inkscape"
   xmlns:sodipodi="http://sodipodi.sourceforge.net/DTD/sodipodi-0.dtd"
   xmlns:xlink="http://www.w3.org/1999/xlink"
   xmlns="http://www.w3.org/2000/svg"
   xmlns:svg="http://www.w3.org/2000/svg">
  <defs
     id="defs16">
    <linearGradient
       id="linearGradient7"
       inkscape:collect="always">
      <stop
         style="stop-color:#ff9955;stop-opacity:0.46059114;"
         offset="0"
         id="stop6" />
      <stop
         style="stop-color:#ffb583;stop-opacity:0.83137256;"
         offset="1"
         id="stop7" />
    </linearGradient>
    <linearGradient
       id="c"
       y1="523.79999"
       x1="403.57001"
       y2="536.79999"
       x2="416.57001"
       gradientUnits="userSpaceOnUse"
       gradientTransform="matrix(0.34526714,0,0,0.34526706,-134.80427,-174.63325)">
      <stop
         stop-color="#292c2f"
         id="stop1568" />
      <stop
         offset="1"
         stop-opacity="0"
         id="stop1570" />
    </linearGradient>
    <linearGradient
       xlink:href="#b-2"
       id="linearGradient4189"
       x1="14.369"
       y1="22.521999"
       x2="26.521999"
       y2="22.521999"
       gradientUnits="userSpaceOnUse" />
    <linearGradient
       x1="36"
       gradientUnits="userSpaceOnUse"
       x2="14"
       y2="12"
       y1="44"
       id="b-2">
      <stop
         style="stop-color:#bfc9c9;stop-opacity:1"
         stop-color="#536161"
         id="stop1579" />
      <stop
         style="stop-color:#fbfbfb;stop-opacity:1"
         stop-color="#f4f5f5"
         offset="1"
         id="stop1581" />
    </linearGradient>
    <linearGradient
       xlink:href="#b-2"
       id="linearGradient4428"
       gradientUnits="userSpaceOnUse"
       x1="31.586"
       y1="36.345001"
       x2="1.2029999"
       y2="6.723" />
    <linearGradient
       xlink:href="#b-2"
       id="linearGradient4189-3"
       x1="14.369"
       y1="22.521999"
       x2="26.521999"
       y2="22.521999"
       gradientUnits="userSpaceOnUse"
       gradientTransform="translate(20.841982,61.553822)" />
    <linearGradient
       xlink:href="#b-2"
       id="linearGradient4428-5"
       gradientUnits="userSpaceOnUse"
       x1="31.586"
       y1="36.345001"
       x2="1.2029999"
       y2="6.723"
       gradientTransform="translate(20.841982,61.553822)" />
    <linearGradient
       xlink:href="#b-2"
       id="linearGradient4189-3-3"
       x1="14.369"
       y1="22.521999"
       x2="26.521999"
       y2="22.521999"
       gradientUnits="userSpaceOnUse"
       gradientTransform="translate(4.376802,4.4211693)" />
    <linearGradient
       xlink:href="#b-2"
       id="linearGradient4428-5-5"
       gradientUnits="userSpaceOnUse"
       x1="31.586"
       y1="36.345001"
       x2="1.2029999"
       y2="6.723"
       gradientTransform="translate(4.376802,4.4211693)" />
    <linearGradient
       inkscape:collect="always"
       xlink:href="#linearGradient14"
       id="linearGradient15"
       x1="-9.6850061"
       y1="45.161198"
       x2="11.98815"
       y2="21.735205"
       gradientUnits="userSpaceOnUse"
       gradientTransform="scale(0.26457813)" />
    <linearGradient
       id="linearGradient14"
       inkscape:collect="always">
      <stop
         style="stop-color:#ff9900;stop-opacity:0.34509805;"
         offset="0"
         id="stop12" />
      <stop
         style="stop-color:#ffb685;stop-opacity:0.81568629;"
         offset="1"
         id="stop13" />
    </linearGradient>
    <filter
       id="filter2917-3"
       x="-0.96181147"
       y="-0.66745996"
       width="2.9236229"
       height="2.3349199"
       color-interpolation-filters="sRGB">
      <feGaussianBlur
         stdDeviation="0.2871969"
         id="feGaussianBlur732-5" />
    </filter>
    <filter
       id="filter1"
       x="-0.96181148"
       y="-0.66745996"
       width="2.9236228"
       height="2.3349199"
       color-interpolation-filters="sRGB">
      <feGaussianBlur
         stdDeviation="0.2871969"
         id="feGaussianBlur1" />
    </filter>
    <filter
       id="filter2"
       x="-0.96181148"
       y="-0.66745996"
       width="2.9236228"
       height="2.3349199"
       color-interpolation-filters="sRGB">
      <feGaussianBlur
         stdDeviation="0.2871969"
         id="feGaussianBlur2" />
    </filter>
    <linearGradient
       id="_lgradient_20"
       x1="-0.29991642"
       y1="-0.26140401"
       x2="0.96725708"
       y2="0.86616999"
       gradientTransform="matrix(15.137397,0,0,16.82717,0.89780187,0.05291536)"
       gradientUnits="userSpaceOnUse">
      <stop
         offset="34.94098066785295%"
         stop-opacity="1"
         style="stop-color:rgb(178,229,107)"
         id="stop1" />
      <stop
         offset="53.84922244785295%"
         stop-opacity="1"
         style="stop-color:rgb(194,233,100)"
         id="stop2" />
      <stop
         offset="90.40515655585295%"
         stop-opacity="1"
         style="stop-color:rgb(236,244,81)"
         id="stop3" />
      <stop
         offset="100%"
         stop-opacity="1"
         style="stop-color:rgb(250,247,75)"
         id="stop4" />
    </linearGradient>
    <linearGradient
       inkscape:collect="always"
       xlink:href="#linearGradient7"
       id="linearGradient6"
       x1="-12.120221"
       y1="6.1170783"
       x2="0.0093933269"
       y2="6.1170783"
       gradientUnits="userSpaceOnUse" />
    <linearGradient
       id="b-2-5"
       y1="35.825909"
       y2="-4.1468086"
       gradientUnits="userSpaceOnUse"
       x2="1.525889"
       gradientTransform="matrix(0.18808708,0,0,0.18779368,2.9505234,2.8105876)"
       x1="0.19073613">
      <stop
         stop-color="#d35400"
         id="stop7-9-6"
         offset="0"
         style="stop-color:#ff9e5e;stop-opacity:1;" />
      <stop
         offset="1"
         stop-color="#f67400"
         stop-opacity=".941"
         id="stop9-1-2" />
    </linearGradient>
    <linearGradient
       id="linearGradient4308">
      <stop
         style="stop-color:#884d2c;stop-opacity:1"
         offset="0"
         id="stop363" />
      <stop
         style="stop-color:#ffc169;stop-opacity:1"
         offset="1"
         id="stop365" />
    </linearGradient>
    <linearGradient
       id="linearGradient4513">
      <stop
         style="stop-color:#000000;stop-opacity:1;"
         offset="0"
         id="stop353" />
      <stop
         style="stop-color:#000000;stop-opacity:0;"
         offset="1"
         id="stop355" />
    </linearGradient>
    <linearGradient
       id="linearGradient4325">
      <stop
         offset="0"
         style="stop-color:#2a2c2f;stop-opacity:1"
         id="stop358" />
      <stop
         offset="1"
         style="stop-color:#424649;stop-opacity:1"
         id="stop360" />
    </linearGradient>
    <linearGradient
       id="a"
       gradientUnits="userSpaceOnUse"
       x1="25"
       x2="25"
       y1="6"
       y2="26">
      <stop
         offset="0"
         id="stop1047" />
      <stop
         offset="1"
         stop-color="#292c2f"
         id="stop1049" />
    </linearGradient>
    <linearGradient
       id="a-3">
      <stop
         offset="0"
         stop-color="#f67400"
         id="stop1590"
         style="stop-color:#ff8b24;stop-opacity:1;" />
      <stop
         offset="1"
         stop-color="#f39c1f"
         id="stop1592" />
    </linearGradient>
    <clipPath
       clipPathUnits="userSpaceOnUse"
       id="clipPath1">
      <g
         id="g2">
        <rect
           width="16"
           height="16"
           id="rect1"
           x="0"
           y="0" />
      </g>
    </clipPath>
    <linearGradient
       inkscape:collect="always"
       xlink:href="#c-3"
       id="linearGradient1235"
       gradientUnits="userSpaceOnUse"
       gradientTransform="matrix(0.48010427,0,0,0.48010431,1.9232674,2.1163853)"
       x1="10.355895"
       y1="18.065456"
       x2="10.355895"
       y2="1.9994709" />
    <linearGradient
       id="c-3"
       gradientUnits="userSpaceOnUse"
       x1="10.355895"
       x2="10.355895"
       y1="18.065456"
       y2="1.9994709"
       gradientTransform="matrix(0.85549446,0,0,0.85549446,-34.342004,-6.4521974)">
      <stop
         offset="0"
         stop-color="#1d1e1e"
         id="stop2610"
         style="stop-color:#7a7f7f;stop-opacity:1;" />
      <stop
         offset="1"
         stop-color="#44484c"
         id="stop2612"
         style="stop-color:#858c92;stop-opacity:1;" />
    </linearGradient>
    <linearGradient
       id="b-7-9"
       gradientUnits="userSpaceOnUse"
       x1="11.886601"
       x2="11.661686"
       y1="18.022402"
       y2="9.4762812"
       gradientTransform="matrix(1.253839,0,0,1.2557822,0.31494155,1.3076509)">
      <stop
         offset="0"
         stop-color="#fcfcfc"
         id="stop2605-5-1" />
      <stop
         offset="1"
         stop-color="#eff0f1"
         id="stop2607-3-2" />
    </linearGradient>
    <linearGradient
       id="e-5-7"
       gradientUnits="userSpaceOnUse"
       x1="7.1428261"
       x2="7.1428261"
       xlink:href="#linearGradient3983"
       y1="19.993298"
       y2="14.209132"
       gradientTransform="matrix(1.253839,0,0,1.2557822,0.31494155,1.3076509)" />
    <linearGradient
       id="linearGradient3983">
      <stop
         offset="0"
         stop-color="#f39c1f"
         id="stop2600-6" />
      <stop
         offset="1"
         stop-color="#fdbc4b"
         id="stop2602-2" />
    </linearGradient>
    <linearGradient
       id="f-9-3"
       gradientUnits="userSpaceOnUse"
       x1="9.1779842"
       x2="11.427132"
       y1="7.534945"
       y2="9.7840929"
       gradientTransform="matrix(1.253839,0,0,1.2557822,0.31494155,1.3076509)">
      <stop
         offset="0"
         id="stop2617-1-6" />
      <stop
         offset="1"
         stop-opacity="0"
         id="stop2619-2-0" />
    </linearGradient>
    <linearGradient
       inkscape:collect="always"
       xlink:href="#linearGradient3983"
       id="linearGradient1237"
       gradientUnits="userSpaceOnUse"
       gradientTransform="matrix(0.32471529,0,0,0.2914348,1.9459461,2.6213314)"
       x1="16"
       y1="12"
       x2="15.731"
       y2="8.1520004" />
  </defs>
  <sodipodi:namedview
     id="namedview14"
     pagecolor="#000000"
     bordercolor="#666666"
     borderopacity="1.0"
     inkscape:showpageshadow="2"
     inkscape:pageopacity="0.0"
     inkscape:pagecheckerboard="0"
     inkscape:deskcolor="#d1d1d1"
     showgrid="false"
     inkscape:zoom="7.375"
     inkscape:cx="19.79661"
     inkscape:cy="37.423729"
     inkscape:window-width="1920"
     inkscape:window-height="996"
     inkscape:window-x="0"
     inkscape:window-y="0"
     inkscape:window-maximized="1"
     inkscape:current-layer="svg12">
    <inkscape:grid
       type="xygrid"
       id="grid244"
       originx="9.7893915"
       originy="-31.749373"
       spacingy="1"
       spacingx="1"
       units="px"
       visible="false" />
  </sodipodi:namedview>
  <rect
     x="-12.025727"
     y="0.1490714"
     width="11.940627"
     height="11.936014"
     rx="1.6121091"
     stroke="url(#paint4_linear_77:23)"
     shape-rendering="crispEdges"
     id="rect5-6-7-3"
     ry="1.7735944"
     transform="matrix(0.00523883,-0.99998628,0.999988,0.00489859,0,0)"
     style="fill:#ffe0cc;fill-opacity:0.09803922;stroke:url(#linearGradient6);stroke-width:0.188987;stroke-opacity:1" />
  <rect
     x="-3.7266586"
     y="4.6446943"
     width="7.912631"
     height="7.912384"
     rx="1.612043"
     shape-rendering="crispEdges"
     id="rect5-6-6-6-6"
     style="fill:#ffc299;fill-opacity:0.06392694;stroke:url(#linearGradient15);stroke-width:0.188987;stroke-opacity:1"
     ry="1.7735215"
     transform="matrix(0.72612649,-0.68756114,0.6879775,0.72573202,0,0)" />
  <path
     d="M 5.184119,4.4576191 C 5.2727001,4.1072773 5.1875243,3.7348256 5.1996171,3.3736751 5.2266808,2.5850384 5.6651632,2.4061828 6.1147194,2.3828449 6.6304648,2.3558228 7.2409417,2.6609547 7.2778549,3.4048761 7.2953374,3.7608682 7.2323258,4.128652 7.324358,4.4730966 7.538679,5.2764729 8.4586989,5.8565231 8.471988,6.6874184 8.4842677,7.4770328 8.1201204,8.4076765 7.4483748,8.8243473 7.1014245,9.0395667 6.6307078,8.7813537 6.2229874,8.8088746 5.7694962,8.8398352 5.26507,9.2420136 4.8738314,9.0103336 4.1636985,8.5894798 3.9678335,7.510446 4.0209806,6.6874193 4.0751147,5.8511205 4.9786539,5.2703314 5.1841164,4.4576198 Z"
     fill="url(#c)"
     stroke-width="0.308525"
     id="path2622-7-8"
     style="fill:url(#linearGradient1235)" />
  <ellipse
     cx="6.4123931"
     cy="3.708492"
     fill="#fcfcfc"
     fill-opacity="0.941"
     rx="0.3992871"
     ry="0.56388128"
     stroke-width="0.353408"
     id="ellipse2624-0-7" />
  <ellipse
     cx="5.5633497"
     cy="3.6975541"
     fill="#fcfcfc"
     fill-opacity="0.941"
     rx="0.28872707"
     ry="0.50381815"
     stroke-width="0.374471"
     id="ellipse2626-9-9" />
  <ellipse
     cx="6.234869"
     cy="3.7979295"
     fill="#232629"
     rx="0.18464552"
     ry="0.29390955"
     stroke-width="0.374635"
     id="ellipse2628-3-2" />
  <ellipse
     cx="5.5426254"
     cy="3.829371"
     fill="#232629"
     rx="0.15575743"
     ry="0.3099488"
     stroke-width="0.469314"
     id="ellipse2630-6-0" />
  <g
     stroke-width="0.806358"
     id="g2638-0-2"
     transform="matrix(0.38290746,0,0,0.38231497,1.8026727,1.6164512)">
    <path
       d="m 12.003557,6.9848678 a 3.2567663,3.2567663 0 0 0 -0.350225,0.00257 C 10.862918,7.0337065 10.015952,7.3440889 9.5879715,7.7200179 8.9029456,8.322147 9.3090775,8.9075681 9.0141175,9.7532477 8.7191581,10.598927 7.9769393,11.705508 7.7545949,12.76068 c -0.089966,0.426053 -0.2043511,0.852106 -0.28275,1.280086 l 2.1161266,2.585878 c 0.4157715,0.507665 -0.6689605,0.319379 -1.6778641,-0.334159 0.7158717,1.006976 2.1360476,2.004955 3.5382316,1.910491 1.493434,-0.100248 3.256765,-1.6618 3.820981,-2.938673 -0.547507,-0.09254 -1.079592,-0.916367 -0.641328,-1.530063 0.152299,-0.212705 0.47939,-0.231341 0.760212,-0.186358 C 15.219196,12.893701 14.882467,12.307637 14.713459,11.815395 14.420428,10.956863 14.079842,10.716526 13.768817,9.9543858 13.45715,9.1922459 13.786167,7.7823514 12.909,7.2335593 12.662236,7.079332 12.346713,7.0022184 12.003557,6.9848678 Z"
       fill="url(#b)"
       id="path2632-6-3"
       style="fill:url(#b-7-9);stroke-width:0.806358" />
    <path
       d="m 6.3945312,14.220703 c -0.03913,0.0016 -0.076999,0.0068 -0.1152343,0.01563 -0.3907091,0.09061 -0.5366566,0.600943 -0.8496094,0.851563 -0.4054893,0.323877 -1.0870184,0.364158 -1.3183594,0.828125 -0.2172034,0.436977 0.2425731,0.98602 0.1230469,1.458984 -0.044983,0.179932 -0.3168972,0.281724 -0.3046875,0.466797 0.02956,0.468465 0.508548,0.83257 0.9121094,1.072265 0.5095927,0.303315 1.1702613,0.205867 1.7421875,0.365235 0.392637,0.109244 0.7449266,0.420362 1.1523437,0.404297 0.6708888,-0.0257 1.540436,-0.212273 1.84375,-0.810547 C 9.8049931,18.429001 9.4955544,17.852993 9.2558594,17.416016 9.0258034,16.997674 8.534602,16.782797 8.2441406,16.404297 7.8084485,15.834941 7.7232124,14.995987 7.1699219,14.541016 6.9579397,14.366707 6.6684441,14.209649 6.3945312,14.220703 Z m 8.0937498,0.162109 c -0.129166,0.11567 -0.238674,0.261663 -0.318359,0.40625 -0.345725,0.627834 -0.112571,1.439383 -0.306641,2.128907 -0.129808,0.459469 -0.507928,0.841489 -0.566406,1.314453 -0.06105,0.494812 -0.133124,1.144948 0.240234,1.474609 0.503809,0.443404 1.379388,0.294588 2.011719,0.07031 0.384925,-0.136235 0.597355,-0.557924 0.921875,-0.804688 0.471679,-0.359863 1.121273,-0.512672 1.482422,-0.982422 0.285963,-0.372716 0.595092,-0.88801 0.449219,-1.333984 -0.05784,-0.176076 -0.344523,-0.171894 -0.453125,-0.322266 -0.285963,-0.395207 -0.06466,-1.071321 -0.427735,-1.396484 -0.269898,-0.24098 -0.667784,-0.214327 -1.050781,-0.224609 -0.185073,0.396493 -0.786686,0.665809 -1.201172,0.550781 -0.350867,-0.09768 -0.700281,-0.495933 -0.78125,-0.88086 z"
       fill="url(#e)"
       id="path2634-2-7"
       style="fill:url(#e-5-7);stroke-width:0.806358" />
  </g>
  <path
     d="M 5.8947297,3.9104175 C 6.0653934,3.9022575 6.2223351,4.0013885 6.3764244,4.067532 6.5253366,4.131822 6.7796508,4.15108 6.8006256,4.2979829 6.8247031,4.4648437 6.5623682,4.5632434 6.4090548,4.660018 6.2720544,4.7465824 6.1192613,4.847998 5.9519592,4.8466069 5.7828489,4.8449427 5.6331604,4.7363709 5.494867,4.6491109 5.3809188,4.5771684 5.2014442,4.5107952 5.197043,4.3857068 5.1921096,4.2520308 5.3757374,4.1668611 5.494867,4.085866 5.6129615,4.0055685 5.7465928,3.9173797 5.8947297,3.9104175 Z"
     fill="url(#d)"
     stroke-width="0.307624"
     id="path2640-1-9"
     style="fill:url(#linearGradient1237)" />
  <path
     d="m 4.2511884,7.0532371 c -0.014984,6.54e-4 -0.029485,0.00273 -0.04413,0.00599 C 4.0574585,7.0938627 4.0015738,7.2889629 3.8817392,7.3847786 3.7264784,7.5085968 3.4655149,7.5239989 3.3769313,7.7013796 3.3260368,7.8036153 3.3723705,7.9218012 3.4053517,8.0396403 3.5122204,7.9029523 3.7405254,7.8797067 3.88174,7.7670883 4.0015741,7.671272 4.057458,7.4761641 4.2070619,7.4415216 c 0.014651,-0.00345 0.029132,-0.00537 0.044134,-0.00599 0.1048821,-0.00405 0.2157319,0.055821 0.2969011,0.1224608 0.2118584,0.1739403 0.2444975,0.4946884 0.4113264,0.7123617 0.1112192,0.1447054 0.2993029,0.2268562 0.3873945,0.3867946 0.035103,0.063912 0.073981,0.1353991 0.103954,0.2090761 0.00716,-0.011151 0.014121,-0.022361 0.020188,-0.034342 C 5.5570786,8.6621435 5.4385986,8.4419282 5.3468119,8.2748625 5.258719,8.1149238 5.0706341,8.0327752 4.9594143,7.8880666 4.7925859,7.6703929 4.759947,7.3496497 4.548088,7.1757078 4.4669189,7.1090653 4.3560684,7.0490208 4.2511866,7.0532479 Z m 3.0991532,0.06198 c -0.049455,0.044225 -0.091384,0.1000349 -0.1219,0.1553123 -0.1323825,0.2400321 -0.043106,0.5502998 -0.1174138,0.8139127 -0.049708,0.1756647 -0.1944882,0.3217167 -0.2168796,0.502534 -0.015407,0.1245341 -0.032284,0.2746383 -0.00177,0.3987471 8.5e-4,-0.00527 0.00119,-0.01128 0.00176,-0.01641 C 6.9165142,8.7884971 7.0613159,8.6424441 7.111023,8.4667822 7.185335,8.203168 7.096061,7.8929 7.2284367,7.6528674 c 0.030524,-0.05527 0.072448,-0.111093 0.1219003,-0.1553147 0.031009,0.147164 0.1647972,0.2994215 0.2991454,0.3367667 0.1587153,0.043979 0.3890749,-0.058977 0.4599411,-0.2105706 0.1466501,0.0039 0.2990085,-0.00639 0.4023543,0.08587 0.1390226,0.124315 0.054291,0.3828036 0.1637826,0.5338969 0.025983,0.035943 0.078439,0.048427 0.1196592,0.069453 C 8.8510407,8.2060559 8.8837451,8.0902824 8.8490608,7.9844141 8.8268961,7.9170925 8.717147,7.9186931 8.6755653,7.8612058 8.5660676,7.7101081 8.6508169,7.451622 8.5117821,7.3273073 8.4084367,7.2351753 8.2560778,7.2453657 8.109428,7.2414339 8.0385616,7.3930218 7.8082027,7.4959848 7.6494874,7.4520053 7.5151388,7.4146582 7.3813454,7.2624033 7.3503416,7.1152417 Z M 3.3784287,8.3263743 c -0.034476,0.034733 -0.073999,0.066717 -0.071041,0.1112623 0.00529,0.083501 0.048731,0.1578919 0.1084425,0.2232643 0.00336,-0.00639 0.00652,-0.01266 0.00829,-0.019435 0.025362,-0.1002803 -0.016633,-0.2092158 -0.045639,-0.315114 z"
     fill="#f9bf5b"
     stroke-width="0.308525"
     id="path2642-8-2" />
</svg>
