<?xml version="1.0" encoding="UTF-8" standalone="no"?>
<svg
   width="45.999886"
   height="45.999989"
   version="1.1"
   viewBox="0 0 12.170564 12.170591"
   id="svg12"
   sodipodi:docname="preferences-system-services.svg"
   inkscape:version="1.3.2 (091e20ef0f, 2023-11-25)"
   xmlns:inkscape="http://www.inkscape.org/namespaces/inkscape"
   xmlns:sodipodi="http://sodipodi.sourceforge.net/DTD/sodipodi-0.dtd"
   xmlns:xlink="http://www.w3.org/1999/xlink"
   xmlns="http://www.w3.org/2000/svg"
   xmlns:svg="http://www.w3.org/2000/svg">
  <defs
     id="defs16">
    <linearGradient
       id="c"
       y1="523.79999"
       x1="403.57001"
       y2="536.79999"
       x2="416.57001"
       gradientUnits="userSpaceOnUse"
       gradientTransform="matrix(0.34526714,0,0,0.34526706,-134.80427,-174.63325)">
      <stop
         stop-color="#292c2f"
         id="stop1568" />
      <stop
         offset="1"
         stop-opacity="0"
         id="stop1570" />
    </linearGradient>
    <linearGradient
       xlink:href="#b-2"
       id="linearGradient4189"
       x1="14.369"
       y1="22.521999"
       x2="26.521999"
       y2="22.521999"
       gradientUnits="userSpaceOnUse" />
    <linearGradient
       x1="36"
       gradientUnits="userSpaceOnUse"
       x2="14"
       y2="12"
       y1="44"
       id="b-2">
      <stop
         style="stop-color:#bfc9c9;stop-opacity:1"
         stop-color="#536161"
         id="stop1579" />
      <stop
         style="stop-color:#fbfbfb;stop-opacity:1"
         stop-color="#f4f5f5"
         offset="1"
         id="stop1581" />
    </linearGradient>
    <linearGradient
       xlink:href="#b-2"
       id="linearGradient4428"
       gradientUnits="userSpaceOnUse"
       x1="31.586"
       y1="36.345001"
       x2="1.2029999"
       y2="6.723" />
    <linearGradient
       xlink:href="#b-2"
       id="linearGradient4189-3"
       x1="14.369"
       y1="22.521999"
       x2="26.521999"
       y2="22.521999"
       gradientUnits="userSpaceOnUse"
       gradientTransform="translate(20.841982,61.553822)" />
    <linearGradient
       xlink:href="#b-2"
       id="linearGradient4428-5"
       gradientUnits="userSpaceOnUse"
       x1="31.586"
       y1="36.345001"
       x2="1.2029999"
       y2="6.723"
       gradientTransform="translate(20.841982,61.553822)" />
    <linearGradient
       xlink:href="#b-2"
       id="linearGradient4189-3-3"
       x1="14.369"
       y1="22.521999"
       x2="26.521999"
       y2="22.521999"
       gradientUnits="userSpaceOnUse"
       gradientTransform="translate(4.376802,4.4211693)" />
    <linearGradient
       xlink:href="#b-2"
       id="linearGradient4428-5-5"
       gradientUnits="userSpaceOnUse"
       x1="31.586"
       y1="36.345001"
       x2="1.2029999"
       y2="6.723"
       gradientTransform="translate(4.376802,4.4211693)" />
    <linearGradient
       inkscape:collect="always"
       xlink:href="#linearGradient11"
       id="linearGradient13"
       x1="-43.819283"
       y1="23.120178"
       x2="-1.9547797"
       y2="23.120178"
       gradientUnits="userSpaceOnUse"
       gradientTransform="scale(0.26457813)" />
    <linearGradient
       id="linearGradient11"
       inkscape:collect="always">
      <stop
         style="stop-color:#9955ff;stop-opacity:0.65640396;"
         offset="0"
         id="stop4-3" />
      <stop
         style="stop-color:#00ccff;stop-opacity:1"
         offset="1"
         id="stop11" />
    </linearGradient>
    <linearGradient
       inkscape:collect="always"
       xlink:href="#linearGradient14"
       id="linearGradient15"
       x1="-9.6850061"
       y1="45.161198"
       x2="11.98815"
       y2="21.735205"
       gradientUnits="userSpaceOnUse"
       gradientTransform="scale(0.26457813)" />
    <linearGradient
       id="linearGradient14"
       inkscape:collect="always">
      <stop
         style="stop-color:#9955ff;stop-opacity:0.45197046;"
         offset="0"
         id="stop12" />
      <stop
         style="stop-color:#00ccff;stop-opacity:1"
         offset="1"
         id="stop13" />
    </linearGradient>
  </defs>
  <sodipodi:namedview
     id="namedview14"
     pagecolor="#000000"
     bordercolor="#666666"
     borderopacity="1.0"
     inkscape:showpageshadow="2"
     inkscape:pageopacity="0.0"
     inkscape:pagecheckerboard="0"
     inkscape:deskcolor="#d1d1d1"
     showgrid="false"
     inkscape:zoom="5.2149125"
     inkscape:cx="23.20269"
     inkscape:cy="69.032798"
     inkscape:window-width="1920"
     inkscape:window-height="996"
     inkscape:window-x="0"
     inkscape:window-y="0"
     inkscape:window-maximized="1"
     inkscape:current-layer="svg12">
    <inkscape:grid
       type="xygrid"
       id="grid244"
       originx="9.7893915"
       originy="-31.749373"
       spacingy="1"
       spacingx="1"
       units="px"
       visible="false" />
  </sodipodi:namedview>
  <rect
     x="-12.025727"
     y="0.1490714"
     width="11.940627"
     height="11.936014"
     rx="1.6121091"
     stroke="url(#paint4_linear_77:23)"
     shape-rendering="crispEdges"
     id="rect5-6-7-3"
     ry="1.7735944"
     transform="matrix(0.00523883,-0.99998628,0.999988,0.00489859,0,0)"
     style="fill:#80b3ff;fill-opacity:0.15;stroke:url(#linearGradient13);stroke-width:0.188987;stroke-opacity:1" />
  <rect
     x="-3.7266586"
     y="4.6446943"
     width="7.912631"
     height="7.912384"
     rx="1.612043"
     shape-rendering="crispEdges"
     id="rect5-6-6-6-6"
     style="fill:#80b3ff;fill-opacity:0.122146;stroke:url(#linearGradient15);stroke-width:0.188987;stroke-opacity:1"
     ry="1.7735215"
     transform="matrix(0.72612649,-0.68756114,0.6879775,0.72573202,0,0)" />
  <path
     id="rect1045-9"
     d="M 4.2332501,5.4569312 V 5.8207256 H 5.3156152 V 5.4569312 Z m 1.4431538,0 V 5.8207256 H 6.3979804 V 5.4569312 Z m 1.0823649,0 V 5.8207256 H 8.2019221 V 5.4569312 Z M 4.2332501,6.1845184 V 6.5483113 H 4.5940387 V 6.1845184 Z m 0.721577,0 V 6.5483113 H 6.0371925 V 6.1845184 Z m 1.4431533,0 V 6.5483113 H 7.8411338 V 6.1845184 Z M 4.2332501,6.9121046 v 0.363793 h 2.1647303 v -0.363793 z m 2.5255187,0 v 0.363793 h 0.3607881 v -0.363793 z m 0.7215769,0 v 0.363793 H 8.2019221 V 6.9121046 Z M 4.2332501,7.6396902 v 0.363793 h 1.0823651 v -0.363793 z m 1.4431538,0 v 0.363793 h 1.0823649 v -0.363793 z m 1.443153,0 v 0.363793 H 8.2019221 V 7.6396902 Z M 4.2332501,8.3672777 v 0.363793 h 0.3607886 v -0.363793 z m 0.721577,0 v 0.363793 h 2.5255186 v -0.363793 z m 2.8863067,0 v 0.363793 h 0.3607883 v -0.363793 z"
     style="fill:#80b3ff;fill-opacity:1;stroke:none;stroke-width:2.11663;stroke-linecap:round;stroke-linejoin:round;stroke-miterlimit:4;stroke-dasharray:none;stroke-dashoffset:0;stroke-opacity:1"
     inkscape:connector-curvature="0"
     sodipodi:nodetypes="ccccccccccccccccccccccccccccccccccccccccccccccccccccccccccccccccccccccccccc" />
  <g
     transform="matrix(0.36078836,0,0,0.36379319,13.61376,-101.73475)"
     inkscape:label="Capa 1"
     id="layer1-62"
     style="fill:#80b3ff;stroke-width:0.730297">
    <path
       id="rect1017"
       d="m -25,287.64999 v 1 h -1 v 1 h 1 v 1 h -1 v 1 h 1 v 1 h 1 v -1 h 1 v 1 h 1 v -1 h 1 v -1 h -1 v -1 h 1 v -1 h -1 v -1 h -1 v 1 h -1 v -1 z m 1,2 h 1 v 1 h -1 z"
       style="opacity:1;fill:#80b3ff;fill-opacity:1;stroke:none;stroke-width:4.38182;stroke-linecap:round;stroke-linejoin:round;stroke-miterlimit:4;stroke-dasharray:none;stroke-dashoffset:0;stroke-opacity:1;paint-order:stroke markers fill"
       inkscape:connector-curvature="0" />
  </g>
  <path
     id="rect1584-0"
     d="m 10.23917,9.7893896 c 0.307809,0 0.555613,0.2478034 0.555613,0.5556134 0,0.307809 -0.247804,0.555613 -0.555613,0.555613 -0.3078085,0 -0.5556128,-0.247804 -0.5556128,-0.555613 0,-0.30781 0.2478043,-0.5556134 0.5556128,-0.5556134 z"
     style="fill:#80b3ff;fill-opacity:1;stroke:none;stroke-width:0.529157;stroke-linecap:round;stroke-linejoin:round;stroke-miterlimit:4;stroke-dasharray:none;stroke-opacity:1;paint-order:stroke markers fill"
     inkscape:connector-curvature="0" />
  <path
     id="rect1586-9"
     d="m 10.23917,10.159798 c 0.102575,0 0.185204,0.08262 0.185204,0.185205 0,0.102575 -0.08262,0.185203 -0.185204,0.185203 -0.102574,0 -0.185206,-0.08262 -0.185206,-0.185203 0,-0.102574 0.08262,-0.185205 0.185206,-0.185205 z"
     style="fill:#000000;fill-opacity:1;stroke:none;stroke-width:0.529157;stroke-linecap:round;stroke-linejoin:round;stroke-miterlimit:4;stroke-dasharray:none;stroke-opacity:1;paint-order:stroke markers fill"
     inkscape:connector-curvature="0" />
  <path
     id="rect1584-6-3"
     d="m 8.7575358,9.7893896 c 0.3078098,0 0.5556135,0.2478034 0.5556135,0.5556134 0,0.307809 -0.2478037,0.555613 -0.5556135,0.555613 -0.3078098,0 -0.5556137,-0.247804 -0.5556137,-0.555613 0,-0.30781 0.2478039,-0.5556134 0.5556137,-0.5556134 z"
     style="fill:#80b3ff;fill-opacity:1;stroke:none;stroke-width:0.529157;stroke-linecap:round;stroke-linejoin:round;stroke-miterlimit:4;stroke-dasharray:none;stroke-opacity:1;paint-order:stroke markers fill"
     inkscape:connector-curvature="0" />
  <path
     id="rect1586-7-6"
     d="m 8.7575358,10.159798 c 0.1026039,0 0.1852043,0.08262 0.1852043,0.185205 0,0.102575 -0.082605,0.185203 -0.1852043,0.185203 -0.1026039,0 -0.1852047,-0.08262 -0.1852047,-0.185203 0,-0.102574 0.082604,-0.185205 0.1852047,-0.185205 z"
     style="fill:#000000;fill-opacity:1;stroke:none;stroke-width:0.529157;stroke-linecap:round;stroke-linejoin:round;stroke-miterlimit:4;stroke-dasharray:none;stroke-opacity:1;paint-order:stroke markers fill"
     inkscape:connector-curvature="0" />
</svg>
