<?xml version="1.0" encoding="UTF-8" standalone="no"?>
<svg
   width="45.999886"
   height="45.999989"
   version="1.1"
   viewBox="0 0 12.170564 12.170591"
   id="svg12"
   sodipodi:docname="preferences-other.svg"
   inkscape:version="1.3.2 (091e20ef0f, 2023-11-25)"
   xmlns:inkscape="http://www.inkscape.org/namespaces/inkscape"
   xmlns:sodipodi="http://sodipodi.sourceforge.net/DTD/sodipodi-0.dtd"
   xmlns:xlink="http://www.w3.org/1999/xlink"
   xmlns="http://www.w3.org/2000/svg"
   xmlns:svg="http://www.w3.org/2000/svg">
  <defs
     id="defs16">
    <linearGradient
       id="c"
       y1="523.79999"
       x1="403.57001"
       y2="536.79999"
       x2="416.57001"
       gradientUnits="userSpaceOnUse"
       gradientTransform="matrix(0.34526714,0,0,0.34526706,-134.80427,-174.63325)">
      <stop
         stop-color="#292c2f"
         id="stop1568" />
      <stop
         offset="1"
         stop-opacity="0"
         id="stop1570" />
    </linearGradient>
    <linearGradient
       xlink:href="#b-2"
       id="linearGradient4189"
       x1="14.369"
       y1="22.521999"
       x2="26.521999"
       y2="22.521999"
       gradientUnits="userSpaceOnUse" />
    <linearGradient
       x1="36"
       gradientUnits="userSpaceOnUse"
       x2="14"
       y2="12"
       y1="44"
       id="b-2">
      <stop
         style="stop-color:#bfc9c9;stop-opacity:1"
         stop-color="#536161"
         id="stop1579" />
      <stop
         style="stop-color:#fbfbfb;stop-opacity:1"
         stop-color="#f4f5f5"
         offset="1"
         id="stop1581" />
    </linearGradient>
    <linearGradient
       xlink:href="#b-2"
       id="linearGradient4428"
       gradientUnits="userSpaceOnUse"
       x1="31.586"
       y1="36.345001"
       x2="1.2029999"
       y2="6.723" />
    <linearGradient
       xlink:href="#b-2"
       id="linearGradient4189-3"
       x1="14.369"
       y1="22.521999"
       x2="26.521999"
       y2="22.521999"
       gradientUnits="userSpaceOnUse"
       gradientTransform="translate(20.841982,61.553822)" />
    <linearGradient
       xlink:href="#b-2"
       id="linearGradient4428-5"
       gradientUnits="userSpaceOnUse"
       x1="31.586"
       y1="36.345001"
       x2="1.2029999"
       y2="6.723"
       gradientTransform="translate(20.841982,61.553822)" />
    <linearGradient
       xlink:href="#b-2"
       id="linearGradient4189-3-3"
       x1="14.369"
       y1="22.521999"
       x2="26.521999"
       y2="22.521999"
       gradientUnits="userSpaceOnUse"
       gradientTransform="translate(4.376802,4.4211693)" />
    <linearGradient
       xlink:href="#b-2"
       id="linearGradient4428-5-5"
       gradientUnits="userSpaceOnUse"
       x1="31.586"
       y1="36.345001"
       x2="1.2029999"
       y2="6.723"
       gradientTransform="translate(4.376802,4.4211693)" />
    <linearGradient
       inkscape:collect="always"
       xlink:href="#linearGradient11"
       id="linearGradient13"
       x1="-43.819283"
       y1="23.120178"
       x2="-1.9547797"
       y2="23.120178"
       gradientUnits="userSpaceOnUse"
       gradientTransform="scale(0.26457813)" />
    <linearGradient
       id="linearGradient11"
       inkscape:collect="always">
      <stop
         style="stop-color:#9955ff;stop-opacity:0.65640396;"
         offset="0"
         id="stop4-3" />
      <stop
         style="stop-color:#00ccff;stop-opacity:1"
         offset="1"
         id="stop11" />
    </linearGradient>
    <linearGradient
       inkscape:collect="always"
       xlink:href="#linearGradient14"
       id="linearGradient15"
       x1="-9.6850061"
       y1="45.161198"
       x2="11.98815"
       y2="21.735205"
       gradientUnits="userSpaceOnUse"
       gradientTransform="scale(0.26457813)" />
    <linearGradient
       id="linearGradient14"
       inkscape:collect="always">
      <stop
         style="stop-color:#9955ff;stop-opacity:0.45197046;"
         offset="0"
         id="stop12" />
      <stop
         style="stop-color:#00ccff;stop-opacity:1"
         offset="1"
         id="stop13" />
    </linearGradient>
    <linearGradient
       id="paint3_linear"
       x1="69.25"
       y1="28.75"
       x2="75.501099"
       y2="35.5"
       gradientUnits="userSpaceOnUse"
       gradientTransform="matrix(0.642,0,0,0.642,-67.471,-33.235)">
      <stop
         id="stop67"
         offset="0"
         style="stop-color:#4c4c4c;stop-opacity:1;" />
      <stop
         offset="1"
         stop-opacity="0"
         id="stop69"
         style="stop-color:#151515;stop-opacity:0;" />
    </linearGradient>
  </defs>
  <sodipodi:namedview
     id="namedview14"
     pagecolor="#000000"
     bordercolor="#666666"
     borderopacity="1.0"
     inkscape:showpageshadow="2"
     inkscape:pageopacity="0.0"
     inkscape:pagecheckerboard="0"
     inkscape:deskcolor="#d1d1d1"
     showgrid="false"
     inkscape:zoom="5.2149125"
     inkscape:cx="23.20269"
     inkscape:cy="69.032798"
     inkscape:window-width="1920"
     inkscape:window-height="996"
     inkscape:window-x="0"
     inkscape:window-y="0"
     inkscape:window-maximized="1"
     inkscape:current-layer="svg12">
    <inkscape:grid
       type="xygrid"
       id="grid244"
       originx="9.7893915"
       originy="-31.749373"
       spacingy="1"
       spacingx="1"
       units="px"
       visible="false" />
  </sodipodi:namedview>
  <rect
     x="-12.025727"
     y="0.1490714"
     width="11.940627"
     height="11.936014"
     rx="1.6121091"
     stroke="url(#paint4_linear_77:23)"
     shape-rendering="crispEdges"
     id="rect5-6-7-3"
     ry="1.7735944"
     transform="matrix(0.00523883,-0.99998628,0.999988,0.00489859,0,0)"
     style="fill:#80b3ff;fill-opacity:0.15;stroke:url(#linearGradient13);stroke-width:0.188987;stroke-opacity:1" />
  <rect
     x="-3.7266586"
     y="4.6446943"
     width="7.912631"
     height="7.912384"
     rx="1.612043"
     shape-rendering="crispEdges"
     id="rect5-6-6-6-6"
     style="fill:#80b3ff;fill-opacity:0.122146;stroke:url(#linearGradient15);stroke-width:0.188987;stroke-opacity:1"
     ry="1.7735215"
     transform="matrix(0.72612649,-0.68756114,0.6879775,0.72573202,0,0)" />
  <path
     d="m 4.9341976,2.7251548 c -0.1082581,0 -0.195448,0.087201 -0.195448,0.1954455 V 3.1867455 A 1.5610882,1.5783656 0 0 0 4.3538651,3.3512906 L 4.1622291,3.1596301 c -0.038296,-0.038293 -0.088223,-0.057652 -0.1381988,-0.057652 -0.049975,0 -0.099918,0.01925 -0.1382161,0.057652 l -0.2764006,0.276401 c -0.076575,0.076575 -0.076575,0.1998219 0,0.2764149 L 3.8025877,3.905639 A 1.5610882,1.5783656 0 0 0 3.6403336,4.2889684 H 3.3703863 c -0.1082505,0 -0.1954487,0.087188 -0.1954487,0.195446 V 4.87537 c 0,0.1083053 0.087202,0.1955053 0.1954487,0.1955053 H 3.625425 A 1.5610882,1.5783656 0 0 0 3.7800667,5.4767072 L 3.6094136,5.6473568 c -0.076575,0.076574 -0.076575,0.1998447 0,0.2763848 L 3.8858142,6.200148 c 0.076572,0.076594 0.1998243,0.076594 0.2764149,0 L 4.3156988,6.0467031 a 1.5610882,1.5783656 0 0 0 0.4230524,0.1863117 v 0.2061569 c 0,0.1082929 0.087191,0.1955013 0.1954464,0.1955013 h 0.3909557 c 0.1083053,0 0.1955048,-0.087212 0.1955048,-0.1955013 V 6.2406396 A 1.5610882,1.5783656 0 0 0 5.9547401,6.0577715 L 6.0971405,6.200148 c 0.076572,0.076594 0.1998442,0.076594 0.2763841,0 L 6.6499312,5.9237416 c 0.076594,-0.07654 0.076594,-0.1998142 0,-0.2763848 L 6.4968498,5.4942355 A 1.5610882,1.5783656 0 0 0 6.6614178,5.0708753 H 6.888955 c 0.1082931,0 0.1955012,-0.087204 0.1955012,-0.1955053 V 4.4844144 c 0,-0.1082598 -0.087209,-0.195446 -0.1955012,-0.195446 H 6.6472906 A 1.5610882,1.5783656 0 0 0 6.4739324,3.888457 L 6.6499312,3.7124461 c 0.076594,-0.076598 0.076594,-0.1998445 0,-0.2764149 L 6.3735246,3.1596301 c -0.076542,-0.076574 -0.1998165,-0.076574 -0.2763841,0 L 5.9161892,3.3406099 A 1.5610882,1.5783656 0 0 0 5.5206581,3.1810045 V 2.9206003 c 0,-0.1082478 -0.087204,-0.1954455 -0.1955048,-0.1954455 z M 5.1297055,3.5681414 A 1.1117629,1.1117629 0 0 1 6.2414694,4.6799241 1.1117629,1.1117629 0 0 1 5.1297055,5.7916885 1.1117629,1.1117629 0 0 1 4.0179263,4.6799241 1.1117629,1.1117629 0 0 1 5.1297055,3.5681414 Z"
     id="path4-3-7-3-6"
     style="fill:#ffffff;stroke-width:0.254218" />
  <path
     d="m 6.7576505,6.61657 c -0.1082786,0 -0.1954766,0.087223 -0.1954766,0.1955175 V 7.0075212 A 1.2099349,1.2099349 0 0 0 6.2334598,7.1438554 L 6.0952342,7.0056564 c -0.076542,-0.0766 -0.1998162,-0.0766 -0.2763842,0 l -0.1382013,0.138199 c -0.0766,0.076574 -0.0766,0.1998484 0,0.2763841 L 5.8192098,7.558864 A 1.2099349,1.2099349 0 0 0 5.6829372,7.8871784 h -0.195857 c -0.108291,0 -0.1955175,0.087205 -0.1955175,0.195504 v 0.1954517 c 0,0.1082914 0.087204,0.1954774 0.1955175,0.1954774 h 0.195436 A 1.2099349,1.2099349 0 0 0 5.81885,8.802344 L 5.6806487,8.9405346 c -0.0766,0.076591 -0.0766,0.1998165 0,0.2764025 L 5.81885,9.3551509 c 0.076574,0.076558 0.1998443,0.076558 0.2763842,0 L 6.2338564,9.2165624 a 1.2099349,1.2099349 0 0 0 0.3283175,0.1362872 v 0.1959013 c 0,0.108249 0.087202,0.1954422 0.1954766,0.1954422 h 0.1954728 c 0.1082704,0 0.1954826,-0.087197 0.1954826,-0.1954422 V 9.3532425 a 1.2099349,1.2099349 0 0 0 0.328732,-0.1363054 l 0.1381887,0.1382138 c 0.076574,0.076558 0.1998145,0.076558 0.2764037,0 l 0.138211,-0.1382138 c 0.07653,-0.076587 0.07653,-0.1998163 0,-0.2764025 L 7.8915535,8.8019409 A 1.2099349,1.2099349 0 0 0 8.0278409,8.4736115 h 0.1958423 c 0.1083071,0 0.1955092,-0.087188 0.1955092,-0.1954774 V 8.0826824 c 0,-0.1083032 -0.087205,-0.195504 -0.1955092,-0.195504 H 8.0282358 A 1.2099349,1.2099349 0 0 0 7.8919303,7.5584672 l 0.138211,-0.1382277 c 0.07653,-0.076534 0.07653,-0.1998167 0,-0.2763841 l -0.138211,-0.138199 c -0.076564,-0.0766 -0.199819,-0.0766 -0.2764037,0 L 7.4769321,7.144219 A 1.2099349,1.2099349 0 0 0 7.1486059,7.0079408 V 6.8120875 C 7.1486059,6.703794 7.0613929,6.61657 6.9531233,6.61657 Z m 0.097726,0.861358 A 0.70248745,0.70248746 0 0 1 7.5578577,8.1803816 0.70248745,0.70248746 0 0 1 6.8553766,8.882879 0.70248745,0.70248746 0 0 1 6.1528959,8.1803816 0.70248745,0.70248746 0 0 1 6.8553765,7.477928 Z"
     fill-opacity="0.50365"
     id="path6-6-5-6-7"
     style="fill:#80b3ff;fill-opacity:1;stroke-width:0.254218" />
</svg>
