<?xml version="1.0" encoding="UTF-8" standalone="no"?>
<svg
   width="45.999886"
   height="45.999989"
   version="1.1"
   viewBox="0 0 12.170564 12.170591"
   id="svg12"
   sodipodi:docname="yast-autoyast.svg"
   inkscape:version="1.3.2 (091e20ef0f, 2023-11-25)"
   xmlns:inkscape="http://www.inkscape.org/namespaces/inkscape"
   xmlns:sodipodi="http://sodipodi.sourceforge.net/DTD/sodipodi-0.dtd"
   xmlns:xlink="http://www.w3.org/1999/xlink"
   xmlns="http://www.w3.org/2000/svg"
   xmlns:svg="http://www.w3.org/2000/svg">
  <defs
     id="defs16">
    <linearGradient
       id="c"
       y1="523.79999"
       x1="403.57001"
       y2="536.79999"
       x2="416.57001"
       gradientUnits="userSpaceOnUse"
       gradientTransform="matrix(0.34526714,0,0,0.34526706,-134.80427,-174.63325)">
      <stop
         stop-color="#292c2f"
         id="stop1568" />
      <stop
         offset="1"
         stop-opacity="0"
         id="stop1570" />
    </linearGradient>
    <linearGradient
       xlink:href="#b-2"
       id="linearGradient4189"
       x1="14.369"
       y1="22.521999"
       x2="26.521999"
       y2="22.521999"
       gradientUnits="userSpaceOnUse" />
    <linearGradient
       x1="36"
       gradientUnits="userSpaceOnUse"
       x2="14"
       y2="12"
       y1="44"
       id="b-2">
      <stop
         style="stop-color:#bfc9c9;stop-opacity:1"
         stop-color="#536161"
         id="stop1579" />
      <stop
         style="stop-color:#fbfbfb;stop-opacity:1"
         stop-color="#f4f5f5"
         offset="1"
         id="stop1581" />
    </linearGradient>
    <linearGradient
       xlink:href="#b-2"
       id="linearGradient4428"
       gradientUnits="userSpaceOnUse"
       x1="31.586"
       y1="36.345001"
       x2="1.2029999"
       y2="6.723" />
    <linearGradient
       xlink:href="#b-2"
       id="linearGradient4189-3"
       x1="14.369"
       y1="22.521999"
       x2="26.521999"
       y2="22.521999"
       gradientUnits="userSpaceOnUse"
       gradientTransform="translate(20.841982,61.553822)" />
    <linearGradient
       xlink:href="#b-2"
       id="linearGradient4428-5"
       gradientUnits="userSpaceOnUse"
       x1="31.586"
       y1="36.345001"
       x2="1.2029999"
       y2="6.723"
       gradientTransform="translate(20.841982,61.553822)" />
    <linearGradient
       xlink:href="#b-2"
       id="linearGradient4189-3-3"
       x1="14.369"
       y1="22.521999"
       x2="26.521999"
       y2="22.521999"
       gradientUnits="userSpaceOnUse"
       gradientTransform="translate(4.376802,4.4211693)" />
    <linearGradient
       xlink:href="#b-2"
       id="linearGradient4428-5-5"
       gradientUnits="userSpaceOnUse"
       x1="31.586"
       y1="36.345001"
       x2="1.2029999"
       y2="6.723"
       gradientTransform="translate(4.376802,4.4211693)" />
    <linearGradient
       inkscape:collect="always"
       xlink:href="#linearGradient11"
       id="linearGradient13"
       x1="-43.819283"
       y1="23.120178"
       x2="-1.9547797"
       y2="23.120178"
       gradientUnits="userSpaceOnUse"
       gradientTransform="scale(0.26457813)" />
    <linearGradient
       id="linearGradient11"
       inkscape:collect="always">
      <stop
         style="stop-color:#9955ff;stop-opacity:0.65640396;"
         offset="0"
         id="stop4-3" />
      <stop
         style="stop-color:#ffb380;stop-opacity:1"
         offset="1"
         id="stop11" />
    </linearGradient>
    <linearGradient
       inkscape:collect="always"
       xlink:href="#linearGradient14"
       id="linearGradient15"
       x1="-9.6850061"
       y1="45.161198"
       x2="11.98815"
       y2="21.735205"
       gradientUnits="userSpaceOnUse"
       gradientTransform="scale(0.26457813)" />
    <linearGradient
       id="linearGradient14"
       inkscape:collect="always">
      <stop
         style="stop-color:#9955ff;stop-opacity:0.45197046;"
         offset="0"
         id="stop12" />
      <stop
         style="stop-color:#ffb380;stop-opacity:1;"
         offset="1"
         id="stop13" />
    </linearGradient>
    <linearGradient
       id="h-3"
       gradientUnits="userSpaceOnUse"
       x1="18"
       x2="30"
       y1="18"
       y2="30"
       gradientTransform="translate(32.050847,-13.779661)">
      <stop
         offset="0"
         stop-color="#292c2f"
         id="stop13-3" />
      <stop
         offset="1"
         stop-opacity="0"
         id="stop15-6" />
    </linearGradient>
    <linearGradient
       inkscape:collect="always"
       xlink:href="#g-5"
       id="linearGradient1465"
       gradientUnits="userSpaceOnUse"
       gradientTransform="translate(11.341744,4.0505623)"
       x1="18"
       y1="8"
       x2="18"
       y2="2" />
    <linearGradient
       id="g-5"
       gradientUnits="userSpaceOnUse"
       x1="18"
       x2="18"
       xlink:href="#b"
       y1="8"
       y2="2"
       gradientTransform="translate(0,-0.02)">
      <stop
         offset="0"
         stop-color="#ebc69a"
         id="stop28-3" />
      <stop
         offset="1"
         stop-color="#f4e0c8"
         stop-opacity="0"
         id="stop30-5" />
    </linearGradient>
    <linearGradient
       id="b"
       gradientTransform="matrix(0.66667,0,0,-0.37037,-256.38,197.926)"
       gradientUnits="userSpaceOnUse"
       x1="408.57001"
       x2="408.57001"
       y1="512.79797"
       y2="504.698">
      <stop
         offset="0"
         stop-color="#ebc69a"
         id="stop3" />
      <stop
         offset="1"
         stop-color="#173f4f"
         stop-opacity="0"
         id="stop5" />
    </linearGradient>
    <linearGradient
       inkscape:collect="always"
       xlink:href="#b"
       id="linearGradient1467"
       gradientUnits="userSpaceOnUse"
       gradientTransform="matrix(0.66667,0,0,-0.37037,-245.03825,201.99656)"
       x1="408.57001"
       y1="512.79797"
       x2="408.57001"
       y2="504.698" />
  </defs>
  <sodipodi:namedview
     id="namedview14"
     pagecolor="#000000"
     bordercolor="#666666"
     borderopacity="1.0"
     inkscape:showpageshadow="2"
     inkscape:pageopacity="0.0"
     inkscape:pagecheckerboard="0"
     inkscape:deskcolor="#d1d1d1"
     showgrid="false"
     inkscape:zoom="5.2149125"
     inkscape:cx="23.20269"
     inkscape:cy="53.692176"
     inkscape:window-width="1920"
     inkscape:window-height="996"
     inkscape:window-x="0"
     inkscape:window-y="0"
     inkscape:window-maximized="1"
     inkscape:current-layer="svg12">
    <inkscape:grid
       type="xygrid"
       id="grid244"
       originx="9.7893915"
       originy="-31.749373"
       spacingy="1"
       spacingx="1"
       units="px"
       visible="false" />
  </sodipodi:namedview>
  <rect
     x="-12.025727"
     y="0.1490714"
     width="11.940627"
     height="11.936014"
     rx="1.6121091"
     stroke="url(#paint4_linear_77:23)"
     shape-rendering="crispEdges"
     id="rect5-6-7-3"
     ry="1.7735944"
     transform="matrix(0.00523883,-0.99998628,0.999988,0.00489859,0,0)"
     style="fill:#80b3ff;fill-opacity:0.15;stroke:url(#linearGradient13);stroke-width:0.188987;stroke-opacity:1" />
  <rect
     x="-3.7266586"
     y="4.6446943"
     width="7.912631"
     height="7.912384"
     rx="1.612043"
     shape-rendering="crispEdges"
     id="rect5-6-6-6-6"
     style="fill:#80b3ff;fill-opacity:0.122146;stroke:url(#linearGradient15);stroke-width:0.188987;stroke-opacity:1"
     ry="1.7735215"
     transform="matrix(0.72612649,-0.68756114,0.6879775,0.72573202,0,0)" />
  <path
     d="m 5.5561402,3.5718048 v 0.437347 A 1.984336,1.984336 0 0 0 4.8600357,4.2988658 L 4.5500824,3.9889118 3.9889122,4.5500818 4.2988655,4.8600359 A 1.984336,1.984336 0 0 0 4.010343,5.5561409 H 3.5718048 v 0.793734 h 0.4373476 a 1.984336,1.984336 0 0 0 0.2897131,0.696105 l -0.3099533,0.309953 0.5611702,0.56117 0.3099533,-0.309953 a 1.984336,1.984336 0 0 0 0.6961045,0.288523 v 0.438538 h 0.7937352 v -0.437347 a 1.984336,1.984336 0 0 0 0.6961048,-0.289714 l 0.3099527,0.309953 0.5611703,-0.56117 -0.3099528,-0.309953 A 1.984336,1.984336 0 0 0 7.8956729,6.3498749 H 8.3342106 V 5.5561409 H 7.8968635 A 1.984336,1.984336 0 0 0 7.6071504,4.8600359 L 7.9171032,4.5500818 7.3559329,3.9889118 7.0459802,4.2988658 A 1.984336,1.984336 0 0 0 6.3498754,4.0103428 v -0.438538 z m 0.3968672,0.793734 a 1.5874688,1.5874688 0 0 1 1.1390089,0.4814001 1.5874688,1.5874688 0 0 1 0.4484604,1.106068 1.5874688,1.5874688 0 0 1 -0.4814004,1.139009 1.5874688,1.5874688 0 0 1 -1.1060689,0.448461 1.5874688,1.5874688 0 0 1 -1.1390083,-0.4814 1.5874688,1.5874688 0 0 1 -0.4484599,-1.10607 1.5874688,1.5874688 0 0 1 0.4813999,-1.139008 1.5874688,1.5874688 0 0 1 1.1060683,-0.4484601 z M 5.5561402,5.1592739 v 1.587468 l 1.1906021,-0.793735 z"
     id="path55-9-7"
     style="fill:#fafafa;fill-opacity:1;stroke-width:0.396867" />
  <path
     d="M 9.2632527,9.0298067 V 11.146432 H 11.379878 V 9.0298067 Z M 9.6865765,9.453133 h 0.4233245 v 0.423325 h 0.423327 V 9.453133 h 0.423324 v 0.84665 h -0.423324 v 0.423324 H 10.109901 V 10.299783 H 9.6865765 Z"
     id="path43-7-5"
     style="fill:#fefefe;fill-opacity:1;stroke-width:0.317492" />
  <g
     stroke-opacity="0.55"
     stroke-width="1.867"
     id="g51-9-9"
     transform="matrix(0.3968672,0,0,0.3968672,-3.4428536,-0.54767674)">
    <path
       d="m 14,2 v 9 l 1,-1 1,1 1,-1 c 0,0 1,1 1,0.972 V 2 Z"
       fill="#f4e0c8"
       id="path45-1-2" />
    <path
       d="m 14,1.98 h 4 v 6 h -4 z"
       fill="url(#g)"
       id="path47-2-2"
       style="fill:url(#linearGradient1465)" />
    <path
       d="m 14,8 v 3 l 1,-1 1,1 1,-1 c 0,0 1,1 1,0.973 V 8 Z"
       fill="url(#b)"
       id="path49-7-8"
       style="fill:url(#linearGradient1467)" />
  </g>
</svg>
